# area_gravity_controller generated by machinegen.py
mtllib area_gravity_controller.mtl
usemtl area_gravity_controller
vn 0 0 -1
vn 0 0 1
vn -1 0 0
vn 1 0 0
vn 0 1 0
vn 0 -1 0
o Hull
v 1.500000 -0.250000 -1.000000
v -1.500000 -0.250000 -1.000000
v -1.500000 -0.500000 -1.000000
v 1.500000 -0.500000 -1.000000
vt 0.000000 0.328125
vt 0.375000 0.328125
vt 0.375000 0.296875
vt 0.000000 0.296875
f 1/1/1 4/4/1 3/3/1 2/2/1
v -1.500000 -0.250000 1.000000
v 1.500000 -0.250000 1.000000
v 1.500000 -0.500000 1.000000
v -1.500000 -0.500000 1.000000
vt 0.000000 0.328125
vt 0.375000 0.328125
vt 0.375000 0.296875
vt 0.000000 0.296875
f 5/5/2 8/8/2 7/7/2 6/6/2
v -1.500000 -0.250000 -1.000000
v -1.500000 -0.250000 1.000000
v -1.500000 -0.500000 1.000000
v -1.500000 -0.500000 -1.000000
vt 0.750000 0.328125
vt 1.000000 0.328125
vt 1.000000 0.296875
vt 0.750000 0.296875
f 9/9/3 12/12/3 11/11/3 10/10/3
v 1.500000 -0.250000 1.000000
v 1.500000 -0.250000 -1.000000
v 1.500000 -0.500000 -1.000000
v 1.500000 -0.500000 1.000000
vt 0.750000 0.328125
vt 1.000000 0.328125
vt 1.000000 0.296875
vt 0.750000 0.296875
f 13/13/4 16/16/4 15/15/4 14/14/4
v -1.500000 -0.250000 -1.000000
v 1.500000 -0.250000 -1.000000
v 1.500000 -0.250000 1.000000
v -1.500000 -0.250000 1.000000
vt 0.000000 1.000000
vt 0.375000 1.000000
vt 0.375000 0.750000
vt 0.000000 0.750000
f 17/17/5 20/20/5 19/19/5 18/18/5
v 1.000000 -0.250000 -1.500000
v -1.000000 -0.250000 -1.500000
v -1.000000 -0.500000 -1.500000
v 1.000000 -0.500000 -1.500000
vt 0.750000 0.328125
vt 1.000000 0.328125
vt 1.000000 0.296875
vt 0.750000 0.296875
f 21/21/1 24/24/1 23/23/1 22/22/1
v -1.000000 -0.250000 -1.500000
v -1.000000 -0.250000 -1.000000
v -1.000000 -0.500000 -1.000000
v -1.000000 -0.500000 -1.500000
vt 0.601562 0.296875
vt 0.664062 0.296875
vt 0.664062 0.265625
vt 0.601562 0.265625
f 25/25/3 28/28/3 27/27/3 26/26/3
v 1.000000 -0.250000 -1.000000
v 1.000000 -0.250000 -1.500000
v 1.000000 -0.500000 -1.500000
v 1.000000 -0.500000 -1.000000
vt 0.601562 0.296875
vt 0.664062 0.296875
vt 0.664062 0.265625
vt 0.601562 0.265625
f 29/29/4 32/32/4 31/31/4 30/30/4
v -1.000000 -0.250000 -1.500000
v 1.000000 -0.250000 -1.500000
v 1.000000 -0.250000 -1.000000
v -1.000000 -0.250000 -1.000000
vt 0.000000 0.500000
vt 0.250000 0.500000
vt 0.250000 0.437500
vt 0.000000 0.437500
f 33/33/5 36/36/5 35/35/5 34/34/5
v -1.000000 -0.250000 1.500000
v 1.000000 -0.250000 1.500000
v 1.000000 -0.500000 1.500000
v -1.000000 -0.500000 1.500000
vt 0.750000 0.328125
vt 1.000000 0.328125
vt 1.000000 0.296875
vt 0.750000 0.296875
f 37/37/2 40/40/2 39/39/2 38/38/2
v -1.000000 -0.250000 1.000000
v -1.000000 -0.250000 1.500000
v -1.000000 -0.500000 1.500000
v -1.000000 -0.500000 1.000000
vt 0.601562 0.296875
vt 0.664062 0.296875
vt 0.664062 0.265625
vt 0.601562 0.265625
f 41/41/3 44/44/3 43/43/3 42/42/3
v 1.000000 -0.250000 1.500000
v 1.000000 -0.250000 1.000000
v 1.000000 -0.500000 1.000000
v 1.000000 -0.500000 1.500000
vt 0.601562 0.296875
vt 0.664062 0.296875
vt 0.664062 0.265625
vt 0.601562 0.265625
f 45/45/4 48/48/4 47/47/4 46/46/4
v -1.000000 -0.250000 1.000000
v 1.000000 -0.250000 1.000000
v 1.000000 -0.250000 1.500000
v -1.000000 -0.250000 1.500000
vt 0.000000 0.500000
vt 0.250000 0.500000
vt 0.250000 0.437500
vt 0.000000 0.437500
f 49/49/5 52/52/5 51/51/5 50/50/5
v 1.000000 -0.250000 1.250000
v 1.250000 -0.250000 1.250000
v 1.250000 -0.500000 1.250000
v 1.000000 -0.500000 1.250000
vt 0.726562 0.296875
vt 0.757812 0.296875
vt 0.757812 0.265625
vt 0.726562 0.265625
f 53/53/2 56/56/2 55/55/2 54/54/2
v 1.250000 -0.250000 1.250000
v 1.250000 -0.250000 1.000000
v 1.250000 -0.500000 1.000000
v 1.250000 -0.500000 1.250000
vt 0.726562 0.296875
vt 0.757812 0.296875
vt 0.757812 0.265625
vt 0.726562 0.265625
f 57/57/4 60/60/4 59/59/4 58/58/4
v 1.000000 -0.250000 1.000000
v 1.250000 -0.250000 1.000000
v 1.250000 -0.250000 1.250000
v 1.000000 -0.250000 1.250000
vt 0.757812 0.296875
vt 0.789062 0.296875
vt 0.789062 0.265625
vt 0.757812 0.265625
f 61/61/5 64/64/5 63/63/5 62/62/5
v 1.250000 -0.250000 -1.250000
v 1.000000 -0.250000 -1.250000
v 1.000000 -0.500000 -1.250000
v 1.250000 -0.500000 -1.250000
vt 0.726562 0.296875
vt 0.757812 0.296875
vt 0.757812 0.265625
vt 0.726562 0.265625
f 65/65/1 68/68/1 67/67/1 66/66/1
v 1.250000 -0.250000 -1.000000
v 1.250000 -0.250000 -1.250000
v 1.250000 -0.500000 -1.250000
v 1.250000 -0.500000 -1.000000
vt 0.726562 0.296875
vt 0.757812 0.296875
vt 0.757812 0.265625
vt 0.726562 0.265625
f 69/69/4 72/72/4 71/71/4 70/70/4
v 1.000000 -0.250000 -1.250000
v 1.250000 -0.250000 -1.250000
v 1.250000 -0.250000 -1.000000
v 1.000000 -0.250000 -1.000000
vt 0.757812 0.296875
vt 0.789062 0.296875
vt 0.789062 0.265625
vt 0.757812 0.265625
f 73/73/5 76/76/5 75/75/5 74/74/5
v -1.250000 -0.250000 1.250000
v -1.000000 -0.250000 1.250000
v -1.000000 -0.500000 1.250000
v -1.250000 -0.500000 1.250000
vt 0.726562 0.296875
vt 0.757812 0.296875
vt 0.757812 0.265625
vt 0.726562 0.265625
f 77/77/2 80/80/2 79/79/2 78/78/2
v -1.250000 -0.250000 1.000000
v -1.250000 -0.250000 1.250000
v -1.250000 -0.500000 1.250000
v -1.250000 -0.500000 1.000000
vt 0.726562 0.296875
vt 0.757812 0.296875
vt 0.757812 0.265625
vt 0.726562 0.265625
f 81/81/3 84/84/3 83/83/3 82/82/3
v -1.250000 -0.250000 1.000000
v -1.000000 -0.250000 1.000000
v -1.000000 -0.250000 1.250000
v -1.250000 -0.250000 1.250000
vt 0.757812 0.296875
vt 0.789062 0.296875
vt 0.789062 0.265625
vt 0.757812 0.265625
f 85/85/5 88/88/5 87/87/5 86/86/5
v -1.000000 -0.250000 -1.250000
v -1.250000 -0.250000 -1.250000
v -1.250000 -0.500000 -1.250000
v -1.000000 -0.500000 -1.250000
vt 0.726562 0.296875
vt 0.757812 0.296875
vt 0.757812 0.265625
vt 0.726562 0.265625
f 89/89/1 92/92/1 91/91/1 90/90/1
v -1.250000 -0.250000 -1.250000
v -1.250000 -0.250000 -1.000000
v -1.250000 -0.500000 -1.000000
v -1.250000 -0.500000 -1.250000
vt 0.726562 0.296875
vt 0.757812 0.296875
vt 0.757812 0.265625
vt 0.726562 0.265625
f 93/93/3 96/96/3 95/95/3 94/94/3
v -1.250000 -0.250000 -1.250000
v -1.000000 -0.250000 -1.250000
v -1.000000 -0.250000 -1.000000
v -1.250000 -0.250000 -1.000000
vt 0.757812 0.296875
vt 0.789062 0.296875
vt 0.789062 0.265625
vt 0.757812 0.265625
f 97/97/5 100/100/5 99/99/5 98/98/5
v 0.875000 0.250000 -0.500000
v -0.875000 0.250000 -0.500000
v -0.875000 -0.250000 -0.500000
v 0.875000 -0.250000 -0.500000
vt 0.000000 0.437500
vt 0.218750 0.437500
vt 0.218750 0.375000
vt 0.000000 0.375000
f 101/101/1 104/104/1 103/103/1 102/102/1
v -0.875000 0.250000 0.500000
v 0.875000 0.250000 0.500000
v 0.875000 -0.250000 0.500000
v -0.875000 -0.250000 0.500000
vt 0.000000 0.437500
vt 0.218750 0.437500
vt 0.218750 0.375000
vt 0.000000 0.375000
f 105/105/2 108/108/2 107/107/2 106/106/2
v -0.875000 0.250000 -0.500000
v -0.875000 0.250000 0.500000
v -0.875000 -0.250000 0.500000
v -0.875000 -0.250000 -0.500000
vt 0.218750 0.437500
vt 0.343750 0.437500
vt 0.343750 0.375000
vt 0.218750 0.375000
f 109/109/3 112/112/3 111/111/3 110/110/3
v 0.875000 0.250000 0.500000
v 0.875000 0.250000 -0.500000
v 0.875000 -0.250000 -0.500000
v 0.875000 -0.250000 0.500000
vt 0.218750 0.437500
vt 0.343750 0.437500
vt 0.343750 0.375000
vt 0.218750 0.375000
f 113/113/4 116/116/4 115/115/4 114/114/4
v 0.500000 0.250000 -0.875000
v -0.500000 0.250000 -0.875000
v -0.500000 -0.250000 -0.875000
v 0.500000 -0.250000 -0.875000
vt 0.218750 0.437500
vt 0.343750 0.437500
vt 0.343750 0.375000
vt 0.218750 0.375000
f 117/117/1 120/120/1 119/119/1 118/118/1
v -0.500000 0.250000 -0.875000
v -0.500000 0.250000 -0.500000
v -0.500000 -0.250000 -0.500000
v -0.500000 -0.250000 -0.875000
vt 0.921875 0.750000
vt 0.968750 0.750000
vt 0.968750 0.687500
vt 0.921875 0.687500
f 121/121/3 124/124/3 123/123/3 122/122/3
v 0.500000 0.250000 -0.500000
v 0.500000 0.250000 -0.875000
v 0.500000 -0.250000 -0.875000
v 0.500000 -0.250000 -0.500000
vt 0.921875 0.750000
vt 0.968750 0.750000
vt 0.968750 0.687500
vt 0.921875 0.687500
f 125/125/4 128/128/4 127/127/4 126/126/4
v -0.500000 0.250000 0.875000
v 0.500000 0.250000 0.875000
v 0.500000 -0.250000 0.875000
v -0.500000 -0.250000 0.875000
vt 0.218750 0.437500
vt 0.343750 0.437500
vt 0.343750 0.375000
vt 0.218750 0.375000
f 129/129/2 132/132/2 131/131/2 130/130/2
v -0.500000 0.250000 0.500000
v -0.500000 0.250000 0.875000
v -0.500000 -0.250000 0.875000
v -0.500000 -0.250000 0.500000
vt 0.921875 0.750000
vt 0.968750 0.750000
vt 0.968750 0.687500
vt 0.921875 0.687500
f 133/133/3 136/136/3 135/135/3 134/134/3
v 0.500000 0.250000 0.875000
v 0.500000 0.250000 0.500000
v 0.500000 -0.250000 0.500000
v 0.500000 -0.250000 0.875000
vt 0.921875 0.750000
vt 0.968750 0.750000
vt 0.968750 0.687500
vt 0.921875 0.687500
f 137/137/4 140/140/4 139/139/4 138/138/4
v 0.500000 0.250000 0.687500
v 0.687500 0.250000 0.687500
v 0.687500 -0.250000 0.687500
v 0.500000 -0.250000 0.687500
vt 0.343750 0.437500
vt 0.367188 0.437500
vt 0.367188 0.375000
vt 0.343750 0.375000
f 141/141/2 144/144/2 143/143/2 142/142/2
v 0.687500 0.250000 0.687500
v 0.687500 0.250000 0.500000
v 0.687500 -0.250000 0.500000
v 0.687500 -0.250000 0.687500
vt 0.343750 0.437500
vt 0.367188 0.437500
vt 0.367188 0.375000
vt 0.343750 0.375000
f 145/145/4 148/148/4 147/147/4 146/146/4
v 0.687500 0.250000 -0.687500
v 0.500000 0.250000 -0.687500
v 0.500000 -0.250000 -0.687500
v 0.687500 -0.250000 -0.687500
vt 0.343750 0.437500
vt 0.367188 0.437500
vt 0.367188 0.375000
vt 0.343750 0.375000
f 149/149/1 152/152/1 151/151/1 150/150/1
v 0.687500 0.250000 -0.500000
v 0.687500 0.250000 -0.687500
v 0.687500 -0.250000 -0.687500
v 0.687500 -0.250000 -0.500000
vt 0.343750 0.437500
vt 0.367188 0.437500
vt 0.367188 0.375000
vt 0.343750 0.375000
f 153/153/4 156/156/4 155/155/4 154/154/4
v -0.687500 0.250000 0.687500
v -0.500000 0.250000 0.687500
v -0.500000 -0.250000 0.687500
v -0.687500 -0.250000 0.687500
vt 0.343750 0.437500
vt 0.367188 0.437500
vt 0.367188 0.375000
vt 0.343750 0.375000
f 157/157/2 160/160/2 159/159/2 158/158/2
v -0.687500 0.250000 0.500000
v -0.687500 0.250000 0.687500
v -0.687500 -0.250000 0.687500
v -0.687500 -0.250000 0.500000
vt 0.343750 0.437500
vt 0.367188 0.437500
vt 0.367188 0.375000
vt 0.343750 0.375000
f 161/161/3 164/164/3 163/163/3 162/162/3
v -0.500000 0.250000 -0.687500
v -0.687500 0.250000 -0.687500
v -0.687500 -0.250000 -0.687500
v -0.500000 -0.250000 -0.687500
vt 0.343750 0.437500
vt 0.367188 0.437500
vt 0.367188 0.375000
vt 0.343750 0.375000
f 165/165/1 168/168/1 167/167/1 166/166/1
v -0.687500 0.250000 -0.687500
v -0.687500 0.250000 -0.500000
v -0.687500 -0.250000 -0.500000
v -0.687500 -0.250000 -0.687500
vt 0.343750 0.437500
vt 0.367188 0.437500
vt 0.367188 0.375000
vt 0.343750 0.375000
f 169/169/3 172/172/3 171/171/3 170/170/3
v 1.500000 0.500000 -1.000000
v -1.500000 0.500000 -1.000000
v -1.500000 0.250000 -1.000000
v 1.500000 0.250000 -1.000000
vt 0.375000 0.328125
vt 0.750000 0.328125
vt 0.750000 0.296875
vt 0.375000 0.296875
f 173/173/1 176/176/1 175/175/1 174/174/1
v -1.500000 0.500000 1.000000
v 1.500000 0.500000 1.000000
v 1.500000 0.250000 1.000000
v -1.500000 0.250000 1.000000
vt 0.375000 0.328125
vt 0.750000 0.328125
vt 0.750000 0.296875
vt 0.375000 0.296875
f 177/177/2 180/180/2 179/179/2 178/178/2
v -1.500000 0.500000 -1.000000
v -1.500000 0.500000 1.000000
v -1.500000 0.250000 1.000000
v -1.500000 0.250000 -1.000000
vt 0.000000 0.296875
vt 0.250000 0.296875
vt 0.250000 0.265625
vt 0.000000 0.265625
f 181/181/3 184/184/3 183/183/3 182/182/3
v 1.500000 0.500000 1.000000
v 1.500000 0.500000 -1.000000
v 1.500000 0.250000 -1.000000
v 1.500000 0.250000 1.000000
vt 0.000000 0.296875
vt 0.250000 0.296875
vt 0.250000 0.265625
vt 0.000000 0.265625
f 185/185/4 188/188/4 187/187/4 186/186/4
v -1.500000 0.500000 -1.000000
v 1.500000 0.500000 -1.000000
v 1.500000 0.500000 1.000000
v -1.500000 0.500000 1.000000
vt 0.375000 1.000000
vt 0.750000 1.000000
vt 0.750000 0.750000
vt 0.375000 0.750000
f 189/189/5 192/192/5 191/191/5 190/190/5
v -1.500000 0.250000 1.000000
v 1.500000 0.250000 1.000000
v 1.500000 0.250000 -1.000000
v -1.500000 0.250000 -1.000000
vt 0.000000 0.750000
vt 0.375000 0.750000
vt 0.375000 0.500000
vt 0.000000 0.500000
f 193/193/6 196/196/6 195/195/6 194/194/6
v 1.000000 0.500000 -1.500000
v -1.000000 0.500000 -1.500000
v -1.000000 0.250000 -1.500000
v 1.000000 0.250000 -1.500000
vt 0.000000 0.296875
vt 0.250000 0.296875
vt 0.250000 0.265625
vt 0.000000 0.265625
f 197/197/1 200/200/1 199/199/1 198/198/1
v -1.000000 0.500000 -1.500000
v -1.000000 0.500000 -1.000000
v -1.000000 0.250000 -1.000000
v -1.000000 0.250000 -1.500000
vt 0.664062 0.296875
vt 0.726562 0.296875
vt 0.726562 0.265625
vt 0.664062 0.265625
f 201/201/3 204/204/3 203/203/3 202/202/3
v 1.000000 0.500000 -1.000000
v 1.000000 0.500000 -1.500000
v 1.000000 0.250000 -1.500000
v 1.000000 0.250000 -1.000000
vt 0.664062 0.296875
vt 0.726562 0.296875
vt 0.726562 0.265625
vt 0.664062 0.265625
f 205/205/4 208/208/4 207/207/4 206/206/4
v -1.000000 0.500000 -1.500000
v 1.000000 0.500000 -1.500000
v 1.000000 0.500000 -1.000000
v -1.000000 0.500000 -1.000000
vt 0.250000 0.500000
vt 0.500000 0.500000
vt 0.500000 0.437500
vt 0.250000 0.437500
f 209/209/5 212/212/5 211/211/5 210/210/5
v -1.000000 0.250000 -1.000000
v 1.000000 0.250000 -1.000000
v 1.000000 0.250000 -1.500000
v -1.000000 0.250000 -1.500000
vt 0.500000 0.500000
vt 0.750000 0.500000
vt 0.750000 0.437500
vt 0.500000 0.437500
f 213/213/6 216/216/6 215/215/6 214/214/6
v -1.000000 0.500000 1.500000
v 1.000000 0.500000 1.500000
v 1.000000 0.250000 1.500000
v -1.000000 0.250000 1.500000
vt 0.000000 0.296875
vt 0.250000 0.296875
vt 0.250000 0.265625
vt 0.000000 0.265625
f 217/217/2 220/220/2 219/219/2 218/218/2
v -1.000000 0.500000 1.000000
v -1.000000 0.500000 1.500000
v -1.000000 0.250000 1.500000
v -1.000000 0.250000 1.000000
vt 0.664062 0.296875
vt 0.726562 0.296875
vt 0.726562 0.265625
vt 0.664062 0.265625
f 221/221/3 224/224/3 223/223/3 222/222/3
v 1.000000 0.500000 1.500000
v 1.000000 0.500000 1.000000
v 1.000000 0.250000 1.000000
v 1.000000 0.250000 1.500000
vt 0.664062 0.296875
vt 0.726562 0.296875
vt 0.726562 0.265625
vt 0.664062 0.265625
f 225/225/4 228/228/4 227/227/4 226/226/4
v -1.000000 0.500000 1.000000
v 1.000000 0.500000 1.000000
v 1.000000 0.500000 1.500000
v -1.000000 0.500000 1.500000
vt 0.250000 0.500000
vt 0.500000 0.500000
vt 0.500000 0.437500
vt 0.250000 0.437500
f 229/229/5 232/232/5 231/231/5 230/230/5
v -1.000000 0.250000 1.500000
v 1.000000 0.250000 1.500000
v 1.000000 0.250000 1.000000
v -1.000000 0.250000 1.000000
vt 0.500000 0.500000
vt 0.750000 0.500000
vt 0.750000 0.437500
vt 0.500000 0.437500
f 233/233/6 236/236/6 235/235/6 234/234/6
v 1.000000 0.500000 1.250000
v 1.250000 0.500000 1.250000
v 1.250000 0.250000 1.250000
v 1.000000 0.250000 1.250000
vt 0.789062 0.296875
vt 0.820312 0.296875
vt 0.820312 0.265625
vt 0.789062 0.265625
f 237/237/2 240/240/2 239/239/2 238/238/2
v 1.250000 0.500000 1.250000
v 1.250000 0.500000 1.000000
v 1.250000 0.250000 1.000000
v 1.250000 0.250000 1.250000
vt 0.789062 0.296875
vt 0.820312 0.296875
vt 0.820312 0.265625
vt 0.789062 0.265625
f 241/241/4 244/244/4 243/243/4 242/242/4
v 1.000000 0.500000 1.000000
v 1.250000 0.500000 1.000000
v 1.250000 0.500000 1.250000
v 1.000000 0.500000 1.250000
vt 0.820312 0.296875
vt 0.851562 0.296875
vt 0.851562 0.265625
vt 0.820312 0.265625
f 245/245/5 248/248/5 247/247/5 246/246/5
v 1.000000 0.250000 1.250000
v 1.250000 0.250000 1.250000
v 1.250000 0.250000 1.000000
v 1.000000 0.250000 1.000000
vt 0.851562 0.296875
vt 0.882812 0.296875
vt 0.882812 0.265625
vt 0.851562 0.265625
f 249/249/6 252/252/6 251/251/6 250/250/6
v 1.250000 0.500000 -1.250000
v 1.000000 0.500000 -1.250000
v 1.000000 0.250000 -1.250000
v 1.250000 0.250000 -1.250000
vt 0.789062 0.296875
vt 0.820312 0.296875
vt 0.820312 0.265625
vt 0.789062 0.265625
f 253/253/1 256/256/1 255/255/1 254/254/1
v 1.250000 0.500000 -1.000000
v 1.250000 0.500000 -1.250000
v 1.250000 0.250000 -1.250000
v 1.250000 0.250000 -1.000000
vt 0.789062 0.296875
vt 0.820312 0.296875
vt 0.820312 0.265625
vt 0.789062 0.265625
f 257/257/4 260/260/4 259/259/4 258/258/4
v 1.000000 0.500000 -1.250000
v 1.250000 0.500000 -1.250000
v 1.250000 0.500000 -1.000000
v 1.000000 0.500000 -1.000000
vt 0.820312 0.296875
vt 0.851562 0.296875
vt 0.851562 0.265625
vt 0.820312 0.265625
f 261/261/5 264/264/5 263/263/5 262/262/5
v 1.000000 0.250000 -1.000000
v 1.250000 0.250000 -1.000000
v 1.250000 0.250000 -1.250000
v 1.000000 0.250000 -1.250000
vt 0.851562 0.296875
vt 0.882812 0.296875
vt 0.882812 0.265625
vt 0.851562 0.265625
f 265/265/6 268/268/6 267/267/6 266/266/6
v -1.250000 0.500000 1.250000
v -1.000000 0.500000 1.250000
v -1.000000 0.250000 1.250000
v -1.250000 0.250000 1.250000
vt 0.789062 0.296875
vt 0.820312 0.296875
vt 0.820312 0.265625
vt 0.789062 0.265625
f 269/269/2 272/272/2 271/271/2 270/270/2
v -1.250000 0.500000 1.000000
v -1.250000 0.500000 1.250000
v -1.250000 0.250000 1.250000
v -1.250000 0.250000 1.000000
vt 0.789062 0.296875
vt 0.820312 0.296875
vt 0.820312 0.265625
vt 0.789062 0.265625
f 273/273/3 276/276/3 275/275/3 274/274/3
v -1.250000 0.500000 1.000000
v -1.000000 0.500000 1.000000
v -1.000000 0.500000 1.250000
v -1.250000 0.500000 1.250000
vt 0.820312 0.296875
vt 0.851562 0.296875
vt 0.851562 0.265625
vt 0.820312 0.265625
f 277/277/5 280/280/5 279/279/5 278/278/5
v -1.250000 0.250000 1.250000
v -1.000000 0.250000 1.250000
v -1.000000 0.250000 1.000000
v -1.250000 0.250000 1.000000
vt 0.851562 0.296875
vt 0.882812 0.296875
vt 0.882812 0.265625
vt 0.851562 0.265625
f 281/281/6 284/284/6 283/283/6 282/282/6
v -1.000000 0.500000 -1.250000
v -1.250000 0.500000 -1.250000
v -1.250000 0.250000 -1.250000
v -1.000000 0.250000 -1.250000
vt 0.789062 0.296875
vt 0.820312 0.296875
vt 0.820312 0.265625
vt 0.789062 0.265625
f 285/285/1 288/288/1 287/287/1 286/286/1
v -1.250000 0.500000 -1.250000
v -1.250000 0.500000 -1.000000
v -1.250000 0.250000 -1.000000
v -1.250000 0.250000 -1.250000
vt 0.789062 0.296875
vt 0.820312 0.296875
vt 0.820312 0.265625
vt 0.789062 0.265625
f 289/289/3 292/292/3 291/291/3 290/290/3
v -1.250000 0.500000 -1.250000
v -1.000000 0.500000 -1.250000
v -1.000000 0.500000 -1.000000
v -1.250000 0.500000 -1.000000
vt 0.820312 0.296875
vt 0.851562 0.296875
vt 0.851562 0.265625
vt 0.820312 0.265625
f 293/293/5 296/296/5 295/295/5 294/294/5
v -1.250000 0.250000 -1.000000
v -1.000000 0.250000 -1.000000
v -1.000000 0.250000 -1.250000
v -1.250000 0.250000 -1.250000
vt 0.851562 0.296875
vt 0.882812 0.296875
vt 0.882812 0.265625
vt 0.851562 0.265625
f 297/297/6 300/300/6 299/299/6 298/298/6
v 1.250000 0.875000 -0.812500
v -1.250000 0.875000 -0.812500
v -1.250000 0.500000 -0.812500
v 1.250000 0.500000 -0.812500
vt 0.570312 0.437500
vt 0.882812 0.437500
vt 0.882812 0.390625
vt 0.570312 0.390625
f 301/301/1 304/304/1 303/303/1 302/302/1
v -1.250000 0.875000 0.812500
v 1.250000 0.875000 0.812500
v 1.250000 0.500000 0.812500
v -1.250000 0.500000 0.812500
vt 0.570312 0.437500
vt 0.882812 0.437500
vt 0.882812 0.390625
vt 0.570312 0.390625
f 305/305/2 308/308/2 307/307/2 306/306/2
v -1.250000 0.875000 -0.812500
v -1.250000 0.875000 0.812500
v -1.250000 0.500000 0.812500
v -1.250000 0.500000 -0.812500
vt 0.000000 0.375000
vt 0.203125 0.375000
vt 0.203125 0.328125
vt 0.000000 0.328125
f 309/309/3 312/312/3 311/311/3 310/310/3
v 1.250000 0.875000 0.812500
v 1.250000 0.875000 -0.812500
v 1.250000 0.500000 -0.812500
v 1.250000 0.500000 0.812500
vt 0.000000 0.375000
vt 0.203125 0.375000
vt 0.203125 0.328125
vt 0.000000 0.328125
f 313/313/4 316/316/4 315/315/4 314/314/4
v -1.250000 0.875000 -0.812500
v 1.250000 0.875000 -0.812500
v 1.250000 0.875000 0.812500
v -1.250000 0.875000 0.812500
vt 0.375000 0.750000
vt 0.687500 0.750000
vt 0.687500 0.546875
vt 0.375000 0.546875
f 317/317/5 320/320/5 319/319/5 318/318/5
v 0.812500 0.875000 -1.250000
v -0.812500 0.875000 -1.250000
v -0.812500 0.500000 -1.250000
v 0.812500 0.500000 -1.250000
vt 0.000000 0.375000
vt 0.203125 0.375000
vt 0.203125 0.328125
vt 0.000000 0.328125
f 321/321/1 324/324/1 323/323/1 322/322/1
v -0.812500 0.875000 -1.250000
v -0.812500 0.875000 -0.812500
v -0.812500 0.500000 -0.812500
v -0.812500 0.500000 -1.250000
vt 0.296875 0.375000
vt 0.351562 0.375000
vt 0.351562 0.328125
vt 0.296875 0.328125
f 325/325/3 328/328/3 327/327/3 326/326/3
v 0.812500 0.875000 -0.812500
v 0.812500 0.875000 -1.250000
v 0.812500 0.500000 -1.250000
v 0.812500 0.500000 -0.812500
vt 0.296875 0.375000
vt 0.351562 0.375000
vt 0.351562 0.328125
vt 0.296875 0.328125
f 329/329/4 332/332/4 331/331/4 330/330/4
v -0.812500 0.875000 -1.250000
v 0.812500 0.875000 -1.250000
v 0.812500 0.875000 -0.812500
v -0.812500 0.875000 -0.812500
vt 0.367188 0.437500
vt 0.570312 0.437500
vt 0.570312 0.382812
vt 0.367188 0.382812
f 333/333/5 336/336/5 335/335/5 334/334/5
v -0.812500 0.875000 1.250000
v 0.812500 0.875000 1.250000
v 0.812500 0.500000 1.250000
v -0.812500 0.500000 1.250000
vt 0.000000 0.375000
vt 0.203125 0.375000
vt 0.203125 0.328125
vt 0.000000 0.328125
f 337/337/2 340/340/2 339/339/2 338/338/2
v -0.812500 0.875000 0.812500
v -0.812500 0.875000 1.250000
v -0.812500 0.500000 1.250000
v -0.812500 0.500000 0.812500
vt 0.296875 0.375000
vt 0.351562 0.375000
vt 0.351562 0.328125
vt 0.296875 0.328125
f 341/341/3 344/344/3 343/343/3 342/342/3
v 0.812500 0.875000 1.250000
v 0.812500 0.875000 0.812500
v 0.812500 0.500000 0.812500
v 0.812500 0.500000 1.250000
vt 0.296875 0.375000
vt 0.351562 0.375000
vt 0.351562 0.328125
vt 0.296875 0.328125
f 345/345/4 348/348/4 347/347/4 346/346/4
v -0.812500 0.875000 0.812500
v 0.812500 0.875000 0.812500
v 0.812500 0.875000 1.250000
v -0.812500 0.875000 1.250000
vt 0.367188 0.437500
vt 0.570312 0.437500
vt 0.570312 0.382812
vt 0.367188 0.382812
f 349/349/5 352/352/5 351/351/5 350/350/5
v 0.812500 0.875000 1.031250
v 1.031250 0.875000 1.031250
v 1.031250 0.500000 1.031250
v 0.812500 0.500000 1.031250
vt 0.351562 0.375000
vt 0.382812 0.375000
vt 0.382812 0.328125
vt 0.351562 0.328125
f 353/353/2 356/356/2 355/355/2 354/354/2
v 1.031250 0.875000 1.031250
v 1.031250 0.875000 0.812500
v 1.031250 0.500000 0.812500
v 1.031250 0.500000 1.031250
vt 0.351562 0.375000
vt 0.382812 0.375000
vt 0.382812 0.328125
vt 0.351562 0.328125
f 357/357/4 360/360/4 359/359/4 358/358/4
v 0.812500 0.875000 0.812500
v 1.031250 0.875000 0.812500
v 1.031250 0.875000 1.031250
v 0.812500 0.875000 1.031250
vt 0.882812 0.296875
vt 0.914062 0.296875
vt 0.914062 0.265625
vt 0.882812 0.265625
f 361/361/5 364/364/5 363/363/5 362/362/5
v 1.031250 0.875000 -1.031250
v 0.812500 0.875000 -1.031250
v 0.812500 0.500000 -1.031250
v 1.031250 0.500000 -1.031250
vt 0.351562 0.375000
vt 0.382812 0.375000
vt 0.382812 0.328125
vt 0.351562 0.328125
f 365/365/1 368/368/1 367/367/1 366/366/1
v 1.031250 0.875000 -0.812500
v 1.031250 0.875000 -1.031250
v 1.031250 0.500000 -1.031250
v 1.031250 0.500000 -0.812500
vt 0.351562 0.375000
vt 0.382812 0.375000
vt 0.382812 0.328125
vt 0.351562 0.328125
f 369/369/4 372/372/4 371/371/4 370/370/4
v 0.812500 0.875000 -1.031250
v 1.031250 0.875000 -1.031250
v 1.031250 0.875000 -0.812500
v 0.812500 0.875000 -0.812500
vt 0.882812 0.296875
vt 0.914062 0.296875
vt 0.914062 0.265625
vt 0.882812 0.265625
f 373/373/5 376/376/5 375/375/5 374/374/5
v -1.031250 0.875000 1.031250
v -0.812500 0.875000 1.031250
v -0.812500 0.500000 1.031250
v -1.031250 0.500000 1.031250
vt 0.351562 0.375000
vt 0.382812 0.375000
vt 0.382812 0.328125
vt 0.351562 0.328125
f 377/377/2 380/380/2 379/379/2 378/378/2
v -1.031250 0.875000 0.812500
v -1.031250 0.875000 1.031250
v -1.031250 0.500000 1.031250
v -1.031250 0.500000 0.812500
vt 0.351562 0.375000
vt 0.382812 0.375000
vt 0.382812 0.328125
vt 0.351562 0.328125
f 381/381/3 384/384/3 383/383/3 382/382/3
v -1.031250 0.875000 0.812500
v -0.812500 0.875000 0.812500
v -0.812500 0.875000 1.031250
v -1.031250 0.875000 1.031250
vt 0.882812 0.296875
vt 0.914062 0.296875
vt 0.914062 0.265625
vt 0.882812 0.265625
f 385/385/5 388/388/5 387/387/5 386/386/5
v -0.812500 0.875000 -1.031250
v -1.031250 0.875000 -1.031250
v -1.031250 0.500000 -1.031250
v -0.812500 0.500000 -1.031250
vt 0.351562 0.375000
vt 0.382812 0.375000
vt 0.382812 0.328125
vt 0.351562 0.328125
f 389/389/1 392/392/1 391/391/1 390/390/1
v -1.031250 0.875000 -1.031250
v -1.031250 0.875000 -0.812500
v -1.031250 0.500000 -0.812500
v -1.031250 0.500000 -1.031250
vt 0.351562 0.375000
vt 0.382812 0.375000
vt 0.382812 0.328125
vt 0.351562 0.328125
f 393/393/3 396/396/3 395/395/3 394/394/3
v -1.031250 0.875000 -1.031250
v -0.812500 0.875000 -1.031250
v -0.812500 0.875000 -0.812500
v -1.031250 0.875000 -0.812500
vt 0.882812 0.296875
vt 0.914062 0.296875
vt 0.914062 0.265625
vt 0.882812 0.265625
f 397/397/5 400/400/5 399/399/5 398/398/5
v 0.937500 1.187500 -0.625000
v -0.937500 1.187500 -0.625000
v -0.937500 0.875000 -0.625000
v 0.937500 0.875000 -0.625000
vt 0.414062 0.375000
vt 0.648438 0.375000
vt 0.648438 0.335938
vt 0.414062 0.335938
f 401/401/1 404/404/1 403/403/1 402/402/1
v -0.937500 1.187500 0.625000
v 0.937500 1.187500 0.625000
v 0.937500 0.875000 0.625000
v -0.937500 0.875000 0.625000
vt 0.414062 0.375000
vt 0.648438 0.375000
vt 0.648438 0.335938
vt 0.414062 0.335938
f 405/405/2 408/408/2 407/407/2 406/406/2
v -0.937500 1.187500 -0.625000
v -0.937500 1.187500 0.625000
v -0.937500 0.875000 0.625000
v -0.937500 0.875000 -0.625000
vt 0.648438 0.375000
vt 0.804688 0.375000
vt 0.804688 0.335938
vt 0.648438 0.335938
f 409/409/3 412/412/3 411/411/3 410/410/3
v 0.937500 1.187500 0.625000
v 0.937500 1.187500 -0.625000
v 0.937500 0.875000 -0.625000
v 0.937500 0.875000 0.625000
vt 0.648438 0.375000
vt 0.804688 0.375000
vt 0.804688 0.335938
vt 0.648438 0.335938
f 413/413/4 416/416/4 415/415/4 414/414/4
v -0.937500 1.187500 -0.625000
v 0.937500 1.187500 -0.625000
v 0.937500 1.187500 0.625000
v -0.937500 1.187500 0.625000
vt 0.750000 1.000000
vt 0.984375 1.000000
vt 0.984375 0.843750
vt 0.750000 0.843750
f 417/417/5 420/420/5 419/419/5 418/418/5
v 0.625000 1.187500 -0.937500
v -0.625000 1.187500 -0.937500
v -0.625000 0.875000 -0.937500
v 0.625000 0.875000 -0.937500
vt 0.648438 0.375000
vt 0.804688 0.375000
vt 0.804688 0.335938
vt 0.648438 0.335938
f 421/421/1 424/424/1 423/423/1 422/422/1
v -0.625000 1.187500 -0.937500
v -0.625000 1.187500 -0.625000
v -0.625000 0.875000 -0.625000
v -0.625000 0.875000 -0.937500
vt 0.960938 0.375000
vt 1.000000 0.375000
vt 1.000000 0.335938
vt 0.960938 0.335938
f 425/425/3 428/428/3 427/427/3 426/426/3
v 0.625000 1.187500 -0.625000
v 0.625000 1.187500 -0.937500
v 0.625000 0.875000 -0.937500
v 0.625000 0.875000 -0.625000
vt 0.960938 0.375000
vt 1.000000 0.375000
vt 1.000000 0.335938
vt 0.960938 0.335938
f 429/429/4 432/432/4 431/431/4 430/430/4
v -0.625000 1.187500 -0.937500
v 0.625000 1.187500 -0.937500
v 0.625000 1.187500 -0.625000
v -0.625000 1.187500 -0.625000
vt 0.804688 0.375000
vt 0.960938 0.375000
vt 0.960938 0.335938
vt 0.804688 0.335938
f 433/433/5 436/436/5 435/435/5 434/434/5
v -0.625000 1.187500 0.937500
v 0.625000 1.187500 0.937500
v 0.625000 0.875000 0.937500
v -0.625000 0.875000 0.937500
vt 0.648438 0.375000
vt 0.804688 0.375000
vt 0.804688 0.335938
vt 0.648438 0.335938
f 437/437/2 440/440/2 439/439/2 438/438/2
v -0.625000 1.187500 0.625000
v -0.625000 1.187500 0.937500
v -0.625000 0.875000 0.937500
v -0.625000 0.875000 0.625000
vt 0.960938 0.375000
vt 1.000000 0.375000
vt 1.000000 0.335938
vt 0.960938 0.335938
f 441/441/3 444/444/3 443/443/3 442/442/3
v 0.625000 1.187500 0.937500
v 0.625000 1.187500 0.625000
v 0.625000 0.875000 0.625000
v 0.625000 0.875000 0.937500
vt 0.960938 0.375000
vt 1.000000 0.375000
vt 1.000000 0.335938
vt 0.960938 0.335938
f 445/445/4 448/448/4 447/447/4 446/446/4
v -0.625000 1.187500 0.625000
v 0.625000 1.187500 0.625000
v 0.625000 1.187500 0.937500
v -0.625000 1.187500 0.937500
vt 0.804688 0.375000
vt 0.960938 0.375000
vt 0.960938 0.335938
vt 0.804688 0.335938
f 449/449/5 452/452/5 451/451/5 450/450/5
v 0.625000 1.187500 0.781250
v 0.781250 1.187500 0.781250
v 0.781250 0.875000 0.781250
v 0.625000 0.875000 0.781250
vt 0.976562 0.437500
vt 1.000000 0.437500
vt 1.000000 0.398438
vt 0.976562 0.398438
f 453/453/2 456/456/2 455/455/2 454/454/2
v 0.781250 1.187500 0.781250
v 0.781250 1.187500 0.625000
v 0.781250 0.875000 0.625000
v 0.781250 0.875000 0.781250
vt 0.976562 0.437500
vt 1.000000 0.437500
vt 1.000000 0.398438
vt 0.976562 0.398438
f 457/457/4 460/460/4 459/459/4 458/458/4
v 0.625000 1.187500 0.625000
v 0.781250 1.187500 0.625000
v 0.781250 1.187500 0.781250
v 0.625000 1.187500 0.781250
vt 0.960938 0.296875
vt 0.984375 0.296875
vt 0.984375 0.273438
vt 0.960938 0.273438
f 461/461/5 464/464/5 463/463/5 462/462/5
v 0.781250 1.187500 -0.781250
v 0.625000 1.187500 -0.781250
v 0.625000 0.875000 -0.781250
v 0.781250 0.875000 -0.781250
vt 0.976562 0.437500
vt 1.000000 0.437500
vt 1.000000 0.398438
vt 0.976562 0.398438
f 465/465/1 468/468/1 467/467/1 466/466/1
v 0.781250 1.187500 -0.625000
v 0.781250 1.187500 -0.781250
v 0.781250 0.875000 -0.781250
v 0.781250 0.875000 -0.625000
vt 0.976562 0.437500
vt 1.000000 0.437500
vt 1.000000 0.398438
vt 0.976562 0.398438
f 469/469/4 472/472/4 471/471/4 470/470/4
v 0.625000 1.187500 -0.781250
v 0.781250 1.187500 -0.781250
v 0.781250 1.187500 -0.625000
v 0.625000 1.187500 -0.625000
vt 0.960938 0.296875
vt 0.984375 0.296875
vt 0.984375 0.273438
vt 0.960938 0.273438
f 473/473/5 476/476/5 475/475/5 474/474/5
v -0.781250 1.187500 0.781250
v -0.625000 1.187500 0.781250
v -0.625000 0.875000 0.781250
v -0.781250 0.875000 0.781250
vt 0.976562 0.437500
vt 1.000000 0.437500
vt 1.000000 0.398438
vt 0.976562 0.398438
f 477/477/2 480/480/2 479/479/2 478/478/2
v -0.781250 1.187500 0.625000
v -0.781250 1.187500 0.781250
v -0.781250 0.875000 0.781250
v -0.781250 0.875000 0.625000
vt 0.976562 0.437500
vt 1.000000 0.437500
vt 1.000000 0.398438
vt 0.976562 0.398438
f 481/481/3 484/484/3 483/483/3 482/482/3
v -0.781250 1.187500 0.625000
v -0.625000 1.187500 0.625000
v -0.625000 1.187500 0.781250
v -0.781250 1.187500 0.781250
vt 0.960938 0.296875
vt 0.984375 0.296875
vt 0.984375 0.273438
vt 0.960938 0.273438
f 485/485/5 488/488/5 487/487/5 486/486/5
v -0.625000 1.187500 -0.781250
v -0.781250 1.187500 -0.781250
v -0.781250 0.875000 -0.781250
v -0.625000 0.875000 -0.781250
vt 0.976562 0.437500
vt 1.000000 0.437500
vt 1.000000 0.398438
vt 0.976562 0.398438
f 489/489/1 492/492/1 491/491/1 490/490/1
v -0.781250 1.187500 -0.781250
v -0.781250 1.187500 -0.625000
v -0.781250 0.875000 -0.625000
v -0.781250 0.875000 -0.781250
vt 0.976562 0.437500
vt 1.000000 0.437500
vt 1.000000 0.398438
vt 0.976562 0.398438
f 493/493/3 496/496/3 495/495/3 494/494/3
v -0.781250 1.187500 -0.781250
v -0.625000 1.187500 -0.781250
v -0.625000 1.187500 -0.625000
v -0.781250 1.187500 -0.625000
vt 0.960938 0.296875
vt 0.984375 0.296875
vt 0.984375 0.273438
vt 0.960938 0.273438
f 497/497/5 500/500/5 499/499/5 498/498/5
v 0.500000 1.437500 -0.500000
v -0.500000 1.437500 -0.500000
v -0.500000 1.187500 -0.500000
v 0.500000 1.187500 -0.500000
vt 0.382812 0.296875
vt 0.507812 0.296875
vt 0.507812 0.265625
vt 0.382812 0.265625
f 501/501/1 504/504/1 503/503/1 502/502/1
v -0.500000 1.437500 0.500000
v 0.500000 1.437500 0.500000
v 0.500000 1.187500 0.500000
v -0.500000 1.187500 0.500000
vt 0.382812 0.296875
vt 0.507812 0.296875
vt 0.507812 0.265625
vt 0.382812 0.265625
f 505/505/2 508/508/2 507/507/2 506/506/2
v -0.500000 1.437500 -0.500000
v -0.500000 1.437500 0.500000
v -0.500000 1.187500 0.500000
v -0.500000 1.187500 -0.500000
vt 0.382812 0.296875
vt 0.507812 0.296875
vt 0.507812 0.265625
vt 0.382812 0.265625
f 509/509/3 512/512/3 511/511/3 510/510/3
v 0.500000 1.437500 0.500000
v 0.500000 1.437500 -0.500000
v 0.500000 1.187500 -0.500000
v 0.500000 1.187500 0.500000
vt 0.382812 0.296875
vt 0.507812 0.296875
vt 0.507812 0.265625
vt 0.382812 0.265625
f 513/513/4 516/516/4 515/515/4 514/514/4
v -0.500000 1.437500 -0.500000
v 0.500000 1.437500 -0.500000
v 0.500000 1.437500 0.500000
v -0.500000 1.437500 0.500000
vt 0.718750 0.750000
vt 0.843750 0.750000
vt 0.843750 0.625000
vt 0.718750 0.625000
f 517/517/5 520/520/5 519/519/5 518/518/5
v 0.312500 1.500000 -0.312500
v -0.312500 1.500000 -0.312500
v -0.312500 1.437500 -0.312500
v 0.312500 1.437500 -0.312500
vt 0.148438 0.265625
vt 0.226562 0.265625
vt 0.226562 0.257812
vt 0.148438 0.257812
f 521/521/1 524/524/1 523/523/1 522/522/1
v -0.312500 1.500000 0.312500
v 0.312500 1.500000 0.312500
v 0.312500 1.437500 0.312500
v -0.312500 1.437500 0.312500
vt 0.148438 0.265625
vt 0.226562 0.265625
vt 0.226562 0.257812
vt 0.148438 0.257812
f 525/525/2 528/528/2 527/527/2 526/526/2
v -0.312500 1.500000 -0.312500
v -0.312500 1.500000 0.312500
v -0.312500 1.437500 0.312500
v -0.312500 1.437500 -0.312500
vt 0.148438 0.265625
vt 0.226562 0.265625
vt 0.226562 0.257812
vt 0.148438 0.257812
f 529/529/3 532/532/3 531/531/3 530/530/3
v 0.312500 1.500000 0.312500
v 0.312500 1.500000 -0.312500
v 0.312500 1.437500 -0.312500
v 0.312500 1.437500 0.312500
vt 0.148438 0.265625
vt 0.226562 0.265625
vt 0.226562 0.257812
vt 0.148438 0.257812
f 533/533/4 536/536/4 535/535/4 534/534/4
v -0.312500 1.500000 -0.312500
v 0.312500 1.500000 -0.312500
v 0.312500 1.500000 0.312500
v -0.312500 1.500000 0.312500
vt 0.843750 0.750000
vt 0.921875 0.750000
vt 0.921875 0.671875
vt 0.843750 0.671875
f 537/537/5 540/540/5 539/539/5 538/538/5
v 0.125000 0.562500 -1.437500
v -0.125000 0.562500 -1.437500
v -0.125000 0.500000 -1.437500
v 0.125000 0.500000 -1.437500
vt 0.226562 0.265625
vt 0.257812 0.265625
vt 0.257812 0.257812
vt 0.226562 0.257812
f 541/541/1 544/544/1 543/543/1 542/542/1
v -0.125000 0.562500 -1.312500
v 0.125000 0.562500 -1.312500
v 0.125000 0.500000 -1.312500
v -0.125000 0.500000 -1.312500
vt 0.226562 0.265625
vt 0.257812 0.265625
vt 0.257812 0.257812
vt 0.226562 0.257812
f 545/545/2 548/548/2 547/547/2 546/546/2
v -0.125000 0.562500 -1.437500
v -0.125000 0.562500 -1.312500
v -0.125000 0.500000 -1.312500
v -0.125000 0.500000 -1.437500
vt 0.984375 0.296875
vt 1.000000 0.296875
vt 1.000000 0.289062
vt 0.984375 0.289062
f 549/549/3 552/552/3 551/551/3 550/550/3
v 0.125000 0.562500 -1.312500
v 0.125000 0.562500 -1.437500
v 0.125000 0.500000 -1.437500
v 0.125000 0.500000 -1.312500
vt 0.984375 0.296875
vt 1.000000 0.296875
vt 1.000000 0.289062
vt 0.984375 0.289062
f 553/553/4 556/556/4 555/555/4 554/554/4
v -0.125000 0.562500 -1.437500
v 0.125000 0.562500 -1.437500
v 0.125000 0.562500 -1.312500
v -0.125000 0.562500 -1.312500
vt 0.000000 0.265625
vt 0.031250 0.265625
vt 0.031250 0.250000
vt 0.000000 0.250000
f 557/557/5 560/560/5 559/559/5 558/558/5
v 0.125000 0.562500 1.312500
v -0.125000 0.562500 1.312500
v -0.125000 0.500000 1.312500
v 0.125000 0.500000 1.312500
vt 0.226562 0.265625
vt 0.257812 0.265625
vt 0.257812 0.257812
vt 0.226562 0.257812
f 561/561/1 564/564/1 563/563/1 562/562/1
v -0.125000 0.562500 1.437500
v 0.125000 0.562500 1.437500
v 0.125000 0.500000 1.437500
v -0.125000 0.500000 1.437500
vt 0.226562 0.265625
vt 0.257812 0.265625
vt 0.257812 0.257812
vt 0.226562 0.257812
f 565/565/2 568/568/2 567/567/2 566/566/2
v -0.125000 0.562500 1.312500
v -0.125000 0.562500 1.437500
v -0.125000 0.500000 1.437500
v -0.125000 0.500000 1.312500
vt 0.984375 0.296875
vt 1.000000 0.296875
vt 1.000000 0.289062
vt 0.984375 0.289062
f 569/569/3 572/572/3 571/571/3 570/570/3
v 0.125000 0.562500 1.437500
v 0.125000 0.562500 1.312500
v 0.125000 0.500000 1.312500
v 0.125000 0.500000 1.437500
vt 0.984375 0.296875
vt 1.000000 0.296875
vt 1.000000 0.289062
vt 0.984375 0.289062
f 573/573/4 576/576/4 575/575/4 574/574/4
v -0.125000 0.562500 1.312500
v 0.125000 0.562500 1.312500
v 0.125000 0.562500 1.437500
v -0.125000 0.562500 1.437500
vt 0.000000 0.265625
vt 0.031250 0.265625
vt 0.031250 0.250000
vt 0.000000 0.250000
f 577/577/5 580/580/5 579/579/5 578/578/5
v -1.312500 0.562500 -0.125000
v -1.437500 0.562500 -0.125000
v -1.437500 0.500000 -0.125000
v -1.312500 0.500000 -0.125000
vt 0.984375 0.296875
vt 1.000000 0.296875
vt 1.000000 0.289062
vt 0.984375 0.289062
f 581/581/1 584/584/1 583/583/1 582/582/1
v -1.437500 0.562500 0.125000
v -1.312500 0.562500 0.125000
v -1.312500 0.500000 0.125000
v -1.437500 0.500000 0.125000
vt 0.984375 0.296875
vt 1.000000 0.296875
vt 1.000000 0.289062
vt 0.984375 0.289062
f 585/585/2 588/588/2 587/587/2 586/586/2
v -1.437500 0.562500 -0.125000
v -1.437500 0.562500 0.125000
v -1.437500 0.500000 0.125000
v -1.437500 0.500000 -0.125000
vt 0.226562 0.265625
vt 0.257812 0.265625
vt 0.257812 0.257812
vt 0.226562 0.257812
f 589/589/3 592/592/3 591/591/3 590/590/3
v -1.312500 0.562500 0.125000
v -1.312500 0.562500 -0.125000
v -1.312500 0.500000 -0.125000
v -1.312500 0.500000 0.125000
vt 0.226562 0.265625
vt 0.257812 0.265625
vt 0.257812 0.257812
vt 0.226562 0.257812
f 593/593/4 596/596/4 595/595/4 594/594/4
v -1.437500 0.562500 -0.125000
v -1.312500 0.562500 -0.125000
v -1.312500 0.562500 0.125000
v -1.437500 0.562500 0.125000
vt 0.945312 0.296875
vt 0.960938 0.296875
vt 0.960938 0.265625
vt 0.945312 0.265625
f 597/597/5 600/600/5 599/599/5 598/598/5
v 1.437500 0.562500 -0.125000
v 1.312500 0.562500 -0.125000
v 1.312500 0.500000 -0.125000
v 1.437500 0.500000 -0.125000
vt 0.984375 0.296875
vt 1.000000 0.296875
vt 1.000000 0.289062
vt 0.984375 0.289062
f 601/601/1 604/604/1 603/603/1 602/602/1
v 1.312500 0.562500 0.125000
v 1.437500 0.562500 0.125000
v 1.437500 0.500000 0.125000
v 1.312500 0.500000 0.125000
vt 0.984375 0.296875
vt 1.000000 0.296875
vt 1.000000 0.289062
vt 0.984375 0.289062
f 605/605/2 608/608/2 607/607/2 606/606/2
v 1.312500 0.562500 -0.125000
v 1.312500 0.562500 0.125000
v 1.312500 0.500000 0.125000
v 1.312500 0.500000 -0.125000
vt 0.226562 0.265625
vt 0.257812 0.265625
vt 0.257812 0.257812
vt 0.226562 0.257812
f 609/609/3 612/612/3 611/611/3 610/610/3
v 1.437500 0.562500 0.125000
v 1.437500 0.562500 -0.125000
v 1.437500 0.500000 -0.125000
v 1.437500 0.500000 0.125000
vt 0.226562 0.265625
vt 0.257812 0.265625
vt 0.257812 0.257812
vt 0.226562 0.257812
f 613/613/4 616/616/4 615/615/4 614/614/4
v 1.312500 0.562500 -0.125000
v 1.437500 0.562500 -0.125000
v 1.437500 0.562500 0.125000
v 1.312500 0.562500 0.125000
vt 0.945312 0.296875
vt 0.960938 0.296875
vt 0.960938 0.265625
vt 0.945312 0.265625
f 617/617/5 620/620/5 619/619/5 618/618/5
o Arm
v 0.125000 0.125000 -1.062500
v -0.125000 0.125000 -1.062500
v -0.125000 -0.125000 -1.062500
v 0.125000 -0.125000 -1.062500
vt 0.914062 0.296875
vt 0.945312 0.296875
vt 0.945312 0.265625
vt 0.914062 0.265625
f 621/621/1 624/624/1 623/623/1 622/622/1
v -0.125000 0.125000 -1.062500
v -0.125000 0.125000 0.000000
v -0.125000 -0.125000 0.000000
v -0.125000 -0.125000 -1.062500
vt 0.250000 0.296875
vt 0.382812 0.296875
vt 0.382812 0.265625
vt 0.250000 0.265625
f 625/625/3 628/628/3 627/627/3 626/626/3
v 0.125000 0.125000 0.000000
v 0.125000 0.125000 -1.062500
v 0.125000 -0.125000 -1.062500
v 0.125000 -0.125000 0.000000
vt 0.250000 0.296875
vt 0.382812 0.296875
vt 0.382812 0.265625
vt 0.250000 0.265625
f 629/629/4 632/632/4 631/631/4 630/630/4
v -0.125000 0.125000 -1.062500
v 0.125000 0.125000 -1.062500
v 0.125000 0.125000 0.000000
v -0.125000 0.125000 0.000000
vt 0.687500 0.750000
vt 0.718750 0.750000
vt 0.718750 0.617188
vt 0.687500 0.617188
f 633/633/5 636/636/5 635/635/5 634/634/5
v -0.125000 -0.125000 0.000000
v 0.125000 -0.125000 0.000000
v 0.125000 -0.125000 -1.062500
v -0.125000 -0.125000 -1.062500
vt 0.687500 0.750000
vt 0.718750 0.750000
vt 0.718750 0.617188
vt 0.687500 0.617188
f 637/637/6 640/640/6 639/639/6 638/638/6
v 0.375000 0.187500 -1.312500
v -0.375000 0.187500 -1.312500
v -0.375000 -0.187500 -1.312500
v 0.375000 -0.187500 -1.312500
vt 0.882812 0.437500
vt 0.976562 0.437500
vt 0.976562 0.390625
vt 0.882812 0.390625
f 641/641/1 644/644/1 643/643/1 642/642/1
v -0.375000 0.187500 -1.062500
v 0.375000 0.187500 -1.062500
v 0.375000 -0.187500 -1.062500
v -0.375000 -0.187500 -1.062500
vt 0.882812 0.437500
vt 0.976562 0.437500
vt 0.976562 0.390625
vt 0.882812 0.390625
f 645/645/2 648/648/2 647/647/2 646/646/2
v -0.375000 0.187500 -1.312500
v -0.375000 0.187500 -1.062500
v -0.375000 -0.187500 -1.062500
v -0.375000 -0.187500 -1.312500
vt 0.382812 0.375000
vt 0.414062 0.375000
vt 0.414062 0.328125
vt 0.382812 0.328125
f 649/649/3 652/652/3 651/651/3 650/650/3
v 0.375000 0.187500 -1.062500
v 0.375000 0.187500 -1.312500
v 0.375000 -0.187500 -1.312500
v 0.375000 -0.187500 -1.062500
vt 0.382812 0.375000
vt 0.414062 0.375000
vt 0.414062 0.328125
vt 0.382812 0.328125
f 653/653/4 656/656/4 655/655/4 654/654/4
v -0.375000 0.187500 -1.312500
v 0.375000 0.187500 -1.312500
v 0.375000 0.187500 -1.062500
v -0.375000 0.187500 -1.062500
vt 0.507812 0.296875
vt 0.601562 0.296875
vt 0.601562 0.265625
vt 0.507812 0.265625
f 657/657/5 660/660/5 659/659/5 658/658/5
v -0.375000 -0.187500 -1.062500
v 0.375000 -0.187500 -1.062500
v 0.375000 -0.187500 -1.312500
v -0.375000 -0.187500 -1.312500
vt 0.507812 0.296875
vt 0.601562 0.296875
vt 0.601562 0.265625
vt 0.507812 0.265625
f 661/661/6 664/664/6 663/663/6 662/662/6
v 0.375000 0.187500 -1.375000
v -0.375000 0.187500 -1.375000
v -0.375000 -0.187500 -1.375000
v 0.375000 -0.187500 -1.375000
vt 0.203125 0.375000
vt 0.296875 0.375000
vt 0.296875 0.328125
vt 0.203125 0.328125
f 665/665/1 668/668/1 667/667/1 666/666/1
v -0.375000 0.187500 -1.375000
v -0.375000 0.187500 -1.312500
v -0.375000 -0.187500 -1.312500
v -0.375000 -0.187500 -1.375000
vt 0.984375 1.000000
vt 0.992188 1.000000
vt 0.992188 0.953125
vt 0.984375 0.953125
f 669/669/3 672/672/3 671/671/3 670/670/3
v 0.375000 0.187500 -1.312500
v 0.375000 0.187500 -1.375000
v 0.375000 -0.187500 -1.375000
v 0.375000 -0.187500 -1.312500
vt 0.984375 1.000000
vt 0.992188 1.000000
vt 0.992188 0.953125
vt 0.984375 0.953125
f 673/673/4 676/676/4 675/675/4 674/674/4
v -0.375000 0.187500 -1.375000
v 0.375000 0.187500 -1.375000
v 0.375000 0.187500 -1.312500
v -0.375000 0.187500 -1.312500
vt 0.054688 0.265625
vt 0.148438 0.265625
vt 0.148438 0.257812
vt 0.054688 0.257812
f 677/677/5 680/680/5 679/679/5 678/678/5
v -0.375000 -0.187500 -1.312500
v 0.375000 -0.187500 -1.312500
v 0.375000 -0.187500 -1.375000
v -0.375000 -0.187500 -1.375000
vt 0.054688 0.265625
vt 0.148438 0.265625
vt 0.148438 0.257812
vt 0.054688 0.257812
f 681/681/6 684/684/6 683/683/6 682/682/6
v 0.093750 0.218750 -1.250000
v -0.093750 0.218750 -1.250000
v -0.093750 0.187500 -1.250000
v 0.093750 0.187500 -1.250000
vt 0.257812 0.265625
vt 0.281250 0.265625
vt 0.281250 0.257812
vt 0.257812 0.257812
f 685/685/1 688/688/1 687/687/1 686/686/1
v -0.093750 0.218750 -1.125000
v 0.093750 0.218750 -1.125000
v 0.093750 0.187500 -1.125000
v -0.093750 0.187500 -1.125000
vt 0.257812 0.265625
vt 0.281250 0.265625
vt 0.281250 0.257812
vt 0.257812 0.257812
f 689/689/2 692/692/2 691/691/2 690/690/2
v -0.093750 0.218750 -1.250000
v -0.093750 0.218750 -1.125000
v -0.093750 0.187500 -1.125000
v -0.093750 0.187500 -1.250000
vt 0.984375 0.296875
vt 1.000000 0.296875
vt 1.000000 0.289062
vt 0.984375 0.289062
f 693/693/3 696/696/3 695/695/3 694/694/3
v 0.093750 0.218750 -1.125000
v 0.093750 0.218750 -1.250000
v 0.093750 0.187500 -1.250000
v 0.093750 0.187500 -1.125000
vt 0.984375 0.296875
vt 1.000000 0.296875
vt 1.000000 0.289062
vt 0.984375 0.289062
f 697/697/4 700/700/4 699/699/4 698/698/4
v -0.093750 0.218750 -1.250000
v 0.093750 0.218750 -1.250000
v 0.093750 0.218750 -1.125000
v -0.093750 0.218750 -1.125000
vt 0.031250 0.265625
vt 0.054688 0.265625
vt 0.054688 0.250000
vt 0.031250 0.250000
f 701/701/5 704/704/5 703/703/5 702/702/5
o Blur
v 1.437500 0.250000 0.968750
v 1.437500 0.250000 -0.968750
v 1.437500 -0.250000 -0.968750
v 1.437500 -0.250000 0.968750
vt 0.750000 0.500000
vt 0.992188 0.500000
vt 0.992188 0.437500
vt 0.750000 0.437500
f 705/705/4 708/708/4 707/707/4 706/706/4
v -1.437500 0.250000 -0.968750
v -1.437500 0.250000 0.968750
v -1.437500 -0.250000 0.968750
v -1.437500 -0.250000 -0.968750
vt 0.750000 0.500000
vt 0.992188 0.500000
vt 0.992188 0.437500
vt 0.750000 0.437500
f 709/709/3 712/712/3 711/711/3 710/710/3
v -0.968750 0.250000 1.437500
v 0.968750 0.250000 1.437500
v 0.968750 -0.250000 1.437500
v -0.968750 -0.250000 1.437500
vt 0.750000 0.500000
vt 0.992188 0.500000
vt 0.992188 0.437500
vt 0.750000 0.437500
f 713/713/2 716/716/2 715/715/2 714/714/2
v 0.968750 0.250000 -1.437500
v -0.968750 0.250000 -1.437500
v -0.968750 -0.250000 -1.437500
v 0.968750 -0.250000 -1.437500
vt 0.750000 0.500000
vt 0.992188 0.500000
vt 0.992188 0.437500
vt 0.750000 0.437500
f 717/717/1 720/720/1 719/719/1 718/718/1
v 1.218750 0.250000 0.968750
v 1.437500 0.250000 0.968750
v 1.437500 -0.250000 0.968750
v 1.218750 -0.250000 0.968750
vt 0.968750 0.750000
vt 1.000000 0.750000
vt 1.000000 0.687500
vt 0.968750 0.687500
f 721/721/2 724/724/2 723/723/2 722/722/2
v 1.218750 0.250000 1.218750
v 1.218750 0.250000 0.968750
v 1.218750 -0.250000 0.968750
v 1.218750 -0.250000 1.218750
vt 0.968750 0.750000
vt 1.000000 0.750000
vt 1.000000 0.687500
vt 0.968750 0.687500
f 725/725/4 728/728/4 727/727/4 726/726/4
v 0.968750 0.250000 1.218750
v 1.218750 0.250000 1.218750
v 1.218750 -0.250000 1.218750
v 0.968750 -0.250000 1.218750
vt 0.968750 0.750000
vt 1.000000 0.750000
vt 1.000000 0.687500
vt 0.968750 0.687500
f 729/729/2 732/732/2 731/731/2 730/730/2
v 0.968750 0.250000 1.437500
v 0.968750 0.250000 1.218750
v 0.968750 -0.250000 1.218750
v 0.968750 -0.250000 1.437500
vt 0.968750 0.750000
vt 1.000000 0.750000
vt 1.000000 0.687500
vt 0.968750 0.687500
f 733/733/4 736/736/4 735/735/4 734/734/4
v 1.437500 0.250000 -0.968750
v 1.218750 0.250000 -0.968750
v 1.218750 -0.250000 -0.968750
v 1.437500 -0.250000 -0.968750
vt 0.968750 0.750000
vt 1.000000 0.750000
vt 1.000000 0.687500
vt 0.968750 0.687500
f 737/737/1 740/740/1 739/739/1 738/738/1
v 1.218750 0.250000 -0.968750
v 1.218750 0.250000 -1.218750
v 1.218750 -0.250000 -1.218750
v 1.218750 -0.250000 -0.968750
vt 0.968750 0.750000
vt 1.000000 0.750000
vt 1.000000 0.687500
vt 0.968750 0.687500
f 741/741/4 744/744/4 743/743/4 742/742/4
v 1.218750 0.250000 -1.218750
v 0.968750 0.250000 -1.218750
v 0.968750 -0.250000 -1.218750
v 1.218750 -0.250000 -1.218750
vt 0.968750 0.750000
vt 1.000000 0.750000
vt 1.000000 0.687500
vt 0.968750 0.687500
f 745/745/1 748/748/1 747/747/1 746/746/1
v 0.968750 0.250000 -1.218750
v 0.968750 0.250000 -1.437500
v 0.968750 -0.250000 -1.437500
v 0.968750 -0.250000 -1.218750
vt 0.968750 0.750000
vt 1.000000 0.750000
vt 1.000000 0.687500
vt 0.968750 0.687500
f 749/749/4 752/752/4 751/751/4 750/750/4
v -1.437500 0.250000 0.968750
v -1.218750 0.250000 0.968750
v -1.218750 -0.250000 0.968750
v -1.437500 -0.250000 0.968750
vt 0.968750 0.750000
vt 1.000000 0.750000
vt 1.000000 0.687500
vt 0.968750 0.687500
f 753/753/2 756/756/2 755/755/2 754/754/2
v -1.218750 0.250000 0.968750
v -1.218750 0.250000 1.218750
v -1.218750 -0.250000 1.218750
v -1.218750 -0.250000 0.968750
vt 0.968750 0.750000
vt 1.000000 0.750000
vt 1.000000 0.687500
vt 0.968750 0.687500
f 757/757/3 760/760/3 759/759/3 758/758/3
v -1.218750 0.250000 1.218750
v -0.968750 0.250000 1.218750
v -0.968750 -0.250000 1.218750
v -1.218750 -0.250000 1.218750
vt 0.968750 0.750000
vt 1.000000 0.750000
vt 1.000000 0.687500
vt 0.968750 0.687500
f 761/761/2 764/764/2 763/763/2 762/762/2
v -0.968750 0.250000 1.218750
v -0.968750 0.250000 1.437500
v -0.968750 -0.250000 1.437500
v -0.968750 -0.250000 1.218750
vt 0.968750 0.750000
vt 1.000000 0.750000
vt 1.000000 0.687500
vt 0.968750 0.687500
f 765/765/3 768/768/3 767/767/3 766/766/3
v -1.218750 0.250000 -0.968750
v -1.437500 0.250000 -0.968750
v -1.437500 -0.250000 -0.968750
v -1.218750 -0.250000 -0.968750
vt 0.968750 0.750000
vt 1.000000 0.750000
vt 1.000000 0.687500
vt 0.968750 0.687500
f 769/769/1 772/772/1 771/771/1 770/770/1
v -1.218750 0.250000 -1.218750
v -1.218750 0.250000 -0.968750
v -1.218750 -0.250000 -0.968750
v -1.218750 -0.250000 -1.218750
vt 0.968750 0.750000
vt 1.000000 0.750000
vt 1.000000 0.687500
vt 0.968750 0.687500
f 773/773/3 776/776/3 775/775/3 774/774/3
v -0.968750 0.250000 -1.218750
v -1.218750 0.250000 -1.218750
v -1.218750 -0.250000 -1.218750
v -0.968750 -0.250000 -1.218750
vt 0.968750 0.750000
vt 1.000000 0.750000
vt 1.000000 0.687500
vt 0.968750 0.687500
f 777/777/1 780/780/1 779/779/1 778/778/1
v -0.968750 0.250000 -1.437500
v -0.968750 0.250000 -1.218750
v -0.968750 -0.250000 -1.218750
v -0.968750 -0.250000 -1.437500
vt 0.968750 0.750000
vt 1.000000 0.750000
vt 1.000000 0.687500
vt 0.968750 0.687500
f 781/781/3 784/784/3 783/783/3 782/782/3
