# astrobody_data_processor generated by machinegen.py
mtllib astrobody_data_processor.mtl
v 2.000000 0.125000 0.000000
v 0.000000 0.125000 0.000000
v 0.000000 0.000000 0.000000
v 2.000000 0.000000 0.000000
v 0.000000 0.125000 3.000000
v 2.000000 0.125000 3.000000
v 2.000000 0.000000 3.000000
v 0.000000 0.000000 3.000000
v 0.000000 0.125000 0.000000
v 0.000000 0.125000 3.000000
v 0.000000 0.000000 3.000000
v 0.000000 0.000000 0.000000
v 2.000000 0.125000 3.000000
v 2.000000 0.125000 0.000000
v 2.000000 0.000000 0.000000
v 2.000000 0.000000 3.000000
v 0.000000 0.125000 0.000000
v 2.000000 0.125000 0.000000
v 2.000000 0.125000 3.000000
v 0.000000 0.125000 3.000000
v 1.937500 0.875000 0.062500
v 0.062500 0.875000 0.062500
v 0.062500 0.125000 0.062500
v 1.937500 0.125000 0.062500
v 0.062500 0.875000 2.937500
v 1.937500 0.875000 2.937500
v 1.937500 0.125000 2.937500
v 0.062500 0.125000 2.937500
v 0.062500 0.875000 0.062500
v 0.062500 0.875000 2.937500
v 0.062500 0.125000 2.937500
v 0.062500 0.125000 0.062500
v 1.937500 0.875000 2.937500
v 1.937500 0.875000 0.062500
v 1.937500 0.125000 0.062500
v 1.937500 0.125000 2.937500
v 0.062500 0.875000 0.062500
v 1.937500 0.875000 0.062500
v 1.937500 0.875000 2.937500
v 0.062500 0.875000 2.937500
v 0.062500 0.125000 2.937500
v 1.937500 0.125000 2.937500
v 1.937500 0.125000 0.062500
v 0.062500 0.125000 0.062500
v 2.000000 1.000000 0.000000
v 0.000000 1.000000 0.000000
v 0.000000 0.875000 0.000000
v 2.000000 0.875000 0.000000
v 0.000000 1.000000 3.000000
v 2.000000 1.000000 3.000000
v 2.000000 0.875000 3.000000
v 0.000000 0.875000 3.000000
v 0.000000 1.000000 0.000000
v 0.000000 1.000000 3.000000
v 0.000000 0.875000 3.000000
v 0.000000 0.875000 0.000000
v 2.000000 1.000000 3.000000
v 2.000000 1.000000 0.000000
v 2.000000 0.875000 0.000000
v 2.000000 0.875000 3.000000
v 0.000000 1.000000 0.000000
v 2.000000 1.000000 0.000000
v 2.000000 1.000000 3.000000
v 0.000000 1.000000 3.000000
v 0.000000 0.875000 3.000000
v 2.000000 0.875000 3.000000
v 2.000000 0.875000 0.000000
v 0.000000 0.875000 0.000000
v 0.187500 0.875000 0.000000
v 0.000000 0.875000 0.000000
v 0.000000 0.125000 0.000000
v 0.187500 0.125000 0.000000
v 0.000000 0.875000 0.187500
v 0.187500 0.875000 0.187500
v 0.187500 0.125000 0.187500
v 0.000000 0.125000 0.187500
v 0.000000 0.875000 0.000000
v 0.000000 0.875000 0.187500
v 0.000000 0.125000 0.187500
v 0.000000 0.125000 0.000000
v 0.187500 0.875000 0.187500
v 0.187500 0.875000 0.000000
v 0.187500 0.125000 0.000000
v 0.187500 0.125000 0.187500
v 0.000000 0.875000 0.000000
v 0.187500 0.875000 0.000000
v 0.187500 0.875000 0.187500
v 0.000000 0.875000 0.187500
v 0.000000 0.125000 0.187500
v 0.187500 0.125000 0.187500
v 0.187500 0.125000 0.000000
v 0.000000 0.125000 0.000000
v 2.000000 0.875000 0.000000
v 1.812500 0.875000 0.000000
v 1.812500 0.125000 0.000000
v 2.000000 0.125000 0.000000
v 1.812500 0.875000 0.187500
v 2.000000 0.875000 0.187500
v 2.000000 0.125000 0.187500
v 1.812500 0.125000 0.187500
v 1.812500 0.875000 0.000000
v 1.812500 0.875000 0.187500
v 1.812500 0.125000 0.187500
v 1.812500 0.125000 0.000000
v 2.000000 0.875000 0.187500
v 2.000000 0.875000 0.000000
v 2.000000 0.125000 0.000000
v 2.000000 0.125000 0.187500
v 1.812500 0.875000 0.000000
v 2.000000 0.875000 0.000000
v 2.000000 0.875000 0.187500
v 1.812500 0.875000 0.187500
v 1.812500 0.125000 0.187500
v 2.000000 0.125000 0.187500
v 2.000000 0.125000 0.000000
v 1.812500 0.125000 0.000000
v 0.187500 0.875000 2.812500
v 0.000000 0.875000 2.812500
v 0.000000 0.125000 2.812500
v 0.187500 0.125000 2.812500
v 0.000000 0.875000 3.000000
v 0.187500 0.875000 3.000000
v 0.187500 0.125000 3.000000
v 0.000000 0.125000 3.000000
v 0.000000 0.875000 2.812500
v 0.000000 0.875000 3.000000
v 0.000000 0.125000 3.000000
v 0.000000 0.125000 2.812500
v 0.187500 0.875000 3.000000
v 0.187500 0.875000 2.812500
v 0.187500 0.125000 2.812500
v 0.187500 0.125000 3.000000
v 0.000000 0.875000 2.812500
v 0.187500 0.875000 2.812500
v 0.187500 0.875000 3.000000
v 0.000000 0.875000 3.000000
v 0.000000 0.125000 3.000000
v 0.187500 0.125000 3.000000
v 0.187500 0.125000 2.812500
v 0.000000 0.125000 2.812500
v 2.000000 0.875000 2.812500
v 1.812500 0.875000 2.812500
v 1.812500 0.125000 2.812500
v 2.000000 0.125000 2.812500
v 1.812500 0.875000 3.000000
v 2.000000 0.875000 3.000000
v 2.000000 0.125000 3.000000
v 1.812500 0.125000 3.000000
v 1.812500 0.875000 2.812500
v 1.812500 0.875000 3.000000
v 1.812500 0.125000 3.000000
v 1.812500 0.125000 2.812500
v 2.000000 0.875000 3.000000
v 2.000000 0.875000 2.812500
v 2.000000 0.125000 2.812500
v 2.000000 0.125000 3.000000
v 1.812500 0.875000 2.812500
v 2.000000 0.875000 2.812500
v 2.000000 0.875000 3.000000
v 1.812500 0.875000 3.000000
v 1.812500 0.125000 3.000000
v 2.000000 0.125000 3.000000
v 2.000000 0.125000 2.812500
v 1.812500 0.125000 2.812500
v 0.125000 0.875000 0.937500
v 0.000000 0.875000 0.937500
v 0.000000 0.125000 0.937500
v 0.125000 0.125000 0.937500
v 0.000000 0.875000 1.062500
v 0.125000 0.875000 1.062500
v 0.125000 0.125000 1.062500
v 0.000000 0.125000 1.062500
v 0.000000 0.875000 0.937500
v 0.000000 0.875000 1.062500
v 0.000000 0.125000 1.062500
v 0.000000 0.125000 0.937500
v 0.125000 0.875000 1.062500
v 0.125000 0.875000 0.937500
v 0.125000 0.125000 0.937500
v 0.125000 0.125000 1.062500
v 0.000000 0.875000 0.937500
v 0.125000 0.875000 0.937500
v 0.125000 0.875000 1.062500
v 0.000000 0.875000 1.062500
v 0.000000 0.125000 1.062500
v 0.125000 0.125000 1.062500
v 0.125000 0.125000 0.937500
v 0.000000 0.125000 0.937500
v 0.125000 0.875000 1.937500
v 0.000000 0.875000 1.937500
v 0.000000 0.125000 1.937500
v 0.125000 0.125000 1.937500
v 0.000000 0.875000 2.062500
v 0.125000 0.875000 2.062500
v 0.125000 0.125000 2.062500
v 0.000000 0.125000 2.062500
v 0.000000 0.875000 1.937500
v 0.000000 0.875000 2.062500
v 0.000000 0.125000 2.062500
v 0.000000 0.125000 1.937500
v 0.125000 0.875000 2.062500
v 0.125000 0.875000 1.937500
v 0.125000 0.125000 1.937500
v 0.125000 0.125000 2.062500
v 0.000000 0.875000 1.937500
v 0.125000 0.875000 1.937500
v 0.125000 0.875000 2.062500
v 0.000000 0.875000 2.062500
v 0.000000 0.125000 2.062500
v 0.125000 0.125000 2.062500
v 0.125000 0.125000 1.937500
v 0.000000 0.125000 1.937500
v 2.000000 0.875000 0.937500
v 1.875000 0.875000 0.937500
v 1.875000 0.125000 0.937500
v 2.000000 0.125000 0.937500
v 1.875000 0.875000 1.062500
v 2.000000 0.875000 1.062500
v 2.000000 0.125000 1.062500
v 1.875000 0.125000 1.062500
v 1.875000 0.875000 0.937500
v 1.875000 0.875000 1.062500
v 1.875000 0.125000 1.062500
v 1.875000 0.125000 0.937500
v 2.000000 0.875000 1.062500
v 2.000000 0.875000 0.937500
v 2.000000 0.125000 0.937500
v 2.000000 0.125000 1.062500
v 1.875000 0.875000 0.937500
v 2.000000 0.875000 0.937500
v 2.000000 0.875000 1.062500
v 1.875000 0.875000 1.062500
v 1.875000 0.125000 1.062500
v 2.000000 0.125000 1.062500
v 2.000000 0.125000 0.937500
v 1.875000 0.125000 0.937500
v 2.000000 0.875000 1.937500
v 1.875000 0.875000 1.937500
v 1.875000 0.125000 1.937500
v 2.000000 0.125000 1.937500
v 1.875000 0.875000 2.062500
v 2.000000 0.875000 2.062500
v 2.000000 0.125000 2.062500
v 1.875000 0.125000 2.062500
v 1.875000 0.875000 1.937500
v 1.875000 0.875000 2.062500
v 1.875000 0.125000 2.062500
v 1.875000 0.125000 1.937500
v 2.000000 0.875000 2.062500
v 2.000000 0.875000 1.937500
v 2.000000 0.125000 1.937500
v 2.000000 0.125000 2.062500
v 1.875000 0.875000 1.937500
v 2.000000 0.875000 1.937500
v 2.000000 0.875000 2.062500
v 1.875000 0.875000 2.062500
v 1.875000 0.125000 2.062500
v 2.000000 0.125000 2.062500
v 2.000000 0.125000 1.937500
v 1.875000 0.125000 1.937500
v 0.062500 0.750000 0.250000
v 0.031250 0.750000 0.250000
v 0.031250 0.250000 0.250000
v 0.062500 0.250000 0.250000
v 0.031250 0.750000 0.875000
v 0.062500 0.750000 0.875000
v 0.062500 0.250000 0.875000
v 0.031250 0.250000 0.875000
v 0.031250 0.750000 0.250000
v 0.031250 0.750000 0.875000
v 0.031250 0.250000 0.875000
v 0.031250 0.250000 0.250000
v 0.031250 0.750000 0.250000
v 0.062500 0.750000 0.250000
v 0.062500 0.750000 0.875000
v 0.031250 0.750000 0.875000
v 0.031250 0.250000 0.875000
v 0.062500 0.250000 0.875000
v 0.062500 0.250000 0.250000
v 0.031250 0.250000 0.250000
v 0.062500 0.750000 1.187500
v 0.031250 0.750000 1.187500
v 0.031250 0.250000 1.187500
v 0.062500 0.250000 1.187500
v 0.031250 0.750000 1.812500
v 0.062500 0.750000 1.812500
v 0.062500 0.250000 1.812500
v 0.031250 0.250000 1.812500
v 0.031250 0.750000 1.187500
v 0.031250 0.750000 1.812500
v 0.031250 0.250000 1.812500
v 0.031250 0.250000 1.187500
v 0.031250 0.750000 1.187500
v 0.062500 0.750000 1.187500
v 0.062500 0.750000 1.812500
v 0.031250 0.750000 1.812500
v 0.031250 0.250000 1.812500
v 0.062500 0.250000 1.812500
v 0.062500 0.250000 1.187500
v 0.031250 0.250000 1.187500
v 0.062500 0.750000 2.125000
v 0.031250 0.750000 2.125000
v 0.031250 0.250000 2.125000
v 0.062500 0.250000 2.125000
v 0.031250 0.750000 2.750000
v 0.062500 0.750000 2.750000
v 0.062500 0.250000 2.750000
v 0.031250 0.250000 2.750000
v 0.031250 0.750000 2.125000
v 0.031250 0.750000 2.750000
v 0.031250 0.250000 2.750000
v 0.031250 0.250000 2.125000
v 0.031250 0.750000 2.125000
v 0.062500 0.750000 2.125000
v 0.062500 0.750000 2.750000
v 0.031250 0.750000 2.750000
v 0.031250 0.250000 2.750000
v 0.062500 0.250000 2.750000
v 0.062500 0.250000 2.125000
v 0.031250 0.250000 2.125000
v 0.937500 1.625000 1.062500
v 0.062500 1.625000 1.062500
v 0.062500 1.000000 1.062500
v 0.937500 1.000000 1.062500
v 0.062500 1.625000 1.937500
v 0.937500 1.625000 1.937500
v 0.937500 1.000000 1.937500
v 0.062500 1.000000 1.937500
v 0.062500 1.625000 1.062500
v 0.062500 1.625000 1.937500
v 0.062500 1.000000 1.937500
v 0.062500 1.000000 1.062500
v 0.937500 1.625000 1.937500
v 0.937500 1.625000 1.062500
v 0.937500 1.000000 1.062500
v 0.937500 1.000000 1.937500
v 0.062500 1.625000 1.062500
v 0.937500 1.625000 1.062500
v 0.937500 1.625000 1.937500
v 0.062500 1.625000 1.937500
v 0.968750 1.687500 1.031250
v 0.031250 1.687500 1.031250
v 0.031250 1.500000 1.031250
v 0.968750 1.500000 1.031250
v 0.031250 1.687500 1.968750
v 0.968750 1.687500 1.968750
v 0.968750 1.500000 1.968750
v 0.031250 1.500000 1.968750
v 0.031250 1.687500 1.031250
v 0.031250 1.687500 1.968750
v 0.031250 1.500000 1.968750
v 0.031250 1.500000 1.031250
v 0.968750 1.687500 1.968750
v 0.968750 1.687500 1.031250
v 0.968750 1.500000 1.031250
v 0.968750 1.500000 1.968750
v 0.031250 1.687500 1.031250
v 0.968750 1.687500 1.031250
v 0.968750 1.687500 1.968750
v 0.031250 1.687500 1.968750
v 1.125000 1.250000 1.312500
v 0.937500 1.250000 1.312500
v 0.937500 1.000000 1.312500
v 1.125000 1.000000 1.312500
v 0.937500 1.250000 1.687500
v 1.125000 1.250000 1.687500
v 1.125000 1.000000 1.687500
v 0.937500 1.000000 1.687500
v 0.937500 1.250000 1.312500
v 0.937500 1.250000 1.687500
v 0.937500 1.000000 1.687500
v 0.937500 1.000000 1.312500
v 1.125000 1.250000 1.687500
v 1.125000 1.250000 1.312500
v 1.125000 1.000000 1.312500
v 1.125000 1.000000 1.687500
v 0.937500 1.250000 1.312500
v 1.125000 1.250000 1.312500
v 1.125000 1.250000 1.687500
v 0.937500 1.250000 1.687500
v 1.875000 1.375000 1.125000
v 1.125000 1.375000 1.125000
v 1.125000 1.000000 1.125000
v 1.875000 1.000000 1.125000
v 1.125000 1.375000 1.875000
v 1.875000 1.375000 1.875000
v 1.875000 1.000000 1.875000
v 1.125000 1.000000 1.875000
v 1.125000 1.375000 1.125000
v 1.125000 1.375000 1.875000
v 1.125000 1.000000 1.875000
v 1.125000 1.000000 1.125000
v 1.875000 1.375000 1.875000
v 1.875000 1.375000 1.125000
v 1.875000 1.000000 1.125000
v 1.875000 1.000000 1.875000
v 1.125000 1.375000 1.125000
v 1.875000 1.375000 1.125000
v 1.875000 1.375000 1.875000
v 1.125000 1.375000 1.875000
v 1.625000 1.406250 1.375000
v 1.375000 1.406250 1.375000
v 1.375000 1.375000 1.375000
v 1.625000 1.375000 1.375000
v 1.375000 1.406250 1.625000
v 1.625000 1.406250 1.625000
v 1.625000 1.375000 1.625000
v 1.375000 1.375000 1.625000
v 1.375000 1.406250 1.375000
v 1.375000 1.406250 1.625000
v 1.375000 1.375000 1.625000
v 1.375000 1.375000 1.375000
v 1.625000 1.406250 1.625000
v 1.625000 1.406250 1.375000
v 1.625000 1.375000 1.375000
v 1.625000 1.375000 1.625000
v 1.375000 1.406250 1.375000
v 1.625000 1.406250 1.375000
v 1.625000 1.406250 1.625000
v 1.375000 1.406250 1.625000
v 1.250000 1.125000 0.375000
v 0.125000 1.125000 0.375000
v 0.125000 1.000000 0.375000
v 1.250000 1.000000 0.375000
v 0.125000 1.125000 0.625000
v 1.250000 1.125000 0.625000
v 1.250000 1.000000 0.625000
v 0.125000 1.000000 0.625000
v 0.125000 1.125000 0.375000
v 0.125000 1.125000 0.625000
v 0.125000 1.000000 0.625000
v 0.125000 1.000000 0.375000
v 1.250000 1.125000 0.625000
v 1.250000 1.125000 0.375000
v 1.250000 1.000000 0.375000
v 1.250000 1.000000 0.625000
v 0.125000 1.125000 0.375000
v 1.250000 1.125000 0.375000
v 1.250000 1.125000 0.625000
v 0.125000 1.125000 0.625000
v 1.250000 1.125000 2.375000
v 0.125000 1.125000 2.375000
v 0.125000 1.000000 2.375000
v 1.250000 1.000000 2.375000
v 0.125000 1.125000 2.625000
v 1.250000 1.125000 2.625000
v 1.250000 1.000000 2.625000
v 0.125000 1.000000 2.625000
v 0.125000 1.125000 2.375000
v 0.125000 1.125000 2.625000
v 0.125000 1.000000 2.625000
v 0.125000 1.000000 2.375000
v 1.250000 1.125000 2.625000
v 1.250000 1.125000 2.375000
v 1.250000 1.000000 2.375000
v 1.250000 1.000000 2.625000
v 0.125000 1.125000 2.375000
v 1.250000 1.125000 2.375000
v 1.250000 1.125000 2.625000
v 0.125000 1.125000 2.625000
v 1.750000 1.187500 0.250000
v 1.250000 1.187500 0.250000
v 1.250000 1.000000 0.250000
v 1.750000 1.000000 0.250000
v 1.250000 1.187500 0.750000
v 1.750000 1.187500 0.750000
v 1.750000 1.000000 0.750000
v 1.250000 1.000000 0.750000
v 1.250000 1.187500 0.250000
v 1.250000 1.187500 0.750000
v 1.250000 1.000000 0.750000
v 1.250000 1.000000 0.250000
v 1.750000 1.187500 0.750000
v 1.750000 1.187500 0.250000
v 1.750000 1.000000 0.250000
v 1.750000 1.000000 0.750000
v 1.250000 1.187500 0.250000
v 1.750000 1.187500 0.250000
v 1.750000 1.187500 0.750000
v 1.250000 1.187500 0.750000
v 1.750000 1.187500 2.250000
v 1.250000 1.187500 2.250000
v 1.250000 1.000000 2.250000
v 1.750000 1.000000 2.250000
v 1.250000 1.187500 2.750000
v 1.750000 1.187500 2.750000
v 1.750000 1.000000 2.750000
v 1.250000 1.000000 2.750000
v 1.250000 1.187500 2.250000
v 1.250000 1.187500 2.750000
v 1.250000 1.000000 2.750000
v 1.250000 1.000000 2.250000
v 1.750000 1.187500 2.750000
v 1.750000 1.187500 2.250000
v 1.750000 1.000000 2.250000
v 1.750000 1.000000 2.750000
v 1.250000 1.187500 2.250000
v 1.750000 1.187500 2.250000
v 1.750000 1.187500 2.750000
v 1.250000 1.187500 2.750000
v 1.687500 1.125000 0.750000
v 1.312500 1.125000 0.750000
v 1.312500 1.000000 0.750000
v 1.687500 1.000000 0.750000
v 1.312500 1.125000 1.125000
v 1.687500 1.125000 1.125000
v 1.687500 1.000000 1.125000
v 1.312500 1.000000 1.125000
v 1.312500 1.125000 0.750000
v 1.312500 1.125000 1.125000
v 1.312500 1.000000 1.125000
v 1.312500 1.000000 0.750000
v 1.687500 1.125000 1.125000
v 1.687500 1.125000 0.750000
v 1.687500 1.000000 0.750000
v 1.687500 1.000000 1.125000
v 1.312500 1.125000 0.750000
v 1.687500 1.125000 0.750000
v 1.687500 1.125000 1.125000
v 1.312500 1.125000 1.125000
v 1.687500 1.125000 1.875000
v 1.312500 1.125000 1.875000
v 1.312500 1.000000 1.875000
v 1.687500 1.000000 1.875000
v 1.312500 1.125000 2.250000
v 1.687500 1.125000 2.250000
v 1.687500 1.000000 2.250000
v 1.312500 1.000000 2.250000
v 1.312500 1.125000 1.875000
v 1.312500 1.125000 2.250000
v 1.312500 1.000000 2.250000
v 1.312500 1.000000 1.875000
v 1.687500 1.125000 2.250000
v 1.687500 1.125000 1.875000
v 1.687500 1.000000 1.875000
v 1.687500 1.000000 2.250000
v 1.312500 1.125000 1.875000
v 1.687500 1.125000 1.875000
v 1.687500 1.125000 2.250000
v 1.312500 1.125000 2.250000
v 0.062500 0.750000 0.093750
v 0.031250 0.750000 0.093750
v 0.031250 0.625000 0.093750
v 0.062500 0.625000 0.093750
v 0.031250 0.750000 0.218750
v 0.062500 0.750000 0.218750
v 0.062500 0.625000 0.218750
v 0.031250 0.625000 0.218750
v 0.031250 0.750000 0.093750
v 0.031250 0.750000 0.218750
v 0.031250 0.625000 0.218750
v 0.031250 0.625000 0.093750
v 0.031250 0.750000 0.093750
v 0.062500 0.750000 0.093750
v 0.062500 0.750000 0.218750
v 0.031250 0.750000 0.218750
v 0.031250 0.625000 0.218750
v 0.062500 0.625000 0.218750
v 0.062500 0.625000 0.093750
v 0.031250 0.625000 0.093750
v 0.000000 0.879000 0.000000
v 0.000000 0.879000 0.187500
v 0.187500 0.879000 0.187500
v 0.187500 0.879000 0.000000
v 1.812500 0.879000 0.000000
v 1.812500 0.879000 0.187500
v 2.000000 0.879000 0.187500
v 2.000000 0.879000 0.000000
v 0.000000 0.879000 2.812500
v 0.000000 0.879000 3.000000
v 0.187500 0.879000 3.000000
v 0.187500 0.879000 2.812500
v 1.812500 0.879000 2.812500
v 1.812500 0.879000 3.000000
v 2.000000 0.879000 3.000000
v 2.000000 0.879000 2.812500
v 0.000000 0.879000 0.937500
v 0.000000 0.879000 1.062500
v 0.125000 0.879000 1.062500
v 0.125000 0.879000 0.937500
v 0.000000 0.879000 1.937500
v 0.000000 0.879000 2.062500
v 0.125000 0.879000 2.062500
v 0.125000 0.879000 1.937500
v 1.875000 0.879000 0.937500
v 1.875000 0.879000 1.062500
v 2.000000 0.879000 1.062500
v 2.000000 0.879000 0.937500
v 1.875000 0.879000 1.937500
v 1.875000 0.879000 2.062500
v 2.000000 0.879000 2.062500
v 2.000000 0.879000 1.937500
v 0.000000 0.121000 0.187500
v 0.000000 0.121000 0.000000
v 0.187500 0.121000 0.000000
v 0.187500 0.121000 0.187500
v 1.812500 0.121000 0.187500
v 1.812500 0.121000 0.000000
v 2.000000 0.121000 0.000000
v 2.000000 0.121000 0.187500
v 0.000000 0.121000 3.000000
v 0.000000 0.121000 2.812500
v 0.187500 0.121000 2.812500
v 0.187500 0.121000 3.000000
v 1.812500 0.121000 3.000000
v 1.812500 0.121000 2.812500
v 2.000000 0.121000 2.812500
v 2.000000 0.121000 3.000000
v 0.000000 0.121000 1.062500
v 0.000000 0.121000 0.937500
v 0.125000 0.121000 0.937500
v 0.125000 0.121000 1.062500
v 0.000000 0.121000 2.062500
v 0.000000 0.121000 1.937500
v 0.125000 0.121000 1.937500
v 0.125000 0.121000 2.062500
v 1.875000 0.121000 1.062500
v 1.875000 0.121000 0.937500
v 2.000000 0.121000 0.937500
v 2.000000 0.121000 1.062500
v 1.875000 0.121000 2.062500
v 1.875000 0.121000 1.937500
v 2.000000 0.121000 1.937500
v 2.000000 0.121000 2.062500
vt 0.375000 0.382812
vt 0.625000 0.382812
vt 0.625000 0.367188
vt 0.375000 0.367188
vt 0.375000 0.382812
vt 0.625000 0.382812
vt 0.625000 0.367188
vt 0.375000 0.367188
vt 0.414062 0.414062
vt 0.789062 0.414062
vt 0.789062 0.398438
vt 0.414062 0.398438
vt 0.414062 0.414062
vt 0.789062 0.414062
vt 0.789062 0.398438
vt 0.414062 0.398438
vt 0.000000 1.000000
vt 0.250000 1.000000
vt 0.250000 0.625000
vt 0.000000 0.625000
vt 0.000000 0.507812
vt 0.234375 0.507812
vt 0.234375 0.414062
vt 0.000000 0.414062
vt 0.000000 0.507812
vt 0.234375 0.507812
vt 0.234375 0.414062
vt 0.000000 0.414062
vt 0.226562 0.625000
vt 0.585938 0.625000
vt 0.585938 0.531250
vt 0.226562 0.531250
vt 0.585938 0.625000
vt 0.945312 0.625000
vt 0.945312 0.531250
vt 0.585938 0.531250
vt 0.750000 1.000000
vt 0.984375 1.000000
vt 0.984375 0.640625
vt 0.750000 0.640625
vt 0.750000 1.000000
vt 0.984375 1.000000
vt 0.984375 0.640625
vt 0.750000 0.640625
vt 0.625000 0.382812
vt 0.875000 0.382812
vt 0.875000 0.367188
vt 0.625000 0.367188
vt 0.625000 0.382812
vt 0.875000 0.382812
vt 0.875000 0.367188
vt 0.625000 0.367188
vt 0.000000 0.382812
vt 0.375000 0.382812
vt 0.375000 0.367188
vt 0.000000 0.367188
vt 0.000000 0.382812
vt 0.375000 0.382812
vt 0.375000 0.367188
vt 0.000000 0.367188
vt 0.250000 1.000000
vt 0.500000 1.000000
vt 0.500000 0.625000
vt 0.250000 0.625000
vt 0.500000 1.000000
vt 0.750000 1.000000
vt 0.750000 0.625000
vt 0.500000 0.625000
vt 0.945312 0.625000
vt 0.968750 0.625000
vt 0.968750 0.531250
vt 0.945312 0.531250
vt 0.945312 0.625000
vt 0.968750 0.625000
vt 0.968750 0.531250
vt 0.945312 0.531250
vt 0.945312 0.625000
vt 0.968750 0.625000
vt 0.968750 0.531250
vt 0.945312 0.531250
vt 0.945312 0.625000
vt 0.968750 0.625000
vt 0.968750 0.531250
vt 0.945312 0.531250
vt 0.390625 0.414062
vt 0.414062 0.414062
vt 0.414062 0.390625
vt 0.390625 0.390625
vt 0.390625 0.414062
vt 0.414062 0.414062
vt 0.414062 0.390625
vt 0.390625 0.390625
vt 0.945312 0.625000
vt 0.968750 0.625000
vt 0.968750 0.531250
vt 0.945312 0.531250
vt 0.945312 0.625000
vt 0.968750 0.625000
vt 0.968750 0.531250
vt 0.945312 0.531250
vt 0.945312 0.625000
vt 0.968750 0.625000
vt 0.968750 0.531250
vt 0.945312 0.531250
vt 0.945312 0.625000
vt 0.968750 0.625000
vt 0.968750 0.531250
vt 0.945312 0.531250
vt 0.390625 0.414062
vt 0.414062 0.414062
vt 0.414062 0.390625
vt 0.390625 0.390625
vt 0.390625 0.414062
vt 0.414062 0.414062
vt 0.414062 0.390625
vt 0.390625 0.390625
vt 0.945312 0.625000
vt 0.968750 0.625000
vt 0.968750 0.531250
vt 0.945312 0.531250
vt 0.945312 0.625000
vt 0.968750 0.625000
vt 0.968750 0.531250
vt 0.945312 0.531250
vt 0.945312 0.625000
vt 0.968750 0.625000
vt 0.968750 0.531250
vt 0.945312 0.531250
vt 0.945312 0.625000
vt 0.968750 0.625000
vt 0.968750 0.531250
vt 0.945312 0.531250
vt 0.390625 0.414062
vt 0.414062 0.414062
vt 0.414062 0.390625
vt 0.390625 0.390625
vt 0.390625 0.414062
vt 0.414062 0.414062
vt 0.414062 0.390625
vt 0.390625 0.390625
vt 0.945312 0.625000
vt 0.968750 0.625000
vt 0.968750 0.531250
vt 0.945312 0.531250
vt 0.945312 0.625000
vt 0.968750 0.625000
vt 0.968750 0.531250
vt 0.945312 0.531250
vt 0.945312 0.625000
vt 0.968750 0.625000
vt 0.968750 0.531250
vt 0.945312 0.531250
vt 0.945312 0.625000
vt 0.968750 0.625000
vt 0.968750 0.531250
vt 0.945312 0.531250
vt 0.390625 0.414062
vt 0.414062 0.414062
vt 0.414062 0.390625
vt 0.390625 0.390625
vt 0.390625 0.414062
vt 0.414062 0.414062
vt 0.414062 0.390625
vt 0.390625 0.390625
vt 0.984375 1.000000
vt 1.000000 1.000000
vt 1.000000 0.906250
vt 0.984375 0.906250
vt 0.984375 1.000000
vt 1.000000 1.000000
vt 1.000000 0.906250
vt 0.984375 0.906250
vt 0.984375 1.000000
vt 1.000000 1.000000
vt 1.000000 0.906250
vt 0.984375 0.906250
vt 0.984375 1.000000
vt 1.000000 1.000000
vt 1.000000 0.906250
vt 0.984375 0.906250
vt 0.976562 0.414062
vt 0.992188 0.414062
vt 0.992188 0.398438
vt 0.976562 0.398438
vt 0.976562 0.414062
vt 0.992188 0.414062
vt 0.992188 0.398438
vt 0.976562 0.398438
vt 0.984375 1.000000
vt 1.000000 1.000000
vt 1.000000 0.906250
vt 0.984375 0.906250
vt 0.984375 1.000000
vt 1.000000 1.000000
vt 1.000000 0.906250
vt 0.984375 0.906250
vt 0.984375 1.000000
vt 1.000000 1.000000
vt 1.000000 0.906250
vt 0.984375 0.906250
vt 0.984375 1.000000
vt 1.000000 1.000000
vt 1.000000 0.906250
vt 0.984375 0.906250
vt 0.976562 0.414062
vt 0.992188 0.414062
vt 0.992188 0.398438
vt 0.976562 0.398438
vt 0.976562 0.414062
vt 0.992188 0.414062
vt 0.992188 0.398438
vt 0.976562 0.398438
vt 0.984375 1.000000
vt 1.000000 1.000000
vt 1.000000 0.906250
vt 0.984375 0.906250
vt 0.984375 1.000000
vt 1.000000 1.000000
vt 1.000000 0.906250
vt 0.984375 0.906250
vt 0.984375 1.000000
vt 1.000000 1.000000
vt 1.000000 0.906250
vt 0.984375 0.906250
vt 0.984375 1.000000
vt 1.000000 1.000000
vt 1.000000 0.906250
vt 0.984375 0.906250
vt 0.976562 0.414062
vt 0.992188 0.414062
vt 0.992188 0.398438
vt 0.976562 0.398438
vt 0.976562 0.414062
vt 0.992188 0.414062
vt 0.992188 0.398438
vt 0.976562 0.398438
vt 0.984375 1.000000
vt 1.000000 1.000000
vt 1.000000 0.906250
vt 0.984375 0.906250
vt 0.984375 1.000000
vt 1.000000 1.000000
vt 1.000000 0.906250
vt 0.984375 0.906250
vt 0.984375 1.000000
vt 1.000000 1.000000
vt 1.000000 0.906250
vt 0.984375 0.906250
vt 0.984375 1.000000
vt 1.000000 1.000000
vt 1.000000 0.906250
vt 0.984375 0.906250
vt 0.976562 0.414062
vt 0.992188 0.414062
vt 0.992188 0.398438
vt 0.976562 0.398438
vt 0.976562 0.414062
vt 0.992188 0.414062
vt 0.992188 0.398438
vt 0.976562 0.398438
vt 0.765625 0.507812
vt 0.773438 0.507812
vt 0.773438 0.445312
vt 0.765625 0.445312
vt 0.773438 0.507812
vt 0.781250 0.507812
vt 0.781250 0.445312
vt 0.773438 0.445312
vt 0.546875 0.507812
vt 0.625000 0.507812
vt 0.625000 0.445312
vt 0.546875 0.445312
vt 0.968750 0.625000
vt 0.976562 0.625000
vt 0.976562 0.546875
vt 0.968750 0.546875
vt 0.976562 0.625000
vt 0.984375 0.625000
vt 0.984375 0.546875
vt 0.976562 0.546875
vt 0.781250 0.507812
vt 0.789062 0.507812
vt 0.789062 0.445312
vt 0.781250 0.445312
vt 0.789062 0.507812
vt 0.796875 0.507812
vt 0.796875 0.445312
vt 0.789062 0.445312
vt 0.625000 0.507812
vt 0.703125 0.507812
vt 0.703125 0.445312
vt 0.625000 0.445312
vt 0.984375 0.625000
vt 0.992188 0.625000
vt 0.992188 0.546875
vt 0.984375 0.546875
vt 0.992188 0.625000
vt 1.000000 0.625000
vt 1.000000 0.546875
vt 0.992188 0.546875
vt 0.765625 0.507812
vt 0.773438 0.507812
vt 0.773438 0.445312
vt 0.765625 0.445312
vt 0.773438 0.507812
vt 0.781250 0.507812
vt 0.781250 0.445312
vt 0.773438 0.445312
vt 0.546875 0.507812
vt 0.625000 0.507812
vt 0.625000 0.445312
vt 0.546875 0.445312
vt 0.968750 0.625000
vt 0.976562 0.625000
vt 0.976562 0.546875
vt 0.968750 0.546875
vt 0.976562 0.625000
vt 0.984375 0.625000
vt 0.984375 0.546875
vt 0.976562 0.546875
vt 0.328125 0.507812
vt 0.437500 0.507812
vt 0.437500 0.429688
vt 0.328125 0.429688
vt 0.328125 0.507812
vt 0.437500 0.507812
vt 0.437500 0.429688
vt 0.328125 0.429688
vt 0.437500 0.507812
vt 0.546875 0.507812
vt 0.546875 0.429688
vt 0.437500 0.429688
vt 0.328125 0.507812
vt 0.437500 0.507812
vt 0.437500 0.429688
vt 0.328125 0.429688
vt 0.117188 0.625000
vt 0.226562 0.625000
vt 0.226562 0.515625
vt 0.117188 0.515625
vt 0.210938 0.414062
vt 0.328125 0.414062
vt 0.328125 0.390625
vt 0.210938 0.390625
vt 0.210938 0.414062
vt 0.328125 0.414062
vt 0.328125 0.390625
vt 0.210938 0.390625
vt 0.210938 0.414062
vt 0.328125 0.414062
vt 0.328125 0.390625
vt 0.210938 0.390625
vt 0.210938 0.414062
vt 0.328125 0.414062
vt 0.328125 0.390625
vt 0.210938 0.390625
vt 0.000000 0.625000
vt 0.117188 0.625000
vt 0.117188 0.507812
vt 0.000000 0.507812
vt 0.187500 0.414062
vt 0.210938 0.414062
vt 0.210938 0.382812
vt 0.187500 0.382812
vt 0.187500 0.414062
vt 0.210938 0.414062
vt 0.210938 0.382812
vt 0.187500 0.382812
vt 0.140625 0.414062
vt 0.187500 0.414062
vt 0.187500 0.382812
vt 0.140625 0.382812
vt 0.140625 0.414062
vt 0.187500 0.414062
vt 0.187500 0.382812
vt 0.140625 0.382812
vt 0.937500 0.507812
vt 0.960938 0.507812
vt 0.960938 0.460938
vt 0.937500 0.460938
vt 0.796875 0.507812
vt 0.890625 0.507812
vt 0.890625 0.460938
vt 0.796875 0.460938
vt 0.796875 0.507812
vt 0.890625 0.507812
vt 0.890625 0.460938
vt 0.796875 0.460938
vt 0.796875 0.507812
vt 0.890625 0.507812
vt 0.890625 0.460938
vt 0.796875 0.460938
vt 0.796875 0.507812
vt 0.890625 0.507812
vt 0.890625 0.460938
vt 0.796875 0.460938
vt 0.234375 0.507812
vt 0.328125 0.507812
vt 0.328125 0.414062
vt 0.234375 0.414062
vt 0.921875 0.382812
vt 0.953125 0.382812
vt 0.953125 0.375000
vt 0.921875 0.375000
vt 0.921875 0.382812
vt 0.953125 0.382812
vt 0.953125 0.375000
vt 0.921875 0.375000
vt 0.921875 0.382812
vt 0.953125 0.382812
vt 0.953125 0.375000
vt 0.921875 0.375000
vt 0.921875 0.382812
vt 0.953125 0.382812
vt 0.953125 0.375000
vt 0.921875 0.375000
vt 0.960938 0.507812
vt 0.992188 0.507812
vt 0.992188 0.476562
vt 0.960938 0.476562
vt 0.789062 0.414062
vt 0.929688 0.414062
vt 0.929688 0.398438
vt 0.789062 0.398438
vt 0.789062 0.414062
vt 0.929688 0.414062
vt 0.929688 0.398438
vt 0.789062 0.398438
vt 0.875000 0.382812
vt 0.906250 0.382812
vt 0.906250 0.367188
vt 0.875000 0.367188
vt 0.875000 0.382812
vt 0.906250 0.382812
vt 0.906250 0.367188
vt 0.875000 0.367188
vt 0.000000 0.414062
vt 0.140625 0.414062
vt 0.140625 0.382812
vt 0.000000 0.382812
vt 0.789062 0.414062
vt 0.929688 0.414062
vt 0.929688 0.398438
vt 0.789062 0.398438
vt 0.789062 0.414062
vt 0.929688 0.414062
vt 0.929688 0.398438
vt 0.789062 0.398438
vt 0.875000 0.382812
vt 0.906250 0.382812
vt 0.906250 0.367188
vt 0.875000 0.367188
vt 0.875000 0.382812
vt 0.906250 0.382812
vt 0.906250 0.367188
vt 0.875000 0.367188
vt 0.000000 0.414062
vt 0.140625 0.414062
vt 0.140625 0.382812
vt 0.000000 0.382812
vt 0.328125 0.414062
vt 0.390625 0.414062
vt 0.390625 0.390625
vt 0.328125 0.390625
vt 0.328125 0.414062
vt 0.390625 0.414062
vt 0.390625 0.390625
vt 0.328125 0.390625
vt 0.328125 0.414062
vt 0.390625 0.414062
vt 0.390625 0.390625
vt 0.328125 0.390625
vt 0.328125 0.414062
vt 0.390625 0.414062
vt 0.390625 0.390625
vt 0.328125 0.390625
vt 0.703125 0.507812
vt 0.765625 0.507812
vt 0.765625 0.445312
vt 0.703125 0.445312
vt 0.328125 0.414062
vt 0.390625 0.414062
vt 0.390625 0.390625
vt 0.328125 0.390625
vt 0.328125 0.414062
vt 0.390625 0.414062
vt 0.390625 0.390625
vt 0.328125 0.390625
vt 0.328125 0.414062
vt 0.390625 0.414062
vt 0.390625 0.390625
vt 0.328125 0.390625
vt 0.328125 0.414062
vt 0.390625 0.414062
vt 0.390625 0.390625
vt 0.328125 0.390625
vt 0.703125 0.507812
vt 0.765625 0.507812
vt 0.765625 0.445312
vt 0.703125 0.445312
vt 0.929688 0.414062
vt 0.976562 0.414062
vt 0.976562 0.398438
vt 0.929688 0.398438
vt 0.929688 0.414062
vt 0.976562 0.414062
vt 0.976562 0.398438
vt 0.929688 0.398438
vt 0.929688 0.414062
vt 0.976562 0.414062
vt 0.976562 0.398438
vt 0.929688 0.398438
vt 0.929688 0.414062
vt 0.976562 0.414062
vt 0.976562 0.398438
vt 0.929688 0.398438
vt 0.890625 0.507812
vt 0.937500 0.507812
vt 0.937500 0.460938
vt 0.890625 0.460938
vt 0.929688 0.414062
vt 0.976562 0.414062
vt 0.976562 0.398438
vt 0.929688 0.398438
vt 0.929688 0.414062
vt 0.976562 0.414062
vt 0.976562 0.398438
vt 0.929688 0.398438
vt 0.929688 0.414062
vt 0.976562 0.414062
vt 0.976562 0.398438
vt 0.929688 0.398438
vt 0.929688 0.414062
vt 0.976562 0.414062
vt 0.976562 0.398438
vt 0.929688 0.398438
vt 0.890625 0.507812
vt 0.937500 0.507812
vt 0.937500 0.460938
vt 0.890625 0.460938
vt 0.992188 0.507812
vt 1.000000 0.507812
vt 1.000000 0.492188
vt 0.992188 0.492188
vt 0.992188 0.507812
vt 1.000000 0.507812
vt 1.000000 0.492188
vt 0.992188 0.492188
vt 0.906250 0.382812
vt 0.921875 0.382812
vt 0.921875 0.367188
vt 0.906250 0.367188
vt 0.992188 0.507812
vt 1.000000 0.507812
vt 1.000000 0.492188
vt 0.992188 0.492188
vt 0.992188 0.507812
vt 1.000000 0.507812
vt 1.000000 0.492188
vt 0.992188 0.492188
vn 0 0 -1
vn 0 0 1
vn -1 0 0
vn 1 0 0
vn 0 1 0
vn 0 -1 0
usemtl astrobody_data_processor
o Cube
f 1/1/1 4/4/1 3/3/1 2/2/1
f 5/5/2 8/8/2 7/7/2 6/6/2
f 9/9/3 12/12/3 11/11/3 10/10/3
f 13/13/4 16/16/4 15/15/4 14/14/4
f 17/17/5 20/20/5 19/19/5 18/18/5
f 21/21/1 24/24/1 23/23/1 22/22/1
f 25/25/2 28/28/2 27/27/2 26/26/2
f 29/29/3 32/32/3 31/31/3 30/30/3
f 33/33/4 36/36/4 35/35/4 34/34/4
f 37/37/5 40/40/5 39/39/5 38/38/5
f 41/41/6 44/44/6 43/43/6 42/42/6
f 45/45/1 48/48/1 47/47/1 46/46/1
f 49/49/2 52/52/2 51/51/2 50/50/2
f 53/53/3 56/56/3 55/55/3 54/54/3
f 57/57/4 60/60/4 59/59/4 58/58/4
f 61/61/5 64/64/5 63/63/5 62/62/5
f 65/65/6 68/68/6 67/67/6 66/66/6
f 69/69/1 72/72/1 71/71/1 70/70/1
f 73/73/2 76/76/2 75/75/2 74/74/2
f 77/77/3 80/80/3 79/79/3 78/78/3
f 81/81/4 84/84/4 83/83/4 82/82/4
f 561/85/5 562/88/5 563/87/5 564/86/5
f 593/89/6 594/92/6 595/91/6 596/90/6
f 93/93/1 96/96/1 95/95/1 94/94/1
f 97/97/2 100/100/2 99/99/2 98/98/2
f 101/101/3 104/104/3 103/103/3 102/102/3
f 105/105/4 108/108/4 107/107/4 106/106/4
f 565/109/5 566/112/5 567/111/5 568/110/5
f 597/113/6 598/116/6 599/115/6 600/114/6
f 117/117/1 120/120/1 119/119/1 118/118/1
f 121/121/2 124/124/2 123/123/2 122/122/2
f 125/125/3 128/128/3 127/127/3 126/126/3
f 129/129/4 132/132/4 131/131/4 130/130/4
f 569/133/5 570/136/5 571/135/5 572/134/5
f 601/137/6 602/140/6 603/139/6 604/138/6
f 141/141/1 144/144/1 143/143/1 142/142/1
f 145/145/2 148/148/2 147/147/2 146/146/2
f 149/149/3 152/152/3 151/151/3 150/150/3
f 153/153/4 156/156/4 155/155/4 154/154/4
f 573/157/5 574/160/5 575/159/5 576/158/5
f 605/161/6 606/164/6 607/163/6 608/162/6
f 165/165/1 168/168/1 167/167/1 166/166/1
f 169/169/2 172/172/2 171/171/2 170/170/2
f 173/173/3 176/176/3 175/175/3 174/174/3
f 177/177/4 180/180/4 179/179/4 178/178/4
f 577/181/5 578/184/5 579/183/5 580/182/5
f 609/185/6 610/188/6 611/187/6 612/186/6
f 189/189/1 192/192/1 191/191/1 190/190/1
f 193/193/2 196/196/2 195/195/2 194/194/2
f 197/197/3 200/200/3 199/199/3 198/198/3
f 201/201/4 204/204/4 203/203/4 202/202/4
f 581/205/5 582/208/5 583/207/5 584/206/5
f 613/209/6 614/212/6 615/211/6 616/210/6
f 213/213/1 216/216/1 215/215/1 214/214/1
f 217/217/2 220/220/2 219/219/2 218/218/2
f 221/221/3 224/224/3 223/223/3 222/222/3
f 225/225/4 228/228/4 227/227/4 226/226/4
f 585/229/5 586/232/5 587/231/5 588/230/5
f 617/233/6 618/236/6 619/235/6 620/234/6
f 237/237/1 240/240/1 239/239/1 238/238/1
f 241/241/2 244/244/2 243/243/2 242/242/2
f 245/245/3 248/248/3 247/247/3 246/246/3
f 249/249/4 252/252/4 251/251/4 250/250/4
f 589/253/5 590/256/5 591/255/5 592/254/5
f 621/257/6 622/260/6 623/259/6 624/258/6
f 261/261/1 264/264/1 263/263/1 262/262/1
f 265/265/2 268/268/2 267/267/2 266/266/2
f 269/269/3 272/272/3 271/271/3 270/270/3
f 273/273/5 276/276/5 275/275/5 274/274/5
f 277/277/6 280/280/6 279/279/6 278/278/6
f 281/281/1 284/284/1 283/283/1 282/282/1
f 285/285/2 288/288/2 287/287/2 286/286/2
f 289/289/3 292/292/3 291/291/3 290/290/3
f 293/293/5 296/296/5 295/295/5 294/294/5
f 297/297/6 300/300/6 299/299/6 298/298/6
f 301/301/1 304/304/1 303/303/1 302/302/1
f 305/305/2 308/308/2 307/307/2 306/306/2
f 309/309/3 312/312/3 311/311/3 310/310/3
f 313/313/5 316/316/5 315/315/5 314/314/5
f 317/317/6 320/320/6 319/319/6 318/318/6
f 321/321/1 324/324/1 323/323/1 322/322/1
f 325/325/2 328/328/2 327/327/2 326/326/2
f 329/329/3 332/332/3 331/331/3 330/330/3
f 333/333/4 336/336/4 335/335/4 334/334/4
f 337/337/5 340/340/5 339/339/5 338/338/5
f 341/341/1 344/344/1 343/343/1 342/342/1
f 345/345/2 348/348/2 347/347/2 346/346/2
f 349/349/3 352/352/3 351/351/3 350/350/3
f 353/353/4 356/356/4 355/355/4 354/354/4
f 357/357/5 360/360/5 359/359/5 358/358/5
f 361/361/1 364/364/1 363/363/1 362/362/1
f 365/365/2 368/368/2 367/367/2 366/366/2
f 369/369/3 372/372/3 371/371/3 370/370/3
f 373/373/4 376/376/4 375/375/4 374/374/4
f 377/377/5 380/380/5 379/379/5 378/378/5
f 381/381/1 384/384/1 383/383/1 382/382/1
f 385/385/2 388/388/2 387/387/2 386/386/2
f 389/389/3 392/392/3 391/391/3 390/390/3
f 393/393/4 396/396/4 395/395/4 394/394/4
f 397/397/5 400/400/5 399/399/5 398/398/5
f 401/401/1 404/404/1 403/403/1 402/402/1
f 405/405/2 408/408/2 407/407/2 406/406/2
f 409/409/3 412/412/3 411/411/3 410/410/3
f 413/413/4 416/416/4 415/415/4 414/414/4
f 417/417/5 420/420/5 419/419/5 418/418/5
f 421/421/1 424/424/1 423/423/1 422/422/1
f 425/425/2 428/428/2 427/427/2 426/426/2
f 429/429/3 432/432/3 431/431/3 430/430/3
f 433/433/4 436/436/4 435/435/4 434/434/4
f 437/437/5 440/440/5 439/439/5 438/438/5
f 441/441/1 444/444/1 443/443/1 442/442/1
f 445/445/2 448/448/2 447/447/2 446/446/2
f 449/449/3 452/452/3 451/451/3 450/450/3
f 453/453/4 456/456/4 455/455/4 454/454/4
f 457/457/5 460/460/5 459/459/5 458/458/5
f 461/461/1 464/464/1 463/463/1 462/462/1
f 465/465/2 468/468/2 467/467/2 466/466/2
f 469/469/3 472/472/3 471/471/3 470/470/3
f 473/473/4 476/476/4 475/475/4 474/474/4
f 477/477/5 480/480/5 479/479/5 478/478/5
f 481/481/1 484/484/1 483/483/1 482/482/1
f 485/485/2 488/488/2 487/487/2 486/486/2
f 489/489/3 492/492/3 491/491/3 490/490/3
f 493/493/4 496/496/4 495/495/4 494/494/4
f 497/497/5 500/500/5 499/499/5 498/498/5
f 501/501/1 504/504/1 503/503/1 502/502/1
f 505/505/2 508/508/2 507/507/2 506/506/2
f 509/509/3 512/512/3 511/511/3 510/510/3
f 513/513/4 516/516/4 515/515/4 514/514/4
f 517/517/5 520/520/5 519/519/5 518/518/5
f 521/521/1 524/524/1 523/523/1 522/522/1
f 525/525/2 528/528/2 527/527/2 526/526/2
f 529/529/3 532/532/3 531/531/3 530/530/3
f 533/533/4 536/536/4 535/535/4 534/534/4
f 537/537/5 540/540/5 539/539/5 538/538/5
f 541/541/1 544/544/1 543/543/1 542/542/1
f 545/545/2 548/548/2 547/547/2 546/546/2
f 549/549/3 552/552/3 551/551/3 550/550/3
f 553/553/5 556/556/5 555/555/5 554/554/5
f 557/557/6 560/560/6 559/559/6 558/558/6
