# beacon generated by machinegen.py
mtllib beacon.mtl
v 0.250000 4.250000 -0.250000
v -0.250000 4.250000 -0.250000
v -0.250000 1.250000 -0.250000
v 0.250000 1.250000 -0.250000
v -0.250000 4.250000 0.250000
v 0.250000 4.250000 0.250000
v 0.250000 1.250000 0.250000
v -0.250000 1.250000 0.250000
v -0.250000 4.250000 -0.250000
v -0.250000 4.250000 0.250000
v -0.250000 1.250000 0.250000
v -0.250000 1.250000 -0.250000
v 0.250000 4.250000 0.250000
v 0.250000 4.250000 -0.250000
v 0.250000 1.250000 -0.250000
v 0.250000 1.250000 0.250000
v 0.437500 4.000000 -0.062500
v -0.437500 4.000000 -0.062500
v -0.437500 1.500000 -0.062500
v 0.437500 1.500000 -0.062500
v -0.437500 4.000000 0.062500
v 0.437500 4.000000 0.062500
v 0.437500 1.500000 0.062500
v -0.437500 1.500000 0.062500
v -0.437500 4.000000 -0.062500
v -0.437500 4.000000 0.062500
v -0.437500 1.500000 0.062500
v -0.437500 1.500000 -0.062500
v 0.437500 4.000000 0.062500
v 0.437500 4.000000 -0.062500
v 0.437500 1.500000 -0.062500
v 0.437500 1.500000 0.062500
v -0.437500 4.000000 -0.062500
v 0.437500 4.000000 -0.062500
v 0.437500 4.000000 0.062500
v -0.437500 4.000000 0.062500
v -0.437500 1.500000 0.062500
v 0.437500 1.500000 0.062500
v 0.437500 1.500000 -0.062500
v -0.437500 1.500000 -0.062500
v 0.062500 4.000000 -0.437500
v -0.062500 4.000000 -0.437500
v -0.062500 1.500000 -0.437500
v 0.062500 1.500000 -0.437500
v -0.062500 4.000000 0.437500
v 0.062500 4.000000 0.437500
v 0.062500 1.500000 0.437500
v -0.062500 1.500000 0.437500
v -0.062500 4.000000 -0.437500
v -0.062500 4.000000 0.437500
v -0.062500 1.500000 0.437500
v -0.062500 1.500000 -0.437500
v 0.062500 4.000000 0.437500
v 0.062500 4.000000 -0.437500
v 0.062500 1.500000 -0.437500
v 0.062500 1.500000 0.437500
v -0.062500 4.000000 -0.437500
v 0.062500 4.000000 -0.437500
v 0.062500 4.000000 0.437500
v -0.062500 4.000000 0.437500
v -0.062500 1.500000 0.437500
v 0.062500 1.500000 0.437500
v 0.062500 1.500000 -0.437500
v -0.062500 1.500000 -0.437500
v 0.312500 1.375000 -0.312500
v -0.312500 1.375000 -0.312500
v -0.312500 1.250000 -0.312500
v 0.312500 1.250000 -0.312500
v -0.312500 1.375000 0.312500
v 0.312500 1.375000 0.312500
v 0.312500 1.250000 0.312500
v -0.312500 1.250000 0.312500
v -0.312500 1.375000 -0.312500
v -0.312500 1.375000 0.312500
v -0.312500 1.250000 0.312500
v -0.312500 1.250000 -0.312500
v 0.312500 1.375000 0.312500
v 0.312500 1.375000 -0.312500
v 0.312500 1.250000 -0.312500
v 0.312500 1.250000 0.312500
v -0.312500 1.375000 -0.312500
v 0.312500 1.375000 -0.312500
v 0.312500 1.375000 0.312500
v -0.312500 1.375000 0.312500
v -0.312500 1.250000 0.312500
v 0.312500 1.250000 0.312500
v 0.312500 1.250000 -0.312500
v -0.312500 1.250000 -0.312500
v 0.312500 4.250000 -0.312500
v -0.312500 4.250000 -0.312500
v -0.312500 4.125000 -0.312500
v 0.312500 4.125000 -0.312500
v -0.312500 4.250000 0.312500
v 0.312500 4.250000 0.312500
v 0.312500 4.125000 0.312500
v -0.312500 4.125000 0.312500
v -0.312500 4.250000 -0.312500
v -0.312500 4.250000 0.312500
v -0.312500 4.125000 0.312500
v -0.312500 4.125000 -0.312500
v 0.312500 4.250000 0.312500
v 0.312500 4.250000 -0.312500
v 0.312500 4.125000 -0.312500
v 0.312500 4.125000 0.312500
v -0.312500 4.250000 -0.312500
v 0.312500 4.250000 -0.312500
v 0.312500 4.250000 0.312500
v -0.312500 4.250000 0.312500
v -0.312500 4.125000 0.312500
v 0.312500 4.125000 0.312500
v 0.312500 4.125000 -0.312500
v -0.312500 4.125000 -0.312500
v 0.625000 1.187500 -0.625000
v -0.625000 1.187500 -0.625000
v -0.625000 1.000000 -0.625000
v 0.625000 1.000000 -0.625000
v -0.625000 1.187500 -0.406250
v 0.625000 1.187500 -0.406250
v 0.625000 1.000000 -0.406250
v -0.625000 1.000000 -0.406250
v -0.625000 1.187500 -0.625000
v -0.625000 1.187500 -0.406250
v -0.625000 1.000000 -0.406250
v -0.625000 1.000000 -0.625000
v 0.625000 1.187500 -0.406250
v 0.625000 1.187500 -0.625000
v 0.625000 1.000000 -0.625000
v 0.625000 1.000000 -0.406250
v -0.625000 1.187500 -0.625000
v 0.625000 1.187500 -0.625000
v 0.625000 1.187500 -0.406250
v -0.625000 1.187500 -0.406250
v -0.625000 1.000000 -0.406250
v 0.625000 1.000000 -0.406250
v 0.625000 1.000000 -0.625000
v -0.625000 1.000000 -0.625000
v 0.625000 1.187500 0.406250
v -0.625000 1.187500 0.406250
v -0.625000 1.000000 0.406250
v 0.625000 1.000000 0.406250
v -0.625000 1.187500 0.625000
v 0.625000 1.187500 0.625000
v 0.625000 1.000000 0.625000
v -0.625000 1.000000 0.625000
v -0.625000 1.187500 0.406250
v -0.625000 1.187500 0.625000
v -0.625000 1.000000 0.625000
v -0.625000 1.000000 0.406250
v 0.625000 1.187500 0.625000
v 0.625000 1.187500 0.406250
v 0.625000 1.000000 0.406250
v 0.625000 1.000000 0.625000
v -0.625000 1.187500 0.406250
v 0.625000 1.187500 0.406250
v 0.625000 1.187500 0.625000
v -0.625000 1.187500 0.625000
v -0.625000 1.000000 0.625000
v 0.625000 1.000000 0.625000
v 0.625000 1.000000 0.406250
v -0.625000 1.000000 0.406250
v -0.625000 1.187500 -0.406250
v -0.625000 1.187500 0.406250
v -0.625000 1.000000 0.406250
v -0.625000 1.000000 -0.406250
v -0.406250 1.187500 0.406250
v -0.406250 1.187500 -0.406250
v -0.406250 1.000000 -0.406250
v -0.406250 1.000000 0.406250
v -0.625000 1.187500 -0.406250
v -0.406250 1.187500 -0.406250
v -0.406250 1.187500 0.406250
v -0.625000 1.187500 0.406250
v -0.625000 1.000000 0.406250
v -0.406250 1.000000 0.406250
v -0.406250 1.000000 -0.406250
v -0.625000 1.000000 -0.406250
v 0.406250 1.187500 -0.406250
v 0.406250 1.187500 0.406250
v 0.406250 1.000000 0.406250
v 0.406250 1.000000 -0.406250
v 0.625000 1.187500 0.406250
v 0.625000 1.187500 -0.406250
v 0.625000 1.000000 -0.406250
v 0.625000 1.000000 0.406250
v 0.406250 1.187500 -0.406250
v 0.625000 1.187500 -0.406250
v 0.625000 1.187500 0.406250
v 0.406250 1.187500 0.406250
v 0.406250 1.000000 0.406250
v 0.625000 1.000000 0.406250
v 0.625000 1.000000 -0.406250
v 0.406250 1.000000 -0.406250
v 0.625000 4.500000 -0.625000
v -0.625000 4.500000 -0.625000
v -0.625000 4.312500 -0.625000
v 0.625000 4.312500 -0.625000
v -0.625000 4.500000 -0.406250
v 0.625000 4.500000 -0.406250
v 0.625000 4.312500 -0.406250
v -0.625000 4.312500 -0.406250
v -0.625000 4.500000 -0.625000
v -0.625000 4.500000 -0.406250
v -0.625000 4.312500 -0.406250
v -0.625000 4.312500 -0.625000
v 0.625000 4.500000 -0.406250
v 0.625000 4.500000 -0.625000
v 0.625000 4.312500 -0.625000
v 0.625000 4.312500 -0.406250
v -0.625000 4.500000 -0.625000
v 0.625000 4.500000 -0.625000
v 0.625000 4.500000 -0.406250
v -0.625000 4.500000 -0.406250
v -0.625000 4.312500 -0.406250
v 0.625000 4.312500 -0.406250
v 0.625000 4.312500 -0.625000
v -0.625000 4.312500 -0.625000
v 0.625000 4.500000 0.406250
v -0.625000 4.500000 0.406250
v -0.625000 4.312500 0.406250
v 0.625000 4.312500 0.406250
v -0.625000 4.500000 0.625000
v 0.625000 4.500000 0.625000
v 0.625000 4.312500 0.625000
v -0.625000 4.312500 0.625000
v -0.625000 4.500000 0.406250
v -0.625000 4.500000 0.625000
v -0.625000 4.312500 0.625000
v -0.625000 4.312500 0.406250
v 0.625000 4.500000 0.625000
v 0.625000 4.500000 0.406250
v 0.625000 4.312500 0.406250
v 0.625000 4.312500 0.625000
v -0.625000 4.500000 0.406250
v 0.625000 4.500000 0.406250
v 0.625000 4.500000 0.625000
v -0.625000 4.500000 0.625000
v -0.625000 4.312500 0.625000
v 0.625000 4.312500 0.625000
v 0.625000 4.312500 0.406250
v -0.625000 4.312500 0.406250
v -0.625000 4.500000 -0.406250
v -0.625000 4.500000 0.406250
v -0.625000 4.312500 0.406250
v -0.625000 4.312500 -0.406250
v -0.406250 4.500000 0.406250
v -0.406250 4.500000 -0.406250
v -0.406250 4.312500 -0.406250
v -0.406250 4.312500 0.406250
v -0.625000 4.500000 -0.406250
v -0.406250 4.500000 -0.406250
v -0.406250 4.500000 0.406250
v -0.625000 4.500000 0.406250
v -0.625000 4.312500 0.406250
v -0.406250 4.312500 0.406250
v -0.406250 4.312500 -0.406250
v -0.625000 4.312500 -0.406250
v 0.406250 4.500000 -0.406250
v 0.406250 4.500000 0.406250
v 0.406250 4.312500 0.406250
v 0.406250 4.312500 -0.406250
v 0.625000 4.500000 0.406250
v 0.625000 4.500000 -0.406250
v 0.625000 4.312500 -0.406250
v 0.625000 4.312500 0.406250
v 0.406250 4.500000 -0.406250
v 0.625000 4.500000 -0.406250
v 0.625000 4.500000 0.406250
v 0.406250 4.500000 0.406250
v 0.406250 4.312500 0.406250
v 0.625000 4.312500 0.406250
v 0.625000 4.312500 -0.406250
v 0.406250 4.312500 -0.406250
v -0.406250 4.312500 -0.625000
v -0.625000 4.312500 -0.625000
v -0.625000 1.187500 -0.625000
v -0.406250 1.187500 -0.625000
v -0.625000 4.312500 -0.406250
v -0.406250 4.312500 -0.406250
v -0.406250 1.187500 -0.406250
v -0.625000 1.187500 -0.406250
v -0.625000 4.312500 -0.625000
v -0.625000 4.312500 -0.406250
v -0.625000 1.187500 -0.406250
v -0.625000 1.187500 -0.625000
v -0.406250 4.312500 -0.406250
v -0.406250 4.312500 -0.625000
v -0.406250 1.187500 -0.625000
v -0.406250 1.187500 -0.406250
v 0.625000 4.312500 -0.625000
v 0.406250 4.312500 -0.625000
v 0.406250 1.187500 -0.625000
v 0.625000 1.187500 -0.625000
v 0.406250 4.312500 -0.406250
v 0.625000 4.312500 -0.406250
v 0.625000 1.187500 -0.406250
v 0.406250 1.187500 -0.406250
v 0.406250 4.312500 -0.625000
v 0.406250 4.312500 -0.406250
v 0.406250 1.187500 -0.406250
v 0.406250 1.187500 -0.625000
v 0.625000 4.312500 -0.406250
v 0.625000 4.312500 -0.625000
v 0.625000 1.187500 -0.625000
v 0.625000 1.187500 -0.406250
v -0.406250 4.312500 0.406250
v -0.625000 4.312500 0.406250
v -0.625000 1.187500 0.406250
v -0.406250 1.187500 0.406250
v -0.625000 4.312500 0.625000
v -0.406250 4.312500 0.625000
v -0.406250 1.187500 0.625000
v -0.625000 1.187500 0.625000
v -0.625000 4.312500 0.406250
v -0.625000 4.312500 0.625000
v -0.625000 1.187500 0.625000
v -0.625000 1.187500 0.406250
v -0.406250 4.312500 0.625000
v -0.406250 4.312500 0.406250
v -0.406250 1.187500 0.406250
v -0.406250 1.187500 0.625000
v 0.625000 4.312500 0.406250
v 0.406250 4.312500 0.406250
v 0.406250 1.187500 0.406250
v 0.625000 1.187500 0.406250
v 0.406250 4.312500 0.625000
v 0.625000 4.312500 0.625000
v 0.625000 1.187500 0.625000
v 0.406250 1.187500 0.625000
v 0.406250 4.312500 0.406250
v 0.406250 4.312500 0.625000
v 0.406250 1.187500 0.625000
v 0.406250 1.187500 0.406250
v 0.625000 4.312500 0.625000
v 0.625000 4.312500 0.406250
v 0.625000 1.187500 0.406250
v 0.625000 1.187500 0.625000
v 1.500000 0.125000 -1.500000
v 0.500000 0.125000 -1.500000
v 0.500000 0.000000 -1.500000
v 1.500000 0.000000 -1.500000
v 0.500000 0.125000 1.500000
v 1.500000 0.125000 1.500000
v 1.500000 0.000000 1.500000
v 0.500000 0.000000 1.500000
v 0.500000 0.125000 -1.500000
v 0.500000 0.125000 1.500000
v 0.500000 0.000000 1.500000
v 0.500000 0.000000 -1.500000
v 1.500000 0.125000 1.500000
v 1.500000 0.125000 -1.500000
v 1.500000 0.000000 -1.500000
v 1.500000 0.000000 1.500000
v 0.500000 0.125000 -1.500000
v 1.500000 0.125000 -1.500000
v 1.500000 0.125000 1.500000
v 0.500000 0.125000 1.500000
v 1.437500 0.875000 -1.437500
v 0.562500 0.875000 -1.437500
v 0.562500 0.125000 -1.437500
v 1.437500 0.125000 -1.437500
v 0.562500 0.875000 1.437500
v 1.437500 0.875000 1.437500
v 1.437500 0.125000 1.437500
v 0.562500 0.125000 1.437500
v 0.562500 0.875000 -1.437500
v 0.562500 0.875000 1.437500
v 0.562500 0.125000 1.437500
v 0.562500 0.125000 -1.437500
v 1.437500 0.875000 1.437500
v 1.437500 0.875000 -1.437500
v 1.437500 0.125000 -1.437500
v 1.437500 0.125000 1.437500
v 0.562500 0.875000 -1.437500
v 1.437500 0.875000 -1.437500
v 1.437500 0.875000 1.437500
v 0.562500 0.875000 1.437500
v 0.562500 0.125000 1.437500
v 1.437500 0.125000 1.437500
v 1.437500 0.125000 -1.437500
v 0.562500 0.125000 -1.437500
v 1.500000 1.000000 -1.500000
v 0.500000 1.000000 -1.500000
v 0.500000 0.875000 -1.500000
v 1.500000 0.875000 -1.500000
v 0.500000 1.000000 1.500000
v 1.500000 1.000000 1.500000
v 1.500000 0.875000 1.500000
v 0.500000 0.875000 1.500000
v 0.500000 1.000000 -1.500000
v 0.500000 1.000000 1.500000
v 0.500000 0.875000 1.500000
v 0.500000 0.875000 -1.500000
v 1.500000 1.000000 1.500000
v 1.500000 1.000000 -1.500000
v 1.500000 0.875000 -1.500000
v 1.500000 0.875000 1.500000
v 0.500000 1.000000 -1.500000
v 1.500000 1.000000 -1.500000
v 1.500000 1.000000 1.500000
v 0.500000 1.000000 1.500000
v 0.500000 0.875000 1.500000
v 1.500000 0.875000 1.500000
v 1.500000 0.875000 -1.500000
v 0.500000 0.875000 -1.500000
v 0.625000 0.875000 -1.500000
v 0.500000 0.875000 -1.500000
v 0.500000 0.125000 -1.500000
v 0.625000 0.125000 -1.500000
v 0.500000 0.875000 -1.375000
v 0.625000 0.875000 -1.375000
v 0.625000 0.125000 -1.375000
v 0.500000 0.125000 -1.375000
v 0.500000 0.875000 -1.500000
v 0.500000 0.875000 -1.375000
v 0.500000 0.125000 -1.375000
v 0.500000 0.125000 -1.500000
v 0.625000 0.875000 -1.375000
v 0.625000 0.875000 -1.500000
v 0.625000 0.125000 -1.500000
v 0.625000 0.125000 -1.375000
v 0.500000 0.875000 -1.500000
v 0.625000 0.875000 -1.500000
v 0.625000 0.875000 -1.375000
v 0.500000 0.875000 -1.375000
v 0.500000 0.125000 -1.375000
v 0.625000 0.125000 -1.375000
v 0.625000 0.125000 -1.500000
v 0.500000 0.125000 -1.500000
v 1.500000 0.875000 -1.500000
v 1.375000 0.875000 -1.500000
v 1.375000 0.125000 -1.500000
v 1.500000 0.125000 -1.500000
v 1.375000 0.875000 -1.375000
v 1.500000 0.875000 -1.375000
v 1.500000 0.125000 -1.375000
v 1.375000 0.125000 -1.375000
v 1.375000 0.875000 -1.500000
v 1.375000 0.875000 -1.375000
v 1.375000 0.125000 -1.375000
v 1.375000 0.125000 -1.500000
v 1.500000 0.875000 -1.375000
v 1.500000 0.875000 -1.500000
v 1.500000 0.125000 -1.500000
v 1.500000 0.125000 -1.375000
v 1.375000 0.875000 -1.500000
v 1.500000 0.875000 -1.500000
v 1.500000 0.875000 -1.375000
v 1.375000 0.875000 -1.375000
v 1.375000 0.125000 -1.375000
v 1.500000 0.125000 -1.375000
v 1.500000 0.125000 -1.500000
v 1.375000 0.125000 -1.500000
v 0.625000 0.875000 1.375000
v 0.500000 0.875000 1.375000
v 0.500000 0.125000 1.375000
v 0.625000 0.125000 1.375000
v 0.500000 0.875000 1.500000
v 0.625000 0.875000 1.500000
v 0.625000 0.125000 1.500000
v 0.500000 0.125000 1.500000
v 0.500000 0.875000 1.375000
v 0.500000 0.875000 1.500000
v 0.500000 0.125000 1.500000
v 0.500000 0.125000 1.375000
v 0.625000 0.875000 1.500000
v 0.625000 0.875000 1.375000
v 0.625000 0.125000 1.375000
v 0.625000 0.125000 1.500000
v 0.500000 0.875000 1.375000
v 0.625000 0.875000 1.375000
v 0.625000 0.875000 1.500000
v 0.500000 0.875000 1.500000
v 0.500000 0.125000 1.500000
v 0.625000 0.125000 1.500000
v 0.625000 0.125000 1.375000
v 0.500000 0.125000 1.375000
v 1.500000 0.875000 1.375000
v 1.375000 0.875000 1.375000
v 1.375000 0.125000 1.375000
v 1.500000 0.125000 1.375000
v 1.375000 0.875000 1.500000
v 1.500000 0.875000 1.500000
v 1.500000 0.125000 1.500000
v 1.375000 0.125000 1.500000
v 1.375000 0.875000 1.375000
v 1.375000 0.875000 1.500000
v 1.375000 0.125000 1.500000
v 1.375000 0.125000 1.375000
v 1.500000 0.875000 1.500000
v 1.500000 0.875000 1.375000
v 1.500000 0.125000 1.375000
v 1.500000 0.125000 1.500000
v 1.375000 0.875000 1.375000
v 1.500000 0.875000 1.375000
v 1.500000 0.875000 1.500000
v 1.375000 0.875000 1.500000
v 1.375000 0.125000 1.500000
v 1.500000 0.125000 1.500000
v 1.500000 0.125000 1.375000
v 1.375000 0.125000 1.375000
v 0.500000 0.125000 -0.687500
v -0.500000 0.125000 -0.687500
v -0.500000 0.000000 -0.687500
v 0.500000 0.000000 -0.687500
v -0.500000 0.125000 0.687500
v 0.500000 0.125000 0.687500
v 0.500000 0.000000 0.687500
v -0.500000 0.000000 0.687500
v -0.500000 0.125000 -0.687500
v -0.500000 0.125000 0.687500
v -0.500000 0.000000 0.687500
v -0.500000 0.000000 -0.687500
v -0.500000 0.125000 -0.687500
v 0.500000 0.125000 -0.687500
v 0.500000 0.125000 0.687500
v -0.500000 0.125000 0.687500
v 0.562500 0.875000 -0.625000
v -0.437500 0.875000 -0.625000
v -0.437500 0.125000 -0.625000
v 0.562500 0.125000 -0.625000
v -0.437500 0.875000 0.625000
v 0.562500 0.875000 0.625000
v 0.562500 0.125000 0.625000
v -0.437500 0.125000 0.625000
v -0.437500 0.875000 -0.625000
v -0.437500 0.875000 0.625000
v -0.437500 0.125000 0.625000
v -0.437500 0.125000 -0.625000
v -0.437500 0.875000 -0.625000
v 0.562500 0.875000 -0.625000
v 0.562500 0.875000 0.625000
v -0.437500 0.875000 0.625000
v -0.437500 0.125000 0.625000
v 0.562500 0.125000 0.625000
v 0.562500 0.125000 -0.625000
v -0.437500 0.125000 -0.625000
v 0.500000 1.000000 -0.687500
v -0.500000 1.000000 -0.687500
v -0.500000 0.875000 -0.687500
v 0.500000 0.875000 -0.687500
v -0.500000 1.000000 0.687500
v 0.500000 1.000000 0.687500
v 0.500000 0.875000 0.687500
v -0.500000 0.875000 0.687500
v -0.500000 1.000000 -0.687500
v -0.500000 1.000000 0.687500
v -0.500000 0.875000 0.687500
v -0.500000 0.875000 -0.687500
v -0.500000 1.000000 -0.687500
v 0.500000 1.000000 -0.687500
v 0.500000 1.000000 0.687500
v -0.500000 1.000000 0.687500
v -0.500000 0.875000 0.687500
v 0.500000 0.875000 0.687500
v 0.500000 0.875000 -0.687500
v -0.500000 0.875000 -0.687500
v -0.375000 0.875000 -0.687500
v -0.500000 0.875000 -0.687500
v -0.500000 0.125000 -0.687500
v -0.375000 0.125000 -0.687500
v -0.500000 0.875000 -0.562500
v -0.375000 0.875000 -0.562500
v -0.375000 0.125000 -0.562500
v -0.500000 0.125000 -0.562500
v -0.500000 0.875000 -0.687500
v -0.500000 0.875000 -0.562500
v -0.500000 0.125000 -0.562500
v -0.500000 0.125000 -0.687500
v -0.375000 0.875000 -0.562500
v -0.375000 0.875000 -0.687500
v -0.375000 0.125000 -0.687500
v -0.375000 0.125000 -0.562500
v -0.500000 0.875000 -0.687500
v -0.375000 0.875000 -0.687500
v -0.375000 0.875000 -0.562500
v -0.500000 0.875000 -0.562500
v -0.500000 0.125000 -0.562500
v -0.375000 0.125000 -0.562500
v -0.375000 0.125000 -0.687500
v -0.500000 0.125000 -0.687500
v -0.375000 0.875000 0.562500
v -0.500000 0.875000 0.562500
v -0.500000 0.125000 0.562500
v -0.375000 0.125000 0.562500
v -0.500000 0.875000 0.687500
v -0.375000 0.875000 0.687500
v -0.375000 0.125000 0.687500
v -0.500000 0.125000 0.687500
v -0.500000 0.875000 0.562500
v -0.500000 0.875000 0.687500
v -0.500000 0.125000 0.687500
v -0.500000 0.125000 0.562500
v -0.375000 0.875000 0.687500
v -0.375000 0.875000 0.562500
v -0.375000 0.125000 0.562500
v -0.375000 0.125000 0.687500
v -0.500000 0.875000 0.562500
v -0.375000 0.875000 0.562500
v -0.375000 0.875000 0.687500
v -0.500000 0.875000 0.687500
v -0.500000 0.125000 0.687500
v -0.375000 0.125000 0.687500
v -0.375000 0.125000 0.562500
v -0.500000 0.125000 0.562500
v 2.500000 0.125000 -0.687500
v 1.500000 0.125000 -0.687500
v 1.500000 0.000000 -0.687500
v 2.500000 0.000000 -0.687500
v 1.500000 0.125000 0.687500
v 2.500000 0.125000 0.687500
v 2.500000 0.000000 0.687500
v 1.500000 0.000000 0.687500
v 2.500000 0.125000 0.687500
v 2.500000 0.125000 -0.687500
v 2.500000 0.000000 -0.687500
v 2.500000 0.000000 0.687500
v 1.500000 0.125000 -0.687500
v 2.500000 0.125000 -0.687500
v 2.500000 0.125000 0.687500
v 1.500000 0.125000 0.687500
v 2.437500 0.875000 -0.625000
v 1.437500 0.875000 -0.625000
v 1.437500 0.125000 -0.625000
v 2.437500 0.125000 -0.625000
v 1.437500 0.875000 0.625000
v 2.437500 0.875000 0.625000
v 2.437500 0.125000 0.625000
v 1.437500 0.125000 0.625000
v 2.437500 0.875000 0.625000
v 2.437500 0.875000 -0.625000
v 2.437500 0.125000 -0.625000
v 2.437500 0.125000 0.625000
v 1.437500 0.875000 -0.625000
v 2.437500 0.875000 -0.625000
v 2.437500 0.875000 0.625000
v 1.437500 0.875000 0.625000
v 1.437500 0.125000 0.625000
v 2.437500 0.125000 0.625000
v 2.437500 0.125000 -0.625000
v 1.437500 0.125000 -0.625000
v 2.500000 1.000000 -0.687500
v 1.500000 1.000000 -0.687500
v 1.500000 0.875000 -0.687500
v 2.500000 0.875000 -0.687500
v 1.500000 1.000000 0.687500
v 2.500000 1.000000 0.687500
v 2.500000 0.875000 0.687500
v 1.500000 0.875000 0.687500
v 2.500000 1.000000 0.687500
v 2.500000 1.000000 -0.687500
v 2.500000 0.875000 -0.687500
v 2.500000 0.875000 0.687500
v 1.500000 1.000000 -0.687500
v 2.500000 1.000000 -0.687500
v 2.500000 1.000000 0.687500
v 1.500000 1.000000 0.687500
v 1.500000 0.875000 0.687500
v 2.500000 0.875000 0.687500
v 2.500000 0.875000 -0.687500
v 1.500000 0.875000 -0.687500
v 2.500000 0.875000 -0.687500
v 2.375000 0.875000 -0.687500
v 2.375000 0.125000 -0.687500
v 2.500000 0.125000 -0.687500
v 2.375000 0.875000 -0.562500
v 2.500000 0.875000 -0.562500
v 2.500000 0.125000 -0.562500
v 2.375000 0.125000 -0.562500
v 2.375000 0.875000 -0.687500
v 2.375000 0.875000 -0.562500
v 2.375000 0.125000 -0.562500
v 2.375000 0.125000 -0.687500
v 2.500000 0.875000 -0.562500
v 2.500000 0.875000 -0.687500
v 2.500000 0.125000 -0.687500
v 2.500000 0.125000 -0.562500
v 2.375000 0.875000 -0.687500
v 2.500000 0.875000 -0.687500
v 2.500000 0.875000 -0.562500
v 2.375000 0.875000 -0.562500
v 2.375000 0.125000 -0.562500
v 2.500000 0.125000 -0.562500
v 2.500000 0.125000 -0.687500
v 2.375000 0.125000 -0.687500
v 2.500000 0.875000 0.562500
v 2.375000 0.875000 0.562500
v 2.375000 0.125000 0.562500
v 2.500000 0.125000 0.562500
v 2.375000 0.875000 0.687500
v 2.500000 0.875000 0.687500
v 2.500000 0.125000 0.687500
v 2.375000 0.125000 0.687500
v 2.375000 0.875000 0.562500
v 2.375000 0.875000 0.687500
v 2.375000 0.125000 0.687500
v 2.375000 0.125000 0.562500
v 2.500000 0.875000 0.687500
v 2.500000 0.875000 0.562500
v 2.500000 0.125000 0.562500
v 2.500000 0.125000 0.687500
v 2.375000 0.875000 0.562500
v 2.500000 0.875000 0.562500
v 2.500000 0.875000 0.687500
v 2.375000 0.875000 0.687500
v 2.375000 0.125000 0.687500
v 2.500000 0.125000 0.687500
v 2.500000 0.125000 0.562500
v 2.375000 0.125000 0.562500
v 1.187500 0.750000 -1.531250
v 0.812500 0.750000 -1.531250
v 0.812500 0.625000 -1.531250
v 1.187500 0.625000 -1.531250
v 0.812500 0.750000 -1.531250
v 0.812500 0.750000 -1.500000
v 0.812500 0.625000 -1.500000
v 0.812500 0.625000 -1.531250
v 1.187500 0.750000 -1.500000
v 1.187500 0.750000 -1.531250
v 1.187500 0.625000 -1.531250
v 1.187500 0.625000 -1.500000
v 0.812500 0.750000 -1.531250
v 1.187500 0.750000 -1.531250
v 1.187500 0.750000 -1.500000
v 0.812500 0.750000 -1.500000
v 0.812500 0.625000 -1.500000
v 1.187500 0.625000 -1.500000
v 1.187500 0.625000 -1.531250
v 0.812500 0.625000 -1.531250
v 1.312500 1.250000 -0.312500
v 0.687500 1.250000 -0.312500
v 0.687500 1.000000 -0.312500
v 1.312500 1.000000 -0.312500
v 0.687500 1.250000 0.312500
v 1.312500 1.250000 0.312500
v 1.312500 1.000000 0.312500
v 0.687500 1.000000 0.312500
v 0.687500 1.250000 -0.312500
v 0.687500 1.250000 0.312500
v 0.687500 1.000000 0.312500
v 0.687500 1.000000 -0.312500
v 1.312500 1.250000 0.312500
v 1.312500 1.250000 -0.312500
v 1.312500 1.000000 -0.312500
v 1.312500 1.000000 0.312500
v 0.687500 1.250000 -0.312500
v 1.312500 1.250000 -0.312500
v 1.312500 1.250000 0.312500
v 0.687500 1.250000 0.312500
v 1.218750 3.875000 -0.218750
v 0.781250 3.875000 -0.218750
v 0.781250 1.250000 -0.218750
v 1.218750 1.250000 -0.218750
v 0.781250 3.875000 0.218750
v 1.218750 3.875000 0.218750
v 1.218750 1.250000 0.218750
v 0.781250 1.250000 0.218750
v 0.781250 3.875000 -0.218750
v 0.781250 3.875000 0.218750
v 0.781250 1.250000 0.218750
v 0.781250 1.250000 -0.218750
v 1.218750 3.875000 0.218750
v 1.218750 3.875000 -0.218750
v 1.218750 1.250000 -0.218750
v 1.218750 1.250000 0.218750
v 1.281250 2.250000 -0.281250
v 0.718750 2.250000 -0.281250
v 0.718750 2.125000 -0.281250
v 1.281250 2.125000 -0.281250
v 0.718750 2.250000 0.281250
v 1.281250 2.250000 0.281250
v 1.281250 2.125000 0.281250
v 0.718750 2.125000 0.281250
v 0.718750 2.250000 -0.281250
v 0.718750 2.250000 0.281250
v 0.718750 2.125000 0.281250
v 0.718750 2.125000 -0.281250
v 1.281250 2.250000 0.281250
v 1.281250 2.250000 -0.281250
v 1.281250 2.125000 -0.281250
v 1.281250 2.125000 0.281250
v 0.718750 2.250000 -0.281250
v 1.281250 2.250000 -0.281250
v 1.281250 2.250000 0.281250
v 0.718750 2.250000 0.281250
v 0.718750 2.125000 0.281250
v 1.281250 2.125000 0.281250
v 1.281250 2.125000 -0.281250
v 0.718750 2.125000 -0.281250
v 1.281250 3.125000 -0.281250
v 0.718750 3.125000 -0.281250
v 0.718750 3.000000 -0.281250
v 1.281250 3.000000 -0.281250
v 0.718750 3.125000 0.281250
v 1.281250 3.125000 0.281250
v 1.281250 3.000000 0.281250
v 0.718750 3.000000 0.281250
v 0.718750 3.125000 -0.281250
v 0.718750 3.125000 0.281250
v 0.718750 3.000000 0.281250
v 0.718750 3.000000 -0.281250
v 1.281250 3.125000 0.281250
v 1.281250 3.125000 -0.281250
v 1.281250 3.000000 -0.281250
v 1.281250 3.000000 0.281250
v 0.718750 3.125000 -0.281250
v 1.281250 3.125000 -0.281250
v 1.281250 3.125000 0.281250
v 0.718750 3.125000 0.281250
v 0.718750 3.000000 0.281250
v 1.281250 3.000000 0.281250
v 1.281250 3.000000 -0.281250
v 0.718750 3.000000 -0.281250
v 1.343750 4.062500 -0.343750
v 0.656250 4.062500 -0.343750
v 0.656250 3.875000 -0.343750
v 1.343750 3.875000 -0.343750
v 0.656250 4.062500 0.343750
v 1.343750 4.062500 0.343750
v 1.343750 3.875000 0.343750
v 0.656250 3.875000 0.343750
v 0.656250 4.062500 -0.343750
v 0.656250 4.062500 0.343750
v 0.656250 3.875000 0.343750
v 0.656250 3.875000 -0.343750
v 1.343750 4.062500 0.343750
v 1.343750 4.062500 -0.343750
v 1.343750 3.875000 -0.343750
v 1.343750 3.875000 0.343750
v 0.656250 4.062500 -0.343750
v 1.343750 4.062500 -0.343750
v 1.343750 4.062500 0.343750
v 0.656250 4.062500 0.343750
v 0.656250 3.875000 0.343750
v 1.343750 3.875000 0.343750
v 1.343750 3.875000 -0.343750
v 0.656250 3.875000 -0.343750
v 1.281250 4.812500 -0.281250
v 0.718750 4.812500 -0.281250
v 0.718750 4.062500 -0.281250
v 1.281250 4.062500 -0.281250
v 0.718750 4.812500 0.281250
v 1.281250 4.812500 0.281250
v 1.281250 4.062500 0.281250
v 0.718750 4.062500 0.281250
v 0.718750 4.812500 -0.281250
v 0.718750 4.812500 0.281250
v 0.718750 4.062500 0.281250
v 0.718750 4.062500 -0.281250
v 1.281250 4.812500 0.281250
v 1.281250 4.812500 -0.281250
v 1.281250 4.062500 -0.281250
v 1.281250 4.062500 0.281250
v 0.781250 4.812500 -0.343750
v 0.656250 4.812500 -0.343750
v 0.656250 4.062500 -0.343750
v 0.781250 4.062500 -0.343750
v 0.656250 4.812500 -0.218750
v 0.781250 4.812500 -0.218750
v 0.781250 4.062500 -0.218750
v 0.656250 4.062500 -0.218750
v 0.656250 4.812500 -0.343750
v 0.656250 4.812500 -0.218750
v 0.656250 4.062500 -0.218750
v 0.656250 4.062500 -0.343750
v 0.781250 4.812500 -0.218750
v 0.781250 4.812500 -0.343750
v 0.781250 4.062500 -0.343750
v 0.781250 4.062500 -0.218750
v 1.343750 4.812500 -0.343750
v 1.218750 4.812500 -0.343750
v 1.218750 4.062500 -0.343750
v 1.343750 4.062500 -0.343750
v 1.218750 4.812500 -0.218750
v 1.343750 4.812500 -0.218750
v 1.343750 4.062500 -0.218750
v 1.218750 4.062500 -0.218750
v 1.218750 4.812500 -0.343750
v 1.218750 4.812500 -0.218750
v 1.218750 4.062500 -0.218750
v 1.218750 4.062500 -0.343750
v 1.343750 4.812500 -0.218750
v 1.343750 4.812500 -0.343750
v 1.343750 4.062500 -0.343750
v 1.343750 4.062500 -0.218750
v 0.781250 4.812500 0.218750
v 0.656250 4.812500 0.218750
v 0.656250 4.062500 0.218750
v 0.781250 4.062500 0.218750
v 0.656250 4.812500 0.343750
v 0.781250 4.812500 0.343750
v 0.781250 4.062500 0.343750
v 0.656250 4.062500 0.343750
v 0.656250 4.812500 0.218750
v 0.656250 4.812500 0.343750
v 0.656250 4.062500 0.343750
v 0.656250 4.062500 0.218750
v 0.781250 4.812500 0.343750
v 0.781250 4.812500 0.218750
v 0.781250 4.062500 0.218750
v 0.781250 4.062500 0.343750
v 1.343750 4.812500 0.218750
v 1.218750 4.812500 0.218750
v 1.218750 4.062500 0.218750
v 1.343750 4.062500 0.218750
v 1.218750 4.812500 0.343750
v 1.343750 4.812500 0.343750
v 1.343750 4.062500 0.343750
v 1.218750 4.062500 0.343750
v 1.218750 4.812500 0.218750
v 1.218750 4.812500 0.343750
v 1.218750 4.062500 0.343750
v 1.218750 4.062500 0.218750
v 1.343750 4.812500 0.343750
v 1.343750 4.812500 0.218750
v 1.343750 4.062500 0.218750
v 1.343750 4.062500 0.343750
v 1.343750 5.000000 -0.343750
v 0.656250 5.000000 -0.343750
v 0.656250 4.812500 -0.343750
v 1.343750 4.812500 -0.343750
v 0.656250 5.000000 0.343750
v 1.343750 5.000000 0.343750
v 1.343750 4.812500 0.343750
v 0.656250 4.812500 0.343750
v 0.656250 5.000000 -0.343750
v 0.656250 5.000000 0.343750
v 0.656250 4.812500 0.343750
v 0.656250 4.812500 -0.343750
v 1.343750 5.000000 0.343750
v 1.343750 5.000000 -0.343750
v 1.343750 4.812500 -0.343750
v 1.343750 4.812500 0.343750
v 0.656250 5.000000 -0.343750
v 1.343750 5.000000 -0.343750
v 1.343750 5.000000 0.343750
v 0.656250 5.000000 0.343750
v 0.656250 4.812500 0.343750
v 1.343750 4.812500 0.343750
v 1.343750 4.812500 -0.343750
v 0.656250 4.812500 -0.343750
v -0.062500 4.004000 -0.437500
v -0.062500 4.004000 0.437500
v 0.062500 4.004000 0.437500
v 0.062500 4.004000 -0.437500
v -0.062500 1.496000 0.437500
v -0.062500 1.496000 -0.437500
v 0.062500 1.496000 -0.437500
v 0.062500 1.496000 0.437500
v 0.500000 0.879000 -1.500000
v 0.500000 0.879000 -1.375000
v 0.625000 0.879000 -1.375000
v 0.625000 0.879000 -1.500000
v 1.375000 0.879000 -1.500000
v 1.375000 0.879000 -1.375000
v 1.500000 0.879000 -1.375000
v 1.500000 0.879000 -1.500000
v 0.500000 0.879000 1.375000
v 0.500000 0.879000 1.500000
v 0.625000 0.879000 1.500000
v 0.625000 0.879000 1.375000
v 1.375000 0.879000 1.375000
v 1.375000 0.879000 1.500000
v 1.500000 0.879000 1.500000
v 1.500000 0.879000 1.375000
v -0.500000 0.879000 -0.687500
v -0.500000 0.879000 -0.562500
v -0.375000 0.879000 -0.562500
v -0.375000 0.879000 -0.687500
v -0.500000 0.879000 0.562500
v -0.500000 0.879000 0.687500
v -0.375000 0.879000 0.687500
v -0.375000 0.879000 0.562500
v 2.375000 0.879000 -0.687500
v 2.375000 0.879000 -0.562500
v 2.500000 0.879000 -0.562500
v 2.500000 0.879000 -0.687500
v 2.375000 0.879000 0.562500
v 2.375000 0.879000 0.687500
v 2.500000 0.879000 0.687500
v 2.500000 0.879000 0.562500
v 0.500000 0.121000 -1.375000
v 0.500000 0.121000 -1.500000
v 0.625000 0.121000 -1.500000
v 0.625000 0.121000 -1.375000
v 1.375000 0.121000 -1.375000
v 1.375000 0.121000 -1.500000
v 1.500000 0.121000 -1.500000
v 1.500000 0.121000 -1.375000
v 0.500000 0.121000 1.500000
v 0.500000 0.121000 1.375000
v 0.625000 0.121000 1.375000
v 0.625000 0.121000 1.500000
v 1.375000 0.121000 1.500000
v 1.375000 0.121000 1.375000
v 1.500000 0.121000 1.375000
v 1.500000 0.121000 1.500000
v -0.500000 0.121000 -0.562500
v -0.500000 0.121000 -0.687500
v -0.375000 0.121000 -0.687500
v -0.375000 0.121000 -0.562500
v -0.500000 0.121000 0.687500
v -0.500000 0.121000 0.562500
v -0.375000 0.121000 0.562500
v -0.375000 0.121000 0.687500
v 2.375000 0.121000 -0.562500
v 2.375000 0.121000 -0.687500
v 2.500000 0.121000 -0.687500
v 2.500000 0.121000 -0.562500
v 2.375000 0.121000 0.687500
v 2.375000 0.121000 0.562500
v 2.500000 0.121000 0.562500
v 2.500000 0.121000 0.687500
vt 0.406250 1.000000
vt 0.468750 1.000000
vt 0.468750 0.625000
vt 0.406250 0.625000
vt 0.406250 1.000000
vt 0.468750 1.000000
vt 0.468750 0.625000
vt 0.406250 0.625000
vt 0.406250 1.000000
vt 0.468750 1.000000
vt 0.468750 0.625000
vt 0.406250 0.625000
vt 0.406250 1.000000
vt 0.468750 1.000000
vt 0.468750 0.625000
vt 0.406250 0.625000
vt 0.632812 1.000000
vt 0.742188 1.000000
vt 0.742188 0.687500
vt 0.632812 0.687500
vt 0.632812 1.000000
vt 0.742188 1.000000
vt 0.742188 0.687500
vt 0.632812 0.687500
vt 0.742188 1.000000
vt 0.757812 1.000000
vt 0.757812 0.687500
vt 0.742188 0.687500
vt 0.742188 1.000000
vt 0.757812 1.000000
vt 0.757812 0.687500
vt 0.742188 0.687500
vt 0.671875 0.320312
vt 0.781250 0.320312
vt 0.781250 0.304688
vt 0.671875 0.304688
vt 0.671875 0.320312
vt 0.781250 0.320312
vt 0.781250 0.304688
vt 0.671875 0.304688
vt 0.742188 1.000000
vt 0.757812 1.000000
vt 0.757812 0.687500
vt 0.742188 0.687500
vt 0.742188 1.000000
vt 0.757812 1.000000
vt 0.757812 0.687500
vt 0.742188 0.687500
vt 0.632812 1.000000
vt 0.742188 1.000000
vt 0.742188 0.687500
vt 0.632812 0.687500
vt 0.632812 1.000000
vt 0.742188 1.000000
vt 0.742188 0.687500
vt 0.632812 0.687500
vt 0.882812 1.000000
vt 0.898438 1.000000
vt 0.898438 0.890625
vt 0.882812 0.890625
vt 0.882812 1.000000
vt 0.898438 1.000000
vt 0.898438 0.890625
vt 0.882812 0.890625
vt 0.781250 0.320312
vt 0.859375 0.320312
vt 0.859375 0.304688
vt 0.781250 0.304688
vt 0.781250 0.320312
vt 0.859375 0.320312
vt 0.859375 0.304688
vt 0.781250 0.304688
vt 0.781250 0.320312
vt 0.859375 0.320312
vt 0.859375 0.304688
vt 0.781250 0.304688
vt 0.781250 0.320312
vt 0.859375 0.320312
vt 0.859375 0.304688
vt 0.781250 0.304688
vt 0.453125 0.437500
vt 0.531250 0.437500
vt 0.531250 0.359375
vt 0.453125 0.359375
vt 0.453125 0.437500
vt 0.531250 0.437500
vt 0.531250 0.359375
vt 0.453125 0.359375
vt 0.781250 0.320312
vt 0.859375 0.320312
vt 0.859375 0.304688
vt 0.781250 0.304688
vt 0.781250 0.320312
vt 0.859375 0.320312
vt 0.859375 0.304688
vt 0.781250 0.304688
vt 0.781250 0.320312
vt 0.859375 0.320312
vt 0.859375 0.304688
vt 0.781250 0.304688
vt 0.781250 0.320312
vt 0.859375 0.320312
vt 0.859375 0.304688
vt 0.781250 0.304688
vt 0.453125 0.437500
vt 0.531250 0.437500
vt 0.531250 0.359375
vt 0.453125 0.359375
vt 0.453125 0.437500
vt 0.531250 0.437500
vt 0.531250 0.359375
vt 0.453125 0.359375
vt 0.000000 0.343750
vt 0.156250 0.343750
vt 0.156250 0.320312
vt 0.000000 0.320312
vt 0.000000 0.343750
vt 0.156250 0.343750
vt 0.156250 0.320312
vt 0.000000 0.320312
vt 0.257812 0.343750
vt 0.289062 0.343750
vt 0.289062 0.320312
vt 0.257812 0.320312
vt 0.257812 0.343750
vt 0.289062 0.343750
vt 0.289062 0.320312
vt 0.257812 0.320312
vt 0.679688 0.437500
vt 0.835938 0.437500
vt 0.835938 0.406250
vt 0.679688 0.406250
vt 0.679688 0.437500
vt 0.835938 0.437500
vt 0.835938 0.406250
vt 0.679688 0.406250
vt 0.000000 0.343750
vt 0.156250 0.343750
vt 0.156250 0.320312
vt 0.000000 0.320312
vt 0.000000 0.343750
vt 0.156250 0.343750
vt 0.156250 0.320312
vt 0.000000 0.320312
vt 0.257812 0.343750
vt 0.289062 0.343750
vt 0.289062 0.320312
vt 0.257812 0.320312
vt 0.257812 0.343750
vt 0.289062 0.343750
vt 0.289062 0.320312
vt 0.257812 0.320312
vt 0.679688 0.437500
vt 0.835938 0.437500
vt 0.835938 0.406250
vt 0.679688 0.406250
vt 0.679688 0.437500
vt 0.835938 0.437500
vt 0.835938 0.406250
vt 0.679688 0.406250
vt 0.156250 0.343750
vt 0.257812 0.343750
vt 0.257812 0.320312
vt 0.156250 0.320312
vt 0.156250 0.343750
vt 0.257812 0.343750
vt 0.257812 0.320312
vt 0.156250 0.320312
vt 0.898438 1.000000
vt 0.929688 1.000000
vt 0.929688 0.898438
vt 0.898438 0.898438
vt 0.898438 1.000000
vt 0.929688 1.000000
vt 0.929688 0.898438
vt 0.898438 0.898438
vt 0.156250 0.343750
vt 0.257812 0.343750
vt 0.257812 0.320312
vt 0.156250 0.320312
vt 0.156250 0.343750
vt 0.257812 0.343750
vt 0.257812 0.320312
vt 0.156250 0.320312
vt 0.898438 1.000000
vt 0.929688 1.000000
vt 0.929688 0.898438
vt 0.898438 0.898438
vt 0.898438 1.000000
vt 0.929688 1.000000
vt 0.929688 0.898438
vt 0.898438 0.898438
vt 0.000000 0.343750
vt 0.156250 0.343750
vt 0.156250 0.320312
vt 0.000000 0.320312
vt 0.000000 0.343750
vt 0.156250 0.343750
vt 0.156250 0.320312
vt 0.000000 0.320312
vt 0.257812 0.343750
vt 0.289062 0.343750
vt 0.289062 0.320312
vt 0.257812 0.320312
vt 0.257812 0.343750
vt 0.289062 0.343750
vt 0.289062 0.320312
vt 0.257812 0.320312
vt 0.679688 0.437500
vt 0.835938 0.437500
vt 0.835938 0.406250
vt 0.679688 0.406250
vt 0.679688 0.437500
vt 0.835938 0.437500
vt 0.835938 0.406250
vt 0.679688 0.406250
vt 0.000000 0.343750
vt 0.156250 0.343750
vt 0.156250 0.320312
vt 0.000000 0.320312
vt 0.000000 0.343750
vt 0.156250 0.343750
vt 0.156250 0.320312
vt 0.000000 0.320312
vt 0.257812 0.343750
vt 0.289062 0.343750
vt 0.289062 0.320312
vt 0.257812 0.320312
vt 0.257812 0.343750
vt 0.289062 0.343750
vt 0.289062 0.320312
vt 0.257812 0.320312
vt 0.679688 0.437500
vt 0.835938 0.437500
vt 0.835938 0.406250
vt 0.679688 0.406250
vt 0.679688 0.437500
vt 0.835938 0.437500
vt 0.835938 0.406250
vt 0.679688 0.406250
vt 0.156250 0.343750
vt 0.257812 0.343750
vt 0.257812 0.320312
vt 0.156250 0.320312
vt 0.156250 0.343750
vt 0.257812 0.343750
vt 0.257812 0.320312
vt 0.156250 0.320312
vt 0.898438 1.000000
vt 0.929688 1.000000
vt 0.929688 0.898438
vt 0.898438 0.898438
vt 0.898438 1.000000
vt 0.929688 1.000000
vt 0.929688 0.898438
vt 0.898438 0.898438
vt 0.156250 0.343750
vt 0.257812 0.343750
vt 0.257812 0.320312
vt 0.156250 0.320312
vt 0.156250 0.343750
vt 0.257812 0.343750
vt 0.257812 0.320312
vt 0.156250 0.320312
vt 0.898438 1.000000
vt 0.929688 1.000000
vt 0.929688 0.898438
vt 0.898438 0.898438
vt 0.898438 1.000000
vt 0.929688 1.000000
vt 0.929688 0.898438
vt 0.898438 0.898438
vt 0.000000 1.000000
vt 0.031250 1.000000
vt 0.031250 0.609375
vt 0.000000 0.609375
vt 0.000000 1.000000
vt 0.031250 1.000000
vt 0.031250 0.609375
vt 0.000000 0.609375
vt 0.000000 1.000000
vt 0.031250 1.000000
vt 0.031250 0.609375
vt 0.000000 0.609375
vt 0.000000 1.000000
vt 0.031250 1.000000
vt 0.031250 0.609375
vt 0.000000 0.609375
vt 0.000000 1.000000
vt 0.031250 1.000000
vt 0.031250 0.609375
vt 0.000000 0.609375
vt 0.000000 1.000000
vt 0.031250 1.000000
vt 0.031250 0.609375
vt 0.000000 0.609375
vt 0.000000 1.000000
vt 0.031250 1.000000
vt 0.031250 0.609375
vt 0.000000 0.609375
vt 0.000000 1.000000
vt 0.031250 1.000000
vt 0.031250 0.609375
vt 0.000000 0.609375
vt 0.000000 1.000000
vt 0.031250 1.000000
vt 0.031250 0.609375
vt 0.000000 0.609375
vt 0.000000 1.000000
vt 0.031250 1.000000
vt 0.031250 0.609375
vt 0.000000 0.609375
vt 0.000000 1.000000
vt 0.031250 1.000000
vt 0.031250 0.609375
vt 0.000000 0.609375
vt 0.000000 1.000000
vt 0.031250 1.000000
vt 0.031250 0.609375
vt 0.000000 0.609375
vt 0.000000 1.000000
vt 0.031250 1.000000
vt 0.031250 0.609375
vt 0.000000 0.609375
vt 0.000000 1.000000
vt 0.031250 1.000000
vt 0.031250 0.609375
vt 0.000000 0.609375
vt 0.000000 1.000000
vt 0.031250 1.000000
vt 0.031250 0.609375
vt 0.000000 0.609375
vt 0.000000 1.000000
vt 0.031250 1.000000
vt 0.031250 0.609375
vt 0.000000 0.609375
vt 0.835938 0.343750
vt 0.960938 0.343750
vt 0.960938 0.328125
vt 0.835938 0.328125
vt 0.835938 0.343750
vt 0.960938 0.343750
vt 0.960938 0.328125
vt 0.835938 0.328125
vt 0.289062 0.343750
vt 0.664062 0.343750
vt 0.664062 0.328125
vt 0.289062 0.328125
vt 0.289062 0.343750
vt 0.664062 0.343750
vt 0.664062 0.328125
vt 0.289062 0.328125
vt 0.031250 1.000000
vt 0.156250 1.000000
vt 0.156250 0.625000
vt 0.031250 0.625000
vt 0.890625 0.609375
vt 1.000000 0.609375
vt 1.000000 0.515625
vt 0.890625 0.515625
vt 0.125000 0.437500
vt 0.234375 0.437500
vt 0.234375 0.343750
vt 0.125000 0.343750
vt 0.375000 0.609375
vt 0.734375 0.609375
vt 0.734375 0.515625
vt 0.375000 0.515625
vt 0.375000 0.609375
vt 0.734375 0.609375
vt 0.734375 0.515625
vt 0.375000 0.515625
vt 0.468750 1.000000
vt 0.578125 1.000000
vt 0.578125 0.640625
vt 0.468750 0.640625
vt 0.468750 1.000000
vt 0.578125 1.000000
vt 0.578125 0.640625
vt 0.468750 0.640625
vt 0.546875 0.320312
vt 0.671875 0.320312
vt 0.671875 0.304688
vt 0.546875 0.304688
vt 0.546875 0.320312
vt 0.671875 0.320312
vt 0.671875 0.304688
vt 0.546875 0.304688
vt 0.000000 0.320312
vt 0.375000 0.320312
vt 0.375000 0.304688
vt 0.000000 0.304688
vt 0.000000 0.320312
vt 0.375000 0.320312
vt 0.375000 0.304688
vt 0.000000 0.304688
vt 0.156250 1.000000
vt 0.281250 1.000000
vt 0.281250 0.625000
vt 0.156250 0.625000
vt 0.281250 1.000000
vt 0.406250 1.000000
vt 0.406250 0.625000
vt 0.281250 0.625000
vt 0.234375 0.437500
vt 0.250000 0.437500
vt 0.250000 0.343750
vt 0.234375 0.343750
vt 0.234375 0.437500
vt 0.250000 0.437500
vt 0.250000 0.343750
vt 0.234375 0.343750
vt 0.234375 0.437500
vt 0.250000 0.437500
vt 0.250000 0.343750
vt 0.234375 0.343750
vt 0.234375 0.437500
vt 0.250000 0.437500
vt 0.250000 0.343750
vt 0.234375 0.343750
vt 0.960938 0.343750
vt 0.976562 0.343750
vt 0.976562 0.328125
vt 0.960938 0.328125
vt 0.960938 0.343750
vt 0.976562 0.343750
vt 0.976562 0.328125
vt 0.960938 0.328125
vt 0.234375 0.437500
vt 0.250000 0.437500
vt 0.250000 0.343750
vt 0.234375 0.343750
vt 0.234375 0.437500
vt 0.250000 0.437500
vt 0.250000 0.343750
vt 0.234375 0.343750
vt 0.234375 0.437500
vt 0.250000 0.437500
vt 0.250000 0.343750
vt 0.234375 0.343750
vt 0.234375 0.437500
vt 0.250000 0.437500
vt 0.250000 0.343750
vt 0.234375 0.343750
vt 0.960938 0.343750
vt 0.976562 0.343750
vt 0.976562 0.328125
vt 0.960938 0.328125
vt 0.960938 0.343750
vt 0.976562 0.343750
vt 0.976562 0.328125
vt 0.960938 0.328125
vt 0.234375 0.437500
vt 0.250000 0.437500
vt 0.250000 0.343750
vt 0.234375 0.343750
vt 0.234375 0.437500
vt 0.250000 0.437500
vt 0.250000 0.343750
vt 0.234375 0.343750
vt 0.234375 0.437500
vt 0.250000 0.437500
vt 0.250000 0.343750
vt 0.234375 0.343750
vt 0.234375 0.437500
vt 0.250000 0.437500
vt 0.250000 0.343750
vt 0.234375 0.343750
vt 0.960938 0.343750
vt 0.976562 0.343750
vt 0.976562 0.328125
vt 0.960938 0.328125
vt 0.960938 0.343750
vt 0.976562 0.343750
vt 0.976562 0.328125
vt 0.960938 0.328125
vt 0.234375 0.437500
vt 0.250000 0.437500
vt 0.250000 0.343750
vt 0.234375 0.343750
vt 0.234375 0.437500
vt 0.250000 0.437500
vt 0.250000 0.343750
vt 0.234375 0.343750
vt 0.234375 0.437500
vt 0.250000 0.437500
vt 0.250000 0.343750
vt 0.234375 0.343750
vt 0.234375 0.437500
vt 0.250000 0.437500
vt 0.250000 0.343750
vt 0.234375 0.343750
vt 0.960938 0.343750
vt 0.976562 0.343750
vt 0.976562 0.328125
vt 0.960938 0.328125
vt 0.960938 0.343750
vt 0.976562 0.343750
vt 0.976562 0.328125
vt 0.960938 0.328125
vt 0.835938 0.343750
vt 0.960938 0.343750
vt 0.960938 0.328125
vt 0.835938 0.328125
vt 0.835938 0.343750
vt 0.960938 0.343750
vt 0.960938 0.328125
vt 0.835938 0.328125
vt 0.664062 0.343750
vt 0.835938 0.343750
vt 0.835938 0.328125
vt 0.664062 0.328125
vt 0.757812 1.000000
vt 0.882812 1.000000
vt 0.882812 0.828125
vt 0.757812 0.828125
vt 0.000000 0.437500
vt 0.125000 0.437500
vt 0.125000 0.343750
vt 0.000000 0.343750
vt 0.000000 0.437500
vt 0.125000 0.437500
vt 0.125000 0.343750
vt 0.000000 0.343750
vt 0.734375 0.609375
vt 0.890625 0.609375
vt 0.890625 0.515625
vt 0.734375 0.515625
vt 0.250000 0.609375
vt 0.375000 0.609375
vt 0.375000 0.453125
vt 0.250000 0.453125
vt 0.250000 0.609375
vt 0.375000 0.609375
vt 0.375000 0.453125
vt 0.250000 0.453125
vt 0.546875 0.320312
vt 0.671875 0.320312
vt 0.671875 0.304688
vt 0.546875 0.304688
vt 0.546875 0.320312
vt 0.671875 0.320312
vt 0.671875 0.304688
vt 0.546875 0.304688
vt 0.375000 0.320312
vt 0.546875 0.320312
vt 0.546875 0.304688
vt 0.375000 0.304688
vt 0.000000 0.609375
vt 0.125000 0.609375
vt 0.125000 0.437500
vt 0.000000 0.437500
vt 0.125000 0.609375
vt 0.250000 0.609375
vt 0.250000 0.437500
vt 0.125000 0.437500
vt 0.250000 0.437500
vt 0.265625 0.437500
vt 0.265625 0.343750
vt 0.250000 0.343750
vt 0.250000 0.437500
vt 0.265625 0.437500
vt 0.265625 0.343750
vt 0.250000 0.343750
vt 0.250000 0.437500
vt 0.265625 0.437500
vt 0.265625 0.343750
vt 0.250000 0.343750
vt 0.250000 0.437500
vt 0.265625 0.437500
vt 0.265625 0.343750
vt 0.250000 0.343750
vt 0.976562 0.343750
vt 0.992188 0.343750
vt 0.992188 0.328125
vt 0.976562 0.328125
vt 0.976562 0.343750
vt 0.992188 0.343750
vt 0.992188 0.328125
vt 0.976562 0.328125
vt 0.250000 0.437500
vt 0.265625 0.437500
vt 0.265625 0.343750
vt 0.250000 0.343750
vt 0.250000 0.437500
vt 0.265625 0.437500
vt 0.265625 0.343750
vt 0.250000 0.343750
vt 0.250000 0.437500
vt 0.265625 0.437500
vt 0.265625 0.343750
vt 0.250000 0.343750
vt 0.250000 0.437500
vt 0.265625 0.437500
vt 0.265625 0.343750
vt 0.250000 0.343750
vt 0.976562 0.343750
vt 0.992188 0.343750
vt 0.992188 0.328125
vt 0.976562 0.328125
vt 0.976562 0.343750
vt 0.992188 0.343750
vt 0.992188 0.328125
vt 0.976562 0.328125
vt 0.835938 0.343750
vt 0.960938 0.343750
vt 0.960938 0.328125
vt 0.835938 0.328125
vt 0.835938 0.343750
vt 0.960938 0.343750
vt 0.960938 0.328125
vt 0.835938 0.328125
vt 0.664062 0.343750
vt 0.835938 0.343750
vt 0.835938 0.328125
vt 0.664062 0.328125
vt 0.757812 1.000000
vt 0.882812 1.000000
vt 0.882812 0.828125
vt 0.757812 0.828125
vt 0.000000 0.437500
vt 0.125000 0.437500
vt 0.125000 0.343750
vt 0.000000 0.343750
vt 0.000000 0.437500
vt 0.125000 0.437500
vt 0.125000 0.343750
vt 0.000000 0.343750
vt 0.734375 0.609375
vt 0.890625 0.609375
vt 0.890625 0.515625
vt 0.734375 0.515625
vt 0.250000 0.609375
vt 0.375000 0.609375
vt 0.375000 0.453125
vt 0.250000 0.453125
vt 0.250000 0.609375
vt 0.375000 0.609375
vt 0.375000 0.453125
vt 0.250000 0.453125
vt 0.546875 0.320312
vt 0.671875 0.320312
vt 0.671875 0.304688
vt 0.546875 0.304688
vt 0.546875 0.320312
vt 0.671875 0.320312
vt 0.671875 0.304688
vt 0.546875 0.304688
vt 0.375000 0.320312
vt 0.546875 0.320312
vt 0.546875 0.304688
vt 0.375000 0.304688
vt 0.000000 0.609375
vt 0.125000 0.609375
vt 0.125000 0.437500
vt 0.000000 0.437500
vt 0.125000 0.609375
vt 0.250000 0.609375
vt 0.250000 0.437500
vt 0.125000 0.437500
vt 0.250000 0.437500
vt 0.265625 0.437500
vt 0.265625 0.343750
vt 0.250000 0.343750
vt 0.250000 0.437500
vt 0.265625 0.437500
vt 0.265625 0.343750
vt 0.250000 0.343750
vt 0.250000 0.437500
vt 0.265625 0.437500
vt 0.265625 0.343750
vt 0.250000 0.343750
vt 0.250000 0.437500
vt 0.265625 0.437500
vt 0.265625 0.343750
vt 0.250000 0.343750
vt 0.976562 0.343750
vt 0.992188 0.343750
vt 0.992188 0.328125
vt 0.976562 0.328125
vt 0.976562 0.343750
vt 0.992188 0.343750
vt 0.992188 0.328125
vt 0.976562 0.328125
vt 0.250000 0.437500
vt 0.265625 0.437500
vt 0.265625 0.343750
vt 0.250000 0.343750
vt 0.250000 0.437500
vt 0.265625 0.437500
vt 0.265625 0.343750
vt 0.250000 0.343750
vt 0.250000 0.437500
vt 0.265625 0.437500
vt 0.265625 0.343750
vt 0.250000 0.343750
vt 0.250000 0.437500
vt 0.265625 0.437500
vt 0.265625 0.343750
vt 0.250000 0.343750
vt 0.976562 0.343750
vt 0.992188 0.343750
vt 0.992188 0.328125
vt 0.976562 0.328125
vt 0.976562 0.343750
vt 0.992188 0.343750
vt 0.992188 0.328125
vt 0.976562 0.328125
vt 0.929688 0.320312
vt 0.976562 0.320312
vt 0.976562 0.304688
vt 0.929688 0.304688
vt 0.992188 0.343750
vt 1.000000 0.343750
vt 1.000000 0.328125
vt 0.992188 0.328125
vt 0.992188 0.343750
vt 1.000000 0.343750
vt 1.000000 0.328125
vt 0.992188 0.328125
vt 0.000000 0.304688
vt 0.046875 0.304688
vt 0.046875 0.296875
vt 0.000000 0.296875
vt 0.000000 0.304688
vt 0.046875 0.304688
vt 0.046875 0.296875
vt 0.000000 0.296875
vt 0.835938 0.437500
vt 0.914062 0.437500
vt 0.914062 0.406250
vt 0.835938 0.406250
vt 0.835938 0.437500
vt 0.914062 0.437500
vt 0.914062 0.406250
vt 0.835938 0.406250
vt 0.835938 0.437500
vt 0.914062 0.437500
vt 0.914062 0.406250
vt 0.835938 0.406250
vt 0.835938 0.437500
vt 0.914062 0.437500
vt 0.914062 0.406250
vt 0.835938 0.406250
vt 0.531250 0.437500
vt 0.609375 0.437500
vt 0.609375 0.359375
vt 0.531250 0.359375
vt 0.578125 1.000000
vt 0.632812 1.000000
vt 0.632812 0.671875
vt 0.578125 0.671875
vt 0.578125 1.000000
vt 0.632812 1.000000
vt 0.632812 0.671875
vt 0.578125 0.671875
vt 0.578125 1.000000
vt 0.632812 1.000000
vt 0.632812 0.671875
vt 0.578125 0.671875
vt 0.578125 1.000000
vt 0.632812 1.000000
vt 0.632812 0.671875
vt 0.578125 0.671875
vt 0.859375 0.320312
vt 0.929688 0.320312
vt 0.929688 0.304688
vt 0.859375 0.304688
vt 0.859375 0.320312
vt 0.929688 0.320312
vt 0.929688 0.304688
vt 0.859375 0.304688
vt 0.859375 0.320312
vt 0.929688 0.320312
vt 0.929688 0.304688
vt 0.859375 0.304688
vt 0.859375 0.320312
vt 0.929688 0.320312
vt 0.929688 0.304688
vt 0.859375 0.304688
vt 0.609375 0.437500
vt 0.679688 0.437500
vt 0.679688 0.367188
vt 0.609375 0.367188
vt 0.609375 0.437500
vt 0.679688 0.437500
vt 0.679688 0.367188
vt 0.609375 0.367188
vt 0.859375 0.320312
vt 0.929688 0.320312
vt 0.929688 0.304688
vt 0.859375 0.304688
vt 0.859375 0.320312
vt 0.929688 0.320312
vt 0.929688 0.304688
vt 0.859375 0.304688
vt 0.859375 0.320312
vt 0.929688 0.320312
vt 0.929688 0.304688
vt 0.859375 0.304688
vt 0.859375 0.320312
vt 0.929688 0.320312
vt 0.929688 0.304688
vt 0.859375 0.304688
vt 0.609375 0.437500
vt 0.679688 0.437500
vt 0.679688 0.367188
vt 0.609375 0.367188
vt 0.609375 0.437500
vt 0.679688 0.437500
vt 0.679688 0.367188
vt 0.609375 0.367188
vt 0.914062 0.437500
vt 1.000000 0.437500
vt 1.000000 0.414062
vt 0.914062 0.414062
vt 0.914062 0.437500
vt 1.000000 0.437500
vt 1.000000 0.414062
vt 0.914062 0.414062
vt 0.914062 0.437500
vt 1.000000 0.437500
vt 1.000000 0.414062
vt 0.914062 0.414062
vt 0.914062 0.437500
vt 1.000000 0.437500
vt 1.000000 0.414062
vt 0.914062 0.414062
vt 0.281250 0.437500
vt 0.367188 0.437500
vt 0.367188 0.351562
vt 0.281250 0.351562
vt 0.281250 0.437500
vt 0.367188 0.437500
vt 0.367188 0.351562
vt 0.281250 0.351562
vt 0.929688 1.000000
vt 1.000000 1.000000
vt 1.000000 0.906250
vt 0.929688 0.906250
vt 0.929688 1.000000
vt 1.000000 1.000000
vt 1.000000 0.906250
vt 0.929688 0.906250
vt 0.929688 1.000000
vt 1.000000 1.000000
vt 1.000000 0.906250
vt 0.929688 0.906250
vt 0.929688 1.000000
vt 1.000000 1.000000
vt 1.000000 0.906250
vt 0.929688 0.906250
vt 0.265625 0.437500
vt 0.281250 0.437500
vt 0.281250 0.343750
vt 0.265625 0.343750
vt 0.265625 0.437500
vt 0.281250 0.437500
vt 0.281250 0.343750
vt 0.265625 0.343750
vt 0.265625 0.437500
vt 0.281250 0.437500
vt 0.281250 0.343750
vt 0.265625 0.343750
vt 0.265625 0.437500
vt 0.281250 0.437500
vt 0.281250 0.343750
vt 0.265625 0.343750
vt 0.265625 0.437500
vt 0.281250 0.437500
vt 0.281250 0.343750
vt 0.265625 0.343750
vt 0.265625 0.437500
vt 0.281250 0.437500
vt 0.281250 0.343750
vt 0.265625 0.343750
vt 0.265625 0.437500
vt 0.281250 0.437500
vt 0.281250 0.343750
vt 0.265625 0.343750
vt 0.265625 0.437500
vt 0.281250 0.437500
vt 0.281250 0.343750
vt 0.265625 0.343750
vt 0.265625 0.437500
vt 0.281250 0.437500
vt 0.281250 0.343750
vt 0.265625 0.343750
vt 0.265625 0.437500
vt 0.281250 0.437500
vt 0.281250 0.343750
vt 0.265625 0.343750
vt 0.265625 0.437500
vt 0.281250 0.437500
vt 0.281250 0.343750
vt 0.265625 0.343750
vt 0.265625 0.437500
vt 0.281250 0.437500
vt 0.281250 0.343750
vt 0.265625 0.343750
vt 0.265625 0.437500
vt 0.281250 0.437500
vt 0.281250 0.343750
vt 0.265625 0.343750
vt 0.265625 0.437500
vt 0.281250 0.437500
vt 0.281250 0.343750
vt 0.265625 0.343750
vt 0.265625 0.437500
vt 0.281250 0.437500
vt 0.281250 0.343750
vt 0.265625 0.343750
vt 0.265625 0.437500
vt 0.281250 0.437500
vt 0.281250 0.343750
vt 0.265625 0.343750
vt 0.914062 0.437500
vt 1.000000 0.437500
vt 1.000000 0.414062
vt 0.914062 0.414062
vt 0.914062 0.437500
vt 1.000000 0.437500
vt 1.000000 0.414062
vt 0.914062 0.414062
vt 0.914062 0.437500
vt 1.000000 0.437500
vt 1.000000 0.414062
vt 0.914062 0.414062
vt 0.914062 0.437500
vt 1.000000 0.437500
vt 1.000000 0.414062
vt 0.914062 0.414062
vt 0.367188 0.437500
vt 0.453125 0.437500
vt 0.453125 0.351562
vt 0.367188 0.351562
vt 0.281250 0.437500
vt 0.367188 0.437500
vt 0.367188 0.351562
vt 0.281250 0.351562
vn 0 0 -1
vn 0 0 1
vn -1 0 0
vn 1 0 0
vn 0 1 0
vn 0 -1 0
usemtl beacon
o InnerSpin
f 1/1/1 4/4/1 3/3/1 2/2/1
f 5/5/2 8/8/2 7/7/2 6/6/2
f 9/9/3 12/12/3 11/11/3 10/10/3
f 13/13/4 16/16/4 15/15/4 14/14/4
f 17/17/1 20/20/1 19/19/1 18/18/1
f 21/21/2 24/24/2 23/23/2 22/22/2
f 25/25/3 28/28/3 27/27/3 26/26/3
f 29/29/4 32/32/4 31/31/4 30/30/4
f 33/33/5 36/36/5 35/35/5 34/34/5
f 37/37/6 40/40/6 39/39/6 38/38/6
f 41/41/1 44/44/1 43/43/1 42/42/1
f 45/45/2 48/48/2 47/47/2 46/46/2
f 49/49/3 52/52/3 51/51/3 50/50/3
f 53/53/4 56/56/4 55/55/4 54/54/4
f 941/57/5 942/60/5 943/59/5 944/58/5
f 945/61/6 946/64/6 947/63/6 948/62/6
f 65/65/1 68/68/1 67/67/1 66/66/1
f 69/69/2 72/72/2 71/71/2 70/70/2
f 73/73/3 76/76/3 75/75/3 74/74/3
f 77/77/4 80/80/4 79/79/4 78/78/4
f 81/81/5 84/84/5 83/83/5 82/82/5
f 85/85/6 88/88/6 87/87/6 86/86/6
f 89/89/1 92/92/1 91/91/1 90/90/1
f 93/93/2 96/96/2 95/95/2 94/94/2
f 97/97/3 100/100/3 99/99/3 98/98/3
f 101/101/4 104/104/4 103/103/4 102/102/4
f 105/105/5 108/108/5 107/107/5 106/106/5
f 109/109/6 112/112/6 111/111/6 110/110/6
o OuterSpin
f 113/113/1 116/116/1 115/115/1 114/114/1
f 117/117/2 120/120/2 119/119/2 118/118/2
f 121/121/3 124/124/3 123/123/3 122/122/3
f 125/125/4 128/128/4 127/127/4 126/126/4
f 129/129/5 132/132/5 131/131/5 130/130/5
f 133/133/6 136/136/6 135/135/6 134/134/6
f 137/137/1 140/140/1 139/139/1 138/138/1
f 141/141/2 144/144/2 143/143/2 142/142/2
f 145/145/3 148/148/3 147/147/3 146/146/3
f 149/149/4 152/152/4 151/151/4 150/150/4
f 153/153/5 156/156/5 155/155/5 154/154/5
f 157/157/6 160/160/6 159/159/6 158/158/6
f 161/161/3 164/164/3 163/163/3 162/162/3
f 165/165/4 168/168/4 167/167/4 166/166/4
f 169/169/5 172/172/5 171/171/5 170/170/5
f 173/173/6 176/176/6 175/175/6 174/174/6
f 177/177/3 180/180/3 179/179/3 178/178/3
f 181/181/4 184/184/4 183/183/4 182/182/4
f 185/185/5 188/188/5 187/187/5 186/186/5
f 189/189/6 192/192/6 191/191/6 190/190/6
f 193/193/1 196/196/1 195/195/1 194/194/1
f 197/197/2 200/200/2 199/199/2 198/198/2
f 201/201/3 204/204/3 203/203/3 202/202/3
f 205/205/4 208/208/4 207/207/4 206/206/4
f 209/209/5 212/212/5 211/211/5 210/210/5
f 213/213/6 216/216/6 215/215/6 214/214/6
f 217/217/1 220/220/1 219/219/1 218/218/1
f 221/221/2 224/224/2 223/223/2 222/222/2
f 225/225/3 228/228/3 227/227/3 226/226/3
f 229/229/4 232/232/4 231/231/4 230/230/4
f 233/233/5 236/236/5 235/235/5 234/234/5
f 237/237/6 240/240/6 239/239/6 238/238/6
f 241/241/3 244/244/3 243/243/3 242/242/3
f 245/245/4 248/248/4 247/247/4 246/246/4
f 249/249/5 252/252/5 251/251/5 250/250/5
f 253/253/6 256/256/6 255/255/6 254/254/6
f 257/257/3 260/260/3 259/259/3 258/258/3
f 261/261/4 264/264/4 263/263/4 262/262/4
f 265/265/5 268/268/5 267/267/5 266/266/5
f 269/269/6 272/272/6 271/271/6 270/270/6
f 273/273/1 276/276/1 275/275/1 274/274/1
f 277/277/2 280/280/2 279/279/2 278/278/2
f 281/281/3 284/284/3 283/283/3 282/282/3
f 285/285/4 288/288/4 287/287/4 286/286/4
f 289/289/1 292/292/1 291/291/1 290/290/1
f 293/293/2 296/296/2 295/295/2 294/294/2
f 297/297/3 300/300/3 299/299/3 298/298/3
f 301/301/4 304/304/4 303/303/4 302/302/4
f 305/305/1 308/308/1 307/307/1 306/306/1
f 309/309/2 312/312/2 311/311/2 310/310/2
f 313/313/3 316/316/3 315/315/3 314/314/3
f 317/317/4 320/320/4 319/319/4 318/318/4
f 321/321/1 324/324/1 323/323/1 322/322/1
f 325/325/2 328/328/2 327/327/2 326/326/2
f 329/329/3 332/332/3 331/331/3 330/330/3
f 333/333/4 336/336/4 335/335/4 334/334/4
o Base
f 337/337/1 340/340/1 339/339/1 338/338/1
f 341/341/2 344/344/2 343/343/2 342/342/2
f 345/345/3 348/348/3 347/347/3 346/346/3
f 349/349/4 352/352/4 351/351/4 350/350/4
f 353/353/5 356/356/5 355/355/5 354/354/5
f 357/357/1 360/360/1 359/359/1 358/358/1
f 361/361/2 364/364/2 363/363/2 362/362/2
f 365/365/3 368/368/3 367/367/3 366/366/3
f 369/369/4 372/372/4 371/371/4 370/370/4
f 373/373/5 376/376/5 375/375/5 374/374/5
f 377/377/6 380/380/6 379/379/6 378/378/6
f 381/381/1 384/384/1 383/383/1 382/382/1
f 385/385/2 388/388/2 387/387/2 386/386/2
f 389/389/3 392/392/3 391/391/3 390/390/3
f 393/393/4 396/396/4 395/395/4 394/394/4
f 397/397/5 400/400/5 399/399/5 398/398/5
f 401/401/6 404/404/6 403/403/6 402/402/6
f 405/405/1 408/408/1 407/407/1 406/406/1
f 409/409/2 412/412/2 411/411/2 410/410/2
f 413/413/3 416/416/3 415/415/3 414/414/3
f 417/417/4 420/420/4 419/419/4 418/418/4
f 949/421/5 950/424/5 951/423/5 952/422/5
f 981/425/6 982/428/6 983/427/6 984/426/6
f 429/429/1 432/432/1 431/431/1 430/430/1
f 433/433/2 436/436/2 435/435/2 434/434/2
f 437/437/3 440/440/3 439/439/3 438/438/3
f 441/441/4 444/444/4 443/443/4 442/442/4
f 953/445/5 954/448/5 955/447/5 956/446/5
f 985/449/6 986/452/6 987/451/6 988/450/6
f 453/453/1 456/456/1 455/455/1 454/454/1
f 457/457/2 460/460/2 459/459/2 458/458/2
f 461/461/3 464/464/3 463/463/3 462/462/3
f 465/465/4 468/468/4 467/467/4 466/466/4
f 957/469/5 958/472/5 959/471/5 960/470/5
f 989/473/6 990/476/6 991/475/6 992/474/6
f 477/477/1 480/480/1 479/479/1 478/478/1
f 481/481/2 484/484/2 483/483/2 482/482/2
f 485/485/3 488/488/3 487/487/3 486/486/3
f 489/489/4 492/492/4 491/491/4 490/490/4
f 961/493/5 962/496/5 963/495/5 964/494/5
f 993/497/6 994/500/6 995/499/6 996/498/6
f 501/501/1 504/504/1 503/503/1 502/502/1
f 505/505/2 508/508/2 507/507/2 506/506/2
f 509/509/3 512/512/3 511/511/3 510/510/3
f 513/513/5 516/516/5 515/515/5 514/514/5
f 517/517/1 520/520/1 519/519/1 518/518/1
f 521/521/2 524/524/2 523/523/2 522/522/2
f 525/525/3 528/528/3 527/527/3 526/526/3
f 529/529/5 532/532/5 531/531/5 530/530/5
f 533/533/6 536/536/6 535/535/6 534/534/6
f 537/537/1 540/540/1 539/539/1 538/538/1
f 541/541/2 544/544/2 543/543/2 542/542/2
f 545/545/3 548/548/3 547/547/3 546/546/3
f 549/549/5 552/552/5 551/551/5 550/550/5
f 553/553/6 556/556/6 555/555/6 554/554/6
f 557/557/1 560/560/1 559/559/1 558/558/1
f 561/561/2 564/564/2 563/563/2 562/562/2
f 565/565/3 568/568/3 567/567/3 566/566/3
f 569/569/4 572/572/4 571/571/4 570/570/4
f 965/573/5 966/576/5 967/575/5 968/574/5
f 997/577/6 998/580/6 999/579/6 1000/578/6
f 581/581/1 584/584/1 583/583/1 582/582/1
f 585/585/2 588/588/2 587/587/2 586/586/2
f 589/589/3 592/592/3 591/591/3 590/590/3
f 593/593/4 596/596/4 595/595/4 594/594/4
f 969/597/5 970/600/5 971/599/5 972/598/5
f 1001/601/6 1002/604/6 1003/603/6 1004/602/6
f 605/605/1 608/608/1 607/607/1 606/606/1
f 609/609/2 612/612/2 611/611/2 610/610/2
f 613/613/4 616/616/4 615/615/4 614/614/4
f 617/617/5 620/620/5 619/619/5 618/618/5
f 621/621/1 624/624/1 623/623/1 622/622/1
f 625/625/2 628/628/2 627/627/2 626/626/2
f 629/629/4 632/632/4 631/631/4 630/630/4
f 633/633/5 636/636/5 635/635/5 634/634/5
f 637/637/6 640/640/6 639/639/6 638/638/6
f 641/641/1 644/644/1 643/643/1 642/642/1
f 645/645/2 648/648/2 647/647/2 646/646/2
f 649/649/4 652/652/4 651/651/4 650/650/4
f 653/653/5 656/656/5 655/655/5 654/654/5
f 657/657/6 660/660/6 659/659/6 658/658/6
f 661/661/1 664/664/1 663/663/1 662/662/1
f 665/665/2 668/668/2 667/667/2 666/666/2
f 669/669/3 672/672/3 671/671/3 670/670/3
f 673/673/4 676/676/4 675/675/4 674/674/4
f 973/677/5 974/680/5 975/679/5 976/678/5
f 1005/681/6 1006/684/6 1007/683/6 1008/682/6
f 685/685/1 688/688/1 687/687/1 686/686/1
f 689/689/2 692/692/2 691/691/2 690/690/2
f 693/693/3 696/696/3 695/695/3 694/694/3
f 697/697/4 700/700/4 699/699/4 698/698/4
f 977/701/5 978/704/5 979/703/5 980/702/5
f 1009/705/6 1010/708/6 1011/707/6 1012/706/6
f 709/709/1 712/712/1 711/711/1 710/710/1
f 713/713/3 716/716/3 715/715/3 714/714/3
f 717/717/4 720/720/4 719/719/4 718/718/4
f 721/721/5 724/724/5 723/723/5 722/722/5
f 725/725/6 728/728/6 727/727/6 726/726/6
f 729/729/1 732/732/1 731/731/1 730/730/1
f 733/733/2 736/736/2 735/735/2 734/734/2
f 737/737/3 740/740/3 739/739/3 738/738/3
f 741/741/4 744/744/4 743/743/4 742/742/4
f 745/745/5 748/748/5 747/747/5 746/746/5
f 749/749/1 752/752/1 751/751/1 750/750/1
f 753/753/2 756/756/2 755/755/2 754/754/2
f 757/757/3 760/760/3 759/759/3 758/758/3
f 761/761/4 764/764/4 763/763/4 762/762/4
f 765/765/1 768/768/1 767/767/1 766/766/1
f 769/769/2 772/772/2 771/771/2 770/770/2
f 773/773/3 776/776/3 775/775/3 774/774/3
f 777/777/4 780/780/4 779/779/4 778/778/4
f 781/781/5 784/784/5 783/783/5 782/782/5
f 785/785/6 788/788/6 787/787/6 786/786/6
f 789/789/1 792/792/1 791/791/1 790/790/1
f 793/793/2 796/796/2 795/795/2 794/794/2
f 797/797/3 800/800/3 799/799/3 798/798/3
f 801/801/4 804/804/4 803/803/4 802/802/4
f 805/805/5 808/808/5 807/807/5 806/806/5
f 809/809/6 812/812/6 811/811/6 810/810/6
f 813/813/1 816/816/1 815/815/1 814/814/1
f 817/817/2 820/820/2 819/819/2 818/818/2
f 821/821/3 824/824/3 823/823/3 822/822/3
f 825/825/4 828/828/4 827/827/4 826/826/4
f 829/829/5 832/832/5 831/831/5 830/830/5
f 833/833/6 836/836/6 835/835/6 834/834/6
f 837/837/1 840/840/1 839/839/1 838/838/1
f 841/841/2 844/844/2 843/843/2 842/842/2
f 845/845/3 848/848/3 847/847/3 846/846/3
f 849/849/4 852/852/4 851/851/4 850/850/4
f 853/853/1 856/856/1 855/855/1 854/854/1
f 857/857/2 860/860/2 859/859/2 858/858/2
f 861/861/3 864/864/3 863/863/3 862/862/3
f 865/865/4 868/868/4 867/867/4 866/866/4
f 869/869/1 872/872/1 871/871/1 870/870/1
f 873/873/2 876/876/2 875/875/2 874/874/2
f 877/877/3 880/880/3 879/879/3 878/878/3
f 881/881/4 884/884/4 883/883/4 882/882/4
f 885/885/1 888/888/1 887/887/1 886/886/1
f 889/889/2 892/892/2 891/891/2 890/890/2
f 893/893/3 896/896/3 895/895/3 894/894/3
f 897/897/4 900/900/4 899/899/4 898/898/4
f 901/901/1 904/904/1 903/903/1 902/902/1
f 905/905/2 908/908/2 907/907/2 906/906/2
f 909/909/3 912/912/3 911/911/3 910/910/3
f 913/913/4 916/916/4 915/915/4 914/914/4
f 917/917/1 920/920/1 919/919/1 918/918/1
f 921/921/2 924/924/2 923/923/2 922/922/2
f 925/925/3 928/928/3 927/927/3 926/926/3
f 929/929/4 932/932/4 931/931/4 930/930/4
f 933/933/5 936/936/5 935/935/5 934/934/5
f 937/937/6 940/940/6 939/939/6 938/938/6
