# biome_scanner generated by machinegen.py
mtllib biome_scanner.mtl
v 0.937500 0.000000 -0.937500
v 0.062500 0.000000 -0.937500
v 0.062500 -0.500000 -0.937500
v 0.937500 -0.500000 -0.937500
v 0.062500 0.000000 -0.062500
v 0.937500 0.000000 -0.062500
v 0.937500 -0.500000 -0.062500
v 0.062500 -0.500000 -0.062500
v 0.062500 0.000000 -0.937500
v 0.062500 0.000000 -0.062500
v 0.062500 -0.500000 -0.062500
v 0.062500 -0.500000 -0.937500
v 0.937500 0.000000 -0.062500
v 0.937500 0.000000 -0.937500
v 0.937500 -0.500000 -0.937500
v 0.937500 -0.500000 -0.062500
v 0.062500 0.000000 -0.937500
v 0.937500 0.000000 -0.937500
v 0.937500 0.000000 -0.062500
v 0.062500 0.000000 -0.062500
v 0.062500 -0.500000 -0.062500
v 0.937500 -0.500000 -0.062500
v 0.937500 -0.500000 -0.937500
v 0.062500 -0.500000 -0.937500
v 0.625000 -0.250000 -0.968750
v 0.375000 -0.250000 -0.968750
v 0.375000 -0.375000 -0.968750
v 0.625000 -0.375000 -0.968750
v 0.375000 -0.250000 -0.968750
v 0.375000 -0.250000 -0.937500
v 0.375000 -0.375000 -0.937500
v 0.375000 -0.375000 -0.968750
v 0.625000 -0.250000 -0.937500
v 0.625000 -0.250000 -0.968750
v 0.625000 -0.375000 -0.968750
v 0.625000 -0.375000 -0.937500
v 0.375000 -0.250000 -0.968750
v 0.625000 -0.250000 -0.968750
v 0.625000 -0.250000 -0.937500
v 0.375000 -0.250000 -0.937500
v 0.375000 -0.375000 -0.937500
v 0.625000 -0.375000 -0.937500
v 0.625000 -0.375000 -0.968750
v 0.375000 -0.375000 -0.968750
v 0.750000 -0.500000 -0.750000
v 0.250000 -0.500000 -0.750000
v 0.250000 -0.625000 -0.750000
v 0.750000 -0.625000 -0.750000
v 0.250000 -0.500000 -0.250000
v 0.750000 -0.500000 -0.250000
v 0.750000 -0.625000 -0.250000
v 0.250000 -0.625000 -0.250000
v 0.250000 -0.500000 -0.750000
v 0.250000 -0.500000 -0.250000
v 0.250000 -0.625000 -0.250000
v 0.250000 -0.625000 -0.750000
v 0.750000 -0.500000 -0.250000
v 0.750000 -0.500000 -0.750000
v 0.750000 -0.625000 -0.750000
v 0.750000 -0.625000 -0.250000
v 0.250000 -0.625000 -0.250000
v 0.750000 -0.625000 -0.250000
v 0.750000 -0.625000 -0.750000
v 0.250000 -0.625000 -0.750000
v 1.250000 -0.625000 -1.000000
v -0.250000 -0.625000 -1.000000
v -0.250000 -0.750000 -1.000000
v 1.250000 -0.750000 -1.000000
v -0.250000 -0.625000 0.000000
v 1.250000 -0.625000 0.000000
v 1.250000 -0.750000 0.000000
v -0.250000 -0.750000 0.000000
v -0.250000 -0.625000 -1.000000
v -0.250000 -0.625000 0.000000
v -0.250000 -0.750000 0.000000
v -0.250000 -0.750000 -1.000000
v 1.250000 -0.625000 0.000000
v 1.250000 -0.625000 -1.000000
v 1.250000 -0.750000 -1.000000
v 1.250000 -0.750000 0.000000
v -0.250000 -0.625000 -1.000000
v 1.250000 -0.625000 -1.000000
v 1.250000 -0.625000 0.000000
v -0.250000 -0.625000 0.000000
v 1.000000 -0.625000 -1.250000
v 0.000000 -0.625000 -1.250000
v 0.000000 -0.750000 -1.250000
v 1.000000 -0.750000 -1.250000
v 0.000000 -0.625000 -1.250000
v 0.000000 -0.625000 -1.000000
v 0.000000 -0.750000 -1.000000
v 0.000000 -0.750000 -1.250000
v 1.000000 -0.625000 -1.000000
v 1.000000 -0.625000 -1.250000
v 1.000000 -0.750000 -1.250000
v 1.000000 -0.750000 -1.000000
v 0.000000 -0.625000 -1.250000
v 1.000000 -0.625000 -1.250000
v 1.000000 -0.625000 -1.000000
v 0.000000 -0.625000 -1.000000
v 0.000000 -0.625000 0.250000
v 1.000000 -0.625000 0.250000
v 1.000000 -0.750000 0.250000
v 0.000000 -0.750000 0.250000
v 0.000000 -0.625000 0.000000
v 0.000000 -0.625000 0.250000
v 0.000000 -0.750000 0.250000
v 0.000000 -0.750000 0.000000
v 1.000000 -0.625000 0.250000
v 1.000000 -0.625000 0.000000
v 1.000000 -0.750000 0.000000
v 1.000000 -0.750000 0.250000
v 0.000000 -0.625000 0.000000
v 1.000000 -0.625000 0.000000
v 1.000000 -0.625000 0.250000
v 0.000000 -0.625000 0.250000
v 1.000000 -0.625000 0.125000
v 1.125000 -0.625000 0.125000
v 1.125000 -0.750000 0.125000
v 1.000000 -0.750000 0.125000
v 1.125000 -0.625000 0.125000
v 1.125000 -0.625000 0.000000
v 1.125000 -0.750000 0.000000
v 1.125000 -0.750000 0.125000
v 1.000000 -0.625000 0.000000
v 1.125000 -0.625000 0.000000
v 1.125000 -0.625000 0.125000
v 1.000000 -0.625000 0.125000
v 1.125000 -0.625000 -1.125000
v 1.000000 -0.625000 -1.125000
v 1.000000 -0.750000 -1.125000
v 1.125000 -0.750000 -1.125000
v 1.125000 -0.625000 -1.000000
v 1.125000 -0.625000 -1.125000
v 1.125000 -0.750000 -1.125000
v 1.125000 -0.750000 -1.000000
v 1.000000 -0.625000 -1.125000
v 1.125000 -0.625000 -1.125000
v 1.125000 -0.625000 -1.000000
v 1.000000 -0.625000 -1.000000
v -0.125000 -0.625000 0.125000
v 0.000000 -0.625000 0.125000
v 0.000000 -0.750000 0.125000
v -0.125000 -0.750000 0.125000
v -0.125000 -0.625000 0.000000
v -0.125000 -0.625000 0.125000
v -0.125000 -0.750000 0.125000
v -0.125000 -0.750000 0.000000
v -0.125000 -0.625000 0.000000
v 0.000000 -0.625000 0.000000
v 0.000000 -0.625000 0.125000
v -0.125000 -0.625000 0.125000
v 0.000000 -0.625000 -1.125000
v -0.125000 -0.625000 -1.125000
v -0.125000 -0.750000 -1.125000
v 0.000000 -0.750000 -1.125000
v -0.125000 -0.625000 -1.125000
v -0.125000 -0.625000 -1.000000
v -0.125000 -0.750000 -1.000000
v -0.125000 -0.750000 -1.125000
v -0.125000 -0.625000 -1.125000
v 0.000000 -0.625000 -1.125000
v 0.000000 -0.625000 -1.000000
v -0.125000 -0.625000 -1.000000
v 1.750000 -0.750000 -1.312500
v -0.750000 -0.750000 -1.312500
v -0.750000 -0.937500 -1.312500
v 1.750000 -0.937500 -1.312500
v -0.750000 -0.750000 0.312500
v 1.750000 -0.750000 0.312500
v 1.750000 -0.937500 0.312500
v -0.750000 -0.937500 0.312500
v -0.750000 -0.750000 -1.312500
v -0.750000 -0.750000 0.312500
v -0.750000 -0.937500 0.312500
v -0.750000 -0.937500 -1.312500
v 1.750000 -0.750000 0.312500
v 1.750000 -0.750000 -1.312500
v 1.750000 -0.937500 -1.312500
v 1.750000 -0.937500 0.312500
v -0.750000 -0.750000 -1.312500
v 1.750000 -0.750000 -1.312500
v 1.750000 -0.750000 0.312500
v -0.750000 -0.750000 0.312500
v -0.750000 -0.937500 0.312500
v 1.750000 -0.937500 0.312500
v 1.750000 -0.937500 -1.312500
v -0.750000 -0.937500 -1.312500
v 1.312500 -0.750000 -1.750000
v -0.312500 -0.750000 -1.750000
v -0.312500 -0.937500 -1.750000
v 1.312500 -0.937500 -1.750000
v -0.312500 -0.750000 -1.750000
v -0.312500 -0.750000 -1.312500
v -0.312500 -0.937500 -1.312500
v -0.312500 -0.937500 -1.750000
v 1.312500 -0.750000 -1.312500
v 1.312500 -0.750000 -1.750000
v 1.312500 -0.937500 -1.750000
v 1.312500 -0.937500 -1.312500
v -0.312500 -0.750000 -1.750000
v 1.312500 -0.750000 -1.750000
v 1.312500 -0.750000 -1.312500
v -0.312500 -0.750000 -1.312500
v -0.312500 -0.937500 -1.312500
v 1.312500 -0.937500 -1.312500
v 1.312500 -0.937500 -1.750000
v -0.312500 -0.937500 -1.750000
v -0.312500 -0.750000 0.750000
v 1.312500 -0.750000 0.750000
v 1.312500 -0.937500 0.750000
v -0.312500 -0.937500 0.750000
v -0.312500 -0.750000 0.312500
v -0.312500 -0.750000 0.750000
v -0.312500 -0.937500 0.750000
v -0.312500 -0.937500 0.312500
v 1.312500 -0.750000 0.750000
v 1.312500 -0.750000 0.312500
v 1.312500 -0.937500 0.312500
v 1.312500 -0.937500 0.750000
v -0.312500 -0.750000 0.312500
v 1.312500 -0.750000 0.312500
v 1.312500 -0.750000 0.750000
v -0.312500 -0.750000 0.750000
v -0.312500 -0.937500 0.750000
v 1.312500 -0.937500 0.750000
v 1.312500 -0.937500 0.312500
v -0.312500 -0.937500 0.312500
v 1.312500 -0.750000 0.531250
v 1.531250 -0.750000 0.531250
v 1.531250 -0.937500 0.531250
v 1.312500 -0.937500 0.531250
v 1.531250 -0.750000 0.531250
v 1.531250 -0.750000 0.312500
v 1.531250 -0.937500 0.312500
v 1.531250 -0.937500 0.531250
v 1.312500 -0.750000 0.312500
v 1.531250 -0.750000 0.312500
v 1.531250 -0.750000 0.531250
v 1.312500 -0.750000 0.531250
v 1.312500 -0.937500 0.531250
v 1.531250 -0.937500 0.531250
v 1.531250 -0.937500 0.312500
v 1.312500 -0.937500 0.312500
v 1.531250 -0.750000 -1.531250
v 1.312500 -0.750000 -1.531250
v 1.312500 -0.937500 -1.531250
v 1.531250 -0.937500 -1.531250
v 1.531250 -0.750000 -1.312500
v 1.531250 -0.750000 -1.531250
v 1.531250 -0.937500 -1.531250
v 1.531250 -0.937500 -1.312500
v 1.312500 -0.750000 -1.531250
v 1.531250 -0.750000 -1.531250
v 1.531250 -0.750000 -1.312500
v 1.312500 -0.750000 -1.312500
v 1.312500 -0.937500 -1.312500
v 1.531250 -0.937500 -1.312500
v 1.531250 -0.937500 -1.531250
v 1.312500 -0.937500 -1.531250
v -0.531250 -0.750000 0.531250
v -0.312500 -0.750000 0.531250
v -0.312500 -0.937500 0.531250
v -0.531250 -0.937500 0.531250
v -0.531250 -0.750000 0.312500
v -0.531250 -0.750000 0.531250
v -0.531250 -0.937500 0.531250
v -0.531250 -0.937500 0.312500
v -0.531250 -0.750000 0.312500
v -0.312500 -0.750000 0.312500
v -0.312500 -0.750000 0.531250
v -0.531250 -0.750000 0.531250
v -0.531250 -0.937500 0.531250
v -0.312500 -0.937500 0.531250
v -0.312500 -0.937500 0.312500
v -0.531250 -0.937500 0.312500
v -0.312500 -0.750000 -1.531250
v -0.531250 -0.750000 -1.531250
v -0.531250 -0.937500 -1.531250
v -0.312500 -0.937500 -1.531250
v -0.531250 -0.750000 -1.531250
v -0.531250 -0.750000 -1.312500
v -0.531250 -0.937500 -1.312500
v -0.531250 -0.937500 -1.531250
v -0.531250 -0.750000 -1.531250
v -0.312500 -0.750000 -1.531250
v -0.312500 -0.750000 -1.312500
v -0.531250 -0.750000 -1.312500
v -0.531250 -0.937500 -1.312500
v -0.312500 -0.937500 -1.312500
v -0.312500 -0.937500 -1.531250
v -0.531250 -0.937500 -1.531250
v -0.250000 -0.937500 -1.625000
v -1.187500 -0.937500 -1.625000
v -1.187500 -1.187500 -1.625000
v -0.250000 -1.187500 -1.625000
v -1.187500 -0.937500 0.625000
v -0.250000 -0.937500 0.625000
v -0.250000 -1.187500 0.625000
v -1.187500 -1.187500 0.625000
v -1.187500 -0.937500 -1.625000
v -1.187500 -0.937500 0.625000
v -1.187500 -1.187500 0.625000
v -1.187500 -1.187500 -1.625000
v -0.250000 -0.937500 0.625000
v -0.250000 -0.937500 -1.625000
v -0.250000 -1.187500 -1.625000
v -0.250000 -1.187500 0.625000
v -1.187500 -0.937500 -1.625000
v -0.250000 -0.937500 -1.625000
v -0.250000 -0.937500 0.625000
v -1.187500 -0.937500 0.625000
v -1.187500 -1.187500 0.625000
v -0.250000 -1.187500 0.625000
v -0.250000 -1.187500 -1.625000
v -1.187500 -1.187500 -1.625000
v 2.187500 -0.937500 -1.625000
v 1.250000 -0.937500 -1.625000
v 1.250000 -1.187500 -1.625000
v 2.187500 -1.187500 -1.625000
v 1.250000 -0.937500 0.625000
v 2.187500 -0.937500 0.625000
v 2.187500 -1.187500 0.625000
v 1.250000 -1.187500 0.625000
v 1.250000 -0.937500 -1.625000
v 1.250000 -0.937500 0.625000
v 1.250000 -1.187500 0.625000
v 1.250000 -1.187500 -1.625000
v 2.187500 -0.937500 0.625000
v 2.187500 -0.937500 -1.625000
v 2.187500 -1.187500 -1.625000
v 2.187500 -1.187500 0.625000
v 1.250000 -0.937500 -1.625000
v 2.187500 -0.937500 -1.625000
v 2.187500 -0.937500 0.625000
v 1.250000 -0.937500 0.625000
v 1.250000 -1.187500 0.625000
v 2.187500 -1.187500 0.625000
v 2.187500 -1.187500 -1.625000
v 1.250000 -1.187500 -1.625000
v 1.625000 -0.937500 -2.187500
v -0.625000 -0.937500 -2.187500
v -0.625000 -1.187500 -2.187500
v 1.625000 -1.187500 -2.187500
v -0.625000 -0.937500 -2.187500
v -0.625000 -0.937500 -1.625000
v -0.625000 -1.187500 -1.625000
v -0.625000 -1.187500 -2.187500
v 1.625000 -0.937500 -1.625000
v 1.625000 -0.937500 -2.187500
v 1.625000 -1.187500 -2.187500
v 1.625000 -1.187500 -1.625000
v -0.625000 -0.937500 -2.187500
v 1.625000 -0.937500 -2.187500
v 1.625000 -0.937500 -1.625000
v -0.625000 -0.937500 -1.625000
v -0.625000 -1.187500 -1.625000
v 1.625000 -1.187500 -1.625000
v 1.625000 -1.187500 -2.187500
v -0.625000 -1.187500 -2.187500
v -0.625000 -0.937500 1.187500
v 1.625000 -0.937500 1.187500
v 1.625000 -1.187500 1.187500
v -0.625000 -1.187500 1.187500
v -0.625000 -0.937500 0.625000
v -0.625000 -0.937500 1.187500
v -0.625000 -1.187500 1.187500
v -0.625000 -1.187500 0.625000
v 1.625000 -0.937500 1.187500
v 1.625000 -0.937500 0.625000
v 1.625000 -1.187500 0.625000
v 1.625000 -1.187500 1.187500
v -0.625000 -0.937500 0.625000
v 1.625000 -0.937500 0.625000
v 1.625000 -0.937500 1.187500
v -0.625000 -0.937500 1.187500
v -0.625000 -1.187500 1.187500
v 1.625000 -1.187500 1.187500
v 1.625000 -1.187500 0.625000
v -0.625000 -1.187500 0.625000
v -0.250000 -0.937500 -1.250000
v 1.250000 -0.937500 -1.250000
v 1.250000 -1.187500 -1.250000
v -0.250000 -1.187500 -1.250000
v -0.250000 -0.937500 -1.625000
v 1.250000 -0.937500 -1.625000
v 1.250000 -0.937500 -1.250000
v -0.250000 -0.937500 -1.250000
v -0.250000 -1.187500 -1.250000
v 1.250000 -1.187500 -1.250000
v 1.250000 -1.187500 -1.625000
v -0.250000 -1.187500 -1.625000
v 1.250000 -0.937500 0.250000
v -0.250000 -0.937500 0.250000
v -0.250000 -1.187500 0.250000
v 1.250000 -1.187500 0.250000
v -0.250000 -0.937500 0.250000
v 1.250000 -0.937500 0.250000
v 1.250000 -0.937500 0.625000
v -0.250000 -0.937500 0.625000
v -0.250000 -1.187500 0.625000
v 1.250000 -1.187500 0.625000
v 1.250000 -1.187500 0.250000
v -0.250000 -1.187500 0.250000
v 1.625000 -0.937500 0.906250
v 1.906250 -0.937500 0.906250
v 1.906250 -1.187500 0.906250
v 1.625000 -1.187500 0.906250
v 1.906250 -0.937500 0.906250
v 1.906250 -0.937500 0.625000
v 1.906250 -1.187500 0.625000
v 1.906250 -1.187500 0.906250
v 1.625000 -0.937500 0.625000
v 1.906250 -0.937500 0.625000
v 1.906250 -0.937500 0.906250
v 1.625000 -0.937500 0.906250
v 1.625000 -1.187500 0.906250
v 1.906250 -1.187500 0.906250
v 1.906250 -1.187500 0.625000
v 1.625000 -1.187500 0.625000
v 1.906250 -0.937500 -1.906250
v 1.625000 -0.937500 -1.906250
v 1.625000 -1.187500 -1.906250
v 1.906250 -1.187500 -1.906250
v 1.906250 -0.937500 -1.625000
v 1.906250 -0.937500 -1.906250
v 1.906250 -1.187500 -1.906250
v 1.906250 -1.187500 -1.625000
v 1.625000 -0.937500 -1.906250
v 1.906250 -0.937500 -1.906250
v 1.906250 -0.937500 -1.625000
v 1.625000 -0.937500 -1.625000
v 1.625000 -1.187500 -1.625000
v 1.906250 -1.187500 -1.625000
v 1.906250 -1.187500 -1.906250
v 1.625000 -1.187500 -1.906250
v -0.906250 -0.937500 0.906250
v -0.625000 -0.937500 0.906250
v -0.625000 -1.187500 0.906250
v -0.906250 -1.187500 0.906250
v -0.906250 -0.937500 0.625000
v -0.906250 -0.937500 0.906250
v -0.906250 -1.187500 0.906250
v -0.906250 -1.187500 0.625000
v -0.906250 -0.937500 0.625000
v -0.625000 -0.937500 0.625000
v -0.625000 -0.937500 0.906250
v -0.906250 -0.937500 0.906250
v -0.906250 -1.187500 0.906250
v -0.625000 -1.187500 0.906250
v -0.625000 -1.187500 0.625000
v -0.906250 -1.187500 0.625000
v -0.625000 -0.937500 -1.906250
v -0.906250 -0.937500 -1.906250
v -0.906250 -1.187500 -1.906250
v -0.625000 -1.187500 -1.906250
v -0.906250 -0.937500 -1.906250
v -0.906250 -0.937500 -1.625000
v -0.906250 -1.187500 -1.625000
v -0.906250 -1.187500 -1.906250
v -0.906250 -0.937500 -1.906250
v -0.625000 -0.937500 -1.906250
v -0.625000 -0.937500 -1.625000
v -0.906250 -0.937500 -1.625000
v -0.906250 -1.187500 -1.625000
v -0.625000 -1.187500 -1.625000
v -0.625000 -1.187500 -1.906250
v -0.906250 -1.187500 -1.906250
v -0.687500 -1.187500 -1.812500
v -1.468750 -1.187500 -1.812500
v -1.468750 -1.437500 -1.812500
v -0.687500 -1.437500 -1.812500
v -1.468750 -1.187500 0.812500
v -0.687500 -1.187500 0.812500
v -0.687500 -1.437500 0.812500
v -1.468750 -1.437500 0.812500
v -1.468750 -1.187500 -1.812500
v -1.468750 -1.187500 0.812500
v -1.468750 -1.437500 0.812500
v -1.468750 -1.437500 -1.812500
v -0.687500 -1.187500 0.812500
v -0.687500 -1.187500 -1.812500
v -0.687500 -1.437500 -1.812500
v -0.687500 -1.437500 0.812500
v -1.468750 -1.187500 -1.812500
v -0.687500 -1.187500 -1.812500
v -0.687500 -1.187500 0.812500
v -1.468750 -1.187500 0.812500
v -1.468750 -1.437500 0.812500
v -0.687500 -1.437500 0.812500
v -0.687500 -1.437500 -1.812500
v -1.468750 -1.437500 -1.812500
v 2.468750 -1.187500 -1.812500
v 1.687500 -1.187500 -1.812500
v 1.687500 -1.437500 -1.812500
v 2.468750 -1.437500 -1.812500
v 1.687500 -1.187500 0.812500
v 2.468750 -1.187500 0.812500
v 2.468750 -1.437500 0.812500
v 1.687500 -1.437500 0.812500
v 1.687500 -1.187500 -1.812500
v 1.687500 -1.187500 0.812500
v 1.687500 -1.437500 0.812500
v 1.687500 -1.437500 -1.812500
v 2.468750 -1.187500 0.812500
v 2.468750 -1.187500 -1.812500
v 2.468750 -1.437500 -1.812500
v 2.468750 -1.437500 0.812500
v 1.687500 -1.187500 -1.812500
v 2.468750 -1.187500 -1.812500
v 2.468750 -1.187500 0.812500
v 1.687500 -1.187500 0.812500
v 1.687500 -1.437500 0.812500
v 2.468750 -1.437500 0.812500
v 2.468750 -1.437500 -1.812500
v 1.687500 -1.437500 -1.812500
v 1.812500 -1.187500 -2.468750
v -0.812500 -1.187500 -2.468750
v -0.812500 -1.437500 -2.468750
v 1.812500 -1.437500 -2.468750
v -0.812500 -1.187500 -2.468750
v -0.812500 -1.187500 -1.812500
v -0.812500 -1.437500 -1.812500
v -0.812500 -1.437500 -2.468750
v 1.812500 -1.187500 -1.812500
v 1.812500 -1.187500 -2.468750
v 1.812500 -1.437500 -2.468750
v 1.812500 -1.437500 -1.812500
v -0.812500 -1.187500 -2.468750
v 1.812500 -1.187500 -2.468750
v 1.812500 -1.187500 -1.812500
v -0.812500 -1.187500 -1.812500
v -0.812500 -1.437500 -1.812500
v 1.812500 -1.437500 -1.812500
v 1.812500 -1.437500 -2.468750
v -0.812500 -1.437500 -2.468750
v -0.812500 -1.187500 1.468750
v 1.812500 -1.187500 1.468750
v 1.812500 -1.437500 1.468750
v -0.812500 -1.437500 1.468750
v -0.812500 -1.187500 0.812500
v -0.812500 -1.187500 1.468750
v -0.812500 -1.437500 1.468750
v -0.812500 -1.437500 0.812500
v 1.812500 -1.187500 1.468750
v 1.812500 -1.187500 0.812500
v 1.812500 -1.437500 0.812500
v 1.812500 -1.437500 1.468750
v -0.812500 -1.187500 0.812500
v 1.812500 -1.187500 0.812500
v 1.812500 -1.187500 1.468750
v -0.812500 -1.187500 1.468750
v -0.812500 -1.437500 1.468750
v 1.812500 -1.437500 1.468750
v 1.812500 -1.437500 0.812500
v -0.812500 -1.437500 0.812500
v -0.687500 -1.187500 -1.687500
v 1.687500 -1.187500 -1.687500
v 1.687500 -1.437500 -1.687500
v -0.687500 -1.437500 -1.687500
v -0.687500 -1.187500 -1.812500
v 1.687500 -1.187500 -1.812500
v 1.687500 -1.187500 -1.687500
v -0.687500 -1.187500 -1.687500
v -0.687500 -1.437500 -1.687500
v 1.687500 -1.437500 -1.687500
v 1.687500 -1.437500 -1.812500
v -0.687500 -1.437500 -1.812500
v 1.687500 -1.187500 0.687500
v -0.687500 -1.187500 0.687500
v -0.687500 -1.437500 0.687500
v 1.687500 -1.437500 0.687500
v -0.687500 -1.187500 0.687500
v 1.687500 -1.187500 0.687500
v 1.687500 -1.187500 0.812500
v -0.687500 -1.187500 0.812500
v -0.687500 -1.437500 0.812500
v 1.687500 -1.437500 0.812500
v 1.687500 -1.437500 0.687500
v -0.687500 -1.437500 0.687500
v 1.812500 -1.187500 1.140625
v 2.140625 -1.187500 1.140625
v 2.140625 -1.437500 1.140625
v 1.812500 -1.437500 1.140625
v 2.140625 -1.187500 1.140625
v 2.140625 -1.187500 0.812500
v 2.140625 -1.437500 0.812500
v 2.140625 -1.437500 1.140625
v 1.812500 -1.187500 0.812500
v 2.140625 -1.187500 0.812500
v 2.140625 -1.187500 1.140625
v 1.812500 -1.187500 1.140625
v 1.812500 -1.437500 1.140625
v 2.140625 -1.437500 1.140625
v 2.140625 -1.437500 0.812500
v 1.812500 -1.437500 0.812500
v 2.140625 -1.187500 -2.140625
v 1.812500 -1.187500 -2.140625
v 1.812500 -1.437500 -2.140625
v 2.140625 -1.437500 -2.140625
v 2.140625 -1.187500 -1.812500
v 2.140625 -1.187500 -2.140625
v 2.140625 -1.437500 -2.140625
v 2.140625 -1.437500 -1.812500
v 1.812500 -1.187500 -2.140625
v 2.140625 -1.187500 -2.140625
v 2.140625 -1.187500 -1.812500
v 1.812500 -1.187500 -1.812500
v 1.812500 -1.437500 -1.812500
v 2.140625 -1.437500 -1.812500
v 2.140625 -1.437500 -2.140625
v 1.812500 -1.437500 -2.140625
v -1.140625 -1.187500 1.140625
v -0.812500 -1.187500 1.140625
v -0.812500 -1.437500 1.140625
v -1.140625 -1.437500 1.140625
v -1.140625 -1.187500 0.812500
v -1.140625 -1.187500 1.140625
v -1.140625 -1.437500 1.140625
v -1.140625 -1.437500 0.812500
v -1.140625 -1.187500 0.812500
v -0.812500 -1.187500 0.812500
v -0.812500 -1.187500 1.140625
v -1.140625 -1.187500 1.140625
v -1.140625 -1.437500 1.140625
v -0.812500 -1.437500 1.140625
v -0.812500 -1.437500 0.812500
v -1.140625 -1.437500 0.812500
v -0.812500 -1.187500 -2.140625
v -1.140625 -1.187500 -2.140625
v -1.140625 -1.437500 -2.140625
v -0.812500 -1.437500 -2.140625
v -1.140625 -1.187500 -2.140625
v -1.140625 -1.187500 -1.812500
v -1.140625 -1.437500 -1.812500
v -1.140625 -1.437500 -2.140625
v -1.140625 -1.187500 -2.140625
v -0.812500 -1.187500 -2.140625
v -0.812500 -1.187500 -1.812500
v -1.140625 -1.187500 -1.812500
v -1.140625 -1.437500 -1.812500
v -0.812500 -1.437500 -1.812500
v -0.812500 -1.437500 -2.140625
v -1.140625 -1.437500 -2.140625
v 0.625000 -0.937500 -0.625000
v 0.375000 -0.937500 -0.625000
v 0.375000 -2.250000 -0.625000
v 0.625000 -2.250000 -0.625000
v 0.375000 -0.937500 -0.375000
v 0.625000 -0.937500 -0.375000
v 0.625000 -2.250000 -0.375000
v 0.375000 -2.250000 -0.375000
v 0.375000 -0.937500 -0.625000
v 0.375000 -0.937500 -0.375000
v 0.375000 -2.250000 -0.375000
v 0.375000 -2.250000 -0.625000
v 0.625000 -0.937500 -0.375000
v 0.625000 -0.937500 -0.625000
v 0.625000 -2.250000 -0.625000
v 0.625000 -2.250000 -0.375000
v 0.593750 -0.937500 -1.343750
v 0.406250 -0.937500 -1.343750
v 0.406250 -2.250000 -1.343750
v 0.593750 -2.250000 -1.343750
v 0.406250 -0.937500 -1.156250
v 0.593750 -0.937500 -1.156250
v 0.593750 -2.250000 -1.156250
v 0.406250 -2.250000 -1.156250
v 0.406250 -0.937500 -1.343750
v 0.406250 -0.937500 -1.156250
v 0.406250 -2.250000 -1.156250
v 0.406250 -2.250000 -1.343750
v 0.593750 -0.937500 -1.156250
v 0.593750 -0.937500 -1.343750
v 0.593750 -2.250000 -1.343750
v 0.593750 -2.250000 -1.156250
v 0.406250 -2.250000 -1.156250
v 0.593750 -2.250000 -1.156250
v 0.593750 -2.250000 -1.343750
v 0.406250 -2.250000 -1.343750
v 0.593750 -0.937500 0.156250
v 0.406250 -0.937500 0.156250
v 0.406250 -2.250000 0.156250
v 0.593750 -2.250000 0.156250
v 0.406250 -0.937500 0.343750
v 0.593750 -0.937500 0.343750
v 0.593750 -2.250000 0.343750
v 0.406250 -2.250000 0.343750
v 0.406250 -0.937500 0.156250
v 0.406250 -0.937500 0.343750
v 0.406250 -2.250000 0.343750
v 0.406250 -2.250000 0.156250
v 0.593750 -0.937500 0.343750
v 0.593750 -0.937500 0.156250
v 0.593750 -2.250000 0.156250
v 0.593750 -2.250000 0.343750
v 0.406250 -2.250000 0.343750
v 0.593750 -2.250000 0.343750
v 0.593750 -2.250000 0.156250
v 0.406250 -2.250000 0.156250
v -0.156250 -0.937500 -0.593750
v -0.343750 -0.937500 -0.593750
v -0.343750 -2.250000 -0.593750
v -0.156250 -2.250000 -0.593750
v -0.343750 -0.937500 -0.406250
v -0.156250 -0.937500 -0.406250
v -0.156250 -2.250000 -0.406250
v -0.343750 -2.250000 -0.406250
v -0.343750 -0.937500 -0.593750
v -0.343750 -0.937500 -0.406250
v -0.343750 -2.250000 -0.406250
v -0.343750 -2.250000 -0.593750
v -0.156250 -0.937500 -0.406250
v -0.156250 -0.937500 -0.593750
v -0.156250 -2.250000 -0.593750
v -0.156250 -2.250000 -0.406250
v -0.343750 -2.250000 -0.406250
v -0.156250 -2.250000 -0.406250
v -0.156250 -2.250000 -0.593750
v -0.343750 -2.250000 -0.593750
v 1.343750 -0.937500 -0.593750
v 1.156250 -0.937500 -0.593750
v 1.156250 -2.250000 -0.593750
v 1.343750 -2.250000 -0.593750
v 1.156250 -0.937500 -0.406250
v 1.343750 -0.937500 -0.406250
v 1.343750 -2.250000 -0.406250
v 1.156250 -2.250000 -0.406250
v 1.156250 -0.937500 -0.593750
v 1.156250 -0.937500 -0.406250
v 1.156250 -2.250000 -0.406250
v 1.156250 -2.250000 -0.593750
v 1.343750 -0.937500 -0.406250
v 1.343750 -0.937500 -0.593750
v 1.343750 -2.250000 -0.593750
v 1.343750 -2.250000 -0.406250
v 1.156250 -2.250000 -0.406250
v 1.343750 -2.250000 -0.406250
v 1.343750 -2.250000 -0.593750
v 1.156250 -2.250000 -0.593750
v 1.343750 -2.250000 -0.593750
v -0.343750 -2.250000 -0.593750
v -0.343750 -2.375000 -0.593750
v 1.343750 -2.375000 -0.593750
v -0.343750 -2.250000 -0.406250
v 1.343750 -2.250000 -0.406250
v 1.343750 -2.375000 -0.406250
v -0.343750 -2.375000 -0.406250
v -0.343750 -2.250000 -0.593750
v -0.343750 -2.250000 -0.406250
v -0.343750 -2.375000 -0.406250
v -0.343750 -2.375000 -0.593750
v 1.343750 -2.250000 -0.406250
v 1.343750 -2.250000 -0.593750
v 1.343750 -2.375000 -0.593750
v 1.343750 -2.375000 -0.406250
v -0.343750 -2.250000 -0.593750
v 1.343750 -2.250000 -0.593750
v 1.343750 -2.250000 -0.406250
v -0.343750 -2.250000 -0.406250
v -0.343750 -2.375000 -0.406250
v 1.343750 -2.375000 -0.406250
v 1.343750 -2.375000 -0.593750
v -0.343750 -2.375000 -0.593750
v 0.593750 -2.250000 -1.343750
v 0.406250 -2.250000 -1.343750
v 0.406250 -2.375000 -1.343750
v 0.593750 -2.375000 -1.343750
v 0.406250 -2.250000 0.343750
v 0.593750 -2.250000 0.343750
v 0.593750 -2.375000 0.343750
v 0.406250 -2.375000 0.343750
v 0.406250 -2.250000 -1.343750
v 0.593750 -2.250000 -1.343750
v 0.593750 -2.250000 0.343750
v 0.406250 -2.250000 0.343750
v 0.406250 -2.375000 0.343750
v 0.593750 -2.375000 0.343750
v 0.593750 -2.375000 -1.343750
v 0.406250 -2.375000 -1.343750
v 0.812500 -2.375000 -0.812500
v 0.187500 -2.375000 -0.812500
v 0.187500 -2.750000 -0.812500
v 0.812500 -2.750000 -0.812500
v 0.187500 -2.375000 -0.187500
v 0.812500 -2.375000 -0.187500
v 0.812500 -2.750000 -0.187500
v 0.187500 -2.750000 -0.187500
v 0.187500 -2.375000 -0.812500
v 0.187500 -2.375000 -0.187500
v 0.187500 -2.750000 -0.187500
v 0.187500 -2.750000 -0.812500
v 0.812500 -2.375000 -0.187500
v 0.812500 -2.375000 -0.812500
v 0.812500 -2.750000 -0.812500
v 0.812500 -2.750000 -0.187500
v 0.187500 -2.375000 -0.812500
v 0.812500 -2.375000 -0.812500
v 0.812500 -2.375000 -0.187500
v 0.187500 -2.375000 -0.187500
v 0.187500 -2.750000 -0.187500
v 0.812500 -2.750000 -0.187500
v 0.812500 -2.750000 -0.812500
v 0.187500 -2.750000 -0.812500
v 0.843750 -2.500000 -0.843750
v 0.156250 -2.500000 -0.843750
v 0.156250 -2.625000 -0.843750
v 0.843750 -2.625000 -0.843750
v 0.156250 -2.500000 -0.156250
v 0.843750 -2.500000 -0.156250
v 0.843750 -2.625000 -0.156250
v 0.156250 -2.625000 -0.156250
v 0.156250 -2.500000 -0.843750
v 0.156250 -2.500000 -0.156250
v 0.156250 -2.625000 -0.156250
v 0.156250 -2.625000 -0.843750
v 0.843750 -2.500000 -0.156250
v 0.843750 -2.500000 -0.843750
v 0.843750 -2.625000 -0.843750
v 0.843750 -2.625000 -0.156250
v 0.625000 -2.750000 -0.625000
v 0.375000 -2.750000 -0.625000
v 0.375000 -3.187500 -0.625000
v 0.625000 -3.187500 -0.625000
v 0.375000 -2.750000 -0.375000
v 0.625000 -2.750000 -0.375000
v 0.625000 -3.187500 -0.375000
v 0.375000 -3.187500 -0.375000
v 0.375000 -2.750000 -0.625000
v 0.375000 -2.750000 -0.375000
v 0.375000 -3.187500 -0.375000
v 0.375000 -3.187500 -0.625000
v 0.625000 -2.750000 -0.375000
v 0.625000 -2.750000 -0.625000
v 0.625000 -3.187500 -0.625000
v 0.625000 -3.187500 -0.375000
v 0.375000 -3.187500 -0.375000
v 0.625000 -3.187500 -0.375000
v 0.625000 -3.187500 -0.625000
v 0.375000 -3.187500 -0.625000
v 0.562500 -3.187500 -0.562500
v 0.437500 -3.187500 -0.562500
v 0.437500 -3.562500 -0.562500
v 0.562500 -3.562500 -0.562500
v 0.437500 -3.187500 -0.437500
v 0.562500 -3.187500 -0.437500
v 0.562500 -3.562500 -0.437500
v 0.437500 -3.562500 -0.437500
v 0.437500 -3.187500 -0.562500
v 0.437500 -3.187500 -0.437500
v 0.437500 -3.562500 -0.437500
v 0.437500 -3.562500 -0.562500
v 0.562500 -3.187500 -0.437500
v 0.562500 -3.187500 -0.562500
v 0.562500 -3.562500 -0.562500
v 0.562500 -3.562500 -0.437500
v 0.437500 -3.562500 -0.437500
v 0.562500 -3.562500 -0.437500
v 0.562500 -3.562500 -0.562500
v 0.437500 -3.562500 -0.562500
v 0.406250 -2.246000 -1.343750
v 0.406250 -2.246000 0.343750
v 0.593750 -2.246000 0.343750
v 0.593750 -2.246000 -1.343750
v 0.406250 -2.379000 0.343750
v 0.406250 -2.379000 -1.343750
v 0.593750 -2.379000 -1.343750
v 0.593750 -2.379000 0.343750
vt 0.765625 0.468750
vt 0.875000 0.468750
vt 0.875000 0.406250
vt 0.765625 0.406250
vt 0.765625 0.468750
vt 0.875000 0.468750
vt 0.875000 0.406250
vt 0.765625 0.406250
vt 0.765625 0.468750
vt 0.875000 0.468750
vt 0.875000 0.406250
vt 0.765625 0.406250
vt 0.765625 0.468750
vt 0.875000 0.468750
vt 0.875000 0.406250
vt 0.765625 0.406250
vt 0.828125 1.000000
vt 0.937500 1.000000
vt 0.937500 0.890625
vt 0.828125 0.890625
vt 0.500000 0.671875
vt 0.609375 0.671875
vt 0.609375 0.562500
vt 0.500000 0.562500
vt 0.085938 0.195312
vt 0.117188 0.195312
vt 0.117188 0.179688
vt 0.085938 0.179688
vt 0.992188 0.265625
vt 1.000000 0.265625
vt 1.000000 0.250000
vt 0.992188 0.250000
vt 0.992188 0.265625
vt 1.000000 0.265625
vt 1.000000 0.250000
vt 0.992188 0.250000
vt 0.203125 0.195312
vt 0.234375 0.195312
vt 0.234375 0.187500
vt 0.203125 0.187500
vt 0.203125 0.195312
vt 0.234375 0.195312
vt 0.234375 0.187500
vt 0.203125 0.187500
vt 0.929688 0.210938
vt 0.992188 0.210938
vt 0.992188 0.195312
vt 0.929688 0.195312
vt 0.929688 0.210938
vt 0.992188 0.210938
vt 0.992188 0.195312
vt 0.929688 0.195312
vt 0.929688 0.210938
vt 0.992188 0.210938
vt 0.992188 0.195312
vt 0.929688 0.195312
vt 0.929688 0.210938
vt 0.992188 0.210938
vt 0.992188 0.195312
vt 0.929688 0.195312
vt 0.937500 1.000000
vt 1.000000 1.000000
vt 1.000000 0.937500
vt 0.937500 0.937500
vt 0.804688 0.234375
vt 0.992188 0.234375
vt 0.992188 0.218750
vt 0.804688 0.218750
vt 0.804688 0.234375
vt 0.992188 0.234375
vt 0.992188 0.218750
vt 0.804688 0.218750
vt 0.804688 0.210938
vt 0.929688 0.210938
vt 0.929688 0.195312
vt 0.804688 0.195312
vt 0.804688 0.210938
vt 0.929688 0.210938
vt 0.929688 0.195312
vt 0.804688 0.195312
vt 0.312500 0.671875
vt 0.500000 0.671875
vt 0.500000 0.546875
vt 0.312500 0.546875
vt 0.804688 0.210938
vt 0.929688 0.210938
vt 0.929688 0.195312
vt 0.804688 0.195312
vt 0.117188 0.195312
vt 0.148438 0.195312
vt 0.148438 0.179688
vt 0.117188 0.179688
vt 0.117188 0.195312
vt 0.148438 0.195312
vt 0.148438 0.179688
vt 0.117188 0.179688
vt 0.281250 0.265625
vt 0.406250 0.265625
vt 0.406250 0.234375
vt 0.281250 0.234375
vt 0.804688 0.210938
vt 0.929688 0.210938
vt 0.929688 0.195312
vt 0.804688 0.195312
vt 0.117188 0.195312
vt 0.148438 0.195312
vt 0.148438 0.179688
vt 0.117188 0.179688
vt 0.117188 0.195312
vt 0.148438 0.195312
vt 0.148438 0.179688
vt 0.117188 0.179688
vt 0.281250 0.265625
vt 0.406250 0.265625
vt 0.406250 0.234375
vt 0.281250 0.234375
vt 0.984375 0.671875
vt 1.000000 0.671875
vt 1.000000 0.656250
vt 0.984375 0.656250
vt 0.984375 0.671875
vt 1.000000 0.671875
vt 1.000000 0.656250
vt 0.984375 0.656250
vt 0.171875 0.195312
vt 0.187500 0.195312
vt 0.187500 0.179688
vt 0.171875 0.179688
vt 0.984375 0.671875
vt 1.000000 0.671875
vt 1.000000 0.656250
vt 0.984375 0.656250
vt 0.984375 0.671875
vt 1.000000 0.671875
vt 1.000000 0.656250
vt 0.984375 0.656250
vt 0.171875 0.195312
vt 0.187500 0.195312
vt 0.187500 0.179688
vt 0.171875 0.179688
vt 0.984375 0.671875
vt 1.000000 0.671875
vt 1.000000 0.656250
vt 0.984375 0.656250
vt 0.984375 0.671875
vt 1.000000 0.671875
vt 1.000000 0.656250
vt 0.984375 0.656250
vt 0.171875 0.195312
vt 0.187500 0.195312
vt 0.187500 0.179688
vt 0.171875 0.179688
vt 0.984375 0.671875
vt 1.000000 0.671875
vt 1.000000 0.656250
vt 0.984375 0.656250
vt 0.984375 0.671875
vt 1.000000 0.671875
vt 1.000000 0.656250
vt 0.984375 0.656250
vt 0.171875 0.195312
vt 0.187500 0.195312
vt 0.187500 0.179688
vt 0.171875 0.179688
vt 0.000000 0.234375
vt 0.312500 0.234375
vt 0.312500 0.210938
vt 0.000000 0.210938
vt 0.000000 0.234375
vt 0.312500 0.234375
vt 0.312500 0.210938
vt 0.000000 0.210938
vt 0.523438 0.234375
vt 0.726562 0.234375
vt 0.726562 0.210938
vt 0.523438 0.210938
vt 0.523438 0.234375
vt 0.726562 0.234375
vt 0.726562 0.210938
vt 0.523438 0.210938
vt 0.460938 1.000000
vt 0.773438 1.000000
vt 0.773438 0.796875
vt 0.460938 0.796875
vt 0.000000 0.671875
vt 0.312500 0.671875
vt 0.312500 0.468750
vt 0.000000 0.468750
vt 0.523438 0.234375
vt 0.726562 0.234375
vt 0.726562 0.210938
vt 0.523438 0.210938
vt 0.726562 0.234375
vt 0.781250 0.234375
vt 0.781250 0.210938
vt 0.726562 0.210938
vt 0.726562 0.234375
vt 0.781250 0.234375
vt 0.781250 0.210938
vt 0.726562 0.210938
vt 0.281250 0.382812
vt 0.484375 0.382812
vt 0.484375 0.328125
vt 0.281250 0.328125
vt 0.484375 0.382812
vt 0.687500 0.382812
vt 0.687500 0.328125
vt 0.484375 0.328125
vt 0.523438 0.234375
vt 0.726562 0.234375
vt 0.726562 0.210938
vt 0.523438 0.210938
vt 0.726562 0.234375
vt 0.781250 0.234375
vt 0.781250 0.210938
vt 0.726562 0.210938
vt 0.726562 0.234375
vt 0.781250 0.234375
vt 0.781250 0.210938
vt 0.726562 0.210938
vt 0.281250 0.382812
vt 0.484375 0.382812
vt 0.484375 0.328125
vt 0.281250 0.328125
vt 0.484375 0.382812
vt 0.687500 0.382812
vt 0.687500 0.328125
vt 0.484375 0.328125
vt 0.960938 0.265625
vt 0.992188 0.265625
vt 0.992188 0.242188
vt 0.960938 0.242188
vt 0.960938 0.265625
vt 0.992188 0.265625
vt 0.992188 0.242188
vt 0.960938 0.242188
vt 0.867188 0.265625
vt 0.898438 0.265625
vt 0.898438 0.234375
vt 0.867188 0.234375
vt 0.898438 0.265625
vt 0.929688 0.265625
vt 0.929688 0.234375
vt 0.898438 0.234375
vt 0.960938 0.265625
vt 0.992188 0.265625
vt 0.992188 0.242188
vt 0.960938 0.242188
vt 0.960938 0.265625
vt 0.992188 0.265625
vt 0.992188 0.242188
vt 0.960938 0.242188
vt 0.867188 0.265625
vt 0.898438 0.265625
vt 0.898438 0.234375
vt 0.867188 0.234375
vt 0.898438 0.265625
vt 0.929688 0.265625
vt 0.929688 0.234375
vt 0.898438 0.234375
vt 0.960938 0.265625
vt 0.992188 0.265625
vt 0.992188 0.242188
vt 0.960938 0.242188
vt 0.960938 0.265625
vt 0.992188 0.265625
vt 0.992188 0.242188
vt 0.960938 0.242188
vt 0.867188 0.265625
vt 0.898438 0.265625
vt 0.898438 0.234375
vt 0.867188 0.234375
vt 0.898438 0.265625
vt 0.929688 0.265625
vt 0.929688 0.234375
vt 0.898438 0.234375
vt 0.960938 0.265625
vt 0.992188 0.265625
vt 0.992188 0.242188
vt 0.960938 0.242188
vt 0.960938 0.265625
vt 0.992188 0.265625
vt 0.992188 0.242188
vt 0.960938 0.242188
vt 0.867188 0.265625
vt 0.898438 0.265625
vt 0.898438 0.234375
vt 0.867188 0.234375
vt 0.898438 0.265625
vt 0.929688 0.265625
vt 0.929688 0.234375
vt 0.898438 0.234375
vt 0.406250 0.265625
vt 0.523438 0.265625
vt 0.523438 0.234375
vt 0.406250 0.234375
vt 0.406250 0.265625
vt 0.523438 0.265625
vt 0.523438 0.234375
vt 0.406250 0.234375
vt 0.000000 0.265625
vt 0.281250 0.265625
vt 0.281250 0.234375
vt 0.000000 0.234375
vt 0.000000 0.265625
vt 0.281250 0.265625
vt 0.281250 0.234375
vt 0.000000 0.234375
vt 0.203125 1.000000
vt 0.320312 1.000000
vt 0.320312 0.718750
vt 0.203125 0.718750
vt 0.320312 1.000000
vt 0.437500 1.000000
vt 0.437500 0.718750
vt 0.320312 0.718750
vt 0.406250 0.265625
vt 0.523438 0.265625
vt 0.523438 0.234375
vt 0.406250 0.234375
vt 0.406250 0.265625
vt 0.523438 0.265625
vt 0.523438 0.234375
vt 0.406250 0.234375
vt 0.000000 0.265625
vt 0.281250 0.265625
vt 0.281250 0.234375
vt 0.000000 0.234375
vt 0.000000 0.265625
vt 0.281250 0.265625
vt 0.281250 0.234375
vt 0.000000 0.234375
vt 0.203125 1.000000
vt 0.320312 1.000000
vt 0.320312 0.718750
vt 0.203125 0.718750
vt 0.320312 1.000000
vt 0.437500 1.000000
vt 0.437500 0.718750
vt 0.320312 0.718750
vt 0.000000 0.265625
vt 0.281250 0.265625
vt 0.281250 0.234375
vt 0.000000 0.234375
vt 0.710938 0.265625
vt 0.781250 0.265625
vt 0.781250 0.234375
vt 0.710938 0.234375
vt 0.710938 0.265625
vt 0.781250 0.265625
vt 0.781250 0.234375
vt 0.710938 0.234375
vt 0.484375 0.468750
vt 0.765625 0.468750
vt 0.765625 0.398438
vt 0.484375 0.398438
vt 0.000000 0.382812
vt 0.281250 0.382812
vt 0.281250 0.312500
vt 0.000000 0.312500
vt 0.000000 0.265625
vt 0.281250 0.265625
vt 0.281250 0.234375
vt 0.000000 0.234375
vt 0.710938 0.265625
vt 0.781250 0.265625
vt 0.781250 0.234375
vt 0.710938 0.234375
vt 0.710938 0.265625
vt 0.781250 0.265625
vt 0.781250 0.234375
vt 0.710938 0.234375
vt 0.484375 0.468750
vt 0.765625 0.468750
vt 0.765625 0.398438
vt 0.484375 0.398438
vt 0.000000 0.382812
vt 0.281250 0.382812
vt 0.281250 0.312500
vt 0.000000 0.312500
vt 0.812500 0.312500
vt 1.000000 0.312500
vt 1.000000 0.281250
vt 0.812500 0.281250
vt 0.687500 0.382812
vt 0.875000 0.382812
vt 0.875000 0.335938
vt 0.687500 0.335938
vt 0.000000 0.312500
vt 0.187500 0.312500
vt 0.187500 0.265625
vt 0.000000 0.265625
vt 0.812500 0.312500
vt 1.000000 0.312500
vt 1.000000 0.281250
vt 0.812500 0.281250
vt 0.687500 0.382812
vt 0.875000 0.382812
vt 0.875000 0.335938
vt 0.687500 0.335938
vt 0.000000 0.312500
vt 0.187500 0.312500
vt 0.187500 0.265625
vt 0.000000 0.265625
vt 0.828125 0.265625
vt 0.867188 0.265625
vt 0.867188 0.234375
vt 0.828125 0.234375
vt 0.828125 0.265625
vt 0.867188 0.265625
vt 0.867188 0.234375
vt 0.828125 0.234375
vt 0.921875 0.382812
vt 0.960938 0.382812
vt 0.960938 0.343750
vt 0.921875 0.343750
vt 0.960938 0.382812
vt 1.000000 0.382812
vt 1.000000 0.343750
vt 0.960938 0.343750
vt 0.828125 0.265625
vt 0.867188 0.265625
vt 0.867188 0.234375
vt 0.828125 0.234375
vt 0.828125 0.265625
vt 0.867188 0.265625
vt 0.867188 0.234375
vt 0.828125 0.234375
vt 0.921875 0.382812
vt 0.960938 0.382812
vt 0.960938 0.343750
vt 0.921875 0.343750
vt 0.960938 0.382812
vt 1.000000 0.382812
vt 1.000000 0.343750
vt 0.960938 0.343750
vt 0.828125 0.265625
vt 0.867188 0.265625
vt 0.867188 0.234375
vt 0.828125 0.234375
vt 0.828125 0.265625
vt 0.867188 0.265625
vt 0.867188 0.234375
vt 0.828125 0.234375
vt 0.921875 0.382812
vt 0.960938 0.382812
vt 0.960938 0.343750
vt 0.921875 0.343750
vt 0.960938 0.382812
vt 1.000000 0.382812
vt 1.000000 0.343750
vt 0.960938 0.343750
vt 0.828125 0.265625
vt 0.867188 0.265625
vt 0.867188 0.234375
vt 0.828125 0.234375
vt 0.828125 0.265625
vt 0.867188 0.265625
vt 0.867188 0.234375
vt 0.828125 0.234375
vt 0.921875 0.382812
vt 0.960938 0.382812
vt 0.960938 0.343750
vt 0.921875 0.343750
vt 0.960938 0.382812
vt 1.000000 0.382812
vt 1.000000 0.343750
vt 0.960938 0.343750
vt 0.523438 0.265625
vt 0.625000 0.265625
vt 0.625000 0.234375
vt 0.523438 0.234375
vt 0.523438 0.265625
vt 0.625000 0.265625
vt 0.625000 0.234375
vt 0.523438 0.234375
vt 0.187500 0.312500
vt 0.515625 0.312500
vt 0.515625 0.281250
vt 0.187500 0.281250
vt 0.187500 0.312500
vt 0.515625 0.312500
vt 0.515625 0.281250
vt 0.187500 0.281250
vt 0.000000 1.000000
vt 0.101562 1.000000
vt 0.101562 0.671875
vt 0.000000 0.671875
vt 0.101562 1.000000
vt 0.203125 1.000000
vt 0.203125 0.671875
vt 0.101562 0.671875
vt 0.523438 0.265625
vt 0.625000 0.265625
vt 0.625000 0.234375
vt 0.523438 0.234375
vt 0.523438 0.265625
vt 0.625000 0.265625
vt 0.625000 0.234375
vt 0.523438 0.234375
vt 0.187500 0.312500
vt 0.515625 0.312500
vt 0.515625 0.281250
vt 0.187500 0.281250
vt 0.187500 0.312500
vt 0.515625 0.312500
vt 0.515625 0.281250
vt 0.187500 0.281250
vt 0.000000 1.000000
vt 0.101562 1.000000
vt 0.101562 0.671875
vt 0.000000 0.671875
vt 0.101562 1.000000
vt 0.203125 1.000000
vt 0.203125 0.671875
vt 0.101562 0.671875
vt 0.187500 0.312500
vt 0.515625 0.312500
vt 0.515625 0.281250
vt 0.187500 0.281250
vt 0.625000 0.265625
vt 0.710938 0.265625
vt 0.710938 0.234375
vt 0.625000 0.234375
vt 0.625000 0.265625
vt 0.710938 0.265625
vt 0.710938 0.234375
vt 0.625000 0.234375
vt 0.609375 0.671875
vt 0.937500 0.671875
vt 0.937500 0.585938
vt 0.609375 0.585938
vt 0.000000 0.468750
vt 0.328125 0.468750
vt 0.328125 0.382812
vt 0.000000 0.382812
vt 0.187500 0.312500
vt 0.515625 0.312500
vt 0.515625 0.281250
vt 0.187500 0.281250
vt 0.625000 0.265625
vt 0.710938 0.265625
vt 0.710938 0.234375
vt 0.625000 0.234375
vt 0.625000 0.265625
vt 0.710938 0.265625
vt 0.710938 0.234375
vt 0.625000 0.234375
vt 0.609375 0.671875
vt 0.937500 0.671875
vt 0.937500 0.585938
vt 0.609375 0.585938
vt 0.000000 0.468750
vt 0.328125 0.468750
vt 0.328125 0.382812
vt 0.000000 0.382812
vt 0.515625 0.312500
vt 0.812500 0.312500
vt 0.812500 0.281250
vt 0.515625 0.281250
vt 0.000000 0.210938
vt 0.296875 0.210938
vt 0.296875 0.195312
vt 0.000000 0.195312
vt 0.296875 0.210938
vt 0.593750 0.210938
vt 0.593750 0.195312
vt 0.296875 0.195312
vt 0.515625 0.312500
vt 0.812500 0.312500
vt 0.812500 0.281250
vt 0.515625 0.281250
vt 0.000000 0.210938
vt 0.296875 0.210938
vt 0.296875 0.195312
vt 0.000000 0.195312
vt 0.296875 0.210938
vt 0.593750 0.210938
vt 0.593750 0.195312
vt 0.296875 0.195312
vt 0.781250 0.265625
vt 0.828125 0.265625
vt 0.828125 0.234375
vt 0.781250 0.234375
vt 0.781250 0.265625
vt 0.828125 0.265625
vt 0.828125 0.234375
vt 0.781250 0.234375
vt 0.953125 0.468750
vt 1.000000 0.468750
vt 1.000000 0.421875
vt 0.953125 0.421875
vt 0.875000 0.382812
vt 0.921875 0.382812
vt 0.921875 0.335938
vt 0.875000 0.335938
vt 0.781250 0.265625
vt 0.828125 0.265625
vt 0.828125 0.234375
vt 0.781250 0.234375
vt 0.781250 0.265625
vt 0.828125 0.265625
vt 0.828125 0.234375
vt 0.781250 0.234375
vt 0.953125 0.468750
vt 1.000000 0.468750
vt 1.000000 0.421875
vt 0.953125 0.421875
vt 0.875000 0.382812
vt 0.921875 0.382812
vt 0.921875 0.335938
vt 0.875000 0.335938
vt 0.781250 0.265625
vt 0.828125 0.265625
vt 0.828125 0.234375
vt 0.781250 0.234375
vt 0.781250 0.265625
vt 0.828125 0.265625
vt 0.828125 0.234375
vt 0.781250 0.234375
vt 0.953125 0.468750
vt 1.000000 0.468750
vt 1.000000 0.421875
vt 0.953125 0.421875
vt 0.875000 0.382812
vt 0.921875 0.382812
vt 0.921875 0.335938
vt 0.875000 0.335938
vt 0.781250 0.265625
vt 0.828125 0.265625
vt 0.828125 0.234375
vt 0.781250 0.234375
vt 0.781250 0.265625
vt 0.828125 0.265625
vt 0.828125 0.234375
vt 0.781250 0.234375
vt 0.953125 0.468750
vt 1.000000 0.468750
vt 1.000000 0.421875
vt 0.953125 0.421875
vt 0.875000 0.382812
vt 0.921875 0.382812
vt 0.921875 0.335938
vt 0.875000 0.335938
vt 0.773438 1.000000
vt 0.804688 1.000000
vt 0.804688 0.835938
vt 0.773438 0.835938
vt 0.773438 1.000000
vt 0.804688 1.000000
vt 0.804688 0.835938
vt 0.773438 0.835938
vt 0.773438 1.000000
vt 0.804688 1.000000
vt 0.804688 0.835938
vt 0.773438 0.835938
vt 0.773438 1.000000
vt 0.804688 1.000000
vt 0.804688 0.835938
vt 0.773438 0.835938
vt 0.804688 1.000000
vt 0.828125 1.000000
vt 0.828125 0.835938
vt 0.804688 0.835938
vt 0.804688 1.000000
vt 0.828125 1.000000
vt 0.828125 0.835938
vt 0.804688 0.835938
vt 0.804688 1.000000
vt 0.828125 1.000000
vt 0.828125 0.835938
vt 0.804688 0.835938
vt 0.804688 1.000000
vt 0.828125 1.000000
vt 0.828125 0.835938
vt 0.804688 0.835938
vt 0.781250 0.234375
vt 0.804688 0.234375
vt 0.804688 0.210938
vt 0.781250 0.210938
vt 0.804688 1.000000
vt 0.828125 1.000000
vt 0.828125 0.835938
vt 0.804688 0.835938
vt 0.804688 1.000000
vt 0.828125 1.000000
vt 0.828125 0.835938
vt 0.804688 0.835938
vt 0.804688 1.000000
vt 0.828125 1.000000
vt 0.828125 0.835938
vt 0.804688 0.835938
vt 0.804688 1.000000
vt 0.828125 1.000000
vt 0.828125 0.835938
vt 0.804688 0.835938
vt 0.781250 0.234375
vt 0.804688 0.234375
vt 0.804688 0.210938
vt 0.781250 0.210938
vt 0.804688 1.000000
vt 0.828125 1.000000
vt 0.828125 0.835938
vt 0.804688 0.835938
vt 0.804688 1.000000
vt 0.828125 1.000000
vt 0.828125 0.835938
vt 0.804688 0.835938
vt 0.804688 1.000000
vt 0.828125 1.000000
vt 0.828125 0.835938
vt 0.804688 0.835938
vt 0.804688 1.000000
vt 0.828125 1.000000
vt 0.828125 0.835938
vt 0.804688 0.835938
vt 0.781250 0.234375
vt 0.804688 0.234375
vt 0.804688 0.210938
vt 0.781250 0.210938
vt 0.804688 1.000000
vt 0.828125 1.000000
vt 0.828125 0.835938
vt 0.804688 0.835938
vt 0.804688 1.000000
vt 0.828125 1.000000
vt 0.828125 0.835938
vt 0.804688 0.835938
vt 0.804688 1.000000
vt 0.828125 1.000000
vt 0.828125 0.835938
vt 0.804688 0.835938
vt 0.804688 1.000000
vt 0.828125 1.000000
vt 0.828125 0.835938
vt 0.804688 0.835938
vt 0.781250 0.234375
vt 0.804688 0.234375
vt 0.804688 0.210938
vt 0.781250 0.210938
vt 0.593750 0.210938
vt 0.804688 0.210938
vt 0.804688 0.195312
vt 0.593750 0.195312
vt 0.593750 0.210938
vt 0.804688 0.210938
vt 0.804688 0.195312
vt 0.593750 0.195312
vt 0.148438 0.195312
vt 0.171875 0.195312
vt 0.171875 0.179688
vt 0.148438 0.179688
vt 0.148438 0.195312
vt 0.171875 0.195312
vt 0.171875 0.179688
vt 0.148438 0.179688
vt 0.312500 0.234375
vt 0.523438 0.234375
vt 0.523438 0.210938
vt 0.312500 0.210938
vt 0.312500 0.234375
vt 0.523438 0.234375
vt 0.523438 0.210938
vt 0.312500 0.210938
vt 0.148438 0.195312
vt 0.171875 0.195312
vt 0.171875 0.179688
vt 0.148438 0.179688
vt 0.148438 0.195312
vt 0.171875 0.195312
vt 0.171875 0.179688
vt 0.148438 0.179688
vt 0.437500 1.000000
vt 0.460938 1.000000
vt 0.460938 0.789062
vt 0.437500 0.789062
vt 0.437500 1.000000
vt 0.460938 1.000000
vt 0.460938 0.789062
vt 0.437500 0.789062
vt 0.875000 0.468750
vt 0.953125 0.468750
vt 0.953125 0.421875
vt 0.875000 0.421875
vt 0.875000 0.468750
vt 0.953125 0.468750
vt 0.953125 0.421875
vt 0.875000 0.421875
vt 0.875000 0.468750
vt 0.953125 0.468750
vt 0.953125 0.421875
vt 0.875000 0.421875
vt 0.875000 0.468750
vt 0.953125 0.468750
vt 0.953125 0.421875
vt 0.875000 0.421875
vt 0.328125 0.468750
vt 0.406250 0.468750
vt 0.406250 0.390625
vt 0.328125 0.390625
vt 0.406250 0.468750
vt 0.484375 0.468750
vt 0.484375 0.390625
vt 0.406250 0.390625
vt 0.000000 0.195312
vt 0.085938 0.195312
vt 0.085938 0.179688
vt 0.000000 0.179688
vt 0.000000 0.195312
vt 0.085938 0.195312
vt 0.085938 0.179688
vt 0.000000 0.179688
vt 0.000000 0.195312
vt 0.085938 0.195312
vt 0.085938 0.179688
vt 0.000000 0.179688
vt 0.000000 0.195312
vt 0.085938 0.195312
vt 0.085938 0.179688
vt 0.000000 0.179688
vt 0.937500 0.671875
vt 0.968750 0.671875
vt 0.968750 0.617188
vt 0.937500 0.617188
vt 0.937500 0.671875
vt 0.968750 0.671875
vt 0.968750 0.617188
vt 0.937500 0.617188
vt 0.937500 0.671875
vt 0.968750 0.671875
vt 0.968750 0.617188
vt 0.937500 0.617188
vt 0.937500 0.671875
vt 0.968750 0.671875
vt 0.968750 0.617188
vt 0.937500 0.617188
vt 0.929688 0.265625
vt 0.960938 0.265625
vt 0.960938 0.234375
vt 0.929688 0.234375
vt 0.968750 0.671875
vt 0.984375 0.671875
vt 0.984375 0.625000
vt 0.968750 0.625000
vt 0.968750 0.671875
vt 0.984375 0.671875
vt 0.984375 0.625000
vt 0.968750 0.625000
vt 0.968750 0.671875
vt 0.984375 0.671875
vt 0.984375 0.625000
vt 0.968750 0.625000
vt 0.968750 0.671875
vt 0.984375 0.671875
vt 0.984375 0.625000
vt 0.968750 0.625000
vt 0.187500 0.195312
vt 0.203125 0.195312
vt 0.203125 0.179688
vt 0.187500 0.179688
vn 0 0 -1
vn 0 0 1
vn -1 0 0
vn 1 0 0
vn 0 1 0
vn 0 -1 0
usemtl biome_scanner
o Dish
f 1/1/1 4/4/1 3/3/1 2/2/1
f 5/5/2 8/8/2 7/7/2 6/6/2
f 9/9/3 12/12/3 11/11/3 10/10/3
f 13/13/4 16/16/4 15/15/4 14/14/4
f 17/17/5 20/20/5 19/19/5 18/18/5
f 21/21/6 24/24/6 23/23/6 22/22/6
f 25/25/1 28/28/1 27/27/1 26/26/1
f 29/29/3 32/32/3 31/31/3 30/30/3
f 33/33/4 36/36/4 35/35/4 34/34/4
f 37/37/5 40/40/5 39/39/5 38/38/5
f 41/41/6 44/44/6 43/43/6 42/42/6
f 45/45/1 48/48/1 47/47/1 46/46/1
f 49/49/2 52/52/2 51/51/2 50/50/2
f 53/53/3 56/56/3 55/55/3 54/54/3
f 57/57/4 60/60/4 59/59/4 58/58/4
f 61/61/6 64/64/6 63/63/6 62/62/6
f 65/65/1 68/68/1 67/67/1 66/66/1
f 69/69/2 72/72/2 71/71/2 70/70/2
f 73/73/3 76/76/3 75/75/3 74/74/3
f 77/77/4 80/80/4 79/79/4 78/78/4
f 81/81/5 84/84/5 83/83/5 82/82/5
f 85/85/1 88/88/1 87/87/1 86/86/1
f 89/89/3 92/92/3 91/91/3 90/90/3
f 93/93/4 96/96/4 95/95/4 94/94/4
f 97/97/5 100/100/5 99/99/5 98/98/5
f 101/101/2 104/104/2 103/103/2 102/102/2
f 105/105/3 108/108/3 107/107/3 106/106/3
f 109/109/4 112/112/4 111/111/4 110/110/4
f 113/113/5 116/116/5 115/115/5 114/114/5
f 117/117/2 120/120/2 119/119/2 118/118/2
f 121/121/4 124/124/4 123/123/4 122/122/4
f 125/125/5 128/128/5 127/127/5 126/126/5
f 129/129/1 132/132/1 131/131/1 130/130/1
f 133/133/4 136/136/4 135/135/4 134/134/4
f 137/137/5 140/140/5 139/139/5 138/138/5
f 141/141/2 144/144/2 143/143/2 142/142/2
f 145/145/3 148/148/3 147/147/3 146/146/3
f 149/149/5 152/152/5 151/151/5 150/150/5
f 153/153/1 156/156/1 155/155/1 154/154/1
f 157/157/3 160/160/3 159/159/3 158/158/3
f 161/161/5 164/164/5 163/163/5 162/162/5
f 165/165/1 168/168/1 167/167/1 166/166/1
f 169/169/2 172/172/2 171/171/2 170/170/2
f 173/173/3 176/176/3 175/175/3 174/174/3
f 177/177/4 180/180/4 179/179/4 178/178/4
f 181/181/5 184/184/5 183/183/5 182/182/5
f 185/185/6 188/188/6 187/187/6 186/186/6
f 189/189/1 192/192/1 191/191/1 190/190/1
f 193/193/3 196/196/3 195/195/3 194/194/3
f 197/197/4 200/200/4 199/199/4 198/198/4
f 201/201/5 204/204/5 203/203/5 202/202/5
f 205/205/6 208/208/6 207/207/6 206/206/6
f 209/209/2 212/212/2 211/211/2 210/210/2
f 213/213/3 216/216/3 215/215/3 214/214/3
f 217/217/4 220/220/4 219/219/4 218/218/4
f 221/221/5 224/224/5 223/223/5 222/222/5
f 225/225/6 228/228/6 227/227/6 226/226/6
f 229/229/2 232/232/2 231/231/2 230/230/2
f 233/233/4 236/236/4 235/235/4 234/234/4
f 237/237/5 240/240/5 239/239/5 238/238/5
f 241/241/6 244/244/6 243/243/6 242/242/6
f 245/245/1 248/248/1 247/247/1 246/246/1
f 249/249/4 252/252/4 251/251/4 250/250/4
f 253/253/5 256/256/5 255/255/5 254/254/5
f 257/257/6 260/260/6 259/259/6 258/258/6
f 261/261/2 264/264/2 263/263/2 262/262/2
f 265/265/3 268/268/3 267/267/3 266/266/3
f 269/269/5 272/272/5 271/271/5 270/270/5
f 273/273/6 276/276/6 275/275/6 274/274/6
f 277/277/1 280/280/1 279/279/1 278/278/1
f 281/281/3 284/284/3 283/283/3 282/282/3
f 285/285/5 288/288/5 287/287/5 286/286/5
f 289/289/6 292/292/6 291/291/6 290/290/6
f 293/293/1 296/296/1 295/295/1 294/294/1
f 297/297/2 300/300/2 299/299/2 298/298/2
f 301/301/3 304/304/3 303/303/3 302/302/3
f 305/305/4 308/308/4 307/307/4 306/306/4
f 309/309/5 312/312/5 311/311/5 310/310/5
f 313/313/6 316/316/6 315/315/6 314/314/6
f 317/317/1 320/320/1 319/319/1 318/318/1
f 321/321/2 324/324/2 323/323/2 322/322/2
f 325/325/3 328/328/3 327/327/3 326/326/3
f 329/329/4 332/332/4 331/331/4 330/330/4
f 333/333/5 336/336/5 335/335/5 334/334/5
f 337/337/6 340/340/6 339/339/6 338/338/6
f 341/341/1 344/344/1 343/343/1 342/342/1
f 345/345/3 348/348/3 347/347/3 346/346/3
f 349/349/4 352/352/4 351/351/4 350/350/4
f 353/353/5 356/356/5 355/355/5 354/354/5
f 357/357/6 360/360/6 359/359/6 358/358/6
f 361/361/2 364/364/2 363/363/2 362/362/2
f 365/365/3 368/368/3 367/367/3 366/366/3
f 369/369/4 372/372/4 371/371/4 370/370/4
f 373/373/5 376/376/5 375/375/5 374/374/5
f 377/377/6 380/380/6 379/379/6 378/378/6
f 381/381/2 384/384/2 383/383/2 382/382/2
f 385/385/5 388/388/5 387/387/5 386/386/5
f 389/389/6 392/392/6 391/391/6 390/390/6
f 393/393/1 396/396/1 395/395/1 394/394/1
f 397/397/5 400/400/5 399/399/5 398/398/5
f 401/401/6 404/404/6 403/403/6 402/402/6
f 405/405/2 408/408/2 407/407/2 406/406/2
f 409/409/4 412/412/4 411/411/4 410/410/4
f 413/413/5 416/416/5 415/415/5 414/414/5
f 417/417/6 420/420/6 419/419/6 418/418/6
f 421/421/1 424/424/1 423/423/1 422/422/1
f 425/425/4 428/428/4 427/427/4 426/426/4
f 429/429/5 432/432/5 431/431/5 430/430/5
f 433/433/6 436/436/6 435/435/6 434/434/6
f 437/437/2 440/440/2 439/439/2 438/438/2
f 441/441/3 444/444/3 443/443/3 442/442/3
f 445/445/5 448/448/5 447/447/5 446/446/5
f 449/449/6 452/452/6 451/451/6 450/450/6
f 453/453/1 456/456/1 455/455/1 454/454/1
f 457/457/3 460/460/3 459/459/3 458/458/3
f 461/461/5 464/464/5 463/463/5 462/462/5
f 465/465/6 468/468/6 467/467/6 466/466/6
f 469/469/1 472/472/1 471/471/1 470/470/1
f 473/473/2 476/476/2 475/475/2 474/474/2
f 477/477/3 480/480/3 479/479/3 478/478/3
f 481/481/4 484/484/4 483/483/4 482/482/4
f 485/485/5 488/488/5 487/487/5 486/486/5
f 489/489/6 492/492/6 491/491/6 490/490/6
f 493/493/1 496/496/1 495/495/1 494/494/1
f 497/497/2 500/500/2 499/499/2 498/498/2
f 501/501/3 504/504/3 503/503/3 502/502/3
f 505/505/4 508/508/4 507/507/4 506/506/4
f 509/509/5 512/512/5 511/511/5 510/510/5
f 513/513/6 516/516/6 515/515/6 514/514/6
f 517/517/1 520/520/1 519/519/1 518/518/1
f 521/521/3 524/524/3 523/523/3 522/522/3
f 525/525/4 528/528/4 527/527/4 526/526/4
f 529/529/5 532/532/5 531/531/5 530/530/5
f 533/533/6 536/536/6 535/535/6 534/534/6
f 537/537/2 540/540/2 539/539/2 538/538/2
f 541/541/3 544/544/3 543/543/3 542/542/3
f 545/545/4 548/548/4 547/547/4 546/546/4
f 549/549/5 552/552/5 551/551/5 550/550/5
f 553/553/6 556/556/6 555/555/6 554/554/6
f 557/557/2 560/560/2 559/559/2 558/558/2
f 561/561/5 564/564/5 563/563/5 562/562/5
f 565/565/6 568/568/6 567/567/6 566/566/6
f 569/569/1 572/572/1 571/571/1 570/570/1
f 573/573/5 576/576/5 575/575/5 574/574/5
f 577/577/6 580/580/6 579/579/6 578/578/6
f 581/581/2 584/584/2 583/583/2 582/582/2
f 585/585/4 588/588/4 587/587/4 586/586/4
f 589/589/5 592/592/5 591/591/5 590/590/5
f 593/593/6 596/596/6 595/595/6 594/594/6
f 597/597/1 600/600/1 599/599/1 598/598/1
f 601/601/4 604/604/4 603/603/4 602/602/4
f 605/605/5 608/608/5 607/607/5 606/606/5
f 609/609/6 612/612/6 611/611/6 610/610/6
f 613/613/2 616/616/2 615/615/2 614/614/2
f 617/617/3 620/620/3 619/619/3 618/618/3
f 621/621/5 624/624/5 623/623/5 622/622/5
f 625/625/6 628/628/6 627/627/6 626/626/6
f 629/629/1 632/632/1 631/631/1 630/630/1
f 633/633/3 636/636/3 635/635/3 634/634/3
f 637/637/5 640/640/5 639/639/5 638/638/5
f 641/641/6 644/644/6 643/643/6 642/642/6
f 645/645/1 648/648/1 647/647/1 646/646/1
f 649/649/2 652/652/2 651/651/2 650/650/2
f 653/653/3 656/656/3 655/655/3 654/654/3
f 657/657/4 660/660/4 659/659/4 658/658/4
f 661/661/1 664/664/1 663/663/1 662/662/1
f 665/665/2 668/668/2 667/667/2 666/666/2
f 669/669/3 672/672/3 671/671/3 670/670/3
f 673/673/4 676/676/4 675/675/4 674/674/4
f 677/677/6 680/680/6 679/679/6 678/678/6
f 681/681/1 684/684/1 683/683/1 682/682/1
f 685/685/2 688/688/2 687/687/2 686/686/2
f 689/689/3 692/692/3 691/691/3 690/690/3
f 693/693/4 696/696/4 695/695/4 694/694/4
f 697/697/6 700/700/6 699/699/6 698/698/6
f 701/701/1 704/704/1 703/703/1 702/702/1
f 705/705/2 708/708/2 707/707/2 706/706/2
f 709/709/3 712/712/3 711/711/3 710/710/3
f 713/713/4 716/716/4 715/715/4 714/714/4
f 717/717/6 720/720/6 719/719/6 718/718/6
f 721/721/1 724/724/1 723/723/1 722/722/1
f 725/725/2 728/728/2 727/727/2 726/726/2
f 729/729/3 732/732/3 731/731/3 730/730/3
f 733/733/4 736/736/4 735/735/4 734/734/4
f 737/737/6 740/740/6 739/739/6 738/738/6
f 741/741/1 744/744/1 743/743/1 742/742/1
f 745/745/2 748/748/2 747/747/2 746/746/2
f 749/749/3 752/752/3 751/751/3 750/750/3
f 753/753/4 756/756/4 755/755/4 754/754/4
f 757/757/5 760/760/5 759/759/5 758/758/5
f 761/761/6 764/764/6 763/763/6 762/762/6
f 765/765/1 768/768/1 767/767/1 766/766/1
f 769/769/2 772/772/2 771/771/2 770/770/2
f 861/773/5 862/776/5 863/775/5 864/774/5
f 865/777/6 866/780/6 867/779/6 868/778/6
f 781/781/1 784/784/1 783/783/1 782/782/1
f 785/785/2 788/788/2 787/787/2 786/786/2
f 789/789/3 792/792/3 791/791/3 790/790/3
f 793/793/4 796/796/4 795/795/4 794/794/4
f 797/797/5 800/800/5 799/799/5 798/798/5
f 801/801/6 804/804/6 803/803/6 802/802/6
f 805/805/1 808/808/1 807/807/1 806/806/1
f 809/809/2 812/812/2 811/811/2 810/810/2
f 813/813/3 816/816/3 815/815/3 814/814/3
f 817/817/4 820/820/4 819/819/4 818/818/4
f 821/821/1 824/824/1 823/823/1 822/822/1
f 825/825/2 828/828/2 827/827/2 826/826/2
f 829/829/3 832/832/3 831/831/3 830/830/3
f 833/833/4 836/836/4 835/835/4 834/834/4
f 837/837/6 840/840/6 839/839/6 838/838/6
f 841/841/1 844/844/1 843/843/1 842/842/1
f 845/845/2 848/848/2 847/847/2 846/846/2
f 849/849/3 852/852/3 851/851/3 850/850/3
f 853/853/4 856/856/4 855/855/4 854/854/4
f 857/857/6 860/860/6 859/859/6 858/858/6
