# black_hole_generator generated by machinegen.py
mtllib black_hole_generator.mtl
v 0.437500 -0.500000 0.562500
v -0.437500 -0.500000 0.562500
v -0.437500 -1.500000 0.562500
v 0.437500 -1.500000 0.562500
v -0.437500 -0.500000 1.437500
v 0.437500 -0.500000 1.437500
v 0.437500 -1.500000 1.437500
v -0.437500 -1.500000 1.437500
v -0.437500 -0.500000 0.562500
v -0.437500 -0.500000 1.437500
v -0.437500 -1.500000 1.437500
v -0.437500 -1.500000 0.562500
v 0.437500 -0.500000 1.437500
v 0.437500 -0.500000 0.562500
v 0.437500 -1.500000 0.562500
v 0.437500 -1.500000 1.437500
v -0.437500 -1.500000 1.437500
v 0.437500 -1.500000 1.437500
v 0.437500 -1.500000 0.562500
v -0.437500 -1.500000 0.562500
v -0.375000 -0.500000 0.500000
v -0.500000 -0.500000 0.500000
v -0.500000 -1.500000 0.500000
v -0.375000 -1.500000 0.500000
v -0.500000 -0.500000 0.625000
v -0.375000 -0.500000 0.625000
v -0.375000 -1.500000 0.625000
v -0.500000 -1.500000 0.625000
v -0.500000 -0.500000 0.500000
v -0.500000 -0.500000 0.625000
v -0.500000 -1.500000 0.625000
v -0.500000 -1.500000 0.500000
v -0.375000 -0.500000 0.625000
v -0.375000 -0.500000 0.500000
v -0.375000 -1.500000 0.500000
v -0.375000 -1.500000 0.625000
v -0.500000 -1.500000 0.625000
v -0.375000 -1.500000 0.625000
v -0.375000 -1.500000 0.500000
v -0.500000 -1.500000 0.500000
v 0.500000 -0.500000 0.500000
v 0.375000 -0.500000 0.500000
v 0.375000 -1.500000 0.500000
v 0.500000 -1.500000 0.500000
v 0.375000 -0.500000 0.625000
v 0.500000 -0.500000 0.625000
v 0.500000 -1.500000 0.625000
v 0.375000 -1.500000 0.625000
v 0.375000 -0.500000 0.500000
v 0.375000 -0.500000 0.625000
v 0.375000 -1.500000 0.625000
v 0.375000 -1.500000 0.500000
v 0.500000 -0.500000 0.625000
v 0.500000 -0.500000 0.500000
v 0.500000 -1.500000 0.500000
v 0.500000 -1.500000 0.625000
v 0.375000 -1.500000 0.625000
v 0.500000 -1.500000 0.625000
v 0.500000 -1.500000 0.500000
v 0.375000 -1.500000 0.500000
v -0.375000 -0.500000 1.375000
v -0.500000 -0.500000 1.375000
v -0.500000 -1.500000 1.375000
v -0.375000 -1.500000 1.375000
v -0.500000 -0.500000 1.500000
v -0.375000 -0.500000 1.500000
v -0.375000 -1.500000 1.500000
v -0.500000 -1.500000 1.500000
v -0.500000 -0.500000 1.375000
v -0.500000 -0.500000 1.500000
v -0.500000 -1.500000 1.500000
v -0.500000 -1.500000 1.375000
v -0.375000 -0.500000 1.500000
v -0.375000 -0.500000 1.375000
v -0.375000 -1.500000 1.375000
v -0.375000 -1.500000 1.500000
v -0.500000 -1.500000 1.500000
v -0.375000 -1.500000 1.500000
v -0.375000 -1.500000 1.375000
v -0.500000 -1.500000 1.375000
v 0.500000 -0.500000 1.375000
v 0.375000 -0.500000 1.375000
v 0.375000 -1.500000 1.375000
v 0.500000 -1.500000 1.375000
v 0.375000 -0.500000 1.500000
v 0.500000 -0.500000 1.500000
v 0.500000 -1.500000 1.500000
v 0.375000 -1.500000 1.500000
v 0.375000 -0.500000 1.375000
v 0.375000 -0.500000 1.500000
v 0.375000 -1.500000 1.500000
v 0.375000 -1.500000 1.375000
v 0.500000 -0.500000 1.500000
v 0.500000 -0.500000 1.375000
v 0.500000 -1.500000 1.375000
v 0.500000 -1.500000 1.500000
v 0.375000 -1.500000 1.500000
v 0.500000 -1.500000 1.500000
v 0.500000 -1.500000 1.375000
v 0.375000 -1.500000 1.375000
v 0.500000 -0.375000 -0.500000
v -0.500000 -0.375000 -0.500000
v -0.500000 -0.500000 -0.500000
v 0.500000 -0.500000 -0.500000
v -0.500000 -0.375000 1.500000
v 0.500000 -0.375000 1.500000
v 0.500000 -0.500000 1.500000
v -0.500000 -0.500000 1.500000
v -0.500000 -0.375000 -0.500000
v -0.500000 -0.375000 1.500000
v -0.500000 -0.500000 1.500000
v -0.500000 -0.500000 -0.500000
v 0.500000 -0.375000 1.500000
v 0.500000 -0.375000 -0.500000
v 0.500000 -0.500000 -0.500000
v 0.500000 -0.500000 1.500000
v -0.500000 -0.375000 -0.500000
v 0.500000 -0.375000 -0.500000
v 0.500000 -0.375000 1.500000
v -0.500000 -0.375000 1.500000
v -0.500000 -0.500000 1.500000
v 0.500000 -0.500000 1.500000
v 0.500000 -0.500000 -0.500000
v -0.500000 -0.500000 -0.500000
v 0.437500 0.500000 -0.437500
v -0.437500 0.500000 -0.437500
v -0.437500 -0.375000 -0.437500
v 0.437500 -0.375000 -0.437500
v -0.437500 0.500000 1.437500
v 0.437500 0.500000 1.437500
v 0.437500 -0.375000 1.437500
v -0.437500 -0.375000 1.437500
v -0.437500 0.500000 -0.437500
v -0.437500 0.500000 1.437500
v -0.437500 -0.375000 1.437500
v -0.437500 -0.375000 -0.437500
v 0.437500 0.500000 1.437500
v 0.437500 0.500000 -0.437500
v 0.437500 -0.375000 -0.437500
v 0.437500 -0.375000 1.437500
v -0.437500 -0.375000 1.437500
v 0.437500 -0.375000 1.437500
v 0.437500 -0.375000 -0.437500
v -0.437500 -0.375000 -0.437500
v -0.375000 0.500000 -0.500000
v -0.500000 0.500000 -0.500000
v -0.500000 -0.375000 -0.500000
v -0.375000 -0.375000 -0.500000
v -0.500000 0.500000 -0.375000
v -0.375000 0.500000 -0.375000
v -0.375000 -0.375000 -0.375000
v -0.500000 -0.375000 -0.375000
v -0.500000 0.500000 -0.500000
v -0.500000 0.500000 -0.375000
v -0.500000 -0.375000 -0.375000
v -0.500000 -0.375000 -0.500000
v -0.375000 0.500000 -0.375000
v -0.375000 0.500000 -0.500000
v -0.375000 -0.375000 -0.500000
v -0.375000 -0.375000 -0.375000
v 0.500000 0.500000 -0.500000
v 0.375000 0.500000 -0.500000
v 0.375000 -0.375000 -0.500000
v 0.500000 -0.375000 -0.500000
v 0.375000 0.500000 -0.375000
v 0.500000 0.500000 -0.375000
v 0.500000 -0.375000 -0.375000
v 0.375000 -0.375000 -0.375000
v 0.375000 0.500000 -0.500000
v 0.375000 0.500000 -0.375000
v 0.375000 -0.375000 -0.375000
v 0.375000 -0.375000 -0.500000
v 0.500000 0.500000 -0.375000
v 0.500000 0.500000 -0.500000
v 0.500000 -0.375000 -0.500000
v 0.500000 -0.375000 -0.375000
v -0.375000 0.500000 1.375000
v -0.500000 0.500000 1.375000
v -0.500000 -0.375000 1.375000
v -0.375000 -0.375000 1.375000
v -0.500000 0.500000 1.500000
v -0.375000 0.500000 1.500000
v -0.375000 -0.375000 1.500000
v -0.500000 -0.375000 1.500000
v -0.500000 0.500000 1.375000
v -0.500000 0.500000 1.500000
v -0.500000 -0.375000 1.500000
v -0.500000 -0.375000 1.375000
v -0.375000 0.500000 1.500000
v -0.375000 0.500000 1.375000
v -0.375000 -0.375000 1.375000
v -0.375000 -0.375000 1.500000
v 0.500000 0.500000 1.375000
v 0.375000 0.500000 1.375000
v 0.375000 -0.375000 1.375000
v 0.500000 -0.375000 1.375000
v 0.375000 0.500000 1.500000
v 0.500000 0.500000 1.500000
v 0.500000 -0.375000 1.500000
v 0.375000 -0.375000 1.500000
v 0.375000 0.500000 1.375000
v 0.375000 0.500000 1.500000
v 0.375000 -0.375000 1.500000
v 0.375000 -0.375000 1.375000
v 0.500000 0.500000 1.500000
v 0.500000 0.500000 1.375000
v 0.500000 -0.375000 1.375000
v 0.500000 -0.375000 1.500000
v -0.375000 0.500000 0.437500
v -0.500000 0.500000 0.437500
v -0.500000 -0.375000 0.437500
v -0.375000 -0.375000 0.437500
v -0.500000 0.500000 0.562500
v -0.375000 0.500000 0.562500
v -0.375000 -0.375000 0.562500
v -0.500000 -0.375000 0.562500
v -0.500000 0.500000 0.437500
v -0.500000 0.500000 0.562500
v -0.500000 -0.375000 0.562500
v -0.500000 -0.375000 0.437500
v -0.375000 0.500000 0.562500
v -0.375000 0.500000 0.437500
v -0.375000 -0.375000 0.437500
v -0.375000 -0.375000 0.562500
v 0.500000 0.500000 0.437500
v 0.375000 0.500000 0.437500
v 0.375000 -0.375000 0.437500
v 0.500000 -0.375000 0.437500
v 0.375000 0.500000 0.562500
v 0.500000 0.500000 0.562500
v 0.500000 -0.375000 0.562500
v 0.375000 -0.375000 0.562500
v 0.375000 0.500000 0.437500
v 0.375000 0.500000 0.562500
v 0.375000 -0.375000 0.562500
v 0.375000 -0.375000 0.437500
v 0.500000 0.500000 0.562500
v 0.500000 0.500000 0.437500
v 0.500000 -0.375000 0.437500
v 0.500000 -0.375000 0.562500
v 0.312500 0.375000 -0.468750
v 0.187500 0.375000 -0.468750
v 0.187500 0.250000 -0.468750
v 0.312500 0.250000 -0.468750
v 0.187500 0.375000 -0.468750
v 0.187500 0.375000 -0.437500
v 0.187500 0.250000 -0.437500
v 0.187500 0.250000 -0.468750
v 0.312500 0.375000 -0.437500
v 0.312500 0.375000 -0.468750
v 0.312500 0.250000 -0.468750
v 0.312500 0.250000 -0.437500
v 0.187500 0.375000 -0.468750
v 0.312500 0.375000 -0.468750
v 0.312500 0.375000 -0.437500
v 0.187500 0.375000 -0.437500
v 0.187500 0.250000 -0.437500
v 0.312500 0.250000 -0.437500
v 0.312500 0.250000 -0.468750
v 0.187500 0.250000 -0.468750
v 0.500000 0.625000 -0.500000
v -0.500000 0.625000 -0.500000
v -0.500000 0.500000 -0.500000
v 0.500000 0.500000 -0.500000
v -0.500000 0.625000 1.500000
v 0.500000 0.625000 1.500000
v 0.500000 0.500000 1.500000
v -0.500000 0.500000 1.500000
v -0.500000 0.625000 -0.500000
v -0.500000 0.625000 1.500000
v -0.500000 0.500000 1.500000
v -0.500000 0.500000 -0.500000
v 0.500000 0.625000 1.500000
v 0.500000 0.625000 -0.500000
v 0.500000 0.500000 -0.500000
v 0.500000 0.500000 1.500000
v -0.500000 0.625000 -0.500000
v 0.500000 0.625000 -0.500000
v 0.500000 0.625000 1.500000
v -0.500000 0.625000 1.500000
v 0.500000 1.500000 -0.500000
v -0.500000 1.500000 -0.500000
v -0.500000 1.375000 -0.500000
v 0.500000 1.375000 -0.500000
v -0.500000 1.500000 1.500000
v 0.500000 1.500000 1.500000
v 0.500000 1.375000 1.500000
v -0.500000 1.375000 1.500000
v -0.500000 1.500000 -0.500000
v -0.500000 1.500000 1.500000
v -0.500000 1.375000 1.500000
v -0.500000 1.375000 -0.500000
v 0.500000 1.500000 1.500000
v 0.500000 1.500000 -0.500000
v 0.500000 1.375000 -0.500000
v 0.500000 1.375000 1.500000
v -0.500000 1.500000 -0.500000
v 0.500000 1.500000 -0.500000
v 0.500000 1.500000 1.500000
v -0.500000 1.500000 1.500000
v -0.500000 1.375000 1.500000
v 0.500000 1.375000 1.500000
v 0.500000 1.375000 -0.500000
v -0.500000 1.375000 -0.500000
v -0.375000 1.375000 -0.500000
v -0.500000 1.375000 -0.500000
v -0.500000 0.625000 -0.500000
v -0.375000 0.625000 -0.500000
v -0.500000 1.375000 -0.375000
v -0.375000 1.375000 -0.375000
v -0.375000 0.625000 -0.375000
v -0.500000 0.625000 -0.375000
v -0.500000 1.375000 -0.500000
v -0.500000 1.375000 -0.375000
v -0.500000 0.625000 -0.375000
v -0.500000 0.625000 -0.500000
v -0.375000 1.375000 -0.375000
v -0.375000 1.375000 -0.500000
v -0.375000 0.625000 -0.500000
v -0.375000 0.625000 -0.375000
v 0.500000 1.375000 -0.500000
v 0.375000 1.375000 -0.500000
v 0.375000 0.625000 -0.500000
v 0.500000 0.625000 -0.500000
v 0.375000 1.375000 -0.375000
v 0.500000 1.375000 -0.375000
v 0.500000 0.625000 -0.375000
v 0.375000 0.625000 -0.375000
v 0.375000 1.375000 -0.500000
v 0.375000 1.375000 -0.375000
v 0.375000 0.625000 -0.375000
v 0.375000 0.625000 -0.500000
v 0.500000 1.375000 -0.375000
v 0.500000 1.375000 -0.500000
v 0.500000 0.625000 -0.500000
v 0.500000 0.625000 -0.375000
v -0.375000 1.375000 1.375000
v -0.500000 1.375000 1.375000
v -0.500000 0.625000 1.375000
v -0.375000 0.625000 1.375000
v -0.500000 1.375000 1.500000
v -0.375000 1.375000 1.500000
v -0.375000 0.625000 1.500000
v -0.500000 0.625000 1.500000
v -0.500000 1.375000 1.375000
v -0.500000 1.375000 1.500000
v -0.500000 0.625000 1.500000
v -0.500000 0.625000 1.375000
v -0.375000 1.375000 1.500000
v -0.375000 1.375000 1.375000
v -0.375000 0.625000 1.375000
v -0.375000 0.625000 1.500000
v 0.500000 1.375000 1.375000
v 0.375000 1.375000 1.375000
v 0.375000 0.625000 1.375000
v 0.500000 0.625000 1.375000
v 0.375000 1.375000 1.500000
v 0.500000 1.375000 1.500000
v 0.500000 0.625000 1.500000
v 0.375000 0.625000 1.500000
v 0.375000 1.375000 1.375000
v 0.375000 1.375000 1.500000
v 0.375000 0.625000 1.500000
v 0.375000 0.625000 1.375000
v 0.500000 1.375000 1.500000
v 0.500000 1.375000 1.375000
v 0.500000 0.625000 1.375000
v 0.500000 0.625000 1.500000
v -0.375000 1.375000 0.437500
v -0.500000 1.375000 0.437500
v -0.500000 0.625000 0.437500
v -0.375000 0.625000 0.437500
v -0.500000 1.375000 0.562500
v -0.375000 1.375000 0.562500
v -0.375000 0.625000 0.562500
v -0.500000 0.625000 0.562500
v -0.500000 1.375000 0.437500
v -0.500000 1.375000 0.562500
v -0.500000 0.625000 0.562500
v -0.500000 0.625000 0.437500
v -0.375000 1.375000 0.562500
v -0.375000 1.375000 0.437500
v -0.375000 0.625000 0.437500
v -0.375000 0.625000 0.562500
v 0.500000 1.375000 0.437500
v 0.375000 1.375000 0.437500
v 0.375000 0.625000 0.437500
v 0.500000 0.625000 0.437500
v 0.375000 1.375000 0.562500
v 0.500000 1.375000 0.562500
v 0.500000 0.625000 0.562500
v 0.375000 0.625000 0.562500
v 0.375000 1.375000 0.437500
v 0.375000 1.375000 0.562500
v 0.375000 0.625000 0.562500
v 0.375000 0.625000 0.437500
v 0.500000 1.375000 0.562500
v 0.500000 1.375000 0.437500
v 0.500000 0.625000 0.437500
v 0.500000 0.625000 0.562500
v -0.468750 1.375000 -0.375000
v -0.468750 1.375000 1.375000
v -0.468750 0.625000 1.375000
v -0.468750 0.625000 -0.375000
v -0.437500 1.375000 1.375000
v -0.437500 1.375000 -0.375000
v -0.437500 0.625000 -0.375000
v -0.437500 0.625000 1.375000
v 0.437500 1.375000 -0.375000
v 0.437500 1.375000 1.375000
v 0.437500 0.625000 1.375000
v 0.437500 0.625000 -0.375000
v 0.468750 1.375000 1.375000
v 0.468750 1.375000 -0.375000
v 0.468750 0.625000 -0.375000
v 0.468750 0.625000 1.375000
v 0.375000 1.375000 -0.468750
v -0.375000 1.375000 -0.468750
v -0.375000 0.625000 -0.468750
v 0.375000 0.625000 -0.468750
v -0.375000 1.375000 -0.437500
v 0.375000 1.375000 -0.437500
v 0.375000 0.625000 -0.437500
v -0.375000 0.625000 -0.437500
v 0.375000 1.375000 1.437500
v -0.375000 1.375000 1.437500
v -0.375000 0.625000 1.437500
v 0.375000 0.625000 1.437500
v -0.375000 1.375000 1.468750
v 0.375000 1.375000 1.468750
v 0.375000 0.625000 1.468750
v -0.375000 0.625000 1.468750
v 0.187500 1.250000 0.312500
v -0.187500 1.250000 0.312500
v -0.187500 0.750000 0.312500
v 0.187500 0.750000 0.312500
v -0.187500 1.250000 0.687500
v 0.187500 1.250000 0.687500
v 0.187500 0.750000 0.687500
v -0.187500 0.750000 0.687500
v -0.187500 1.250000 0.312500
v -0.187500 1.250000 0.687500
v -0.187500 0.750000 0.687500
v -0.187500 0.750000 0.312500
v 0.187500 1.250000 0.687500
v 0.187500 1.250000 0.312500
v 0.187500 0.750000 0.312500
v 0.187500 0.750000 0.687500
v -0.187500 1.250000 0.312500
v 0.187500 1.250000 0.312500
v 0.187500 1.250000 0.687500
v -0.187500 1.250000 0.687500
v -0.187500 0.750000 0.687500
v 0.187500 0.750000 0.687500
v 0.187500 0.750000 0.312500
v -0.187500 0.750000 0.312500
v 0.375000 1.031250 0.125000
v -0.375000 1.031250 0.125000
v -0.375000 0.968750 0.125000
v 0.375000 0.968750 0.125000
v -0.375000 1.031250 0.875000
v 0.375000 1.031250 0.875000
v 0.375000 0.968750 0.875000
v -0.375000 0.968750 0.875000
v -0.375000 1.031250 0.125000
v -0.375000 1.031250 0.875000
v -0.375000 0.968750 0.875000
v -0.375000 0.968750 0.125000
v 0.375000 1.031250 0.875000
v 0.375000 1.031250 0.125000
v 0.375000 0.968750 0.125000
v 0.375000 0.968750 0.875000
v -0.375000 1.031250 0.125000
v 0.375000 1.031250 0.125000
v 0.375000 1.031250 0.875000
v -0.375000 1.031250 0.875000
v -0.375000 0.968750 0.875000
v 0.375000 0.968750 0.875000
v 0.375000 0.968750 0.125000
v -0.375000 0.968750 0.125000
v 0.093750 1.375000 1.125000
v -0.093750 1.375000 1.125000
v -0.093750 0.625000 1.125000
v 0.093750 0.625000 1.125000
v -0.093750 1.375000 1.312500
v 0.093750 1.375000 1.312500
v 0.093750 0.625000 1.312500
v -0.093750 0.625000 1.312500
v -0.093750 1.375000 1.125000
v -0.093750 1.375000 1.312500
v -0.093750 0.625000 1.312500
v -0.093750 0.625000 1.125000
v 0.093750 1.375000 1.312500
v 0.093750 1.375000 1.125000
v 0.093750 0.625000 1.125000
v 0.093750 0.625000 1.312500
v -0.500000 0.562500 0.750000
v -1.250000 0.562500 0.750000
v -1.250000 0.375000 0.750000
v -0.500000 0.375000 0.750000
v -1.250000 0.562500 1.250000
v -0.500000 0.562500 1.250000
v -0.500000 0.375000 1.250000
v -1.250000 0.375000 1.250000
v -1.250000 0.562500 0.750000
v -1.250000 0.562500 1.250000
v -1.250000 0.375000 1.250000
v -1.250000 0.375000 0.750000
v -0.500000 0.562500 1.250000
v -0.500000 0.562500 0.750000
v -0.500000 0.375000 0.750000
v -0.500000 0.375000 1.250000
v -1.250000 0.562500 0.750000
v -0.500000 0.562500 0.750000
v -0.500000 0.562500 1.250000
v -1.250000 0.562500 1.250000
v -1.250000 0.375000 1.250000
v -0.500000 0.375000 1.250000
v -0.500000 0.375000 0.750000
v -1.250000 0.375000 0.750000
v -0.812500 0.375000 0.812500
v -1.187500 0.375000 0.812500
v -1.187500 0.312500 0.812500
v -0.812500 0.312500 0.812500
v -1.187500 0.375000 1.187500
v -0.812500 0.375000 1.187500
v -0.812500 0.312500 1.187500
v -1.187500 0.312500 1.187500
v -1.187500 0.375000 0.812500
v -1.187500 0.375000 1.187500
v -1.187500 0.312500 1.187500
v -1.187500 0.312500 0.812500
v -0.812500 0.375000 1.187500
v -0.812500 0.375000 0.812500
v -0.812500 0.312500 0.812500
v -0.812500 0.312500 1.187500
v -1.187500 0.312500 1.187500
v -0.812500 0.312500 1.187500
v -0.812500 0.312500 0.812500
v -1.187500 0.312500 0.812500
v -0.500000 -0.375000 0.750000
v -1.250000 -0.375000 0.750000
v -1.250000 -0.562500 0.750000
v -0.500000 -0.562500 0.750000
v -1.250000 -0.375000 1.250000
v -0.500000 -0.375000 1.250000
v -0.500000 -0.562500 1.250000
v -1.250000 -0.562500 1.250000
v -1.250000 -0.375000 0.750000
v -1.250000 -0.375000 1.250000
v -1.250000 -0.562500 1.250000
v -1.250000 -0.562500 0.750000
v -0.500000 -0.375000 1.250000
v -0.500000 -0.375000 0.750000
v -0.500000 -0.562500 0.750000
v -0.500000 -0.562500 1.250000
v -1.250000 -0.375000 0.750000
v -0.500000 -0.375000 0.750000
v -0.500000 -0.375000 1.250000
v -1.250000 -0.375000 1.250000
v -1.250000 -0.562500 1.250000
v -0.500000 -0.562500 1.250000
v -0.500000 -0.562500 0.750000
v -1.250000 -0.562500 0.750000
v -0.812500 -0.312500 0.812500
v -1.187500 -0.312500 0.812500
v -1.187500 -0.375000 0.812500
v -0.812500 -0.375000 0.812500
v -1.187500 -0.312500 1.187500
v -0.812500 -0.312500 1.187500
v -0.812500 -0.375000 1.187500
v -1.187500 -0.375000 1.187500
v -1.187500 -0.312500 0.812500
v -1.187500 -0.312500 1.187500
v -1.187500 -0.375000 1.187500
v -1.187500 -0.375000 0.812500
v -0.812500 -0.312500 1.187500
v -0.812500 -0.312500 0.812500
v -0.812500 -0.375000 0.812500
v -0.812500 -0.375000 1.187500
v -1.187500 -0.312500 0.812500
v -0.812500 -0.312500 0.812500
v -0.812500 -0.312500 1.187500
v -1.187500 -0.312500 1.187500
v 1.250000 0.562500 0.750000
v 0.500000 0.562500 0.750000
v 0.500000 0.375000 0.750000
v 1.250000 0.375000 0.750000
v 0.500000 0.562500 1.250000
v 1.250000 0.562500 1.250000
v 1.250000 0.375000 1.250000
v 0.500000 0.375000 1.250000
v 0.500000 0.562500 0.750000
v 0.500000 0.562500 1.250000
v 0.500000 0.375000 1.250000
v 0.500000 0.375000 0.750000
v 1.250000 0.562500 1.250000
v 1.250000 0.562500 0.750000
v 1.250000 0.375000 0.750000
v 1.250000 0.375000 1.250000
v 0.500000 0.562500 0.750000
v 1.250000 0.562500 0.750000
v 1.250000 0.562500 1.250000
v 0.500000 0.562500 1.250000
v 0.500000 0.375000 1.250000
v 1.250000 0.375000 1.250000
v 1.250000 0.375000 0.750000
v 0.500000 0.375000 0.750000
v 1.187500 0.375000 0.812500
v 0.812500 0.375000 0.812500
v 0.812500 0.312500 0.812500
v 1.187500 0.312500 0.812500
v 0.812500 0.375000 1.187500
v 1.187500 0.375000 1.187500
v 1.187500 0.312500 1.187500
v 0.812500 0.312500 1.187500
v 0.812500 0.375000 0.812500
v 0.812500 0.375000 1.187500
v 0.812500 0.312500 1.187500
v 0.812500 0.312500 0.812500
v 1.187500 0.375000 1.187500
v 1.187500 0.375000 0.812500
v 1.187500 0.312500 0.812500
v 1.187500 0.312500 1.187500
v 0.812500 0.312500 1.187500
v 1.187500 0.312500 1.187500
v 1.187500 0.312500 0.812500
v 0.812500 0.312500 0.812500
v 1.250000 -0.375000 0.750000
v 0.500000 -0.375000 0.750000
v 0.500000 -0.562500 0.750000
v 1.250000 -0.562500 0.750000
v 0.500000 -0.375000 1.250000
v 1.250000 -0.375000 1.250000
v 1.250000 -0.562500 1.250000
v 0.500000 -0.562500 1.250000
v 0.500000 -0.375000 0.750000
v 0.500000 -0.375000 1.250000
v 0.500000 -0.562500 1.250000
v 0.500000 -0.562500 0.750000
v 1.250000 -0.375000 1.250000
v 1.250000 -0.375000 0.750000
v 1.250000 -0.562500 0.750000
v 1.250000 -0.562500 1.250000
v 0.500000 -0.375000 0.750000
v 1.250000 -0.375000 0.750000
v 1.250000 -0.375000 1.250000
v 0.500000 -0.375000 1.250000
v 0.500000 -0.562500 1.250000
v 1.250000 -0.562500 1.250000
v 1.250000 -0.562500 0.750000
v 0.500000 -0.562500 0.750000
v 1.187500 -0.312500 0.812500
v 0.812500 -0.312500 0.812500
v 0.812500 -0.375000 0.812500
v 1.187500 -0.375000 0.812500
v 0.812500 -0.312500 1.187500
v 1.187500 -0.312500 1.187500
v 1.187500 -0.375000 1.187500
v 0.812500 -0.375000 1.187500
v 0.812500 -0.312500 0.812500
v 0.812500 -0.312500 1.187500
v 0.812500 -0.375000 1.187500
v 0.812500 -0.375000 0.812500
v 1.187500 -0.312500 1.187500
v 1.187500 -0.312500 0.812500
v 1.187500 -0.375000 0.812500
v 1.187500 -0.375000 1.187500
v 0.812500 -0.312500 0.812500
v 1.187500 -0.312500 0.812500
v 1.187500 -0.312500 1.187500
v 0.812500 -0.312500 1.187500
v 0.250000 0.562500 1.500000
v -0.250000 0.562500 1.500000
v -0.250000 0.375000 1.500000
v 0.250000 0.375000 1.500000
v -0.250000 0.562500 2.250000
v 0.250000 0.562500 2.250000
v 0.250000 0.375000 2.250000
v -0.250000 0.375000 2.250000
v -0.250000 0.562500 1.500000
v -0.250000 0.562500 2.250000
v -0.250000 0.375000 2.250000
v -0.250000 0.375000 1.500000
v 0.250000 0.562500 2.250000
v 0.250000 0.562500 1.500000
v 0.250000 0.375000 1.500000
v 0.250000 0.375000 2.250000
v -0.250000 0.562500 1.500000
v 0.250000 0.562500 1.500000
v 0.250000 0.562500 2.250000
v -0.250000 0.562500 2.250000
v -0.250000 0.375000 2.250000
v 0.250000 0.375000 2.250000
v 0.250000 0.375000 1.500000
v -0.250000 0.375000 1.500000
v 0.187500 0.375000 1.812500
v -0.187500 0.375000 1.812500
v -0.187500 0.312500 1.812500
v 0.187500 0.312500 1.812500
v -0.187500 0.375000 2.187500
v 0.187500 0.375000 2.187500
v 0.187500 0.312500 2.187500
v -0.187500 0.312500 2.187500
v -0.187500 0.375000 1.812500
v -0.187500 0.375000 2.187500
v -0.187500 0.312500 2.187500
v -0.187500 0.312500 1.812500
v 0.187500 0.375000 2.187500
v 0.187500 0.375000 1.812500
v 0.187500 0.312500 1.812500
v 0.187500 0.312500 2.187500
v -0.187500 0.312500 2.187500
v 0.187500 0.312500 2.187500
v 0.187500 0.312500 1.812500
v -0.187500 0.312500 1.812500
v 0.250000 -0.375000 1.500000
v -0.250000 -0.375000 1.500000
v -0.250000 -0.562500 1.500000
v 0.250000 -0.562500 1.500000
v -0.250000 -0.375000 2.250000
v 0.250000 -0.375000 2.250000
v 0.250000 -0.562500 2.250000
v -0.250000 -0.562500 2.250000
v -0.250000 -0.375000 1.500000
v -0.250000 -0.375000 2.250000
v -0.250000 -0.562500 2.250000
v -0.250000 -0.562500 1.500000
v 0.250000 -0.375000 2.250000
v 0.250000 -0.375000 1.500000
v 0.250000 -0.562500 1.500000
v 0.250000 -0.562500 2.250000
v -0.250000 -0.375000 1.500000
v 0.250000 -0.375000 1.500000
v 0.250000 -0.375000 2.250000
v -0.250000 -0.375000 2.250000
v -0.250000 -0.562500 2.250000
v 0.250000 -0.562500 2.250000
v 0.250000 -0.562500 1.500000
v -0.250000 -0.562500 1.500000
v 0.187500 -0.312500 1.812500
v -0.187500 -0.312500 1.812500
v -0.187500 -0.375000 1.812500
v 0.187500 -0.375000 1.812500
v -0.187500 -0.312500 2.187500
v 0.187500 -0.312500 2.187500
v 0.187500 -0.375000 2.187500
v -0.187500 -0.375000 2.187500
v -0.187500 -0.312500 1.812500
v -0.187500 -0.312500 2.187500
v -0.187500 -0.375000 2.187500
v -0.187500 -0.375000 1.812500
v 0.187500 -0.312500 2.187500
v 0.187500 -0.312500 1.812500
v 0.187500 -0.375000 1.812500
v 0.187500 -0.375000 2.187500
v -0.187500 -0.312500 1.812500
v 0.187500 -0.312500 1.812500
v 0.187500 -0.312500 2.187500
v -0.187500 -0.312500 2.187500
v 0.375000 -1.500000 0.625000
v -0.375000 -1.500000 0.625000
v -0.375000 -2.500000 0.625000
v 0.375000 -2.500000 0.625000
v -0.375000 -1.500000 1.375000
v 0.375000 -1.500000 1.375000
v 0.375000 -2.500000 1.375000
v -0.375000 -2.500000 1.375000
v -0.375000 -1.500000 0.625000
v -0.375000 -1.500000 1.375000
v -0.375000 -2.500000 1.375000
v -0.375000 -2.500000 0.625000
v 0.375000 -1.500000 1.375000
v 0.375000 -1.500000 0.625000
v 0.375000 -2.500000 0.625000
v 0.375000 -2.500000 1.375000
v -0.375000 -2.500000 1.375000
v 0.375000 -2.500000 1.375000
v 0.375000 -2.500000 0.625000
v -0.375000 -2.500000 0.625000
v 0.250000 -2.500000 0.750000
v -0.250000 -2.500000 0.750000
v -0.250000 -3.500000 0.750000
v 0.250000 -3.500000 0.750000
v -0.250000 -2.500000 1.250000
v 0.250000 -2.500000 1.250000
v 0.250000 -3.500000 1.250000
v -0.250000 -3.500000 1.250000
v -0.250000 -2.500000 0.750000
v -0.250000 -2.500000 1.250000
v -0.250000 -3.500000 1.250000
v -0.250000 -3.500000 0.750000
v 0.250000 -2.500000 1.250000
v 0.250000 -2.500000 0.750000
v 0.250000 -3.500000 0.750000
v 0.250000 -3.500000 1.250000
v -0.250000 -3.500000 1.250000
v 0.250000 -3.500000 1.250000
v 0.250000 -3.500000 0.750000
v -0.250000 -3.500000 0.750000
v -0.375000 -1.500000 0.937500
v -0.500000 -1.500000 0.937500
v -0.500000 -3.500000 0.937500
v -0.375000 -3.500000 0.937500
v -0.500000 -1.500000 1.062500
v -0.375000 -1.500000 1.062500
v -0.375000 -3.500000 1.062500
v -0.500000 -3.500000 1.062500
v -0.500000 -1.500000 0.937500
v -0.500000 -1.500000 1.062500
v -0.500000 -3.500000 1.062500
v -0.500000 -3.500000 0.937500
v -0.375000 -1.500000 1.062500
v -0.375000 -1.500000 0.937500
v -0.375000 -3.500000 0.937500
v -0.375000 -3.500000 1.062500
v -0.500000 -3.500000 1.062500
v -0.375000 -3.500000 1.062500
v -0.375000 -3.500000 0.937500
v -0.500000 -3.500000 0.937500
v 0.500000 -1.500000 0.937500
v 0.375000 -1.500000 0.937500
v 0.375000 -3.500000 0.937500
v 0.500000 -3.500000 0.937500
v 0.375000 -1.500000 1.062500
v 0.500000 -1.500000 1.062500
v 0.500000 -3.500000 1.062500
v 0.375000 -3.500000 1.062500
v 0.375000 -1.500000 0.937500
v 0.375000 -1.500000 1.062500
v 0.375000 -3.500000 1.062500
v 0.375000 -3.500000 0.937500
v 0.500000 -1.500000 1.062500
v 0.500000 -1.500000 0.937500
v 0.500000 -3.500000 0.937500
v 0.500000 -3.500000 1.062500
v 0.375000 -3.500000 1.062500
v 0.500000 -3.500000 1.062500
v 0.500000 -3.500000 0.937500
v 0.375000 -3.500000 0.937500
v 0.062500 -1.500000 0.500000
v -0.062500 -1.500000 0.500000
v -0.062500 -3.500000 0.500000
v 0.062500 -3.500000 0.500000
v -0.062500 -1.500000 0.625000
v 0.062500 -1.500000 0.625000
v 0.062500 -3.500000 0.625000
v -0.062500 -3.500000 0.625000
v -0.062500 -1.500000 0.500000
v -0.062500 -1.500000 0.625000
v -0.062500 -3.500000 0.625000
v -0.062500 -3.500000 0.500000
v 0.062500 -1.500000 0.625000
v 0.062500 -1.500000 0.500000
v 0.062500 -3.500000 0.500000
v 0.062500 -3.500000 0.625000
v -0.062500 -3.500000 0.625000
v 0.062500 -3.500000 0.625000
v 0.062500 -3.500000 0.500000
v -0.062500 -3.500000 0.500000
v 0.062500 -1.500000 1.375000
v -0.062500 -1.500000 1.375000
v -0.062500 -3.500000 1.375000
v 0.062500 -3.500000 1.375000
v -0.062500 -1.500000 1.500000
v 0.062500 -1.500000 1.500000
v 0.062500 -3.500000 1.500000
v -0.062500 -3.500000 1.500000
v -0.062500 -1.500000 1.375000
v -0.062500 -1.500000 1.500000
v -0.062500 -3.500000 1.500000
v -0.062500 -3.500000 1.375000
v 0.062500 -1.500000 1.500000
v 0.062500 -1.500000 1.375000
v 0.062500 -3.500000 1.375000
v 0.062500 -3.500000 1.500000
v -0.062500 -3.500000 1.500000
v 0.062500 -3.500000 1.500000
v 0.062500 -3.500000 1.375000
v -0.062500 -3.500000 1.375000
v -0.125000 -2.500000 0.687500
v -0.312500 -2.500000 0.687500
v -0.312500 -4.500000 0.687500
v -0.125000 -4.500000 0.687500
v -0.312500 -2.500000 0.875000
v -0.125000 -2.500000 0.875000
v -0.125000 -4.500000 0.875000
v -0.312500 -4.500000 0.875000
v -0.312500 -2.500000 0.687500
v -0.312500 -2.500000 0.875000
v -0.312500 -4.500000 0.875000
v -0.312500 -4.500000 0.687500
v -0.125000 -2.500000 0.875000
v -0.125000 -2.500000 0.687500
v -0.125000 -4.500000 0.687500
v -0.125000 -4.500000 0.875000
v -0.312500 -4.500000 0.875000
v -0.125000 -4.500000 0.875000
v -0.125000 -4.500000 0.687500
v -0.312500 -4.500000 0.687500
v 0.312500 -2.500000 0.687500
v 0.125000 -2.500000 0.687500
v 0.125000 -4.500000 0.687500
v 0.312500 -4.500000 0.687500
v 0.125000 -2.500000 0.875000
v 0.312500 -2.500000 0.875000
v 0.312500 -4.500000 0.875000
v 0.125000 -4.500000 0.875000
v 0.125000 -2.500000 0.687500
v 0.125000 -2.500000 0.875000
v 0.125000 -4.500000 0.875000
v 0.125000 -4.500000 0.687500
v 0.312500 -2.500000 0.875000
v 0.312500 -2.500000 0.687500
v 0.312500 -4.500000 0.687500
v 0.312500 -4.500000 0.875000
v 0.125000 -4.500000 0.875000
v 0.312500 -4.500000 0.875000
v 0.312500 -4.500000 0.687500
v 0.125000 -4.500000 0.687500
v -0.125000 -2.500000 1.125000
v -0.312500 -2.500000 1.125000
v -0.312500 -4.500000 1.125000
v -0.125000 -4.500000 1.125000
v -0.312500 -2.500000 1.312500
v -0.125000 -2.500000 1.312500
v -0.125000 -4.500000 1.312500
v -0.312500 -4.500000 1.312500
v -0.312500 -2.500000 1.125000
v -0.312500 -2.500000 1.312500
v -0.312500 -4.500000 1.312500
v -0.312500 -4.500000 1.125000
v -0.125000 -2.500000 1.312500
v -0.125000 -2.500000 1.125000
v -0.125000 -4.500000 1.125000
v -0.125000 -4.500000 1.312500
v -0.312500 -4.500000 1.312500
v -0.125000 -4.500000 1.312500
v -0.125000 -4.500000 1.125000
v -0.312500 -4.500000 1.125000
v 0.312500 -2.500000 1.125000
v 0.125000 -2.500000 1.125000
v 0.125000 -4.500000 1.125000
v 0.312500 -4.500000 1.125000
v 0.125000 -2.500000 1.312500
v 0.312500 -2.500000 1.312500
v 0.312500 -4.500000 1.312500
v 0.125000 -4.500000 1.312500
v 0.125000 -2.500000 1.125000
v 0.125000 -2.500000 1.312500
v 0.125000 -4.500000 1.312500
v 0.125000 -4.500000 1.125000
v 0.312500 -2.500000 1.312500
v 0.312500 -2.500000 1.125000
v 0.312500 -4.500000 1.125000
v 0.312500 -4.500000 1.312500
v 0.125000 -4.500000 1.312500
v 0.312500 -4.500000 1.312500
v 0.312500 -4.500000 1.125000
v 0.125000 -4.500000 1.125000
v 0.125000 -3.500000 0.875000
v -0.125000 -3.500000 0.875000
v -0.125000 -3.750000 0.875000
v 0.125000 -3.750000 0.875000
v -0.125000 -3.500000 1.125000
v 0.125000 -3.500000 1.125000
v 0.125000 -3.750000 1.125000
v -0.125000 -3.750000 1.125000
v -0.125000 -3.500000 0.875000
v -0.125000 -3.500000 1.125000
v -0.125000 -3.750000 1.125000
v -0.125000 -3.750000 0.875000
v 0.125000 -3.500000 1.125000
v 0.125000 -3.500000 0.875000
v 0.125000 -3.750000 0.875000
v 0.125000 -3.750000 1.125000
v -0.125000 -3.750000 1.125000
v 0.125000 -3.750000 1.125000
v 0.125000 -3.750000 0.875000
v -0.125000 -3.750000 0.875000
v -0.500000 -1.504000 0.625000
v -0.500000 -1.504000 0.500000
v -0.375000 -1.504000 0.500000
v -0.375000 -1.504000 0.625000
v 0.375000 -1.504000 0.625000
v 0.375000 -1.504000 0.500000
v 0.500000 -1.504000 0.500000
v 0.500000 -1.504000 0.625000
v -0.500000 -1.504000 1.500000
v -0.500000 -1.504000 1.375000
v -0.375000 -1.504000 1.375000
v -0.375000 -1.504000 1.500000
v 0.375000 -1.504000 1.500000
v 0.375000 -1.504000 1.375000
v 0.500000 -1.504000 1.375000
v 0.500000 -1.504000 1.500000
vt 0.523438 1.000000
vt 0.632812 1.000000
vt 0.632812 0.750000
vt 0.523438 0.750000
vt 0.523438 1.000000
vt 0.632812 1.000000
vt 0.632812 0.750000
vt 0.523438 0.750000
vt 0.523438 1.000000
vt 0.632812 1.000000
vt 0.632812 0.750000
vt 0.523438 0.750000
vt 0.523438 1.000000
vt 0.632812 1.000000
vt 0.632812 0.750000
vt 0.523438 0.750000
vt 0.804688 1.000000
vt 0.914062 1.000000
vt 0.914062 0.781250
vt 0.804688 0.781250
vt 0.789062 1.000000
vt 0.804688 1.000000
vt 0.804688 0.750000
vt 0.789062 0.750000
vt 0.789062 1.000000
vt 0.804688 1.000000
vt 0.804688 0.750000
vt 0.789062 0.750000
vt 0.789062 1.000000
vt 0.804688 1.000000
vt 0.804688 0.750000
vt 0.789062 0.750000
vt 0.789062 1.000000
vt 0.804688 1.000000
vt 0.804688 0.750000
vt 0.789062 0.750000
vt 0.914062 0.281250
vt 0.929688 0.281250
vt 0.929688 0.250000
vt 0.914062 0.250000
vt 0.789062 1.000000
vt 0.804688 1.000000
vt 0.804688 0.750000
vt 0.789062 0.750000
vt 0.789062 1.000000
vt 0.804688 1.000000
vt 0.804688 0.750000
vt 0.789062 0.750000
vt 0.789062 1.000000
vt 0.804688 1.000000
vt 0.804688 0.750000
vt 0.789062 0.750000
vt 0.789062 1.000000
vt 0.804688 1.000000
vt 0.804688 0.750000
vt 0.789062 0.750000
vt 0.914062 0.281250
vt 0.929688 0.281250
vt 0.929688 0.250000
vt 0.914062 0.250000
vt 0.789062 1.000000
vt 0.804688 1.000000
vt 0.804688 0.750000
vt 0.789062 0.750000
vt 0.789062 1.000000
vt 0.804688 1.000000
vt 0.804688 0.750000
vt 0.789062 0.750000
vt 0.789062 1.000000
vt 0.804688 1.000000
vt 0.804688 0.750000
vt 0.789062 0.750000
vt 0.789062 1.000000
vt 0.804688 1.000000
vt 0.804688 0.750000
vt 0.789062 0.750000
vt 0.914062 0.281250
vt 0.929688 0.281250
vt 0.929688 0.250000
vt 0.914062 0.250000
vt 0.789062 1.000000
vt 0.804688 1.000000
vt 0.804688 0.750000
vt 0.789062 0.750000
vt 0.789062 1.000000
vt 0.804688 1.000000
vt 0.804688 0.750000
vt 0.789062 0.750000
vt 0.789062 1.000000
vt 0.804688 1.000000
vt 0.804688 0.750000
vt 0.789062 0.750000
vt 0.789062 1.000000
vt 0.804688 1.000000
vt 0.804688 0.750000
vt 0.789062 0.750000
vt 0.914062 0.281250
vt 0.929688 0.281250
vt 0.929688 0.250000
vt 0.914062 0.250000
vt 0.250000 0.156250
vt 0.375000 0.156250
vt 0.375000 0.125000
vt 0.250000 0.125000
vt 0.250000 0.156250
vt 0.375000 0.156250
vt 0.375000 0.125000
vt 0.250000 0.125000
vt 0.664062 0.281250
vt 0.914062 0.281250
vt 0.914062 0.250000
vt 0.664062 0.250000
vt 0.664062 0.281250
vt 0.914062 0.281250
vt 0.914062 0.250000
vt 0.664062 0.250000
vt 0.000000 1.000000
vt 0.125000 1.000000
vt 0.125000 0.500000
vt 0.000000 0.500000
vt 0.000000 1.000000
vt 0.125000 1.000000
vt 0.125000 0.500000
vt 0.000000 0.500000
vt 0.234375 0.500000
vt 0.343750 0.500000
vt 0.343750 0.281250
vt 0.234375 0.281250
vt 0.343750 0.500000
vt 0.453125 0.500000
vt 0.453125 0.281250
vt 0.343750 0.281250
vt 0.000000 0.500000
vt 0.234375 0.500000
vt 0.234375 0.281250
vt 0.000000 0.281250
vt 0.000000 0.500000
vt 0.234375 0.500000
vt 0.234375 0.281250
vt 0.000000 0.281250
vt 0.414062 1.000000
vt 0.523438 1.000000
vt 0.523438 0.531250
vt 0.414062 0.531250
vt 0.914062 1.000000
vt 0.929688 1.000000
vt 0.929688 0.781250
vt 0.914062 0.781250
vt 0.914062 1.000000
vt 0.929688 1.000000
vt 0.929688 0.781250
vt 0.914062 0.781250
vt 0.914062 1.000000
vt 0.929688 1.000000
vt 0.929688 0.781250
vt 0.914062 0.781250
vt 0.914062 1.000000
vt 0.929688 1.000000
vt 0.929688 0.781250
vt 0.914062 0.781250
vt 0.914062 1.000000
vt 0.929688 1.000000
vt 0.929688 0.781250
vt 0.914062 0.781250
vt 0.914062 1.000000
vt 0.929688 1.000000
vt 0.929688 0.781250
vt 0.914062 0.781250
vt 0.914062 1.000000
vt 0.929688 1.000000
vt 0.929688 0.781250
vt 0.914062 0.781250
vt 0.914062 1.000000
vt 0.929688 1.000000
vt 0.929688 0.781250
vt 0.914062 0.781250
vt 0.914062 1.000000
vt 0.929688 1.000000
vt 0.929688 0.781250
vt 0.914062 0.781250
vt 0.914062 1.000000
vt 0.929688 1.000000
vt 0.929688 0.781250
vt 0.914062 0.781250
vt 0.914062 1.000000
vt 0.929688 1.000000
vt 0.929688 0.781250
vt 0.914062 0.781250
vt 0.914062 1.000000
vt 0.929688 1.000000
vt 0.929688 0.781250
vt 0.914062 0.781250
vt 0.914062 1.000000
vt 0.929688 1.000000
vt 0.929688 0.781250
vt 0.914062 0.781250
vt 0.914062 1.000000
vt 0.929688 1.000000
vt 0.929688 0.781250
vt 0.914062 0.781250
vt 0.914062 1.000000
vt 0.929688 1.000000
vt 0.929688 0.781250
vt 0.914062 0.781250
vt 0.914062 1.000000
vt 0.929688 1.000000
vt 0.929688 0.781250
vt 0.914062 0.781250
vt 0.914062 1.000000
vt 0.929688 1.000000
vt 0.929688 0.781250
vt 0.914062 0.781250
vt 0.914062 1.000000
vt 0.929688 1.000000
vt 0.929688 0.781250
vt 0.914062 0.781250
vt 0.914062 1.000000
vt 0.929688 1.000000
vt 0.929688 0.781250
vt 0.914062 0.781250
vt 0.914062 1.000000
vt 0.929688 1.000000
vt 0.929688 0.781250
vt 0.914062 0.781250
vt 0.914062 1.000000
vt 0.929688 1.000000
vt 0.929688 0.781250
vt 0.914062 0.781250
vt 0.914062 1.000000
vt 0.929688 1.000000
vt 0.929688 0.781250
vt 0.914062 0.781250
vt 0.914062 1.000000
vt 0.929688 1.000000
vt 0.929688 0.781250
vt 0.914062 0.781250
vt 0.914062 1.000000
vt 0.929688 1.000000
vt 0.929688 0.781250
vt 0.914062 0.781250
vt 0.929688 0.281250
vt 0.945312 0.281250
vt 0.945312 0.250000
vt 0.929688 0.250000
vt 0.992188 1.000000
vt 1.000000 1.000000
vt 1.000000 0.968750
vt 0.992188 0.968750
vt 0.992188 1.000000
vt 1.000000 1.000000
vt 1.000000 0.968750
vt 0.992188 0.968750
vt 0.960938 0.281250
vt 0.976562 0.281250
vt 0.976562 0.265625
vt 0.960938 0.265625
vt 0.960938 0.281250
vt 0.976562 0.281250
vt 0.976562 0.265625
vt 0.960938 0.265625
vt 0.375000 0.156250
vt 0.500000 0.156250
vt 0.500000 0.125000
vt 0.375000 0.125000
vt 0.375000 0.156250
vt 0.500000 0.156250
vt 0.500000 0.125000
vt 0.375000 0.125000
vt 0.000000 0.156250
vt 0.250000 0.156250
vt 0.250000 0.125000
vt 0.000000 0.125000
vt 0.000000 0.156250
vt 0.250000 0.156250
vt 0.250000 0.125000
vt 0.000000 0.125000
vt 0.000000 1.000000
vt 0.125000 1.000000
vt 0.125000 0.500000
vt 0.000000 0.500000
vt 0.375000 0.156250
vt 0.500000 0.156250
vt 0.500000 0.125000
vt 0.375000 0.125000
vt 0.375000 0.156250
vt 0.500000 0.156250
vt 0.500000 0.125000
vt 0.375000 0.125000
vt 0.000000 0.156250
vt 0.250000 0.156250
vt 0.250000 0.125000
vt 0.000000 0.125000
vt 0.000000 0.156250
vt 0.250000 0.156250
vt 0.250000 0.125000
vt 0.000000 0.125000
vt 0.125000 1.000000
vt 0.250000 1.000000
vt 0.250000 0.500000
vt 0.125000 0.500000
vt 0.250000 1.000000
vt 0.375000 1.000000
vt 0.375000 0.500000
vt 0.250000 0.500000
vt 0.976562 0.500000
vt 0.992188 0.500000
vt 0.992188 0.312500
vt 0.976562 0.312500
vt 0.976562 0.500000
vt 0.992188 0.500000
vt 0.992188 0.312500
vt 0.976562 0.312500
vt 0.976562 0.500000
vt 0.992188 0.500000
vt 0.992188 0.312500
vt 0.976562 0.312500
vt 0.976562 0.500000
vt 0.992188 0.500000
vt 0.992188 0.312500
vt 0.976562 0.312500
vt 0.976562 0.500000
vt 0.992188 0.500000
vt 0.992188 0.312500
vt 0.976562 0.312500
vt 0.976562 0.500000
vt 0.992188 0.500000
vt 0.992188 0.312500
vt 0.976562 0.312500
vt 0.976562 0.500000
vt 0.992188 0.500000
vt 0.992188 0.312500
vt 0.976562 0.312500
vt 0.976562 0.500000
vt 0.992188 0.500000
vt 0.992188 0.312500
vt 0.976562 0.312500
vt 0.976562 0.500000
vt 0.992188 0.500000
vt 0.992188 0.312500
vt 0.976562 0.312500
vt 0.976562 0.500000
vt 0.992188 0.500000
vt 0.992188 0.312500
vt 0.976562 0.312500
vt 0.976562 0.500000
vt 0.992188 0.500000
vt 0.992188 0.312500
vt 0.976562 0.312500
vt 0.976562 0.500000
vt 0.992188 0.500000
vt 0.992188 0.312500
vt 0.976562 0.312500
vt 0.976562 0.500000
vt 0.992188 0.500000
vt 0.992188 0.312500
vt 0.976562 0.312500
vt 0.976562 0.500000
vt 0.992188 0.500000
vt 0.992188 0.312500
vt 0.976562 0.312500
vt 0.976562 0.500000
vt 0.992188 0.500000
vt 0.992188 0.312500
vt 0.976562 0.312500
vt 0.976562 0.500000
vt 0.992188 0.500000
vt 0.992188 0.312500
vt 0.976562 0.312500
vt 0.976562 0.500000
vt 0.992188 0.500000
vt 0.992188 0.312500
vt 0.976562 0.312500
vt 0.976562 0.500000
vt 0.992188 0.500000
vt 0.992188 0.312500
vt 0.976562 0.312500
vt 0.976562 0.500000
vt 0.992188 0.500000
vt 0.992188 0.312500
vt 0.976562 0.312500
vt 0.976562 0.500000
vt 0.992188 0.500000
vt 0.992188 0.312500
vt 0.976562 0.312500
vt 0.976562 0.500000
vt 0.992188 0.500000
vt 0.992188 0.312500
vt 0.976562 0.312500
vt 0.976562 0.500000
vt 0.992188 0.500000
vt 0.992188 0.312500
vt 0.976562 0.312500
vt 0.976562 0.500000
vt 0.992188 0.500000
vt 0.992188 0.312500
vt 0.976562 0.312500
vt 0.976562 0.500000
vt 0.992188 0.500000
vt 0.992188 0.312500
vt 0.976562 0.312500
vt 0.453125 0.500000
vt 0.671875 0.500000
vt 0.671875 0.312500
vt 0.453125 0.312500
vt 0.453125 0.500000
vt 0.671875 0.500000
vt 0.671875 0.312500
vt 0.453125 0.312500
vt 0.453125 0.500000
vt 0.671875 0.500000
vt 0.671875 0.312500
vt 0.453125 0.312500
vt 0.453125 0.500000
vt 0.671875 0.500000
vt 0.671875 0.312500
vt 0.453125 0.312500
vt 0.671875 0.500000
vt 0.765625 0.500000
vt 0.765625 0.312500
vt 0.671875 0.312500
vt 0.671875 0.500000
vt 0.765625 0.500000
vt 0.765625 0.312500
vt 0.671875 0.312500
vt 0.671875 0.500000
vt 0.765625 0.500000
vt 0.765625 0.312500
vt 0.671875 0.312500
vt 0.671875 0.500000
vt 0.765625 0.500000
vt 0.765625 0.312500
vt 0.671875 0.312500
vt 0.156250 0.281250
vt 0.203125 0.281250
vt 0.203125 0.156250
vt 0.156250 0.156250
vt 0.156250 0.281250
vt 0.203125 0.281250
vt 0.203125 0.156250
vt 0.156250 0.156250
vt 0.156250 0.281250
vt 0.203125 0.281250
vt 0.203125 0.156250
vt 0.156250 0.156250
vt 0.156250 0.281250
vt 0.203125 0.281250
vt 0.203125 0.156250
vt 0.156250 0.156250
vt 0.203125 0.281250
vt 0.250000 0.281250
vt 0.250000 0.187500
vt 0.203125 0.187500
vt 0.203125 0.281250
vt 0.250000 0.281250
vt 0.250000 0.187500
vt 0.203125 0.187500
vt 0.500000 0.156250
vt 0.593750 0.156250
vt 0.593750 0.140625
vt 0.500000 0.140625
vt 0.500000 0.156250
vt 0.593750 0.156250
vt 0.593750 0.140625
vt 0.500000 0.140625
vt 0.500000 0.156250
vt 0.593750 0.156250
vt 0.593750 0.140625
vt 0.500000 0.140625
vt 0.500000 0.156250
vt 0.593750 0.156250
vt 0.593750 0.140625
vt 0.500000 0.140625
vt 0.765625 0.500000
vt 0.859375 0.500000
vt 0.859375 0.312500
vt 0.765625 0.312500
vt 0.765625 0.500000
vt 0.859375 0.500000
vt 0.859375 0.312500
vt 0.765625 0.312500
vt 0.953125 0.500000
vt 0.976562 0.500000
vt 0.976562 0.312500
vt 0.953125 0.312500
vt 0.953125 0.500000
vt 0.976562 0.500000
vt 0.976562 0.312500
vt 0.953125 0.312500
vt 0.953125 0.500000
vt 0.976562 0.500000
vt 0.976562 0.312500
vt 0.953125 0.312500
vt 0.953125 0.500000
vt 0.976562 0.500000
vt 0.976562 0.312500
vt 0.953125 0.312500
vt 0.328125 0.281250
vt 0.421875 0.281250
vt 0.421875 0.234375
vt 0.328125 0.234375
vt 0.328125 0.281250
vt 0.421875 0.281250
vt 0.421875 0.234375
vt 0.328125 0.234375
vt 0.515625 0.281250
vt 0.578125 0.281250
vt 0.578125 0.234375
vt 0.515625 0.234375
vt 0.515625 0.281250
vt 0.578125 0.281250
vt 0.578125 0.234375
vt 0.515625 0.234375
vt 0.000000 0.281250
vt 0.093750 0.281250
vt 0.093750 0.156250
vt 0.000000 0.156250
vt 0.000000 0.281250
vt 0.093750 0.281250
vt 0.093750 0.156250
vt 0.000000 0.156250
vt 0.593750 0.156250
vt 0.640625 0.156250
vt 0.640625 0.140625
vt 0.593750 0.140625
vt 0.593750 0.156250
vt 0.640625 0.156250
vt 0.640625 0.140625
vt 0.593750 0.140625
vt 0.593750 0.156250
vt 0.640625 0.156250
vt 0.640625 0.140625
vt 0.593750 0.140625
vt 0.593750 0.156250
vt 0.640625 0.156250
vt 0.640625 0.140625
vt 0.593750 0.140625
vt 0.250000 0.281250
vt 0.296875 0.281250
vt 0.296875 0.187500
vt 0.250000 0.187500
vt 0.328125 0.281250
vt 0.421875 0.281250
vt 0.421875 0.234375
vt 0.328125 0.234375
vt 0.328125 0.281250
vt 0.421875 0.281250
vt 0.421875 0.234375
vt 0.328125 0.234375
vt 0.515625 0.281250
vt 0.578125 0.281250
vt 0.578125 0.234375
vt 0.515625 0.234375
vt 0.515625 0.281250
vt 0.578125 0.281250
vt 0.578125 0.234375
vt 0.515625 0.234375
vt 0.000000 0.281250
vt 0.093750 0.281250
vt 0.093750 0.156250
vt 0.000000 0.156250
vt 0.000000 0.281250
vt 0.093750 0.281250
vt 0.093750 0.156250
vt 0.000000 0.156250
vt 0.593750 0.156250
vt 0.640625 0.156250
vt 0.640625 0.140625
vt 0.593750 0.140625
vt 0.593750 0.156250
vt 0.640625 0.156250
vt 0.640625 0.140625
vt 0.593750 0.140625
vt 0.593750 0.156250
vt 0.640625 0.156250
vt 0.640625 0.140625
vt 0.593750 0.140625
vt 0.593750 0.156250
vt 0.640625 0.156250
vt 0.640625 0.140625
vt 0.593750 0.140625
vt 0.250000 0.281250
vt 0.296875 0.281250
vt 0.296875 0.187500
vt 0.250000 0.187500
vt 0.328125 0.281250
vt 0.421875 0.281250
vt 0.421875 0.234375
vt 0.328125 0.234375
vt 0.328125 0.281250
vt 0.421875 0.281250
vt 0.421875 0.234375
vt 0.328125 0.234375
vt 0.515625 0.281250
vt 0.578125 0.281250
vt 0.578125 0.234375
vt 0.515625 0.234375
vt 0.515625 0.281250
vt 0.578125 0.281250
vt 0.578125 0.234375
vt 0.515625 0.234375
vt 0.000000 0.281250
vt 0.093750 0.281250
vt 0.093750 0.156250
vt 0.000000 0.156250
vt 0.000000 0.281250
vt 0.093750 0.281250
vt 0.093750 0.156250
vt 0.000000 0.156250
vt 0.593750 0.156250
vt 0.640625 0.156250
vt 0.640625 0.140625
vt 0.593750 0.140625
vt 0.593750 0.156250
vt 0.640625 0.156250
vt 0.640625 0.140625
vt 0.593750 0.140625
vt 0.593750 0.156250
vt 0.640625 0.156250
vt 0.640625 0.140625
vt 0.593750 0.140625
vt 0.593750 0.156250
vt 0.640625 0.156250
vt 0.640625 0.140625
vt 0.593750 0.140625
vt 0.250000 0.281250
vt 0.296875 0.281250
vt 0.296875 0.187500
vt 0.250000 0.187500
vt 0.328125 0.281250
vt 0.421875 0.281250
vt 0.421875 0.234375
vt 0.328125 0.234375
vt 0.328125 0.281250
vt 0.421875 0.281250
vt 0.421875 0.234375
vt 0.328125 0.234375
vt 0.515625 0.281250
vt 0.578125 0.281250
vt 0.578125 0.234375
vt 0.515625 0.234375
vt 0.515625 0.281250
vt 0.578125 0.281250
vt 0.578125 0.234375
vt 0.515625 0.234375
vt 0.000000 0.281250
vt 0.093750 0.281250
vt 0.093750 0.156250
vt 0.000000 0.156250
vt 0.000000 0.281250
vt 0.093750 0.281250
vt 0.093750 0.156250
vt 0.000000 0.156250
vt 0.593750 0.156250
vt 0.640625 0.156250
vt 0.640625 0.140625
vt 0.593750 0.140625
vt 0.593750 0.156250
vt 0.640625 0.156250
vt 0.640625 0.140625
vt 0.593750 0.140625
vt 0.593750 0.156250
vt 0.640625 0.156250
vt 0.640625 0.140625
vt 0.593750 0.140625
vt 0.593750 0.156250
vt 0.640625 0.156250
vt 0.640625 0.140625
vt 0.593750 0.140625
vt 0.250000 0.281250
vt 0.296875 0.281250
vt 0.296875 0.187500
vt 0.250000 0.187500
vt 0.578125 0.281250
vt 0.640625 0.281250
vt 0.640625 0.234375
vt 0.578125 0.234375
vt 0.578125 0.281250
vt 0.640625 0.281250
vt 0.640625 0.234375
vt 0.578125 0.234375
vt 0.421875 0.281250
vt 0.515625 0.281250
vt 0.515625 0.234375
vt 0.421875 0.234375
vt 0.421875 0.281250
vt 0.515625 0.281250
vt 0.515625 0.234375
vt 0.421875 0.234375
vt 0.929688 1.000000
vt 0.992188 1.000000
vt 0.992188 0.812500
vt 0.929688 0.812500
vt 0.929688 1.000000
vt 0.992188 1.000000
vt 0.992188 0.812500
vt 0.929688 0.812500
vt 0.593750 0.156250
vt 0.640625 0.156250
vt 0.640625 0.140625
vt 0.593750 0.140625
vt 0.593750 0.156250
vt 0.640625 0.156250
vt 0.640625 0.140625
vt 0.593750 0.140625
vt 0.593750 0.156250
vt 0.640625 0.156250
vt 0.640625 0.140625
vt 0.593750 0.140625
vt 0.593750 0.156250
vt 0.640625 0.156250
vt 0.640625 0.140625
vt 0.593750 0.140625
vt 0.250000 0.281250
vt 0.296875 0.281250
vt 0.296875 0.187500
vt 0.250000 0.187500
vt 0.578125 0.281250
vt 0.640625 0.281250
vt 0.640625 0.234375
vt 0.578125 0.234375
vt 0.578125 0.281250
vt 0.640625 0.281250
vt 0.640625 0.234375
vt 0.578125 0.234375
vt 0.421875 0.281250
vt 0.515625 0.281250
vt 0.515625 0.234375
vt 0.421875 0.234375
vt 0.421875 0.281250
vt 0.515625 0.281250
vt 0.515625 0.234375
vt 0.421875 0.234375
vt 0.929688 1.000000
vt 0.992188 1.000000
vt 0.992188 0.812500
vt 0.929688 0.812500
vt 0.929688 1.000000
vt 0.992188 1.000000
vt 0.992188 0.812500
vt 0.929688 0.812500
vt 0.593750 0.156250
vt 0.640625 0.156250
vt 0.640625 0.140625
vt 0.593750 0.140625
vt 0.593750 0.156250
vt 0.640625 0.156250
vt 0.640625 0.140625
vt 0.593750 0.140625
vt 0.593750 0.156250
vt 0.640625 0.156250
vt 0.640625 0.140625
vt 0.593750 0.140625
vt 0.593750 0.156250
vt 0.640625 0.156250
vt 0.640625 0.140625
vt 0.593750 0.140625
vt 0.250000 0.281250
vt 0.296875 0.281250
vt 0.296875 0.187500
vt 0.250000 0.187500
vt 0.632812 1.000000
vt 0.726562 1.000000
vt 0.726562 0.750000
vt 0.632812 0.750000
vt 0.632812 1.000000
vt 0.726562 1.000000
vt 0.726562 0.750000
vt 0.632812 0.750000
vt 0.632812 1.000000
vt 0.726562 1.000000
vt 0.726562 0.750000
vt 0.632812 0.750000
vt 0.632812 1.000000
vt 0.726562 1.000000
vt 0.726562 0.750000
vt 0.632812 0.750000
vt 0.859375 0.500000
vt 0.953125 0.500000
vt 0.953125 0.312500
vt 0.859375 0.312500
vt 0.726562 1.000000
vt 0.789062 1.000000
vt 0.789062 0.750000
vt 0.726562 0.750000
vt 0.726562 1.000000
vt 0.789062 1.000000
vt 0.789062 0.750000
vt 0.726562 0.750000
vt 0.726562 1.000000
vt 0.789062 1.000000
vt 0.789062 0.750000
vt 0.726562 0.750000
vt 0.726562 1.000000
vt 0.789062 1.000000
vt 0.789062 0.750000
vt 0.726562 0.750000
vt 0.093750 0.281250
vt 0.156250 0.281250
vt 0.156250 0.156250
vt 0.093750 0.156250
vt 0.398438 1.000000
vt 0.414062 1.000000
vt 0.414062 0.500000
vt 0.398438 0.500000
vt 0.398438 1.000000
vt 0.414062 1.000000
vt 0.414062 0.500000
vt 0.398438 0.500000
vt 0.398438 1.000000
vt 0.414062 1.000000
vt 0.414062 0.500000
vt 0.398438 0.500000
vt 0.398438 1.000000
vt 0.414062 1.000000
vt 0.414062 0.500000
vt 0.398438 0.500000
vt 0.945312 0.281250
vt 0.960938 0.281250
vt 0.960938 0.250000
vt 0.945312 0.250000
vt 0.398438 1.000000
vt 0.414062 1.000000
vt 0.414062 0.500000
vt 0.398438 0.500000
vt 0.398438 1.000000
vt 0.414062 1.000000
vt 0.414062 0.500000
vt 0.398438 0.500000
vt 0.398438 1.000000
vt 0.414062 1.000000
vt 0.414062 0.500000
vt 0.398438 0.500000
vt 0.398438 1.000000
vt 0.414062 1.000000
vt 0.414062 0.500000
vt 0.398438 0.500000
vt 0.945312 0.281250
vt 0.960938 0.281250
vt 0.960938 0.250000
vt 0.945312 0.250000
vt 0.398438 1.000000
vt 0.414062 1.000000
vt 0.414062 0.500000
vt 0.398438 0.500000
vt 0.398438 1.000000
vt 0.414062 1.000000
vt 0.414062 0.500000
vt 0.398438 0.500000
vt 0.398438 1.000000
vt 0.414062 1.000000
vt 0.414062 0.500000
vt 0.398438 0.500000
vt 0.398438 1.000000
vt 0.414062 1.000000
vt 0.414062 0.500000
vt 0.398438 0.500000
vt 0.945312 0.281250
vt 0.960938 0.281250
vt 0.960938 0.250000
vt 0.945312 0.250000
vt 0.398438 1.000000
vt 0.414062 1.000000
vt 0.414062 0.500000
vt 0.398438 0.500000
vt 0.398438 1.000000
vt 0.414062 1.000000
vt 0.414062 0.500000
vt 0.398438 0.500000
vt 0.398438 1.000000
vt 0.414062 1.000000
vt 0.414062 0.500000
vt 0.398438 0.500000
vt 0.398438 1.000000
vt 0.414062 1.000000
vt 0.414062 0.500000
vt 0.398438 0.500000
vt 0.945312 0.281250
vt 0.960938 0.281250
vt 0.960938 0.250000
vt 0.945312 0.250000
vt 0.375000 1.000000
vt 0.398438 1.000000
vt 0.398438 0.500000
vt 0.375000 0.500000
vt 0.375000 1.000000
vt 0.398438 1.000000
vt 0.398438 0.500000
vt 0.375000 0.500000
vt 0.375000 1.000000
vt 0.398438 1.000000
vt 0.398438 0.500000
vt 0.375000 0.500000
vt 0.375000 1.000000
vt 0.398438 1.000000
vt 0.398438 0.500000
vt 0.375000 0.500000
vt 0.640625 0.281250
vt 0.664062 0.281250
vt 0.664062 0.234375
vt 0.640625 0.234375
vt 0.375000 1.000000
vt 0.398438 1.000000
vt 0.398438 0.500000
vt 0.375000 0.500000
vt 0.375000 1.000000
vt 0.398438 1.000000
vt 0.398438 0.500000
vt 0.375000 0.500000
vt 0.375000 1.000000
vt 0.398438 1.000000
vt 0.398438 0.500000
vt 0.375000 0.500000
vt 0.375000 1.000000
vt 0.398438 1.000000
vt 0.398438 0.500000
vt 0.375000 0.500000
vt 0.640625 0.281250
vt 0.664062 0.281250
vt 0.664062 0.234375
vt 0.640625 0.234375
vt 0.375000 1.000000
vt 0.398438 1.000000
vt 0.398438 0.500000
vt 0.375000 0.500000
vt 0.375000 1.000000
vt 0.398438 1.000000
vt 0.398438 0.500000
vt 0.375000 0.500000
vt 0.375000 1.000000
vt 0.398438 1.000000
vt 0.398438 0.500000
vt 0.375000 0.500000
vt 0.375000 1.000000
vt 0.398438 1.000000
vt 0.398438 0.500000
vt 0.375000 0.500000
vt 0.640625 0.281250
vt 0.664062 0.281250
vt 0.664062 0.234375
vt 0.640625 0.234375
vt 0.375000 1.000000
vt 0.398438 1.000000
vt 0.398438 0.500000
vt 0.375000 0.500000
vt 0.375000 1.000000
vt 0.398438 1.000000
vt 0.398438 0.500000
vt 0.375000 0.500000
vt 0.375000 1.000000
vt 0.398438 1.000000
vt 0.398438 0.500000
vt 0.375000 0.500000
vt 0.375000 1.000000
vt 0.398438 1.000000
vt 0.398438 0.500000
vt 0.375000 0.500000
vt 0.640625 0.281250
vt 0.664062 0.281250
vt 0.664062 0.234375
vt 0.640625 0.234375
vt 0.296875 0.281250
vt 0.328125 0.281250
vt 0.328125 0.218750
vt 0.296875 0.218750
vt 0.296875 0.281250
vt 0.328125 0.281250
vt 0.328125 0.218750
vt 0.296875 0.218750
vt 0.296875 0.281250
vt 0.328125 0.281250
vt 0.328125 0.218750
vt 0.296875 0.218750
vt 0.296875 0.281250
vt 0.328125 0.281250
vt 0.328125 0.218750
vt 0.296875 0.218750
vt 0.296875 0.281250
vt 0.328125 0.281250
vt 0.328125 0.218750
vt 0.296875 0.218750
vn 0 0 -1
vn 0 0 1
vn -1 0 0
vn 1 0 0
vn 0 1 0
vn 0 -1 0
usemtl black_hole_generator
o Cube_Cube.012
f 1/1/1 4/4/1 3/3/1 2/2/1
f 5/5/2 8/8/2 7/7/2 6/6/2
f 9/9/3 12/12/3 11/11/3 10/10/3
f 13/13/4 16/16/4 15/15/4 14/14/4
f 17/17/6 20/20/6 19/19/6 18/18/6
f 21/21/1 24/24/1 23/23/1 22/22/1
f 25/25/2 28/28/2 27/27/2 26/26/2
f 29/29/3 32/32/3 31/31/3 30/30/3
f 33/33/4 36/36/4 35/35/4 34/34/4
f 981/37/6 982/40/6 983/39/6 984/38/6
f 41/41/1 44/44/1 43/43/1 42/42/1
f 45/45/2 48/48/2 47/47/2 46/46/2
f 49/49/3 52/52/3 51/51/3 50/50/3
f 53/53/4 56/56/4 55/55/4 54/54/4
f 985/57/6 986/60/6 987/59/6 988/58/6
f 61/61/1 64/64/1 63/63/1 62/62/1
f 65/65/2 68/68/2 67/67/2 66/66/2
f 69/69/3 72/72/3 71/71/3 70/70/3
f 73/73/4 76/76/4 75/75/4 74/74/4
f 989/77/6 990/80/6 991/79/6 992/78/6
f 81/81/1 84/84/1 83/83/1 82/82/1
f 85/85/2 88/88/2 87/87/2 86/86/2
f 89/89/3 92/92/3 91/91/3 90/90/3
f 93/93/4 96/96/4 95/95/4 94/94/4
f 993/97/6 994/100/6 995/99/6 996/98/6
f 101/101/1 104/104/1 103/103/1 102/102/1
f 105/105/2 108/108/2 107/107/2 106/106/2
f 109/109/3 112/112/3 111/111/3 110/110/3
f 113/113/4 116/116/4 115/115/4 114/114/4
f 117/117/5 120/120/5 119/119/5 118/118/5
f 121/121/6 124/124/6 123/123/6 122/122/6
f 125/125/1 128/128/1 127/127/1 126/126/1
f 129/129/2 132/132/2 131/131/2 130/130/2
f 133/133/3 136/136/3 135/135/3 134/134/3
f 137/137/4 140/140/4 139/139/4 138/138/4
f 141/141/6 144/144/6 143/143/6 142/142/6
f 145/145/1 148/148/1 147/147/1 146/146/1
f 149/149/2 152/152/2 151/151/2 150/150/2
f 153/153/3 156/156/3 155/155/3 154/154/3
f 157/157/4 160/160/4 159/159/4 158/158/4
f 161/161/1 164/164/1 163/163/1 162/162/1
f 165/165/2 168/168/2 167/167/2 166/166/2
f 169/169/3 172/172/3 171/171/3 170/170/3
f 173/173/4 176/176/4 175/175/4 174/174/4
f 177/177/1 180/180/1 179/179/1 178/178/1
f 181/181/2 184/184/2 183/183/2 182/182/2
f 185/185/3 188/188/3 187/187/3 186/186/3
f 189/189/4 192/192/4 191/191/4 190/190/4
f 193/193/1 196/196/1 195/195/1 194/194/1
f 197/197/2 200/200/2 199/199/2 198/198/2
f 201/201/3 204/204/3 203/203/3 202/202/3
f 205/205/4 208/208/4 207/207/4 206/206/4
f 209/209/1 212/212/1 211/211/1 210/210/1
f 213/213/2 216/216/2 215/215/2 214/214/2
f 217/217/3 220/220/3 219/219/3 218/218/3
f 221/221/4 224/224/4 223/223/4 222/222/4
f 225/225/1 228/228/1 227/227/1 226/226/1
f 229/229/2 232/232/2 231/231/2 230/230/2
f 233/233/3 236/236/3 235/235/3 234/234/3
f 237/237/4 240/240/4 239/239/4 238/238/4
f 241/241/1 244/244/1 243/243/1 242/242/1
f 245/245/3 248/248/3 247/247/3 246/246/3
f 249/249/4 252/252/4 251/251/4 250/250/4
f 253/253/5 256/256/5 255/255/5 254/254/5
f 257/257/6 260/260/6 259/259/6 258/258/6
f 261/261/1 264/264/1 263/263/1 262/262/1
f 265/265/2 268/268/2 267/267/2 266/266/2
f 269/269/3 272/272/3 271/271/3 270/270/3
f 273/273/4 276/276/4 275/275/4 274/274/4
f 277/277/5 280/280/5 279/279/5 278/278/5
f 281/281/1 284/284/1 283/283/1 282/282/1
f 285/285/2 288/288/2 287/287/2 286/286/2
f 289/289/3 292/292/3 291/291/3 290/290/3
f 293/293/4 296/296/4 295/295/4 294/294/4
f 297/297/5 300/300/5 299/299/5 298/298/5
f 301/301/6 304/304/6 303/303/6 302/302/6
f 305/305/1 308/308/1 307/307/1 306/306/1
f 309/309/2 312/312/2 311/311/2 310/310/2
f 313/313/3 316/316/3 315/315/3 314/314/3
f 317/317/4 320/320/4 319/319/4 318/318/4
f 321/321/1 324/324/1 323/323/1 322/322/1
f 325/325/2 328/328/2 327/327/2 326/326/2
f 329/329/3 332/332/3 331/331/3 330/330/3
f 333/333/4 336/336/4 335/335/4 334/334/4
f 337/337/1 340/340/1 339/339/1 338/338/1
f 341/341/2 344/344/2 343/343/2 342/342/2
f 345/345/3 348/348/3 347/347/3 346/346/3
f 349/349/4 352/352/4 351/351/4 350/350/4
f 353/353/1 356/356/1 355/355/1 354/354/1
f 357/357/2 360/360/2 359/359/2 358/358/2
f 361/361/3 364/364/3 363/363/3 362/362/3
f 365/365/4 368/368/4 367/367/4 366/366/4
f 369/369/1 372/372/1 371/371/1 370/370/1
f 373/373/2 376/376/2 375/375/2 374/374/2
f 377/377/3 380/380/3 379/379/3 378/378/3
f 381/381/4 384/384/4 383/383/4 382/382/4
f 385/385/1 388/388/1 387/387/1 386/386/1
f 389/389/2 392/392/2 391/391/2 390/390/2
f 393/393/3 396/396/3 395/395/3 394/394/3
f 397/397/4 400/400/4 399/399/4 398/398/4
f 401/401/3 404/404/3 403/403/3 402/402/3
f 405/405/4 408/408/4 407/407/4 406/406/4
f 409/409/3 412/412/3 411/411/3 410/410/3
f 413/413/4 416/416/4 415/415/4 414/414/4
f 417/417/1 420/420/1 419/419/1 418/418/1
f 421/421/2 424/424/2 423/423/2 422/422/2
f 425/425/1 428/428/1 427/427/1 426/426/1
f 429/429/2 432/432/2 431/431/2 430/430/2
f 433/433/1 436/436/1 435/435/1 434/434/1
f 437/437/2 440/440/2 439/439/2 438/438/2
f 441/441/3 444/444/3 443/443/3 442/442/3
f 445/445/4 448/448/4 447/447/4 446/446/4
f 449/449/5 452/452/5 451/451/5 450/450/5
f 453/453/6 456/456/6 455/455/6 454/454/6
f 457/457/1 460/460/1 459/459/1 458/458/1
f 461/461/2 464/464/2 463/463/2 462/462/2
f 465/465/3 468/468/3 467/467/3 466/466/3
f 469/469/4 472/472/4 471/471/4 470/470/4
f 473/473/5 476/476/5 475/475/5 474/474/5
f 477/477/6 480/480/6 479/479/6 478/478/6
f 481/481/1 484/484/1 483/483/1 482/482/1
f 485/485/2 488/488/2 487/487/2 486/486/2
f 489/489/3 492/492/3 491/491/3 490/490/3
f 493/493/4 496/496/4 495/495/4 494/494/4
f 497/497/1 500/500/1 499/499/1 498/498/1
f 501/501/2 504/504/2 503/503/2 502/502/2
f 505/505/3 508/508/3 507/507/3 506/506/3
f 509/509/4 512/512/4 511/511/4 510/510/4
f 513/513/5 516/516/5 515/515/5 514/514/5
f 517/517/6 520/520/6 519/519/6 518/518/6
f 521/521/1 524/524/1 523/523/1 522/522/1
f 525/525/2 528/528/2 527/527/2 526/526/2
f 529/529/3 532/532/3 531/531/3 530/530/3
f 533/533/4 536/536/4 535/535/4 534/534/4
f 537/537/6 540/540/6 539/539/6 538/538/6
f 541/541/1 544/544/1 543/543/1 542/542/1
f 545/545/2 548/548/2 547/547/2 546/546/2
f 549/549/3 552/552/3 551/551/3 550/550/3
f 553/553/4 556/556/4 555/555/4 554/554/4
f 557/557/5 560/560/5 559/559/5 558/558/5
f 561/561/6 564/564/6 563/563/6 562/562/6
f 565/565/1 568/568/1 567/567/1 566/566/1
f 569/569/2 572/572/2 571/571/2 570/570/2
f 573/573/3 576/576/3 575/575/3 574/574/3
f 577/577/4 580/580/4 579/579/4 578/578/4
f 581/581/5 584/584/5 583/583/5 582/582/5
f 585/585/1 588/588/1 587/587/1 586/586/1
f 589/589/2 592/592/2 591/591/2 590/590/2
f 593/593/3 596/596/3 595/595/3 594/594/3
f 597/597/4 600/600/4 599/599/4 598/598/4
f 601/601/5 604/604/5 603/603/5 602/602/5
f 605/605/6 608/608/6 607/607/6 606/606/6
f 609/609/1 612/612/1 611/611/1 610/610/1
f 613/613/2 616/616/2 615/615/2 614/614/2
f 617/617/3 620/620/3 619/619/3 618/618/3
f 621/621/4 624/624/4 623/623/4 622/622/4
f 625/625/6 628/628/6 627/627/6 626/626/6
f 629/629/1 632/632/1 631/631/1 630/630/1
f 633/633/2 636/636/2 635/635/2 634/634/2
f 637/637/3 640/640/3 639/639/3 638/638/3
f 641/641/4 644/644/4 643/643/4 642/642/4
f 645/645/5 648/648/5 647/647/5 646/646/5
f 649/649/6 652/652/6 651/651/6 650/650/6
f 653/653/1 656/656/1 655/655/1 654/654/1
f 657/657/2 660/660/2 659/659/2 658/658/2
f 661/661/3 664/664/3 663/663/3 662/662/3
f 665/665/4 668/668/4 667/667/4 666/666/4
f 669/669/5 672/672/5 671/671/5 670/670/5
f 673/673/1 676/676/1 675/675/1 674/674/1
f 677/677/2 680/680/2 679/679/2 678/678/2
f 681/681/3 684/684/3 683/683/3 682/682/3
f 685/685/4 688/688/4 687/687/4 686/686/4
f 689/689/5 692/692/5 691/691/5 690/690/5
f 693/693/6 696/696/6 695/695/6 694/694/6
f 697/697/1 700/700/1 699/699/1 698/698/1
f 701/701/2 704/704/2 703/703/2 702/702/2
f 705/705/3 708/708/3 707/707/3 706/706/3
f 709/709/4 712/712/4 711/711/4 710/710/4
f 713/713/6 716/716/6 715/715/6 714/714/6
f 717/717/1 720/720/1 719/719/1 718/718/1
f 721/721/2 724/724/2 723/723/2 722/722/2
f 725/725/3 728/728/3 727/727/3 726/726/3
f 729/729/4 732/732/4 731/731/4 730/730/4
f 733/733/5 736/736/5 735/735/5 734/734/5
f 737/737/6 740/740/6 739/739/6 738/738/6
f 741/741/1 744/744/1 743/743/1 742/742/1
f 745/745/2 748/748/2 747/747/2 746/746/2
f 749/749/3 752/752/3 751/751/3 750/750/3
f 753/753/4 756/756/4 755/755/4 754/754/4
f 757/757/5 760/760/5 759/759/5 758/758/5
f 761/761/1 764/764/1 763/763/1 762/762/1
f 765/765/2 768/768/2 767/767/2 766/766/2
f 769/769/3 772/772/3 771/771/3 770/770/3
f 773/773/4 776/776/4 775/775/4 774/774/4
f 777/777/6 780/780/6 779/779/6 778/778/6
f 781/781/1 784/784/1 783/783/1 782/782/1
f 785/785/2 788/788/2 787/787/2 786/786/2
f 789/789/3 792/792/3 791/791/3 790/790/3
f 793/793/4 796/796/4 795/795/4 794/794/4
f 797/797/6 800/800/6 799/799/6 798/798/6
f 801/801/1 804/804/1 803/803/1 802/802/1
f 805/805/2 808/808/2 807/807/2 806/806/2
f 809/809/3 812/812/3 811/811/3 810/810/3
f 813/813/4 816/816/4 815/815/4 814/814/4
f 817/817/6 820/820/6 819/819/6 818/818/6
f 821/821/1 824/824/1 823/823/1 822/822/1
f 825/825/2 828/828/2 827/827/2 826/826/2
f 829/829/3 832/832/3 831/831/3 830/830/3
f 833/833/4 836/836/4 835/835/4 834/834/4
f 837/837/6 840/840/6 839/839/6 838/838/6
f 841/841/1 844/844/1 843/843/1 842/842/1
f 845/845/2 848/848/2 847/847/2 846/846/2
f 849/849/3 852/852/3 851/851/3 850/850/3
f 853/853/4 856/856/4 855/855/4 854/854/4
f 857/857/6 860/860/6 859/859/6 858/858/6
f 861/861/1 864/864/1 863/863/1 862/862/1
f 865/865/2 868/868/2 867/867/2 866/866/2
f 869/869/3 872/872/3 871/871/3 870/870/3
f 873/873/4 876/876/4 875/875/4 874/874/4
f 877/877/6 880/880/6 879/879/6 878/878/6
f 881/881/1 884/884/1 883/883/1 882/882/1
f 885/885/2 888/888/2 887/887/2 886/886/2
f 889/889/3 892/892/3 891/891/3 890/890/3
f 893/893/4 896/896/4 895/895/4 894/894/4
f 897/897/6 900/900/6 899/899/6 898/898/6
f 901/901/1 904/904/1 903/903/1 902/902/1
f 905/905/2 908/908/2 907/907/2 906/906/2
f 909/909/3 912/912/3 911/911/3 910/910/3
f 913/913/4 916/916/4 915/915/4 914/914/4
f 917/917/6 920/920/6 919/919/6 918/918/6
f 921/921/1 924/924/1 923/923/1 922/922/1
f 925/925/2 928/928/2 927/927/2 926/926/2
f 929/929/3 932/932/3 931/931/3 930/930/3
f 933/933/4 936/936/4 935/935/4 934/934/4
f 937/937/6 940/940/6 939/939/6 938/938/6
f 941/941/1 944/944/1 943/943/1 942/942/1
f 945/945/2 948/948/2 947/947/2 946/946/2
f 949/949/3 952/952/3 951/951/3 950/950/3
f 953/953/4 956/956/4 955/955/4 954/954/4
f 957/957/6 960/960/6 959/959/6 958/958/6
f 961/961/1 964/964/1 963/963/1 962/962/1
f 965/965/2 968/968/2 967/967/2 966/966/2
f 969/969/3 972/972/3 971/971/3 970/970/3
f 973/973/4 976/976/4 975/975/4 974/974/4
f 977/977/6 980/980/6 979/979/6 978/978/6
