# centrifuge generated by machinegen.py
mtllib centrifuge.mtl
v 1.000000 0.187500 -2.000000
v -2.000000 0.187500 -2.000000
v -2.000000 0.000000 -2.000000
v 1.000000 0.000000 -2.000000
v -2.000000 0.187500 1.000000
v 1.000000 0.187500 1.000000
v 1.000000 0.000000 1.000000
v -2.000000 0.000000 1.000000
v -2.000000 0.187500 -2.000000
v -2.000000 0.187500 1.000000
v -2.000000 0.000000 1.000000
v -2.000000 0.000000 -2.000000
v 1.000000 0.187500 1.000000
v 1.000000 0.187500 -2.000000
v 1.000000 0.000000 -2.000000
v 1.000000 0.000000 1.000000
v -2.000000 0.187500 -2.000000
v 1.000000 0.187500 -2.000000
v 1.000000 0.187500 1.000000
v -2.000000 0.187500 1.000000
v 0.937500 0.750000 -0.937500
v -0.937500 0.750000 -0.937500
v -0.937500 0.187500 -0.937500
v 0.937500 0.187500 -0.937500
v -0.937500 0.750000 0.937500
v 0.937500 0.750000 0.937500
v 0.937500 0.187500 0.937500
v -0.937500 0.187500 0.937500
v -0.937500 0.750000 -0.937500
v -0.937500 0.750000 0.937500
v -0.937500 0.187500 0.937500
v -0.937500 0.187500 -0.937500
v 0.937500 0.750000 0.937500
v 0.937500 0.750000 -0.937500
v 0.937500 0.187500 -0.937500
v 0.937500 0.187500 0.937500
v -0.937500 0.750000 -0.937500
v 0.937500 0.750000 -0.937500
v 0.937500 0.750000 0.937500
v -0.937500 0.750000 0.937500
v -0.812500 3.937500 -1.000000
v -1.000000 3.937500 -1.000000
v -1.000000 0.187500 -1.000000
v -0.812500 0.187500 -1.000000
v -1.000000 3.937500 -0.812500
v -0.812500 3.937500 -0.812500
v -0.812500 0.187500 -0.812500
v -1.000000 0.187500 -0.812500
v -1.000000 3.937500 -1.000000
v -1.000000 3.937500 -0.812500
v -1.000000 0.187500 -0.812500
v -1.000000 0.187500 -1.000000
v -0.812500 3.937500 -0.812500
v -0.812500 3.937500 -1.000000
v -0.812500 0.187500 -1.000000
v -0.812500 0.187500 -0.812500
v -1.000000 3.937500 -1.000000
v -0.812500 3.937500 -1.000000
v -0.812500 3.937500 -0.812500
v -1.000000 3.937500 -0.812500
v -1.000000 0.187500 -0.812500
v -0.812500 0.187500 -0.812500
v -0.812500 0.187500 -1.000000
v -1.000000 0.187500 -1.000000
v 1.000000 3.937500 -1.000000
v 0.812500 3.937500 -1.000000
v 0.812500 0.187500 -1.000000
v 1.000000 0.187500 -1.000000
v 0.812500 3.937500 -0.812500
v 1.000000 3.937500 -0.812500
v 1.000000 0.187500 -0.812500
v 0.812500 0.187500 -0.812500
v 0.812500 3.937500 -1.000000
v 0.812500 3.937500 -0.812500
v 0.812500 0.187500 -0.812500
v 0.812500 0.187500 -1.000000
v 1.000000 3.937500 -0.812500
v 1.000000 3.937500 -1.000000
v 1.000000 0.187500 -1.000000
v 1.000000 0.187500 -0.812500
v 0.812500 3.937500 -1.000000
v 1.000000 3.937500 -1.000000
v 1.000000 3.937500 -0.812500
v 0.812500 3.937500 -0.812500
v 0.812500 0.187500 -0.812500
v 1.000000 0.187500 -0.812500
v 1.000000 0.187500 -1.000000
v 0.812500 0.187500 -1.000000
v -0.812500 3.937500 0.812500
v -1.000000 3.937500 0.812500
v -1.000000 0.187500 0.812500
v -0.812500 0.187500 0.812500
v -1.000000 3.937500 1.000000
v -0.812500 3.937500 1.000000
v -0.812500 0.187500 1.000000
v -1.000000 0.187500 1.000000
v -1.000000 3.937500 0.812500
v -1.000000 3.937500 1.000000
v -1.000000 0.187500 1.000000
v -1.000000 0.187500 0.812500
v -0.812500 3.937500 1.000000
v -0.812500 3.937500 0.812500
v -0.812500 0.187500 0.812500
v -0.812500 0.187500 1.000000
v -1.000000 3.937500 0.812500
v -0.812500 3.937500 0.812500
v -0.812500 3.937500 1.000000
v -1.000000 3.937500 1.000000
v -1.000000 0.187500 1.000000
v -0.812500 0.187500 1.000000
v -0.812500 0.187500 0.812500
v -1.000000 0.187500 0.812500
v 1.000000 3.937500 0.812500
v 0.812500 3.937500 0.812500
v 0.812500 0.187500 0.812500
v 1.000000 0.187500 0.812500
v 0.812500 3.937500 1.000000
v 1.000000 3.937500 1.000000
v 1.000000 0.187500 1.000000
v 0.812500 0.187500 1.000000
v 0.812500 3.937500 0.812500
v 0.812500 3.937500 1.000000
v 0.812500 0.187500 1.000000
v 0.812500 0.187500 0.812500
v 1.000000 3.937500 1.000000
v 1.000000 3.937500 0.812500
v 1.000000 0.187500 0.812500
v 1.000000 0.187500 1.000000
v 0.812500 3.937500 0.812500
v 1.000000 3.937500 0.812500
v 1.000000 3.937500 1.000000
v 0.812500 3.937500 1.000000
v 0.812500 0.187500 1.000000
v 1.000000 0.187500 1.000000
v 1.000000 0.187500 0.812500
v 0.812500 0.187500 0.812500
v 0.937500 3.937500 -0.937500
v -0.937500 3.937500 -0.937500
v -0.937500 3.750000 -0.937500
v 0.937500 3.750000 -0.937500
v -0.937500 3.937500 0.937500
v 0.937500 3.937500 0.937500
v 0.937500 3.750000 0.937500
v -0.937500 3.750000 0.937500
v -0.937500 3.937500 -0.937500
v -0.937500 3.937500 0.937500
v -0.937500 3.750000 0.937500
v -0.937500 3.750000 -0.937500
v 0.937500 3.937500 0.937500
v 0.937500 3.937500 -0.937500
v 0.937500 3.750000 -0.937500
v 0.937500 3.750000 0.937500
v -0.937500 3.937500 -0.937500
v 0.937500 3.937500 -0.937500
v 0.937500 3.937500 0.937500
v -0.937500 3.937500 0.937500
v -0.937500 3.750000 0.937500
v 0.937500 3.750000 0.937500
v 0.937500 3.750000 -0.937500
v -0.937500 3.750000 -0.937500
v 0.312500 4.000000 -0.312500
v -0.312500 4.000000 -0.312500
v -0.312500 3.937500 -0.312500
v 0.312500 3.937500 -0.312500
v -0.312500 4.000000 0.312500
v 0.312500 4.000000 0.312500
v 0.312500 3.937500 0.312500
v -0.312500 3.937500 0.312500
v -0.312500 4.000000 -0.312500
v -0.312500 4.000000 0.312500
v -0.312500 3.937500 0.312500
v -0.312500 3.937500 -0.312500
v 0.312500 4.000000 0.312500
v 0.312500 4.000000 -0.312500
v 0.312500 3.937500 -0.312500
v 0.312500 3.937500 0.312500
v -0.312500 4.000000 -0.312500
v 0.312500 4.000000 -0.312500
v 0.312500 4.000000 0.312500
v -0.312500 4.000000 0.312500
v 0.812500 2.312500 -0.968750
v -0.812500 2.312500 -0.968750
v -0.812500 2.187500 -0.968750
v 0.812500 2.187500 -0.968750
v -0.812500 2.312500 -0.906250
v 0.812500 2.312500 -0.906250
v 0.812500 2.187500 -0.906250
v -0.812500 2.187500 -0.906250
v -0.812500 2.312500 -0.968750
v -0.812500 2.312500 -0.906250
v -0.812500 2.187500 -0.906250
v -0.812500 2.187500 -0.968750
v 0.812500 2.312500 -0.906250
v 0.812500 2.312500 -0.968750
v 0.812500 2.187500 -0.968750
v 0.812500 2.187500 -0.906250
v -0.812500 2.312500 -0.968750
v 0.812500 2.312500 -0.968750
v 0.812500 2.312500 -0.906250
v -0.812500 2.312500 -0.906250
v -0.812500 2.187500 -0.906250
v 0.812500 2.187500 -0.906250
v 0.812500 2.187500 -0.968750
v -0.812500 2.187500 -0.968750
v 0.812500 2.312500 0.906250
v -0.812500 2.312500 0.906250
v -0.812500 2.187500 0.906250
v 0.812500 2.187500 0.906250
v -0.812500 2.312500 0.968750
v 0.812500 2.312500 0.968750
v 0.812500 2.187500 0.968750
v -0.812500 2.187500 0.968750
v -0.812500 2.312500 0.906250
v -0.812500 2.312500 0.968750
v -0.812500 2.187500 0.968750
v -0.812500 2.187500 0.906250
v 0.812500 2.312500 0.968750
v 0.812500 2.312500 0.906250
v 0.812500 2.187500 0.906250
v 0.812500 2.187500 0.968750
v -0.812500 2.312500 0.906250
v 0.812500 2.312500 0.906250
v 0.812500 2.312500 0.968750
v -0.812500 2.312500 0.968750
v -0.812500 2.187500 0.968750
v 0.812500 2.187500 0.968750
v 0.812500 2.187500 0.906250
v -0.812500 2.187500 0.906250
v -0.906250 2.312500 -0.812500
v -0.968750 2.312500 -0.812500
v -0.968750 2.187500 -0.812500
v -0.906250 2.187500 -0.812500
v -0.968750 2.312500 0.812500
v -0.906250 2.312500 0.812500
v -0.906250 2.187500 0.812500
v -0.968750 2.187500 0.812500
v -0.968750 2.312500 -0.812500
v -0.968750 2.312500 0.812500
v -0.968750 2.187500 0.812500
v -0.968750 2.187500 -0.812500
v -0.906250 2.312500 0.812500
v -0.906250 2.312500 -0.812500
v -0.906250 2.187500 -0.812500
v -0.906250 2.187500 0.812500
v -0.968750 2.312500 -0.812500
v -0.906250 2.312500 -0.812500
v -0.906250 2.312500 0.812500
v -0.968750 2.312500 0.812500
v -0.968750 2.187500 0.812500
v -0.906250 2.187500 0.812500
v -0.906250 2.187500 -0.812500
v -0.968750 2.187500 -0.812500
v 0.968750 2.312500 -0.812500
v 0.906250 2.312500 -0.812500
v 0.906250 2.187500 -0.812500
v 0.968750 2.187500 -0.812500
v 0.906250 2.312500 0.812500
v 0.968750 2.312500 0.812500
v 0.968750 2.187500 0.812500
v 0.906250 2.187500 0.812500
v 0.906250 2.312500 -0.812500
v 0.906250 2.312500 0.812500
v 0.906250 2.187500 0.812500
v 0.906250 2.187500 -0.812500
v 0.968750 2.312500 0.812500
v 0.968750 2.312500 -0.812500
v 0.968750 2.187500 -0.812500
v 0.968750 2.187500 0.812500
v 0.906250 2.312500 -0.812500
v 0.968750 2.312500 -0.812500
v 0.968750 2.312500 0.812500
v 0.906250 2.312500 0.812500
v 0.906250 2.187500 0.812500
v 0.968750 2.187500 0.812500
v 0.968750 2.187500 -0.812500
v 0.906250 2.187500 -0.812500
v 0.812500 3.750000 -0.937500
v -0.812500 3.750000 -0.937500
v -0.812500 0.750000 -0.937500
v 0.812500 0.750000 -0.937500
v -0.812500 3.750000 -0.906250
v 0.812500 3.750000 -0.906250
v 0.812500 0.750000 -0.906250
v -0.812500 0.750000 -0.906250
v 0.812500 3.750000 0.906250
v -0.812500 3.750000 0.906250
v -0.812500 0.750000 0.906250
v 0.812500 0.750000 0.906250
v -0.812500 3.750000 0.937500
v 0.812500 3.750000 0.937500
v 0.812500 0.750000 0.937500
v -0.812500 0.750000 0.937500
v -0.937500 3.750000 -0.812500
v -0.937500 3.750000 0.812500
v -0.937500 0.750000 0.812500
v -0.937500 0.750000 -0.812500
v -0.906250 3.750000 0.812500
v -0.906250 3.750000 -0.812500
v -0.906250 0.750000 -0.812500
v -0.906250 0.750000 0.812500
v 0.906250 3.750000 -0.812500
v 0.906250 3.750000 0.812500
v 0.906250 0.750000 0.812500
v 0.906250 0.750000 -0.812500
v 0.937500 3.750000 0.812500
v 0.937500 3.750000 -0.812500
v 0.937500 0.750000 -0.812500
v 0.937500 0.750000 0.812500
v -0.812500 0.500000 0.968750
v 0.812500 0.500000 0.968750
v 0.812500 0.312500 0.968750
v -0.812500 0.312500 0.968750
v -0.812500 0.500000 0.937500
v -0.812500 0.500000 0.968750
v -0.812500 0.312500 0.968750
v -0.812500 0.312500 0.937500
v 0.812500 0.500000 0.968750
v 0.812500 0.500000 0.937500
v 0.812500 0.312500 0.937500
v 0.812500 0.312500 0.968750
v -0.812500 0.500000 0.937500
v 0.812500 0.500000 0.937500
v 0.812500 0.500000 0.968750
v -0.812500 0.500000 0.968750
v -0.812500 0.312500 0.968750
v 0.812500 0.312500 0.968750
v 0.812500 0.312500 0.937500
v -0.812500 0.312500 0.937500
v 0.968750 0.500000 -0.812500
v 0.937500 0.500000 -0.812500
v 0.937500 0.312500 -0.812500
v 0.968750 0.312500 -0.812500
v 0.937500 0.500000 0.812500
v 0.968750 0.500000 0.812500
v 0.968750 0.312500 0.812500
v 0.937500 0.312500 0.812500
v 0.968750 0.500000 0.812500
v 0.968750 0.500000 -0.812500
v 0.968750 0.312500 -0.812500
v 0.968750 0.312500 0.812500
v 0.937500 0.500000 -0.812500
v 0.968750 0.500000 -0.812500
v 0.968750 0.500000 0.812500
v 0.937500 0.500000 0.812500
v 0.937500 0.312500 0.812500
v 0.968750 0.312500 0.812500
v 0.968750 0.312500 -0.812500
v 0.937500 0.312500 -0.812500
v -1.812500 3.750000 -2.000000
v -2.000000 3.750000 -2.000000
v -2.000000 0.187500 -2.000000
v -1.812500 0.187500 -2.000000
v -2.000000 3.750000 -1.812500
v -1.812500 3.750000 -1.812500
v -1.812500 0.187500 -1.812500
v -2.000000 0.187500 -1.812500
v -2.000000 3.750000 -2.000000
v -2.000000 3.750000 -1.812500
v -2.000000 0.187500 -1.812500
v -2.000000 0.187500 -2.000000
v -1.812500 3.750000 -1.812500
v -1.812500 3.750000 -2.000000
v -1.812500 0.187500 -2.000000
v -1.812500 0.187500 -1.812500
v -2.000000 3.750000 -2.000000
v -1.812500 3.750000 -2.000000
v -1.812500 3.750000 -1.812500
v -2.000000 3.750000 -1.812500
v -2.000000 0.187500 -1.812500
v -1.812500 0.187500 -1.812500
v -1.812500 0.187500 -2.000000
v -2.000000 0.187500 -2.000000
v -1.000000 3.750000 -2.000000
v -1.187500 3.750000 -2.000000
v -1.187500 0.187500 -2.000000
v -1.000000 0.187500 -2.000000
v -1.187500 3.750000 -1.812500
v -1.000000 3.750000 -1.812500
v -1.000000 0.187500 -1.812500
v -1.187500 0.187500 -1.812500
v -1.187500 3.750000 -2.000000
v -1.187500 3.750000 -1.812500
v -1.187500 0.187500 -1.812500
v -1.187500 0.187500 -2.000000
v -1.000000 3.750000 -1.812500
v -1.000000 3.750000 -2.000000
v -1.000000 0.187500 -2.000000
v -1.000000 0.187500 -1.812500
v -1.187500 3.750000 -2.000000
v -1.000000 3.750000 -2.000000
v -1.000000 3.750000 -1.812500
v -1.187500 3.750000 -1.812500
v -1.187500 0.187500 -1.812500
v -1.000000 0.187500 -1.812500
v -1.000000 0.187500 -2.000000
v -1.187500 0.187500 -2.000000
v -1.812500 3.750000 -1.187500
v -2.000000 3.750000 -1.187500
v -2.000000 0.187500 -1.187500
v -1.812500 0.187500 -1.187500
v -2.000000 3.750000 -1.000000
v -1.812500 3.750000 -1.000000
v -1.812500 0.187500 -1.000000
v -2.000000 0.187500 -1.000000
v -2.000000 3.750000 -1.187500
v -2.000000 3.750000 -1.000000
v -2.000000 0.187500 -1.000000
v -2.000000 0.187500 -1.187500
v -1.812500 3.750000 -1.000000
v -1.812500 3.750000 -1.187500
v -1.812500 0.187500 -1.187500
v -1.812500 0.187500 -1.000000
v -2.000000 3.750000 -1.187500
v -1.812500 3.750000 -1.187500
v -1.812500 3.750000 -1.000000
v -2.000000 3.750000 -1.000000
v -2.000000 0.187500 -1.000000
v -1.812500 0.187500 -1.000000
v -1.812500 0.187500 -1.187500
v -2.000000 0.187500 -1.187500
v -1.000000 3.750000 -1.187500
v -1.187500 3.750000 -1.187500
v -1.187500 0.187500 -1.187500
v -1.000000 0.187500 -1.187500
v -1.187500 3.750000 -1.000000
v -1.000000 3.750000 -1.000000
v -1.000000 0.187500 -1.000000
v -1.187500 0.187500 -1.000000
v -1.187500 3.750000 -1.187500
v -1.187500 3.750000 -1.000000
v -1.187500 0.187500 -1.000000
v -1.187500 0.187500 -1.187500
v -1.000000 3.750000 -1.000000
v -1.000000 3.750000 -1.187500
v -1.000000 0.187500 -1.187500
v -1.000000 0.187500 -1.000000
v -1.187500 3.750000 -1.187500
v -1.000000 3.750000 -1.187500
v -1.000000 3.750000 -1.000000
v -1.187500 3.750000 -1.000000
v -1.187500 0.187500 -1.000000
v -1.000000 0.187500 -1.000000
v -1.000000 0.187500 -1.187500
v -1.187500 0.187500 -1.187500
v -1.062500 3.750000 -1.937500
v -1.937500 3.750000 -1.937500
v -1.937500 0.187500 -1.937500
v -1.062500 0.187500 -1.937500
v -1.937500 3.750000 -1.062500
v -1.062500 3.750000 -1.062500
v -1.062500 0.187500 -1.062500
v -1.937500 0.187500 -1.062500
v -1.937500 3.750000 -1.937500
v -1.937500 3.750000 -1.062500
v -1.937500 0.187500 -1.062500
v -1.937500 0.187500 -1.937500
v -1.062500 3.750000 -1.062500
v -1.062500 3.750000 -1.937500
v -1.062500 0.187500 -1.937500
v -1.062500 0.187500 -1.062500
v -1.000000 3.875000 -2.000000
v -2.000000 3.875000 -2.000000
v -2.000000 3.750000 -2.000000
v -1.000000 3.750000 -2.000000
v -2.000000 3.875000 -1.000000
v -1.000000 3.875000 -1.000000
v -1.000000 3.750000 -1.000000
v -2.000000 3.750000 -1.000000
v -2.000000 3.875000 -2.000000
v -2.000000 3.875000 -1.000000
v -2.000000 3.750000 -1.000000
v -2.000000 3.750000 -2.000000
v -1.000000 3.875000 -1.000000
v -1.000000 3.875000 -2.000000
v -1.000000 3.750000 -2.000000
v -1.000000 3.750000 -1.000000
v -2.000000 3.875000 -2.000000
v -1.000000 3.875000 -2.000000
v -1.000000 3.875000 -1.000000
v -2.000000 3.875000 -1.000000
v -1.031250 1.937500 -1.968750
v -1.968750 1.937500 -1.968750
v -1.968750 1.750000 -1.968750
v -1.031250 1.750000 -1.968750
v -1.968750 1.937500 -1.031250
v -1.031250 1.937500 -1.031250
v -1.031250 1.750000 -1.031250
v -1.968750 1.750000 -1.031250
v -1.968750 1.937500 -1.968750
v -1.968750 1.937500 -1.031250
v -1.968750 1.750000 -1.031250
v -1.968750 1.750000 -1.968750
v -1.031250 1.937500 -1.031250
v -1.031250 1.937500 -1.968750
v -1.031250 1.750000 -1.968750
v -1.031250 1.750000 -1.031250
v -1.250000 1.250000 -1.968750
v -1.750000 1.250000 -1.968750
v -1.750000 0.500000 -1.968750
v -1.250000 0.500000 -1.968750
v -1.750000 1.250000 -1.968750
v -1.750000 1.250000 -1.937500
v -1.750000 0.500000 -1.937500
v -1.750000 0.500000 -1.968750
v -1.250000 1.250000 -1.937500
v -1.250000 1.250000 -1.968750
v -1.250000 0.500000 -1.968750
v -1.250000 0.500000 -1.937500
v -1.750000 1.250000 -1.968750
v -1.250000 1.250000 -1.968750
v -1.250000 1.250000 -1.937500
v -1.750000 1.250000 -1.937500
v -1.750000 0.500000 -1.937500
v -1.250000 0.500000 -1.937500
v -1.250000 0.500000 -1.968750
v -1.750000 0.500000 -1.968750
v -1.312500 2.875000 -1.968750
v -1.687500 2.875000 -1.968750
v -1.687500 2.500000 -1.968750
v -1.312500 2.500000 -1.968750
v -1.687500 2.875000 -1.968750
v -1.687500 2.875000 -1.937500
v -1.687500 2.500000 -1.937500
v -1.687500 2.500000 -1.968750
v -1.312500 2.875000 -1.937500
v -1.312500 2.875000 -1.968750
v -1.312500 2.500000 -1.968750
v -1.312500 2.500000 -1.937500
v -1.687500 2.875000 -1.968750
v -1.312500 2.875000 -1.968750
v -1.312500 2.875000 -1.937500
v -1.687500 2.875000 -1.937500
v -1.687500 2.500000 -1.937500
v -1.312500 2.500000 -1.937500
v -1.312500 2.500000 -1.968750
v -1.687500 2.500000 -1.968750
v -1.437500 3.375000 -1.968750
v -1.562500 3.375000 -1.968750
v -1.562500 3.250000 -1.968750
v -1.437500 3.250000 -1.968750
v -1.562500 3.375000 -1.968750
v -1.562500 3.375000 -1.937500
v -1.562500 3.250000 -1.937500
v -1.562500 3.250000 -1.968750
v -1.437500 3.375000 -1.937500
v -1.437500 3.375000 -1.968750
v -1.437500 3.250000 -1.968750
v -1.437500 3.250000 -1.937500
v -1.562500 3.375000 -1.968750
v -1.437500 3.375000 -1.968750
v -1.437500 3.375000 -1.937500
v -1.562500 3.375000 -1.937500
v -1.562500 3.250000 -1.937500
v -1.437500 3.250000 -1.937500
v -1.437500 3.250000 -1.968750
v -1.562500 3.250000 -1.968750
v -1.937500 0.875000 -1.687500
v -2.000000 0.875000 -1.687500
v -2.000000 0.500000 -1.687500
v -1.937500 0.500000 -1.687500
v -2.000000 0.875000 -1.312500
v -1.937500 0.875000 -1.312500
v -1.937500 0.500000 -1.312500
v -2.000000 0.500000 -1.312500
v -2.000000 0.875000 -1.687500
v -2.000000 0.875000 -1.312500
v -2.000000 0.500000 -1.312500
v -2.000000 0.500000 -1.687500
v -1.937500 0.875000 -1.312500
v -1.937500 0.875000 -1.687500
v -1.937500 0.500000 -1.687500
v -1.937500 0.500000 -1.312500
v -2.000000 0.875000 -1.687500
v -1.937500 0.875000 -1.687500
v -1.937500 0.875000 -1.312500
v -2.000000 0.875000 -1.312500
v -2.000000 0.500000 -1.312500
v -1.937500 0.500000 -1.312500
v -1.937500 0.500000 -1.687500
v -2.000000 0.500000 -1.687500
v -1.937500 3.000000 -1.687500
v -2.000000 3.000000 -1.687500
v -2.000000 2.625000 -1.687500
v -1.937500 2.625000 -1.687500
v -2.000000 3.000000 -1.312500
v -1.937500 3.000000 -1.312500
v -1.937500 2.625000 -1.312500
v -2.000000 2.625000 -1.312500
v -2.000000 3.000000 -1.687500
v -2.000000 3.000000 -1.312500
v -2.000000 2.625000 -1.312500
v -2.000000 2.625000 -1.687500
v -1.937500 3.000000 -1.312500
v -1.937500 3.000000 -1.687500
v -1.937500 2.625000 -1.687500
v -1.937500 2.625000 -1.312500
v -2.000000 3.000000 -1.687500
v -1.937500 3.000000 -1.687500
v -1.937500 3.000000 -1.312500
v -2.000000 3.000000 -1.312500
v -2.000000 2.625000 -1.312500
v -1.937500 2.625000 -1.312500
v -1.937500 2.625000 -1.687500
v -2.000000 2.625000 -1.687500
v -1.812500 2.750000 0.000000
v -2.000000 2.750000 0.000000
v -2.000000 0.187500 0.000000
v -1.812500 0.187500 0.000000
v -2.000000 2.750000 0.187500
v -1.812500 2.750000 0.187500
v -1.812500 0.187500 0.187500
v -2.000000 0.187500 0.187500
v -2.000000 2.750000 0.000000
v -2.000000 2.750000 0.187500
v -2.000000 0.187500 0.187500
v -2.000000 0.187500 0.000000
v -1.812500 2.750000 0.187500
v -1.812500 2.750000 0.000000
v -1.812500 0.187500 0.000000
v -1.812500 0.187500 0.187500
v -2.000000 2.750000 0.000000
v -1.812500 2.750000 0.000000
v -1.812500 2.750000 0.187500
v -2.000000 2.750000 0.187500
v -2.000000 0.187500 0.187500
v -1.812500 0.187500 0.187500
v -1.812500 0.187500 0.000000
v -2.000000 0.187500 0.000000
v -1.000000 2.750000 0.000000
v -1.187500 2.750000 0.000000
v -1.187500 0.187500 0.000000
v -1.000000 0.187500 0.000000
v -1.187500 2.750000 0.187500
v -1.000000 2.750000 0.187500
v -1.000000 0.187500 0.187500
v -1.187500 0.187500 0.187500
v -1.187500 2.750000 0.000000
v -1.187500 2.750000 0.187500
v -1.187500 0.187500 0.187500
v -1.187500 0.187500 0.000000
v -1.000000 2.750000 0.187500
v -1.000000 2.750000 0.000000
v -1.000000 0.187500 0.000000
v -1.000000 0.187500 0.187500
v -1.187500 2.750000 0.000000
v -1.000000 2.750000 0.000000
v -1.000000 2.750000 0.187500
v -1.187500 2.750000 0.187500
v -1.187500 0.187500 0.187500
v -1.000000 0.187500 0.187500
v -1.000000 0.187500 0.000000
v -1.187500 0.187500 0.000000
v -1.812500 2.750000 0.812500
v -2.000000 2.750000 0.812500
v -2.000000 0.187500 0.812500
v -1.812500 0.187500 0.812500
v -2.000000 2.750000 1.000000
v -1.812500 2.750000 1.000000
v -1.812500 0.187500 1.000000
v -2.000000 0.187500 1.000000
v -2.000000 2.750000 0.812500
v -2.000000 2.750000 1.000000
v -2.000000 0.187500 1.000000
v -2.000000 0.187500 0.812500
v -1.812500 2.750000 1.000000
v -1.812500 2.750000 0.812500
v -1.812500 0.187500 0.812500
v -1.812500 0.187500 1.000000
v -2.000000 2.750000 0.812500
v -1.812500 2.750000 0.812500
v -1.812500 2.750000 1.000000
v -2.000000 2.750000 1.000000
v -2.000000 0.187500 1.000000
v -1.812500 0.187500 1.000000
v -1.812500 0.187500 0.812500
v -2.000000 0.187500 0.812500
v -1.000000 2.750000 0.812500
v -1.187500 2.750000 0.812500
v -1.187500 0.187500 0.812500
v -1.000000 0.187500 0.812500
v -1.187500 2.750000 1.000000
v -1.000000 2.750000 1.000000
v -1.000000 0.187500 1.000000
v -1.187500 0.187500 1.000000
v -1.187500 2.750000 0.812500
v -1.187500 2.750000 1.000000
v -1.187500 0.187500 1.000000
v -1.187500 0.187500 0.812500
v -1.000000 2.750000 1.000000
v -1.000000 2.750000 0.812500
v -1.000000 0.187500 0.812500
v -1.000000 0.187500 1.000000
v -1.187500 2.750000 0.812500
v -1.000000 2.750000 0.812500
v -1.000000 2.750000 1.000000
v -1.187500 2.750000 1.000000
v -1.187500 0.187500 1.000000
v -1.000000 0.187500 1.000000
v -1.000000 0.187500 0.812500
v -1.187500 0.187500 0.812500
v -1.062500 2.750000 0.062500
v -1.937500 2.750000 0.062500
v -1.937500 0.187500 0.062500
v -1.062500 0.187500 0.062500
v -1.937500 2.750000 0.937500
v -1.062500 2.750000 0.937500
v -1.062500 0.187500 0.937500
v -1.937500 0.187500 0.937500
v -1.937500 2.750000 0.062500
v -1.937500 2.750000 0.937500
v -1.937500 0.187500 0.937500
v -1.937500 0.187500 0.062500
v -1.062500 2.750000 0.937500
v -1.062500 2.750000 0.062500
v -1.062500 0.187500 0.062500
v -1.062500 0.187500 0.937500
v -1.000000 2.875000 0.000000
v -2.000000 2.875000 0.000000
v -2.000000 2.750000 0.000000
v -1.000000 2.750000 0.000000
v -2.000000 2.875000 1.000000
v -1.000000 2.875000 1.000000
v -1.000000 2.750000 1.000000
v -2.000000 2.750000 1.000000
v -2.000000 2.875000 0.000000
v -2.000000 2.875000 1.000000
v -2.000000 2.750000 1.000000
v -2.000000 2.750000 0.000000
v -1.000000 2.875000 1.000000
v -1.000000 2.875000 0.000000
v -1.000000 2.750000 0.000000
v -1.000000 2.750000 1.000000
v -2.000000 2.875000 0.000000
v -1.000000 2.875000 0.000000
v -1.000000 2.875000 1.000000
v -2.000000 2.875000 1.000000
v -1.031250 1.937500 0.031250
v -1.968750 1.937500 0.031250
v -1.968750 1.750000 0.031250
v -1.031250 1.750000 0.031250
v -1.968750 1.937500 0.968750
v -1.031250 1.937500 0.968750
v -1.031250 1.750000 0.968750
v -1.968750 1.750000 0.968750
v -1.968750 1.937500 0.031250
v -1.968750 1.937500 0.968750
v -1.968750 1.750000 0.968750
v -1.968750 1.750000 0.031250
v -1.031250 1.937500 0.968750
v -1.031250 1.937500 0.031250
v -1.031250 1.750000 0.031250
v -1.031250 1.750000 0.968750
v -1.750000 1.250000 0.968750
v -1.250000 1.250000 0.968750
v -1.250000 0.500000 0.968750
v -1.750000 0.500000 0.968750
v -1.750000 1.250000 0.937500
v -1.750000 1.250000 0.968750
v -1.750000 0.500000 0.968750
v -1.750000 0.500000 0.937500
v -1.250000 1.250000 0.968750
v -1.250000 1.250000 0.937500
v -1.250000 0.500000 0.937500
v -1.250000 0.500000 0.968750
v -1.750000 1.250000 0.937500
v -1.250000 1.250000 0.937500
v -1.250000 1.250000 0.968750
v -1.750000 1.250000 0.968750
v -1.750000 0.500000 0.968750
v -1.250000 0.500000 0.968750
v -1.250000 0.500000 0.937500
v -1.750000 0.500000 0.937500
v -1.562500 2.375000 0.968750
v -1.437500 2.375000 0.968750
v -1.437500 2.250000 0.968750
v -1.562500 2.250000 0.968750
v -1.562500 2.375000 0.937500
v -1.562500 2.375000 0.968750
v -1.562500 2.250000 0.968750
v -1.562500 2.250000 0.937500
v -1.437500 2.375000 0.968750
v -1.437500 2.375000 0.937500
v -1.437500 2.250000 0.937500
v -1.437500 2.250000 0.968750
v -1.562500 2.375000 0.937500
v -1.437500 2.375000 0.937500
v -1.437500 2.375000 0.968750
v -1.562500 2.375000 0.968750
v -1.562500 2.250000 0.968750
v -1.437500 2.250000 0.968750
v -1.437500 2.250000 0.937500
v -1.562500 2.250000 0.937500
v -1.937500 0.875000 0.312500
v -2.000000 0.875000 0.312500
v -2.000000 0.500000 0.312500
v -1.937500 0.500000 0.312500
v -2.000000 0.875000 0.687500
v -1.937500 0.875000 0.687500
v -1.937500 0.500000 0.687500
v -2.000000 0.500000 0.687500
v -2.000000 0.875000 0.312500
v -2.000000 0.875000 0.687500
v -2.000000 0.500000 0.687500
v -2.000000 0.500000 0.312500
v -1.937500 0.875000 0.687500
v -1.937500 0.875000 0.312500
v -1.937500 0.500000 0.312500
v -1.937500 0.500000 0.687500
v -2.000000 0.875000 0.312500
v -1.937500 0.875000 0.312500
v -1.937500 0.875000 0.687500
v -2.000000 0.875000 0.687500
v -2.000000 0.500000 0.687500
v -1.937500 0.500000 0.687500
v -1.937500 0.500000 0.312500
v -2.000000 0.500000 0.312500
v -1.937500 2.500000 0.312500
v -2.000000 2.500000 0.312500
v -2.000000 2.125000 0.312500
v -1.937500 2.125000 0.312500
v -2.000000 2.500000 0.687500
v -1.937500 2.500000 0.687500
v -1.937500 2.125000 0.687500
v -2.000000 2.125000 0.687500
v -2.000000 2.500000 0.312500
v -2.000000 2.500000 0.687500
v -2.000000 2.125000 0.687500
v -2.000000 2.125000 0.312500
v -1.937500 2.500000 0.687500
v -1.937500 2.500000 0.312500
v -1.937500 2.125000 0.312500
v -1.937500 2.125000 0.687500
v -2.000000 2.500000 0.312500
v -1.937500 2.500000 0.312500
v -1.937500 2.500000 0.687500
v -2.000000 2.500000 0.687500
v -2.000000 2.125000 0.687500
v -1.937500 2.125000 0.687500
v -1.937500 2.125000 0.312500
v -2.000000 2.125000 0.312500
v -1.937500 0.875000 -1.000000
v -1.937500 0.875000 0.000000
v -1.937500 0.187500 0.000000
v -1.937500 0.187500 -1.000000
v -1.062500 0.875000 0.000000
v -1.062500 0.875000 -1.000000
v -1.062500 0.187500 -1.000000
v -1.062500 0.187500 0.000000
v -1.937500 0.875000 -1.000000
v -1.062500 0.875000 -1.000000
v -1.062500 0.875000 0.000000
v -1.937500 0.875000 0.000000
v -1.312500 3.125000 -0.687500
v -1.687500 3.125000 -0.687500
v -1.687500 0.875000 -0.687500
v -1.312500 0.875000 -0.687500
v -1.687500 3.125000 -0.312500
v -1.312500 3.125000 -0.312500
v -1.312500 0.875000 -0.312500
v -1.687500 0.875000 -0.312500
v -1.687500 3.125000 -0.687500
v -1.687500 3.125000 -0.312500
v -1.687500 0.875000 -0.312500
v -1.687500 0.875000 -0.687500
v -1.312500 3.125000 -0.312500
v -1.312500 3.125000 -0.687500
v -1.312500 0.875000 -0.687500
v -1.312500 0.875000 -0.312500
v -1.687500 3.125000 -0.687500
v -1.312500 3.125000 -0.687500
v -1.312500 3.125000 -0.312500
v -1.687500 3.125000 -0.312500
v -1.250000 1.500000 -0.750000
v -1.750000 1.500000 -0.750000
v -1.750000 1.375000 -0.750000
v -1.250000 1.375000 -0.750000
v -1.750000 1.500000 -0.250000
v -1.250000 1.500000 -0.250000
v -1.250000 1.375000 -0.250000
v -1.750000 1.375000 -0.250000
v -1.750000 1.500000 -0.750000
v -1.750000 1.500000 -0.250000
v -1.750000 1.375000 -0.250000
v -1.750000 1.375000 -0.750000
v -1.250000 1.500000 -0.250000
v -1.250000 1.500000 -0.750000
v -1.250000 1.375000 -0.750000
v -1.250000 1.375000 -0.250000
v -1.750000 1.500000 -0.750000
v -1.250000 1.500000 -0.750000
v -1.250000 1.500000 -0.250000
v -1.750000 1.500000 -0.250000
v -1.750000 1.375000 -0.250000
v -1.250000 1.375000 -0.250000
v -1.250000 1.375000 -0.750000
v -1.750000 1.375000 -0.750000
v -1.250000 2.625000 -0.750000
v -1.750000 2.625000 -0.750000
v -1.750000 2.500000 -0.750000
v -1.250000 2.500000 -0.750000
v -1.750000 2.625000 -0.250000
v -1.250000 2.625000 -0.250000
v -1.250000 2.500000 -0.250000
v -1.750000 2.500000 -0.250000
v -1.750000 2.625000 -0.750000
v -1.750000 2.625000 -0.250000
v -1.750000 2.500000 -0.250000
v -1.750000 2.500000 -0.750000
v -1.250000 2.625000 -0.250000
v -1.250000 2.625000 -0.750000
v -1.250000 2.500000 -0.750000
v -1.250000 2.500000 -0.250000
v -1.750000 2.625000 -0.750000
v -1.250000 2.625000 -0.750000
v -1.250000 2.625000 -0.250000
v -1.750000 2.625000 -0.250000
v -1.750000 2.500000 -0.250000
v -1.250000 2.500000 -0.250000
v -1.250000 2.500000 -0.750000
v -1.750000 2.500000 -0.750000
v -0.937500 3.125000 -0.687500
v -1.312500 3.125000 -0.687500
v -1.312500 2.750000 -0.687500
v -0.937500 2.750000 -0.687500
v -1.312500 3.125000 -0.312500
v -0.937500 3.125000 -0.312500
v -0.937500 2.750000 -0.312500
v -1.312500 2.750000 -0.312500
v -1.312500 3.125000 -0.687500
v -1.312500 3.125000 -0.312500
v -1.312500 2.750000 -0.312500
v -1.312500 2.750000 -0.687500
v -1.312500 3.125000 -0.687500
v -0.937500 3.125000 -0.687500
v -0.937500 3.125000 -0.312500
v -1.312500 3.125000 -0.312500
v -1.312500 2.750000 -0.312500
v -0.937500 2.750000 -0.312500
v -0.937500 2.750000 -0.687500
v -1.312500 2.750000 -0.687500
v -0.375000 3.812500 -1.500000
v -1.000000 3.812500 -1.500000
v -1.000000 3.562500 -1.500000
v -0.375000 3.562500 -1.500000
v -1.000000 3.812500 -1.250000
v -0.375000 3.812500 -1.250000
v -0.375000 3.562500 -1.250000
v -1.000000 3.562500 -1.250000
v -0.375000 3.812500 -1.250000
v -0.375000 3.812500 -1.500000
v -0.375000 3.562500 -1.500000
v -0.375000 3.562500 -1.250000
v -1.000000 3.812500 -1.500000
v -0.375000 3.812500 -1.500000
v -0.375000 3.812500 -1.250000
v -1.000000 3.812500 -1.250000
v -1.000000 3.562500 -1.250000
v -0.375000 3.562500 -1.250000
v -0.375000 3.562500 -1.500000
v -1.000000 3.562500 -1.500000
v -0.625000 3.812500 -1.250000
v -0.625000 3.812500 -1.000000
v -0.625000 3.562500 -1.000000
v -0.625000 3.562500 -1.250000
v -0.375000 3.812500 -1.000000
v -0.375000 3.812500 -1.250000
v -0.375000 3.562500 -1.250000
v -0.375000 3.562500 -1.000000
v -0.625000 3.812500 -1.250000
v -0.375000 3.812500 -1.250000
v -0.375000 3.812500 -1.000000
v -0.625000 3.812500 -1.000000
v -0.625000 3.562500 -1.000000
v -0.375000 3.562500 -1.000000
v -0.375000 3.562500 -1.250000
v -0.625000 3.562500 -1.250000
v -0.062500 0.812500 -1.937500
v -0.937500 0.812500 -1.937500
v -0.937500 0.187500 -1.937500
v -0.062500 0.187500 -1.937500
v -0.937500 0.812500 -1.062500
v -0.062500 0.812500 -1.062500
v -0.062500 0.187500 -1.062500
v -0.937500 0.187500 -1.062500
v -0.937500 0.812500 -1.937500
v -0.937500 0.812500 -1.062500
v -0.937500 0.187500 -1.062500
v -0.937500 0.187500 -1.937500
v -0.062500 0.812500 -1.062500
v -0.062500 0.812500 -1.937500
v -0.062500 0.187500 -1.937500
v -0.062500 0.187500 -1.062500
v -0.937500 0.812500 -1.937500
v -0.062500 0.812500 -1.937500
v -0.062500 0.812500 -1.062500
v -0.937500 0.812500 -1.062500
v -0.250000 1.250000 -1.750000
v -0.750000 1.250000 -1.750000
v -0.750000 0.812500 -1.750000
v -0.250000 0.812500 -1.750000
v -0.750000 1.250000 -1.250000
v -0.250000 1.250000 -1.250000
v -0.250000 0.812500 -1.250000
v -0.750000 0.812500 -1.250000
v -0.750000 1.250000 -1.750000
v -0.750000 1.250000 -1.250000
v -0.750000 0.812500 -1.250000
v -0.750000 0.812500 -1.750000
v -0.250000 1.250000 -1.250000
v -0.250000 1.250000 -1.750000
v -0.250000 0.812500 -1.750000
v -0.250000 0.812500 -1.250000
v -0.750000 1.250000 -1.750000
v -0.250000 1.250000 -1.750000
v -0.250000 1.250000 -1.250000
v -0.750000 1.250000 -1.250000
v -0.218750 1.125000 -1.781250
v -0.781250 1.125000 -1.781250
v -0.781250 0.937500 -1.781250
v -0.218750 0.937500 -1.781250
v -0.781250 1.125000 -1.218750
v -0.218750 1.125000 -1.218750
v -0.218750 0.937500 -1.218750
v -0.781250 0.937500 -1.218750
v -0.781250 1.125000 -1.781250
v -0.781250 1.125000 -1.218750
v -0.781250 0.937500 -1.218750
v -0.781250 0.937500 -1.781250
v -0.218750 1.125000 -1.218750
v -0.218750 1.125000 -1.781250
v -0.218750 0.937500 -1.781250
v -0.218750 0.937500 -1.218750
v -0.781250 1.125000 -1.781250
v -0.218750 1.125000 -1.781250
v -0.218750 1.125000 -1.218750
v -0.781250 1.125000 -1.218750
v -0.781250 0.937500 -1.218750
v -0.218750 0.937500 -1.218750
v -0.218750 0.937500 -1.781250
v -0.781250 0.937500 -1.781250
v -0.375000 1.312500 -1.625000
v -0.625000 1.312500 -1.625000
v -0.625000 1.250000 -1.625000
v -0.375000 1.250000 -1.625000
v -0.625000 1.312500 -1.375000
v -0.375000 1.312500 -1.375000
v -0.375000 1.250000 -1.375000
v -0.625000 1.250000 -1.375000
v -0.625000 1.312500 -1.625000
v -0.625000 1.312500 -1.375000
v -0.625000 1.250000 -1.375000
v -0.625000 1.250000 -1.625000
v -0.375000 1.312500 -1.375000
v -0.375000 1.312500 -1.625000
v -0.375000 1.250000 -1.625000
v -0.375000 1.250000 -1.375000
v -0.625000 1.312500 -1.625000
v -0.375000 1.312500 -1.625000
v -0.375000 1.312500 -1.375000
v -0.625000 1.312500 -1.375000
v 0.187500 1.875000 -2.000000
v 0.000000 1.875000 -2.000000
v 0.000000 0.187500 -2.000000
v 0.187500 0.187500 -2.000000
v 0.000000 1.875000 -1.812500
v 0.187500 1.875000 -1.812500
v 0.187500 0.187500 -1.812500
v 0.000000 0.187500 -1.812500
v 0.000000 1.875000 -2.000000
v 0.000000 1.875000 -1.812500
v 0.000000 0.187500 -1.812500
v 0.000000 0.187500 -2.000000
v 0.187500 1.875000 -1.812500
v 0.187500 1.875000 -2.000000
v 0.187500 0.187500 -2.000000
v 0.187500 0.187500 -1.812500
v 0.000000 1.875000 -2.000000
v 0.187500 1.875000 -2.000000
v 0.187500 1.875000 -1.812500
v 0.000000 1.875000 -1.812500
v 0.000000 0.187500 -1.812500
v 0.187500 0.187500 -1.812500
v 0.187500 0.187500 -2.000000
v 0.000000 0.187500 -2.000000
v 1.000000 1.875000 -2.000000
v 0.812500 1.875000 -2.000000
v 0.812500 0.187500 -2.000000
v 1.000000 0.187500 -2.000000
v 0.812500 1.875000 -1.812500
v 1.000000 1.875000 -1.812500
v 1.000000 0.187500 -1.812500
v 0.812500 0.187500 -1.812500
v 0.812500 1.875000 -2.000000
v 0.812500 1.875000 -1.812500
v 0.812500 0.187500 -1.812500
v 0.812500 0.187500 -2.000000
v 1.000000 1.875000 -1.812500
v 1.000000 1.875000 -2.000000
v 1.000000 0.187500 -2.000000
v 1.000000 0.187500 -1.812500
v 0.812500 1.875000 -2.000000
v 1.000000 1.875000 -2.000000
v 1.000000 1.875000 -1.812500
v 0.812500 1.875000 -1.812500
v 0.812500 0.187500 -1.812500
v 1.000000 0.187500 -1.812500
v 1.000000 0.187500 -2.000000
v 0.812500 0.187500 -2.000000
v 0.187500 1.875000 -1.187500
v 0.000000 1.875000 -1.187500
v 0.000000 0.187500 -1.187500
v 0.187500 0.187500 -1.187500
v 0.000000 1.875000 -1.000000
v 0.187500 1.875000 -1.000000
v 0.187500 0.187500 -1.000000
v 0.000000 0.187500 -1.000000
v 0.000000 1.875000 -1.187500
v 0.000000 1.875000 -1.000000
v 0.000000 0.187500 -1.000000
v 0.000000 0.187500 -1.187500
v 0.187500 1.875000 -1.000000
v 0.187500 1.875000 -1.187500
v 0.187500 0.187500 -1.187500
v 0.187500 0.187500 -1.000000
v 0.000000 1.875000 -1.187500
v 0.187500 1.875000 -1.187500
v 0.187500 1.875000 -1.000000
v 0.000000 1.875000 -1.000000
v 0.000000 0.187500 -1.000000
v 0.187500 0.187500 -1.000000
v 0.187500 0.187500 -1.187500
v 0.000000 0.187500 -1.187500
v 1.000000 1.875000 -1.187500
v 0.812500 1.875000 -1.187500
v 0.812500 0.187500 -1.187500
v 1.000000 0.187500 -1.187500
v 0.812500 1.875000 -1.000000
v 1.000000 1.875000 -1.000000
v 1.000000 0.187500 -1.000000
v 0.812500 0.187500 -1.000000
v 0.812500 1.875000 -1.187500
v 0.812500 1.875000 -1.000000
v 0.812500 0.187500 -1.000000
v 0.812500 0.187500 -1.187500
v 1.000000 1.875000 -1.000000
v 1.000000 1.875000 -1.187500
v 1.000000 0.187500 -1.187500
v 1.000000 0.187500 -1.000000
v 0.812500 1.875000 -1.187500
v 1.000000 1.875000 -1.187500
v 1.000000 1.875000 -1.000000
v 0.812500 1.875000 -1.000000
v 0.812500 0.187500 -1.000000
v 1.000000 0.187500 -1.000000
v 1.000000 0.187500 -1.187500
v 0.812500 0.187500 -1.187500
v 0.937500 1.000000 -1.937500
v 0.062500 1.000000 -1.937500
v 0.062500 0.187500 -1.937500
v 0.937500 0.187500 -1.937500
v 0.062500 1.000000 -1.062500
v 0.937500 1.000000 -1.062500
v 0.937500 0.187500 -1.062500
v 0.062500 0.187500 -1.062500
v 0.062500 1.000000 -1.937500
v 0.062500 1.000000 -1.062500
v 0.062500 0.187500 -1.062500
v 0.062500 0.187500 -1.937500
v 0.937500 1.000000 -1.062500
v 0.937500 1.000000 -1.937500
v 0.937500 0.187500 -1.937500
v 0.937500 0.187500 -1.062500
v 0.937500 1.875000 -1.937500
v 0.062500 1.875000 -1.937500
v 0.062500 1.000000 -1.937500
v 0.937500 1.000000 -1.937500
v 0.062500 1.875000 -1.062500
v 0.937500 1.875000 -1.062500
v 0.937500 1.000000 -1.062500
v 0.062500 1.000000 -1.062500
v 0.062500 1.875000 -1.937500
v 0.062500 1.875000 -1.062500
v 0.062500 1.000000 -1.062500
v 0.062500 1.000000 -1.937500
v 0.937500 1.875000 -1.062500
v 0.937500 1.875000 -1.937500
v 0.937500 1.000000 -1.937500
v 0.937500 1.000000 -1.062500
v 1.000000 2.000000 -2.000000
v 0.000000 2.000000 -2.000000
v 0.000000 1.875000 -2.000000
v 1.000000 1.875000 -2.000000
v 0.000000 2.000000 -1.000000
v 1.000000 2.000000 -1.000000
v 1.000000 1.875000 -1.000000
v 0.000000 1.875000 -1.000000
v 0.000000 2.000000 -2.000000
v 0.000000 2.000000 -1.000000
v 0.000000 1.875000 -1.000000
v 0.000000 1.875000 -2.000000
v 1.000000 2.000000 -1.000000
v 1.000000 2.000000 -2.000000
v 1.000000 1.875000 -2.000000
v 1.000000 1.875000 -1.000000
v 0.000000 2.000000 -2.000000
v 1.000000 2.000000 -2.000000
v 1.000000 2.000000 -1.000000
v 0.000000 2.000000 -1.000000
v 0.625000 2.062500 -1.812500
v 0.375000 2.062500 -1.812500
v 0.375000 2.000000 -1.812500
v 0.625000 2.000000 -1.812500
v 0.375000 2.062500 -1.562500
v 0.625000 2.062500 -1.562500
v 0.625000 2.000000 -1.562500
v 0.375000 2.000000 -1.562500
v 0.375000 2.062500 -1.812500
v 0.375000 2.062500 -1.562500
v 0.375000 2.000000 -1.562500
v 0.375000 2.000000 -1.812500
v 0.625000 2.062500 -1.562500
v 0.625000 2.062500 -1.812500
v 0.625000 2.000000 -1.812500
v 0.625000 2.000000 -1.562500
v 0.375000 2.062500 -1.812500
v 0.625000 2.062500 -1.812500
v 0.625000 2.062500 -1.562500
v 0.375000 2.062500 -1.562500
v 0.687500 3.750000 -0.437500
v -0.687500 3.750000 -0.437500
v -0.687500 0.750000 -0.437500
v 0.687500 0.750000 -0.437500
v -0.687500 3.750000 0.437500
v 0.687500 3.750000 0.437500
v 0.687500 0.750000 0.437500
v -0.687500 0.750000 0.437500
v -0.687500 3.750000 -0.437500
v -0.687500 3.750000 0.437500
v -0.687500 0.750000 0.437500
v -0.687500 0.750000 -0.437500
v 0.687500 3.750000 0.437500
v 0.687500 3.750000 -0.437500
v 0.687500 0.750000 -0.437500
v 0.687500 0.750000 0.437500
v -0.687500 3.750000 -0.437500
v 0.687500 3.750000 -0.437500
v 0.687500 3.750000 0.437500
v -0.687500 3.750000 0.437500
v 0.437500 3.750000 -0.687500
v -0.437500 3.750000 -0.687500
v -0.437500 0.750000 -0.687500
v 0.437500 0.750000 -0.687500
v -0.437500 3.750000 0.687500
v 0.437500 3.750000 0.687500
v 0.437500 0.750000 0.687500
v -0.437500 0.750000 0.687500
v -0.437500 3.750000 -0.687500
v -0.437500 3.750000 0.687500
v -0.437500 0.750000 0.687500
v -0.437500 0.750000 -0.687500
v 0.437500 3.750000 0.687500
v 0.437500 3.750000 -0.687500
v 0.437500 0.750000 -0.687500
v 0.437500 0.750000 0.687500
v -0.437500 3.750000 -0.687500
v 0.437500 3.750000 -0.687500
v 0.437500 3.750000 0.687500
v -0.437500 3.750000 0.687500
v 0.718750 1.000000 -0.468750
v -0.718750 1.000000 -0.468750
v -0.718750 0.812500 -0.468750
v 0.718750 0.812500 -0.468750
v -0.718750 1.000000 0.468750
v 0.718750 1.000000 0.468750
v 0.718750 0.812500 0.468750
v -0.718750 0.812500 0.468750
v -0.718750 1.000000 -0.468750
v -0.718750 1.000000 0.468750
v -0.718750 0.812500 0.468750
v -0.718750 0.812500 -0.468750
v 0.718750 1.000000 0.468750
v 0.718750 1.000000 -0.468750
v 0.718750 0.812500 -0.468750
v 0.718750 0.812500 0.468750
v -0.718750 1.000000 -0.468750
v 0.718750 1.000000 -0.468750
v 0.718750 1.000000 0.468750
v -0.718750 1.000000 0.468750
v -0.718750 0.812500 0.468750
v 0.718750 0.812500 0.468750
v 0.718750 0.812500 -0.468750
v -0.718750 0.812500 -0.468750
v 0.468750 1.000000 -0.718750
v -0.468750 1.000000 -0.718750
v -0.468750 0.812500 -0.718750
v 0.468750 0.812500 -0.718750
v -0.468750 1.000000 0.718750
v 0.468750 1.000000 0.718750
v 0.468750 0.812500 0.718750
v -0.468750 0.812500 0.718750
v -0.468750 1.000000 -0.718750
v -0.468750 1.000000 0.718750
v -0.468750 0.812500 0.718750
v -0.468750 0.812500 -0.718750
v 0.468750 1.000000 0.718750
v 0.468750 1.000000 -0.718750
v 0.468750 0.812500 -0.718750
v 0.468750 0.812500 0.718750
v -0.468750 1.000000 -0.718750
v 0.468750 1.000000 -0.718750
v 0.468750 1.000000 0.718750
v -0.468750 1.000000 0.718750
v -0.468750 0.812500 0.718750
v 0.468750 0.812500 0.718750
v 0.468750 0.812500 -0.718750
v -0.468750 0.812500 -0.718750
v 0.718750 2.375000 -0.468750
v -0.718750 2.375000 -0.468750
v -0.718750 2.125000 -0.468750
v 0.718750 2.125000 -0.468750
v -0.718750 2.375000 0.468750
v 0.718750 2.375000 0.468750
v 0.718750 2.125000 0.468750
v -0.718750 2.125000 0.468750
v -0.718750 2.375000 -0.468750
v -0.718750 2.375000 0.468750
v -0.718750 2.125000 0.468750
v -0.718750 2.125000 -0.468750
v 0.718750 2.375000 0.468750
v 0.718750 2.375000 -0.468750
v 0.718750 2.125000 -0.468750
v 0.718750 2.125000 0.468750
v -0.718750 2.375000 -0.468750
v 0.718750 2.375000 -0.468750
v 0.718750 2.375000 0.468750
v -0.718750 2.375000 0.468750
v -0.718750 2.125000 0.468750
v 0.718750 2.125000 0.468750
v 0.718750 2.125000 -0.468750
v -0.718750 2.125000 -0.468750
v 0.468750 2.375000 -0.718750
v -0.468750 2.375000 -0.718750
v -0.468750 2.125000 -0.718750
v 0.468750 2.125000 -0.718750
v -0.468750 2.375000 0.718750
v 0.468750 2.375000 0.718750
v 0.468750 2.125000 0.718750
v -0.468750 2.125000 0.718750
v -0.468750 2.375000 -0.718750
v -0.468750 2.375000 0.718750
v -0.468750 2.125000 0.718750
v -0.468750 2.125000 -0.718750
v 0.468750 2.375000 0.718750
v 0.468750 2.375000 -0.718750
v 0.468750 2.125000 -0.718750
v 0.468750 2.125000 0.718750
v -0.468750 2.375000 -0.718750
v 0.468750 2.375000 -0.718750
v 0.468750 2.375000 0.718750
v -0.468750 2.375000 0.718750
v -0.468750 2.125000 0.718750
v 0.468750 2.125000 0.718750
v 0.468750 2.125000 -0.718750
v -0.468750 2.125000 -0.718750
v 0.718750 3.687500 -0.468750
v -0.718750 3.687500 -0.468750
v -0.718750 3.500000 -0.468750
v 0.718750 3.500000 -0.468750
v -0.718750 3.687500 0.468750
v 0.718750 3.687500 0.468750
v 0.718750 3.500000 0.468750
v -0.718750 3.500000 0.468750
v -0.718750 3.687500 -0.468750
v -0.718750 3.687500 0.468750
v -0.718750 3.500000 0.468750
v -0.718750 3.500000 -0.468750
v 0.718750 3.687500 0.468750
v 0.718750 3.687500 -0.468750
v 0.718750 3.500000 -0.468750
v 0.718750 3.500000 0.468750
v -0.718750 3.687500 -0.468750
v 0.718750 3.687500 -0.468750
v 0.718750 3.687500 0.468750
v -0.718750 3.687500 0.468750
v -0.718750 3.500000 0.468750
v 0.718750 3.500000 0.468750
v 0.718750 3.500000 -0.468750
v -0.718750 3.500000 -0.468750
v 0.468750 3.687500 -0.718750
v -0.468750 3.687500 -0.718750
v -0.468750 3.500000 -0.718750
v 0.468750 3.500000 -0.718750
v -0.468750 3.687500 0.718750
v 0.468750 3.687500 0.718750
v 0.468750 3.500000 0.718750
v -0.468750 3.500000 0.718750
v -0.468750 3.687500 -0.718750
v -0.468750 3.687500 0.718750
v -0.468750 3.500000 0.718750
v -0.468750 3.500000 -0.718750
v 0.468750 3.687500 0.718750
v 0.468750 3.687500 -0.718750
v 0.468750 3.500000 -0.718750
v 0.468750 3.500000 0.718750
v -0.468750 3.687500 -0.718750
v 0.468750 3.687500 -0.718750
v 0.468750 3.687500 0.718750
v -0.468750 3.687500 0.718750
v -0.468750 3.500000 0.718750
v 0.468750 3.500000 0.718750
v 0.468750 3.500000 -0.718750
v -0.468750 3.500000 -0.718750
v -1.000000 3.941500 -1.000000
v -1.000000 3.941500 -0.812500
v -0.812500 3.941500 -0.812500
v -0.812500 3.941500 -1.000000
v 0.812500 3.941500 -1.000000
v 0.812500 3.941500 -0.812500
v 1.000000 3.941500 -0.812500
v 1.000000 3.941500 -1.000000
v -1.000000 3.941500 0.812500
v -1.000000 3.941500 1.000000
v -0.812500 3.941500 1.000000
v -0.812500 3.941500 0.812500
v 0.812500 3.941500 0.812500
v 0.812500 3.941500 1.000000
v 1.000000 3.941500 1.000000
v 1.000000 3.941500 0.812500
v -0.812500 2.312500 -0.902250
v -0.812500 2.187500 -0.902250
v 0.812500 2.187500 -0.902250
v 0.812500 2.312500 -0.902250
v 0.812500 2.312500 0.902250
v 0.812500 2.187500 0.902250
v -0.812500 2.187500 0.902250
v -0.812500 2.312500 0.902250
v -0.902250 2.312500 0.812500
v -0.902250 2.187500 0.812500
v -0.902250 2.187500 -0.812500
v -0.902250 2.312500 -0.812500
v 0.902250 2.312500 -0.812500
v 0.902250 2.187500 -0.812500
v 0.902250 2.187500 0.812500
v 0.902250 2.312500 0.812500
v -0.437500 3.754000 -0.687500
v -0.437500 3.754000 0.687500
v 0.437500 3.754000 0.687500
v 0.437500 3.754000 -0.687500
v -0.468750 2.379000 -0.718750
v -0.468750 2.379000 0.718750
v 0.468750 2.379000 0.718750
v 0.468750 2.379000 -0.718750
v -0.468750 2.121000 0.718750
v -0.468750 2.121000 -0.718750
v 0.468750 2.121000 -0.718750
v 0.468750 2.121000 0.718750
v -0.468750 1.004000 -0.718750
v -0.468750 1.004000 0.718750
v 0.468750 1.004000 0.718750
v 0.468750 1.004000 -0.718750
v -0.468750 0.808500 0.718750
v -0.468750 0.808500 -0.718750
v 0.468750 0.808500 -0.718750
v 0.468750 0.808500 0.718750
v -0.468750 3.691500 -0.718750
v -0.468750 3.691500 0.718750
v 0.468750 3.691500 0.718750
v 0.468750 3.691500 -0.718750
v -0.468750 3.496000 0.718750
v -0.468750 3.496000 -0.718750
v 0.468750 3.496000 -0.718750
v 0.468750 3.496000 0.718750
vt 0.761719 0.351562
vt 0.949219 0.351562
vt 0.949219 0.328125
vt 0.761719 0.328125
vt 0.761719 0.351562
vt 0.949219 0.351562
vt 0.949219 0.328125
vt 0.761719 0.328125
vt 0.761719 0.351562
vt 0.949219 0.351562
vt 0.949219 0.328125
vt 0.761719 0.328125
vt 0.761719 0.351562
vt 0.949219 0.351562
vt 0.949219 0.328125
vt 0.761719 0.328125
vt 0.078125 1.000000
vt 0.265625 1.000000
vt 0.265625 0.625000
vt 0.078125 0.625000
vt 0.054688 0.351562
vt 0.171875 0.351562
vt 0.171875 0.281250
vt 0.054688 0.281250
vt 0.054688 0.351562
vt 0.171875 0.351562
vt 0.171875 0.281250
vt 0.054688 0.281250
vt 0.054688 0.351562
vt 0.171875 0.351562
vt 0.171875 0.281250
vt 0.054688 0.281250
vt 0.054688 0.351562
vt 0.171875 0.351562
vt 0.171875 0.281250
vt 0.054688 0.281250
vt 0.652344 1.000000
vt 0.769531 1.000000
vt 0.769531 0.765625
vt 0.652344 0.765625
vt 0.000000 1.000000
vt 0.011719 1.000000
vt 0.011719 0.531250
vt 0.000000 0.531250
vt 0.000000 1.000000
vt 0.011719 1.000000
vt 0.011719 0.531250
vt 0.000000 0.531250
vt 0.000000 1.000000
vt 0.011719 1.000000
vt 0.011719 0.531250
vt 0.000000 0.531250
vt 0.000000 1.000000
vt 0.011719 1.000000
vt 0.011719 0.531250
vt 0.000000 0.531250
vt 0.984375 0.351562
vt 0.996094 0.351562
vt 0.996094 0.328125
vt 0.984375 0.328125
vt 0.984375 0.351562
vt 0.996094 0.351562
vt 0.996094 0.328125
vt 0.984375 0.328125
vt 0.000000 1.000000
vt 0.011719 1.000000
vt 0.011719 0.531250
vt 0.000000 0.531250
vt 0.000000 1.000000
vt 0.011719 1.000000
vt 0.011719 0.531250
vt 0.000000 0.531250
vt 0.000000 1.000000
vt 0.011719 1.000000
vt 0.011719 0.531250
vt 0.000000 0.531250
vt 0.000000 1.000000
vt 0.011719 1.000000
vt 0.011719 0.531250
vt 0.000000 0.531250
vt 0.984375 0.351562
vt 0.996094 0.351562
vt 0.996094 0.328125
vt 0.984375 0.328125
vt 0.984375 0.351562
vt 0.996094 0.351562
vt 0.996094 0.328125
vt 0.984375 0.328125
vt 0.000000 1.000000
vt 0.011719 1.000000
vt 0.011719 0.531250
vt 0.000000 0.531250
vt 0.000000 1.000000
vt 0.011719 1.000000
vt 0.011719 0.531250
vt 0.000000 0.531250
vt 0.000000 1.000000
vt 0.011719 1.000000
vt 0.011719 0.531250
vt 0.000000 0.531250
vt 0.000000 1.000000
vt 0.011719 1.000000
vt 0.011719 0.531250
vt 0.000000 0.531250
vt 0.984375 0.351562
vt 0.996094 0.351562
vt 0.996094 0.328125
vt 0.984375 0.328125
vt 0.984375 0.351562
vt 0.996094 0.351562
vt 0.996094 0.328125
vt 0.984375 0.328125
vt 0.000000 1.000000
vt 0.011719 1.000000
vt 0.011719 0.531250
vt 0.000000 0.531250
vt 0.000000 1.000000
vt 0.011719 1.000000
vt 0.011719 0.531250
vt 0.000000 0.531250
vt 0.000000 1.000000
vt 0.011719 1.000000
vt 0.011719 0.531250
vt 0.000000 0.531250
vt 0.000000 1.000000
vt 0.011719 1.000000
vt 0.011719 0.531250
vt 0.000000 0.531250
vt 0.984375 0.351562
vt 0.996094 0.351562
vt 0.996094 0.328125
vt 0.984375 0.328125
vt 0.984375 0.351562
vt 0.996094 0.351562
vt 0.996094 0.328125
vt 0.984375 0.328125
vt 0.000000 0.273438
vt 0.117188 0.273438
vt 0.117188 0.250000
vt 0.000000 0.250000
vt 0.000000 0.273438
vt 0.117188 0.273438
vt 0.117188 0.250000
vt 0.000000 0.250000
vt 0.000000 0.273438
vt 0.117188 0.273438
vt 0.117188 0.250000
vt 0.000000 0.250000
vt 0.000000 0.273438
vt 0.117188 0.273438
vt 0.117188 0.250000
vt 0.000000 0.250000
vt 0.769531 1.000000
vt 0.886719 1.000000
vt 0.886719 0.765625
vt 0.769531 0.765625
vt 0.652344 1.000000
vt 0.769531 1.000000
vt 0.769531 0.765625
vt 0.652344 0.765625
vt 0.921875 0.273438
vt 0.960938 0.273438
vt 0.960938 0.265625
vt 0.921875 0.265625
vt 0.921875 0.273438
vt 0.960938 0.273438
vt 0.960938 0.265625
vt 0.921875 0.265625
vt 0.921875 0.273438
vt 0.960938 0.273438
vt 0.960938 0.265625
vt 0.921875 0.265625
vt 0.921875 0.273438
vt 0.960938 0.273438
vt 0.960938 0.265625
vt 0.921875 0.265625
vt 0.957031 0.531250
vt 0.996094 0.531250
vt 0.996094 0.453125
vt 0.957031 0.453125
vt 0.609375 0.273438
vt 0.710938 0.273438
vt 0.710938 0.257812
vt 0.609375 0.257812
vt 0.609375 0.273438
vt 0.710938 0.273438
vt 0.710938 0.257812
vt 0.609375 0.257812
vt 0.812500 0.273438
vt 0.816406 0.273438
vt 0.816406 0.257812
vt 0.812500 0.257812
vt 0.812500 0.273438
vt 0.816406 0.273438
vt 0.816406 0.257812
vt 0.812500 0.257812
vt 0.820312 0.273438
vt 0.921875 0.273438
vt 0.921875 0.265625
vt 0.820312 0.265625
vt 0.820312 0.273438
vt 0.921875 0.273438
vt 0.921875 0.265625
vt 0.820312 0.265625
vt 0.609375 0.273438
vt 0.710938 0.273438
vt 0.710938 0.257812
vt 0.609375 0.257812
vt 0.609375 0.273438
vt 0.710938 0.273438
vt 0.710938 0.257812
vt 0.609375 0.257812
vt 0.812500 0.273438
vt 0.816406 0.273438
vt 0.816406 0.257812
vt 0.812500 0.257812
vt 0.812500 0.273438
vt 0.816406 0.273438
vt 0.816406 0.257812
vt 0.812500 0.257812
vt 0.820312 0.273438
vt 0.921875 0.273438
vt 0.921875 0.265625
vt 0.820312 0.265625
vt 0.820312 0.273438
vt 0.921875 0.273438
vt 0.921875 0.265625
vt 0.820312 0.265625
vt 0.812500 0.273438
vt 0.816406 0.273438
vt 0.816406 0.257812
vt 0.812500 0.257812
vt 0.812500 0.273438
vt 0.816406 0.273438
vt 0.816406 0.257812
vt 0.812500 0.257812
vt 0.609375 0.273438
vt 0.710938 0.273438
vt 0.710938 0.257812
vt 0.609375 0.257812
vt 0.609375 0.273438
vt 0.710938 0.273438
vt 0.710938 0.257812
vt 0.609375 0.257812
vt 0.898438 1.000000
vt 0.902344 1.000000
vt 0.902344 0.796875
vt 0.898438 0.796875
vt 0.898438 1.000000
vt 0.902344 1.000000
vt 0.902344 0.796875
vt 0.898438 0.796875
vt 0.812500 0.273438
vt 0.816406 0.273438
vt 0.816406 0.257812
vt 0.812500 0.257812
vt 0.812500 0.273438
vt 0.816406 0.273438
vt 0.816406 0.257812
vt 0.812500 0.257812
vt 0.609375 0.273438
vt 0.710938 0.273438
vt 0.710938 0.257812
vt 0.609375 0.257812
vt 0.609375 0.273438
vt 0.710938 0.273438
vt 0.710938 0.257812
vt 0.609375 0.257812
vt 0.898438 1.000000
vt 0.902344 1.000000
vt 0.902344 0.796875
vt 0.898438 0.796875
vt 0.898438 1.000000
vt 0.902344 1.000000
vt 0.902344 0.796875
vt 0.898438 0.796875
vt 0.265625 1.000000
vt 0.367188 1.000000
vt 0.367188 0.625000
vt 0.265625 0.625000
vt 0.265625 1.000000
vt 0.367188 1.000000
vt 0.367188 0.625000
vt 0.265625 0.625000
vt 0.265625 1.000000
vt 0.367188 1.000000
vt 0.367188 0.625000
vt 0.265625 0.625000
vt 0.265625 1.000000
vt 0.367188 1.000000
vt 0.367188 0.625000
vt 0.265625 0.625000
vt 0.265625 1.000000
vt 0.367188 1.000000
vt 0.367188 0.625000
vt 0.265625 0.625000
vt 0.265625 1.000000
vt 0.367188 1.000000
vt 0.367188 0.625000
vt 0.265625 0.625000
vt 0.265625 1.000000
vt 0.367188 1.000000
vt 0.367188 0.625000
vt 0.265625 0.625000
vt 0.265625 1.000000
vt 0.367188 1.000000
vt 0.367188 0.625000
vt 0.265625 0.625000
vt 0.117188 0.273438
vt 0.218750 0.273438
vt 0.218750 0.250000
vt 0.117188 0.250000
vt 0.996094 0.351562
vt 1.000000 0.351562
vt 1.000000 0.328125
vt 0.996094 0.328125
vt 0.996094 0.351562
vt 1.000000 0.351562
vt 1.000000 0.328125
vt 0.996094 0.328125
vt 0.000000 0.250000
vt 0.101562 0.250000
vt 0.101562 0.242188
vt 0.000000 0.242188
vt 0.000000 0.250000
vt 0.101562 0.250000
vt 0.101562 0.242188
vt 0.000000 0.242188
vt 0.996094 0.351562
vt 1.000000 0.351562
vt 1.000000 0.328125
vt 0.996094 0.328125
vt 0.996094 0.351562
vt 1.000000 0.351562
vt 1.000000 0.328125
vt 0.996094 0.328125
vt 0.117188 0.273438
vt 0.218750 0.273438
vt 0.218750 0.250000
vt 0.117188 0.250000
vt 0.902344 1.000000
vt 0.906250 1.000000
vt 0.906250 0.796875
vt 0.902344 0.796875
vt 0.902344 1.000000
vt 0.906250 1.000000
vt 0.906250 0.796875
vt 0.902344 0.796875
vt 0.066406 1.000000
vt 0.078125 1.000000
vt 0.078125 0.554688
vt 0.066406 0.554688
vt 0.066406 1.000000
vt 0.078125 1.000000
vt 0.078125 0.554688
vt 0.066406 0.554688
vt 0.066406 1.000000
vt 0.078125 1.000000
vt 0.078125 0.554688
vt 0.066406 0.554688
vt 0.066406 1.000000
vt 0.078125 1.000000
vt 0.078125 0.554688
vt 0.066406 0.554688
vt 0.574219 0.273438
vt 0.585938 0.273438
vt 0.585938 0.250000
vt 0.574219 0.250000
vt 0.574219 0.273438
vt 0.585938 0.273438
vt 0.585938 0.250000
vt 0.574219 0.250000
vt 0.066406 1.000000
vt 0.078125 1.000000
vt 0.078125 0.554688
vt 0.066406 0.554688
vt 0.066406 1.000000
vt 0.078125 1.000000
vt 0.078125 0.554688
vt 0.066406 0.554688
vt 0.066406 1.000000
vt 0.078125 1.000000
vt 0.078125 0.554688
vt 0.066406 0.554688
vt 0.066406 1.000000
vt 0.078125 1.000000
vt 0.078125 0.554688
vt 0.066406 0.554688
vt 0.574219 0.273438
vt 0.585938 0.273438
vt 0.585938 0.250000
vt 0.574219 0.250000
vt 0.574219 0.273438
vt 0.585938 0.273438
vt 0.585938 0.250000
vt 0.574219 0.250000
vt 0.066406 1.000000
vt 0.078125 1.000000
vt 0.078125 0.554688
vt 0.066406 0.554688
vt 0.066406 1.000000
vt 0.078125 1.000000
vt 0.078125 0.554688
vt 0.066406 0.554688
vt 0.066406 1.000000
vt 0.078125 1.000000
vt 0.078125 0.554688
vt 0.066406 0.554688
vt 0.066406 1.000000
vt 0.078125 1.000000
vt 0.078125 0.554688
vt 0.066406 0.554688
vt 0.574219 0.273438
vt 0.585938 0.273438
vt 0.585938 0.250000
vt 0.574219 0.250000
vt 0.574219 0.273438
vt 0.585938 0.273438
vt 0.585938 0.250000
vt 0.574219 0.250000
vt 0.066406 1.000000
vt 0.078125 1.000000
vt 0.078125 0.554688
vt 0.066406 0.554688
vt 0.066406 1.000000
vt 0.078125 1.000000
vt 0.078125 0.554688
vt 0.066406 0.554688
vt 0.066406 1.000000
vt 0.078125 1.000000
vt 0.078125 0.554688
vt 0.066406 0.554688
vt 0.066406 1.000000
vt 0.078125 1.000000
vt 0.078125 0.554688
vt 0.066406 0.554688
vt 0.574219 0.273438
vt 0.585938 0.273438
vt 0.585938 0.250000
vt 0.574219 0.250000
vt 0.574219 0.273438
vt 0.585938 0.273438
vt 0.585938 0.250000
vt 0.574219 0.250000
vt 0.011719 1.000000
vt 0.066406 1.000000
vt 0.066406 0.554688
vt 0.011719 0.554688
vt 0.011719 1.000000
vt 0.066406 1.000000
vt 0.066406 0.554688
vt 0.011719 0.554688
vt 0.011719 1.000000
vt 0.066406 1.000000
vt 0.066406 0.554688
vt 0.011719 0.554688
vt 0.011719 1.000000
vt 0.066406 1.000000
vt 0.066406 0.554688
vt 0.011719 0.554688
vt 0.710938 0.273438
vt 0.773438 0.273438
vt 0.773438 0.257812
vt 0.710938 0.257812
vt 0.710938 0.273438
vt 0.773438 0.273438
vt 0.773438 0.257812
vt 0.710938 0.257812
vt 0.710938 0.273438
vt 0.773438 0.273438
vt 0.773438 0.257812
vt 0.710938 0.257812
vt 0.710938 0.273438
vt 0.773438 0.273438
vt 0.773438 0.257812
vt 0.710938 0.257812
vt 0.113281 0.531250
vt 0.175781 0.531250
vt 0.175781 0.406250
vt 0.113281 0.406250
vt 0.398438 0.273438
vt 0.457031 0.273438
vt 0.457031 0.250000
vt 0.398438 0.250000
vt 0.398438 0.273438
vt 0.457031 0.273438
vt 0.457031 0.250000
vt 0.398438 0.250000
vt 0.398438 0.273438
vt 0.457031 0.273438
vt 0.457031 0.250000
vt 0.398438 0.250000
vt 0.398438 0.273438
vt 0.457031 0.273438
vt 0.457031 0.250000
vt 0.398438 0.250000
vt 0.964844 1.000000
vt 0.996094 1.000000
vt 0.996094 0.906250
vt 0.964844 0.906250
vt 0.996094 1.000000
vt 1.000000 1.000000
vt 1.000000 0.906250
vt 0.996094 0.906250
vt 0.996094 1.000000
vt 1.000000 1.000000
vt 1.000000 0.906250
vt 0.996094 0.906250
vt 0.960938 0.273438
vt 0.992188 0.273438
vt 0.992188 0.265625
vt 0.960938 0.265625
vt 0.960938 0.273438
vt 0.992188 0.273438
vt 0.992188 0.265625
vt 0.960938 0.265625
vt 0.300781 0.351562
vt 0.324219 0.351562
vt 0.324219 0.304688
vt 0.300781 0.304688
vt 0.996094 0.531250
vt 1.000000 0.531250
vt 1.000000 0.484375
vt 0.996094 0.484375
vt 0.371094 0.351562
vt 0.375000 0.351562
vt 0.375000 0.304688
vt 0.371094 0.304688
vt 0.101562 0.250000
vt 0.125000 0.250000
vt 0.125000 0.242188
vt 0.101562 0.242188
vt 0.125000 0.250000
vt 0.148438 0.250000
vt 0.148438 0.242188
vt 0.125000 0.242188
vt 0.804688 0.273438
vt 0.812500 0.273438
vt 0.812500 0.257812
vt 0.804688 0.257812
vt 0.816406 0.273438
vt 0.820312 0.273438
vt 0.820312 0.257812
vt 0.816406 0.257812
vt 0.816406 0.273438
vt 0.820312 0.273438
vt 0.820312 0.257812
vt 0.816406 0.257812
vt 0.992188 0.273438
vt 1.000000 0.273438
vt 1.000000 0.265625
vt 0.992188 0.265625
vt 0.992188 0.273438
vt 1.000000 0.273438
vt 1.000000 0.265625
vt 0.992188 0.265625
vt 0.375000 0.351562
vt 0.378906 0.351562
vt 0.378906 0.304688
vt 0.375000 0.304688
vt 0.375000 0.351562
vt 0.378906 0.351562
vt 0.378906 0.304688
vt 0.375000 0.304688
vt 0.324219 0.351562
vt 0.347656 0.351562
vt 0.347656 0.304688
vt 0.324219 0.304688
vt 0.324219 0.351562
vt 0.347656 0.351562
vt 0.347656 0.304688
vt 0.324219 0.304688
vt 0.375000 0.351562
vt 0.378906 0.351562
vt 0.378906 0.304688
vt 0.375000 0.304688
vt 0.375000 0.351562
vt 0.378906 0.351562
vt 0.378906 0.304688
vt 0.375000 0.304688
vt 0.375000 0.351562
vt 0.378906 0.351562
vt 0.378906 0.304688
vt 0.375000 0.304688
vt 0.375000 0.351562
vt 0.378906 0.351562
vt 0.378906 0.304688
vt 0.375000 0.304688
vt 0.324219 0.351562
vt 0.347656 0.351562
vt 0.347656 0.304688
vt 0.324219 0.304688
vt 0.324219 0.351562
vt 0.347656 0.351562
vt 0.347656 0.304688
vt 0.324219 0.304688
vt 0.375000 0.351562
vt 0.378906 0.351562
vt 0.378906 0.304688
vt 0.375000 0.304688
vt 0.375000 0.351562
vt 0.378906 0.351562
vt 0.378906 0.304688
vt 0.375000 0.304688
vt 0.617188 1.000000
vt 0.628906 1.000000
vt 0.628906 0.679688
vt 0.617188 0.679688
vt 0.617188 1.000000
vt 0.628906 1.000000
vt 0.628906 0.679688
vt 0.617188 0.679688
vt 0.617188 1.000000
vt 0.628906 1.000000
vt 0.628906 0.679688
vt 0.617188 0.679688
vt 0.617188 1.000000
vt 0.628906 1.000000
vt 0.628906 0.679688
vt 0.617188 0.679688
vt 0.585938 0.273438
vt 0.597656 0.273438
vt 0.597656 0.250000
vt 0.585938 0.250000
vt 0.585938 0.273438
vt 0.597656 0.273438
vt 0.597656 0.250000
vt 0.585938 0.250000
vt 0.617188 1.000000
vt 0.628906 1.000000
vt 0.628906 0.679688
vt 0.617188 0.679688
vt 0.617188 1.000000
vt 0.628906 1.000000
vt 0.628906 0.679688
vt 0.617188 0.679688
vt 0.617188 1.000000
vt 0.628906 1.000000
vt 0.628906 0.679688
vt 0.617188 0.679688
vt 0.617188 1.000000
vt 0.628906 1.000000
vt 0.628906 0.679688
vt 0.617188 0.679688
vt 0.585938 0.273438
vt 0.597656 0.273438
vt 0.597656 0.250000
vt 0.585938 0.250000
vt 0.585938 0.273438
vt 0.597656 0.273438
vt 0.597656 0.250000
vt 0.585938 0.250000
vt 0.617188 1.000000
vt 0.628906 1.000000
vt 0.628906 0.679688
vt 0.617188 0.679688
vt 0.617188 1.000000
vt 0.628906 1.000000
vt 0.628906 0.679688
vt 0.617188 0.679688
vt 0.617188 1.000000
vt 0.628906 1.000000
vt 0.628906 0.679688
vt 0.617188 0.679688
vt 0.617188 1.000000
vt 0.628906 1.000000
vt 0.628906 0.679688
vt 0.617188 0.679688
vt 0.585938 0.273438
vt 0.597656 0.273438
vt 0.597656 0.250000
vt 0.585938 0.250000
vt 0.585938 0.273438
vt 0.597656 0.273438
vt 0.597656 0.250000
vt 0.585938 0.250000
vt 0.617188 1.000000
vt 0.628906 1.000000
vt 0.628906 0.679688
vt 0.617188 0.679688
vt 0.617188 1.000000
vt 0.628906 1.000000
vt 0.628906 0.679688
vt 0.617188 0.679688
vt 0.617188 1.000000
vt 0.628906 1.000000
vt 0.628906 0.679688
vt 0.617188 0.679688
vt 0.617188 1.000000
vt 0.628906 1.000000
vt 0.628906 0.679688
vt 0.617188 0.679688
vt 0.585938 0.273438
vt 0.597656 0.273438
vt 0.597656 0.250000
vt 0.585938 0.250000
vt 0.585938 0.273438
vt 0.597656 0.273438
vt 0.597656 0.250000
vt 0.585938 0.250000
vt 0.562500 1.000000
vt 0.617188 1.000000
vt 0.617188 0.679688
vt 0.562500 0.679688
vt 0.562500 1.000000
vt 0.617188 1.000000
vt 0.617188 0.679688
vt 0.562500 0.679688
vt 0.562500 1.000000
vt 0.617188 1.000000
vt 0.617188 0.679688
vt 0.562500 0.679688
vt 0.562500 1.000000
vt 0.617188 1.000000
vt 0.617188 0.679688
vt 0.562500 0.679688
vt 0.710938 0.273438
vt 0.773438 0.273438
vt 0.773438 0.257812
vt 0.710938 0.257812
vt 0.710938 0.273438
vt 0.773438 0.273438
vt 0.773438 0.257812
vt 0.710938 0.257812
vt 0.710938 0.273438
vt 0.773438 0.273438
vt 0.773438 0.257812
vt 0.710938 0.257812
vt 0.710938 0.273438
vt 0.773438 0.273438
vt 0.773438 0.257812
vt 0.710938 0.257812
vt 0.113281 0.531250
vt 0.175781 0.531250
vt 0.175781 0.406250
vt 0.113281 0.406250
vt 0.398438 0.273438
vt 0.457031 0.273438
vt 0.457031 0.250000
vt 0.398438 0.250000
vt 0.398438 0.273438
vt 0.457031 0.273438
vt 0.457031 0.250000
vt 0.398438 0.250000
vt 0.398438 0.273438
vt 0.457031 0.273438
vt 0.457031 0.250000
vt 0.398438 0.250000
vt 0.398438 0.273438
vt 0.457031 0.273438
vt 0.457031 0.250000
vt 0.398438 0.250000
vt 0.964844 1.000000
vt 0.996094 1.000000
vt 0.996094 0.906250
vt 0.964844 0.906250
vt 0.996094 1.000000
vt 1.000000 1.000000
vt 1.000000 0.906250
vt 0.996094 0.906250
vt 0.996094 1.000000
vt 1.000000 1.000000
vt 1.000000 0.906250
vt 0.996094 0.906250
vt 0.960938 0.273438
vt 0.992188 0.273438
vt 0.992188 0.265625
vt 0.960938 0.265625
vt 0.960938 0.273438
vt 0.992188 0.273438
vt 0.992188 0.265625
vt 0.960938 0.265625
vt 0.804688 0.273438
vt 0.812500 0.273438
vt 0.812500 0.257812
vt 0.804688 0.257812
vt 0.816406 0.273438
vt 0.820312 0.273438
vt 0.820312 0.257812
vt 0.816406 0.257812
vt 0.816406 0.273438
vt 0.820312 0.273438
vt 0.820312 0.257812
vt 0.816406 0.257812
vt 0.992188 0.273438
vt 1.000000 0.273438
vt 1.000000 0.265625
vt 0.992188 0.265625
vt 0.992188 0.273438
vt 1.000000 0.273438
vt 1.000000 0.265625
vt 0.992188 0.265625
vt 0.375000 0.351562
vt 0.378906 0.351562
vt 0.378906 0.304688
vt 0.375000 0.304688
vt 0.375000 0.351562
vt 0.378906 0.351562
vt 0.378906 0.304688
vt 0.375000 0.304688
vt 0.324219 0.351562
vt 0.347656 0.351562
vt 0.347656 0.304688
vt 0.324219 0.304688
vt 0.324219 0.351562
vt 0.347656 0.351562
vt 0.347656 0.304688
vt 0.324219 0.304688
vt 0.375000 0.351562
vt 0.378906 0.351562
vt 0.378906 0.304688
vt 0.375000 0.304688
vt 0.375000 0.351562
vt 0.378906 0.351562
vt 0.378906 0.304688
vt 0.375000 0.304688
vt 0.375000 0.351562
vt 0.378906 0.351562
vt 0.378906 0.304688
vt 0.375000 0.304688
vt 0.375000 0.351562
vt 0.378906 0.351562
vt 0.378906 0.304688
vt 0.375000 0.304688
vt 0.324219 0.351562
vt 0.347656 0.351562
vt 0.347656 0.304688
vt 0.324219 0.304688
vt 0.324219 0.351562
vt 0.347656 0.351562
vt 0.347656 0.304688
vt 0.324219 0.304688
vt 0.375000 0.351562
vt 0.378906 0.351562
vt 0.378906 0.304688
vt 0.375000 0.304688
vt 0.375000 0.351562
vt 0.378906 0.351562
vt 0.378906 0.304688
vt 0.375000 0.304688
vt 0.777344 0.531250
vt 0.839844 0.531250
vt 0.839844 0.445312
vt 0.777344 0.445312
vt 0.839844 0.531250
vt 0.902344 0.531250
vt 0.902344 0.445312
vt 0.839844 0.445312
vt 0.238281 0.531250
vt 0.292969 0.531250
vt 0.292969 0.406250
vt 0.238281 0.406250
vt 0.628906 1.000000
vt 0.652344 1.000000
vt 0.652344 0.718750
vt 0.628906 0.718750
vt 0.628906 1.000000
vt 0.652344 1.000000
vt 0.652344 0.718750
vt 0.628906 0.718750
vt 0.628906 1.000000
vt 0.652344 1.000000
vt 0.652344 0.718750
vt 0.628906 0.718750
vt 0.628906 1.000000
vt 0.652344 1.000000
vt 0.652344 0.718750
vt 0.628906 0.718750
vt 0.347656 0.351562
vt 0.371094 0.351562
vt 0.371094 0.304688
vt 0.347656 0.304688
vt 0.773438 0.273438
vt 0.804688 0.273438
vt 0.804688 0.257812
vt 0.773438 0.257812
vt 0.773438 0.273438
vt 0.804688 0.273438
vt 0.804688 0.257812
vt 0.773438 0.257812
vt 0.773438 0.273438
vt 0.804688 0.273438
vt 0.804688 0.257812
vt 0.773438 0.257812
vt 0.773438 0.273438
vt 0.804688 0.273438
vt 0.804688 0.257812
vt 0.773438 0.257812
vt 0.207031 0.351562
vt 0.238281 0.351562
vt 0.238281 0.289062
vt 0.207031 0.289062
vt 0.207031 0.351562
vt 0.238281 0.351562
vt 0.238281 0.289062
vt 0.207031 0.289062
vt 0.773438 0.273438
vt 0.804688 0.273438
vt 0.804688 0.257812
vt 0.773438 0.257812
vt 0.773438 0.273438
vt 0.804688 0.273438
vt 0.804688 0.257812
vt 0.773438 0.257812
vt 0.773438 0.273438
vt 0.804688 0.273438
vt 0.804688 0.257812
vt 0.773438 0.257812
vt 0.773438 0.273438
vt 0.804688 0.273438
vt 0.804688 0.257812
vt 0.773438 0.257812
vt 0.207031 0.351562
vt 0.238281 0.351562
vt 0.238281 0.289062
vt 0.207031 0.289062
vt 0.207031 0.351562
vt 0.238281 0.351562
vt 0.238281 0.289062
vt 0.207031 0.289062
vt 0.347656 0.351562
vt 0.371094 0.351562
vt 0.371094 0.304688
vt 0.347656 0.304688
vt 0.347656 0.351562
vt 0.371094 0.351562
vt 0.371094 0.304688
vt 0.347656 0.304688
vt 0.347656 0.351562
vt 0.371094 0.351562
vt 0.371094 0.304688
vt 0.347656 0.304688
vt 0.347656 0.351562
vt 0.371094 0.351562
vt 0.371094 0.304688
vt 0.347656 0.304688
vt 0.347656 0.351562
vt 0.371094 0.351562
vt 0.371094 0.304688
vt 0.347656 0.304688
vt 0.675781 0.351562
vt 0.714844 0.351562
vt 0.714844 0.320312
vt 0.675781 0.320312
vt 0.675781 0.351562
vt 0.714844 0.351562
vt 0.714844 0.320312
vt 0.675781 0.320312
vt 0.714844 0.351562
vt 0.730469 0.351562
vt 0.730469 0.320312
vt 0.714844 0.320312
vt 0.675781 0.351562
vt 0.714844 0.351562
vt 0.714844 0.320312
vt 0.675781 0.320312
vt 0.675781 0.351562
vt 0.714844 0.351562
vt 0.714844 0.320312
vt 0.675781 0.320312
vt 0.714844 0.351562
vt 0.730469 0.351562
vt 0.730469 0.320312
vt 0.714844 0.320312
vt 0.714844 0.351562
vt 0.730469 0.351562
vt 0.730469 0.320312
vt 0.714844 0.320312
vt 0.714844 0.351562
vt 0.730469 0.351562
vt 0.730469 0.320312
vt 0.714844 0.320312
vt 0.714844 0.351562
vt 0.730469 0.351562
vt 0.730469 0.320312
vt 0.714844 0.320312
vt 0.902344 0.531250
vt 0.957031 0.531250
vt 0.957031 0.453125
vt 0.902344 0.453125
vt 0.000000 0.351562
vt 0.054688 0.351562
vt 0.054688 0.273438
vt 0.000000 0.273438
vt 0.000000 0.351562
vt 0.054688 0.351562
vt 0.054688 0.273438
vt 0.000000 0.273438
vt 0.000000 0.351562
vt 0.054688 0.351562
vt 0.054688 0.273438
vt 0.000000 0.273438
vt 0.558594 0.531250
vt 0.613281 0.531250
vt 0.613281 0.421875
vt 0.558594 0.421875
vt 0.269531 0.351562
vt 0.300781 0.351562
vt 0.300781 0.296875
vt 0.269531 0.296875
vt 0.269531 0.351562
vt 0.300781 0.351562
vt 0.300781 0.296875
vt 0.269531 0.296875
vt 0.269531 0.351562
vt 0.300781 0.351562
vt 0.300781 0.296875
vt 0.269531 0.296875
vt 0.269531 0.351562
vt 0.300781 0.351562
vt 0.300781 0.296875
vt 0.269531 0.296875
vt 0.238281 0.351562
vt 0.269531 0.351562
vt 0.269531 0.289062
vt 0.238281 0.289062
vt 0.949219 0.351562
vt 0.984375 0.351562
vt 0.984375 0.328125
vt 0.949219 0.328125
vt 0.949219 0.351562
vt 0.984375 0.351562
vt 0.984375 0.328125
vt 0.949219 0.328125
vt 0.949219 0.351562
vt 0.984375 0.351562
vt 0.984375 0.328125
vt 0.949219 0.328125
vt 0.949219 0.351562
vt 0.984375 0.351562
vt 0.984375 0.328125
vt 0.949219 0.328125
vt 0.171875 0.351562
vt 0.207031 0.351562
vt 0.207031 0.281250
vt 0.171875 0.281250
vt 0.171875 0.351562
vt 0.207031 0.351562
vt 0.207031 0.281250
vt 0.171875 0.281250
vt 0.148438 0.250000
vt 0.164062 0.250000
vt 0.164062 0.242188
vt 0.148438 0.242188
vt 0.148438 0.250000
vt 0.164062 0.250000
vt 0.164062 0.242188
vt 0.148438 0.242188
vt 0.148438 0.250000
vt 0.164062 0.250000
vt 0.164062 0.242188
vt 0.148438 0.242188
vt 0.148438 0.250000
vt 0.164062 0.250000
vt 0.164062 0.242188
vt 0.148438 0.242188
vt 0.730469 0.351562
vt 0.746094 0.351562
vt 0.746094 0.320312
vt 0.730469 0.320312
vt 0.886719 1.000000
vt 0.898438 1.000000
vt 0.898438 0.789062
vt 0.886719 0.789062
vt 0.886719 1.000000
vt 0.898438 1.000000
vt 0.898438 0.789062
vt 0.886719 0.789062
vt 0.886719 1.000000
vt 0.898438 1.000000
vt 0.898438 0.789062
vt 0.886719 0.789062
vt 0.886719 1.000000
vt 0.898438 1.000000
vt 0.898438 0.789062
vt 0.886719 0.789062
vt 0.597656 0.273438
vt 0.609375 0.273438
vt 0.609375 0.250000
vt 0.597656 0.250000
vt 0.597656 0.273438
vt 0.609375 0.273438
vt 0.609375 0.250000
vt 0.597656 0.250000
vt 0.886719 1.000000
vt 0.898438 1.000000
vt 0.898438 0.789062
vt 0.886719 0.789062
vt 0.886719 1.000000
vt 0.898438 1.000000
vt 0.898438 0.789062
vt 0.886719 0.789062
vt 0.886719 1.000000
vt 0.898438 1.000000
vt 0.898438 0.789062
vt 0.886719 0.789062
vt 0.886719 1.000000
vt 0.898438 1.000000
vt 0.898438 0.789062
vt 0.886719 0.789062
vt 0.597656 0.273438
vt 0.609375 0.273438
vt 0.609375 0.250000
vt 0.597656 0.250000
vt 0.597656 0.273438
vt 0.609375 0.273438
vt 0.609375 0.250000
vt 0.597656 0.250000
vt 0.886719 1.000000
vt 0.898438 1.000000
vt 0.898438 0.789062
vt 0.886719 0.789062
vt 0.886719 1.000000
vt 0.898438 1.000000
vt 0.898438 0.789062
vt 0.886719 0.789062
vt 0.886719 1.000000
vt 0.898438 1.000000
vt 0.898438 0.789062
vt 0.886719 0.789062
vt 0.886719 1.000000
vt 0.898438 1.000000
vt 0.898438 0.789062
vt 0.886719 0.789062
vt 0.597656 0.273438
vt 0.609375 0.273438
vt 0.609375 0.250000
vt 0.597656 0.250000
vt 0.597656 0.273438
vt 0.609375 0.273438
vt 0.609375 0.250000
vt 0.597656 0.250000
vt 0.886719 1.000000
vt 0.898438 1.000000
vt 0.898438 0.789062
vt 0.886719 0.789062
vt 0.886719 1.000000
vt 0.898438 1.000000
vt 0.898438 0.789062
vt 0.886719 0.789062
vt 0.886719 1.000000
vt 0.898438 1.000000
vt 0.898438 0.789062
vt 0.886719 0.789062
vt 0.886719 1.000000
vt 0.898438 1.000000
vt 0.898438 0.789062
vt 0.886719 0.789062
vt 0.597656 0.273438
vt 0.609375 0.273438
vt 0.609375 0.250000
vt 0.597656 0.250000
vt 0.597656 0.273438
vt 0.609375 0.273438
vt 0.609375 0.250000
vt 0.597656 0.250000
vt 0.667969 0.531250
vt 0.722656 0.531250
vt 0.722656 0.429688
vt 0.667969 0.429688
vt 0.722656 0.531250
vt 0.777344 0.531250
vt 0.777344 0.429688
vt 0.722656 0.429688
vt 0.722656 0.531250
vt 0.777344 0.531250
vt 0.777344 0.429688
vt 0.722656 0.429688
vt 0.722656 0.531250
vt 0.777344 0.531250
vt 0.777344 0.429688
vt 0.722656 0.429688
vt 0.613281 0.531250
vt 0.667969 0.531250
vt 0.667969 0.421875
vt 0.613281 0.421875
vt 0.558594 0.531250
vt 0.613281 0.531250
vt 0.613281 0.421875
vt 0.558594 0.421875
vt 0.558594 0.531250
vt 0.613281 0.531250
vt 0.613281 0.421875
vt 0.558594 0.421875
vt 0.558594 0.531250
vt 0.613281 0.531250
vt 0.613281 0.421875
vt 0.558594 0.421875
vt 0.710938 0.273438
vt 0.773438 0.273438
vt 0.773438 0.257812
vt 0.710938 0.257812
vt 0.710938 0.273438
vt 0.773438 0.273438
vt 0.773438 0.257812
vt 0.710938 0.257812
vt 0.710938 0.273438
vt 0.773438 0.273438
vt 0.773438 0.257812
vt 0.710938 0.257812
vt 0.710938 0.273438
vt 0.773438 0.273438
vt 0.773438 0.257812
vt 0.710938 0.257812
vt 0.175781 0.531250
vt 0.238281 0.531250
vt 0.238281 0.406250
vt 0.175781 0.406250
vt 0.164062 0.250000
vt 0.179688 0.250000
vt 0.179688 0.242188
vt 0.164062 0.242188
vt 0.164062 0.250000
vt 0.179688 0.250000
vt 0.179688 0.242188
vt 0.164062 0.242188
vt 0.164062 0.250000
vt 0.179688 0.250000
vt 0.179688 0.242188
vt 0.164062 0.242188
vt 0.164062 0.250000
vt 0.179688 0.250000
vt 0.179688 0.242188
vt 0.164062 0.242188
vt 0.746094 0.351562
vt 0.761719 0.351562
vt 0.761719 0.320312
vt 0.746094 0.320312
vt 0.367188 1.000000
vt 0.453125 1.000000
vt 0.453125 0.625000
vt 0.367188 0.625000
vt 0.367188 1.000000
vt 0.453125 1.000000
vt 0.453125 0.625000
vt 0.367188 0.625000
vt 0.453125 1.000000
vt 0.507812 1.000000
vt 0.507812 0.625000
vt 0.453125 0.625000
vt 0.453125 1.000000
vt 0.507812 1.000000
vt 0.507812 0.625000
vt 0.453125 0.625000
vt 0.472656 0.531250
vt 0.558594 0.531250
vt 0.558594 0.421875
vt 0.472656 0.421875
vt 0.507812 1.000000
vt 0.562500 1.000000
vt 0.562500 0.625000
vt 0.507812 0.625000
vt 0.507812 1.000000
vt 0.562500 1.000000
vt 0.562500 0.625000
vt 0.507812 0.625000
vt 0.367188 1.000000
vt 0.453125 1.000000
vt 0.453125 0.625000
vt 0.367188 0.625000
vt 0.367188 1.000000
vt 0.453125 1.000000
vt 0.453125 0.625000
vt 0.367188 0.625000
vt 0.058594 0.531250
vt 0.113281 0.531250
vt 0.113281 0.359375
vt 0.058594 0.359375
vt 0.218750 0.273438
vt 0.308594 0.273438
vt 0.308594 0.250000
vt 0.218750 0.250000
vt 0.218750 0.273438
vt 0.308594 0.273438
vt 0.308594 0.250000
vt 0.218750 0.250000
vt 0.457031 0.273438
vt 0.515625 0.273438
vt 0.515625 0.250000
vt 0.457031 0.250000
vt 0.457031 0.273438
vt 0.515625 0.273438
vt 0.515625 0.250000
vt 0.457031 0.250000
vt 0.292969 0.531250
vt 0.382812 0.531250
vt 0.382812 0.414062
vt 0.292969 0.414062
vt 0.292969 0.531250
vt 0.382812 0.531250
vt 0.382812 0.414062
vt 0.292969 0.414062
vt 0.515625 0.273438
vt 0.574219 0.273438
vt 0.574219 0.250000
vt 0.515625 0.250000
vt 0.515625 0.273438
vt 0.574219 0.273438
vt 0.574219 0.250000
vt 0.515625 0.250000
vt 0.308594 0.273438
vt 0.398438 0.273438
vt 0.398438 0.250000
vt 0.308594 0.250000
vt 0.308594 0.273438
vt 0.398438 0.273438
vt 0.398438 0.250000
vt 0.308594 0.250000
vt 0.906250 1.000000
vt 0.964844 1.000000
vt 0.964844 0.820312
vt 0.906250 0.820312
vt 0.906250 1.000000
vt 0.964844 1.000000
vt 0.964844 0.820312
vt 0.906250 0.820312
vt 0.378906 0.351562
vt 0.468750 0.351562
vt 0.468750 0.320312
vt 0.378906 0.320312
vt 0.378906 0.351562
vt 0.468750 0.351562
vt 0.468750 0.320312
vt 0.378906 0.320312
vt 0.558594 0.351562
vt 0.617188 0.351562
vt 0.617188 0.320312
vt 0.558594 0.320312
vt 0.558594 0.351562
vt 0.617188 0.351562
vt 0.617188 0.320312
vt 0.558594 0.320312
vt 0.382812 0.531250
vt 0.472656 0.531250
vt 0.472656 0.414062
vt 0.382812 0.414062
vt 0.382812 0.531250
vt 0.472656 0.531250
vt 0.472656 0.414062
vt 0.382812 0.414062
vt 0.617188 0.351562
vt 0.675781 0.351562
vt 0.675781 0.320312
vt 0.617188 0.320312
vt 0.617188 0.351562
vt 0.675781 0.351562
vt 0.675781 0.320312
vt 0.617188 0.320312
vt 0.468750 0.351562
vt 0.558594 0.351562
vt 0.558594 0.320312
vt 0.468750 0.320312
vt 0.468750 0.351562
vt 0.558594 0.351562
vt 0.558594 0.320312
vt 0.468750 0.320312
vt 0.000000 0.531250
vt 0.058594 0.531250
vt 0.058594 0.351562
vt 0.000000 0.351562
vt 0.000000 0.531250
vt 0.058594 0.531250
vt 0.058594 0.351562
vt 0.000000 0.351562
vt 0.218750 0.273438
vt 0.308594 0.273438
vt 0.308594 0.250000
vt 0.218750 0.250000
vt 0.218750 0.273438
vt 0.308594 0.273438
vt 0.308594 0.250000
vt 0.218750 0.250000
vt 0.457031 0.273438
vt 0.515625 0.273438
vt 0.515625 0.250000
vt 0.457031 0.250000
vt 0.457031 0.273438
vt 0.515625 0.273438
vt 0.515625 0.250000
vt 0.457031 0.250000
vt 0.292969 0.531250
vt 0.382812 0.531250
vt 0.382812 0.414062
vt 0.292969 0.414062
vt 0.292969 0.531250
vt 0.382812 0.531250
vt 0.382812 0.414062
vt 0.292969 0.414062
vt 0.515625 0.273438
vt 0.574219 0.273438
vt 0.574219 0.250000
vt 0.515625 0.250000
vt 0.515625 0.273438
vt 0.574219 0.273438
vt 0.574219 0.250000
vt 0.515625 0.250000
vt 0.308594 0.273438
vt 0.398438 0.273438
vt 0.398438 0.250000
vt 0.308594 0.250000
vt 0.308594 0.273438
vt 0.398438 0.273438
vt 0.398438 0.250000
vt 0.308594 0.250000
vt 0.906250 1.000000
vt 0.964844 1.000000
vt 0.964844 0.820312
vt 0.906250 0.820312
vt 0.906250 1.000000
vt 0.964844 1.000000
vt 0.964844 0.820312
vt 0.906250 0.820312
vn 0 0 -1
vn 0 0 1
vn -1 0 0
vn 1 0 0
vn 0 1 0
vn 0 -1 0
usemtl centrifuge
o Hull
f 1/1/1 4/4/1 3/3/1 2/2/1
f 5/5/2 8/8/2 7/7/2 6/6/2
f 9/9/3 12/12/3 11/11/3 10/10/3
f 13/13/4 16/16/4 15/15/4 14/14/4
f 17/17/5 20/20/5 19/19/5 18/18/5
f 21/21/1 24/24/1 23/23/1 22/22/1
f 25/25/2 28/28/2 27/27/2 26/26/2
f 29/29/3 32/32/3 31/31/3 30/30/3
f 33/33/4 36/36/4 35/35/4 34/34/4
f 37/37/5 40/40/5 39/39/5 38/38/5
f 41/41/1 44/44/1 43/43/1 42/42/1
f 45/45/2 48/48/2 47/47/2 46/46/2
f 49/49/3 52/52/3 51/51/3 50/50/3
f 53/53/4 56/56/4 55/55/4 54/54/4
f 1413/57/5 1414/60/5 1415/59/5 1416/58/5
f 61/61/6 64/64/6 63/63/6 62/62/6
f 65/65/1 68/68/1 67/67/1 66/66/1
f 69/69/2 72/72/2 71/71/2 70/70/2
f 73/73/3 76/76/3 75/75/3 74/74/3
f 77/77/4 80/80/4 79/79/4 78/78/4
f 1417/81/5 1418/84/5 1419/83/5 1420/82/5
f 85/85/6 88/88/6 87/87/6 86/86/6
f 89/89/1 92/92/1 91/91/1 90/90/1
f 93/93/2 96/96/2 95/95/2 94/94/2
f 97/97/3 100/100/3 99/99/3 98/98/3
f 101/101/4 104/104/4 103/103/4 102/102/4
f 1421/105/5 1422/108/5 1423/107/5 1424/106/5
f 109/109/6 112/112/6 111/111/6 110/110/6
f 113/113/1 116/116/1 115/115/1 114/114/1
f 117/117/2 120/120/2 119/119/2 118/118/2
f 121/121/3 124/124/3 123/123/3 122/122/3
f 125/125/4 128/128/4 127/127/4 126/126/4
f 1425/129/5 1426/132/5 1427/131/5 1428/130/5
f 133/133/6 136/136/6 135/135/6 134/134/6
f 137/137/1 140/140/1 139/139/1 138/138/1
f 141/141/2 144/144/2 143/143/2 142/142/2
f 145/145/3 148/148/3 147/147/3 146/146/3
f 149/149/4 152/152/4 151/151/4 150/150/4
f 153/153/5 156/156/5 155/155/5 154/154/5
f 157/157/6 160/160/6 159/159/6 158/158/6
f 161/161/1 164/164/1 163/163/1 162/162/1
f 165/165/2 168/168/2 167/167/2 166/166/2
f 169/169/3 172/172/3 171/171/3 170/170/3
f 173/173/4 176/176/4 175/175/4 174/174/4
f 177/177/5 180/180/5 179/179/5 178/178/5
f 181/181/1 184/184/1 183/183/1 182/182/1
f 1429/185/2 1430/188/2 1431/187/2 1432/186/2
f 189/189/3 192/192/3 191/191/3 190/190/3
f 193/193/4 196/196/4 195/195/4 194/194/4
f 197/197/5 200/200/5 199/199/5 198/198/5
f 201/201/6 204/204/6 203/203/6 202/202/6
f 1433/205/1 1434/208/1 1435/207/1 1436/206/1
f 209/209/2 212/212/2 211/211/2 210/210/2
f 213/213/3 216/216/3 215/215/3 214/214/3
f 217/217/4 220/220/4 219/219/4 218/218/4
f 221/221/5 224/224/5 223/223/5 222/222/5
f 225/225/6 228/228/6 227/227/6 226/226/6
f 229/229/1 232/232/1 231/231/1 230/230/1
f 233/233/2 236/236/2 235/235/2 234/234/2
f 237/237/3 240/240/3 239/239/3 238/238/3
f 1437/241/4 1438/244/4 1439/243/4 1440/242/4
f 245/245/5 248/248/5 247/247/5 246/246/5
f 249/249/6 252/252/6 251/251/6 250/250/6
f 253/253/1 256/256/1 255/255/1 254/254/1
f 257/257/2 260/260/2 259/259/2 258/258/2
f 1441/261/3 1442/264/3 1443/263/3 1444/262/3
f 265/265/4 268/268/4 267/267/4 266/266/4
f 269/269/5 272/272/5 271/271/5 270/270/5
f 273/273/6 276/276/6 275/275/6 274/274/6
f 277/277/1 280/280/1 279/279/1 278/278/1
f 281/281/2 284/284/2 283/283/2 282/282/2
f 285/285/1 288/288/1 287/287/1 286/286/1
f 289/289/2 292/292/2 291/291/2 290/290/2
f 293/293/3 296/296/3 295/295/3 294/294/3
f 297/297/4 300/300/4 299/299/4 298/298/4
f 301/301/3 304/304/3 303/303/3 302/302/3
f 305/305/4 308/308/4 307/307/4 306/306/4
f 309/309/2 312/312/2 311/311/2 310/310/2
f 313/313/3 316/316/3 315/315/3 314/314/3
f 317/317/4 320/320/4 319/319/4 318/318/4
f 321/321/5 324/324/5 323/323/5 322/322/5
f 325/325/6 328/328/6 327/327/6 326/326/6
f 329/329/1 332/332/1 331/331/1 330/330/1
f 333/333/2 336/336/2 335/335/2 334/334/2
f 337/337/4 340/340/4 339/339/4 338/338/4
f 341/341/5 344/344/5 343/343/5 342/342/5
f 345/345/6 348/348/6 347/347/6 346/346/6
f 349/349/1 352/352/1 351/351/1 350/350/1
f 353/353/2 356/356/2 355/355/2 354/354/2
f 357/357/3 360/360/3 359/359/3 358/358/3
f 361/361/4 364/364/4 363/363/4 362/362/4
f 365/365/5 368/368/5 367/367/5 366/366/5
f 369/369/6 372/372/6 371/371/6 370/370/6
f 373/373/1 376/376/1 375/375/1 374/374/1
f 377/377/2 380/380/2 379/379/2 378/378/2
f 381/381/3 384/384/3 383/383/3 382/382/3
f 385/385/4 388/388/4 387/387/4 386/386/4
f 389/389/5 392/392/5 391/391/5 390/390/5
f 393/393/6 396/396/6 395/395/6 394/394/6
f 397/397/1 400/400/1 399/399/1 398/398/1
f 401/401/2 404/404/2 403/403/2 402/402/2
f 405/405/3 408/408/3 407/407/3 406/406/3
f 409/409/4 412/412/4 411/411/4 410/410/4
f 413/413/5 416/416/5 415/415/5 414/414/5
f 417/417/6 420/420/6 419/419/6 418/418/6
f 421/421/1 424/424/1 423/423/1 422/422/1
f 425/425/2 428/428/2 427/427/2 426/426/2
f 429/429/3 432/432/3 431/431/3 430/430/3
f 433/433/4 436/436/4 435/435/4 434/434/4
f 437/437/5 440/440/5 439/439/5 438/438/5
f 441/441/6 444/444/6 443/443/6 442/442/6
f 445/445/1 448/448/1 447/447/1 446/446/1
f 449/449/2 452/452/2 451/451/2 450/450/2
f 453/453/3 456/456/3 455/455/3 454/454/3
f 457/457/4 460/460/4 459/459/4 458/458/4
f 461/461/1 464/464/1 463/463/1 462/462/1
f 465/465/2 468/468/2 467/467/2 466/466/2
f 469/469/3 472/472/3 471/471/3 470/470/3
f 473/473/4 476/476/4 475/475/4 474/474/4
f 477/477/5 480/480/5 479/479/5 478/478/5
f 481/481/1 484/484/1 483/483/1 482/482/1
f 485/485/2 488/488/2 487/487/2 486/486/2
f 489/489/3 492/492/3 491/491/3 490/490/3
f 493/493/4 496/496/4 495/495/4 494/494/4
f 497/497/1 500/500/1 499/499/1 498/498/1
f 501/501/3 504/504/3 503/503/3 502/502/3
f 505/505/4 508/508/4 507/507/4 506/506/4
f 509/509/5 512/512/5 511/511/5 510/510/5
f 513/513/6 516/516/6 515/515/6 514/514/6
f 517/517/1 520/520/1 519/519/1 518/518/1
f 521/521/3 524/524/3 523/523/3 522/522/3
f 525/525/4 528/528/4 527/527/4 526/526/4
f 529/529/5 532/532/5 531/531/5 530/530/5
f 533/533/6 536/536/6 535/535/6 534/534/6
f 537/537/1 540/540/1 539/539/1 538/538/1
f 541/541/3 544/544/3 543/543/3 542/542/3
f 545/545/4 548/548/4 547/547/4 546/546/4
f 549/549/5 552/552/5 551/551/5 550/550/5
f 553/553/6 556/556/6 555/555/6 554/554/6
f 557/557/1 560/560/1 559/559/1 558/558/1
f 561/561/2 564/564/2 563/563/2 562/562/2
f 565/565/3 568/568/3 567/567/3 566/566/3
f 569/569/4 572/572/4 571/571/4 570/570/4
f 573/573/5 576/576/5 575/575/5 574/574/5
f 577/577/6 580/580/6 579/579/6 578/578/6
f 581/581/1 584/584/1 583/583/1 582/582/1
f 585/585/2 588/588/2 587/587/2 586/586/2
f 589/589/3 592/592/3 591/591/3 590/590/3
f 593/593/4 596/596/4 595/595/4 594/594/4
f 597/597/5 600/600/5 599/599/5 598/598/5
f 601/601/6 604/604/6 603/603/6 602/602/6
f 605/605/1 608/608/1 607/607/1 606/606/1
f 609/609/2 612/612/2 611/611/2 610/610/2
f 613/613/3 616/616/3 615/615/3 614/614/3
f 617/617/4 620/620/4 619/619/4 618/618/4
f 621/621/5 624/624/5 623/623/5 622/622/5
f 625/625/6 628/628/6 627/627/6 626/626/6
f 629/629/1 632/632/1 631/631/1 630/630/1
f 633/633/2 636/636/2 635/635/2 634/634/2
f 637/637/3 640/640/3 639/639/3 638/638/3
f 641/641/4 644/644/4 643/643/4 642/642/4
f 645/645/5 648/648/5 647/647/5 646/646/5
f 649/649/6 652/652/6 651/651/6 650/650/6
f 653/653/1 656/656/1 655/655/1 654/654/1
f 657/657/2 660/660/2 659/659/2 658/658/2
f 661/661/3 664/664/3 663/663/3 662/662/3
f 665/665/4 668/668/4 667/667/4 666/666/4
f 669/669/5 672/672/5 671/671/5 670/670/5
f 673/673/6 676/676/6 675/675/6 674/674/6
f 677/677/1 680/680/1 679/679/1 678/678/1
f 681/681/2 684/684/2 683/683/2 682/682/2
f 685/685/3 688/688/3 687/687/3 686/686/3
f 689/689/4 692/692/4 691/691/4 690/690/4
f 693/693/5 696/696/5 695/695/5 694/694/5
f 697/697/6 700/700/6 699/699/6 698/698/6
f 701/701/1 704/704/1 703/703/1 702/702/1
f 705/705/2 708/708/2 707/707/2 706/706/2
f 709/709/3 712/712/3 711/711/3 710/710/3
f 713/713/4 716/716/4 715/715/4 714/714/4
f 717/717/1 720/720/1 719/719/1 718/718/1
f 721/721/2 724/724/2 723/723/2 722/722/2
f 725/725/3 728/728/3 727/727/3 726/726/3
f 729/729/4 732/732/4 731/731/4 730/730/4
f 733/733/5 736/736/5 735/735/5 734/734/5
f 737/737/1 740/740/1 739/739/1 738/738/1
f 741/741/2 744/744/2 743/743/2 742/742/2
f 745/745/3 748/748/3 747/747/3 746/746/3
f 749/749/4 752/752/4 751/751/4 750/750/4
f 753/753/2 756/756/2 755/755/2 754/754/2
f 757/757/3 760/760/3 759/759/3 758/758/3
f 761/761/4 764/764/4 763/763/4 762/762/4
f 765/765/5 768/768/5 767/767/5 766/766/5
f 769/769/6 772/772/6 771/771/6 770/770/6
f 773/773/2 776/776/2 775/775/2 774/774/2
f 777/777/3 780/780/3 779/779/3 778/778/3
f 781/781/4 784/784/4 783/783/4 782/782/4
f 785/785/5 788/788/5 787/787/5 786/786/5
f 789/789/6 792/792/6 791/791/6 790/790/6
f 793/793/1 796/796/1 795/795/1 794/794/1
f 797/797/2 800/800/2 799/799/2 798/798/2
f 801/801/3 804/804/3 803/803/3 802/802/3
f 805/805/4 808/808/4 807/807/4 806/806/4
f 809/809/5 812/812/5 811/811/5 810/810/5
f 813/813/6 816/816/6 815/815/6 814/814/6
f 817/817/1 820/820/1 819/819/1 818/818/1
f 821/821/2 824/824/2 823/823/2 822/822/2
f 825/825/3 828/828/3 827/827/3 826/826/3
f 829/829/4 832/832/4 831/831/4 830/830/4
f 833/833/5 836/836/5 835/835/5 834/834/5
f 837/837/6 840/840/6 839/839/6 838/838/6
f 841/841/3 844/844/3 843/843/3 842/842/3
f 845/845/4 848/848/4 847/847/4 846/846/4
f 849/849/5 852/852/5 851/851/5 850/850/5
f 853/853/1 856/856/1 855/855/1 854/854/1
f 857/857/2 860/860/2 859/859/2 858/858/2
f 861/861/3 864/864/3 863/863/3 862/862/3
f 865/865/4 868/868/4 867/867/4 866/866/4
f 869/869/5 872/872/5 871/871/5 870/870/5
f 873/873/1 876/876/1 875/875/1 874/874/1
f 877/877/2 880/880/2 879/879/2 878/878/2
f 881/881/3 884/884/3 883/883/3 882/882/3
f 885/885/4 888/888/4 887/887/4 886/886/4
f 889/889/5 892/892/5 891/891/5 890/890/5
f 893/893/6 896/896/6 895/895/6 894/894/6
f 897/897/1 900/900/1 899/899/1 898/898/1
f 901/901/2 904/904/2 903/903/2 902/902/2
f 905/905/3 908/908/3 907/907/3 906/906/3
f 909/909/4 912/912/4 911/911/4 910/910/4
f 913/913/5 916/916/5 915/915/5 914/914/5
f 917/917/6 920/920/6 919/919/6 918/918/6
f 921/921/1 924/924/1 923/923/1 922/922/1
f 925/925/2 928/928/2 927/927/2 926/926/2
f 929/929/3 932/932/3 931/931/3 930/930/3
f 933/933/5 936/936/5 935/935/5 934/934/5
f 937/937/6 940/940/6 939/939/6 938/938/6
f 941/941/1 944/944/1 943/943/1 942/942/1
f 945/945/2 948/948/2 947/947/2 946/946/2
f 949/949/4 952/952/4 951/951/4 950/950/4
f 953/953/5 956/956/5 955/955/5 954/954/5
f 957/957/6 960/960/6 959/959/6 958/958/6
f 961/961/3 964/964/3 963/963/3 962/962/3
f 965/965/4 968/968/4 967/967/4 966/966/4
f 969/969/5 972/972/5 971/971/5 970/970/5
f 973/973/6 976/976/6 975/975/6 974/974/6
f 977/977/1 980/980/1 979/979/1 978/978/1
f 981/981/2 984/984/2 983/983/2 982/982/2
f 985/985/3 988/988/3 987/987/3 986/986/3
f 989/989/4 992/992/4 991/991/4 990/990/4
f 993/993/5 996/996/5 995/995/5 994/994/5
f 997/997/1 1000/1000/1 999/999/1 998/998/1
f 1001/1001/2 1004/1004/2 1003/1003/2 1002/1002/2
f 1005/1005/3 1008/1008/3 1007/1007/3 1006/1006/3
f 1009/1009/4 1012/1012/4 1011/1011/4 1010/1010/4
f 1013/1013/5 1016/1016/5 1015/1015/5 1014/1014/5
f 1017/1017/1 1020/1020/1 1019/1019/1 1018/1018/1
f 1021/1021/2 1024/1024/2 1023/1023/2 1022/1022/2
f 1025/1025/3 1028/1028/3 1027/1027/3 1026/1026/3
f 1029/1029/4 1032/1032/4 1031/1031/4 1030/1030/4
f 1033/1033/5 1036/1036/5 1035/1035/5 1034/1034/5
f 1037/1037/6 1040/1040/6 1039/1039/6 1038/1038/6
f 1041/1041/1 1044/1044/1 1043/1043/1 1042/1042/1
f 1045/1045/2 1048/1048/2 1047/1047/2 1046/1046/2
f 1049/1049/3 1052/1052/3 1051/1051/3 1050/1050/3
f 1053/1053/4 1056/1056/4 1055/1055/4 1054/1054/4
f 1057/1057/5 1060/1060/5 1059/1059/5 1058/1058/5
f 1061/1061/1 1064/1064/1 1063/1063/1 1062/1062/1
f 1065/1065/2 1068/1068/2 1067/1067/2 1066/1066/2
f 1069/1069/3 1072/1072/3 1071/1071/3 1070/1070/3
f 1073/1073/4 1076/1076/4 1075/1075/4 1074/1074/4
f 1077/1077/5 1080/1080/5 1079/1079/5 1078/1078/5
f 1081/1081/6 1084/1084/6 1083/1083/6 1082/1082/6
f 1085/1085/1 1088/1088/1 1087/1087/1 1086/1086/1
f 1089/1089/2 1092/1092/2 1091/1091/2 1090/1090/2
f 1093/1093/3 1096/1096/3 1095/1095/3 1094/1094/3
f 1097/1097/4 1100/1100/4 1099/1099/4 1098/1098/4
f 1101/1101/5 1104/1104/5 1103/1103/5 1102/1102/5
f 1105/1105/6 1108/1108/6 1107/1107/6 1106/1106/6
f 1109/1109/1 1112/1112/1 1111/1111/1 1110/1110/1
f 1113/1113/2 1116/1116/2 1115/1115/2 1114/1114/2
f 1117/1117/3 1120/1120/3 1119/1119/3 1118/1118/3
f 1121/1121/4 1124/1124/4 1123/1123/4 1122/1122/4
f 1125/1125/5 1128/1128/5 1127/1127/5 1126/1126/5
f 1129/1129/6 1132/1132/6 1131/1131/6 1130/1130/6
f 1133/1133/1 1136/1136/1 1135/1135/1 1134/1134/1
f 1137/1137/2 1140/1140/2 1139/1139/2 1138/1138/2
f 1141/1141/3 1144/1144/3 1143/1143/3 1142/1142/3
f 1145/1145/4 1148/1148/4 1147/1147/4 1146/1146/4
f 1149/1149/5 1152/1152/5 1151/1151/5 1150/1150/5
f 1153/1153/6 1156/1156/6 1155/1155/6 1154/1154/6
f 1157/1157/1 1160/1160/1 1159/1159/1 1158/1158/1
f 1161/1161/2 1164/1164/2 1163/1163/2 1162/1162/2
f 1165/1165/3 1168/1168/3 1167/1167/3 1166/1166/3
f 1169/1169/4 1172/1172/4 1171/1171/4 1170/1170/4
f 1173/1173/1 1176/1176/1 1175/1175/1 1174/1174/1
f 1177/1177/2 1180/1180/2 1179/1179/2 1178/1178/2
f 1181/1181/3 1184/1184/3 1183/1183/3 1182/1182/3
f 1185/1185/4 1188/1188/4 1187/1187/4 1186/1186/4
f 1189/1189/1 1192/1192/1 1191/1191/1 1190/1190/1
f 1193/1193/2 1196/1196/2 1195/1195/2 1194/1194/2
f 1197/1197/3 1200/1200/3 1199/1199/3 1198/1198/3
f 1201/1201/4 1204/1204/4 1203/1203/4 1202/1202/4
f 1205/1205/5 1208/1208/5 1207/1207/5 1206/1206/5
f 1209/1209/1 1212/1212/1 1211/1211/1 1210/1210/1
f 1213/1213/2 1216/1216/2 1215/1215/2 1214/1214/2
f 1217/1217/3 1220/1220/3 1219/1219/3 1218/1218/3
f 1221/1221/4 1224/1224/4 1223/1223/4 1222/1222/4
f 1225/1225/5 1228/1228/5 1227/1227/5 1226/1226/5
o Cylinder
f 1229/1229/1 1232/1232/1 1231/1231/1 1230/1230/1
f 1233/1233/2 1236/1236/2 1235/1235/2 1234/1234/2
f 1237/1237/3 1240/1240/3 1239/1239/3 1238/1238/3
f 1241/1241/4 1244/1244/4 1243/1243/4 1242/1242/4
f 1245/1245/5 1248/1248/5 1247/1247/5 1246/1246/5
f 1249/1249/1 1252/1252/1 1251/1251/1 1250/1250/1
f 1253/1253/2 1256/1256/2 1255/1255/2 1254/1254/2
f 1257/1257/3 1260/1260/3 1259/1259/3 1258/1258/3
f 1261/1261/4 1264/1264/4 1263/1263/4 1262/1262/4
f 1445/1265/5 1446/1268/5 1447/1267/5 1448/1266/5
f 1269/1269/1 1272/1272/1 1271/1271/1 1270/1270/1
f 1273/1273/2 1276/1276/2 1275/1275/2 1274/1274/2
f 1277/1277/3 1280/1280/3 1279/1279/3 1278/1278/3
f 1281/1281/4 1284/1284/4 1283/1283/4 1282/1282/4
f 1285/1285/5 1288/1288/5 1287/1287/5 1286/1286/5
f 1289/1289/6 1292/1292/6 1291/1291/6 1290/1290/6
f 1293/1293/1 1296/1296/1 1295/1295/1 1294/1294/1
f 1297/1297/2 1300/1300/2 1299/1299/2 1298/1298/2
f 1301/1301/3 1304/1304/3 1303/1303/3 1302/1302/3
f 1305/1305/4 1308/1308/4 1307/1307/4 1306/1306/4
f 1457/1309/5 1458/1312/5 1459/1311/5 1460/1310/5
f 1461/1313/6 1462/1316/6 1463/1315/6 1464/1314/6
f 1317/1317/1 1320/1320/1 1319/1319/1 1318/1318/1
f 1321/1321/2 1324/1324/2 1323/1323/2 1322/1322/2
f 1325/1325/3 1328/1328/3 1327/1327/3 1326/1326/3
f 1329/1329/4 1332/1332/4 1331/1331/4 1330/1330/4
f 1333/1333/5 1336/1336/5 1335/1335/5 1334/1334/5
f 1337/1337/6 1340/1340/6 1339/1339/6 1338/1338/6
f 1341/1341/1 1344/1344/1 1343/1343/1 1342/1342/1
f 1345/1345/2 1348/1348/2 1347/1347/2 1346/1346/2
f 1349/1349/3 1352/1352/3 1351/1351/3 1350/1350/3
f 1353/1353/4 1356/1356/4 1355/1355/4 1354/1354/4
f 1449/1357/5 1450/1360/5 1451/1359/5 1452/1358/5
f 1453/1361/6 1454/1364/6 1455/1363/6 1456/1362/6
f 1365/1365/1 1368/1368/1 1367/1367/1 1366/1366/1
f 1369/1369/2 1372/1372/2 1371/1371/2 1370/1370/2
f 1373/1373/3 1376/1376/3 1375/1375/3 1374/1374/3
f 1377/1377/4 1380/1380/4 1379/1379/4 1378/1378/4
f 1381/1381/5 1384/1384/5 1383/1383/5 1382/1382/5
f 1385/1385/6 1388/1388/6 1387/1387/6 1386/1386/6
f 1389/1389/1 1392/1392/1 1391/1391/1 1390/1390/1
f 1393/1393/2 1396/1396/2 1395/1395/2 1394/1394/2
f 1397/1397/3 1400/1400/3 1399/1399/3 1398/1398/3
f 1401/1401/4 1404/1404/4 1403/1403/4 1402/1402/4
f 1465/1405/5 1466/1408/5 1467/1407/5 1468/1406/5
f 1469/1409/6 1470/1412/6 1471/1411/6 1472/1410/6
