# chemical_reactor generated by machinegen.py
mtllib chemical_reactor.mtl
v 0.000000 0.187500 0.000000
v -3.000000 0.187500 0.000000
v -3.000000 0.000000 0.000000
v 0.000000 0.000000 0.000000
v -3.000000 0.187500 2.000000
v 0.000000 0.187500 2.000000
v 0.000000 0.000000 2.000000
v -3.000000 0.000000 2.000000
v -3.000000 0.187500 0.000000
v -3.000000 0.187500 2.000000
v -3.000000 0.000000 2.000000
v -3.000000 0.000000 0.000000
v 0.000000 0.187500 2.000000
v 0.000000 0.187500 0.000000
v 0.000000 0.000000 0.000000
v 0.000000 0.000000 2.000000
v -3.000000 0.187500 0.000000
v 0.000000 0.187500 0.000000
v 0.000000 0.187500 2.000000
v -3.000000 0.187500 2.000000
v -0.062500 0.812500 0.062500
v -2.937500 0.812500 0.062500
v -2.937500 0.187500 0.062500
v -0.062500 0.187500 0.062500
v -2.937500 0.812500 0.062500
v -2.937500 0.812500 1.000000
v -2.937500 0.187500 1.000000
v -2.937500 0.187500 0.062500
v -0.062500 0.812500 1.000000
v -0.062500 0.812500 0.062500
v -0.062500 0.187500 0.062500
v -0.062500 0.187500 1.000000
v -2.812500 0.812500 0.000000
v -3.000000 0.812500 0.000000
v -3.000000 0.187500 0.000000
v -2.812500 0.187500 0.000000
v -3.000000 0.812500 0.187500
v -2.812500 0.812500 0.187500
v -2.812500 0.187500 0.187500
v -3.000000 0.187500 0.187500
v -3.000000 0.812500 0.000000
v -3.000000 0.812500 0.187500
v -3.000000 0.187500 0.187500
v -3.000000 0.187500 0.000000
v -2.812500 0.812500 0.187500
v -2.812500 0.812500 0.000000
v -2.812500 0.187500 0.000000
v -2.812500 0.187500 0.187500
v -3.000000 0.812500 0.000000
v -2.812500 0.812500 0.000000
v -2.812500 0.812500 0.187500
v -3.000000 0.812500 0.187500
v -3.000000 0.187500 0.187500
v -2.812500 0.187500 0.187500
v -2.812500 0.187500 0.000000
v -3.000000 0.187500 0.000000
v -2.000000 0.812500 0.000000
v -2.187500 0.812500 0.000000
v -2.187500 0.187500 0.000000
v -2.000000 0.187500 0.000000
v -2.187500 0.812500 0.187500
v -2.000000 0.812500 0.187500
v -2.000000 0.187500 0.187500
v -2.187500 0.187500 0.187500
v -2.187500 0.812500 0.000000
v -2.187500 0.812500 0.187500
v -2.187500 0.187500 0.187500
v -2.187500 0.187500 0.000000
v -2.000000 0.812500 0.187500
v -2.000000 0.812500 0.000000
v -2.000000 0.187500 0.000000
v -2.000000 0.187500 0.187500
v -2.187500 0.812500 0.000000
v -2.000000 0.812500 0.000000
v -2.000000 0.812500 0.187500
v -2.187500 0.812500 0.187500
v -2.187500 0.187500 0.187500
v -2.000000 0.187500 0.187500
v -2.000000 0.187500 0.000000
v -2.187500 0.187500 0.000000
v -0.812500 0.812500 0.000000
v -1.000000 0.812500 0.000000
v -1.000000 0.187500 0.000000
v -0.812500 0.187500 0.000000
v -1.000000 0.812500 0.187500
v -0.812500 0.812500 0.187500
v -0.812500 0.187500 0.187500
v -1.000000 0.187500 0.187500
v -1.000000 0.812500 0.000000
v -1.000000 0.812500 0.187500
v -1.000000 0.187500 0.187500
v -1.000000 0.187500 0.000000
v -0.812500 0.812500 0.187500
v -0.812500 0.812500 0.000000
v -0.812500 0.187500 0.000000
v -0.812500 0.187500 0.187500
v -1.000000 0.812500 0.000000
v -0.812500 0.812500 0.000000
v -0.812500 0.812500 0.187500
v -1.000000 0.812500 0.187500
v -1.000000 0.187500 0.187500
v -0.812500 0.187500 0.187500
v -0.812500 0.187500 0.000000
v -1.000000 0.187500 0.000000
v 0.000000 0.812500 0.000000
v -0.187500 0.812500 0.000000
v -0.187500 0.187500 0.000000
v 0.000000 0.187500 0.000000
v -0.187500 0.812500 0.187500
v 0.000000 0.812500 0.187500
v 0.000000 0.187500 0.187500
v -0.187500 0.187500 0.187500
v -0.187500 0.812500 0.000000
v -0.187500 0.812500 0.187500
v -0.187500 0.187500 0.187500
v -0.187500 0.187500 0.000000
v 0.000000 0.812500 0.187500
v 0.000000 0.812500 0.000000
v 0.000000 0.187500 0.000000
v 0.000000 0.187500 0.187500
v -0.187500 0.812500 0.000000
v 0.000000 0.812500 0.000000
v 0.000000 0.812500 0.187500
v -0.187500 0.812500 0.187500
v -0.187500 0.187500 0.187500
v 0.000000 0.187500 0.187500
v 0.000000 0.187500 0.000000
v -0.187500 0.187500 0.000000
v -2.812500 0.812500 0.812500
v -3.000000 0.812500 0.812500
v -3.000000 0.187500 0.812500
v -2.812500 0.187500 0.812500
v -3.000000 0.812500 1.000000
v -2.812500 0.812500 1.000000
v -2.812500 0.187500 1.000000
v -3.000000 0.187500 1.000000
v -3.000000 0.812500 0.812500
v -3.000000 0.812500 1.000000
v -3.000000 0.187500 1.000000
v -3.000000 0.187500 0.812500
v -2.812500 0.812500 1.000000
v -2.812500 0.812500 0.812500
v -2.812500 0.187500 0.812500
v -2.812500 0.187500 1.000000
v -3.000000 0.812500 0.812500
v -2.812500 0.812500 0.812500
v -2.812500 0.812500 1.000000
v -3.000000 0.812500 1.000000
v -3.000000 0.187500 1.000000
v -2.812500 0.187500 1.000000
v -2.812500 0.187500 0.812500
v -3.000000 0.187500 0.812500
v 0.000000 0.812500 0.812500
v -0.187500 0.812500 0.812500
v -0.187500 0.187500 0.812500
v 0.000000 0.187500 0.812500
v -0.187500 0.812500 1.000000
v 0.000000 0.812500 1.000000
v 0.000000 0.187500 1.000000
v -0.187500 0.187500 1.000000
v -0.187500 0.812500 0.812500
v -0.187500 0.812500 1.000000
v -0.187500 0.187500 1.000000
v -0.187500 0.187500 0.812500
v 0.000000 0.812500 1.000000
v 0.000000 0.812500 0.812500
v 0.000000 0.187500 0.812500
v 0.000000 0.187500 1.000000
v -0.187500 0.812500 0.812500
v 0.000000 0.812500 0.812500
v 0.000000 0.812500 1.000000
v -0.187500 0.812500 1.000000
v -0.187500 0.187500 1.000000
v 0.000000 0.187500 1.000000
v 0.000000 0.187500 0.812500
v -0.187500 0.187500 0.812500
v 0.000000 0.937500 0.000000
v -3.000000 0.937500 0.000000
v -3.000000 0.812500 0.000000
v 0.000000 0.812500 0.000000
v -3.000000 0.937500 1.000000
v 0.000000 0.937500 1.000000
v 0.000000 0.812500 1.000000
v -3.000000 0.812500 1.000000
v -3.000000 0.937500 0.000000
v -3.000000 0.937500 1.000000
v -3.000000 0.812500 1.000000
v -3.000000 0.812500 0.000000
v 0.000000 0.937500 1.000000
v 0.000000 0.937500 0.000000
v 0.000000 0.812500 0.000000
v 0.000000 0.812500 1.000000
v -3.000000 0.937500 0.000000
v 0.000000 0.937500 0.000000
v 0.000000 0.937500 1.000000
v -3.000000 0.937500 1.000000
v -2.250000 0.687500 0.031250
v -2.750000 0.687500 0.031250
v -2.750000 0.312500 0.031250
v -2.250000 0.312500 0.031250
v -2.750000 0.687500 0.031250
v -2.750000 0.687500 0.062500
v -2.750000 0.312500 0.062500
v -2.750000 0.312500 0.031250
v -2.250000 0.687500 0.062500
v -2.250000 0.687500 0.031250
v -2.250000 0.312500 0.031250
v -2.250000 0.312500 0.062500
v -2.750000 0.687500 0.031250
v -2.250000 0.687500 0.031250
v -2.250000 0.687500 0.062500
v -2.750000 0.687500 0.062500
v -2.750000 0.312500 0.062500
v -2.250000 0.312500 0.062500
v -2.250000 0.312500 0.031250
v -2.750000 0.312500 0.031250
v -0.250000 0.687500 0.031250
v -0.750000 0.687500 0.031250
v -0.750000 0.312500 0.031250
v -0.250000 0.312500 0.031250
v -0.750000 0.687500 0.031250
v -0.750000 0.687500 0.062500
v -0.750000 0.312500 0.062500
v -0.750000 0.312500 0.031250
v -0.250000 0.687500 0.062500
v -0.250000 0.687500 0.031250
v -0.250000 0.312500 0.031250
v -0.250000 0.312500 0.062500
v -0.750000 0.687500 0.031250
v -0.250000 0.687500 0.031250
v -0.250000 0.687500 0.062500
v -0.750000 0.687500 0.062500
v -0.750000 0.312500 0.062500
v -0.250000 0.312500 0.062500
v -0.250000 0.312500 0.031250
v -0.750000 0.312500 0.031250
v -1.187500 0.687500 0.031250
v -1.812500 0.687500 0.031250
v -1.812500 0.312500 0.031250
v -1.187500 0.312500 0.031250
v -1.812500 0.687500 0.031250
v -1.812500 0.687500 0.062500
v -1.812500 0.312500 0.062500
v -1.812500 0.312500 0.031250
v -1.187500 0.687500 0.062500
v -1.187500 0.687500 0.031250
v -1.187500 0.312500 0.031250
v -1.187500 0.312500 0.062500
v -1.812500 0.687500 0.031250
v -1.187500 0.687500 0.031250
v -1.187500 0.687500 0.062500
v -1.812500 0.687500 0.062500
v -1.812500 0.312500 0.062500
v -1.187500 0.312500 0.062500
v -1.187500 0.312500 0.031250
v -1.812500 0.312500 0.031250
v -2.937500 0.687500 0.312500
v -3.000000 0.687500 0.312500
v -3.000000 0.312500 0.312500
v -2.937500 0.312500 0.312500
v -3.000000 0.687500 0.687500
v -2.937500 0.687500 0.687500
v -2.937500 0.312500 0.687500
v -3.000000 0.312500 0.687500
v -3.000000 0.687500 0.312500
v -3.000000 0.687500 0.687500
v -3.000000 0.312500 0.687500
v -3.000000 0.312500 0.312500
v -2.937500 0.687500 0.687500
v -2.937500 0.687500 0.312500
v -2.937500 0.312500 0.312500
v -2.937500 0.312500 0.687500
v -3.000000 0.687500 0.312500
v -2.937500 0.687500 0.312500
v -2.937500 0.687500 0.687500
v -3.000000 0.687500 0.687500
v -3.000000 0.312500 0.687500
v -2.937500 0.312500 0.687500
v -2.937500 0.312500 0.312500
v -3.000000 0.312500 0.312500
v 0.000000 0.687500 0.312500
v -0.062500 0.687500 0.312500
v -0.062500 0.312500 0.312500
v 0.000000 0.312500 0.312500
v -0.062500 0.687500 0.687500
v 0.000000 0.687500 0.687500
v 0.000000 0.312500 0.687500
v -0.062500 0.312500 0.687500
v -0.062500 0.687500 0.312500
v -0.062500 0.687500 0.687500
v -0.062500 0.312500 0.687500
v -0.062500 0.312500 0.312500
v 0.000000 0.687500 0.687500
v 0.000000 0.687500 0.312500
v 0.000000 0.312500 0.312500
v 0.000000 0.312500 0.687500
v -0.062500 0.687500 0.312500
v 0.000000 0.687500 0.312500
v 0.000000 0.687500 0.687500
v -0.062500 0.687500 0.687500
v -0.062500 0.312500 0.687500
v 0.000000 0.312500 0.687500
v 0.000000 0.312500 0.312500
v -0.062500 0.312500 0.312500
v -1.062500 1.312500 0.062500
v -1.937500 1.312500 0.062500
v -1.937500 0.937500 0.062500
v -1.062500 0.937500 0.062500
v -1.937500 1.312500 0.937500
v -1.062500 1.312500 0.937500
v -1.062500 0.937500 0.937500
v -1.937500 0.937500 0.937500
v -1.937500 1.312500 0.062500
v -1.937500 1.312500 0.937500
v -1.937500 0.937500 0.937500
v -1.937500 0.937500 0.062500
v -1.062500 1.312500 0.937500
v -1.062500 1.312500 0.062500
v -1.062500 0.937500 0.062500
v -1.062500 0.937500 0.937500
v -1.937500 1.312500 0.062500
v -1.062500 1.312500 0.062500
v -1.062500 1.312500 0.937500
v -1.937500 1.312500 0.937500
v -1.062500 1.625000 0.500000
v -1.937500 1.625000 0.500000
v -1.937500 1.312500 0.500000
v -1.062500 1.312500 0.500000
v -1.937500 1.625000 0.937500
v -1.062500 1.625000 0.937500
v -1.062500 1.312500 0.937500
v -1.937500 1.312500 0.937500
v -1.937500 1.625000 0.500000
v -1.937500 1.625000 0.937500
v -1.937500 1.312500 0.937500
v -1.937500 1.312500 0.500000
v -1.062500 1.625000 0.937500
v -1.062500 1.625000 0.500000
v -1.062500 1.312500 0.500000
v -1.062500 1.312500 0.937500
v -1.937500 1.625000 0.500000
v -1.062500 1.625000 0.500000
v -1.062500 1.625000 0.937500
v -1.937500 1.625000 0.937500
v -1.437500 1.687500 0.625000
v -1.562500 1.687500 0.625000
v -1.562500 1.625000 0.625000
v -1.437500 1.625000 0.625000
v -1.562500 1.687500 0.750000
v -1.437500 1.687500 0.750000
v -1.437500 1.625000 0.750000
v -1.562500 1.625000 0.750000
v -1.562500 1.687500 0.625000
v -1.562500 1.687500 0.750000
v -1.562500 1.625000 0.750000
v -1.562500 1.625000 0.625000
v -1.437500 1.687500 0.750000
v -1.437500 1.687500 0.625000
v -1.437500 1.625000 0.625000
v -1.437500 1.625000 0.750000
v -1.562500 1.687500 0.625000
v -1.437500 1.687500 0.625000
v -1.437500 1.687500 0.750000
v -1.562500 1.687500 0.750000
v -2.812500 1.875000 1.000000
v -3.000000 1.875000 1.000000
v -3.000000 0.187500 1.000000
v -2.812500 0.187500 1.000000
v -3.000000 1.875000 1.187500
v -2.812500 1.875000 1.187500
v -2.812500 0.187500 1.187500
v -3.000000 0.187500 1.187500
v -3.000000 1.875000 1.000000
v -3.000000 1.875000 1.187500
v -3.000000 0.187500 1.187500
v -3.000000 0.187500 1.000000
v -2.812500 1.875000 1.187500
v -2.812500 1.875000 1.000000
v -2.812500 0.187500 1.000000
v -2.812500 0.187500 1.187500
v -3.000000 1.875000 1.000000
v -2.812500 1.875000 1.000000
v -2.812500 1.875000 1.187500
v -3.000000 1.875000 1.187500
v -3.000000 0.187500 1.187500
v -2.812500 0.187500 1.187500
v -2.812500 0.187500 1.000000
v -3.000000 0.187500 1.000000
v -2.000000 1.875000 1.000000
v -2.187500 1.875000 1.000000
v -2.187500 0.187500 1.000000
v -2.000000 0.187500 1.000000
v -2.187500 1.875000 1.187500
v -2.000000 1.875000 1.187500
v -2.000000 0.187500 1.187500
v -2.187500 0.187500 1.187500
v -2.187500 1.875000 1.000000
v -2.187500 1.875000 1.187500
v -2.187500 0.187500 1.187500
v -2.187500 0.187500 1.000000
v -2.000000 1.875000 1.187500
v -2.000000 1.875000 1.000000
v -2.000000 0.187500 1.000000
v -2.000000 0.187500 1.187500
v -2.187500 1.875000 1.000000
v -2.000000 1.875000 1.000000
v -2.000000 1.875000 1.187500
v -2.187500 1.875000 1.187500
v -2.187500 0.187500 1.187500
v -2.000000 0.187500 1.187500
v -2.000000 0.187500 1.000000
v -2.187500 0.187500 1.000000
v -2.812500 1.875000 1.812500
v -3.000000 1.875000 1.812500
v -3.000000 0.187500 1.812500
v -2.812500 0.187500 1.812500
v -3.000000 1.875000 2.000000
v -2.812500 1.875000 2.000000
v -2.812500 0.187500 2.000000
v -3.000000 0.187500 2.000000
v -3.000000 1.875000 1.812500
v -3.000000 1.875000 2.000000
v -3.000000 0.187500 2.000000
v -3.000000 0.187500 1.812500
v -2.812500 1.875000 2.000000
v -2.812500 1.875000 1.812500
v -2.812500 0.187500 1.812500
v -2.812500 0.187500 2.000000
v -3.000000 1.875000 1.812500
v -2.812500 1.875000 1.812500
v -2.812500 1.875000 2.000000
v -3.000000 1.875000 2.000000
v -3.000000 0.187500 2.000000
v -2.812500 0.187500 2.000000
v -2.812500 0.187500 1.812500
v -3.000000 0.187500 1.812500
v -2.000000 1.875000 1.812500
v -2.187500 1.875000 1.812500
v -2.187500 0.187500 1.812500
v -2.000000 0.187500 1.812500
v -2.187500 1.875000 2.000000
v -2.000000 1.875000 2.000000
v -2.000000 0.187500 2.000000
v -2.187500 0.187500 2.000000
v -2.187500 1.875000 1.812500
v -2.187500 1.875000 2.000000
v -2.187500 0.187500 2.000000
v -2.187500 0.187500 1.812500
v -2.000000 1.875000 2.000000
v -2.000000 1.875000 1.812500
v -2.000000 0.187500 1.812500
v -2.000000 0.187500 2.000000
v -2.187500 1.875000 1.812500
v -2.000000 1.875000 1.812500
v -2.000000 1.875000 2.000000
v -2.187500 1.875000 2.000000
v -2.187500 0.187500 2.000000
v -2.000000 0.187500 2.000000
v -2.000000 0.187500 1.812500
v -2.187500 0.187500 1.812500
v -2.187500 0.312500 1.187500
v -2.812500 0.312500 1.187500
v -2.812500 0.187500 1.187500
v -2.187500 0.187500 1.187500
v -2.812500 0.312500 1.812500
v -2.187500 0.312500 1.812500
v -2.187500 0.187500 1.812500
v -2.812500 0.187500 1.812500
v -2.812500 0.312500 1.187500
v -2.812500 0.312500 1.812500
v -2.812500 0.187500 1.812500
v -2.812500 0.187500 1.187500
v -2.187500 0.312500 1.812500
v -2.187500 0.312500 1.187500
v -2.187500 0.187500 1.187500
v -2.187500 0.187500 1.812500
v -2.812500 0.312500 1.187500
v -2.187500 0.312500 1.187500
v -2.187500 0.312500 1.812500
v -2.812500 0.312500 1.812500
v -2.812500 0.312500 1.187500
v -3.000000 0.312500 1.187500
v -3.000000 0.187500 1.187500
v -2.812500 0.187500 1.187500
v -3.000000 0.312500 1.812500
v -2.812500 0.312500 1.812500
v -2.812500 0.187500 1.812500
v -3.000000 0.187500 1.812500
v -3.000000 0.312500 1.187500
v -3.000000 0.312500 1.812500
v -3.000000 0.187500 1.812500
v -3.000000 0.187500 1.187500
v -2.812500 0.312500 1.812500
v -2.812500 0.312500 1.187500
v -2.812500 0.187500 1.187500
v -2.812500 0.187500 1.812500
v -3.000000 0.312500 1.187500
v -2.812500 0.312500 1.187500
v -2.812500 0.312500 1.812500
v -3.000000 0.312500 1.812500
v -3.000000 0.187500 1.812500
v -2.812500 0.187500 1.812500
v -2.812500 0.187500 1.187500
v -3.000000 0.187500 1.187500
v -2.000000 1.875000 1.000000
v -3.000000 1.875000 1.000000
v -3.000000 1.750000 1.000000
v -2.000000 1.750000 1.000000
v -3.000000 1.875000 2.000000
v -2.000000 1.875000 2.000000
v -2.000000 1.750000 2.000000
v -3.000000 1.750000 2.000000
v -3.000000 1.875000 1.000000
v -3.000000 1.875000 2.000000
v -3.000000 1.750000 2.000000
v -3.000000 1.750000 1.000000
v -2.000000 1.875000 2.000000
v -2.000000 1.875000 1.000000
v -2.000000 1.750000 1.000000
v -2.000000 1.750000 2.000000
v -3.000000 1.875000 1.000000
v -2.000000 1.875000 1.000000
v -2.000000 1.875000 2.000000
v -3.000000 1.875000 2.000000
v -3.000000 1.750000 2.000000
v -2.000000 1.750000 2.000000
v -2.000000 1.750000 1.000000
v -3.000000 1.750000 1.000000
v -2.250000 1.937500 1.250000
v -2.750000 1.937500 1.250000
v -2.750000 1.875000 1.250000
v -2.250000 1.875000 1.250000
v -2.750000 1.937500 1.750000
v -2.250000 1.937500 1.750000
v -2.250000 1.875000 1.750000
v -2.750000 1.875000 1.750000
v -2.750000 1.937500 1.250000
v -2.750000 1.937500 1.750000
v -2.750000 1.875000 1.750000
v -2.750000 1.875000 1.250000
v -2.250000 1.937500 1.750000
v -2.250000 1.937500 1.250000
v -2.250000 1.875000 1.250000
v -2.250000 1.875000 1.750000
v -2.750000 1.937500 1.250000
v -2.250000 1.937500 1.250000
v -2.250000 1.937500 1.750000
v -2.750000 1.937500 1.750000
v -2.250000 1.750000 1.250000
v -2.750000 1.750000 1.250000
v -2.750000 0.312500 1.250000
v -2.250000 0.312500 1.250000
v -2.750000 1.750000 1.750000
v -2.250000 1.750000 1.750000
v -2.250000 0.312500 1.750000
v -2.750000 0.312500 1.750000
v -2.750000 1.750000 1.250000
v -2.750000 1.750000 1.750000
v -2.750000 0.312500 1.750000
v -2.750000 0.312500 1.250000
v -2.250000 1.750000 1.750000
v -2.250000 1.750000 1.250000
v -2.250000 0.312500 1.250000
v -2.250000 0.312500 1.750000
v -2.218750 0.750000 1.218750
v -2.781250 0.750000 1.218750
v -2.781250 0.625000 1.218750
v -2.218750 0.625000 1.218750
v -2.781250 0.750000 1.781250
v -2.218750 0.750000 1.781250
v -2.218750 0.625000 1.781250
v -2.781250 0.625000 1.781250
v -2.781250 0.750000 1.218750
v -2.781250 0.750000 1.781250
v -2.781250 0.625000 1.781250
v -2.781250 0.625000 1.218750
v -2.218750 0.750000 1.781250
v -2.218750 0.750000 1.218750
v -2.218750 0.625000 1.218750
v -2.218750 0.625000 1.781250
v -2.781250 0.750000 1.218750
v -2.218750 0.750000 1.218750
v -2.218750 0.750000 1.781250
v -2.781250 0.750000 1.781250
v -2.781250 0.625000 1.781250
v -2.218750 0.625000 1.781250
v -2.218750 0.625000 1.218750
v -2.781250 0.625000 1.218750
v -2.218750 1.437500 1.218750
v -2.781250 1.437500 1.218750
v -2.781250 1.312500 1.218750
v -2.218750 1.312500 1.218750
v -2.781250 1.437500 1.781250
v -2.218750 1.437500 1.781250
v -2.218750 1.312500 1.781250
v -2.781250 1.312500 1.781250
v -2.781250 1.437500 1.218750
v -2.781250 1.437500 1.781250
v -2.781250 1.312500 1.781250
v -2.781250 1.312500 1.218750
v -2.218750 1.437500 1.781250
v -2.218750 1.437500 1.218750
v -2.218750 1.312500 1.218750
v -2.218750 1.312500 1.781250
v -2.781250 1.437500 1.218750
v -2.218750 1.437500 1.218750
v -2.218750 1.437500 1.781250
v -2.781250 1.437500 1.781250
v -2.781250 1.312500 1.781250
v -2.218750 1.312500 1.781250
v -2.218750 1.312500 1.218750
v -2.781250 1.312500 1.218750
v -2.187500 1.750000 1.062500
v -2.812500 1.750000 1.062500
v -2.812500 0.312500 1.062500
v -2.187500 0.312500 1.062500
v -2.812500 1.750000 1.093750
v -2.187500 1.750000 1.093750
v -2.187500 0.312500 1.093750
v -2.812500 0.312500 1.093750
v -2.187500 1.750000 1.906250
v -2.812500 1.750000 1.906250
v -2.812500 0.312500 1.906250
v -2.187500 0.312500 1.906250
v -2.812500 1.750000 1.937500
v -2.187500 1.750000 1.937500
v -2.187500 0.312500 1.937500
v -2.812500 0.312500 1.937500
v -2.968750 1.750000 1.187500
v -2.968750 1.750000 1.812500
v -2.968750 0.312500 1.812500
v -2.968750 0.312500 1.187500
v -2.937500 1.750000 1.812500
v -2.937500 1.750000 1.187500
v -2.937500 0.312500 1.187500
v -2.937500 0.312500 1.812500
v -2.062500 1.750000 1.187500
v -2.062500 1.750000 1.812500
v -2.062500 0.312500 1.812500
v -2.062500 0.312500 1.187500
v -2.031250 1.750000 1.812500
v -2.031250 1.750000 1.187500
v -2.031250 0.312500 1.187500
v -2.031250 0.312500 1.812500
v -1.875000 1.562500 1.375000
v -2.250000 1.562500 1.375000
v -2.250000 1.375000 1.375000
v -1.875000 1.375000 1.375000
v -2.250000 1.562500 1.625000
v -1.875000 1.562500 1.625000
v -1.875000 1.375000 1.625000
v -2.250000 1.375000 1.625000
v -2.250000 1.562500 1.375000
v -1.875000 1.562500 1.375000
v -1.875000 1.562500 1.625000
v -2.250000 1.562500 1.625000
v -2.250000 1.375000 1.625000
v -1.875000 1.375000 1.625000
v -1.875000 1.375000 1.375000
v -2.250000 1.375000 1.375000
v -0.812500 1.875000 1.000000
v -1.000000 1.875000 1.000000
v -1.000000 0.187500 1.000000
v -0.812500 0.187500 1.000000
v -1.000000 1.875000 1.187500
v -0.812500 1.875000 1.187500
v -0.812500 0.187500 1.187500
v -1.000000 0.187500 1.187500
v -1.000000 1.875000 1.000000
v -1.000000 1.875000 1.187500
v -1.000000 0.187500 1.187500
v -1.000000 0.187500 1.000000
v -0.812500 1.875000 1.187500
v -0.812500 1.875000 1.000000
v -0.812500 0.187500 1.000000
v -0.812500 0.187500 1.187500
v -1.000000 1.875000 1.000000
v -0.812500 1.875000 1.000000
v -0.812500 1.875000 1.187500
v -1.000000 1.875000 1.187500
v -1.000000 0.187500 1.187500
v -0.812500 0.187500 1.187500
v -0.812500 0.187500 1.000000
v -1.000000 0.187500 1.000000
v 0.000000 1.875000 1.000000
v -0.187500 1.875000 1.000000
v -0.187500 0.187500 1.000000
v 0.000000 0.187500 1.000000
v -0.187500 1.875000 1.187500
v 0.000000 1.875000 1.187500
v 0.000000 0.187500 1.187500
v -0.187500 0.187500 1.187500
v -0.187500 1.875000 1.000000
v -0.187500 1.875000 1.187500
v -0.187500 0.187500 1.187500
v -0.187500 0.187500 1.000000
v 0.000000 1.875000 1.187500
v 0.000000 1.875000 1.000000
v 0.000000 0.187500 1.000000
v 0.000000 0.187500 1.187500
v -0.187500 1.875000 1.000000
v 0.000000 1.875000 1.000000
v 0.000000 1.875000 1.187500
v -0.187500 1.875000 1.187500
v -0.187500 0.187500 1.187500
v 0.000000 0.187500 1.187500
v 0.000000 0.187500 1.000000
v -0.187500 0.187500 1.000000
v -0.812500 1.875000 1.812500
v -1.000000 1.875000 1.812500
v -1.000000 0.187500 1.812500
v -0.812500 0.187500 1.812500
v -1.000000 1.875000 2.000000
v -0.812500 1.875000 2.000000
v -0.812500 0.187500 2.000000
v -1.000000 0.187500 2.000000
v -1.000000 1.875000 1.812500
v -1.000000 1.875000 2.000000
v -1.000000 0.187500 2.000000
v -1.000000 0.187500 1.812500
v -0.812500 1.875000 2.000000
v -0.812500 1.875000 1.812500
v -0.812500 0.187500 1.812500
v -0.812500 0.187500 2.000000
v -1.000000 1.875000 1.812500
v -0.812500 1.875000 1.812500
v -0.812500 1.875000 2.000000
v -1.000000 1.875000 2.000000
v -1.000000 0.187500 2.000000
v -0.812500 0.187500 2.000000
v -0.812500 0.187500 1.812500
v -1.000000 0.187500 1.812500
v 0.000000 1.875000 1.812500
v -0.187500 1.875000 1.812500
v -0.187500 0.187500 1.812500
v 0.000000 0.187500 1.812500
v -0.187500 1.875000 2.000000
v 0.000000 1.875000 2.000000
v 0.000000 0.187500 2.000000
v -0.187500 0.187500 2.000000
v -0.187500 1.875000 1.812500
v -0.187500 1.875000 2.000000
v -0.187500 0.187500 2.000000
v -0.187500 0.187500 1.812500
v 0.000000 1.875000 2.000000
v 0.000000 1.875000 1.812500
v 0.000000 0.187500 1.812500
v 0.000000 0.187500 2.000000
v -0.187500 1.875000 1.812500
v 0.000000 1.875000 1.812500
v 0.000000 1.875000 2.000000
v -0.187500 1.875000 2.000000
v -0.187500 0.187500 2.000000
v 0.000000 0.187500 2.000000
v 0.000000 0.187500 1.812500
v -0.187500 0.187500 1.812500
v -0.187500 0.312500 1.187500
v -0.812500 0.312500 1.187500
v -0.812500 0.187500 1.187500
v -0.187500 0.187500 1.187500
v -0.812500 0.312500 1.812500
v -0.187500 0.312500 1.812500
v -0.187500 0.187500 1.812500
v -0.812500 0.187500 1.812500
v -0.812500 0.312500 1.187500
v -0.812500 0.312500 1.812500
v -0.812500 0.187500 1.812500
v -0.812500 0.187500 1.187500
v -0.187500 0.312500 1.812500
v -0.187500 0.312500 1.187500
v -0.187500 0.187500 1.187500
v -0.187500 0.187500 1.812500
v -0.812500 0.312500 1.187500
v -0.187500 0.312500 1.187500
v -0.187500 0.312500 1.812500
v -0.812500 0.312500 1.812500
v 0.000000 0.312500 1.187500
v -0.187500 0.312500 1.187500
v -0.187500 0.187500 1.187500
v 0.000000 0.187500 1.187500
v -0.187500 0.312500 1.812500
v 0.000000 0.312500 1.812500
v 0.000000 0.187500 1.812500
v -0.187500 0.187500 1.812500
v -0.187500 0.312500 1.187500
v -0.187500 0.312500 1.812500
v -0.187500 0.187500 1.812500
v -0.187500 0.187500 1.187500
v 0.000000 0.312500 1.812500
v 0.000000 0.312500 1.187500
v 0.000000 0.187500 1.187500
v 0.000000 0.187500 1.812500
v -0.187500 0.312500 1.187500
v 0.000000 0.312500 1.187500
v 0.000000 0.312500 1.812500
v -0.187500 0.312500 1.812500
v -0.187500 0.187500 1.812500
v 0.000000 0.187500 1.812500
v 0.000000 0.187500 1.187500
v -0.187500 0.187500 1.187500
v 0.000000 1.875000 1.000000
v -1.000000 1.875000 1.000000
v -1.000000 1.750000 1.000000
v 0.000000 1.750000 1.000000
v -1.000000 1.875000 2.000000
v 0.000000 1.875000 2.000000
v 0.000000 1.750000 2.000000
v -1.000000 1.750000 2.000000
v -1.000000 1.875000 1.000000
v -1.000000 1.875000 2.000000
v -1.000000 1.750000 2.000000
v -1.000000 1.750000 1.000000
v 0.000000 1.875000 2.000000
v 0.000000 1.875000 1.000000
v 0.000000 1.750000 1.000000
v 0.000000 1.750000 2.000000
v -1.000000 1.875000 1.000000
v 0.000000 1.875000 1.000000
v 0.000000 1.875000 2.000000
v -1.000000 1.875000 2.000000
v -1.000000 1.750000 2.000000
v 0.000000 1.750000 2.000000
v 0.000000 1.750000 1.000000
v -1.000000 1.750000 1.000000
v -0.250000 1.937500 1.250000
v -0.750000 1.937500 1.250000
v -0.750000 1.875000 1.250000
v -0.250000 1.875000 1.250000
v -0.750000 1.937500 1.750000
v -0.250000 1.937500 1.750000
v -0.250000 1.875000 1.750000
v -0.750000 1.875000 1.750000
v -0.750000 1.937500 1.250000
v -0.750000 1.937500 1.750000
v -0.750000 1.875000 1.750000
v -0.750000 1.875000 1.250000
v -0.250000 1.937500 1.750000
v -0.250000 1.937500 1.250000
v -0.250000 1.875000 1.250000
v -0.250000 1.875000 1.750000
v -0.750000 1.937500 1.250000
v -0.250000 1.937500 1.250000
v -0.250000 1.937500 1.750000
v -0.750000 1.937500 1.750000
v -0.250000 1.750000 1.250000
v -0.750000 1.750000 1.250000
v -0.750000 0.312500 1.250000
v -0.250000 0.312500 1.250000
v -0.750000 1.750000 1.750000
v -0.250000 1.750000 1.750000
v -0.250000 0.312500 1.750000
v -0.750000 0.312500 1.750000
v -0.750000 1.750000 1.250000
v -0.750000 1.750000 1.750000
v -0.750000 0.312500 1.750000
v -0.750000 0.312500 1.250000
v -0.250000 1.750000 1.750000
v -0.250000 1.750000 1.250000
v -0.250000 0.312500 1.250000
v -0.250000 0.312500 1.750000
v -0.218750 0.750000 1.218750
v -0.781250 0.750000 1.218750
v -0.781250 0.625000 1.218750
v -0.218750 0.625000 1.218750
v -0.781250 0.750000 1.781250
v -0.218750 0.750000 1.781250
v -0.218750 0.625000 1.781250
v -0.781250 0.625000 1.781250
v -0.781250 0.750000 1.218750
v -0.781250 0.750000 1.781250
v -0.781250 0.625000 1.781250
v -0.781250 0.625000 1.218750
v -0.218750 0.750000 1.781250
v -0.218750 0.750000 1.218750
v -0.218750 0.625000 1.218750
v -0.218750 0.625000 1.781250
v -0.781250 0.750000 1.218750
v -0.218750 0.750000 1.218750
v -0.218750 0.750000 1.781250
v -0.781250 0.750000 1.781250
v -0.781250 0.625000 1.781250
v -0.218750 0.625000 1.781250
v -0.218750 0.625000 1.218750
v -0.781250 0.625000 1.218750
v -0.218750 1.437500 1.218750
v -0.781250 1.437500 1.218750
v -0.781250 1.312500 1.218750
v -0.218750 1.312500 1.218750
v -0.781250 1.437500 1.781250
v -0.218750 1.437500 1.781250
v -0.218750 1.312500 1.781250
v -0.781250 1.312500 1.781250
v -0.781250 1.437500 1.218750
v -0.781250 1.437500 1.781250
v -0.781250 1.312500 1.781250
v -0.781250 1.312500 1.218750
v -0.218750 1.437500 1.781250
v -0.218750 1.437500 1.218750
v -0.218750 1.312500 1.218750
v -0.218750 1.312500 1.781250
v -0.781250 1.437500 1.218750
v -0.218750 1.437500 1.218750
v -0.218750 1.437500 1.781250
v -0.781250 1.437500 1.781250
v -0.781250 1.312500 1.781250
v -0.218750 1.312500 1.781250
v -0.218750 1.312500 1.218750
v -0.781250 1.312500 1.218750
v -0.187500 1.750000 1.062500
v -0.812500 1.750000 1.062500
v -0.812500 0.312500 1.062500
v -0.187500 0.312500 1.062500
v -0.812500 1.750000 1.093750
v -0.187500 1.750000 1.093750
v -0.187500 0.312500 1.093750
v -0.812500 0.312500 1.093750
v -0.187500 1.750000 1.906250
v -0.812500 1.750000 1.906250
v -0.812500 0.312500 1.906250
v -0.187500 0.312500 1.906250
v -0.812500 1.750000 1.937500
v -0.187500 1.750000 1.937500
v -0.187500 0.312500 1.937500
v -0.812500 0.312500 1.937500
v -0.968750 1.750000 1.187500
v -0.968750 1.750000 1.812500
v -0.968750 0.312500 1.812500
v -0.968750 0.312500 1.187500
v -0.937500 1.750000 1.812500
v -0.937500 1.750000 1.187500
v -0.937500 0.312500 1.187500
v -0.937500 0.312500 1.812500
v -0.062500 1.750000 1.187500
v -0.062500 1.750000 1.812500
v -0.062500 0.312500 1.812500
v -0.062500 0.312500 1.187500
v -0.031250 1.750000 1.812500
v -0.031250 1.750000 1.187500
v -0.031250 0.312500 1.187500
v -0.031250 0.312500 1.812500
v -0.750000 1.562500 1.375000
v -1.125000 1.562500 1.375000
v -1.125000 1.375000 1.375000
v -0.750000 1.375000 1.375000
v -1.125000 1.562500 1.625000
v -0.750000 1.562500 1.625000
v -0.750000 1.375000 1.625000
v -1.125000 1.375000 1.625000
v -1.125000 1.562500 1.375000
v -0.750000 1.562500 1.375000
v -0.750000 1.562500 1.625000
v -1.125000 1.562500 1.625000
v -1.125000 1.375000 1.625000
v -0.750000 1.375000 1.625000
v -0.750000 1.375000 1.375000
v -1.125000 1.375000 1.375000
v -1.125000 1.812500 1.125000
v -1.875000 1.812500 1.125000
v -1.875000 0.187500 1.125000
v -1.125000 0.187500 1.125000
v -1.875000 1.812500 1.875000
v -1.125000 1.812500 1.875000
v -1.125000 0.187500 1.875000
v -1.875000 0.187500 1.875000
v -1.875000 1.812500 1.125000
v -1.875000 1.812500 1.875000
v -1.875000 0.187500 1.875000
v -1.875000 0.187500 1.125000
v -1.125000 1.812500 1.875000
v -1.125000 1.812500 1.125000
v -1.125000 0.187500 1.125000
v -1.125000 0.187500 1.875000
v -1.062500 0.625000 1.062500
v -1.937500 0.625000 1.062500
v -1.937500 0.437500 1.062500
v -1.062500 0.437500 1.062500
v -1.937500 0.625000 1.937500
v -1.062500 0.625000 1.937500
v -1.062500 0.437500 1.937500
v -1.937500 0.437500 1.937500
v -1.937500 0.625000 1.062500
v -1.937500 0.625000 1.937500
v -1.937500 0.437500 1.937500
v -1.937500 0.437500 1.062500
v -1.062500 0.625000 1.937500
v -1.062500 0.625000 1.062500
v -1.062500 0.437500 1.062500
v -1.062500 0.437500 1.937500
v -1.937500 0.625000 1.062500
v -1.062500 0.625000 1.062500
v -1.062500 0.625000 1.937500
v -1.937500 0.625000 1.937500
v -1.937500 0.437500 1.937500
v -1.062500 0.437500 1.937500
v -1.062500 0.437500 1.062500
v -1.937500 0.437500 1.062500
v -1.062500 1.000000 1.062500
v -1.937500 1.000000 1.062500
v -1.937500 0.812500 1.062500
v -1.062500 0.812500 1.062500
v -1.937500 1.000000 1.937500
v -1.062500 1.000000 1.937500
v -1.062500 0.812500 1.937500
v -1.937500 0.812500 1.937500
v -1.937500 1.000000 1.062500
v -1.937500 1.000000 1.937500
v -1.937500 0.812500 1.937500
v -1.937500 0.812500 1.062500
v -1.062500 1.000000 1.937500
v -1.062500 1.000000 1.062500
v -1.062500 0.812500 1.062500
v -1.062500 0.812500 1.937500
v -1.937500 1.000000 1.062500
v -1.062500 1.000000 1.062500
v -1.062500 1.000000 1.937500
v -1.937500 1.000000 1.937500
v -1.937500 0.812500 1.937500
v -1.062500 0.812500 1.937500
v -1.062500 0.812500 1.062500
v -1.937500 0.812500 1.062500
v -1.062500 1.375000 1.062500
v -1.937500 1.375000 1.062500
v -1.937500 1.187500 1.062500
v -1.062500 1.187500 1.062500
v -1.937500 1.375000 1.937500
v -1.062500 1.375000 1.937500
v -1.062500 1.187500 1.937500
v -1.937500 1.187500 1.937500
v -1.937500 1.375000 1.062500
v -1.937500 1.375000 1.937500
v -1.937500 1.187500 1.937500
v -1.937500 1.187500 1.062500
v -1.062500 1.375000 1.937500
v -1.062500 1.375000 1.062500
v -1.062500 1.187500 1.062500
v -1.062500 1.187500 1.937500
v -1.937500 1.375000 1.062500
v -1.062500 1.375000 1.062500
v -1.062500 1.375000 1.937500
v -1.937500 1.375000 1.937500
v -1.937500 1.187500 1.937500
v -1.062500 1.187500 1.937500
v -1.062500 1.187500 1.062500
v -1.937500 1.187500 1.062500
v -1.062500 1.937500 1.062500
v -1.937500 1.937500 1.062500
v -1.937500 1.812500 1.062500
v -1.062500 1.812500 1.062500
v -1.937500 1.937500 1.937500
v -1.062500 1.937500 1.937500
v -1.062500 1.812500 1.937500
v -1.937500 1.812500 1.937500
v -1.937500 1.937500 1.062500
v -1.937500 1.937500 1.937500
v -1.937500 1.812500 1.937500
v -1.937500 1.812500 1.062500
v -1.062500 1.937500 1.937500
v -1.062500 1.937500 1.062500
v -1.062500 1.812500 1.062500
v -1.062500 1.812500 1.937500
v -1.937500 1.937500 1.062500
v -1.062500 1.937500 1.062500
v -1.062500 1.937500 1.937500
v -1.937500 1.937500 1.937500
v -1.375000 2.000000 1.375000
v -1.625000 2.000000 1.375000
v -1.625000 1.937500 1.375000
v -1.375000 1.937500 1.375000
v -1.625000 2.000000 1.625000
v -1.375000 2.000000 1.625000
v -1.375000 1.937500 1.625000
v -1.625000 1.937500 1.625000
v -1.625000 2.000000 1.375000
v -1.625000 2.000000 1.625000
v -1.625000 1.937500 1.625000
v -1.625000 1.937500 1.375000
v -1.375000 2.000000 1.625000
v -1.375000 2.000000 1.375000
v -1.375000 1.937500 1.375000
v -1.375000 1.937500 1.625000
v -1.625000 2.000000 1.375000
v -1.375000 2.000000 1.375000
v -1.375000 2.000000 1.625000
v -1.625000 2.000000 1.625000
v -1.687500 1.750000 1.906250
v -1.312500 1.750000 1.906250
v -1.312500 1.437500 1.906250
v -1.687500 1.437500 1.906250
v -1.687500 1.750000 1.875000
v -1.687500 1.750000 1.906250
v -1.687500 1.437500 1.906250
v -1.687500 1.437500 1.875000
v -1.312500 1.750000 1.906250
v -1.312500 1.750000 1.875000
v -1.312500 1.437500 1.875000
v -1.312500 1.437500 1.906250
v -1.687500 1.750000 1.875000
v -1.312500 1.750000 1.875000
v -1.312500 1.750000 1.906250
v -1.687500 1.750000 1.906250
v -1.687500 1.437500 1.906250
v -1.312500 1.437500 1.906250
v -1.312500 1.437500 1.875000
v -1.687500 1.437500 1.875000
v -1.875000 0.375000 1.906250
v -1.125000 0.375000 1.906250
v -1.125000 0.187500 1.906250
v -1.875000 0.187500 1.906250
v -1.875000 0.375000 1.875000
v -1.875000 0.375000 1.906250
v -1.875000 0.187500 1.906250
v -1.875000 0.187500 1.875000
v -1.125000 0.375000 1.906250
v -1.125000 0.375000 1.875000
v -1.125000 0.187500 1.875000
v -1.125000 0.187500 1.906250
v -1.875000 0.375000 1.875000
v -1.125000 0.375000 1.875000
v -1.125000 0.375000 1.906250
v -1.875000 0.375000 1.906250
v -1.875000 0.187500 1.906250
v -1.125000 0.187500 1.906250
v -1.125000 0.187500 1.875000
v -1.875000 0.187500 1.875000
v -3.000000 1.875000 2.004000
v -3.000000 1.750000 2.004000
v -2.000000 1.750000 2.004000
v -2.000000 1.875000 2.004000
v -1.000000 1.875000 2.004000
v -1.000000 1.750000 2.004000
v 0.000000 1.750000 2.004000
v 0.000000 1.875000 2.004000
v -3.004000 1.875000 1.000000
v -3.004000 1.750000 1.000000
v -3.004000 1.750000 2.000000
v -3.004000 1.875000 2.000000
v 0.004000 1.875000 2.000000
v 0.004000 1.750000 2.000000
v 0.004000 1.750000 1.000000
v 0.004000 1.875000 1.000000
v -1.996000 1.875000 2.000000
v -1.996000 1.750000 2.000000
v -1.996000 1.750000 1.000000
v -1.996000 1.875000 1.000000
v -1.004000 1.875000 1.000000
v -1.004000 1.750000 1.000000
v -1.004000 1.750000 2.000000
v -1.004000 1.875000 2.000000
v -2.000000 1.875000 0.996000
v -2.000000 1.750000 0.996000
v -3.000000 1.750000 0.996000
v -3.000000 1.875000 0.996000
v 0.000000 1.875000 0.996000
v 0.000000 1.750000 0.996000
v -1.000000 1.750000 0.996000
v -1.000000 1.875000 0.996000
v -3.000000 1.879000 1.000000
v -3.000000 1.879000 1.187500
v -2.812500 1.879000 1.187500
v -2.812500 1.879000 1.000000
v -2.187500 1.879000 1.000000
v -2.187500 1.879000 1.187500
v -2.000000 1.879000 1.187500
v -2.000000 1.879000 1.000000
v -3.000000 1.879000 1.812500
v -3.000000 1.879000 2.000000
v -2.812500 1.879000 2.000000
v -2.812500 1.879000 1.812500
v -2.187500 1.879000 1.812500
v -2.187500 1.879000 2.000000
v -2.000000 1.879000 2.000000
v -2.000000 1.879000 1.812500
v -1.000000 1.879000 1.000000
v -1.000000 1.879000 1.187500
v -0.812500 1.879000 1.187500
v -0.812500 1.879000 1.000000
v -0.187500 1.879000 1.000000
v -0.187500 1.879000 1.187500
v 0.000000 1.879000 1.187500
v 0.000000 1.879000 1.000000
v -1.000000 1.879000 1.812500
v -1.000000 1.879000 2.000000
v -0.812500 1.879000 2.000000
v -0.812500 1.879000 1.812500
v -0.187500 1.879000 1.812500
v -0.187500 1.879000 2.000000
v 0.000000 1.879000 2.000000
v 0.000000 1.879000 1.812500
vt 0.343750 0.546875
vt 0.718750 0.546875
vt 0.718750 0.523438
vt 0.343750 0.523438
vt 0.343750 0.546875
vt 0.718750 0.546875
vt 0.718750 0.523438
vt 0.343750 0.523438
vt 0.718750 0.546875
vt 0.968750 0.546875
vt 0.968750 0.523438
vt 0.718750 0.523438
vt 0.718750 0.546875
vt 0.968750 0.546875
vt 0.968750 0.523438
vt 0.718750 0.523438
vt 0.000000 1.000000
vt 0.375000 1.000000
vt 0.375000 0.750000
vt 0.000000 0.750000
vt 0.000000 0.625000
vt 0.359375 0.625000
vt 0.359375 0.546875
vt 0.000000 0.546875
vt 0.703125 0.750000
vt 0.820312 0.750000
vt 0.820312 0.671875
vt 0.703125 0.671875
vt 0.703125 0.750000
vt 0.820312 0.750000
vt 0.820312 0.671875
vt 0.703125 0.671875
vt 0.960938 1.000000
vt 0.984375 1.000000
vt 0.984375 0.921875
vt 0.960938 0.921875
vt 0.960938 1.000000
vt 0.984375 1.000000
vt 0.984375 0.921875
vt 0.960938 0.921875
vt 0.960938 1.000000
vt 0.984375 1.000000
vt 0.984375 0.921875
vt 0.960938 0.921875
vt 0.960938 1.000000
vt 0.984375 1.000000
vt 0.984375 0.921875
vt 0.960938 0.921875
vt 0.968750 0.546875
vt 0.992188 0.546875
vt 0.992188 0.523438
vt 0.968750 0.523438
vt 0.968750 0.546875
vt 0.992188 0.546875
vt 0.992188 0.523438
vt 0.968750 0.523438
vt 0.960938 1.000000
vt 0.984375 1.000000
vt 0.984375 0.921875
vt 0.960938 0.921875
vt 0.960938 1.000000
vt 0.984375 1.000000
vt 0.984375 0.921875
vt 0.960938 0.921875
vt 0.960938 1.000000
vt 0.984375 1.000000
vt 0.984375 0.921875
vt 0.960938 0.921875
vt 0.960938 1.000000
vt 0.984375 1.000000
vt 0.984375 0.921875
vt 0.960938 0.921875
vt 0.968750 0.546875
vt 0.992188 0.546875
vt 0.992188 0.523438
vt 0.968750 0.523438
vt 0.968750 0.546875
vt 0.992188 0.546875
vt 0.992188 0.523438
vt 0.968750 0.523438
vt 0.960938 1.000000
vt 0.984375 1.000000
vt 0.984375 0.921875
vt 0.960938 0.921875
vt 0.960938 1.000000
vt 0.984375 1.000000
vt 0.984375 0.921875
vt 0.960938 0.921875
vt 0.960938 1.000000
vt 0.984375 1.000000
vt 0.984375 0.921875
vt 0.960938 0.921875
vt 0.960938 1.000000
vt 0.984375 1.000000
vt 0.984375 0.921875
vt 0.960938 0.921875
vt 0.968750 0.546875
vt 0.992188 0.546875
vt 0.992188 0.523438
vt 0.968750 0.523438
vt 0.968750 0.546875
vt 0.992188 0.546875
vt 0.992188 0.523438
vt 0.968750 0.523438
vt 0.960938 1.000000
vt 0.984375 1.000000
vt 0.984375 0.921875
vt 0.960938 0.921875
vt 0.960938 1.000000
vt 0.984375 1.000000
vt 0.984375 0.921875
vt 0.960938 0.921875
vt 0.960938 1.000000
vt 0.984375 1.000000
vt 0.984375 0.921875
vt 0.960938 0.921875
vt 0.960938 1.000000
vt 0.984375 1.000000
vt 0.984375 0.921875
vt 0.960938 0.921875
vt 0.968750 0.546875
vt 0.992188 0.546875
vt 0.992188 0.523438
vt 0.968750 0.523438
vt 0.968750 0.546875
vt 0.992188 0.546875
vt 0.992188 0.523438
vt 0.968750 0.523438
vt 0.960938 1.000000
vt 0.984375 1.000000
vt 0.984375 0.921875
vt 0.960938 0.921875
vt 0.960938 1.000000
vt 0.984375 1.000000
vt 0.984375 0.921875
vt 0.960938 0.921875
vt 0.960938 1.000000
vt 0.984375 1.000000
vt 0.984375 0.921875
vt 0.960938 0.921875
vt 0.960938 1.000000
vt 0.984375 1.000000
vt 0.984375 0.921875
vt 0.960938 0.921875
vt 0.968750 0.546875
vt 0.992188 0.546875
vt 0.992188 0.523438
vt 0.968750 0.523438
vt 0.968750 0.546875
vt 0.992188 0.546875
vt 0.992188 0.523438
vt 0.968750 0.523438
vt 0.960938 1.000000
vt 0.984375 1.000000
vt 0.984375 0.921875
vt 0.960938 0.921875
vt 0.960938 1.000000
vt 0.984375 1.000000
vt 0.984375 0.921875
vt 0.960938 0.921875
vt 0.960938 1.000000
vt 0.984375 1.000000
vt 0.984375 0.921875
vt 0.960938 0.921875
vt 0.960938 1.000000
vt 0.984375 1.000000
vt 0.984375 0.921875
vt 0.960938 0.921875
vt 0.968750 0.546875
vt 0.992188 0.546875
vt 0.992188 0.523438
vt 0.968750 0.523438
vt 0.968750 0.546875
vt 0.992188 0.546875
vt 0.992188 0.523438
vt 0.968750 0.523438
vt 0.273438 0.507812
vt 0.648438 0.507812
vt 0.648438 0.492188
vt 0.273438 0.492188
vt 0.273438 0.507812
vt 0.648438 0.507812
vt 0.648438 0.492188
vt 0.273438 0.492188
vt 0.648438 0.507812
vt 0.773438 0.507812
vt 0.773438 0.492188
vt 0.648438 0.492188
vt 0.648438 0.507812
vt 0.773438 0.507812
vt 0.773438 0.492188
vt 0.648438 0.492188
vt 0.000000 0.750000
vt 0.375000 0.750000
vt 0.375000 0.625000
vt 0.000000 0.625000
vt 0.828125 0.625000
vt 0.890625 0.625000
vt 0.890625 0.578125
vt 0.828125 0.578125
vt 0.984375 1.000000
vt 0.992188 1.000000
vt 0.992188 0.953125
vt 0.984375 0.953125
vt 0.984375 1.000000
vt 0.992188 1.000000
vt 0.992188 0.953125
vt 0.984375 0.953125
vt 0.445312 0.484375
vt 0.507812 0.484375
vt 0.507812 0.476562
vt 0.445312 0.476562
vt 0.445312 0.484375
vt 0.507812 0.484375
vt 0.507812 0.476562
vt 0.445312 0.476562
vt 0.828125 0.625000
vt 0.890625 0.625000
vt 0.890625 0.578125
vt 0.828125 0.578125
vt 0.984375 1.000000
vt 0.992188 1.000000
vt 0.992188 0.953125
vt 0.984375 0.953125
vt 0.984375 1.000000
vt 0.992188 1.000000
vt 0.992188 0.953125
vt 0.984375 0.953125
vt 0.445312 0.484375
vt 0.507812 0.484375
vt 0.507812 0.476562
vt 0.445312 0.476562
vt 0.445312 0.484375
vt 0.507812 0.484375
vt 0.507812 0.476562
vt 0.445312 0.476562
vt 0.750000 0.625000
vt 0.828125 0.625000
vt 0.828125 0.578125
vt 0.750000 0.578125
vt 0.992188 1.000000
vt 1.000000 1.000000
vt 1.000000 0.953125
vt 0.992188 0.953125
vt 0.992188 1.000000
vt 1.000000 1.000000
vt 1.000000 0.953125
vt 0.992188 0.953125
vt 0.367188 0.484375
vt 0.445312 0.484375
vt 0.445312 0.476562
vt 0.367188 0.476562
vt 0.367188 0.484375
vt 0.445312 0.484375
vt 0.445312 0.476562
vt 0.367188 0.476562
vt 0.992188 0.750000
vt 1.000000 0.750000
vt 1.000000 0.703125
vt 0.992188 0.703125
vt 0.992188 0.750000
vt 1.000000 0.750000
vt 1.000000 0.703125
vt 0.992188 0.703125
vt 0.890625 0.625000
vt 0.937500 0.625000
vt 0.937500 0.578125
vt 0.890625 0.578125
vt 0.890625 0.625000
vt 0.937500 0.625000
vt 0.937500 0.578125
vt 0.890625 0.578125
vt 0.992188 0.750000
vt 1.000000 0.750000
vt 1.000000 0.703125
vt 0.992188 0.703125
vt 0.992188 0.750000
vt 1.000000 0.750000
vt 1.000000 0.703125
vt 0.992188 0.703125
vt 0.992188 0.750000
vt 1.000000 0.750000
vt 1.000000 0.703125
vt 0.992188 0.703125
vt 0.992188 0.750000
vt 1.000000 0.750000
vt 1.000000 0.703125
vt 0.992188 0.703125
vt 0.890625 0.625000
vt 0.937500 0.625000
vt 0.937500 0.578125
vt 0.890625 0.578125
vt 0.890625 0.625000
vt 0.937500 0.625000
vt 0.937500 0.578125
vt 0.890625 0.578125
vt 0.992188 0.750000
vt 1.000000 0.750000
vt 1.000000 0.703125
vt 0.992188 0.703125
vt 0.992188 0.750000
vt 1.000000 0.750000
vt 1.000000 0.703125
vt 0.992188 0.703125
vt 0.531250 0.625000
vt 0.640625 0.625000
vt 0.640625 0.578125
vt 0.531250 0.578125
vt 0.640625 0.625000
vt 0.750000 0.625000
vt 0.750000 0.578125
vt 0.640625 0.578125
vt 0.640625 0.625000
vt 0.750000 0.625000
vt 0.750000 0.578125
vt 0.640625 0.578125
vt 0.640625 0.625000
vt 0.750000 0.625000
vt 0.750000 0.578125
vt 0.640625 0.578125
vt 0.375000 0.750000
vt 0.484375 0.750000
vt 0.484375 0.640625
vt 0.375000 0.640625
vt 0.000000 0.546875
vt 0.109375 0.546875
vt 0.109375 0.507812
vt 0.000000 0.507812
vt 0.109375 0.546875
vt 0.218750 0.546875
vt 0.218750 0.507812
vt 0.109375 0.507812
vt 0.937500 0.625000
vt 0.992188 0.625000
vt 0.992188 0.585938
vt 0.937500 0.585938
vt 0.937500 0.625000
vt 0.992188 0.625000
vt 0.992188 0.585938
vt 0.937500 0.585938
vt 0.421875 0.625000
vt 0.531250 0.625000
vt 0.531250 0.570312
vt 0.421875 0.570312
vt 0.648438 0.484375
vt 0.664062 0.484375
vt 0.664062 0.476562
vt 0.648438 0.476562
vt 0.648438 0.484375
vt 0.664062 0.484375
vt 0.664062 0.476562
vt 0.648438 0.476562
vt 0.648438 0.484375
vt 0.664062 0.484375
vt 0.664062 0.476562
vt 0.648438 0.476562
vt 0.648438 0.484375
vt 0.664062 0.484375
vt 0.664062 0.476562
vt 0.648438 0.476562
vt 0.257812 0.484375
vt 0.273438 0.484375
vt 0.273438 0.468750
vt 0.257812 0.468750
vt 0.375000 1.000000
vt 0.398438 1.000000
vt 0.398438 0.789062
vt 0.375000 0.789062
vt 0.375000 1.000000
vt 0.398438 1.000000
vt 0.398438 0.789062
vt 0.375000 0.789062
vt 0.375000 1.000000
vt 0.398438 1.000000
vt 0.398438 0.789062
vt 0.375000 0.789062
vt 0.375000 1.000000
vt 0.398438 1.000000
vt 0.398438 0.789062
vt 0.375000 0.789062
vt 0.250000 0.507812
vt 0.273438 0.507812
vt 0.273438 0.484375
vt 0.250000 0.484375
vt 0.250000 0.507812
vt 0.273438 0.507812
vt 0.273438 0.484375
vt 0.250000 0.484375
vt 0.375000 1.000000
vt 0.398438 1.000000
vt 0.398438 0.789062
vt 0.375000 0.789062
vt 0.375000 1.000000
vt 0.398438 1.000000
vt 0.398438 0.789062
vt 0.375000 0.789062
vt 0.375000 1.000000
vt 0.398438 1.000000
vt 0.398438 0.789062
vt 0.375000 0.789062
vt 0.375000 1.000000
vt 0.398438 1.000000
vt 0.398438 0.789062
vt 0.375000 0.789062
vt 0.250000 0.507812
vt 0.273438 0.507812
vt 0.273438 0.484375
vt 0.250000 0.484375
vt 0.250000 0.507812
vt 0.273438 0.507812
vt 0.273438 0.484375
vt 0.250000 0.484375
vt 0.375000 1.000000
vt 0.398438 1.000000
vt 0.398438 0.789062
vt 0.375000 0.789062
vt 0.375000 1.000000
vt 0.398438 1.000000
vt 0.398438 0.789062
vt 0.375000 0.789062
vt 0.375000 1.000000
vt 0.398438 1.000000
vt 0.398438 0.789062
vt 0.375000 0.789062
vt 0.375000 1.000000
vt 0.398438 1.000000
vt 0.398438 0.789062
vt 0.375000 0.789062
vt 0.250000 0.507812
vt 0.273438 0.507812
vt 0.273438 0.484375
vt 0.250000 0.484375
vt 0.250000 0.507812
vt 0.273438 0.507812
vt 0.273438 0.484375
vt 0.250000 0.484375
vt 0.375000 1.000000
vt 0.398438 1.000000
vt 0.398438 0.789062
vt 0.375000 0.789062
vt 0.375000 1.000000
vt 0.398438 1.000000
vt 0.398438 0.789062
vt 0.375000 0.789062
vt 0.375000 1.000000
vt 0.398438 1.000000
vt 0.398438 0.789062
vt 0.375000 0.789062
vt 0.375000 1.000000
vt 0.398438 1.000000
vt 0.398438 0.789062
vt 0.375000 0.789062
vt 0.250000 0.507812
vt 0.273438 0.507812
vt 0.273438 0.484375
vt 0.250000 0.484375
vt 0.250000 0.507812
vt 0.273438 0.507812
vt 0.273438 0.484375
vt 0.250000 0.484375
vt 0.898438 0.507812
vt 0.976562 0.507812
vt 0.976562 0.492188
vt 0.898438 0.492188
vt 0.898438 0.507812
vt 0.976562 0.507812
vt 0.976562 0.492188
vt 0.898438 0.492188
vt 0.898438 0.507812
vt 0.976562 0.507812
vt 0.976562 0.492188
vt 0.898438 0.492188
vt 0.898438 0.507812
vt 0.976562 0.507812
vt 0.976562 0.492188
vt 0.898438 0.492188
vt 0.820312 0.750000
vt 0.898438 0.750000
vt 0.898438 0.671875
vt 0.820312 0.671875
vt 0.976562 0.507812
vt 1.000000 0.507812
vt 1.000000 0.492188
vt 0.976562 0.492188
vt 0.976562 0.507812
vt 1.000000 0.507812
vt 1.000000 0.492188
vt 0.976562 0.492188
vt 0.109375 0.484375
vt 0.187500 0.484375
vt 0.187500 0.468750
vt 0.109375 0.468750
vt 0.109375 0.484375
vt 0.187500 0.484375
vt 0.187500 0.468750
vt 0.109375 0.468750
vt 0.898438 0.750000
vt 0.921875 0.750000
vt 0.921875 0.671875
vt 0.898438 0.671875
vt 0.898438 0.750000
vt 0.921875 0.750000
vt 0.921875 0.671875
vt 0.898438 0.671875
vt 0.773438 0.507812
vt 0.898438 0.507812
vt 0.898438 0.492188
vt 0.773438 0.492188
vt 0.773438 0.507812
vt 0.898438 0.507812
vt 0.898438 0.492188
vt 0.773438 0.492188
vt 0.773438 0.507812
vt 0.898438 0.507812
vt 0.898438 0.492188
vt 0.773438 0.492188
vt 0.773438 0.507812
vt 0.898438 0.507812
vt 0.898438 0.492188
vt 0.773438 0.492188
vt 0.710938 1.000000
vt 0.835938 1.000000
vt 0.835938 0.875000
vt 0.710938 0.875000
vt 0.835938 1.000000
vt 0.960938 1.000000
vt 0.960938 0.875000
vt 0.835938 0.875000
vt 0.507812 0.484375
vt 0.570312 0.484375
vt 0.570312 0.476562
vt 0.507812 0.476562
vt 0.507812 0.484375
vt 0.570312 0.484375
vt 0.570312 0.476562
vt 0.507812 0.476562
vt 0.507812 0.484375
vt 0.570312 0.484375
vt 0.570312 0.476562
vt 0.507812 0.476562
vt 0.507812 0.484375
vt 0.570312 0.484375
vt 0.570312 0.476562
vt 0.507812 0.476562
vt 0.359375 0.625000
vt 0.421875 0.625000
vt 0.421875 0.562500
vt 0.359375 0.562500
vt 0.648438 1.000000
vt 0.710938 1.000000
vt 0.710938 0.820312
vt 0.648438 0.820312
vt 0.648438 1.000000
vt 0.710938 1.000000
vt 0.710938 0.820312
vt 0.648438 0.820312
vt 0.648438 1.000000
vt 0.710938 1.000000
vt 0.710938 0.820312
vt 0.648438 0.820312
vt 0.648438 1.000000
vt 0.710938 1.000000
vt 0.710938 0.820312
vt 0.648438 0.820312
vt 0.187500 0.484375
vt 0.257812 0.484375
vt 0.257812 0.468750
vt 0.187500 0.468750
vt 0.187500 0.484375
vt 0.257812 0.484375
vt 0.257812 0.468750
vt 0.187500 0.468750
vt 0.187500 0.484375
vt 0.257812 0.484375
vt 0.257812 0.468750
vt 0.187500 0.468750
vt 0.187500 0.484375
vt 0.257812 0.484375
vt 0.257812 0.468750
vt 0.187500 0.468750
vt 0.921875 0.750000
vt 0.992188 0.750000
vt 0.992188 0.679688
vt 0.921875 0.679688
vt 0.921875 0.750000
vt 0.992188 0.750000
vt 0.992188 0.679688
vt 0.921875 0.679688
vt 0.187500 0.484375
vt 0.257812 0.484375
vt 0.257812 0.468750
vt 0.187500 0.468750
vt 0.187500 0.484375
vt 0.257812 0.484375
vt 0.257812 0.468750
vt 0.187500 0.468750
vt 0.187500 0.484375
vt 0.257812 0.484375
vt 0.257812 0.468750
vt 0.187500 0.468750
vt 0.187500 0.484375
vt 0.257812 0.484375
vt 0.257812 0.468750
vt 0.187500 0.468750
vt 0.921875 0.750000
vt 0.992188 0.750000
vt 0.992188 0.679688
vt 0.921875 0.679688
vt 0.921875 0.750000
vt 0.992188 0.750000
vt 0.992188 0.679688
vt 0.921875 0.679688
vt 0.492188 1.000000
vt 0.570312 1.000000
vt 0.570312 0.820312
vt 0.492188 0.820312
vt 0.492188 1.000000
vt 0.570312 1.000000
vt 0.570312 0.820312
vt 0.492188 0.820312
vt 0.492188 1.000000
vt 0.570312 1.000000
vt 0.570312 0.820312
vt 0.492188 0.820312
vt 0.492188 1.000000
vt 0.570312 1.000000
vt 0.570312 0.820312
vt 0.492188 0.820312
vt 0.570312 1.000000
vt 0.648438 1.000000
vt 0.648438 0.820312
vt 0.570312 0.820312
vt 0.570312 1.000000
vt 0.648438 1.000000
vt 0.648438 0.820312
vt 0.570312 0.820312
vt 0.570312 1.000000
vt 0.648438 1.000000
vt 0.648438 0.820312
vt 0.570312 0.820312
vt 0.570312 1.000000
vt 0.648438 1.000000
vt 0.648438 0.820312
vt 0.570312 0.820312
vt 0.203125 0.507812
vt 0.250000 0.507812
vt 0.250000 0.484375
vt 0.203125 0.484375
vt 0.203125 0.507812
vt 0.250000 0.507812
vt 0.250000 0.484375
vt 0.203125 0.484375
vt 0.265625 0.546875
vt 0.312500 0.546875
vt 0.312500 0.515625
vt 0.265625 0.515625
vt 0.265625 0.546875
vt 0.312500 0.546875
vt 0.312500 0.515625
vt 0.265625 0.515625
vt 0.375000 1.000000
vt 0.398438 1.000000
vt 0.398438 0.789062
vt 0.375000 0.789062
vt 0.375000 1.000000
vt 0.398438 1.000000
vt 0.398438 0.789062
vt 0.375000 0.789062
vt 0.375000 1.000000
vt 0.398438 1.000000
vt 0.398438 0.789062
vt 0.375000 0.789062
vt 0.375000 1.000000
vt 0.398438 1.000000
vt 0.398438 0.789062
vt 0.375000 0.789062
vt 0.250000 0.507812
vt 0.273438 0.507812
vt 0.273438 0.484375
vt 0.250000 0.484375
vt 0.250000 0.507812
vt 0.273438 0.507812
vt 0.273438 0.484375
vt 0.250000 0.484375
vt 0.375000 1.000000
vt 0.398438 1.000000
vt 0.398438 0.789062
vt 0.375000 0.789062
vt 0.375000 1.000000
vt 0.398438 1.000000
vt 0.398438 0.789062
vt 0.375000 0.789062
vt 0.375000 1.000000
vt 0.398438 1.000000
vt 0.398438 0.789062
vt 0.375000 0.789062
vt 0.375000 1.000000
vt 0.398438 1.000000
vt 0.398438 0.789062
vt 0.375000 0.789062
vt 0.250000 0.507812
vt 0.273438 0.507812
vt 0.273438 0.484375
vt 0.250000 0.484375
vt 0.250000 0.507812
vt 0.273438 0.507812
vt 0.273438 0.484375
vt 0.250000 0.484375
vt 0.375000 1.000000
vt 0.398438 1.000000
vt 0.398438 0.789062
vt 0.375000 0.789062
vt 0.375000 1.000000
vt 0.398438 1.000000
vt 0.398438 0.789062
vt 0.375000 0.789062
vt 0.375000 1.000000
vt 0.398438 1.000000
vt 0.398438 0.789062
vt 0.375000 0.789062
vt 0.375000 1.000000
vt 0.398438 1.000000
vt 0.398438 0.789062
vt 0.375000 0.789062
vt 0.250000 0.507812
vt 0.273438 0.507812
vt 0.273438 0.484375
vt 0.250000 0.484375
vt 0.250000 0.507812
vt 0.273438 0.507812
vt 0.273438 0.484375
vt 0.250000 0.484375
vt 0.375000 1.000000
vt 0.398438 1.000000
vt 0.398438 0.789062
vt 0.375000 0.789062
vt 0.375000 1.000000
vt 0.398438 1.000000
vt 0.398438 0.789062
vt 0.375000 0.789062
vt 0.375000 1.000000
vt 0.398438 1.000000
vt 0.398438 0.789062
vt 0.375000 0.789062
vt 0.375000 1.000000
vt 0.398438 1.000000
vt 0.398438 0.789062
vt 0.375000 0.789062
vt 0.250000 0.507812
vt 0.273438 0.507812
vt 0.273438 0.484375
vt 0.250000 0.484375
vt 0.250000 0.507812
vt 0.273438 0.507812
vt 0.273438 0.484375
vt 0.250000 0.484375
vt 0.898438 0.507812
vt 0.976562 0.507812
vt 0.976562 0.492188
vt 0.898438 0.492188
vt 0.898438 0.507812
vt 0.976562 0.507812
vt 0.976562 0.492188
vt 0.898438 0.492188
vt 0.898438 0.507812
vt 0.976562 0.507812
vt 0.976562 0.492188
vt 0.898438 0.492188
vt 0.898438 0.507812
vt 0.976562 0.507812
vt 0.976562 0.492188
vt 0.898438 0.492188
vt 0.820312 0.750000
vt 0.898438 0.750000
vt 0.898438 0.671875
vt 0.820312 0.671875
vt 0.976562 0.507812
vt 1.000000 0.507812
vt 1.000000 0.492188
vt 0.976562 0.492188
vt 0.976562 0.507812
vt 1.000000 0.507812
vt 1.000000 0.492188
vt 0.976562 0.492188
vt 0.109375 0.484375
vt 0.187500 0.484375
vt 0.187500 0.468750
vt 0.109375 0.468750
vt 0.109375 0.484375
vt 0.187500 0.484375
vt 0.187500 0.468750
vt 0.109375 0.468750
vt 0.898438 0.750000
vt 0.921875 0.750000
vt 0.921875 0.671875
vt 0.898438 0.671875
vt 0.898438 0.750000
vt 0.921875 0.750000
vt 0.921875 0.671875
vt 0.898438 0.671875
vt 0.773438 0.507812
vt 0.898438 0.507812
vt 0.898438 0.492188
vt 0.773438 0.492188
vt 0.773438 0.507812
vt 0.898438 0.507812
vt 0.898438 0.492188
vt 0.773438 0.492188
vt 0.773438 0.507812
vt 0.898438 0.507812
vt 0.898438 0.492188
vt 0.773438 0.492188
vt 0.773438 0.507812
vt 0.898438 0.507812
vt 0.898438 0.492188
vt 0.773438 0.492188
vt 0.710938 1.000000
vt 0.835938 1.000000
vt 0.835938 0.875000
vt 0.710938 0.875000
vt 0.835938 1.000000
vt 0.960938 1.000000
vt 0.960938 0.875000
vt 0.835938 0.875000
vt 0.507812 0.484375
vt 0.570312 0.484375
vt 0.570312 0.476562
vt 0.507812 0.476562
vt 0.507812 0.484375
vt 0.570312 0.484375
vt 0.570312 0.476562
vt 0.507812 0.476562
vt 0.507812 0.484375
vt 0.570312 0.484375
vt 0.570312 0.476562
vt 0.507812 0.476562
vt 0.507812 0.484375
vt 0.570312 0.484375
vt 0.570312 0.476562
vt 0.507812 0.476562
vt 0.359375 0.625000
vt 0.421875 0.625000
vt 0.421875 0.562500
vt 0.359375 0.562500
vt 0.648438 1.000000
vt 0.710938 1.000000
vt 0.710938 0.820312
vt 0.648438 0.820312
vt 0.648438 1.000000
vt 0.710938 1.000000
vt 0.710938 0.820312
vt 0.648438 0.820312
vt 0.648438 1.000000
vt 0.710938 1.000000
vt 0.710938 0.820312
vt 0.648438 0.820312
vt 0.648438 1.000000
vt 0.710938 1.000000
vt 0.710938 0.820312
vt 0.648438 0.820312
vt 0.187500 0.484375
vt 0.257812 0.484375
vt 0.257812 0.468750
vt 0.187500 0.468750
vt 0.187500 0.484375
vt 0.257812 0.484375
vt 0.257812 0.468750
vt 0.187500 0.468750
vt 0.187500 0.484375
vt 0.257812 0.484375
vt 0.257812 0.468750
vt 0.187500 0.468750
vt 0.187500 0.484375
vt 0.257812 0.484375
vt 0.257812 0.468750
vt 0.187500 0.468750
vt 0.921875 0.750000
vt 0.992188 0.750000
vt 0.992188 0.679688
vt 0.921875 0.679688
vt 0.921875 0.750000
vt 0.992188 0.750000
vt 0.992188 0.679688
vt 0.921875 0.679688
vt 0.187500 0.484375
vt 0.257812 0.484375
vt 0.257812 0.468750
vt 0.187500 0.468750
vt 0.187500 0.484375
vt 0.257812 0.484375
vt 0.257812 0.468750
vt 0.187500 0.468750
vt 0.187500 0.484375
vt 0.257812 0.484375
vt 0.257812 0.468750
vt 0.187500 0.468750
vt 0.187500 0.484375
vt 0.257812 0.484375
vt 0.257812 0.468750
vt 0.187500 0.468750
vt 0.921875 0.750000
vt 0.992188 0.750000
vt 0.992188 0.679688
vt 0.921875 0.679688
vt 0.921875 0.750000
vt 0.992188 0.750000
vt 0.992188 0.679688
vt 0.921875 0.679688
vt 0.492188 1.000000
vt 0.570312 1.000000
vt 0.570312 0.820312
vt 0.492188 0.820312
vt 0.492188 1.000000
vt 0.570312 1.000000
vt 0.570312 0.820312
vt 0.492188 0.820312
vt 0.492188 1.000000
vt 0.570312 1.000000
vt 0.570312 0.820312
vt 0.492188 0.820312
vt 0.492188 1.000000
vt 0.570312 1.000000
vt 0.570312 0.820312
vt 0.492188 0.820312
vt 0.570312 1.000000
vt 0.648438 1.000000
vt 0.648438 0.820312
vt 0.570312 0.820312
vt 0.570312 1.000000
vt 0.648438 1.000000
vt 0.648438 0.820312
vt 0.570312 0.820312
vt 0.570312 1.000000
vt 0.648438 1.000000
vt 0.648438 0.820312
vt 0.570312 0.820312
vt 0.570312 1.000000
vt 0.648438 1.000000
vt 0.648438 0.820312
vt 0.570312 0.820312
vt 0.203125 0.507812
vt 0.250000 0.507812
vt 0.250000 0.484375
vt 0.203125 0.484375
vt 0.203125 0.507812
vt 0.250000 0.507812
vt 0.250000 0.484375
vt 0.203125 0.484375
vt 0.265625 0.546875
vt 0.312500 0.546875
vt 0.312500 0.515625
vt 0.265625 0.515625
vt 0.265625 0.546875
vt 0.312500 0.546875
vt 0.312500 0.515625
vt 0.265625 0.515625
vt 0.398438 1.000000
vt 0.492188 1.000000
vt 0.492188 0.796875
vt 0.398438 0.796875
vt 0.398438 1.000000
vt 0.492188 1.000000
vt 0.492188 0.796875
vt 0.398438 0.796875
vt 0.398438 1.000000
vt 0.492188 1.000000
vt 0.492188 0.796875
vt 0.398438 0.796875
vt 0.398438 1.000000
vt 0.492188 1.000000
vt 0.492188 0.796875
vt 0.398438 0.796875
vt 0.000000 0.507812
vt 0.109375 0.507812
vt 0.109375 0.484375
vt 0.000000 0.484375
vt 0.000000 0.507812
vt 0.109375 0.507812
vt 0.109375 0.484375
vt 0.000000 0.484375
vt 0.000000 0.507812
vt 0.109375 0.507812
vt 0.109375 0.484375
vt 0.000000 0.484375
vt 0.000000 0.507812
vt 0.109375 0.507812
vt 0.109375 0.484375
vt 0.000000 0.484375
vt 0.484375 0.750000
vt 0.593750 0.750000
vt 0.593750 0.640625
vt 0.484375 0.640625
vt 0.484375 0.750000
vt 0.593750 0.750000
vt 0.593750 0.640625
vt 0.484375 0.640625
vt 0.000000 0.507812
vt 0.109375 0.507812
vt 0.109375 0.484375
vt 0.000000 0.484375
vt 0.000000 0.507812
vt 0.109375 0.507812
vt 0.109375 0.484375
vt 0.000000 0.484375
vt 0.000000 0.507812
vt 0.109375 0.507812
vt 0.109375 0.484375
vt 0.000000 0.484375
vt 0.000000 0.507812
vt 0.109375 0.507812
vt 0.109375 0.484375
vt 0.000000 0.484375
vt 0.484375 0.750000
vt 0.593750 0.750000
vt 0.593750 0.640625
vt 0.484375 0.640625
vt 0.484375 0.750000
vt 0.593750 0.750000
vt 0.593750 0.640625
vt 0.484375 0.640625
vt 0.000000 0.507812
vt 0.109375 0.507812
vt 0.109375 0.484375
vt 0.000000 0.484375
vt 0.000000 0.507812
vt 0.109375 0.507812
vt 0.109375 0.484375
vt 0.000000 0.484375
vt 0.000000 0.507812
vt 0.109375 0.507812
vt 0.109375 0.484375
vt 0.000000 0.484375
vt 0.000000 0.507812
vt 0.109375 0.507812
vt 0.109375 0.484375
vt 0.000000 0.484375
vt 0.484375 0.750000
vt 0.593750 0.750000
vt 0.593750 0.640625
vt 0.484375 0.640625
vt 0.484375 0.750000
vt 0.593750 0.750000
vt 0.593750 0.640625
vt 0.484375 0.640625
vt 0.000000 0.484375
vt 0.109375 0.484375
vt 0.109375 0.468750
vt 0.000000 0.468750
vt 0.000000 0.484375
vt 0.109375 0.484375
vt 0.109375 0.468750
vt 0.000000 0.468750
vt 0.000000 0.484375
vt 0.109375 0.484375
vt 0.109375 0.468750
vt 0.000000 0.468750
vt 0.000000 0.484375
vt 0.109375 0.484375
vt 0.109375 0.468750
vt 0.000000 0.468750
vt 0.593750 0.750000
vt 0.703125 0.750000
vt 0.703125 0.640625
vt 0.593750 0.640625
vt 0.617188 0.484375
vt 0.648438 0.484375
vt 0.648438 0.476562
vt 0.617188 0.476562
vt 0.617188 0.484375
vt 0.648438 0.484375
vt 0.648438 0.476562
vt 0.617188 0.476562
vt 0.617188 0.484375
vt 0.648438 0.484375
vt 0.648438 0.476562
vt 0.617188 0.476562
vt 0.617188 0.484375
vt 0.648438 0.484375
vt 0.648438 0.476562
vt 0.617188 0.476562
vt 0.312500 0.546875
vt 0.343750 0.546875
vt 0.343750 0.515625
vt 0.312500 0.515625
vt 0.218750 0.546875
vt 0.265625 0.546875
vt 0.265625 0.507812
vt 0.218750 0.507812
vt 0.992188 0.625000
vt 1.000000 0.625000
vt 1.000000 0.585938
vt 0.992188 0.585938
vt 0.992188 0.625000
vt 1.000000 0.625000
vt 1.000000 0.585938
vt 0.992188 0.585938
vt 0.570312 0.484375
vt 0.617188 0.484375
vt 0.617188 0.476562
vt 0.570312 0.476562
vt 0.570312 0.484375
vt 0.617188 0.484375
vt 0.617188 0.476562
vt 0.570312 0.476562
vt 0.109375 0.507812
vt 0.203125 0.507812
vt 0.203125 0.484375
vt 0.109375 0.484375
vt 0.992188 0.546875
vt 1.000000 0.546875
vt 1.000000 0.523438
vt 0.992188 0.523438
vt 0.992188 0.546875
vt 1.000000 0.546875
vt 1.000000 0.523438
vt 0.992188 0.523438
vt 0.273438 0.484375
vt 0.367188 0.484375
vt 0.367188 0.476562
vt 0.273438 0.476562
vt 0.273438 0.484375
vt 0.367188 0.484375
vt 0.367188 0.476562
vt 0.273438 0.476562
vn 0 0 -1
vn 0 0 1
vn -1 0 0
vn 1 0 0
vn 0 1 0
vn 0 -1 0
usemtl chemical_reactor
o Hull
f 1/1/1 4/4/1 3/3/1 2/2/1
f 5/5/2 8/8/2 7/7/2 6/6/2
f 9/9/3 12/12/3 11/11/3 10/10/3
f 13/13/4 16/16/4 15/15/4 14/14/4
f 17/17/5 20/20/5 19/19/5 18/18/5
f 21/21/1 24/24/1 23/23/1 22/22/1
f 25/25/3 28/28/3 27/27/3 26/26/3
f 29/29/4 32/32/4 31/31/4 30/30/4
f 33/33/1 36/36/1 35/35/1 34/34/1
f 37/37/2 40/40/2 39/39/2 38/38/2
f 41/41/3 44/44/3 43/43/3 42/42/3
f 45/45/4 48/48/4 47/47/4 46/46/4
f 49/49/5 52/52/5 51/51/5 50/50/5
f 53/53/6 56/56/6 55/55/6 54/54/6
f 57/57/1 60/60/1 59/59/1 58/58/1
f 61/61/2 64/64/2 63/63/2 62/62/2
f 65/65/3 68/68/3 67/67/3 66/66/3
f 69/69/4 72/72/4 71/71/4 70/70/4
f 73/73/5 76/76/5 75/75/5 74/74/5
f 77/77/6 80/80/6 79/79/6 78/78/6
f 81/81/1 84/84/1 83/83/1 82/82/1
f 85/85/2 88/88/2 87/87/2 86/86/2
f 89/89/3 92/92/3 91/91/3 90/90/3
f 93/93/4 96/96/4 95/95/4 94/94/4
f 97/97/5 100/100/5 99/99/5 98/98/5
f 101/101/6 104/104/6 103/103/6 102/102/6
f 105/105/1 108/108/1 107/107/1 106/106/1
f 109/109/2 112/112/2 111/111/2 110/110/2
f 113/113/3 116/116/3 115/115/3 114/114/3
f 117/117/4 120/120/4 119/119/4 118/118/4
f 121/121/5 124/124/5 123/123/5 122/122/5
f 125/125/6 128/128/6 127/127/6 126/126/6
f 129/129/1 132/132/1 131/131/1 130/130/1
f 133/133/2 136/136/2 135/135/2 134/134/2
f 137/137/3 140/140/3 139/139/3 138/138/3
f 141/141/4 144/144/4 143/143/4 142/142/4
f 145/145/5 148/148/5 147/147/5 146/146/5
f 149/149/6 152/152/6 151/151/6 150/150/6
f 153/153/1 156/156/1 155/155/1 154/154/1
f 157/157/2 160/160/2 159/159/2 158/158/2
f 161/161/3 164/164/3 163/163/3 162/162/3
f 165/165/4 168/168/4 167/167/4 166/166/4
f 169/169/5 172/172/5 171/171/5 170/170/5
f 173/173/6 176/176/6 175/175/6 174/174/6
f 177/177/1 180/180/1 179/179/1 178/178/1
f 181/181/2 184/184/2 183/183/2 182/182/2
f 185/185/3 188/188/3 187/187/3 186/186/3
f 189/189/4 192/192/4 191/191/4 190/190/4
f 193/193/5 196/196/5 195/195/5 194/194/5
f 197/197/1 200/200/1 199/199/1 198/198/1
f 201/201/3 204/204/3 203/203/3 202/202/3
f 205/205/4 208/208/4 207/207/4 206/206/4
f 209/209/5 212/212/5 211/211/5 210/210/5
f 213/213/6 216/216/6 215/215/6 214/214/6
f 217/217/1 220/220/1 219/219/1 218/218/1
f 221/221/3 224/224/3 223/223/3 222/222/3
f 225/225/4 228/228/4 227/227/4 226/226/4
f 229/229/5 232/232/5 231/231/5 230/230/5
f 233/233/6 236/236/6 235/235/6 234/234/6
f 237/237/1 240/240/1 239/239/1 238/238/1
f 241/241/3 244/244/3 243/243/3 242/242/3
f 245/245/4 248/248/4 247/247/4 246/246/4
f 249/249/5 252/252/5 251/251/5 250/250/5
f 253/253/6 256/256/6 255/255/6 254/254/6
f 257/257/1 260/260/1 259/259/1 258/258/1
f 261/261/2 264/264/2 263/263/2 262/262/2
f 265/265/3 268/268/3 267/267/3 266/266/3
f 269/269/4 272/272/4 271/271/4 270/270/4
f 273/273/5 276/276/5 275/275/5 274/274/5
f 277/277/6 280/280/6 279/279/6 278/278/6
f 281/281/1 284/284/1 283/283/1 282/282/1
f 285/285/2 288/288/2 287/287/2 286/286/2
f 289/289/3 292/292/3 291/291/3 290/290/3
f 293/293/4 296/296/4 295/295/4 294/294/4
f 297/297/5 300/300/5 299/299/5 298/298/5
f 301/301/6 304/304/6 303/303/6 302/302/6
f 305/305/1 308/308/1 307/307/1 306/306/1
f 309/309/2 312/312/2 311/311/2 310/310/2
f 313/313/3 316/316/3 315/315/3 314/314/3
f 317/317/4 320/320/4 319/319/4 318/318/4
f 321/321/5 324/324/5 323/323/5 322/322/5
f 325/325/1 328/328/1 327/327/1 326/326/1
f 329/329/2 332/332/2 331/331/2 330/330/2
f 333/333/3 336/336/3 335/335/3 334/334/3
f 337/337/4 340/340/4 339/339/4 338/338/4
f 341/341/5 344/344/5 343/343/5 342/342/5
f 345/345/1 348/348/1 347/347/1 346/346/1
f 349/349/2 352/352/2 351/351/2 350/350/2
f 353/353/3 356/356/3 355/355/3 354/354/3
f 357/357/4 360/360/4 359/359/4 358/358/4
f 361/361/5 364/364/5 363/363/5 362/362/5
f 365/365/1 368/368/1 367/367/1 366/366/1
f 369/369/2 372/372/2 371/371/2 370/370/2
f 373/373/3 376/376/3 375/375/3 374/374/3
f 377/377/4 380/380/4 379/379/4 378/378/4
f 1157/381/5 1158/384/5 1159/383/5 1160/382/5
f 385/385/6 388/388/6 387/387/6 386/386/6
f 389/389/1 392/392/1 391/391/1 390/390/1
f 393/393/2 396/396/2 395/395/2 394/394/2
f 397/397/3 400/400/3 399/399/3 398/398/3
f 401/401/4 404/404/4 403/403/4 402/402/4
f 1161/405/5 1162/408/5 1163/407/5 1164/406/5
f 409/409/6 412/412/6 411/411/6 410/410/6
f 413/413/1 416/416/1 415/415/1 414/414/1
f 417/417/2 420/420/2 419/419/2 418/418/2
f 421/421/3 424/424/3 423/423/3 422/422/3
f 425/425/4 428/428/4 427/427/4 426/426/4
f 1165/429/5 1166/432/5 1167/431/5 1168/430/5
f 433/433/6 436/436/6 435/435/6 434/434/6
f 437/437/1 440/440/1 439/439/1 438/438/1
f 441/441/2 444/444/2 443/443/2 442/442/2
f 445/445/3 448/448/3 447/447/3 446/446/3
f 449/449/4 452/452/4 451/451/4 450/450/4
f 1169/453/5 1170/456/5 1171/455/5 1172/454/5
f 457/457/6 460/460/6 459/459/6 458/458/6
f 461/461/1 464/464/1 463/463/1 462/462/1
f 465/465/2 468/468/2 467/467/2 466/466/2
f 469/469/3 472/472/3 471/471/3 470/470/3
f 473/473/4 476/476/4 475/475/4 474/474/4
f 477/477/5 480/480/5 479/479/5 478/478/5
f 481/481/1 484/484/1 483/483/1 482/482/1
f 485/485/2 488/488/2 487/487/2 486/486/2
f 489/489/3 492/492/3 491/491/3 490/490/3
f 493/493/4 496/496/4 495/495/4 494/494/4
f 497/497/5 500/500/5 499/499/5 498/498/5
f 501/501/6 504/504/6 503/503/6 502/502/6
f 1149/505/1 1150/508/1 1151/507/1 1152/506/1
f 1125/509/2 1126/512/2 1127/511/2 1128/510/2
f 1133/513/3 1134/516/3 1135/515/3 1136/514/3
f 1141/517/4 1142/520/4 1143/519/4 1144/518/4
f 521/521/5 524/524/5 523/523/5 522/522/5
f 525/525/6 528/528/6 527/527/6 526/526/6
f 529/529/1 532/532/1 531/531/1 530/530/1
f 533/533/2 536/536/2 535/535/2 534/534/2
f 537/537/3 540/540/3 539/539/3 538/538/3
f 541/541/4 544/544/4 543/543/4 542/542/4
f 545/545/5 548/548/5 547/547/5 546/546/5
f 549/549/1 552/552/1 551/551/1 550/550/1
f 553/553/2 556/556/2 555/555/2 554/554/2
f 557/557/3 560/560/3 559/559/3 558/558/3
f 561/561/4 564/564/4 563/563/4 562/562/4
f 565/565/1 568/568/1 567/567/1 566/566/1
f 569/569/2 572/572/2 571/571/2 570/570/2
f 573/573/3 576/576/3 575/575/3 574/574/3
f 577/577/4 580/580/4 579/579/4 578/578/4
f 581/581/5 584/584/5 583/583/5 582/582/5
f 585/585/6 588/588/6 587/587/6 586/586/6
f 589/589/1 592/592/1 591/591/1 590/590/1
f 593/593/2 596/596/2 595/595/2 594/594/2
f 597/597/3 600/600/3 599/599/3 598/598/3
f 601/601/4 604/604/4 603/603/4 602/602/4
f 605/605/5 608/608/5 607/607/5 606/606/5
f 609/609/6 612/612/6 611/611/6 610/610/6
f 613/613/1 616/616/1 615/615/1 614/614/1
f 617/617/2 620/620/2 619/619/2 618/618/2
f 621/621/1 624/624/1 623/623/1 622/622/1
f 625/625/2 628/628/2 627/627/2 626/626/2
f 629/629/3 632/632/3 631/631/3 630/630/3
f 633/633/4 636/636/4 635/635/4 634/634/4
f 637/637/3 640/640/3 639/639/3 638/638/3
f 641/641/4 644/644/4 643/643/4 642/642/4
f 645/645/1 648/648/1 647/647/1 646/646/1
f 649/649/2 652/652/2 651/651/2 650/650/2
f 653/653/5 656/656/5 655/655/5 654/654/5
f 657/657/6 660/660/6 659/659/6 658/658/6
f 661/661/1 664/664/1 663/663/1 662/662/1
f 665/665/2 668/668/2 667/667/2 666/666/2
f 669/669/3 672/672/3 671/671/3 670/670/3
f 673/673/4 676/676/4 675/675/4 674/674/4
f 1173/677/5 1174/680/5 1175/679/5 1176/678/5
f 681/681/6 684/684/6 683/683/6 682/682/6
f 685/685/1 688/688/1 687/687/1 686/686/1
f 689/689/2 692/692/2 691/691/2 690/690/2
f 693/693/3 696/696/3 695/695/3 694/694/3
f 697/697/4 700/700/4 699/699/4 698/698/4
f 1177/701/5 1178/704/5 1179/703/5 1180/702/5
f 705/705/6 708/708/6 707/707/6 706/706/6
f 709/709/1 712/712/1 711/711/1 710/710/1
f 713/713/2 716/716/2 715/715/2 714/714/2
f 717/717/3 720/720/3 719/719/3 718/718/3
f 721/721/4 724/724/4 723/723/4 722/722/4
f 1181/725/5 1182/728/5 1183/727/5 1184/726/5
f 729/729/6 732/732/6 731/731/6 730/730/6
f 733/733/1 736/736/1 735/735/1 734/734/1
f 737/737/2 740/740/2 739/739/2 738/738/2
f 741/741/3 744/744/3 743/743/3 742/742/3
f 745/745/4 748/748/4 747/747/4 746/746/4
f 1185/749/5 1186/752/5 1187/751/5 1188/750/5
f 753/753/6 756/756/6 755/755/6 754/754/6
f 757/757/1 760/760/1 759/759/1 758/758/1
f 761/761/2 764/764/2 763/763/2 762/762/2
f 765/765/3 768/768/3 767/767/3 766/766/3
f 769/769/4 772/772/4 771/771/4 770/770/4
f 773/773/5 776/776/5 775/775/5 774/774/5
f 777/777/1 780/780/1 779/779/1 778/778/1
f 781/781/2 784/784/2 783/783/2 782/782/2
f 785/785/3 788/788/3 787/787/3 786/786/3
f 789/789/4 792/792/4 791/791/4 790/790/4
f 793/793/5 796/796/5 795/795/5 794/794/5
f 797/797/6 800/800/6 799/799/6 798/798/6
f 1153/801/1 1154/804/1 1155/803/1 1156/802/1
f 1129/805/2 1130/808/2 1131/807/2 1132/806/2
f 1145/809/3 1146/812/3 1147/811/3 1148/810/3
f 1137/813/4 1138/816/4 1139/815/4 1140/814/4
f 817/817/5 820/820/5 819/819/5 818/818/5
f 821/821/6 824/824/6 823/823/6 822/822/6
f 825/825/1 828/828/1 827/827/1 826/826/1
f 829/829/2 832/832/2 831/831/2 830/830/2
f 833/833/3 836/836/3 835/835/3 834/834/3
f 837/837/4 840/840/4 839/839/4 838/838/4
f 841/841/5 844/844/5 843/843/5 842/842/5
f 845/845/1 848/848/1 847/847/1 846/846/1
f 849/849/2 852/852/2 851/851/2 850/850/2
f 853/853/3 856/856/3 855/855/3 854/854/3
f 857/857/4 860/860/4 859/859/4 858/858/4
f 861/861/1 864/864/1 863/863/1 862/862/1
f 865/865/2 868/868/2 867/867/2 866/866/2
f 869/869/3 872/872/3 871/871/3 870/870/3
f 873/873/4 876/876/4 875/875/4 874/874/4
f 877/877/5 880/880/5 879/879/5 878/878/5
f 881/881/6 884/884/6 883/883/6 882/882/6
f 885/885/1 888/888/1 887/887/1 886/886/1
f 889/889/2 892/892/2 891/891/2 890/890/2
f 893/893/3 896/896/3 895/895/3 894/894/3
f 897/897/4 900/900/4 899/899/4 898/898/4
f 901/901/5 904/904/5 903/903/5 902/902/5
f 905/905/6 908/908/6 907/907/6 906/906/6
f 909/909/1 912/912/1 911/911/1 910/910/1
f 913/913/2 916/916/2 915/915/2 914/914/2
f 917/917/1 920/920/1 919/919/1 918/918/1
f 921/921/2 924/924/2 923/923/2 922/922/2
f 925/925/3 928/928/3 927/927/3 926/926/3
f 929/929/4 932/932/4 931/931/4 930/930/4
f 933/933/3 936/936/3 935/935/3 934/934/3
f 937/937/4 940/940/4 939/939/4 938/938/4
f 941/941/1 944/944/1 943/943/1 942/942/1
f 945/945/2 948/948/2 947/947/2 946/946/2
f 949/949/5 952/952/5 951/951/5 950/950/5
f 953/953/6 956/956/6 955/955/6 954/954/6
f 957/957/1 960/960/1 959/959/1 958/958/1
f 961/961/2 964/964/2 963/963/2 962/962/2
f 965/965/3 968/968/3 967/967/3 966/966/3
f 969/969/4 972/972/4 971/971/4 970/970/4
f 973/973/1 976/976/1 975/975/1 974/974/1
f 977/977/2 980/980/2 979/979/2 978/978/2
f 981/981/3 984/984/3 983/983/3 982/982/3
f 985/985/4 988/988/4 987/987/4 986/986/4
f 989/989/5 992/992/5 991/991/5 990/990/5
f 993/993/6 996/996/6 995/995/6 994/994/6
f 997/997/1 1000/1000/1 999/999/1 998/998/1
f 1001/1001/2 1004/1004/2 1003/1003/2 1002/1002/2
f 1005/1005/3 1008/1008/3 1007/1007/3 1006/1006/3
f 1009/1009/4 1012/1012/4 1011/1011/4 1010/1010/4
f 1013/1013/5 1016/1016/5 1015/1015/5 1014/1014/5
f 1017/1017/6 1020/1020/6 1019/1019/6 1018/1018/6
f 1021/1021/1 1024/1024/1 1023/1023/1 1022/1022/1
f 1025/1025/2 1028/1028/2 1027/1027/2 1026/1026/2
f 1029/1029/3 1032/1032/3 1031/1031/3 1030/1030/3
f 1033/1033/4 1036/1036/4 1035/1035/4 1034/1034/4
f 1037/1037/5 1040/1040/5 1039/1039/5 1038/1038/5
f 1041/1041/6 1044/1044/6 1043/1043/6 1042/1042/6
f 1045/1045/1 1048/1048/1 1047/1047/1 1046/1046/1
f 1049/1049/2 1052/1052/2 1051/1051/2 1050/1050/2
f 1053/1053/3 1056/1056/3 1055/1055/3 1054/1054/3
f 1057/1057/4 1060/1060/4 1059/1059/4 1058/1058/4
f 1061/1061/5 1064/1064/5 1063/1063/5 1062/1062/5
f 1065/1065/1 1068/1068/1 1067/1067/1 1066/1066/1
f 1069/1069/2 1072/1072/2 1071/1071/2 1070/1070/2
f 1073/1073/3 1076/1076/3 1075/1075/3 1074/1074/3
f 1077/1077/4 1080/1080/4 1079/1079/4 1078/1078/4
f 1081/1081/5 1084/1084/5 1083/1083/5 1082/1082/5
f 1085/1085/2 1088/1088/2 1087/1087/2 1086/1086/2
f 1089/1089/3 1092/1092/3 1091/1091/3 1090/1090/3
f 1093/1093/4 1096/1096/4 1095/1095/4 1094/1094/4
f 1097/1097/5 1100/1100/5 1099/1099/5 1098/1098/5
f 1101/1101/6 1104/1104/6 1103/1103/6 1102/1102/6
f 1105/1105/2 1108/1108/2 1107/1107/2 1106/1106/2
f 1109/1109/3 1112/1112/3 1111/1111/3 1110/1110/3
f 1113/1113/4 1116/1116/4 1115/1115/4 1114/1114/4
f 1117/1117/5 1120/1120/5 1119/1119/5 1118/1118/5
f 1121/1121/6 1124/1124/6 1123/1123/6 1122/1122/6
