# crystallizer generated by machinegen.py
mtllib crystallizer.mtl
v 2.000000 0.187500 0.000000
v 0.000000 0.187500 0.000000
v 0.000000 0.000000 0.000000
v 2.000000 0.000000 0.000000
v 0.000000 0.187500 3.000000
v 2.000000 0.187500 3.000000
v 2.000000 0.000000 3.000000
v 0.000000 0.000000 3.000000
v 0.000000 0.187500 0.000000
v 0.000000 0.187500 3.000000
v 0.000000 0.000000 3.000000
v 0.000000 0.000000 0.000000
v 2.000000 0.187500 3.000000
v 2.000000 0.187500 0.000000
v 2.000000 0.000000 0.000000
v 2.000000 0.000000 3.000000
v 0.000000 0.187500 0.000000
v 2.000000 0.187500 0.000000
v 2.000000 0.187500 3.000000
v 0.000000 0.187500 3.000000
v 0.000000 0.000000 3.000000
v 2.000000 0.000000 3.000000
v 2.000000 0.000000 0.000000
v 0.000000 0.000000 0.000000
v 0.187500 1.812500 0.000000
v 0.000000 1.812500 0.000000
v 0.000000 0.187500 0.000000
v 0.187500 0.187500 0.000000
v 0.000000 1.812500 0.187500
v 0.187500 1.812500 0.187500
v 0.187500 0.187500 0.187500
v 0.000000 0.187500 0.187500
v 0.000000 1.812500 0.000000
v 0.000000 1.812500 0.187500
v 0.000000 0.187500 0.187500
v 0.000000 0.187500 0.000000
v 0.187500 1.812500 0.187500
v 0.187500 1.812500 0.000000
v 0.187500 0.187500 0.000000
v 0.187500 0.187500 0.187500
v 0.000000 1.812500 0.000000
v 0.187500 1.812500 0.000000
v 0.187500 1.812500 0.187500
v 0.000000 1.812500 0.187500
v 0.000000 0.187500 0.187500
v 0.187500 0.187500 0.187500
v 0.187500 0.187500 0.000000
v 0.000000 0.187500 0.000000
v 2.000000 1.812500 0.000000
v 1.812500 1.812500 0.000000
v 1.812500 0.187500 0.000000
v 2.000000 0.187500 0.000000
v 1.812500 1.812500 0.187500
v 2.000000 1.812500 0.187500
v 2.000000 0.187500 0.187500
v 1.812500 0.187500 0.187500
v 1.812500 1.812500 0.000000
v 1.812500 1.812500 0.187500
v 1.812500 0.187500 0.187500
v 1.812500 0.187500 0.000000
v 2.000000 1.812500 0.187500
v 2.000000 1.812500 0.000000
v 2.000000 0.187500 0.000000
v 2.000000 0.187500 0.187500
v 1.812500 1.812500 0.000000
v 2.000000 1.812500 0.000000
v 2.000000 1.812500 0.187500
v 1.812500 1.812500 0.187500
v 1.812500 0.187500 0.187500
v 2.000000 0.187500 0.187500
v 2.000000 0.187500 0.000000
v 1.812500 0.187500 0.000000
v 0.187500 1.812500 2.812500
v 0.000000 1.812500 2.812500
v 0.000000 0.187500 2.812500
v 0.187500 0.187500 2.812500
v 0.000000 1.812500 3.000000
v 0.187500 1.812500 3.000000
v 0.187500 0.187500 3.000000
v 0.000000 0.187500 3.000000
v 0.000000 1.812500 2.812500
v 0.000000 1.812500 3.000000
v 0.000000 0.187500 3.000000
v 0.000000 0.187500 2.812500
v 0.187500 1.812500 3.000000
v 0.187500 1.812500 2.812500
v 0.187500 0.187500 2.812500
v 0.187500 0.187500 3.000000
v 0.000000 1.812500 2.812500
v 0.187500 1.812500 2.812500
v 0.187500 1.812500 3.000000
v 0.000000 1.812500 3.000000
v 0.000000 0.187500 3.000000
v 0.187500 0.187500 3.000000
v 0.187500 0.187500 2.812500
v 0.000000 0.187500 2.812500
v 2.000000 1.812500 2.812500
v 1.812500 1.812500 2.812500
v 1.812500 0.187500 2.812500
v 2.000000 0.187500 2.812500
v 1.812500 1.812500 3.000000
v 2.000000 1.812500 3.000000
v 2.000000 0.187500 3.000000
v 1.812500 0.187500 3.000000
v 1.812500 1.812500 2.812500
v 1.812500 1.812500 3.000000
v 1.812500 0.187500 3.000000
v 1.812500 0.187500 2.812500
v 2.000000 1.812500 3.000000
v 2.000000 1.812500 2.812500
v 2.000000 0.187500 2.812500
v 2.000000 0.187500 3.000000
v 1.812500 1.812500 2.812500
v 2.000000 1.812500 2.812500
v 2.000000 1.812500 3.000000
v 1.812500 1.812500 3.000000
v 1.812500 0.187500 3.000000
v 2.000000 0.187500 3.000000
v 2.000000 0.187500 2.812500
v 1.812500 0.187500 2.812500
v 0.187500 0.437500 0.187500
v 0.000000 0.437500 0.187500
v 0.000000 0.187500 0.187500
v 0.187500 0.187500 0.187500
v 0.000000 0.437500 2.812500
v 0.187500 0.437500 2.812500
v 0.187500 0.187500 2.812500
v 0.000000 0.187500 2.812500
v 0.000000 0.437500 0.187500
v 0.000000 0.437500 2.812500
v 0.000000 0.187500 2.812500
v 0.000000 0.187500 0.187500
v 0.187500 0.437500 2.812500
v 0.187500 0.437500 0.187500
v 0.187500 0.187500 0.187500
v 0.187500 0.187500 2.812500
v 0.000000 0.437500 0.187500
v 0.187500 0.437500 0.187500
v 0.187500 0.437500 2.812500
v 0.000000 0.437500 2.812500
v 0.000000 0.187500 2.812500
v 0.187500 0.187500 2.812500
v 0.187500 0.187500 0.187500
v 0.000000 0.187500 0.187500
v 2.000000 0.437500 0.187500
v 1.812500 0.437500 0.187500
v 1.812500 0.187500 0.187500
v 2.000000 0.187500 0.187500
v 1.812500 0.437500 2.812500
v 2.000000 0.437500 2.812500
v 2.000000 0.187500 2.812500
v 1.812500 0.187500 2.812500
v 1.812500 0.437500 0.187500
v 1.812500 0.437500 2.812500
v 1.812500 0.187500 2.812500
v 1.812500 0.187500 0.187500
v 2.000000 0.437500 2.812500
v 2.000000 0.437500 0.187500
v 2.000000 0.187500 0.187500
v 2.000000 0.187500 2.812500
v 1.812500 0.437500 0.187500
v 2.000000 0.437500 0.187500
v 2.000000 0.437500 2.812500
v 1.812500 0.437500 2.812500
v 1.812500 0.187500 2.812500
v 2.000000 0.187500 2.812500
v 2.000000 0.187500 0.187500
v 1.812500 0.187500 0.187500
v 0.187500 1.812500 0.187500
v 0.000000 1.812500 0.187500
v 0.000000 1.687500 0.187500
v 0.187500 1.687500 0.187500
v 0.000000 1.812500 2.812500
v 0.187500 1.812500 2.812500
v 0.187500 1.687500 2.812500
v 0.000000 1.687500 2.812500
v 0.000000 1.812500 0.187500
v 0.000000 1.812500 2.812500
v 0.000000 1.687500 2.812500
v 0.000000 1.687500 0.187500
v 0.187500 1.812500 2.812500
v 0.187500 1.812500 0.187500
v 0.187500 1.687500 0.187500
v 0.187500 1.687500 2.812500
v 0.000000 1.812500 0.187500
v 0.187500 1.812500 0.187500
v 0.187500 1.812500 2.812500
v 0.000000 1.812500 2.812500
v 0.000000 1.687500 2.812500
v 0.187500 1.687500 2.812500
v 0.187500 1.687500 0.187500
v 0.000000 1.687500 0.187500
v 2.000000 1.812500 0.187500
v 1.812500 1.812500 0.187500
v 1.812500 1.687500 0.187500
v 2.000000 1.687500 0.187500
v 1.812500 1.812500 2.812500
v 2.000000 1.812500 2.812500
v 2.000000 1.687500 2.812500
v 1.812500 1.687500 2.812500
v 1.812500 1.812500 0.187500
v 1.812500 1.812500 2.812500
v 1.812500 1.687500 2.812500
v 1.812500 1.687500 0.187500
v 2.000000 1.812500 2.812500
v 2.000000 1.812500 0.187500
v 2.000000 1.687500 0.187500
v 2.000000 1.687500 2.812500
v 1.812500 1.812500 0.187500
v 2.000000 1.812500 0.187500
v 2.000000 1.812500 2.812500
v 1.812500 1.812500 2.812500
v 1.812500 1.687500 2.812500
v 2.000000 1.687500 2.812500
v 2.000000 1.687500 0.187500
v 1.812500 1.687500 0.187500
v 0.187500 1.687500 1.062500
v 0.000000 1.687500 1.062500
v 0.000000 0.437500 1.062500
v 0.187500 0.437500 1.062500
v 0.000000 1.687500 1.187500
v 0.187500 1.687500 1.187500
v 0.187500 0.437500 1.187500
v 0.000000 0.437500 1.187500
v 0.000000 1.687500 1.062500
v 0.000000 1.687500 1.187500
v 0.000000 0.437500 1.187500
v 0.000000 0.437500 1.062500
v 0.187500 1.687500 1.187500
v 0.187500 1.687500 1.062500
v 0.187500 0.437500 1.062500
v 0.187500 0.437500 1.187500
v 0.000000 1.687500 1.062500
v 0.187500 1.687500 1.062500
v 0.187500 1.687500 1.187500
v 0.000000 1.687500 1.187500
v 0.000000 0.437500 1.187500
v 0.187500 0.437500 1.187500
v 0.187500 0.437500 1.062500
v 0.000000 0.437500 1.062500
v 0.187500 1.687500 1.812500
v 0.000000 1.687500 1.812500
v 0.000000 0.437500 1.812500
v 0.187500 0.437500 1.812500
v 0.000000 1.687500 1.937500
v 0.187500 1.687500 1.937500
v 0.187500 0.437500 1.937500
v 0.000000 0.437500 1.937500
v 0.000000 1.687500 1.812500
v 0.000000 1.687500 1.937500
v 0.000000 0.437500 1.937500
v 0.000000 0.437500 1.812500
v 0.187500 1.687500 1.937500
v 0.187500 1.687500 1.812500
v 0.187500 0.437500 1.812500
v 0.187500 0.437500 1.937500
v 0.000000 1.687500 1.812500
v 0.187500 1.687500 1.812500
v 0.187500 1.687500 1.937500
v 0.000000 1.687500 1.937500
v 0.000000 0.437500 1.937500
v 0.187500 0.437500 1.937500
v 0.187500 0.437500 1.812500
v 0.000000 0.437500 1.812500
v 2.000000 1.687500 1.062500
v 1.812500 1.687500 1.062500
v 1.812500 0.437500 1.062500
v 2.000000 0.437500 1.062500
v 1.812500 1.687500 1.187500
v 2.000000 1.687500 1.187500
v 2.000000 0.437500 1.187500
v 1.812500 0.437500 1.187500
v 1.812500 1.687500 1.062500
v 1.812500 1.687500 1.187500
v 1.812500 0.437500 1.187500
v 1.812500 0.437500 1.062500
v 2.000000 1.687500 1.187500
v 2.000000 1.687500 1.062500
v 2.000000 0.437500 1.062500
v 2.000000 0.437500 1.187500
v 1.812500 1.687500 1.062500
v 2.000000 1.687500 1.062500
v 2.000000 1.687500 1.187500
v 1.812500 1.687500 1.187500
v 1.812500 0.437500 1.187500
v 2.000000 0.437500 1.187500
v 2.000000 0.437500 1.062500
v 1.812500 0.437500 1.062500
v 2.000000 1.687500 1.812500
v 1.812500 1.687500 1.812500
v 1.812500 0.437500 1.812500
v 2.000000 0.437500 1.812500
v 1.812500 1.687500 1.937500
v 2.000000 1.687500 1.937500
v 2.000000 0.437500 1.937500
v 1.812500 0.437500 1.937500
v 1.812500 1.687500 1.812500
v 1.812500 1.687500 1.937500
v 1.812500 0.437500 1.937500
v 1.812500 0.437500 1.812500
v 2.000000 1.687500 1.937500
v 2.000000 1.687500 1.812500
v 2.000000 0.437500 1.812500
v 2.000000 0.437500 1.937500
v 1.812500 1.687500 1.812500
v 2.000000 1.687500 1.812500
v 2.000000 1.687500 1.937500
v 1.812500 1.687500 1.937500
v 1.812500 0.437500 1.937500
v 2.000000 0.437500 1.937500
v 2.000000 0.437500 1.812500
v 1.812500 0.437500 1.812500
v 2.000000 2.000000 0.000000
v 0.000000 2.000000 0.000000
v 0.000000 1.812500 0.000000
v 2.000000 1.812500 0.000000
v 0.000000 2.000000 3.000000
v 2.000000 2.000000 3.000000
v 2.000000 1.812500 3.000000
v 0.000000 1.812500 3.000000
v 0.000000 2.000000 0.000000
v 0.000000 2.000000 3.000000
v 0.000000 1.812500 3.000000
v 0.000000 1.812500 0.000000
v 2.000000 2.000000 3.000000
v 2.000000 2.000000 0.000000
v 2.000000 1.812500 0.000000
v 2.000000 1.812500 3.000000
v 0.000000 2.000000 0.000000
v 2.000000 2.000000 0.000000
v 2.000000 2.000000 3.000000
v 0.000000 2.000000 3.000000
v 0.000000 1.812500 3.000000
v 2.000000 1.812500 3.000000
v 2.000000 1.812500 0.000000
v 0.000000 1.812500 0.000000
v 0.562500 2.000000 0.375000
v 1.437500 2.000000 0.375000
v 1.437500 2.000000 2.625000
v 0.562500 2.000000 2.625000
v 1.812500 1.812500 0.000000
v 0.187500 1.812500 0.000000
v 0.187500 0.187500 0.000000
v 1.812500 0.187500 0.000000
v 0.187500 1.812500 0.187500
v 1.812500 1.812500 0.187500
v 1.812500 0.187500 0.187500
v 0.187500 0.187500 0.187500
v 0.187500 1.812500 0.000000
v 0.187500 1.812500 0.187500
v 0.187500 0.187500 0.187500
v 0.187500 0.187500 0.000000
v 1.812500 1.812500 0.187500
v 1.812500 1.812500 0.000000
v 1.812500 0.187500 0.000000
v 1.812500 0.187500 0.187500
v 0.187500 1.812500 0.000000
v 1.812500 1.812500 0.000000
v 1.812500 1.812500 0.187500
v 0.187500 1.812500 0.187500
v 0.187500 0.187500 0.187500
v 1.812500 0.187500 0.187500
v 1.812500 0.187500 0.000000
v 0.187500 0.187500 0.000000
v 1.812500 1.812500 2.812500
v 0.187500 1.812500 2.812500
v 0.187500 0.187500 2.812500
v 1.812500 0.187500 2.812500
v 0.187500 1.812500 3.000000
v 1.812500 1.812500 3.000000
v 1.812500 0.187500 3.000000
v 0.187500 0.187500 3.000000
v 0.187500 1.812500 2.812500
v 0.187500 1.812500 3.000000
v 0.187500 0.187500 3.000000
v 0.187500 0.187500 2.812500
v 1.812500 1.812500 3.000000
v 1.812500 1.812500 2.812500
v 1.812500 0.187500 2.812500
v 1.812500 0.187500 3.000000
v 0.187500 1.812500 2.812500
v 1.812500 1.812500 2.812500
v 1.812500 1.812500 3.000000
v 0.187500 1.812500 3.000000
v 0.187500 0.187500 3.000000
v 1.812500 0.187500 3.000000
v 1.812500 0.187500 2.812500
v 0.187500 0.187500 2.812500
v 1.812500 0.437500 0.187500
v 0.187500 0.437500 0.187500
v 0.187500 0.187500 0.187500
v 1.812500 0.187500 0.187500
v 0.187500 0.437500 2.812500
v 1.812500 0.437500 2.812500
v 1.812500 0.187500 2.812500
v 0.187500 0.187500 2.812500
v 0.187500 0.437500 0.187500
v 0.187500 0.437500 2.812500
v 0.187500 0.187500 2.812500
v 0.187500 0.187500 0.187500
v 1.812500 0.437500 2.812500
v 1.812500 0.437500 0.187500
v 1.812500 0.187500 0.187500
v 1.812500 0.187500 2.812500
v 0.187500 0.437500 0.187500
v 1.812500 0.437500 0.187500
v 1.812500 0.437500 2.812500
v 0.187500 0.437500 2.812500
v 0.187500 0.187500 2.812500
v 1.812500 0.187500 2.812500
v 1.812500 0.187500 0.187500
v 0.187500 0.187500 0.187500
v 1.812500 1.687500 1.062500
v 0.187500 1.687500 1.062500
v 0.187500 0.437500 1.062500
v 1.812500 0.437500 1.062500
v 0.187500 1.687500 1.187500
v 1.812500 1.687500 1.187500
v 1.812500 0.437500 1.187500
v 0.187500 0.437500 1.187500
v 0.187500 1.687500 1.062500
v 0.187500 1.687500 1.187500
v 0.187500 0.437500 1.187500
v 0.187500 0.437500 1.062500
v 1.812500 1.687500 1.187500
v 1.812500 1.687500 1.062500
v 1.812500 0.437500 1.062500
v 1.812500 0.437500 1.187500
v 0.187500 1.687500 1.062500
v 1.812500 1.687500 1.062500
v 1.812500 1.687500 1.187500
v 0.187500 1.687500 1.187500
v 0.187500 0.437500 1.187500
v 1.812500 0.437500 1.187500
v 1.812500 0.437500 1.062500
v 0.187500 0.437500 1.062500
v 1.812500 1.687500 1.812500
v 0.187500 1.687500 1.812500
v 0.187500 0.437500 1.812500
v 1.812500 0.437500 1.812500
v 0.187500 1.687500 1.937500
v 1.812500 1.687500 1.937500
v 1.812500 0.437500 1.937500
v 0.187500 0.437500 1.937500
v 0.187500 1.687500 1.812500
v 0.187500 1.687500 1.937500
v 0.187500 0.437500 1.937500
v 0.187500 0.437500 1.812500
v 1.812500 1.687500 1.937500
v 1.812500 1.687500 1.812500
v 1.812500 0.437500 1.812500
v 1.812500 0.437500 1.937500
v 0.187500 1.687500 1.812500
v 1.812500 1.687500 1.812500
v 1.812500 1.687500 1.937500
v 0.187500 1.687500 1.937500
v 0.187500 0.437500 1.937500
v 1.812500 0.437500 1.937500
v 1.812500 0.437500 1.812500
v 0.187500 0.437500 1.812500
v 1.812500 1.687500 0.187500
v 0.187500 1.687500 0.187500
v 0.187500 1.625000 0.187500
v 1.812500 1.625000 0.187500
v 0.187500 1.687500 2.812500
v 1.812500 1.687500 2.812500
v 1.812500 1.625000 2.812500
v 0.187500 1.625000 2.812500
v 0.187500 1.687500 0.187500
v 0.187500 1.687500 2.812500
v 0.187500 1.625000 2.812500
v 0.187500 1.625000 0.187500
v 1.812500 1.687500 2.812500
v 1.812500 1.687500 0.187500
v 1.812500 1.625000 0.187500
v 1.812500 1.625000 2.812500
v 0.187500 1.687500 0.187500
v 1.812500 1.687500 0.187500
v 1.812500 1.687500 2.812500
v 0.187500 1.687500 2.812500
v 0.187500 1.625000 2.812500
v 1.812500 1.625000 2.812500
v 1.812500 1.625000 0.187500
v 0.187500 1.625000 0.187500
v 1.187500 0.562500 0.500000
v 0.812500 0.562500 0.500000
v 0.812500 0.437500 0.500000
v 1.187500 0.437500 0.500000
v 0.812500 0.562500 0.750000
v 1.187500 0.562500 0.750000
v 1.187500 0.437500 0.750000
v 0.812500 0.437500 0.750000
v 0.812500 0.562500 0.500000
v 0.812500 0.562500 0.750000
v 0.812500 0.437500 0.750000
v 0.812500 0.437500 0.500000
v 1.187500 0.562500 0.750000
v 1.187500 0.562500 0.500000
v 1.187500 0.437500 0.500000
v 1.187500 0.437500 0.750000
v 0.812500 0.562500 0.500000
v 1.187500 0.562500 0.500000
v 1.187500 0.562500 0.750000
v 0.812500 0.562500 0.750000
v 0.812500 0.437500 0.750000
v 1.187500 0.437500 0.750000
v 1.187500 0.437500 0.500000
v 0.812500 0.437500 0.500000
v 1.187500 0.562500 1.375000
v 0.812500 0.562500 1.375000
v 0.812500 0.437500 1.375000
v 1.187500 0.437500 1.375000
v 0.812500 0.562500 1.625000
v 1.187500 0.562500 1.625000
v 1.187500 0.437500 1.625000
v 0.812500 0.437500 1.625000
v 0.812500 0.562500 1.375000
v 0.812500 0.562500 1.625000
v 0.812500 0.437500 1.625000
v 0.812500 0.437500 1.375000
v 1.187500 0.562500 1.625000
v 1.187500 0.562500 1.375000
v 1.187500 0.437500 1.375000
v 1.187500 0.437500 1.625000
v 0.812500 0.562500 1.375000
v 1.187500 0.562500 1.375000
v 1.187500 0.562500 1.625000
v 0.812500 0.562500 1.625000
v 0.812500 0.437500 1.625000
v 1.187500 0.437500 1.625000
v 1.187500 0.437500 1.375000
v 0.812500 0.437500 1.375000
v 1.187500 0.562500 2.187500
v 0.812500 0.562500 2.187500
v 0.812500 0.437500 2.187500
v 1.187500 0.437500 2.187500
v 0.812500 0.562500 2.437500
v 1.187500 0.562500 2.437500
v 1.187500 0.437500 2.437500
v 0.812500 0.437500 2.437500
v 0.812500 0.562500 2.187500
v 0.812500 0.562500 2.437500
v 0.812500 0.437500 2.437500
v 0.812500 0.437500 2.187500
v 1.187500 0.562500 2.437500
v 1.187500 0.562500 2.187500
v 1.187500 0.437500 2.187500
v 1.187500 0.437500 2.437500
v 0.812500 0.562500 2.187500
v 1.187500 0.562500 2.187500
v 1.187500 0.562500 2.437500
v 0.812500 0.562500 2.437500
v 0.812500 0.437500 2.437500
v 1.187500 0.437500 2.437500
v 1.187500 0.437500 2.187500
v 0.812500 0.437500 2.187500
v 0.062500 1.687500 0.187500
v 0.062500 1.687500 2.812500
v 0.062500 0.437500 2.812500
v 0.062500 0.437500 0.187500
v 0.093750 1.687500 2.812500
v 0.093750 1.687500 0.187500
v 0.093750 0.437500 0.187500
v 0.093750 0.437500 2.812500
v 1.906250 1.687500 0.187500
v 1.906250 1.687500 2.812500
v 1.906250 0.437500 2.812500
v 1.906250 0.437500 0.187500
v 1.937500 1.687500 2.812500
v 1.937500 1.687500 0.187500
v 1.937500 0.437500 0.187500
v 1.937500 0.437500 2.812500
v 1.750000 1.968750 2.750000
v 1.500000 1.968750 2.750000
v 1.500000 1.843750 2.750000
v 1.750000 1.843750 2.750000
v 1.500000 1.968750 3.000000
v 1.750000 1.968750 3.000000
v 1.750000 1.843750 3.000000
v 1.500000 1.843750 3.000000
v 1.500000 1.968750 2.750000
v 1.500000 1.968750 3.000000
v 1.500000 1.843750 3.000000
v 1.500000 1.843750 2.750000
v 1.750000 1.968750 3.000000
v 1.750000 1.968750 2.750000
v 1.750000 1.843750 2.750000
v 1.750000 1.843750 3.000000
v 1.500000 1.968750 2.750000
v 1.750000 1.968750 2.750000
v 1.750000 1.968750 3.000000
v 1.500000 1.968750 3.000000
v 1.500000 1.843750 3.000000
v 1.750000 1.843750 3.000000
v 1.750000 1.843750 2.750000
v 1.500000 1.843750 2.750000
v 0.437500 1.500000 -0.031250
v 0.312500 1.500000 -0.031250
v 0.312500 1.375000 -0.031250
v 0.437500 1.375000 -0.031250
v 0.312500 1.500000 -0.031250
v 0.312500 1.500000 0.000000
v 0.312500 1.375000 0.000000
v 0.312500 1.375000 -0.031250
v 0.437500 1.500000 0.000000
v 0.437500 1.500000 -0.031250
v 0.437500 1.375000 -0.031250
v 0.437500 1.375000 0.000000
v 0.312500 1.500000 -0.031250
v 0.437500 1.500000 -0.031250
v 0.437500 1.500000 0.000000
v 0.312500 1.500000 0.000000
v 0.312500 1.375000 0.000000
v 0.437500 1.375000 0.000000
v 0.437500 1.375000 -0.031250
v 0.312500 1.375000 -0.031250
v 1.375000 1.687500 0.312500
v 0.625000 1.687500 0.312500
v 0.625000 1.062500 0.312500
v 1.375000 1.062500 0.312500
v 0.625000 1.687500 1.000000
v 1.375000 1.687500 1.000000
v 1.375000 1.062500 1.000000
v 0.625000 1.062500 1.000000
v 0.625000 1.687500 0.312500
v 0.625000 1.687500 1.000000
v 0.625000 1.062500 1.000000
v 0.625000 1.062500 0.312500
v 1.375000 1.687500 1.000000
v 1.375000 1.687500 0.312500
v 1.375000 1.062500 0.312500
v 1.375000 1.062500 1.000000
v 0.625000 1.687500 0.312500
v 1.375000 1.687500 0.312500
v 1.375000 1.687500 1.000000
v 0.625000 1.687500 1.000000
v 0.625000 1.062500 1.000000
v 1.375000 1.062500 1.000000
v 1.375000 1.062500 0.312500
v 0.625000 1.062500 0.312500
v 1.375000 1.687500 1.250000
v 0.625000 1.687500 1.250000
v 0.625000 1.062500 1.250000
v 1.375000 1.062500 1.250000
v 0.625000 1.687500 1.750000
v 1.375000 1.687500 1.750000
v 1.375000 1.062500 1.750000
v 0.625000 1.062500 1.750000
v 0.625000 1.687500 1.250000
v 0.625000 1.687500 1.750000
v 0.625000 1.062500 1.750000
v 0.625000 1.062500 1.250000
v 1.375000 1.687500 1.750000
v 1.375000 1.687500 1.250000
v 1.375000 1.062500 1.250000
v 1.375000 1.062500 1.750000
v 0.625000 1.687500 1.250000
v 1.375000 1.687500 1.250000
v 1.375000 1.687500 1.750000
v 0.625000 1.687500 1.750000
v 0.625000 1.062500 1.750000
v 1.375000 1.062500 1.750000
v 1.375000 1.062500 1.250000
v 0.625000 1.062500 1.250000
v 1.375000 1.687500 2.000000
v 0.625000 1.687500 2.000000
v 0.625000 1.062500 2.000000
v 1.375000 1.062500 2.000000
v 0.625000 1.687500 2.687500
v 1.375000 1.687500 2.687500
v 1.375000 1.062500 2.687500
v 0.625000 1.062500 2.687500
v 0.625000 1.687500 2.000000
v 0.625000 1.687500 2.687500
v 0.625000 1.062500 2.687500
v 0.625000 1.062500 2.000000
v 1.375000 1.687500 2.687500
v 1.375000 1.687500 2.000000
v 1.375000 1.062500 2.000000
v 1.375000 1.062500 2.687500
v 0.625000 1.687500 2.000000
v 1.375000 1.687500 2.000000
v 1.375000 1.687500 2.687500
v 0.625000 1.687500 2.687500
v 0.625000 1.062500 2.687500
v 1.375000 1.062500 2.687500
v 1.375000 1.062500 2.000000
v 0.625000 1.062500 2.000000
v 1.500000 1.968750 3.004000
v 1.500000 1.843750 3.004000
v 1.750000 1.843750 3.004000
v 1.750000 1.968750 3.004000
v 0.625000 1.691500 0.312500
v 0.625000 1.691500 1.000000
v 1.375000 1.691500 1.000000
v 1.375000 1.691500 0.312500
v 0.625000 1.691500 2.000000
v 0.625000 1.691500 2.687500
v 1.375000 1.691500 2.687500
v 1.375000 1.691500 2.000000
v 0.625000 1.691500 1.250000
v 0.625000 1.691500 1.750000
v 1.375000 1.691500 1.750000
v 1.375000 1.691500 1.250000
v 0.187500 1.691500 1.062500
v 0.187500 1.691500 1.187500
v 1.812500 1.691500 1.187500
v 1.812500 1.691500 1.062500
v 0.187500 1.691500 1.812500
v 0.187500 1.691500 1.937500
v 1.812500 1.691500 1.937500
v 1.812500 1.691500 1.812500
v 0.562500 2.004000 0.375000
v 0.562500 2.004000 2.625000
v 1.437500 2.004000 2.625000
v 1.437500 2.004000 0.375000
v 0.183500 1.687500 1.062500
v 0.183500 0.437500 1.062500
v 0.183500 0.437500 1.187500
v 0.183500 1.687500 1.187500
v 0.183500 1.687500 1.812500
v 0.183500 0.437500 1.812500
v 0.183500 0.437500 1.937500
v 0.183500 1.687500 1.937500
v 1.816500 1.687500 1.187500
v 1.816500 0.437500 1.187500
v 1.816500 0.437500 1.062500
v 1.816500 1.687500 1.062500
v 1.816500 1.687500 1.937500
v 1.816500 0.437500 1.937500
v 1.816500 0.437500 1.812500
v 1.816500 1.687500 1.812500
vt 0.566406 0.421875
vt 0.691406 0.421875
vt 0.691406 0.398438
vt 0.566406 0.398438
vt 0.566406 0.421875
vt 0.691406 0.421875
vt 0.691406 0.398438
vt 0.566406 0.398438
vt 0.191406 0.421875
vt 0.378906 0.421875
vt 0.378906 0.398438
vt 0.191406 0.398438
vt 0.191406 0.421875
vt 0.378906 0.421875
vt 0.378906 0.398438
vt 0.191406 0.398438
vt 0.000000 1.000000
vt 0.125000 1.000000
vt 0.125000 0.625000
vt 0.000000 0.625000
vt 0.125000 1.000000
vt 0.250000 1.000000
vt 0.250000 0.625000
vt 0.125000 0.625000
vt 0.972656 1.000000
vt 0.984375 1.000000
vt 0.984375 0.796875
vt 0.972656 0.796875
vt 0.972656 1.000000
vt 0.984375 1.000000
vt 0.984375 0.796875
vt 0.972656 0.796875
vt 0.972656 1.000000
vt 0.984375 1.000000
vt 0.984375 0.796875
vt 0.972656 0.796875
vt 0.972656 1.000000
vt 0.984375 1.000000
vt 0.984375 0.796875
vt 0.972656 0.796875
vt 0.917969 0.421875
vt 0.929688 0.421875
vt 0.929688 0.398438
vt 0.917969 0.398438
vt 0.917969 0.421875
vt 0.929688 0.421875
vt 0.929688 0.398438
vt 0.917969 0.398438
vt 0.972656 1.000000
vt 0.984375 1.000000
vt 0.984375 0.796875
vt 0.972656 0.796875
vt 0.972656 1.000000
vt 0.984375 1.000000
vt 0.984375 0.796875
vt 0.972656 0.796875
vt 0.972656 1.000000
vt 0.984375 1.000000
vt 0.984375 0.796875
vt 0.972656 0.796875
vt 0.972656 1.000000
vt 0.984375 1.000000
vt 0.984375 0.796875
vt 0.972656 0.796875
vt 0.917969 0.421875
vt 0.929688 0.421875
vt 0.929688 0.398438
vt 0.917969 0.398438
vt 0.917969 0.421875
vt 0.929688 0.421875
vt 0.929688 0.398438
vt 0.917969 0.398438
vt 0.972656 1.000000
vt 0.984375 1.000000
vt 0.984375 0.796875
vt 0.972656 0.796875
vt 0.972656 1.000000
vt 0.984375 1.000000
vt 0.984375 0.796875
vt 0.972656 0.796875
vt 0.972656 1.000000
vt 0.984375 1.000000
vt 0.984375 0.796875
vt 0.972656 0.796875
vt 0.972656 1.000000
vt 0.984375 1.000000
vt 0.984375 0.796875
vt 0.972656 0.796875
vt 0.917969 0.421875
vt 0.929688 0.421875
vt 0.929688 0.398438
vt 0.917969 0.398438
vt 0.917969 0.421875
vt 0.929688 0.421875
vt 0.929688 0.398438
vt 0.917969 0.398438
vt 0.972656 1.000000
vt 0.984375 1.000000
vt 0.984375 0.796875
vt 0.972656 0.796875
vt 0.972656 1.000000
vt 0.984375 1.000000
vt 0.984375 0.796875
vt 0.972656 0.796875
vt 0.972656 1.000000
vt 0.984375 1.000000
vt 0.984375 0.796875
vt 0.972656 0.796875
vt 0.972656 1.000000
vt 0.984375 1.000000
vt 0.984375 0.796875
vt 0.972656 0.796875
vt 0.917969 0.421875
vt 0.929688 0.421875
vt 0.929688 0.398438
vt 0.917969 0.398438
vt 0.917969 0.421875
vt 0.929688 0.421875
vt 0.929688 0.398438
vt 0.917969 0.398438
vt 0.179688 0.421875
vt 0.191406 0.421875
vt 0.191406 0.390625
vt 0.179688 0.390625
vt 0.179688 0.421875
vt 0.191406 0.421875
vt 0.191406 0.390625
vt 0.179688 0.390625
vt 0.710938 0.625000
vt 0.875000 0.625000
vt 0.875000 0.593750
vt 0.710938 0.593750
vt 0.710938 0.625000
vt 0.875000 0.625000
vt 0.875000 0.593750
vt 0.710938 0.593750
vt 0.804688 1.000000
vt 0.816406 1.000000
vt 0.816406 0.671875
vt 0.804688 0.671875
vt 0.804688 1.000000
vt 0.816406 1.000000
vt 0.816406 0.671875
vt 0.804688 0.671875
vt 0.179688 0.421875
vt 0.191406 0.421875
vt 0.191406 0.390625
vt 0.179688 0.390625
vt 0.179688 0.421875
vt 0.191406 0.421875
vt 0.191406 0.390625
vt 0.179688 0.390625
vt 0.710938 0.625000
vt 0.875000 0.625000
vt 0.875000 0.593750
vt 0.710938 0.593750
vt 0.710938 0.625000
vt 0.875000 0.625000
vt 0.875000 0.593750
vt 0.710938 0.593750
vt 0.804688 1.000000
vt 0.816406 1.000000
vt 0.816406 0.671875
vt 0.804688 0.671875
vt 0.804688 1.000000
vt 0.816406 1.000000
vt 0.816406 0.671875
vt 0.804688 0.671875
vt 0.984375 0.421875
vt 0.996094 0.421875
vt 0.996094 0.406250
vt 0.984375 0.406250
vt 0.984375 0.421875
vt 0.996094 0.421875
vt 0.996094 0.406250
vt 0.984375 0.406250
vt 0.000000 0.390625
vt 0.164062 0.390625
vt 0.164062 0.375000
vt 0.000000 0.375000
vt 0.000000 0.390625
vt 0.164062 0.390625
vt 0.164062 0.375000
vt 0.000000 0.375000
vt 0.804688 1.000000
vt 0.816406 1.000000
vt 0.816406 0.671875
vt 0.804688 0.671875
vt 0.804688 1.000000
vt 0.816406 1.000000
vt 0.816406 0.671875
vt 0.804688 0.671875
vt 0.984375 0.421875
vt 0.996094 0.421875
vt 0.996094 0.406250
vt 0.984375 0.406250
vt 0.984375 0.421875
vt 0.996094 0.421875
vt 0.996094 0.406250
vt 0.984375 0.406250
vt 0.000000 0.390625
vt 0.164062 0.390625
vt 0.164062 0.375000
vt 0.000000 0.375000
vt 0.000000 0.390625
vt 0.164062 0.390625
vt 0.164062 0.375000
vt 0.000000 0.375000
vt 0.804688 1.000000
vt 0.816406 1.000000
vt 0.816406 0.671875
vt 0.804688 0.671875
vt 0.804688 1.000000
vt 0.816406 1.000000
vt 0.816406 0.671875
vt 0.804688 0.671875
vt 0.468750 0.625000
vt 0.480469 0.625000
vt 0.480469 0.468750
vt 0.468750 0.468750
vt 0.468750 0.625000
vt 0.480469 0.625000
vt 0.480469 0.468750
vt 0.468750 0.468750
vt 0.480469 0.625000
vt 0.488281 0.625000
vt 0.488281 0.468750
vt 0.480469 0.468750
vt 0.480469 0.625000
vt 0.488281 0.625000
vt 0.488281 0.468750
vt 0.480469 0.468750
vt 0.984375 0.421875
vt 0.996094 0.421875
vt 0.996094 0.406250
vt 0.984375 0.406250
vt 0.984375 0.421875
vt 0.996094 0.421875
vt 0.996094 0.406250
vt 0.984375 0.406250
vt 0.468750 0.625000
vt 0.480469 0.625000
vt 0.480469 0.468750
vt 0.468750 0.468750
vt 0.468750 0.625000
vt 0.480469 0.625000
vt 0.480469 0.468750
vt 0.468750 0.468750
vt 0.480469 0.625000
vt 0.488281 0.625000
vt 0.488281 0.468750
vt 0.480469 0.468750
vt 0.480469 0.625000
vt 0.488281 0.625000
vt 0.488281 0.468750
vt 0.480469 0.468750
vt 0.984375 0.421875
vt 0.996094 0.421875
vt 0.996094 0.406250
vt 0.984375 0.406250
vt 0.984375 0.421875
vt 0.996094 0.421875
vt 0.996094 0.406250
vt 0.984375 0.406250
vt 0.468750 0.625000
vt 0.480469 0.625000
vt 0.480469 0.468750
vt 0.468750 0.468750
vt 0.468750 0.625000
vt 0.480469 0.625000
vt 0.480469 0.468750
vt 0.468750 0.468750
vt 0.480469 0.625000
vt 0.488281 0.625000
vt 0.488281 0.468750
vt 0.480469 0.468750
vt 0.480469 0.625000
vt 0.488281 0.625000
vt 0.488281 0.468750
vt 0.480469 0.468750
vt 0.984375 0.421875
vt 0.996094 0.421875
vt 0.996094 0.406250
vt 0.984375 0.406250
vt 0.984375 0.421875
vt 0.996094 0.421875
vt 0.996094 0.406250
vt 0.984375 0.406250
vt 0.468750 0.625000
vt 0.480469 0.625000
vt 0.480469 0.468750
vt 0.468750 0.468750
vt 0.468750 0.625000
vt 0.480469 0.625000
vt 0.480469 0.468750
vt 0.468750 0.468750
vt 0.480469 0.625000
vt 0.488281 0.625000
vt 0.488281 0.468750
vt 0.480469 0.468750
vt 0.480469 0.625000
vt 0.488281 0.625000
vt 0.488281 0.468750
vt 0.480469 0.468750
vt 0.984375 0.421875
vt 0.996094 0.421875
vt 0.996094 0.406250
vt 0.984375 0.406250
vt 0.984375 0.421875
vt 0.996094 0.421875
vt 0.996094 0.406250
vt 0.984375 0.406250
vt 0.691406 0.421875
vt 0.816406 0.421875
vt 0.816406 0.398438
vt 0.691406 0.398438
vt 0.691406 0.421875
vt 0.816406 0.421875
vt 0.816406 0.398438
vt 0.691406 0.398438
vt 0.378906 0.421875
vt 0.566406 0.421875
vt 0.566406 0.398438
vt 0.378906 0.398438
vt 0.378906 0.421875
vt 0.566406 0.421875
vt 0.566406 0.398438
vt 0.378906 0.398438
vt 0.250000 1.000000
vt 0.375000 1.000000
vt 0.375000 0.625000
vt 0.250000 0.625000
vt 0.375000 1.000000
vt 0.500000 1.000000
vt 0.500000 0.625000
vt 0.375000 0.625000
vt 0.816406 1.000000
vt 0.871094 1.000000
vt 0.871094 0.718750
vt 0.816406 0.718750
vt 0.871094 1.000000
vt 0.972656 1.000000
vt 0.972656 0.796875
vt 0.871094 0.796875
vt 0.000000 0.625000
vt 0.101562 0.625000
vt 0.101562 0.421875
vt 0.000000 0.421875
vt 0.984375 1.000000
vt 0.996094 1.000000
vt 0.996094 0.796875
vt 0.984375 0.796875
vt 0.984375 1.000000
vt 0.996094 1.000000
vt 0.996094 0.796875
vt 0.984375 0.796875
vt 0.816406 0.421875
vt 0.917969 0.421875
vt 0.917969 0.398438
vt 0.816406 0.398438
vt 0.816406 0.421875
vt 0.917969 0.421875
vt 0.917969 0.398438
vt 0.816406 0.398438
vt 0.000000 0.625000
vt 0.101562 0.625000
vt 0.101562 0.421875
vt 0.000000 0.421875
vt 0.101562 0.625000
vt 0.203125 0.625000
vt 0.203125 0.421875
vt 0.101562 0.421875
vt 0.984375 1.000000
vt 0.996094 1.000000
vt 0.996094 0.796875
vt 0.984375 0.796875
vt 0.984375 1.000000
vt 0.996094 1.000000
vt 0.996094 0.796875
vt 0.984375 0.796875
vt 0.816406 0.421875
vt 0.917969 0.421875
vt 0.917969 0.398438
vt 0.816406 0.398438
vt 0.816406 0.421875
vt 0.917969 0.421875
vt 0.917969 0.398438
vt 0.816406 0.398438
vt 0.875000 0.625000
vt 0.976562 0.625000
vt 0.976562 0.593750
vt 0.875000 0.593750
vt 0.875000 0.625000
vt 0.976562 0.625000
vt 0.976562 0.593750
vt 0.875000 0.593750
vt 0.000000 0.421875
vt 0.164062 0.421875
vt 0.164062 0.390625
vt 0.000000 0.390625
vt 0.000000 0.421875
vt 0.164062 0.421875
vt 0.164062 0.390625
vt 0.000000 0.390625
vt 0.500000 1.000000
vt 0.601562 1.000000
vt 0.601562 0.671875
vt 0.500000 0.671875
vt 0.601562 1.000000
vt 0.703125 1.000000
vt 0.703125 0.671875
vt 0.601562 0.671875
vt 0.367188 0.625000
vt 0.468750 0.625000
vt 0.468750 0.468750
vt 0.367188 0.468750
vt 0.367188 0.625000
vt 0.468750 0.625000
vt 0.468750 0.468750
vt 0.367188 0.468750
vt 0.488281 0.625000
vt 0.496094 0.625000
vt 0.496094 0.468750
vt 0.488281 0.468750
vt 0.488281 0.625000
vt 0.496094 0.625000
vt 0.496094 0.468750
vt 0.488281 0.468750
vt 0.164062 0.390625
vt 0.265625 0.390625
vt 0.265625 0.375000
vt 0.164062 0.375000
vt 0.164062 0.390625
vt 0.265625 0.390625
vt 0.265625 0.375000
vt 0.164062 0.375000
vt 0.367188 0.625000
vt 0.468750 0.625000
vt 0.468750 0.468750
vt 0.367188 0.468750
vt 0.367188 0.625000
vt 0.468750 0.625000
vt 0.468750 0.468750
vt 0.367188 0.468750
vt 0.488281 0.625000
vt 0.496094 0.625000
vt 0.496094 0.468750
vt 0.488281 0.468750
vt 0.488281 0.625000
vt 0.496094 0.625000
vt 0.496094 0.468750
vt 0.488281 0.468750
vt 0.164062 0.390625
vt 0.265625 0.390625
vt 0.265625 0.375000
vt 0.164062 0.375000
vt 0.164062 0.390625
vt 0.265625 0.390625
vt 0.265625 0.375000
vt 0.164062 0.375000
vt 0.437500 0.390625
vt 0.539062 0.390625
vt 0.539062 0.382812
vt 0.437500 0.382812
vt 0.437500 0.390625
vt 0.539062 0.390625
vt 0.539062 0.382812
vt 0.437500 0.382812
vt 0.273438 0.390625
vt 0.437500 0.390625
vt 0.437500 0.382812
vt 0.273438 0.382812
vt 0.273438 0.390625
vt 0.437500 0.390625
vt 0.437500 0.382812
vt 0.273438 0.382812
vt 0.601562 1.000000
vt 0.703125 1.000000
vt 0.703125 0.671875
vt 0.601562 0.671875
vt 0.703125 1.000000
vt 0.804688 1.000000
vt 0.804688 0.671875
vt 0.703125 0.671875
vt 0.929688 0.421875
vt 0.953125 0.421875
vt 0.953125 0.406250
vt 0.929688 0.406250
vt 0.929688 0.421875
vt 0.953125 0.421875
vt 0.953125 0.406250
vt 0.929688 0.406250
vt 0.953125 0.421875
vt 0.968750 0.421875
vt 0.968750 0.406250
vt 0.953125 0.406250
vt 0.953125 0.421875
vt 0.968750 0.421875
vt 0.968750 0.406250
vt 0.953125 0.406250
vt 0.976562 0.625000
vt 1.000000 0.625000
vt 1.000000 0.593750
vt 0.976562 0.593750
vt 0.976562 0.625000
vt 1.000000 0.625000
vt 1.000000 0.593750
vt 0.976562 0.593750
vt 0.929688 0.421875
vt 0.953125 0.421875
vt 0.953125 0.406250
vt 0.929688 0.406250
vt 0.929688 0.421875
vt 0.953125 0.421875
vt 0.953125 0.406250
vt 0.929688 0.406250
vt 0.953125 0.421875
vt 0.968750 0.421875
vt 0.968750 0.406250
vt 0.953125 0.406250
vt 0.953125 0.421875
vt 0.968750 0.421875
vt 0.968750 0.406250
vt 0.953125 0.406250
vt 0.976562 0.625000
vt 1.000000 0.625000
vt 1.000000 0.593750
vt 0.976562 0.593750
vt 0.976562 0.625000
vt 1.000000 0.625000
vt 1.000000 0.593750
vt 0.976562 0.593750
vt 0.929688 0.421875
vt 0.953125 0.421875
vt 0.953125 0.406250
vt 0.929688 0.406250
vt 0.929688 0.421875
vt 0.953125 0.421875
vt 0.953125 0.406250
vt 0.929688 0.406250
vt 0.953125 0.421875
vt 0.968750 0.421875
vt 0.968750 0.406250
vt 0.953125 0.406250
vt 0.953125 0.421875
vt 0.968750 0.421875
vt 0.968750 0.406250
vt 0.953125 0.406250
vt 0.976562 0.625000
vt 1.000000 0.625000
vt 1.000000 0.593750
vt 0.976562 0.593750
vt 0.976562 0.625000
vt 1.000000 0.625000
vt 1.000000 0.593750
vt 0.976562 0.593750
vt 0.203125 0.625000
vt 0.367188 0.625000
vt 0.367188 0.468750
vt 0.203125 0.468750
vt 0.203125 0.625000
vt 0.367188 0.625000
vt 0.367188 0.468750
vt 0.203125 0.468750
vt 0.203125 0.625000
vt 0.367188 0.625000
vt 0.367188 0.468750
vt 0.203125 0.468750
vt 0.203125 0.625000
vt 0.367188 0.625000
vt 0.367188 0.468750
vt 0.203125 0.468750
vt 0.968750 0.421875
vt 0.984375 0.421875
vt 0.984375 0.406250
vt 0.968750 0.406250
vt 0.968750 0.421875
vt 0.984375 0.421875
vt 0.984375 0.406250
vt 0.968750 0.406250
vt 0.968750 0.421875
vt 0.984375 0.421875
vt 0.984375 0.406250
vt 0.968750 0.406250
vt 0.968750 0.421875
vt 0.984375 0.421875
vt 0.984375 0.406250
vt 0.968750 0.406250
vt 0.164062 0.421875
vt 0.179688 0.421875
vt 0.179688 0.390625
vt 0.164062 0.390625
vt 0.164062 0.421875
vt 0.179688 0.421875
vt 0.179688 0.390625
vt 0.164062 0.390625
vt 0.265625 0.390625
vt 0.273438 0.390625
vt 0.273438 0.375000
vt 0.265625 0.375000
vt 0.996094 1.000000
vt 1.000000 1.000000
vt 1.000000 0.984375
vt 0.996094 0.984375
vt 0.996094 1.000000
vt 1.000000 1.000000
vt 1.000000 0.984375
vt 0.996094 0.984375
vt 0.539062 0.390625
vt 0.546875 0.390625
vt 0.546875 0.382812
vt 0.539062 0.382812
vt 0.539062 0.390625
vt 0.546875 0.390625
vt 0.546875 0.382812
vt 0.539062 0.382812
vt 0.542969 0.625000
vt 0.589844 0.625000
vt 0.589844 0.546875
vt 0.542969 0.546875
vt 0.542969 0.625000
vt 0.589844 0.625000
vt 0.589844 0.546875
vt 0.542969 0.546875
vt 0.589844 0.625000
vt 0.632812 0.625000
vt 0.632812 0.546875
vt 0.589844 0.546875
vt 0.589844 0.625000
vt 0.632812 0.625000
vt 0.632812 0.546875
vt 0.589844 0.546875
vt 0.496094 0.625000
vt 0.542969 0.625000
vt 0.542969 0.539062
vt 0.496094 0.539062
vt 0.496094 0.625000
vt 0.542969 0.625000
vt 0.542969 0.539062
vt 0.496094 0.539062
vt 0.542969 0.625000
vt 0.589844 0.625000
vt 0.589844 0.546875
vt 0.542969 0.546875
vt 0.542969 0.625000
vt 0.589844 0.625000
vt 0.589844 0.546875
vt 0.542969 0.546875
vt 0.632812 0.625000
vt 0.664062 0.625000
vt 0.664062 0.546875
vt 0.632812 0.546875
vt 0.632812 0.625000
vt 0.664062 0.625000
vt 0.664062 0.546875
vt 0.632812 0.546875
vt 0.664062 0.625000
vt 0.710938 0.625000
vt 0.710938 0.562500
vt 0.664062 0.562500
vt 0.664062 0.625000
vt 0.710938 0.625000
vt 0.710938 0.562500
vt 0.664062 0.562500
vt 0.542969 0.625000
vt 0.589844 0.625000
vt 0.589844 0.546875
vt 0.542969 0.546875
vt 0.542969 0.625000
vt 0.589844 0.625000
vt 0.589844 0.546875
vt 0.542969 0.546875
vt 0.589844 0.625000
vt 0.632812 0.625000
vt 0.632812 0.546875
vt 0.589844 0.546875
vt 0.589844 0.625000
vt 0.632812 0.625000
vt 0.632812 0.546875
vt 0.589844 0.546875
vt 0.496094 0.625000
vt 0.542969 0.625000
vt 0.542969 0.539062
vt 0.496094 0.539062
vt 0.496094 0.625000
vt 0.542969 0.625000
vt 0.542969 0.539062
vt 0.496094 0.539062
vn 0 0 -1
vn 0 0 1
vn -1 0 0
vn 1 0 0
vn 0 1 0
vn 0 -1 0
usemtl crystallizer
o Hull
f 1/1/1 4/4/1 3/3/1 2/2/1
f 5/5/2 8/8/2 7/7/2 6/6/2
f 9/9/3 12/12/3 11/11/3 10/10/3
f 13/13/4 16/16/4 15/15/4 14/14/4
f 17/17/5 20/20/5 19/19/5 18/18/5
f 21/21/6 24/24/6 23/23/6 22/22/6
f 25/25/1 28/28/1 27/27/1 26/26/1
f 29/29/2 32/32/2 31/31/2 30/30/2
f 33/33/3 36/36/3 35/35/3 34/34/3
f 37/37/4 40/40/4 39/39/4 38/38/4
f 41/41/5 44/44/5 43/43/5 42/42/5
f 45/45/6 48/48/6 47/47/6 46/46/6
f 49/49/1 52/52/1 51/51/1 50/50/1
f 53/53/2 56/56/2 55/55/2 54/54/2
f 57/57/3 60/60/3 59/59/3 58/58/3
f 61/61/4 64/64/4 63/63/4 62/62/4
f 65/65/5 68/68/5 67/67/5 66/66/5
f 69/69/6 72/72/6 71/71/6 70/70/6
f 73/73/1 76/76/1 75/75/1 74/74/1
f 77/77/2 80/80/2 79/79/2 78/78/2
f 81/81/3 84/84/3 83/83/3 82/82/3
f 85/85/4 88/88/4 87/87/4 86/86/4
f 89/89/5 92/92/5 91/91/5 90/90/5
f 93/93/6 96/96/6 95/95/6 94/94/6
f 97/97/1 100/100/1 99/99/1 98/98/1
f 101/101/2 104/104/2 103/103/2 102/102/2
f 105/105/3 108/108/3 107/107/3 106/106/3
f 109/109/4 112/112/4 111/111/4 110/110/4
f 113/113/5 116/116/5 115/115/5 114/114/5
f 117/117/6 120/120/6 119/119/6 118/118/6
f 121/121/1 124/124/1 123/123/1 122/122/1
f 125/125/2 128/128/2 127/127/2 126/126/2
f 129/129/3 132/132/3 131/131/3 130/130/3
f 133/133/4 136/136/4 135/135/4 134/134/4
f 137/137/5 140/140/5 139/139/5 138/138/5
f 141/141/6 144/144/6 143/143/6 142/142/6
f 145/145/1 148/148/1 147/147/1 146/146/1
f 149/149/2 152/152/2 151/151/2 150/150/2
f 153/153/3 156/156/3 155/155/3 154/154/3
f 157/157/4 160/160/4 159/159/4 158/158/4
f 161/161/5 164/164/5 163/163/5 162/162/5
f 165/165/6 168/168/6 167/167/6 166/166/6
f 169/169/1 172/172/1 171/171/1 170/170/1
f 173/173/2 176/176/2 175/175/2 174/174/2
f 177/177/3 180/180/3 179/179/3 178/178/3
f 181/181/4 184/184/4 183/183/4 182/182/4
f 185/185/5 188/188/5 187/187/5 186/186/5
f 189/189/6 192/192/6 191/191/6 190/190/6
f 193/193/1 196/196/1 195/195/1 194/194/1
f 197/197/2 200/200/2 199/199/2 198/198/2
f 201/201/3 204/204/3 203/203/3 202/202/3
f 205/205/4 208/208/4 207/207/4 206/206/4
f 209/209/5 212/212/5 211/211/5 210/210/5
f 213/213/6 216/216/6 215/215/6 214/214/6
f 217/217/1 220/220/1 219/219/1 218/218/1
f 221/221/2 224/224/2 223/223/2 222/222/2
f 225/225/3 228/228/3 227/227/3 226/226/3
f 229/229/4 232/232/4 231/231/4 230/230/4
f 233/233/5 236/236/5 235/235/5 234/234/5
f 237/237/6 240/240/6 239/239/6 238/238/6
f 241/241/1 244/244/1 243/243/1 242/242/1
f 245/245/2 248/248/2 247/247/2 246/246/2
f 249/249/3 252/252/3 251/251/3 250/250/3
f 253/253/4 256/256/4 255/255/4 254/254/4
f 257/257/5 260/260/5 259/259/5 258/258/5
f 261/261/6 264/264/6 263/263/6 262/262/6
f 265/265/1 268/268/1 267/267/1 266/266/1
f 269/269/2 272/272/2 271/271/2 270/270/2
f 273/273/3 276/276/3 275/275/3 274/274/3
f 277/277/4 280/280/4 279/279/4 278/278/4
f 281/281/5 284/284/5 283/283/5 282/282/5
f 285/285/6 288/288/6 287/287/6 286/286/6
f 289/289/1 292/292/1 291/291/1 290/290/1
f 293/293/2 296/296/2 295/295/2 294/294/2
f 297/297/3 300/300/3 299/299/3 298/298/3
f 301/301/4 304/304/4 303/303/4 302/302/4
f 305/305/5 308/308/5 307/307/5 306/306/5
f 309/309/6 312/312/6 311/311/6 310/310/6
f 313/313/1 316/316/1 315/315/1 314/314/1
f 317/317/2 320/320/2 319/319/2 318/318/2
f 321/321/3 324/324/3 323/323/3 322/322/3
f 325/325/4 328/328/4 327/327/4 326/326/4
f 329/329/5 332/332/5 331/331/5 330/330/5
f 333/333/6 336/336/6 335/335/6 334/334/6
f 713/337/5 714/340/5 715/339/5 716/338/5
f 341/341/1 344/344/1 343/343/1 342/342/1
f 345/345/2 348/348/2 347/347/2 346/346/2
f 349/349/3 352/352/3 351/351/3 350/350/3
f 353/353/4 356/356/4 355/355/4 354/354/4
f 357/357/5 360/360/5 359/359/5 358/358/5
f 361/361/6 364/364/6 363/363/6 362/362/6
f 365/365/1 368/368/1 367/367/1 366/366/1
f 369/369/2 372/372/2 371/371/2 370/370/2
f 373/373/3 376/376/3 375/375/3 374/374/3
f 377/377/4 380/380/4 379/379/4 378/378/4
f 381/381/5 384/384/5 383/383/5 382/382/5
f 385/385/6 388/388/6 387/387/6 386/386/6
f 389/389/1 392/392/1 391/391/1 390/390/1
f 393/393/2 396/396/2 395/395/2 394/394/2
f 397/397/3 400/400/3 399/399/3 398/398/3
f 401/401/4 404/404/4 403/403/4 402/402/4
f 405/405/5 408/408/5 407/407/5 406/406/5
f 409/409/6 412/412/6 411/411/6 410/410/6
f 413/413/1 416/416/1 415/415/1 414/414/1
f 417/417/2 420/420/2 419/419/2 418/418/2
f 717/421/3 718/424/3 719/423/3 720/422/3
f 725/425/4 726/428/4 727/427/4 728/426/4
f 705/429/5 706/432/5 707/431/5 708/430/5
f 433/433/6 436/436/6 435/435/6 434/434/6
f 437/437/1 440/440/1 439/439/1 438/438/1
f 441/441/2 444/444/2 443/443/2 442/442/2
f 721/445/3 722/448/3 723/447/3 724/446/3
f 729/449/4 730/452/4 731/451/4 732/450/4
f 709/453/5 710/456/5 711/455/5 712/454/5
f 457/457/6 460/460/6 459/459/6 458/458/6
f 461/461/1 464/464/1 463/463/1 462/462/1
f 465/465/2 468/468/2 467/467/2 466/466/2
f 469/469/3 472/472/3 471/471/3 470/470/3
f 473/473/4 476/476/4 475/475/4 474/474/4
f 477/477/5 480/480/5 479/479/5 478/478/5
f 481/481/6 484/484/6 483/483/6 482/482/6
f 485/485/1 488/488/1 487/487/1 486/486/1
f 489/489/2 492/492/2 491/491/2 490/490/2
f 493/493/3 496/496/3 495/495/3 494/494/3
f 497/497/4 500/500/4 499/499/4 498/498/4
f 501/501/5 504/504/5 503/503/5 502/502/5
f 505/505/6 508/508/6 507/507/6 506/506/6
f 509/509/1 512/512/1 511/511/1 510/510/1
f 513/513/2 516/516/2 515/515/2 514/514/2
f 517/517/3 520/520/3 519/519/3 518/518/3
f 521/521/4 524/524/4 523/523/4 522/522/4
f 525/525/5 528/528/5 527/527/5 526/526/5
f 529/529/6 532/532/6 531/531/6 530/530/6
f 533/533/1 536/536/1 535/535/1 534/534/1
f 537/537/2 540/540/2 539/539/2 538/538/2
f 541/541/3 544/544/3 543/543/3 542/542/3
f 545/545/4 548/548/4 547/547/4 546/546/4
f 549/549/5 552/552/5 551/551/5 550/550/5
f 553/553/6 556/556/6 555/555/6 554/554/6
f 557/557/3 560/560/3 559/559/3 558/558/3
f 561/561/4 564/564/4 563/563/4 562/562/4
f 565/565/3 568/568/3 567/567/3 566/566/3
f 569/569/4 572/572/4 571/571/4 570/570/4
f 573/573/1 576/576/1 575/575/1 574/574/1
f 689/577/2 690/580/2 691/579/2 692/578/2
f 581/581/3 584/584/3 583/583/3 582/582/3
f 585/585/4 588/588/4 587/587/4 586/586/4
f 589/589/5 592/592/5 591/591/5 590/590/5
f 593/593/6 596/596/6 595/595/6 594/594/6
f 597/597/1 600/600/1 599/599/1 598/598/1
f 601/601/3 604/604/3 603/603/3 602/602/3
f 605/605/4 608/608/4 607/607/4 606/606/4
f 609/609/5 612/612/5 611/611/5 610/610/5
f 613/613/6 616/616/6 615/615/6 614/614/6
o Liquid
f 617/617/1 620/620/1 619/619/1 618/618/1
f 621/621/2 624/624/2 623/623/2 622/622/2
f 625/625/3 628/628/3 627/627/3 626/626/3
f 629/629/4 632/632/4 631/631/4 630/630/4
f 693/633/5 694/636/5 695/635/5 696/634/5
f 637/637/6 640/640/6 639/639/6 638/638/6
f 641/641/1 644/644/1 643/643/1 642/642/1
f 645/645/2 648/648/2 647/647/2 646/646/2
f 649/649/3 652/652/3 651/651/3 650/650/3
f 653/653/4 656/656/4 655/655/4 654/654/4
f 701/657/5 702/660/5 703/659/5 704/658/5
f 661/661/6 664/664/6 663/663/6 662/662/6
f 665/665/1 668/668/1 667/667/1 666/666/1
f 669/669/2 672/672/2 671/671/2 670/670/2
f 673/673/3 676/676/3 675/675/3 674/674/3
f 677/677/4 680/680/4 679/679/4 678/678/4
f 697/681/5 698/684/5 699/683/5 700/682/5
f 685/685/6 688/688/6 687/687/6 686/686/6
