# cutting_machine generated by machinegen.py
mtllib cutting_machine.mtl
v 2.000000 0.187500 0.000000
v 0.000000 0.187500 0.000000
v 0.000000 0.000000 0.000000
v 2.000000 0.000000 0.000000
v 0.000000 0.187500 3.000000
v 2.000000 0.187500 3.000000
v 2.000000 0.000000 3.000000
v 0.000000 0.000000 3.000000
v 0.000000 0.187500 0.000000
v 0.000000 0.187500 3.000000
v 0.000000 0.000000 3.000000
v 0.000000 0.000000 0.000000
v 2.000000 0.187500 3.000000
v 2.000000 0.187500 0.000000
v 2.000000 0.000000 0.000000
v 2.000000 0.000000 3.000000
v 0.000000 0.187500 0.000000
v 2.000000 0.187500 0.000000
v 2.000000 0.187500 3.000000
v 0.000000 0.187500 3.000000
v 0.187500 0.812500 0.000000
v 0.000000 0.812500 0.000000
v 0.000000 0.187500 0.000000
v 0.187500 0.187500 0.000000
v 0.000000 0.812500 0.187500
v 0.187500 0.812500 0.187500
v 0.187500 0.187500 0.187500
v 0.000000 0.187500 0.187500
v 0.000000 0.812500 0.000000
v 0.000000 0.812500 0.187500
v 0.000000 0.187500 0.187500
v 0.000000 0.187500 0.000000
v 0.187500 0.812500 0.187500
v 0.187500 0.812500 0.000000
v 0.187500 0.187500 0.000000
v 0.187500 0.187500 0.187500
v 2.000000 0.812500 0.000000
v 1.812500 0.812500 0.000000
v 1.812500 0.187500 0.000000
v 2.000000 0.187500 0.000000
v 1.812500 0.812500 0.187500
v 2.000000 0.812500 0.187500
v 2.000000 0.187500 0.187500
v 1.812500 0.187500 0.187500
v 1.812500 0.812500 0.000000
v 1.812500 0.812500 0.187500
v 1.812500 0.187500 0.187500
v 1.812500 0.187500 0.000000
v 2.000000 0.812500 0.187500
v 2.000000 0.812500 0.000000
v 2.000000 0.187500 0.000000
v 2.000000 0.187500 0.187500
v 0.187500 0.812500 2.812500
v 0.000000 0.812500 2.812500
v 0.000000 0.187500 2.812500
v 0.187500 0.187500 2.812500
v 0.000000 0.812500 3.000000
v 0.187500 0.812500 3.000000
v 0.187500 0.187500 3.000000
v 0.000000 0.187500 3.000000
v 0.000000 0.812500 2.812500
v 0.000000 0.812500 3.000000
v 0.000000 0.187500 3.000000
v 0.000000 0.187500 2.812500
v 0.187500 0.812500 3.000000
v 0.187500 0.812500 2.812500
v 0.187500 0.187500 2.812500
v 0.187500 0.187500 3.000000
v 2.000000 0.812500 2.812500
v 1.812500 0.812500 2.812500
v 1.812500 0.187500 2.812500
v 2.000000 0.187500 2.812500
v 1.812500 0.812500 3.000000
v 2.000000 0.812500 3.000000
v 2.000000 0.187500 3.000000
v 1.812500 0.187500 3.000000
v 1.812500 0.812500 2.812500
v 1.812500 0.812500 3.000000
v 1.812500 0.187500 3.000000
v 1.812500 0.187500 2.812500
v 2.000000 0.812500 3.000000
v 2.000000 0.812500 2.812500
v 2.000000 0.187500 2.812500
v 2.000000 0.187500 3.000000
v 0.125000 0.812500 0.875000
v 0.000000 0.812500 0.875000
v 0.000000 0.187500 0.875000
v 0.125000 0.187500 0.875000
v 0.000000 0.812500 1.000000
v 0.125000 0.812500 1.000000
v 0.125000 0.187500 1.000000
v 0.000000 0.187500 1.000000
v 0.000000 0.812500 0.875000
v 0.000000 0.812500 1.000000
v 0.000000 0.187500 1.000000
v 0.000000 0.187500 0.875000
v 0.125000 0.812500 1.000000
v 0.125000 0.812500 0.875000
v 0.125000 0.187500 0.875000
v 0.125000 0.187500 1.000000
v 0.125000 0.812500 2.000000
v 0.000000 0.812500 2.000000
v 0.000000 0.187500 2.000000
v 0.125000 0.187500 2.000000
v 0.000000 0.812500 2.125000
v 0.125000 0.812500 2.125000
v 0.125000 0.187500 2.125000
v 0.000000 0.187500 2.125000
v 0.000000 0.812500 2.000000
v 0.000000 0.812500 2.125000
v 0.000000 0.187500 2.125000
v 0.000000 0.187500 2.000000
v 0.125000 0.812500 2.125000
v 0.125000 0.812500 2.000000
v 0.125000 0.187500 2.000000
v 0.125000 0.187500 2.125000
v 2.000000 0.812500 1.000000
v 1.875000 0.812500 1.000000
v 1.875000 0.187500 1.000000
v 2.000000 0.187500 1.000000
v 1.875000 0.812500 1.187500
v 2.000000 0.812500 1.187500
v 2.000000 0.187500 1.187500
v 1.875000 0.187500 1.187500
v 1.875000 0.812500 1.000000
v 1.875000 0.812500 1.187500
v 1.875000 0.187500 1.187500
v 1.875000 0.187500 1.000000
v 2.000000 0.812500 1.187500
v 2.000000 0.812500 1.000000
v 2.000000 0.187500 1.000000
v 2.000000 0.187500 1.187500
v 2.000000 0.812500 1.812500
v 1.875000 0.812500 1.812500
v 1.875000 0.187500 1.812500
v 2.000000 0.187500 1.812500
v 1.875000 0.812500 2.000000
v 2.000000 0.812500 2.000000
v 2.000000 0.187500 2.000000
v 1.875000 0.187500 2.000000
v 1.875000 0.812500 1.812500
v 1.875000 0.812500 2.000000
v 1.875000 0.187500 2.000000
v 1.875000 0.187500 1.812500
v 2.000000 0.812500 2.000000
v 2.000000 0.812500 1.812500
v 2.000000 0.187500 1.812500
v 2.000000 0.187500 2.000000
v 1.937500 0.812500 0.062500
v 0.062500 0.812500 0.062500
v 0.062500 0.187500 0.062500
v 1.937500 0.187500 0.062500
v 0.062500 0.812500 2.937500
v 1.937500 0.812500 2.937500
v 1.937500 0.187500 2.937500
v 0.062500 0.187500 2.937500
v 0.062500 0.812500 0.062500
v 0.062500 0.812500 2.937500
v 0.062500 0.187500 2.937500
v 0.062500 0.187500 0.062500
v 1.937500 0.812500 2.937500
v 1.937500 0.812500 0.062500
v 1.937500 0.187500 0.062500
v 1.937500 0.187500 2.937500
v 0.062500 0.812500 0.062500
v 1.937500 0.812500 0.062500
v 1.937500 0.812500 2.937500
v 0.062500 0.812500 2.937500
v 0.062500 0.812500 1.000000
v 0.000000 0.812500 1.000000
v 0.000000 0.250000 1.000000
v 0.062500 0.250000 1.000000
v 0.000000 0.812500 2.000000
v 0.062500 0.812500 2.000000
v 0.062500 0.250000 2.000000
v 0.000000 0.250000 2.000000
v 0.000000 0.812500 1.000000
v 0.000000 0.812500 2.000000
v 0.000000 0.250000 2.000000
v 0.000000 0.250000 1.000000
v 0.000000 0.812500 1.000000
v 0.062500 0.812500 1.000000
v 0.062500 0.812500 2.000000
v 0.000000 0.812500 2.000000
v 0.687500 0.687500 0.000000
v 0.312500 0.687500 0.000000
v 0.312500 0.312500 0.000000
v 0.687500 0.312500 0.000000
v 0.312500 0.687500 0.000000
v 0.312500 0.687500 0.062500
v 0.312500 0.312500 0.062500
v 0.312500 0.312500 0.000000
v 0.687500 0.687500 0.062500
v 0.687500 0.687500 0.000000
v 0.687500 0.312500 0.000000
v 0.687500 0.312500 0.062500
v 0.312500 0.687500 0.000000
v 0.687500 0.687500 0.000000
v 0.687500 0.687500 0.062500
v 0.312500 0.687500 0.062500
v 0.312500 0.312500 0.062500
v 0.687500 0.312500 0.062500
v 0.687500 0.312500 0.000000
v 0.312500 0.312500 0.000000
v 0.312500 0.687500 3.000000
v 0.687500 0.687500 3.000000
v 0.687500 0.312500 3.000000
v 0.312500 0.312500 3.000000
v 0.312500 0.687500 2.937500
v 0.312500 0.687500 3.000000
v 0.312500 0.312500 3.000000
v 0.312500 0.312500 2.937500
v 0.687500 0.687500 3.000000
v 0.687500 0.687500 2.937500
v 0.687500 0.312500 2.937500
v 0.687500 0.312500 3.000000
v 0.312500 0.687500 2.937500
v 0.687500 0.687500 2.937500
v 0.687500 0.687500 3.000000
v 0.312500 0.687500 3.000000
v 0.312500 0.312500 3.000000
v 0.687500 0.312500 3.000000
v 0.687500 0.312500 2.937500
v 0.312500 0.312500 2.937500
v 1.312500 0.687500 3.000000
v 1.687500 0.687500 3.000000
v 1.687500 0.312500 3.000000
v 1.312500 0.312500 3.000000
v 1.312500 0.687500 2.937500
v 1.312500 0.687500 3.000000
v 1.312500 0.312500 3.000000
v 1.312500 0.312500 2.937500
v 1.687500 0.687500 3.000000
v 1.687500 0.687500 2.937500
v 1.687500 0.312500 2.937500
v 1.687500 0.312500 3.000000
v 1.312500 0.687500 2.937500
v 1.687500 0.687500 2.937500
v 1.687500 0.687500 3.000000
v 1.312500 0.687500 3.000000
v 1.312500 0.312500 3.000000
v 1.687500 0.312500 3.000000
v 1.687500 0.312500 2.937500
v 1.312500 0.312500 2.937500
v 2.000000 1.000000 0.000000
v 0.000000 1.000000 0.000000
v 0.000000 0.812500 0.000000
v 2.000000 0.812500 0.000000
v 0.000000 1.000000 0.937500
v 2.000000 1.000000 0.937500
v 2.000000 0.812500 0.937500
v 0.000000 0.812500 0.937500
v 0.000000 1.000000 0.000000
v 0.000000 1.000000 0.937500
v 0.000000 0.812500 0.937500
v 0.000000 0.812500 0.000000
v 2.000000 1.000000 0.937500
v 2.000000 1.000000 0.000000
v 2.000000 0.812500 0.000000
v 2.000000 0.812500 0.937500
v 0.000000 1.000000 0.000000
v 2.000000 1.000000 0.000000
v 2.000000 1.000000 0.937500
v 0.000000 1.000000 0.937500
v 2.000000 1.000000 2.062500
v 0.000000 1.000000 2.062500
v 0.000000 0.812500 2.062500
v 2.000000 0.812500 2.062500
v 0.000000 1.000000 3.000000
v 2.000000 1.000000 3.000000
v 2.000000 0.812500 3.000000
v 0.000000 0.812500 3.000000
v 0.000000 1.000000 2.062500
v 0.000000 1.000000 3.000000
v 0.000000 0.812500 3.000000
v 0.000000 0.812500 2.062500
v 2.000000 1.000000 3.000000
v 2.000000 1.000000 2.062500
v 2.000000 0.812500 2.062500
v 2.000000 0.812500 3.000000
v 0.000000 1.000000 2.062500
v 2.000000 1.000000 2.062500
v 2.000000 1.000000 3.000000
v 0.000000 1.000000 3.000000
v 0.000000 1.000000 0.937500
v 0.000000 1.000000 2.062500
v 0.000000 0.812500 2.062500
v 0.000000 0.812500 0.937500
v 0.906250 1.000000 2.062500
v 0.906250 1.000000 0.937500
v 0.906250 0.812500 0.937500
v 0.906250 0.812500 2.062500
v 0.000000 1.000000 0.937500
v 0.906250 1.000000 0.937500
v 0.906250 1.000000 2.062500
v 0.000000 1.000000 2.062500
v 1.093750 1.000000 0.937500
v 1.093750 1.000000 2.062500
v 1.093750 0.812500 2.062500
v 1.093750 0.812500 0.937500
v 2.000000 1.000000 2.062500
v 2.000000 1.000000 0.937500
v 2.000000 0.812500 0.937500
v 2.000000 0.812500 2.062500
v 1.093750 1.000000 0.937500
v 2.000000 1.000000 0.937500
v 2.000000 1.000000 2.062500
v 1.093750 1.000000 2.062500
v 0.906250 1.031250 0.875000
v 0.843750 1.031250 0.875000
v 0.843750 1.000000 0.875000
v 0.906250 1.000000 0.875000
v 0.843750 1.031250 2.125000
v 0.906250 1.031250 2.125000
v 0.906250 1.000000 2.125000
v 0.843750 1.000000 2.125000
v 0.843750 1.031250 0.875000
v 0.843750 1.031250 2.125000
v 0.843750 1.000000 2.125000
v 0.843750 1.000000 0.875000
v 0.906250 1.031250 2.125000
v 0.906250 1.031250 0.875000
v 0.906250 1.000000 0.875000
v 0.906250 1.000000 2.125000
v 0.843750 1.031250 0.875000
v 0.906250 1.031250 0.875000
v 0.906250 1.031250 2.125000
v 0.843750 1.031250 2.125000
v 1.156250 1.031250 0.875000
v 1.093750 1.031250 0.875000
v 1.093750 1.000000 0.875000
v 1.156250 1.000000 0.875000
v 1.093750 1.031250 2.125000
v 1.156250 1.031250 2.125000
v 1.156250 1.000000 2.125000
v 1.093750 1.000000 2.125000
v 1.093750 1.031250 0.875000
v 1.093750 1.031250 2.125000
v 1.093750 1.000000 2.125000
v 1.093750 1.000000 0.875000
v 1.156250 1.031250 2.125000
v 1.156250 1.031250 0.875000
v 1.156250 1.000000 0.875000
v 1.156250 1.000000 2.125000
v 1.093750 1.031250 0.875000
v 1.156250 1.031250 0.875000
v 1.156250 1.031250 2.125000
v 1.093750 1.031250 2.125000
v 0.687500 1.125000 0.875000
v 0.562500 1.125000 0.875000
v 0.562500 1.000000 0.875000
v 0.687500 1.000000 0.875000
v 0.562500 1.125000 2.187500
v 0.687500 1.125000 2.187500
v 0.687500 1.000000 2.187500
v 0.562500 1.000000 2.187500
v 0.562500 1.125000 0.875000
v 0.562500 1.125000 2.187500
v 0.562500 1.000000 2.187500
v 0.562500 1.000000 0.875000
v 0.687500 1.125000 2.187500
v 0.687500 1.125000 0.875000
v 0.687500 1.000000 0.875000
v 0.687500 1.000000 2.187500
v 0.562500 1.125000 0.875000
v 0.687500 1.125000 0.875000
v 0.687500 1.125000 2.187500
v 0.562500 1.125000 2.187500
v 1.437500 1.125000 0.875000
v 1.312500 1.125000 0.875000
v 1.312500 1.000000 0.875000
v 1.437500 1.000000 0.875000
v 1.312500 1.125000 2.187500
v 1.437500 1.125000 2.187500
v 1.437500 1.000000 2.187500
v 1.312500 1.000000 2.187500
v 1.312500 1.125000 0.875000
v 1.312500 1.125000 2.187500
v 1.312500 1.000000 2.187500
v 1.312500 1.000000 0.875000
v 1.437500 1.125000 2.187500
v 1.437500 1.125000 0.875000
v 1.437500 1.000000 0.875000
v 1.437500 1.000000 2.187500
v 1.312500 1.125000 0.875000
v 1.437500 1.125000 0.875000
v 1.437500 1.125000 2.187500
v 1.312500 1.125000 2.187500
v 0.312500 1.375000 0.125000
v 0.187500 1.375000 0.125000
v 0.187500 1.000000 0.125000
v 0.312500 1.000000 0.125000
v 0.187500 1.375000 0.250000
v 0.312500 1.375000 0.250000
v 0.312500 1.000000 0.250000
v 0.187500 1.000000 0.250000
v 0.187500 1.375000 0.125000
v 0.187500 1.375000 0.250000
v 0.187500 1.000000 0.250000
v 0.187500 1.000000 0.125000
v 0.312500 1.375000 0.250000
v 0.312500 1.375000 0.125000
v 0.312500 1.000000 0.125000
v 0.312500 1.000000 0.250000
v 1.812500 1.375000 0.125000
v 1.687500 1.375000 0.125000
v 1.687500 1.000000 0.125000
v 1.812500 1.000000 0.125000
v 1.687500 1.375000 0.250000
v 1.812500 1.375000 0.250000
v 1.812500 1.000000 0.250000
v 1.687500 1.000000 0.250000
v 1.687500 1.375000 0.125000
v 1.687500 1.375000 0.250000
v 1.687500 1.000000 0.250000
v 1.687500 1.000000 0.125000
v 1.812500 1.375000 0.250000
v 1.812500 1.375000 0.125000
v 1.812500 1.000000 0.125000
v 1.812500 1.000000 0.250000
v 0.312500 1.375000 0.812500
v 0.187500 1.375000 0.812500
v 0.187500 1.000000 0.812500
v 0.312500 1.000000 0.812500
v 0.187500 1.375000 0.937500
v 0.312500 1.375000 0.937500
v 0.312500 1.000000 0.937500
v 0.187500 1.000000 0.937500
v 0.187500 1.375000 0.812500
v 0.187500 1.375000 0.937500
v 0.187500 1.000000 0.937500
v 0.187500 1.000000 0.812500
v 0.312500 1.375000 0.937500
v 0.312500 1.375000 0.812500
v 0.312500 1.000000 0.812500
v 0.312500 1.000000 0.937500
v 1.812500 1.375000 0.812500
v 1.687500 1.375000 0.812500
v 1.687500 1.000000 0.812500
v 1.812500 1.000000 0.812500
v 1.687500 1.375000 0.937500
v 1.812500 1.375000 0.937500
v 1.812500 1.000000 0.937500
v 1.687500 1.000000 0.937500
v 1.687500 1.375000 0.812500
v 1.687500 1.375000 0.937500
v 1.687500 1.000000 0.937500
v 1.687500 1.000000 0.812500
v 1.812500 1.375000 0.937500
v 1.812500 1.375000 0.812500
v 1.812500 1.000000 0.812500
v 1.812500 1.000000 0.937500
v 1.812500 1.500000 0.125000
v 0.187500 1.500000 0.125000
v 0.187500 1.375000 0.125000
v 1.812500 1.375000 0.125000
v 0.187500 1.500000 0.937500
v 1.812500 1.500000 0.937500
v 1.812500 1.375000 0.937500
v 0.187500 1.375000 0.937500
v 0.187500 1.500000 0.125000
v 0.187500 1.500000 0.937500
v 0.187500 1.375000 0.937500
v 0.187500 1.375000 0.125000
v 1.812500 1.500000 0.937500
v 1.812500 1.500000 0.125000
v 1.812500 1.375000 0.125000
v 1.812500 1.375000 0.937500
v 0.187500 1.500000 0.125000
v 1.812500 1.500000 0.125000
v 1.812500 1.500000 0.937500
v 0.187500 1.500000 0.937500
v 0.187500 1.375000 0.937500
v 1.812500 1.375000 0.937500
v 1.812500 1.375000 0.125000
v 0.187500 1.375000 0.125000
v 1.500000 1.531250 0.312500
v 0.500000 1.531250 0.312500
v 0.500000 1.500000 0.312500
v 1.500000 1.500000 0.312500
v 0.500000 1.531250 0.750000
v 1.500000 1.531250 0.750000
v 1.500000 1.500000 0.750000
v 0.500000 1.500000 0.750000
v 0.500000 1.531250 0.312500
v 0.500000 1.531250 0.750000
v 0.500000 1.500000 0.750000
v 0.500000 1.500000 0.312500
v 1.500000 1.531250 0.750000
v 1.500000 1.531250 0.312500
v 1.500000 1.500000 0.312500
v 1.500000 1.500000 0.750000
v 0.500000 1.531250 0.312500
v 1.500000 1.531250 0.312500
v 1.500000 1.531250 0.750000
v 0.500000 1.531250 0.750000
v 0.218750 1.375000 0.250000
v 0.218750 1.375000 0.812500
v 0.218750 1.000000 0.812500
v 0.218750 1.000000 0.250000
v 0.250000 1.375000 0.812500
v 0.250000 1.375000 0.250000
v 0.250000 1.000000 0.250000
v 0.250000 1.000000 0.812500
v 1.750000 1.375000 0.250000
v 1.750000 1.375000 0.812500
v 1.750000 1.000000 0.812500
v 1.750000 1.000000 0.250000
v 1.781250 1.375000 0.812500
v 1.781250 1.375000 0.250000
v 1.781250 1.000000 0.250000
v 1.781250 1.000000 0.812500
v 1.750000 1.562500 0.187500
v 1.562500 1.562500 0.187500
v 1.562500 1.500000 0.187500
v 1.750000 1.500000 0.187500
v 1.562500 1.562500 0.375000
v 1.750000 1.562500 0.375000
v 1.750000 1.500000 0.375000
v 1.562500 1.500000 0.375000
v 1.562500 1.562500 0.187500
v 1.562500 1.562500 0.375000
v 1.562500 1.500000 0.375000
v 1.562500 1.500000 0.187500
v 1.750000 1.562500 0.375000
v 1.750000 1.562500 0.187500
v 1.750000 1.500000 0.187500
v 1.750000 1.500000 0.375000
v 1.562500 1.562500 0.187500
v 1.750000 1.562500 0.187500
v 1.750000 1.562500 0.375000
v 1.562500 1.562500 0.375000
v 0.562500 1.375000 2.125000
v 0.437500 1.375000 2.125000
v 0.437500 1.000000 2.125000
v 0.562500 1.000000 2.125000
v 0.437500 1.375000 2.250000
v 0.562500 1.375000 2.250000
v 0.562500 1.000000 2.250000
v 0.437500 1.000000 2.250000
v 0.437500 1.375000 2.125000
v 0.437500 1.375000 2.250000
v 0.437500 1.000000 2.250000
v 0.437500 1.000000 2.125000
v 0.562500 1.375000 2.250000
v 0.562500 1.375000 2.125000
v 0.562500 1.000000 2.125000
v 0.562500 1.000000 2.250000
v 1.562500 1.375000 2.125000
v 1.437500 1.375000 2.125000
v 1.437500 1.000000 2.125000
v 1.562500 1.000000 2.125000
v 1.437500 1.375000 2.250000
v 1.562500 1.375000 2.250000
v 1.562500 1.000000 2.250000
v 1.437500 1.000000 2.250000
v 1.437500 1.375000 2.125000
v 1.437500 1.375000 2.250000
v 1.437500 1.000000 2.250000
v 1.437500 1.000000 2.125000
v 1.562500 1.375000 2.250000
v 1.562500 1.375000 2.125000
v 1.562500 1.000000 2.125000
v 1.562500 1.000000 2.250000
v 0.562500 1.375000 2.875000
v 0.437500 1.375000 2.875000
v 0.437500 1.000000 2.875000
v 0.562500 1.000000 2.875000
v 0.437500 1.375000 3.000000
v 0.562500 1.375000 3.000000
v 0.562500 1.000000 3.000000
v 0.437500 1.000000 3.000000
v 0.437500 1.375000 2.875000
v 0.437500 1.375000 3.000000
v 0.437500 1.000000 3.000000
v 0.437500 1.000000 2.875000
v 0.562500 1.375000 3.000000
v 0.562500 1.375000 2.875000
v 0.562500 1.000000 2.875000
v 0.562500 1.000000 3.000000
v 1.562500 1.375000 2.875000
v 1.437500 1.375000 2.875000
v 1.437500 1.000000 2.875000
v 1.562500 1.000000 2.875000
v 1.437500 1.375000 3.000000
v 1.562500 1.375000 3.000000
v 1.562500 1.000000 3.000000
v 1.437500 1.000000 3.000000
v 1.437500 1.375000 2.875000
v 1.437500 1.375000 3.000000
v 1.437500 1.000000 3.000000
v 1.437500 1.000000 2.875000
v 1.562500 1.375000 3.000000
v 1.562500 1.375000 2.875000
v 1.562500 1.000000 2.875000
v 1.562500 1.000000 3.000000
v 0.437500 1.375000 2.250000
v 0.437500 1.375000 2.875000
v 0.437500 1.250000 2.875000
v 0.437500 1.250000 2.250000
v 0.562500 1.375000 2.875000
v 0.562500 1.375000 2.250000
v 0.562500 1.250000 2.250000
v 0.562500 1.250000 2.875000
v 0.437500 1.375000 2.250000
v 0.562500 1.375000 2.250000
v 0.562500 1.375000 2.875000
v 0.437500 1.375000 2.875000
v 1.437500 1.375000 2.250000
v 1.437500 1.375000 2.875000
v 1.437500 1.250000 2.875000
v 1.437500 1.250000 2.250000
v 1.562500 1.375000 2.875000
v 1.562500 1.375000 2.250000
v 1.562500 1.250000 2.250000
v 1.562500 1.250000 2.875000
v 1.437500 1.375000 2.250000
v 1.562500 1.375000 2.250000
v 1.562500 1.375000 2.875000
v 1.437500 1.375000 2.875000
v 1.437500 1.375000 2.875000
v 0.562500 1.375000 2.875000
v 0.562500 1.250000 2.875000
v 1.437500 1.250000 2.875000
v 0.562500 1.375000 3.000000
v 1.437500 1.375000 3.000000
v 1.437500 1.250000 3.000000
v 0.562500 1.250000 3.000000
v 0.562500 1.375000 2.875000
v 1.437500 1.375000 2.875000
v 1.437500 1.375000 3.000000
v 0.562500 1.375000 3.000000
v 1.437500 1.375000 2.125000
v 0.562500 1.375000 2.125000
v 0.562500 1.312500 2.125000
v 1.437500 1.312500 2.125000
v 0.562500 1.375000 2.250000
v 1.437500 1.375000 2.250000
v 1.437500 1.312500 2.250000
v 0.562500 1.312500 2.250000
v 0.562500 1.375000 2.125000
v 1.437500 1.375000 2.125000
v 1.437500 1.375000 2.250000
v 0.562500 1.375000 2.250000
v 0.562500 1.312500 2.250000
v 1.437500 1.312500 2.250000
v 1.437500 1.312500 2.125000
v 0.562500 1.312500 2.125000
v 0.562500 1.031250 2.250000
v 1.437500 1.031250 2.250000
v 1.437500 1.031250 2.875000
v 0.562500 1.031250 2.875000
v 0.468750 1.250000 2.250000
v 0.468750 1.250000 2.875000
v 0.468750 1.000000 2.875000
v 0.468750 1.000000 2.250000
v 0.500000 1.250000 2.875000
v 0.500000 1.250000 2.250000
v 0.500000 1.000000 2.250000
v 0.500000 1.000000 2.875000
v 1.500000 1.250000 2.250000
v 1.500000 1.250000 2.875000
v 1.500000 1.000000 2.875000
v 1.500000 1.000000 2.250000
v 1.531250 1.250000 2.875000
v 1.531250 1.250000 2.250000
v 1.531250 1.000000 2.250000
v 1.531250 1.000000 2.875000
v 1.437500 1.250000 2.937500
v 0.562500 1.250000 2.937500
v 0.562500 1.000000 2.937500
v 1.437500 1.000000 2.937500
v 0.562500 1.250000 2.968750
v 1.437500 1.250000 2.968750
v 1.437500 1.000000 2.968750
v 0.562500 1.000000 2.968750
v 0.375000 1.187500 2.312500
v 0.062500 1.187500 2.312500
v 0.062500 1.000000 2.312500
v 0.375000 1.000000 2.312500
v 0.062500 1.187500 2.812500
v 0.375000 1.187500 2.812500
v 0.375000 1.000000 2.812500
v 0.062500 1.000000 2.812500
v 0.062500 1.187500 2.312500
v 0.062500 1.187500 2.812500
v 0.062500 1.000000 2.812500
v 0.062500 1.000000 2.312500
v 0.375000 1.187500 2.812500
v 0.375000 1.187500 2.312500
v 0.375000 1.000000 2.312500
v 0.375000 1.000000 2.812500
v 0.062500 1.187500 2.312500
v 0.375000 1.187500 2.312500
v 0.375000 1.187500 2.812500
v 0.062500 1.187500 2.812500
v 0.375000 1.250000 2.312500
v 0.187500 1.250000 2.312500
v 0.187500 1.187500 2.312500
v 0.375000 1.187500 2.312500
v 0.187500 1.250000 2.812500
v 0.375000 1.250000 2.812500
v 0.375000 1.187500 2.812500
v 0.187500 1.187500 2.812500
v 0.187500 1.250000 2.312500
v 0.187500 1.250000 2.812500
v 0.187500 1.187500 2.812500
v 0.187500 1.187500 2.312500
v 0.375000 1.250000 2.812500
v 0.375000 1.250000 2.312500
v 0.375000 1.187500 2.312500
v 0.375000 1.187500 2.812500
v 0.187500 1.250000 2.312500
v 0.375000 1.250000 2.312500
v 0.375000 1.250000 2.812500
v 0.187500 1.250000 2.812500
v 1.062500 1.375000 1.125000
v 0.937500 1.375000 1.125000
v 0.937500 0.625000 1.125000
v 1.062500 0.625000 1.125000
v 0.937500 1.375000 1.875000
v 1.062500 1.375000 1.875000
v 1.062500 0.625000 1.875000
v 0.937500 0.625000 1.875000
v 0.937500 1.375000 1.125000
v 0.937500 1.375000 1.875000
v 0.937500 0.625000 1.875000
v 0.937500 0.625000 1.125000
v 1.062500 1.375000 1.875000
v 1.062500 1.375000 1.125000
v 1.062500 0.625000 1.125000
v 1.062500 0.625000 1.875000
v 0.937500 1.375000 1.125000
v 1.062500 1.375000 1.125000
v 1.062500 1.375000 1.875000
v 0.937500 1.375000 1.875000
v 0.937500 0.625000 1.875000
v 1.062500 0.625000 1.875000
v 1.062500 0.625000 1.125000
v 0.937500 0.625000 1.125000
v 1.031250 1.187500 1.000000
v 0.968750 1.187500 1.000000
v 0.968750 0.812500 1.000000
v 1.031250 0.812500 1.000000
v 0.968750 1.187500 2.000000
v 1.031250 1.187500 2.000000
v 1.031250 0.812500 2.000000
v 0.968750 0.812500 2.000000
v 0.968750 1.187500 1.000000
v 0.968750 1.187500 2.000000
v 0.968750 0.812500 2.000000
v 0.968750 0.812500 1.000000
v 1.031250 1.187500 2.000000
v 1.031250 1.187500 1.000000
v 1.031250 0.812500 1.000000
v 1.031250 0.812500 2.000000
v 0.968750 1.187500 1.000000
v 1.031250 1.187500 1.000000
v 1.031250 1.187500 2.000000
v 0.968750 1.187500 2.000000
v 0.968750 0.812500 2.000000
v 1.031250 0.812500 2.000000
v 1.031250 0.812500 1.000000
v 0.968750 0.812500 1.000000
v 1.031250 1.500000 1.312500
v 0.968750 1.500000 1.312500
v 0.968750 0.500000 1.312500
v 1.031250 0.500000 1.312500
v 0.968750 1.500000 1.687500
v 1.031250 1.500000 1.687500
v 1.031250 0.500000 1.687500
v 0.968750 0.500000 1.687500
v 0.968750 1.500000 1.312500
v 0.968750 1.500000 1.687500
v 0.968750 0.500000 1.687500
v 0.968750 0.500000 1.312500
v 1.031250 1.500000 1.687500
v 1.031250 1.500000 1.312500
v 1.031250 0.500000 1.312500
v 1.031250 0.500000 1.687500
v 0.968750 1.500000 1.312500
v 1.031250 1.500000 1.312500
v 1.031250 1.500000 1.687500
v 0.968750 1.500000 1.687500
v 0.968750 0.500000 1.687500
v 1.031250 0.500000 1.687500
v 1.031250 0.500000 1.312500
v 0.968750 0.500000 1.312500
v 0.964750 1.500000 1.312500
v 0.964750 0.500000 1.312500
v 0.964750 0.500000 1.687500
v 0.964750 1.500000 1.687500
v 1.035250 1.500000 1.687500
v 1.035250 0.500000 1.687500
v 1.035250 0.500000 1.312500
v 1.035250 1.500000 1.312500
vt 0.710938 0.445312
vt 0.960938 0.445312
vt 0.960938 0.421875
vt 0.710938 0.421875
vt 0.710938 0.445312
vt 0.960938 0.445312
vt 0.960938 0.421875
vt 0.710938 0.421875
vt 0.335938 0.445312
vt 0.710938 0.445312
vt 0.710938 0.421875
vt 0.335938 0.421875
vt 0.335938 0.445312
vt 0.710938 0.445312
vt 0.710938 0.421875
vt 0.335938 0.421875
vt 0.000000 1.000000
vt 0.250000 1.000000
vt 0.250000 0.625000
vt 0.000000 0.625000
vt 0.953125 1.000000
vt 0.976562 1.000000
vt 0.976562 0.921875
vt 0.953125 0.921875
vt 0.953125 1.000000
vt 0.976562 1.000000
vt 0.976562 0.921875
vt 0.953125 0.921875
vt 0.953125 1.000000
vt 0.976562 1.000000
vt 0.976562 0.921875
vt 0.953125 0.921875
vt 0.953125 1.000000
vt 0.976562 1.000000
vt 0.976562 0.921875
vt 0.953125 0.921875
vt 0.953125 1.000000
vt 0.976562 1.000000
vt 0.976562 0.921875
vt 0.953125 0.921875
vt 0.953125 1.000000
vt 0.976562 1.000000
vt 0.976562 0.921875
vt 0.953125 0.921875
vt 0.953125 1.000000
vt 0.976562 1.000000
vt 0.976562 0.921875
vt 0.953125 0.921875
vt 0.953125 1.000000
vt 0.976562 1.000000
vt 0.976562 0.921875
vt 0.953125 0.921875
vt 0.953125 1.000000
vt 0.976562 1.000000
vt 0.976562 0.921875
vt 0.953125 0.921875
vt 0.953125 1.000000
vt 0.976562 1.000000
vt 0.976562 0.921875
vt 0.953125 0.921875
vt 0.953125 1.000000
vt 0.976562 1.000000
vt 0.976562 0.921875
vt 0.953125 0.921875
vt 0.953125 1.000000
vt 0.976562 1.000000
vt 0.976562 0.921875
vt 0.953125 0.921875
vt 0.953125 1.000000
vt 0.976562 1.000000
vt 0.976562 0.921875
vt 0.953125 0.921875
vt 0.953125 1.000000
vt 0.976562 1.000000
vt 0.976562 0.921875
vt 0.953125 0.921875
vt 0.953125 1.000000
vt 0.976562 1.000000
vt 0.976562 0.921875
vt 0.953125 0.921875
vt 0.953125 1.000000
vt 0.976562 1.000000
vt 0.976562 0.921875
vt 0.953125 0.921875
vt 0.976562 1.000000
vt 0.992188 1.000000
vt 0.992188 0.921875
vt 0.976562 0.921875
vt 0.976562 1.000000
vt 0.992188 1.000000
vt 0.992188 0.921875
vt 0.976562 0.921875
vt 0.976562 1.000000
vt 0.992188 1.000000
vt 0.992188 0.921875
vt 0.976562 0.921875
vt 0.976562 1.000000
vt 0.992188 1.000000
vt 0.992188 0.921875
vt 0.976562 0.921875
vt 0.976562 1.000000
vt 0.992188 1.000000
vt 0.992188 0.921875
vt 0.976562 0.921875
vt 0.976562 1.000000
vt 0.992188 1.000000
vt 0.992188 0.921875
vt 0.976562 0.921875
vt 0.976562 1.000000
vt 0.992188 1.000000
vt 0.992188 0.921875
vt 0.976562 0.921875
vt 0.976562 1.000000
vt 0.992188 1.000000
vt 0.992188 0.921875
vt 0.976562 0.921875
vt 0.976562 1.000000
vt 0.992188 1.000000
vt 0.992188 0.921875
vt 0.976562 0.921875
vt 0.976562 1.000000
vt 0.992188 1.000000
vt 0.992188 0.921875
vt 0.976562 0.921875
vt 0.953125 1.000000
vt 0.976562 1.000000
vt 0.976562 0.921875
vt 0.953125 0.921875
vt 0.953125 1.000000
vt 0.976562 1.000000
vt 0.976562 0.921875
vt 0.953125 0.921875
vt 0.976562 1.000000
vt 0.992188 1.000000
vt 0.992188 0.921875
vt 0.976562 0.921875
vt 0.976562 1.000000
vt 0.992188 1.000000
vt 0.992188 0.921875
vt 0.976562 0.921875
vt 0.953125 1.000000
vt 0.976562 1.000000
vt 0.976562 0.921875
vt 0.953125 0.921875
vt 0.953125 1.000000
vt 0.976562 1.000000
vt 0.976562 0.921875
vt 0.953125 0.921875
vt 0.359375 0.523438
vt 0.593750 0.523438
vt 0.593750 0.445312
vt 0.359375 0.445312
vt 0.359375 0.523438
vt 0.593750 0.523438
vt 0.593750 0.445312
vt 0.359375 0.445312
vt 0.500000 0.625000
vt 0.859375 0.625000
vt 0.859375 0.546875
vt 0.500000 0.546875
vt 0.000000 0.523438
vt 0.359375 0.523438
vt 0.359375 0.445312
vt 0.000000 0.445312
vt 0.250000 1.000000
vt 0.484375 1.000000
vt 0.484375 0.640625
vt 0.250000 0.640625
vt 0.992188 1.000000
vt 1.000000 1.000000
vt 1.000000 0.929688
vt 0.992188 0.929688
vt 0.992188 1.000000
vt 1.000000 1.000000
vt 1.000000 0.929688
vt 0.992188 0.929688
vt 0.593750 0.523438
vt 0.718750 0.523438
vt 0.718750 0.453125
vt 0.593750 0.453125
vt 0.671875 1.000000
vt 0.679688 1.000000
vt 0.679688 0.875000
vt 0.671875 0.875000
vt 0.953125 0.523438
vt 1.000000 0.523438
vt 1.000000 0.476562
vt 0.953125 0.476562
vt 0.992188 0.625000
vt 1.000000 0.625000
vt 1.000000 0.578125
vt 0.992188 0.578125
vt 0.992188 0.625000
vt 1.000000 0.625000
vt 1.000000 0.578125
vt 0.992188 0.578125
vt 0.117188 0.359375
vt 0.164062 0.359375
vt 0.164062 0.351562
vt 0.117188 0.351562
vt 0.117188 0.359375
vt 0.164062 0.359375
vt 0.164062 0.351562
vt 0.117188 0.351562
vt 0.953125 0.523438
vt 1.000000 0.523438
vt 1.000000 0.476562
vt 0.953125 0.476562
vt 0.992188 0.625000
vt 1.000000 0.625000
vt 1.000000 0.578125
vt 0.992188 0.578125
vt 0.992188 0.625000
vt 1.000000 0.625000
vt 1.000000 0.578125
vt 0.992188 0.578125
vt 0.117188 0.359375
vt 0.164062 0.359375
vt 0.164062 0.351562
vt 0.117188 0.351562
vt 0.117188 0.359375
vt 0.164062 0.359375
vt 0.164062 0.351562
vt 0.117188 0.351562
vt 0.953125 0.523438
vt 1.000000 0.523438
vt 1.000000 0.476562
vt 0.953125 0.476562
vt 0.992188 0.625000
vt 1.000000 0.625000
vt 1.000000 0.578125
vt 0.992188 0.578125
vt 0.992188 0.625000
vt 1.000000 0.625000
vt 1.000000 0.578125
vt 0.992188 0.578125
vt 0.117188 0.359375
vt 0.164062 0.359375
vt 0.164062 0.351562
vt 0.117188 0.351562
vt 0.117188 0.359375
vt 0.164062 0.359375
vt 0.164062 0.351562
vt 0.117188 0.351562
vt 0.000000 0.398438
vt 0.250000 0.398438
vt 0.250000 0.375000
vt 0.000000 0.375000
vt 0.000000 0.398438
vt 0.250000 0.398438
vt 0.250000 0.375000
vt 0.000000 0.375000
vt 0.390625 0.398438
vt 0.507812 0.398438
vt 0.507812 0.375000
vt 0.390625 0.375000
vt 0.390625 0.398438
vt 0.507812 0.398438
vt 0.507812 0.375000
vt 0.390625 0.375000
vt 0.687500 1.000000
vt 0.937500 1.000000
vt 0.937500 0.882812
vt 0.687500 0.882812
vt 0.000000 0.398438
vt 0.250000 0.398438
vt 0.250000 0.375000
vt 0.000000 0.375000
vt 0.000000 0.398438
vt 0.250000 0.398438
vt 0.250000 0.375000
vt 0.000000 0.375000
vt 0.390625 0.398438
vt 0.507812 0.398438
vt 0.507812 0.375000
vt 0.390625 0.375000
vt 0.390625 0.398438
vt 0.507812 0.398438
vt 0.507812 0.375000
vt 0.390625 0.375000
vt 0.687500 1.000000
vt 0.937500 1.000000
vt 0.937500 0.882812
vt 0.687500 0.882812
vt 0.250000 0.398438
vt 0.390625 0.398438
vt 0.390625 0.375000
vt 0.250000 0.375000
vt 0.250000 0.398438
vt 0.390625 0.398438
vt 0.390625 0.375000
vt 0.250000 0.375000
vt 0.507812 1.000000
vt 0.625000 1.000000
vt 0.625000 0.859375
vt 0.507812 0.859375
vt 0.250000 0.398438
vt 0.390625 0.398438
vt 0.390625 0.375000
vt 0.250000 0.375000
vt 0.250000 0.398438
vt 0.390625 0.398438
vt 0.390625 0.375000
vt 0.250000 0.375000
vt 0.507812 1.000000
vt 0.625000 1.000000
vt 0.625000 0.859375
vt 0.507812 0.859375
vt 0.984375 0.398438
vt 0.992188 0.398438
vt 0.992188 0.390625
vt 0.984375 0.390625
vt 0.984375 0.398438
vt 0.992188 0.398438
vt 0.992188 0.390625
vt 0.984375 0.390625
vt 0.546875 0.375000
vt 0.703125 0.375000
vt 0.703125 0.367188
vt 0.546875 0.367188
vt 0.546875 0.375000
vt 0.703125 0.375000
vt 0.703125 0.367188
vt 0.546875 0.367188
vt 0.500000 1.000000
vt 0.507812 1.000000
vt 0.507812 0.843750
vt 0.500000 0.843750
vt 0.984375 0.398438
vt 0.992188 0.398438
vt 0.992188 0.390625
vt 0.984375 0.390625
vt 0.984375 0.398438
vt 0.992188 0.398438
vt 0.992188 0.390625
vt 0.984375 0.390625
vt 0.546875 0.375000
vt 0.703125 0.375000
vt 0.703125 0.367188
vt 0.546875 0.367188
vt 0.546875 0.375000
vt 0.703125 0.375000
vt 0.703125 0.367188
vt 0.546875 0.367188
vt 0.500000 1.000000
vt 0.507812 1.000000
vt 0.507812 0.843750
vt 0.500000 0.843750
vt 0.968750 0.398438
vt 0.984375 0.398438
vt 0.984375 0.382812
vt 0.968750 0.382812
vt 0.968750 0.398438
vt 0.984375 0.398438
vt 0.984375 0.382812
vt 0.968750 0.382812
vt 0.203125 0.375000
vt 0.367188 0.375000
vt 0.367188 0.359375
vt 0.203125 0.359375
vt 0.203125 0.375000
vt 0.367188 0.375000
vt 0.367188 0.359375
vt 0.203125 0.359375
vt 0.484375 1.000000
vt 0.500000 1.000000
vt 0.500000 0.835938
vt 0.484375 0.835938
vt 0.968750 0.398438
vt 0.984375 0.398438
vt 0.984375 0.382812
vt 0.968750 0.382812
vt 0.968750 0.398438
vt 0.984375 0.398438
vt 0.984375 0.382812
vt 0.968750 0.382812
vt 0.203125 0.375000
vt 0.367188 0.375000
vt 0.367188 0.359375
vt 0.203125 0.359375
vt 0.203125 0.375000
vt 0.367188 0.375000
vt 0.367188 0.359375
vt 0.203125 0.359375
vt 0.484375 1.000000
vt 0.500000 1.000000
vt 0.500000 0.835938
vt 0.484375 0.835938
vt 0.125000 0.445312
vt 0.140625 0.445312
vt 0.140625 0.398438
vt 0.125000 0.398438
vt 0.125000 0.445312
vt 0.140625 0.445312
vt 0.140625 0.398438
vt 0.125000 0.398438
vt 0.125000 0.445312
vt 0.140625 0.445312
vt 0.140625 0.398438
vt 0.125000 0.398438
vt 0.125000 0.445312
vt 0.140625 0.445312
vt 0.140625 0.398438
vt 0.125000 0.398438
vt 0.125000 0.445312
vt 0.140625 0.445312
vt 0.140625 0.398438
vt 0.125000 0.398438
vt 0.125000 0.445312
vt 0.140625 0.445312
vt 0.140625 0.398438
vt 0.125000 0.398438
vt 0.125000 0.445312
vt 0.140625 0.445312
vt 0.140625 0.398438
vt 0.125000 0.398438
vt 0.125000 0.445312
vt 0.140625 0.445312
vt 0.140625 0.398438
vt 0.125000 0.398438
vt 0.125000 0.445312
vt 0.140625 0.445312
vt 0.140625 0.398438
vt 0.125000 0.398438
vt 0.125000 0.445312
vt 0.140625 0.445312
vt 0.140625 0.398438
vt 0.125000 0.398438
vt 0.125000 0.445312
vt 0.140625 0.445312
vt 0.140625 0.398438
vt 0.125000 0.398438
vt 0.125000 0.445312
vt 0.140625 0.445312
vt 0.140625 0.398438
vt 0.125000 0.398438
vt 0.125000 0.445312
vt 0.140625 0.445312
vt 0.140625 0.398438
vt 0.125000 0.398438
vt 0.125000 0.445312
vt 0.140625 0.445312
vt 0.140625 0.398438
vt 0.125000 0.398438
vt 0.125000 0.445312
vt 0.140625 0.445312
vt 0.140625 0.398438
vt 0.125000 0.398438
vt 0.125000 0.445312
vt 0.140625 0.445312
vt 0.140625 0.398438
vt 0.125000 0.398438
vt 0.656250 0.398438
vt 0.859375 0.398438
vt 0.859375 0.382812
vt 0.656250 0.382812
vt 0.000000 0.375000
vt 0.203125 0.375000
vt 0.203125 0.359375
vt 0.000000 0.359375
vt 0.367188 0.375000
vt 0.468750 0.375000
vt 0.468750 0.359375
vt 0.367188 0.359375
vt 0.367188 0.375000
vt 0.468750 0.375000
vt 0.468750 0.359375
vt 0.367188 0.359375
vt 0.000000 0.625000
vt 0.203125 0.625000
vt 0.203125 0.523438
vt 0.000000 0.523438
vt 0.203125 0.625000
vt 0.406250 0.625000
vt 0.406250 0.523438
vt 0.203125 0.523438
vt 0.703125 0.375000
vt 0.828125 0.375000
vt 0.828125 0.367188
vt 0.703125 0.367188
vt 0.703125 0.375000
vt 0.828125 0.375000
vt 0.828125 0.367188
vt 0.703125 0.367188
vt 0.062500 0.359375
vt 0.117188 0.359375
vt 0.117188 0.351562
vt 0.062500 0.351562
vt 0.062500 0.359375
vt 0.117188 0.359375
vt 0.117188 0.351562
vt 0.062500 0.351562
vt 0.757812 0.523438
vt 0.882812 0.523438
vt 0.882812 0.468750
vt 0.757812 0.468750
vt 0.882812 0.523438
vt 0.953125 0.523438
vt 0.953125 0.476562
vt 0.882812 0.476562
vt 0.882812 0.523438
vt 0.953125 0.523438
vt 0.953125 0.476562
vt 0.882812 0.476562
vt 0.882812 0.523438
vt 0.953125 0.523438
vt 0.953125 0.476562
vt 0.882812 0.476562
vt 0.882812 0.523438
vt 0.953125 0.523438
vt 0.953125 0.476562
vt 0.882812 0.476562
vt 0.164062 0.359375
vt 0.187500 0.359375
vt 0.187500 0.351562
vt 0.164062 0.351562
vt 0.164062 0.359375
vt 0.187500 0.359375
vt 0.187500 0.351562
vt 0.164062 0.351562
vt 0.164062 0.359375
vt 0.187500 0.359375
vt 0.187500 0.351562
vt 0.164062 0.351562
vt 0.164062 0.359375
vt 0.187500 0.359375
vt 0.187500 0.351562
vt 0.164062 0.351562
vt 0.632812 0.398438
vt 0.656250 0.398438
vt 0.656250 0.375000
vt 0.632812 0.375000
vt 0.125000 0.445312
vt 0.140625 0.445312
vt 0.140625 0.398438
vt 0.125000 0.398438
vt 0.125000 0.445312
vt 0.140625 0.445312
vt 0.140625 0.398438
vt 0.125000 0.398438
vt 0.125000 0.445312
vt 0.140625 0.445312
vt 0.140625 0.398438
vt 0.125000 0.398438
vt 0.125000 0.445312
vt 0.140625 0.445312
vt 0.140625 0.398438
vt 0.125000 0.398438
vt 0.125000 0.445312
vt 0.140625 0.445312
vt 0.140625 0.398438
vt 0.125000 0.398438
vt 0.125000 0.445312
vt 0.140625 0.445312
vt 0.140625 0.398438
vt 0.125000 0.398438
vt 0.125000 0.445312
vt 0.140625 0.445312
vt 0.140625 0.398438
vt 0.125000 0.398438
vt 0.125000 0.445312
vt 0.140625 0.445312
vt 0.140625 0.398438
vt 0.125000 0.398438
vt 0.125000 0.445312
vt 0.140625 0.445312
vt 0.140625 0.398438
vt 0.125000 0.398438
vt 0.125000 0.445312
vt 0.140625 0.445312
vt 0.140625 0.398438
vt 0.125000 0.398438
vt 0.125000 0.445312
vt 0.140625 0.445312
vt 0.140625 0.398438
vt 0.125000 0.398438
vt 0.125000 0.445312
vt 0.140625 0.445312
vt 0.140625 0.398438
vt 0.125000 0.398438
vt 0.125000 0.445312
vt 0.140625 0.445312
vt 0.140625 0.398438
vt 0.125000 0.398438
vt 0.125000 0.445312
vt 0.140625 0.445312
vt 0.140625 0.398438
vt 0.125000 0.398438
vt 0.125000 0.445312
vt 0.140625 0.445312
vt 0.140625 0.398438
vt 0.125000 0.398438
vt 0.125000 0.445312
vt 0.140625 0.445312
vt 0.140625 0.398438
vt 0.125000 0.398438
vt 0.468750 0.375000
vt 0.546875 0.375000
vt 0.546875 0.359375
vt 0.468750 0.359375
vt 0.468750 0.375000
vt 0.546875 0.375000
vt 0.546875 0.359375
vt 0.468750 0.359375
vt 0.976562 1.000000
vt 0.992188 1.000000
vt 0.992188 0.921875
vt 0.976562 0.921875
vt 0.468750 0.375000
vt 0.546875 0.375000
vt 0.546875 0.359375
vt 0.468750 0.359375
vt 0.468750 0.375000
vt 0.546875 0.375000
vt 0.546875 0.359375
vt 0.468750 0.359375
vt 0.976562 1.000000
vt 0.992188 1.000000
vt 0.992188 0.921875
vt 0.976562 0.921875
vt 0.859375 0.398438
vt 0.968750 0.398438
vt 0.968750 0.382812
vt 0.859375 0.382812
vt 0.859375 0.398438
vt 0.968750 0.398438
vt 0.968750 0.382812
vt 0.859375 0.382812
vt 0.859375 0.398438
vt 0.968750 0.398438
vt 0.968750 0.382812
vt 0.859375 0.382812
vt 0.828125 0.375000
vt 0.937500 0.375000
vt 0.937500 0.367188
vt 0.828125 0.367188
vt 0.828125 0.375000
vt 0.937500 0.375000
vt 0.937500 0.367188
vt 0.828125 0.367188
vt 0.859375 0.398438
vt 0.968750 0.398438
vt 0.968750 0.382812
vt 0.859375 0.382812
vt 0.859375 0.398438
vt 0.968750 0.398438
vt 0.968750 0.382812
vt 0.859375 0.382812
vt 0.859375 0.625000
vt 0.968750 0.625000
vt 0.968750 0.546875
vt 0.859375 0.546875
vt 0.257812 0.445312
vt 0.335938 0.445312
vt 0.335938 0.414062
vt 0.257812 0.414062
vt 0.257812 0.445312
vt 0.335938 0.445312
vt 0.335938 0.414062
vt 0.257812 0.414062
vt 0.257812 0.445312
vt 0.335938 0.445312
vt 0.335938 0.414062
vt 0.257812 0.414062
vt 0.257812 0.445312
vt 0.335938 0.445312
vt 0.335938 0.414062
vt 0.257812 0.414062
vt 0.148438 0.445312
vt 0.257812 0.445312
vt 0.257812 0.414062
vt 0.148438 0.414062
vt 0.148438 0.445312
vt 0.257812 0.445312
vt 0.257812 0.414062
vt 0.148438 0.414062
vt 0.960938 0.445312
vt 1.000000 0.445312
vt 1.000000 0.421875
vt 0.960938 0.421875
vt 0.960938 0.445312
vt 1.000000 0.445312
vt 1.000000 0.421875
vt 0.960938 0.421875
vt 0.507812 0.398438
vt 0.570312 0.398438
vt 0.570312 0.375000
vt 0.507812 0.375000
vt 0.570312 0.398438
vt 0.632812 0.398438
vt 0.632812 0.375000
vt 0.570312 0.375000
vt 0.718750 0.523438
vt 0.757812 0.523438
vt 0.757812 0.460938
vt 0.718750 0.460938
vt 0.187500 0.359375
vt 0.210938 0.359375
vt 0.210938 0.351562
vt 0.187500 0.351562
vt 0.187500 0.359375
vt 0.210938 0.359375
vt 0.210938 0.351562
vt 0.187500 0.351562
vt 0.937500 0.375000
vt 1.000000 0.375000
vt 1.000000 0.367188
vt 0.937500 0.367188
vt 0.000000 0.359375
vt 0.062500 0.359375
vt 0.062500 0.351562
vt 0.000000 0.351562
vt 0.968750 0.625000
vt 0.992188 0.625000
vt 0.992188 0.562500
vt 0.968750 0.562500
vt 0.937500 1.000000
vt 0.953125 1.000000
vt 0.953125 0.906250
vt 0.937500 0.906250
vt 0.937500 1.000000
vt 0.953125 1.000000
vt 0.953125 0.906250
vt 0.937500 0.906250
vt 0.406250 0.625000
vt 0.500000 0.625000
vt 0.500000 0.531250
vt 0.406250 0.531250
vt 0.406250 0.625000
vt 0.500000 0.625000
vt 0.500000 0.531250
vt 0.406250 0.531250
vt 0.937500 1.000000
vt 0.953125 1.000000
vt 0.953125 0.906250
vt 0.937500 0.906250
vt 0.937500 1.000000
vt 0.953125 1.000000
vt 0.953125 0.906250
vt 0.937500 0.906250
vt 0.140625 0.445312
vt 0.148438 0.445312
vt 0.148438 0.398438
vt 0.140625 0.398438
vt 0.140625 0.445312
vt 0.148438 0.445312
vt 0.148438 0.398438
vt 0.140625 0.398438
vt 0.000000 0.445312
vt 0.125000 0.445312
vt 0.125000 0.398438
vt 0.000000 0.398438
vt 0.000000 0.445312
vt 0.125000 0.445312
vt 0.125000 0.398438
vt 0.000000 0.398438
vt 0.679688 1.000000
vt 0.687500 1.000000
vt 0.687500 0.875000
vt 0.679688 0.875000
vt 0.679688 1.000000
vt 0.687500 1.000000
vt 0.687500 0.875000
vt 0.679688 0.875000
vt 0.679688 1.000000
vt 0.687500 1.000000
vt 0.687500 0.875000
vt 0.679688 0.875000
vt 0.679688 1.000000
vt 0.687500 1.000000
vt 0.687500 0.875000
vt 0.679688 0.875000
vt 0.625000 1.000000
vt 0.671875 1.000000
vt 0.671875 0.875000
vt 0.625000 0.875000
vt 0.625000 1.000000
vt 0.671875 1.000000
vt 0.671875 0.875000
vt 0.625000 0.875000
vt 0.140625 0.445312
vt 0.148438 0.445312
vt 0.148438 0.398438
vt 0.140625 0.398438
vt 0.140625 0.445312
vt 0.148438 0.445312
vt 0.148438 0.398438
vt 0.140625 0.398438
vn 0 0 -1
vn 0 0 1
vn -1 0 0
vn 1 0 0
vn 0 1 0
vn 0 -1 0
usemtl cutting_machine
o Hull
f 1/1/1 4/4/1 3/3/1 2/2/1
f 5/5/2 8/8/2 7/7/2 6/6/2
f 9/9/3 12/12/3 11/11/3 10/10/3
f 13/13/4 16/16/4 15/15/4 14/14/4
f 17/17/5 20/20/5 19/19/5 18/18/5
f 21/21/1 24/24/1 23/23/1 22/22/1
f 25/25/2 28/28/2 27/27/2 26/26/2
f 29/29/3 32/32/3 31/31/3 30/30/3
f 33/33/4 36/36/4 35/35/4 34/34/4
f 37/37/1 40/40/1 39/39/1 38/38/1
f 41/41/2 44/44/2 43/43/2 42/42/2
f 45/45/3 48/48/3 47/47/3 46/46/3
f 49/49/4 52/52/4 51/51/4 50/50/4
f 53/53/1 56/56/1 55/55/1 54/54/1
f 57/57/2 60/60/2 59/59/2 58/58/2
f 61/61/3 64/64/3 63/63/3 62/62/3
f 65/65/4 68/68/4 67/67/4 66/66/4
f 69/69/1 72/72/1 71/71/1 70/70/1
f 73/73/2 76/76/2 75/75/2 74/74/2
f 77/77/3 80/80/3 79/79/3 78/78/3
f 81/81/4 84/84/4 83/83/4 82/82/4
f 85/85/1 88/88/1 87/87/1 86/86/1
f 89/89/2 92/92/2 91/91/2 90/90/2
f 93/93/3 96/96/3 95/95/3 94/94/3
f 97/97/4 100/100/4 99/99/4 98/98/4
f 101/101/1 104/104/1 103/103/1 102/102/1
f 105/105/2 108/108/2 107/107/2 106/106/2
f 109/109/3 112/112/3 111/111/3 110/110/3
f 113/113/4 116/116/4 115/115/4 114/114/4
f 117/117/1 120/120/1 119/119/1 118/118/1
f 121/121/2 124/124/2 123/123/2 122/122/2
f 125/125/3 128/128/3 127/127/3 126/126/3
f 129/129/4 132/132/4 131/131/4 130/130/4
f 133/133/1 136/136/1 135/135/1 134/134/1
f 137/137/2 140/140/2 139/139/2 138/138/2
f 141/141/3 144/144/3 143/143/3 142/142/3
f 145/145/4 148/148/4 147/147/4 146/146/4
f 149/149/1 152/152/1 151/151/1 150/150/1
f 153/153/2 156/156/2 155/155/2 154/154/2
f 157/157/3 160/160/3 159/159/3 158/158/3
f 161/161/4 164/164/4 163/163/4 162/162/4
f 165/165/5 168/168/5 167/167/5 166/166/5
f 169/169/1 172/172/1 171/171/1 170/170/1
f 173/173/2 176/176/2 175/175/2 174/174/2
f 177/177/3 180/180/3 179/179/3 178/178/3
f 181/181/5 184/184/5 183/183/5 182/182/5
f 185/185/1 188/188/1 187/187/1 186/186/1
f 189/189/3 192/192/3 191/191/3 190/190/3
f 193/193/4 196/196/4 195/195/4 194/194/4
f 197/197/5 200/200/5 199/199/5 198/198/5
f 201/201/6 204/204/6 203/203/6 202/202/6
f 205/205/2 208/208/2 207/207/2 206/206/2
f 209/209/3 212/212/3 211/211/3 210/210/3
f 213/213/4 216/216/4 215/215/4 214/214/4
f 217/217/5 220/220/5 219/219/5 218/218/5
f 221/221/6 224/224/6 223/223/6 222/222/6
f 225/225/2 228/228/2 227/227/2 226/226/2
f 229/229/3 232/232/3 231/231/3 230/230/3
f 233/233/4 236/236/4 235/235/4 234/234/4
f 237/237/5 240/240/5 239/239/5 238/238/5
f 241/241/6 244/244/6 243/243/6 242/242/6
f 245/245/1 248/248/1 247/247/1 246/246/1
f 249/249/2 252/252/2 251/251/2 250/250/2
f 253/253/3 256/256/3 255/255/3 254/254/3
f 257/257/4 260/260/4 259/259/4 258/258/4
f 261/261/5 264/264/5 263/263/5 262/262/5
f 265/265/1 268/268/1 267/267/1 266/266/1
f 269/269/2 272/272/2 271/271/2 270/270/2
f 273/273/3 276/276/3 275/275/3 274/274/3
f 277/277/4 280/280/4 279/279/4 278/278/4
f 281/281/5 284/284/5 283/283/5 282/282/5
f 285/285/3 288/288/3 287/287/3 286/286/3
f 289/289/4 292/292/4 291/291/4 290/290/4
f 293/293/5 296/296/5 295/295/5 294/294/5
f 297/297/3 300/300/3 299/299/3 298/298/3
f 301/301/4 304/304/4 303/303/4 302/302/4
f 305/305/5 308/308/5 307/307/5 306/306/5
f 309/309/1 312/312/1 311/311/1 310/310/1
f 313/313/2 316/316/2 315/315/2 314/314/2
f 317/317/3 320/320/3 319/319/3 318/318/3
f 321/321/4 324/324/4 323/323/4 322/322/4
f 325/325/5 328/328/5 327/327/5 326/326/5
f 329/329/1 332/332/1 331/331/1 330/330/1
f 333/333/2 336/336/2 335/335/2 334/334/2
f 337/337/3 340/340/3 339/339/3 338/338/3
f 341/341/4 344/344/4 343/343/4 342/342/4
f 345/345/5 348/348/5 347/347/5 346/346/5
f 349/349/1 352/352/1 351/351/1 350/350/1
f 353/353/2 356/356/2 355/355/2 354/354/2
f 357/357/3 360/360/3 359/359/3 358/358/3
f 361/361/4 364/364/4 363/363/4 362/362/4
f 365/365/5 368/368/5 367/367/5 366/366/5
f 369/369/1 372/372/1 371/371/1 370/370/1
f 373/373/2 376/376/2 375/375/2 374/374/2
f 377/377/3 380/380/3 379/379/3 378/378/3
f 381/381/4 384/384/4 383/383/4 382/382/4
f 385/385/5 388/388/5 387/387/5 386/386/5
f 389/389/1 392/392/1 391/391/1 390/390/1
f 393/393/2 396/396/2 395/395/2 394/394/2
f 397/397/3 400/400/3 399/399/3 398/398/3
f 401/401/4 404/404/4 403/403/4 402/402/4
f 405/405/1 408/408/1 407/407/1 406/406/1
f 409/409/2 412/412/2 411/411/2 410/410/2
f 413/413/3 416/416/3 415/415/3 414/414/3
f 417/417/4 420/420/4 419/419/4 418/418/4
f 421/421/1 424/424/1 423/423/1 422/422/1
f 425/425/2 428/428/2 427/427/2 426/426/2
f 429/429/3 432/432/3 431/431/3 430/430/3
f 433/433/4 436/436/4 435/435/4 434/434/4
f 437/437/1 440/440/1 439/439/1 438/438/1
f 441/441/2 444/444/2 443/443/2 442/442/2
f 445/445/3 448/448/3 447/447/3 446/446/3
f 449/449/4 452/452/4 451/451/4 450/450/4
f 453/453/1 456/456/1 455/455/1 454/454/1
f 457/457/2 460/460/2 459/459/2 458/458/2
f 461/461/3 464/464/3 463/463/3 462/462/3
f 465/465/4 468/468/4 467/467/4 466/466/4
f 469/469/5 472/472/5 471/471/5 470/470/5
f 473/473/6 476/476/6 475/475/6 474/474/6
f 477/477/1 480/480/1 479/479/1 478/478/1
f 481/481/2 484/484/2 483/483/2 482/482/2
f 485/485/3 488/488/3 487/487/3 486/486/3
f 489/489/4 492/492/4 491/491/4 490/490/4
f 493/493/5 496/496/5 495/495/5 494/494/5
f 497/497/3 500/500/3 499/499/3 498/498/3
f 501/501/4 504/504/4 503/503/4 502/502/4
f 505/505/3 508/508/3 507/507/3 506/506/3
f 509/509/4 512/512/4 511/511/4 510/510/4
f 513/513/1 516/516/1 515/515/1 514/514/1
f 517/517/2 520/520/2 519/519/2 518/518/2
f 521/521/3 524/524/3 523/523/3 522/522/3
f 525/525/4 528/528/4 527/527/4 526/526/4
f 529/529/5 532/532/5 531/531/5 530/530/5
f 533/533/1 536/536/1 535/535/1 534/534/1
f 537/537/2 540/540/2 539/539/2 538/538/2
f 541/541/3 544/544/3 543/543/3 542/542/3
f 545/545/4 548/548/4 547/547/4 546/546/4
f 549/549/1 552/552/1 551/551/1 550/550/1
f 553/553/2 556/556/2 555/555/2 554/554/2
f 557/557/3 560/560/3 559/559/3 558/558/3
f 561/561/4 564/564/4 563/563/4 562/562/4
f 565/565/1 568/568/1 567/567/1 566/566/1
f 569/569/2 572/572/2 571/571/2 570/570/2
f 573/573/3 576/576/3 575/575/3 574/574/3
f 577/577/4 580/580/4 579/579/4 578/578/4
f 581/581/1 584/584/1 583/583/1 582/582/1
f 585/585/2 588/588/2 587/587/2 586/586/2
f 589/589/3 592/592/3 591/591/3 590/590/3
f 593/593/4 596/596/4 595/595/4 594/594/4
f 597/597/3 600/600/3 599/599/3 598/598/3
f 601/601/4 604/604/4 603/603/4 602/602/4
f 605/605/5 608/608/5 607/607/5 606/606/5
f 609/609/3 612/612/3 611/611/3 610/610/3
f 613/613/4 616/616/4 615/615/4 614/614/4
f 617/617/5 620/620/5 619/619/5 618/618/5
f 621/621/1 624/624/1 623/623/1 622/622/1
f 625/625/2 628/628/2 627/627/2 626/626/2
f 629/629/5 632/632/5 631/631/5 630/630/5
f 633/633/1 636/636/1 635/635/1 634/634/1
f 637/637/2 640/640/2 639/639/2 638/638/2
f 641/641/5 644/644/5 643/643/5 642/642/5
f 645/645/6 648/648/6 647/647/6 646/646/6
f 649/649/5 652/652/5 651/651/5 650/650/5
f 653/653/3 656/656/3 655/655/3 654/654/3
f 657/657/4 660/660/4 659/659/4 658/658/4
f 661/661/3 664/664/3 663/663/3 662/662/3
f 665/665/4 668/668/4 667/667/4 666/666/4
f 669/669/1 672/672/1 671/671/1 670/670/1
f 673/673/2 676/676/2 675/675/2 674/674/2
f 677/677/1 680/680/1 679/679/1 678/678/1
f 681/681/2 684/684/2 683/683/2 682/682/2
f 685/685/3 688/688/3 687/687/3 686/686/3
f 689/689/4 692/692/4 691/691/4 690/690/4
f 693/693/5 696/696/5 695/695/5 694/694/5
f 697/697/1 700/700/1 699/699/1 698/698/1
f 701/701/2 704/704/2 703/703/2 702/702/2
f 705/705/3 708/708/3 707/707/3 706/706/3
f 709/709/4 712/712/4 711/711/4 710/710/4
f 713/713/5 716/716/5 715/715/5 714/714/5
o Saw
f 717/717/1 720/720/1 719/719/1 718/718/1
f 721/721/2 724/724/2 723/723/2 722/722/2
f 725/725/3 728/728/3 727/727/3 726/726/3
f 729/729/4 732/732/4 731/731/4 730/730/4
f 733/733/5 736/736/5 735/735/5 734/734/5
f 737/737/6 740/740/6 739/739/6 738/738/6
f 741/741/1 744/744/1 743/743/1 742/742/1
f 745/745/2 748/748/2 747/747/2 746/746/2
f 749/749/3 752/752/3 751/751/3 750/750/3
f 753/753/4 756/756/4 755/755/4 754/754/4
f 757/757/5 760/760/5 759/759/5 758/758/5
f 761/761/6 764/764/6 763/763/6 762/762/6
f 765/765/1 768/768/1 767/767/1 766/766/1
f 769/769/2 772/772/2 771/771/2 770/770/2
f 789/773/3 790/776/3 791/775/3 792/774/3
f 793/777/4 794/780/4 795/779/4 796/778/4
f 781/781/5 784/784/5 783/783/5 782/782/5
f 785/785/6 788/788/6 787/787/6 786/786/6
