# electrolyzer generated by machinegen.py
mtllib electrolyzer.mtl
v 0.000000 0.187500 0.000000
v -3.000000 0.187500 0.000000
v -3.000000 0.000000 0.000000
v 0.000000 0.000000 0.000000
v -3.000000 0.187500 2.000000
v 0.000000 0.187500 2.000000
v 0.000000 0.000000 2.000000
v -3.000000 0.000000 2.000000
v -3.000000 0.187500 0.000000
v -3.000000 0.187500 2.000000
v -3.000000 0.000000 2.000000
v -3.000000 0.000000 0.000000
v 0.000000 0.187500 2.000000
v 0.000000 0.187500 0.000000
v 0.000000 0.000000 0.000000
v 0.000000 0.000000 2.000000
v -3.000000 0.187500 0.000000
v 0.000000 0.187500 0.000000
v 0.000000 0.187500 2.000000
v -3.000000 0.187500 2.000000
v -2.812500 1.875000 0.000000
v -3.000000 1.875000 0.000000
v -3.000000 0.187500 0.000000
v -2.812500 0.187500 0.000000
v -3.000000 1.875000 0.187500
v -2.812500 1.875000 0.187500
v -2.812500 0.187500 0.187500
v -3.000000 0.187500 0.187500
v -3.000000 1.875000 0.000000
v -3.000000 1.875000 0.187500
v -3.000000 0.187500 0.187500
v -3.000000 0.187500 0.000000
v -2.812500 1.875000 0.187500
v -2.812500 1.875000 0.000000
v -2.812500 0.187500 0.000000
v -2.812500 0.187500 0.187500
v -3.000000 1.875000 0.000000
v -2.812500 1.875000 0.000000
v -2.812500 1.875000 0.187500
v -3.000000 1.875000 0.187500
v -3.000000 0.187500 0.187500
v -2.812500 0.187500 0.187500
v -2.812500 0.187500 0.000000
v -3.000000 0.187500 0.000000
v -2.000000 1.875000 0.000000
v -2.187500 1.875000 0.000000
v -2.187500 0.187500 0.000000
v -2.000000 0.187500 0.000000
v -2.187500 1.875000 0.187500
v -2.000000 1.875000 0.187500
v -2.000000 0.187500 0.187500
v -2.187500 0.187500 0.187500
v -2.187500 1.875000 0.000000
v -2.187500 1.875000 0.187500
v -2.187500 0.187500 0.187500
v -2.187500 0.187500 0.000000
v -2.000000 1.875000 0.187500
v -2.000000 1.875000 0.000000
v -2.000000 0.187500 0.000000
v -2.000000 0.187500 0.187500
v -2.187500 1.875000 0.000000
v -2.000000 1.875000 0.000000
v -2.000000 1.875000 0.187500
v -2.187500 1.875000 0.187500
v -2.187500 0.187500 0.187500
v -2.000000 0.187500 0.187500
v -2.000000 0.187500 0.000000
v -2.187500 0.187500 0.000000
v -2.812500 1.875000 1.812500
v -3.000000 1.875000 1.812500
v -3.000000 0.187500 1.812500
v -2.812500 0.187500 1.812500
v -3.000000 1.875000 2.000000
v -2.812500 1.875000 2.000000
v -2.812500 0.187500 2.000000
v -3.000000 0.187500 2.000000
v -3.000000 1.875000 1.812500
v -3.000000 1.875000 2.000000
v -3.000000 0.187500 2.000000
v -3.000000 0.187500 1.812500
v -2.812500 1.875000 2.000000
v -2.812500 1.875000 1.812500
v -2.812500 0.187500 1.812500
v -2.812500 0.187500 2.000000
v -3.000000 1.875000 1.812500
v -2.812500 1.875000 1.812500
v -2.812500 1.875000 2.000000
v -3.000000 1.875000 2.000000
v -3.000000 0.187500 2.000000
v -2.812500 0.187500 2.000000
v -2.812500 0.187500 1.812500
v -3.000000 0.187500 1.812500
v -2.000000 1.875000 1.812500
v -2.187500 1.875000 1.812500
v -2.187500 0.187500 1.812500
v -2.000000 0.187500 1.812500
v -2.187500 1.875000 2.000000
v -2.000000 1.875000 2.000000
v -2.000000 0.187500 2.000000
v -2.187500 0.187500 2.000000
v -2.187500 1.875000 1.812500
v -2.187500 1.875000 2.000000
v -2.187500 0.187500 2.000000
v -2.187500 0.187500 1.812500
v -2.000000 1.875000 2.000000
v -2.000000 1.875000 1.812500
v -2.000000 0.187500 1.812500
v -2.000000 0.187500 2.000000
v -2.187500 1.875000 1.812500
v -2.000000 1.875000 1.812500
v -2.000000 1.875000 2.000000
v -2.187500 1.875000 2.000000
v -2.187500 0.187500 2.000000
v -2.000000 0.187500 2.000000
v -2.000000 0.187500 1.812500
v -2.187500 0.187500 1.812500
v -2.812500 0.375000 0.187500
v -3.000000 0.375000 0.187500
v -3.000000 0.187500 0.187500
v -2.812500 0.187500 0.187500
v -3.000000 0.375000 1.812500
v -2.812500 0.375000 1.812500
v -2.812500 0.187500 1.812500
v -3.000000 0.187500 1.812500
v -3.000000 0.375000 0.187500
v -3.000000 0.375000 1.812500
v -3.000000 0.187500 1.812500
v -3.000000 0.187500 0.187500
v -2.812500 0.375000 1.812500
v -2.812500 0.375000 0.187500
v -2.812500 0.187500 0.187500
v -2.812500 0.187500 1.812500
v -3.000000 0.375000 0.187500
v -2.812500 0.375000 0.187500
v -2.812500 0.375000 1.812500
v -3.000000 0.375000 1.812500
v -3.000000 0.187500 1.812500
v -2.812500 0.187500 1.812500
v -2.812500 0.187500 0.187500
v -3.000000 0.187500 0.187500
v -2.187500 0.375000 0.000000
v -2.812500 0.375000 0.000000
v -2.812500 0.187500 0.000000
v -2.187500 0.187500 0.000000
v -2.812500 0.375000 0.187500
v -2.187500 0.375000 0.187500
v -2.187500 0.187500 0.187500
v -2.812500 0.187500 0.187500
v -2.812500 0.375000 0.000000
v -2.812500 0.375000 0.187500
v -2.812500 0.187500 0.187500
v -2.812500 0.187500 0.000000
v -2.187500 0.375000 0.187500
v -2.187500 0.375000 0.000000
v -2.187500 0.187500 0.000000
v -2.187500 0.187500 0.187500
v -2.812500 0.375000 0.000000
v -2.187500 0.375000 0.000000
v -2.187500 0.375000 0.187500
v -2.812500 0.375000 0.187500
v -2.812500 0.187500 0.187500
v -2.187500 0.187500 0.187500
v -2.187500 0.187500 0.000000
v -2.812500 0.187500 0.000000
v -2.187500 0.375000 1.812500
v -2.812500 0.375000 1.812500
v -2.812500 0.187500 1.812500
v -2.187500 0.187500 1.812500
v -2.812500 0.375000 2.000000
v -2.187500 0.375000 2.000000
v -2.187500 0.187500 2.000000
v -2.812500 0.187500 2.000000
v -2.812500 0.375000 1.812500
v -2.812500 0.375000 2.000000
v -2.812500 0.187500 2.000000
v -2.812500 0.187500 1.812500
v -2.187500 0.375000 2.000000
v -2.187500 0.375000 1.812500
v -2.187500 0.187500 1.812500
v -2.187500 0.187500 2.000000
v -2.812500 0.375000 1.812500
v -2.187500 0.375000 1.812500
v -2.187500 0.375000 2.000000
v -2.812500 0.375000 2.000000
v -2.812500 0.187500 2.000000
v -2.187500 0.187500 2.000000
v -2.187500 0.187500 1.812500
v -2.812500 0.187500 1.812500
v -2.875000 1.750000 0.937500
v -3.000000 1.750000 0.937500
v -3.000000 0.375000 0.937500
v -2.875000 0.375000 0.937500
v -3.000000 1.750000 1.062500
v -2.875000 1.750000 1.062500
v -2.875000 0.375000 1.062500
v -3.000000 0.375000 1.062500
v -3.000000 1.750000 0.937500
v -3.000000 1.750000 1.062500
v -3.000000 0.375000 1.062500
v -3.000000 0.375000 0.937500
v -2.875000 1.750000 1.062500
v -2.875000 1.750000 0.937500
v -2.875000 0.375000 0.937500
v -2.875000 0.375000 1.062500
v -3.000000 1.750000 0.937500
v -2.875000 1.750000 0.937500
v -2.875000 1.750000 1.062500
v -3.000000 1.750000 1.062500
v -3.000000 0.375000 1.062500
v -2.875000 0.375000 1.062500
v -2.875000 0.375000 0.937500
v -3.000000 0.375000 0.937500
v -2.062500 1.750000 0.062500
v -2.937500 1.750000 0.062500
v -2.937500 0.375000 0.062500
v -2.062500 0.375000 0.062500
v -2.937500 1.750000 1.937500
v -2.062500 1.750000 1.937500
v -2.062500 0.375000 1.937500
v -2.937500 0.375000 1.937500
v -2.937500 1.750000 0.062500
v -2.937500 1.750000 1.937500
v -2.937500 0.375000 1.937500
v -2.937500 0.375000 0.062500
v -2.062500 1.750000 1.937500
v -2.062500 1.750000 0.062500
v -2.062500 0.375000 0.062500
v -2.062500 0.375000 1.937500
v -2.937500 1.750000 0.062500
v -2.062500 1.750000 0.062500
v -2.062500 1.750000 1.937500
v -2.937500 1.750000 1.937500
v -2.937500 0.375000 1.937500
v -2.062500 0.375000 1.937500
v -2.062500 0.375000 0.062500
v -2.937500 0.375000 0.062500
v -2.000000 1.875000 0.000000
v -3.000000 1.875000 0.000000
v -3.000000 1.750000 0.000000
v -2.000000 1.750000 0.000000
v -3.000000 1.875000 2.000000
v -2.000000 1.875000 2.000000
v -2.000000 1.750000 2.000000
v -3.000000 1.750000 2.000000
v -3.000000 1.875000 0.000000
v -3.000000 1.875000 2.000000
v -3.000000 1.750000 2.000000
v -3.000000 1.750000 0.000000
v -2.000000 1.875000 2.000000
v -2.000000 1.875000 0.000000
v -2.000000 1.750000 0.000000
v -2.000000 1.750000 2.000000
v -3.000000 1.875000 0.000000
v -2.000000 1.875000 0.000000
v -2.000000 1.875000 2.000000
v -3.000000 1.875000 2.000000
v -2.937500 0.937500 0.312500
v -3.000000 0.937500 0.312500
v -3.000000 0.562500 0.312500
v -2.937500 0.562500 0.312500
v -3.000000 0.937500 0.687500
v -2.937500 0.937500 0.687500
v -2.937500 0.562500 0.687500
v -3.000000 0.562500 0.687500
v -3.000000 0.937500 0.312500
v -3.000000 0.937500 0.687500
v -3.000000 0.562500 0.687500
v -3.000000 0.562500 0.312500
v -2.937500 0.937500 0.687500
v -2.937500 0.937500 0.312500
v -2.937500 0.562500 0.312500
v -2.937500 0.562500 0.687500
v -3.000000 0.937500 0.312500
v -2.937500 0.937500 0.312500
v -2.937500 0.937500 0.687500
v -3.000000 0.937500 0.687500
v -3.000000 0.562500 0.687500
v -2.937500 0.562500 0.687500
v -2.937500 0.562500 0.312500
v -3.000000 0.562500 0.312500
v -2.937500 1.562500 1.312500
v -3.000000 1.562500 1.312500
v -3.000000 1.187500 1.312500
v -2.937500 1.187500 1.312500
v -3.000000 1.562500 1.687500
v -2.937500 1.562500 1.687500
v -2.937500 1.187500 1.687500
v -3.000000 1.187500 1.687500
v -3.000000 1.562500 1.312500
v -3.000000 1.562500 1.687500
v -3.000000 1.187500 1.687500
v -3.000000 1.187500 1.312500
v -2.937500 1.562500 1.687500
v -2.937500 1.562500 1.312500
v -2.937500 1.187500 1.312500
v -2.937500 1.187500 1.687500
v -3.000000 1.562500 1.312500
v -2.937500 1.562500 1.312500
v -2.937500 1.562500 1.687500
v -3.000000 1.562500 1.687500
v -3.000000 1.187500 1.687500
v -2.937500 1.187500 1.687500
v -2.937500 1.187500 1.312500
v -3.000000 1.187500 1.312500
v -2.312500 1.250000 0.031250
v -2.687500 1.250000 0.031250
v -2.687500 0.875000 0.031250
v -2.312500 0.875000 0.031250
v -2.687500 1.250000 0.031250
v -2.687500 1.250000 0.062500
v -2.687500 0.875000 0.062500
v -2.687500 0.875000 0.031250
v -2.312500 1.250000 0.062500
v -2.312500 1.250000 0.031250
v -2.312500 0.875000 0.031250
v -2.312500 0.875000 0.062500
v -2.687500 1.250000 0.031250
v -2.312500 1.250000 0.031250
v -2.312500 1.250000 0.062500
v -2.687500 1.250000 0.062500
v -2.687500 0.875000 0.062500
v -2.312500 0.875000 0.062500
v -2.312500 0.875000 0.031250
v -2.687500 0.875000 0.031250
v -2.437500 1.562500 0.031250
v -2.562500 1.562500 0.031250
v -2.562500 1.437500 0.031250
v -2.437500 1.437500 0.031250
v -2.562500 1.562500 0.031250
v -2.562500 1.562500 0.062500
v -2.562500 1.437500 0.062500
v -2.562500 1.437500 0.031250
v -2.437500 1.562500 0.062500
v -2.437500 1.562500 0.031250
v -2.437500 1.437500 0.031250
v -2.437500 1.437500 0.062500
v -2.562500 1.562500 0.031250
v -2.437500 1.562500 0.031250
v -2.437500 1.562500 0.062500
v -2.562500 1.562500 0.062500
v -2.562500 1.437500 0.062500
v -2.437500 1.437500 0.062500
v -2.437500 1.437500 0.031250
v -2.562500 1.437500 0.031250
v -2.750000 1.375000 1.968750
v -2.250000 1.375000 1.968750
v -2.250000 0.625000 1.968750
v -2.750000 0.625000 1.968750
v -2.750000 1.375000 1.937500
v -2.750000 1.375000 1.968750
v -2.750000 0.625000 1.968750
v -2.750000 0.625000 1.937500
v -2.250000 1.375000 1.968750
v -2.250000 1.375000 1.937500
v -2.250000 0.625000 1.937500
v -2.250000 0.625000 1.968750
v -2.750000 1.375000 1.937500
v -2.250000 1.375000 1.937500
v -2.250000 1.375000 1.968750
v -2.750000 1.375000 1.968750
v -2.750000 0.625000 1.968750
v -2.250000 0.625000 1.968750
v -2.250000 0.625000 1.937500
v -2.750000 0.625000 1.937500
v -0.812500 1.875000 0.000000
v -1.000000 1.875000 0.000000
v -1.000000 0.187500 0.000000
v -0.812500 0.187500 0.000000
v -1.000000 1.875000 0.187500
v -0.812500 1.875000 0.187500
v -0.812500 0.187500 0.187500
v -1.000000 0.187500 0.187500
v -1.000000 1.875000 0.000000
v -1.000000 1.875000 0.187500
v -1.000000 0.187500 0.187500
v -1.000000 0.187500 0.000000
v -0.812500 1.875000 0.187500
v -0.812500 1.875000 0.000000
v -0.812500 0.187500 0.000000
v -0.812500 0.187500 0.187500
v -1.000000 1.875000 0.000000
v -0.812500 1.875000 0.000000
v -0.812500 1.875000 0.187500
v -1.000000 1.875000 0.187500
v -1.000000 0.187500 0.187500
v -0.812500 0.187500 0.187500
v -0.812500 0.187500 0.000000
v -1.000000 0.187500 0.000000
v 0.000000 1.875000 0.000000
v -0.187500 1.875000 0.000000
v -0.187500 0.187500 0.000000
v 0.000000 0.187500 0.000000
v -0.187500 1.875000 0.187500
v 0.000000 1.875000 0.187500
v 0.000000 0.187500 0.187500
v -0.187500 0.187500 0.187500
v -0.187500 1.875000 0.000000
v -0.187500 1.875000 0.187500
v -0.187500 0.187500 0.187500
v -0.187500 0.187500 0.000000
v 0.000000 1.875000 0.187500
v 0.000000 1.875000 0.000000
v 0.000000 0.187500 0.000000
v 0.000000 0.187500 0.187500
v -0.187500 1.875000 0.000000
v 0.000000 1.875000 0.000000
v 0.000000 1.875000 0.187500
v -0.187500 1.875000 0.187500
v -0.187500 0.187500 0.187500
v 0.000000 0.187500 0.187500
v 0.000000 0.187500 0.000000
v -0.187500 0.187500 0.000000
v -0.812500 1.875000 1.812500
v -1.000000 1.875000 1.812500
v -1.000000 0.187500 1.812500
v -0.812500 0.187500 1.812500
v -1.000000 1.875000 2.000000
v -0.812500 1.875000 2.000000
v -0.812500 0.187500 2.000000
v -1.000000 0.187500 2.000000
v -1.000000 1.875000 1.812500
v -1.000000 1.875000 2.000000
v -1.000000 0.187500 2.000000
v -1.000000 0.187500 1.812500
v -0.812500 1.875000 2.000000
v -0.812500 1.875000 1.812500
v -0.812500 0.187500 1.812500
v -0.812500 0.187500 2.000000
v -1.000000 1.875000 1.812500
v -0.812500 1.875000 1.812500
v -0.812500 1.875000 2.000000
v -1.000000 1.875000 2.000000
v -1.000000 0.187500 2.000000
v -0.812500 0.187500 2.000000
v -0.812500 0.187500 1.812500
v -1.000000 0.187500 1.812500
v 0.000000 1.875000 1.812500
v -0.187500 1.875000 1.812500
v -0.187500 0.187500 1.812500
v 0.000000 0.187500 1.812500
v -0.187500 1.875000 2.000000
v 0.000000 1.875000 2.000000
v 0.000000 0.187500 2.000000
v -0.187500 0.187500 2.000000
v -0.187500 1.875000 1.812500
v -0.187500 1.875000 2.000000
v -0.187500 0.187500 2.000000
v -0.187500 0.187500 1.812500
v 0.000000 1.875000 2.000000
v 0.000000 1.875000 1.812500
v 0.000000 0.187500 1.812500
v 0.000000 0.187500 2.000000
v -0.187500 1.875000 1.812500
v 0.000000 1.875000 1.812500
v 0.000000 1.875000 2.000000
v -0.187500 1.875000 2.000000
v -0.187500 0.187500 2.000000
v 0.000000 0.187500 2.000000
v 0.000000 0.187500 1.812500
v -0.187500 0.187500 1.812500
v 0.000000 0.375000 0.187500
v -0.187500 0.375000 0.187500
v -0.187500 0.187500 0.187500
v 0.000000 0.187500 0.187500
v -0.187500 0.375000 1.812500
v 0.000000 0.375000 1.812500
v 0.000000 0.187500 1.812500
v -0.187500 0.187500 1.812500
v -0.187500 0.375000 0.187500
v -0.187500 0.375000 1.812500
v -0.187500 0.187500 1.812500
v -0.187500 0.187500 0.187500
v 0.000000 0.375000 1.812500
v 0.000000 0.375000 0.187500
v 0.000000 0.187500 0.187500
v 0.000000 0.187500 1.812500
v -0.187500 0.375000 0.187500
v 0.000000 0.375000 0.187500
v 0.000000 0.375000 1.812500
v -0.187500 0.375000 1.812500
v -0.187500 0.187500 1.812500
v 0.000000 0.187500 1.812500
v 0.000000 0.187500 0.187500
v -0.187500 0.187500 0.187500
v -0.187500 0.375000 0.000000
v -0.812500 0.375000 0.000000
v -0.812500 0.187500 0.000000
v -0.187500 0.187500 0.000000
v -0.812500 0.375000 0.187500
v -0.187500 0.375000 0.187500
v -0.187500 0.187500 0.187500
v -0.812500 0.187500 0.187500
v -0.812500 0.375000 0.000000
v -0.812500 0.375000 0.187500
v -0.812500 0.187500 0.187500
v -0.812500 0.187500 0.000000
v -0.187500 0.375000 0.187500
v -0.187500 0.375000 0.000000
v -0.187500 0.187500 0.000000
v -0.187500 0.187500 0.187500
v -0.812500 0.375000 0.000000
v -0.187500 0.375000 0.000000
v -0.187500 0.375000 0.187500
v -0.812500 0.375000 0.187500
v -0.812500 0.187500 0.187500
v -0.187500 0.187500 0.187500
v -0.187500 0.187500 0.000000
v -0.812500 0.187500 0.000000
v -0.187500 0.375000 1.812500
v -0.812500 0.375000 1.812500
v -0.812500 0.187500 1.812500
v -0.187500 0.187500 1.812500
v -0.812500 0.375000 2.000000
v -0.187500 0.375000 2.000000
v -0.187500 0.187500 2.000000
v -0.812500 0.187500 2.000000
v -0.812500 0.375000 1.812500
v -0.812500 0.375000 2.000000
v -0.812500 0.187500 2.000000
v -0.812500 0.187500 1.812500
v -0.187500 0.375000 2.000000
v -0.187500 0.375000 1.812500
v -0.187500 0.187500 1.812500
v -0.187500 0.187500 2.000000
v -0.812500 0.375000 1.812500
v -0.187500 0.375000 1.812500
v -0.187500 0.375000 2.000000
v -0.812500 0.375000 2.000000
v -0.812500 0.187500 2.000000
v -0.187500 0.187500 2.000000
v -0.187500 0.187500 1.812500
v -0.812500 0.187500 1.812500
v 0.000000 1.750000 0.937500
v -0.125000 1.750000 0.937500
v -0.125000 0.375000 0.937500
v 0.000000 0.375000 0.937500
v -0.125000 1.750000 1.062500
v 0.000000 1.750000 1.062500
v 0.000000 0.375000 1.062500
v -0.125000 0.375000 1.062500
v -0.125000 1.750000 0.937500
v -0.125000 1.750000 1.062500
v -0.125000 0.375000 1.062500
v -0.125000 0.375000 0.937500
v 0.000000 1.750000 1.062500
v 0.000000 1.750000 0.937500
v 0.000000 0.375000 0.937500
v 0.000000 0.375000 1.062500
v -0.125000 1.750000 0.937500
v 0.000000 1.750000 0.937500
v 0.000000 1.750000 1.062500
v -0.125000 1.750000 1.062500
v -0.125000 0.375000 1.062500
v 0.000000 0.375000 1.062500
v 0.000000 0.375000 0.937500
v -0.125000 0.375000 0.937500
v -0.062500 1.750000 0.062500
v -0.937500 1.750000 0.062500
v -0.937500 0.375000 0.062500
v -0.062500 0.375000 0.062500
v -0.937500 1.750000 1.937500
v -0.062500 1.750000 1.937500
v -0.062500 0.375000 1.937500
v -0.937500 0.375000 1.937500
v -0.937500 1.750000 0.062500
v -0.937500 1.750000 1.937500
v -0.937500 0.375000 1.937500
v -0.937500 0.375000 0.062500
v -0.062500 1.750000 1.937500
v -0.062500 1.750000 0.062500
v -0.062500 0.375000 0.062500
v -0.062500 0.375000 1.937500
v -0.937500 1.750000 0.062500
v -0.062500 1.750000 0.062500
v -0.062500 1.750000 1.937500
v -0.937500 1.750000 1.937500
v -0.937500 0.375000 1.937500
v -0.062500 0.375000 1.937500
v -0.062500 0.375000 0.062500
v -0.937500 0.375000 0.062500
v 0.000000 1.875000 0.000000
v -1.000000 1.875000 0.000000
v -1.000000 1.750000 0.000000
v 0.000000 1.750000 0.000000
v -1.000000 1.875000 2.000000
v 0.000000 1.875000 2.000000
v 0.000000 1.750000 2.000000
v -1.000000 1.750000 2.000000
v -1.000000 1.875000 0.000000
v -1.000000 1.875000 2.000000
v -1.000000 1.750000 2.000000
v -1.000000 1.750000 0.000000
v 0.000000 1.875000 2.000000
v 0.000000 1.875000 0.000000
v 0.000000 1.750000 0.000000
v 0.000000 1.750000 2.000000
v -1.000000 1.875000 0.000000
v 0.000000 1.875000 0.000000
v 0.000000 1.875000 2.000000
v -1.000000 1.875000 2.000000
v 0.000000 0.937500 0.312500
v -0.062500 0.937500 0.312500
v -0.062500 0.562500 0.312500
v 0.000000 0.562500 0.312500
v -0.062500 0.937500 0.687500
v 0.000000 0.937500 0.687500
v 0.000000 0.562500 0.687500
v -0.062500 0.562500 0.687500
v -0.062500 0.937500 0.312500
v -0.062500 0.937500 0.687500
v -0.062500 0.562500 0.687500
v -0.062500 0.562500 0.312500
v 0.000000 0.937500 0.687500
v 0.000000 0.937500 0.312500
v 0.000000 0.562500 0.312500
v 0.000000 0.562500 0.687500
v -0.062500 0.937500 0.312500
v 0.000000 0.937500 0.312500
v 0.000000 0.937500 0.687500
v -0.062500 0.937500 0.687500
v -0.062500 0.562500 0.687500
v 0.000000 0.562500 0.687500
v 0.000000 0.562500 0.312500
v -0.062500 0.562500 0.312500
v 0.000000 1.562500 1.312500
v -0.062500 1.562500 1.312500
v -0.062500 1.187500 1.312500
v 0.000000 1.187500 1.312500
v -0.062500 1.562500 1.687500
v 0.000000 1.562500 1.687500
v 0.000000 1.187500 1.687500
v -0.062500 1.187500 1.687500
v -0.062500 1.562500 1.312500
v -0.062500 1.562500 1.687500
v -0.062500 1.187500 1.687500
v -0.062500 1.187500 1.312500
v 0.000000 1.562500 1.687500
v 0.000000 1.562500 1.312500
v 0.000000 1.187500 1.312500
v 0.000000 1.187500 1.687500
v -0.062500 1.562500 1.312500
v 0.000000 1.562500 1.312500
v 0.000000 1.562500 1.687500
v -0.062500 1.562500 1.687500
v -0.062500 1.187500 1.687500
v 0.000000 1.187500 1.687500
v 0.000000 1.187500 1.312500
v -0.062500 1.187500 1.312500
v -0.312500 1.250000 0.031250
v -0.687500 1.250000 0.031250
v -0.687500 0.875000 0.031250
v -0.312500 0.875000 0.031250
v -0.687500 1.250000 0.031250
v -0.687500 1.250000 0.062500
v -0.687500 0.875000 0.062500
v -0.687500 0.875000 0.031250
v -0.312500 1.250000 0.062500
v -0.312500 1.250000 0.031250
v -0.312500 0.875000 0.031250
v -0.312500 0.875000 0.062500
v -0.687500 1.250000 0.031250
v -0.312500 1.250000 0.031250
v -0.312500 1.250000 0.062500
v -0.687500 1.250000 0.062500
v -0.687500 0.875000 0.062500
v -0.312500 0.875000 0.062500
v -0.312500 0.875000 0.031250
v -0.687500 0.875000 0.031250
v -0.437500 1.562500 0.031250
v -0.562500 1.562500 0.031250
v -0.562500 1.437500 0.031250
v -0.437500 1.437500 0.031250
v -0.562500 1.562500 0.031250
v -0.562500 1.562500 0.062500
v -0.562500 1.437500 0.062500
v -0.562500 1.437500 0.031250
v -0.437500 1.562500 0.062500
v -0.437500 1.562500 0.031250
v -0.437500 1.437500 0.031250
v -0.437500 1.437500 0.062500
v -0.562500 1.562500 0.031250
v -0.437500 1.562500 0.031250
v -0.437500 1.562500 0.062500
v -0.562500 1.562500 0.062500
v -0.562500 1.437500 0.062500
v -0.437500 1.437500 0.062500
v -0.437500 1.437500 0.031250
v -0.562500 1.437500 0.031250
v -0.750000 1.375000 1.968750
v -0.250000 1.375000 1.968750
v -0.250000 0.625000 1.968750
v -0.750000 0.625000 1.968750
v -0.750000 1.375000 1.937500
v -0.750000 1.375000 1.968750
v -0.750000 0.625000 1.968750
v -0.750000 0.625000 1.937500
v -0.250000 1.375000 1.968750
v -0.250000 1.375000 1.937500
v -0.250000 0.625000 1.937500
v -0.250000 0.625000 1.968750
v -0.750000 1.375000 1.937500
v -0.250000 1.375000 1.937500
v -0.250000 1.375000 1.968750
v -0.750000 1.375000 1.968750
v -0.750000 0.625000 1.968750
v -0.250000 0.625000 1.968750
v -0.250000 0.625000 1.937500
v -0.750000 0.625000 1.937500
v -1.000000 0.750000 0.000000
v -2.000000 0.750000 0.000000
v -2.000000 0.187500 0.000000
v -1.000000 0.187500 0.000000
v -2.000000 0.750000 2.000000
v -1.000000 0.750000 2.000000
v -1.000000 0.187500 2.000000
v -2.000000 0.187500 2.000000
v -2.000000 0.187500 2.000000
v -1.000000 0.187500 2.000000
v -1.000000 0.187500 0.000000
v -2.000000 0.187500 0.000000
v -2.000000 0.812500 0.125000
v -1.000000 0.812500 0.125000
v -1.000000 0.812500 1.875000
v -2.000000 0.812500 1.875000
v -1.000000 0.875000 0.000000
v -2.000000 0.875000 0.000000
v -2.000000 0.750000 0.000000
v -1.000000 0.750000 0.000000
v -2.000000 0.875000 0.125000
v -1.000000 0.875000 0.125000
v -1.000000 0.750000 0.125000
v -2.000000 0.750000 0.125000
v -2.000000 0.875000 0.000000
v -2.000000 0.875000 0.125000
v -2.000000 0.750000 0.125000
v -2.000000 0.750000 0.000000
v -1.000000 0.875000 0.125000
v -1.000000 0.875000 0.000000
v -1.000000 0.750000 0.000000
v -1.000000 0.750000 0.125000
v -2.000000 0.875000 0.000000
v -1.000000 0.875000 0.000000
v -1.000000 0.875000 0.125000
v -2.000000 0.875000 0.125000
v -2.000000 0.750000 0.125000
v -1.000000 0.750000 0.125000
v -1.000000 0.750000 0.000000
v -2.000000 0.750000 0.000000
v -1.000000 0.875000 1.875000
v -2.000000 0.875000 1.875000
v -2.000000 0.750000 1.875000
v -1.000000 0.750000 1.875000
v -2.000000 0.875000 2.000000
v -1.000000 0.875000 2.000000
v -1.000000 0.750000 2.000000
v -2.000000 0.750000 2.000000
v -2.000000 0.875000 1.875000
v -2.000000 0.875000 2.000000
v -2.000000 0.750000 2.000000
v -2.000000 0.750000 1.875000
v -1.000000 0.875000 2.000000
v -1.000000 0.875000 1.875000
v -1.000000 0.750000 1.875000
v -1.000000 0.750000 2.000000
v -2.000000 0.875000 1.875000
v -1.000000 0.875000 1.875000
v -1.000000 0.875000 2.000000
v -2.000000 0.875000 2.000000
v -2.000000 0.750000 2.000000
v -1.000000 0.750000 2.000000
v -1.000000 0.750000 1.875000
v -2.000000 0.750000 1.875000
v -1.000000 1.875000 0.000000
v -2.000000 1.875000 0.000000
v -2.000000 1.750000 0.000000
v -1.000000 1.750000 0.000000
v -2.000000 1.875000 2.000000
v -1.000000 1.875000 2.000000
v -1.000000 1.750000 2.000000
v -2.000000 1.750000 2.000000
v -2.000000 1.875000 0.000000
v -2.000000 1.875000 2.000000
v -2.000000 1.750000 2.000000
v -2.000000 1.750000 0.000000
v -1.000000 1.875000 2.000000
v -1.000000 1.875000 0.000000
v -1.000000 1.750000 0.000000
v -1.000000 1.750000 2.000000
v -2.000000 1.875000 0.000000
v -1.000000 1.875000 0.000000
v -1.000000 1.875000 2.000000
v -2.000000 1.875000 2.000000
v -2.000000 1.750000 2.000000
v -1.000000 1.750000 2.000000
v -1.000000 1.750000 0.000000
v -2.000000 1.750000 0.000000
v -1.000000 1.750000 0.031250
v -2.000000 1.750000 0.031250
v -2.000000 0.875000 0.031250
v -1.000000 0.875000 0.031250
v -2.000000 1.750000 0.062500
v -1.000000 1.750000 0.062500
v -1.000000 0.875000 0.062500
v -2.000000 0.875000 0.062500
v -1.000000 1.750000 1.937500
v -2.000000 1.750000 1.937500
v -2.000000 0.875000 1.937500
v -1.000000 0.875000 1.937500
v -2.000000 1.750000 1.968750
v -1.000000 1.750000 1.968750
v -1.000000 0.875000 1.968750
v -2.000000 0.875000 1.968750
v -1.781250 1.250000 0.875000
v -1.968750 1.250000 0.875000
v -1.968750 0.812500 0.875000
v -1.781250 0.812500 0.875000
v -1.968750 1.250000 1.125000
v -1.781250 1.250000 1.125000
v -1.781250 0.812500 1.125000
v -1.968750 0.812500 1.125000
v -1.968750 1.250000 0.875000
v -1.968750 1.250000 1.125000
v -1.968750 0.812500 1.125000
v -1.968750 0.812500 0.875000
v -1.781250 1.250000 1.125000
v -1.781250 1.250000 0.875000
v -1.781250 0.812500 0.875000
v -1.781250 0.812500 1.125000
v -1.968750 1.250000 0.875000
v -1.781250 1.250000 0.875000
v -1.781250 1.250000 1.125000
v -1.968750 1.250000 1.125000
v -1.781250 1.562500 0.875000
v -2.000000 1.562500 0.875000
v -2.000000 1.250000 0.875000
v -1.781250 1.250000 0.875000
v -2.000000 1.562500 1.125000
v -1.781250 1.562500 1.125000
v -1.781250 1.250000 1.125000
v -2.000000 1.250000 1.125000
v -2.000000 1.562500 0.875000
v -2.000000 1.562500 1.125000
v -2.000000 1.250000 1.125000
v -2.000000 1.250000 0.875000
v -1.781250 1.562500 1.125000
v -1.781250 1.562500 0.875000
v -1.781250 1.250000 0.875000
v -1.781250 1.250000 1.125000
v -2.000000 1.562500 0.875000
v -1.781250 1.562500 0.875000
v -1.781250 1.562500 1.125000
v -2.000000 1.562500 1.125000
v -2.000000 1.250000 1.125000
v -1.781250 1.250000 1.125000
v -1.781250 1.250000 0.875000
v -2.000000 1.250000 0.875000
v -1.031250 1.250000 0.875000
v -1.218750 1.250000 0.875000
v -1.218750 0.812500 0.875000
v -1.031250 0.812500 0.875000
v -1.218750 1.250000 1.125000
v -1.031250 1.250000 1.125000
v -1.031250 0.812500 1.125000
v -1.218750 0.812500 1.125000
v -1.218750 1.250000 0.875000
v -1.218750 1.250000 1.125000
v -1.218750 0.812500 1.125000
v -1.218750 0.812500 0.875000
v -1.031250 1.250000 1.125000
v -1.031250 1.250000 0.875000
v -1.031250 0.812500 0.875000
v -1.031250 0.812500 1.125000
v -1.218750 1.250000 0.875000
v -1.031250 1.250000 0.875000
v -1.031250 1.250000 1.125000
v -1.218750 1.250000 1.125000
v -1.000000 1.562500 0.875000
v -1.218750 1.562500 0.875000
v -1.218750 1.250000 0.875000
v -1.000000 1.250000 0.875000
v -1.218750 1.562500 1.125000
v -1.000000 1.562500 1.125000
v -1.000000 1.250000 1.125000
v -1.218750 1.250000 1.125000
v -1.218750 1.562500 0.875000
v -1.218750 1.562500 1.125000
v -1.218750 1.250000 1.125000
v -1.218750 1.250000 0.875000
v -1.000000 1.562500 1.125000
v -1.000000 1.562500 0.875000
v -1.000000 1.250000 0.875000
v -1.000000 1.250000 1.125000
v -1.218750 1.562500 0.875000
v -1.000000 1.562500 0.875000
v -1.000000 1.562500 1.125000
v -1.218750 1.562500 1.125000
v -1.218750 1.250000 1.125000
v -1.000000 1.250000 1.125000
v -1.000000 1.250000 0.875000
v -1.218750 1.250000 0.875000
v -2.812500 1.875000 0.250000
v -2.187500 1.875000 0.250000
v -2.187500 1.875000 1.125000
v -2.812500 1.875000 1.125000
v -0.812500 1.875000 0.250000
v -0.187500 1.875000 0.250000
v -0.187500 1.875000 1.125000
v -0.812500 1.875000 1.125000
v -1.750000 0.937500 0.843750
v -2.000000 0.937500 0.843750
v -2.000000 0.812500 0.843750
v -1.750000 0.812500 0.843750
v -2.000000 0.937500 1.156250
v -1.750000 0.937500 1.156250
v -1.750000 0.812500 1.156250
v -2.000000 0.812500 1.156250
v -2.000000 0.937500 0.843750
v -2.000000 0.937500 1.156250
v -2.000000 0.812500 1.156250
v -2.000000 0.812500 0.843750
v -1.750000 0.937500 1.156250
v -1.750000 0.937500 0.843750
v -1.750000 0.812500 0.843750
v -1.750000 0.812500 1.156250
v -2.000000 0.937500 0.843750
v -1.750000 0.937500 0.843750
v -1.750000 0.937500 1.156250
v -2.000000 0.937500 1.156250
v -1.000000 0.937500 0.843750
v -1.250000 0.937500 0.843750
v -1.250000 0.812500 0.843750
v -1.000000 0.812500 0.843750
v -1.250000 0.937500 1.156250
v -1.000000 0.937500 1.156250
v -1.000000 0.812500 1.156250
v -1.250000 0.812500 1.156250
v -1.250000 0.937500 0.843750
v -1.250000 0.937500 1.156250
v -1.250000 0.812500 1.156250
v -1.250000 0.812500 0.843750
v -1.000000 0.937500 1.156250
v -1.000000 0.937500 0.843750
v -1.000000 0.812500 0.843750
v -1.000000 0.812500 1.156250
v -1.250000 0.937500 0.843750
v -1.000000 0.937500 0.843750
v -1.000000 0.937500 1.156250
v -1.250000 0.937500 1.156250
v -0.250000 2.000000 1.375000
v -2.750000 2.000000 1.375000
v -2.750000 1.875000 1.375000
v -0.250000 1.875000 1.375000
v -2.750000 2.000000 1.625000
v -0.250000 2.000000 1.625000
v -0.250000 1.875000 1.625000
v -2.750000 1.875000 1.625000
v -2.750000 2.000000 1.375000
v -2.750000 2.000000 1.625000
v -2.750000 1.875000 1.625000
v -2.750000 1.875000 1.375000
v -0.250000 2.000000 1.625000
v -0.250000 2.000000 1.375000
v -0.250000 1.875000 1.375000
v -0.250000 1.875000 1.625000
v -2.750000 2.000000 1.375000
v -0.250000 2.000000 1.375000
v -0.250000 2.000000 1.625000
v -2.750000 2.000000 1.625000
v -2.437500 2.031250 1.312500
v -2.625000 2.031250 1.312500
v -2.625000 1.875000 1.312500
v -2.437500 1.875000 1.312500
v -2.625000 2.031250 1.687500
v -2.437500 2.031250 1.687500
v -2.437500 1.875000 1.687500
v -2.625000 1.875000 1.687500
v -2.625000 2.031250 1.312500
v -2.625000 2.031250 1.687500
v -2.625000 1.875000 1.687500
v -2.625000 1.875000 1.312500
v -2.437500 2.031250 1.687500
v -2.437500 2.031250 1.312500
v -2.437500 1.875000 1.312500
v -2.437500 1.875000 1.687500
v -2.625000 2.031250 1.312500
v -2.437500 2.031250 1.312500
v -2.437500 2.031250 1.687500
v -2.625000 2.031250 1.687500
v -1.406250 2.031250 1.312500
v -1.593750 2.031250 1.312500
v -1.593750 1.875000 1.312500
v -1.406250 1.875000 1.312500
v -1.593750 2.031250 1.687500
v -1.406250 2.031250 1.687500
v -1.406250 1.875000 1.687500
v -1.593750 1.875000 1.687500
v -1.593750 2.031250 1.312500
v -1.593750 2.031250 1.687500
v -1.593750 1.875000 1.687500
v -1.593750 1.875000 1.312500
v -1.406250 2.031250 1.687500
v -1.406250 2.031250 1.312500
v -1.406250 1.875000 1.312500
v -1.406250 1.875000 1.687500
v -1.593750 2.031250 1.312500
v -1.406250 2.031250 1.312500
v -1.406250 2.031250 1.687500
v -1.593750 2.031250 1.687500
v -0.375000 2.031250 1.312500
v -0.562500 2.031250 1.312500
v -0.562500 1.875000 1.312500
v -0.375000 1.875000 1.312500
v -0.562500 2.031250 1.687500
v -0.375000 2.031250 1.687500
v -0.375000 1.875000 1.687500
v -0.562500 1.875000 1.687500
v -0.562500 2.031250 1.312500
v -0.562500 2.031250 1.687500
v -0.562500 1.875000 1.687500
v -0.562500 1.875000 1.312500
v -0.375000 2.031250 1.687500
v -0.375000 2.031250 1.312500
v -0.375000 1.875000 1.312500
v -0.375000 1.875000 1.687500
v -0.562500 2.031250 1.312500
v -0.375000 2.031250 1.312500
v -0.375000 2.031250 1.687500
v -0.562500 2.031250 1.687500
v -2.000000 1.875000 -0.004000
v -2.000000 1.750000 -0.004000
v -3.000000 1.750000 -0.004000
v -3.000000 1.875000 -0.004000
v 0.000000 1.875000 -0.004000
v 0.000000 1.750000 -0.004000
v -1.000000 1.750000 -0.004000
v -1.000000 1.875000 -0.004000
v -3.000000 1.875000 2.004000
v -3.000000 1.750000 2.004000
v -2.000000 1.750000 2.004000
v -2.000000 1.875000 2.004000
v -1.000000 1.875000 2.004000
v -1.000000 1.750000 2.004000
v 0.000000 1.750000 2.004000
v 0.000000 1.875000 2.004000
v -3.004000 1.875000 0.000000
v -3.004000 1.750000 0.000000
v -3.004000 1.750000 2.000000
v -3.004000 1.875000 2.000000
v 0.004000 1.875000 2.000000
v 0.004000 1.750000 2.000000
v 0.004000 1.750000 0.000000
v 0.004000 1.875000 0.000000
v -2.812500 1.879000 0.250000
v -2.812500 1.879000 1.125000
v -2.187500 1.879000 1.125000
v -2.187500 1.879000 0.250000
v -0.812500 1.879000 0.250000
v -0.812500 1.879000 1.125000
v -0.187500 1.879000 1.125000
v -0.187500 1.879000 0.250000
v -3.000000 1.879000 0.000000
v -3.000000 1.879000 0.187500
v -2.812500 1.879000 0.187500
v -2.812500 1.879000 0.000000
v -2.187500 1.879000 0.000000
v -2.187500 1.879000 0.187500
v -2.000000 1.879000 0.187500
v -2.000000 1.879000 0.000000
v -3.000000 1.879000 1.812500
v -3.000000 1.879000 2.000000
v -2.812500 1.879000 2.000000
v -2.812500 1.879000 1.812500
v -2.187500 1.879000 1.812500
v -2.187500 1.879000 2.000000
v -2.000000 1.879000 2.000000
v -2.000000 1.879000 1.812500
v -1.000000 1.879000 0.000000
v -1.000000 1.879000 0.187500
v -0.812500 1.879000 0.187500
v -0.812500 1.879000 0.000000
v -0.187500 1.879000 0.000000
v -0.187500 1.879000 0.187500
v 0.000000 1.879000 0.187500
v 0.000000 1.879000 0.000000
v -1.000000 1.879000 1.812500
v -1.000000 1.879000 2.000000
v -0.812500 1.879000 2.000000
v -0.812500 1.879000 1.812500
v -0.187500 1.879000 1.812500
v -0.187500 1.879000 2.000000
v 0.000000 1.879000 2.000000
v 0.000000 1.879000 1.812500
v -1.996000 1.875000 2.000000
v -1.996000 1.750000 2.000000
v -1.996000 1.750000 0.000000
v -1.996000 1.875000 0.000000
v -3.000000 1.754000 0.937500
v -3.000000 1.754000 1.062500
v -2.875000 1.754000 1.062500
v -2.875000 1.754000 0.937500
v -0.125000 1.754000 0.937500
v -0.125000 1.754000 1.062500
v 0.000000 1.754000 1.062500
v 0.000000 1.754000 0.937500
v -3.000000 0.371000 1.062500
v -3.000000 0.371000 0.937500
v -2.875000 0.371000 0.937500
v -2.875000 0.371000 1.062500
v -0.125000 0.371000 1.062500
v -0.125000 0.371000 0.937500
v 0.000000 0.371000 0.937500
v 0.000000 0.371000 1.062500
v -1.004000 1.875000 0.000000
v -1.004000 1.750000 0.000000
v -1.004000 1.750000 2.000000
v -1.004000 1.875000 2.000000
vt 0.000000 0.468750
vt 0.375000 0.468750
vt 0.375000 0.445312
vt 0.000000 0.445312
vt 0.000000 0.468750
vt 0.375000 0.468750
vt 0.375000 0.445312
vt 0.000000 0.445312
vt 0.375000 0.468750
vt 0.625000 0.468750
vt 0.625000 0.445312
vt 0.375000 0.445312
vt 0.375000 0.468750
vt 0.625000 0.468750
vt 0.625000 0.445312
vt 0.375000 0.445312
vt 0.000000 1.000000
vt 0.375000 1.000000
vt 0.375000 0.750000
vt 0.000000 0.750000
vt 0.000000 0.750000
vt 0.023438 0.750000
vt 0.023438 0.539062
vt 0.000000 0.539062
vt 0.000000 0.750000
vt 0.023438 0.750000
vt 0.023438 0.539062
vt 0.000000 0.539062
vt 0.000000 0.750000
vt 0.023438 0.750000
vt 0.023438 0.539062
vt 0.000000 0.539062
vt 0.000000 0.750000
vt 0.023438 0.750000
vt 0.023438 0.539062
vt 0.000000 0.539062
vt 0.976562 0.539062
vt 1.000000 0.539062
vt 1.000000 0.515625
vt 0.976562 0.515625
vt 0.976562 0.539062
vt 1.000000 0.539062
vt 1.000000 0.515625
vt 0.976562 0.515625
vt 0.000000 0.750000
vt 0.023438 0.750000
vt 0.023438 0.539062
vt 0.000000 0.539062
vt 0.000000 0.750000
vt 0.023438 0.750000
vt 0.023438 0.539062
vt 0.000000 0.539062
vt 0.000000 0.750000
vt 0.023438 0.750000
vt 0.023438 0.539062
vt 0.000000 0.539062
vt 0.000000 0.750000
vt 0.023438 0.750000
vt 0.023438 0.539062
vt 0.000000 0.539062
vt 0.976562 0.539062
vt 1.000000 0.539062
vt 1.000000 0.515625
vt 0.976562 0.515625
vt 0.976562 0.539062
vt 1.000000 0.539062
vt 1.000000 0.515625
vt 0.976562 0.515625
vt 0.000000 0.750000
vt 0.023438 0.750000
vt 0.023438 0.539062
vt 0.000000 0.539062
vt 0.000000 0.750000
vt 0.023438 0.750000
vt 0.023438 0.539062
vt 0.000000 0.539062
vt 0.000000 0.750000
vt 0.023438 0.750000
vt 0.023438 0.539062
vt 0.000000 0.539062
vt 0.000000 0.750000
vt 0.023438 0.750000
vt 0.023438 0.539062
vt 0.000000 0.539062
vt 0.976562 0.539062
vt 1.000000 0.539062
vt 1.000000 0.515625
vt 0.976562 0.515625
vt 0.976562 0.539062
vt 1.000000 0.539062
vt 1.000000 0.515625
vt 0.976562 0.515625
vt 0.000000 0.750000
vt 0.023438 0.750000
vt 0.023438 0.539062
vt 0.000000 0.539062
vt 0.000000 0.750000
vt 0.023438 0.750000
vt 0.023438 0.539062
vt 0.000000 0.539062
vt 0.000000 0.750000
vt 0.023438 0.750000
vt 0.023438 0.539062
vt 0.000000 0.539062
vt 0.000000 0.750000
vt 0.023438 0.750000
vt 0.023438 0.539062
vt 0.000000 0.539062
vt 0.976562 0.539062
vt 1.000000 0.539062
vt 1.000000 0.515625
vt 0.976562 0.515625
vt 0.976562 0.539062
vt 1.000000 0.539062
vt 1.000000 0.515625
vt 0.976562 0.515625
vt 0.750000 0.468750
vt 0.773438 0.468750
vt 0.773438 0.445312
vt 0.750000 0.445312
vt 0.750000 0.468750
vt 0.773438 0.468750
vt 0.773438 0.445312
vt 0.750000 0.445312
vt 0.773438 0.539062
vt 0.976562 0.539062
vt 0.976562 0.515625
vt 0.773438 0.515625
vt 0.773438 0.539062
vt 0.976562 0.539062
vt 0.976562 0.515625
vt 0.773438 0.515625
vt 0.023438 0.750000
vt 0.046875 0.750000
vt 0.046875 0.546875
vt 0.023438 0.546875
vt 0.023438 0.750000
vt 0.046875 0.750000
vt 0.046875 0.546875
vt 0.023438 0.546875
vt 0.625000 0.468750
vt 0.703125 0.468750
vt 0.703125 0.445312
vt 0.625000 0.445312
vt 0.625000 0.468750
vt 0.703125 0.468750
vt 0.703125 0.445312
vt 0.625000 0.445312
vt 0.773438 0.468750
vt 0.796875 0.468750
vt 0.796875 0.445312
vt 0.773438 0.445312
vt 0.773438 0.468750
vt 0.796875 0.468750
vt 0.796875 0.445312
vt 0.773438 0.445312
vt 0.625000 0.468750
vt 0.703125 0.468750
vt 0.703125 0.445312
vt 0.625000 0.445312
vt 0.625000 0.468750
vt 0.703125 0.468750
vt 0.703125 0.445312
vt 0.625000 0.445312
vt 0.625000 0.468750
vt 0.703125 0.468750
vt 0.703125 0.445312
vt 0.625000 0.445312
vt 0.625000 0.468750
vt 0.703125 0.468750
vt 0.703125 0.445312
vt 0.625000 0.445312
vt 0.773438 0.468750
vt 0.796875 0.468750
vt 0.796875 0.445312
vt 0.773438 0.445312
vt 0.773438 0.468750
vt 0.796875 0.468750
vt 0.796875 0.445312
vt 0.773438 0.445312
vt 0.625000 0.468750
vt 0.703125 0.468750
vt 0.703125 0.445312
vt 0.625000 0.445312
vt 0.625000 0.468750
vt 0.703125 0.468750
vt 0.703125 0.445312
vt 0.625000 0.445312
vt 0.984375 1.000000
vt 1.000000 1.000000
vt 1.000000 0.828125
vt 0.984375 0.828125
vt 0.984375 1.000000
vt 1.000000 1.000000
vt 1.000000 0.828125
vt 0.984375 0.828125
vt 0.984375 1.000000
vt 1.000000 1.000000
vt 1.000000 0.828125
vt 0.984375 0.828125
vt 0.984375 1.000000
vt 1.000000 1.000000
vt 1.000000 0.828125
vt 0.984375 0.828125
vt 0.984375 0.468750
vt 1.000000 0.468750
vt 1.000000 0.453125
vt 0.984375 0.453125
vt 0.984375 0.468750
vt 1.000000 0.468750
vt 1.000000 0.453125
vt 0.984375 0.453125
vt 0.515625 0.750000
vt 0.625000 0.750000
vt 0.625000 0.578125
vt 0.515625 0.578125
vt 0.515625 0.750000
vt 0.625000 0.750000
vt 0.625000 0.578125
vt 0.515625 0.578125
vt 0.046875 0.750000
vt 0.281250 0.750000
vt 0.281250 0.578125
vt 0.046875 0.578125
vt 0.281250 0.750000
vt 0.515625 0.750000
vt 0.515625 0.578125
vt 0.281250 0.578125
vt 0.750000 1.000000
vt 0.859375 1.000000
vt 0.859375 0.765625
vt 0.750000 0.765625
vt 0.750000 1.000000
vt 0.859375 1.000000
vt 0.859375 0.765625
vt 0.750000 0.765625
vt 0.820312 0.468750
vt 0.945312 0.468750
vt 0.945312 0.453125
vt 0.820312 0.453125
vt 0.820312 0.468750
vt 0.945312 0.468750
vt 0.945312 0.453125
vt 0.820312 0.453125
vt 0.312500 0.445312
vt 0.562500 0.445312
vt 0.562500 0.429688
vt 0.312500 0.429688
vt 0.312500 0.445312
vt 0.562500 0.445312
vt 0.562500 0.429688
vt 0.312500 0.429688
vt 0.375000 1.000000
vt 0.500000 1.000000
vt 0.500000 0.750000
vt 0.375000 0.750000
vt 0.320312 0.539062
vt 0.328125 0.539062
vt 0.328125 0.492188
vt 0.320312 0.492188
vt 0.320312 0.539062
vt 0.328125 0.539062
vt 0.328125 0.492188
vt 0.320312 0.492188
vt 0.953125 0.750000
vt 1.000000 0.750000
vt 1.000000 0.703125
vt 0.953125 0.703125
vt 0.953125 0.750000
vt 1.000000 0.750000
vt 1.000000 0.703125
vt 0.953125 0.703125
vt 0.320312 0.539062
vt 0.328125 0.539062
vt 0.328125 0.492188
vt 0.320312 0.492188
vt 0.320312 0.539062
vt 0.328125 0.539062
vt 0.328125 0.492188
vt 0.320312 0.492188
vt 0.320312 0.539062
vt 0.328125 0.539062
vt 0.328125 0.492188
vt 0.320312 0.492188
vt 0.320312 0.539062
vt 0.328125 0.539062
vt 0.328125 0.492188
vt 0.320312 0.492188
vt 0.953125 0.750000
vt 1.000000 0.750000
vt 1.000000 0.703125
vt 0.953125 0.703125
vt 0.953125 0.750000
vt 1.000000 0.750000
vt 1.000000 0.703125
vt 0.953125 0.703125
vt 0.320312 0.539062
vt 0.328125 0.539062
vt 0.328125 0.492188
vt 0.320312 0.492188
vt 0.320312 0.539062
vt 0.328125 0.539062
vt 0.328125 0.492188
vt 0.320312 0.492188
vt 0.250000 0.539062
vt 0.296875 0.539062
vt 0.296875 0.492188
vt 0.250000 0.492188
vt 0.328125 0.539062
vt 0.335938 0.539062
vt 0.335938 0.492188
vt 0.328125 0.492188
vt 0.335938 0.539062
vt 0.343750 0.539062
vt 0.343750 0.492188
vt 0.335938 0.492188
vt 0.226562 0.429688
vt 0.273438 0.429688
vt 0.273438 0.421875
vt 0.226562 0.421875
vt 0.273438 0.429688
vt 0.320312 0.429688
vt 0.320312 0.421875
vt 0.273438 0.421875
vt 0.125000 0.429688
vt 0.140625 0.429688
vt 0.140625 0.414062
vt 0.125000 0.414062
vt 0.156250 0.429688
vt 0.164062 0.429688
vt 0.164062 0.414062
vt 0.156250 0.414062
vt 0.156250 0.429688
vt 0.164062 0.429688
vt 0.164062 0.414062
vt 0.156250 0.414062
vt 0.320312 0.429688
vt 0.335938 0.429688
vt 0.335938 0.421875
vt 0.320312 0.421875
vt 0.320312 0.429688
vt 0.335938 0.429688
vt 0.335938 0.421875
vt 0.320312 0.421875
vt 0.828125 0.750000
vt 0.890625 0.750000
vt 0.890625 0.656250
vt 0.828125 0.656250
vt 0.890625 0.750000
vt 0.898438 0.750000
vt 0.898438 0.656250
vt 0.890625 0.656250
vt 0.890625 0.750000
vt 0.898438 0.750000
vt 0.898438 0.656250
vt 0.890625 0.656250
vt 0.164062 0.429688
vt 0.226562 0.429688
vt 0.226562 0.421875
vt 0.164062 0.421875
vt 0.164062 0.429688
vt 0.226562 0.429688
vt 0.226562 0.421875
vt 0.164062 0.421875
vt 0.000000 0.750000
vt 0.023438 0.750000
vt 0.023438 0.539062
vt 0.000000 0.539062
vt 0.000000 0.750000
vt 0.023438 0.750000
vt 0.023438 0.539062
vt 0.000000 0.539062
vt 0.000000 0.750000
vt 0.023438 0.750000
vt 0.023438 0.539062
vt 0.000000 0.539062
vt 0.000000 0.750000
vt 0.023438 0.750000
vt 0.023438 0.539062
vt 0.000000 0.539062
vt 0.976562 0.539062
vt 1.000000 0.539062
vt 1.000000 0.515625
vt 0.976562 0.515625
vt 0.976562 0.539062
vt 1.000000 0.539062
vt 1.000000 0.515625
vt 0.976562 0.515625
vt 0.000000 0.750000
vt 0.023438 0.750000
vt 0.023438 0.539062
vt 0.000000 0.539062
vt 0.000000 0.750000
vt 0.023438 0.750000
vt 0.023438 0.539062
vt 0.000000 0.539062
vt 0.000000 0.750000
vt 0.023438 0.750000
vt 0.023438 0.539062
vt 0.000000 0.539062
vt 0.000000 0.750000
vt 0.023438 0.750000
vt 0.023438 0.539062
vt 0.000000 0.539062
vt 0.976562 0.539062
vt 1.000000 0.539062
vt 1.000000 0.515625
vt 0.976562 0.515625
vt 0.976562 0.539062
vt 1.000000 0.539062
vt 1.000000 0.515625
vt 0.976562 0.515625
vt 0.000000 0.750000
vt 0.023438 0.750000
vt 0.023438 0.539062
vt 0.000000 0.539062
vt 0.000000 0.750000
vt 0.023438 0.750000
vt 0.023438 0.539062
vt 0.000000 0.539062
vt 0.000000 0.750000
vt 0.023438 0.750000
vt 0.023438 0.539062
vt 0.000000 0.539062
vt 0.000000 0.750000
vt 0.023438 0.750000
vt 0.023438 0.539062
vt 0.000000 0.539062
vt 0.976562 0.539062
vt 1.000000 0.539062
vt 1.000000 0.515625
vt 0.976562 0.515625
vt 0.976562 0.539062
vt 1.000000 0.539062
vt 1.000000 0.515625
vt 0.976562 0.515625
vt 0.000000 0.750000
vt 0.023438 0.750000
vt 0.023438 0.539062
vt 0.000000 0.539062
vt 0.000000 0.750000
vt 0.023438 0.750000
vt 0.023438 0.539062
vt 0.000000 0.539062
vt 0.000000 0.750000
vt 0.023438 0.750000
vt 0.023438 0.539062
vt 0.000000 0.539062
vt 0.000000 0.750000
vt 0.023438 0.750000
vt 0.023438 0.539062
vt 0.000000 0.539062
vt 0.976562 0.539062
vt 1.000000 0.539062
vt 1.000000 0.515625
vt 0.976562 0.515625
vt 0.976562 0.539062
vt 1.000000 0.539062
vt 1.000000 0.515625
vt 0.976562 0.515625
vt 0.750000 0.468750
vt 0.773438 0.468750
vt 0.773438 0.445312
vt 0.750000 0.445312
vt 0.750000 0.468750
vt 0.773438 0.468750
vt 0.773438 0.445312
vt 0.750000 0.445312
vt 0.773438 0.539062
vt 0.976562 0.539062
vt 0.976562 0.515625
vt 0.773438 0.515625
vt 0.773438 0.539062
vt 0.976562 0.539062
vt 0.976562 0.515625
vt 0.773438 0.515625
vt 0.023438 0.750000
vt 0.046875 0.750000
vt 0.046875 0.546875
vt 0.023438 0.546875
vt 0.023438 0.750000
vt 0.046875 0.750000
vt 0.046875 0.546875
vt 0.023438 0.546875
vt 0.625000 0.468750
vt 0.703125 0.468750
vt 0.703125 0.445312
vt 0.625000 0.445312
vt 0.625000 0.468750
vt 0.703125 0.468750
vt 0.703125 0.445312
vt 0.625000 0.445312
vt 0.773438 0.468750
vt 0.796875 0.468750
vt 0.796875 0.445312
vt 0.773438 0.445312
vt 0.773438 0.468750
vt 0.796875 0.468750
vt 0.796875 0.445312
vt 0.773438 0.445312
vt 0.625000 0.468750
vt 0.703125 0.468750
vt 0.703125 0.445312
vt 0.625000 0.445312
vt 0.625000 0.468750
vt 0.703125 0.468750
vt 0.703125 0.445312
vt 0.625000 0.445312
vt 0.625000 0.468750
vt 0.703125 0.468750
vt 0.703125 0.445312
vt 0.625000 0.445312
vt 0.625000 0.468750
vt 0.703125 0.468750
vt 0.703125 0.445312
vt 0.625000 0.445312
vt 0.773438 0.468750
vt 0.796875 0.468750
vt 0.796875 0.445312
vt 0.773438 0.445312
vt 0.773438 0.468750
vt 0.796875 0.468750
vt 0.796875 0.445312
vt 0.773438 0.445312
vt 0.625000 0.468750
vt 0.703125 0.468750
vt 0.703125 0.445312
vt 0.625000 0.445312
vt 0.625000 0.468750
vt 0.703125 0.468750
vt 0.703125 0.445312
vt 0.625000 0.445312
vt 0.984375 1.000000
vt 1.000000 1.000000
vt 1.000000 0.828125
vt 0.984375 0.828125
vt 0.984375 1.000000
vt 1.000000 1.000000
vt 1.000000 0.828125
vt 0.984375 0.828125
vt 0.984375 1.000000
vt 1.000000 1.000000
vt 1.000000 0.828125
vt 0.984375 0.828125
vt 0.984375 1.000000
vt 1.000000 1.000000
vt 1.000000 0.828125
vt 0.984375 0.828125
vt 0.984375 0.468750
vt 1.000000 0.468750
vt 1.000000 0.453125
vt 0.984375 0.453125
vt 0.984375 0.468750
vt 1.000000 0.468750
vt 1.000000 0.453125
vt 0.984375 0.453125
vt 0.515625 0.750000
vt 0.625000 0.750000
vt 0.625000 0.578125
vt 0.515625 0.578125
vt 0.515625 0.750000
vt 0.625000 0.750000
vt 0.625000 0.578125
vt 0.515625 0.578125
vt 0.281250 0.750000
vt 0.515625 0.750000
vt 0.515625 0.578125
vt 0.281250 0.578125
vt 0.046875 0.750000
vt 0.281250 0.750000
vt 0.281250 0.578125
vt 0.046875 0.578125
vt 0.750000 1.000000
vt 0.859375 1.000000
vt 0.859375 0.765625
vt 0.750000 0.765625
vt 0.750000 1.000000
vt 0.859375 1.000000
vt 0.859375 0.765625
vt 0.750000 0.765625
vt 0.820312 0.468750
vt 0.945312 0.468750
vt 0.945312 0.453125
vt 0.820312 0.453125
vt 0.820312 0.468750
vt 0.945312 0.468750
vt 0.945312 0.453125
vt 0.820312 0.453125
vt 0.312500 0.445312
vt 0.562500 0.445312
vt 0.562500 0.429688
vt 0.312500 0.429688
vt 0.312500 0.445312
vt 0.562500 0.445312
vt 0.562500 0.429688
vt 0.312500 0.429688
vt 0.375000 1.000000
vt 0.500000 1.000000
vt 0.500000 0.750000
vt 0.375000 0.750000
vt 0.320312 0.539062
vt 0.328125 0.539062
vt 0.328125 0.492188
vt 0.320312 0.492188
vt 0.320312 0.539062
vt 0.328125 0.539062
vt 0.328125 0.492188
vt 0.320312 0.492188
vt 0.953125 0.750000
vt 1.000000 0.750000
vt 1.000000 0.703125
vt 0.953125 0.703125
vt 0.953125 0.750000
vt 1.000000 0.750000
vt 1.000000 0.703125
vt 0.953125 0.703125
vt 0.320312 0.539062
vt 0.328125 0.539062
vt 0.328125 0.492188
vt 0.320312 0.492188
vt 0.320312 0.539062
vt 0.328125 0.539062
vt 0.328125 0.492188
vt 0.320312 0.492188
vt 0.320312 0.539062
vt 0.328125 0.539062
vt 0.328125 0.492188
vt 0.320312 0.492188
vt 0.320312 0.539062
vt 0.328125 0.539062
vt 0.328125 0.492188
vt 0.320312 0.492188
vt 0.953125 0.750000
vt 1.000000 0.750000
vt 1.000000 0.703125
vt 0.953125 0.703125
vt 0.953125 0.750000
vt 1.000000 0.750000
vt 1.000000 0.703125
vt 0.953125 0.703125
vt 0.320312 0.539062
vt 0.328125 0.539062
vt 0.328125 0.492188
vt 0.320312 0.492188
vt 0.320312 0.539062
vt 0.328125 0.539062
vt 0.328125 0.492188
vt 0.320312 0.492188
vt 0.250000 0.539062
vt 0.296875 0.539062
vt 0.296875 0.492188
vt 0.250000 0.492188
vt 0.328125 0.539062
vt 0.335938 0.539062
vt 0.335938 0.492188
vt 0.328125 0.492188
vt 0.335938 0.539062
vt 0.343750 0.539062
vt 0.343750 0.492188
vt 0.335938 0.492188
vt 0.226562 0.429688
vt 0.273438 0.429688
vt 0.273438 0.421875
vt 0.226562 0.421875
vt 0.273438 0.429688
vt 0.320312 0.429688
vt 0.320312 0.421875
vt 0.273438 0.421875
vt 0.125000 0.429688
vt 0.140625 0.429688
vt 0.140625 0.414062
vt 0.125000 0.414062
vt 0.156250 0.429688
vt 0.164062 0.429688
vt 0.164062 0.414062
vt 0.156250 0.414062
vt 0.156250 0.429688
vt 0.164062 0.429688
vt 0.164062 0.414062
vt 0.156250 0.414062
vt 0.320312 0.429688
vt 0.335938 0.429688
vt 0.335938 0.421875
vt 0.320312 0.421875
vt 0.320312 0.429688
vt 0.335938 0.429688
vt 0.335938 0.421875
vt 0.320312 0.421875
vt 0.828125 0.750000
vt 0.890625 0.750000
vt 0.890625 0.656250
vt 0.828125 0.656250
vt 0.890625 0.750000
vt 0.898438 0.750000
vt 0.898438 0.656250
vt 0.890625 0.656250
vt 0.890625 0.750000
vt 0.898438 0.750000
vt 0.898438 0.656250
vt 0.890625 0.656250
vt 0.164062 0.429688
vt 0.226562 0.429688
vt 0.226562 0.421875
vt 0.164062 0.421875
vt 0.164062 0.429688
vt 0.226562 0.429688
vt 0.226562 0.421875
vt 0.164062 0.421875
vt 0.000000 0.539062
vt 0.125000 0.539062
vt 0.125000 0.468750
vt 0.000000 0.468750
vt 0.125000 0.539062
vt 0.250000 0.539062
vt 0.250000 0.468750
vt 0.125000 0.468750
vt 0.500000 1.000000
vt 0.625000 1.000000
vt 0.625000 0.750000
vt 0.500000 0.750000
vt 0.859375 1.000000
vt 0.984375 1.000000
vt 0.984375 0.781250
vt 0.859375 0.781250
vt 0.812500 0.445312
vt 0.937500 0.445312
vt 0.937500 0.429688
vt 0.812500 0.429688
vt 0.812500 0.445312
vt 0.937500 0.445312
vt 0.937500 0.429688
vt 0.812500 0.429688
vt 0.140625 0.429688
vt 0.156250 0.429688
vt 0.156250 0.414062
vt 0.140625 0.414062
vt 0.140625 0.429688
vt 0.156250 0.429688
vt 0.156250 0.414062
vt 0.140625 0.414062
vt 0.812500 0.445312
vt 0.937500 0.445312
vt 0.937500 0.429688
vt 0.812500 0.429688
vt 0.812500 0.445312
vt 0.937500 0.445312
vt 0.937500 0.429688
vt 0.812500 0.429688
vt 0.812500 0.445312
vt 0.937500 0.445312
vt 0.937500 0.429688
vt 0.812500 0.429688
vt 0.812500 0.445312
vt 0.937500 0.445312
vt 0.937500 0.429688
vt 0.812500 0.429688
vt 0.140625 0.429688
vt 0.156250 0.429688
vt 0.156250 0.414062
vt 0.140625 0.414062
vt 0.140625 0.429688
vt 0.156250 0.429688
vt 0.156250 0.414062
vt 0.140625 0.414062
vt 0.812500 0.445312
vt 0.937500 0.445312
vt 0.937500 0.429688
vt 0.812500 0.429688
vt 0.812500 0.445312
vt 0.937500 0.445312
vt 0.937500 0.429688
vt 0.812500 0.429688
vt 0.000000 0.429688
vt 0.125000 0.429688
vt 0.125000 0.414062
vt 0.000000 0.414062
vt 0.000000 0.429688
vt 0.125000 0.429688
vt 0.125000 0.414062
vt 0.000000 0.414062
vt 0.562500 0.445312
vt 0.812500 0.445312
vt 0.812500 0.429688
vt 0.562500 0.429688
vt 0.562500 0.445312
vt 0.812500 0.445312
vt 0.812500 0.429688
vt 0.562500 0.429688
vt 0.500000 1.000000
vt 0.625000 1.000000
vt 0.625000 0.750000
vt 0.500000 0.750000
vt 0.625000 1.000000
vt 0.750000 1.000000
vt 0.750000 0.750000
vt 0.625000 0.750000
vt 0.625000 0.750000
vt 0.750000 0.750000
vt 0.750000 0.640625
vt 0.625000 0.640625
vt 0.625000 0.750000
vt 0.750000 0.750000
vt 0.750000 0.640625
vt 0.625000 0.640625
vt 0.625000 0.750000
vt 0.750000 0.750000
vt 0.750000 0.640625
vt 0.625000 0.640625
vt 0.625000 0.750000
vt 0.750000 0.750000
vt 0.750000 0.640625
vt 0.625000 0.640625
vt 0.929688 0.750000
vt 0.953125 0.750000
vt 0.953125 0.695312
vt 0.929688 0.695312
vt 0.929688 0.750000
vt 0.953125 0.750000
vt 0.953125 0.695312
vt 0.929688 0.695312
vt 0.898438 0.750000
vt 0.929688 0.750000
vt 0.929688 0.695312
vt 0.898438 0.695312
vt 0.898438 0.750000
vt 0.929688 0.750000
vt 0.929688 0.695312
vt 0.898438 0.695312
vt 0.750000 0.539062
vt 0.773438 0.539062
vt 0.773438 0.507812
vt 0.750000 0.507812
vt 0.343750 0.539062
vt 0.375000 0.539062
vt 0.375000 0.500000
vt 0.343750 0.500000
vt 0.343750 0.539062
vt 0.375000 0.539062
vt 0.375000 0.500000
vt 0.343750 0.500000
vt 0.343750 0.539062
vt 0.375000 0.539062
vt 0.375000 0.500000
vt 0.343750 0.500000
vt 0.343750 0.539062
vt 0.375000 0.539062
vt 0.375000 0.500000
vt 0.343750 0.500000
vt 0.718750 0.539062
vt 0.750000 0.539062
vt 0.750000 0.507812
vt 0.718750 0.507812
vt 0.718750 0.539062
vt 0.750000 0.539062
vt 0.750000 0.507812
vt 0.718750 0.507812
vt 0.929688 0.750000
vt 0.953125 0.750000
vt 0.953125 0.695312
vt 0.929688 0.695312
vt 0.929688 0.750000
vt 0.953125 0.750000
vt 0.953125 0.695312
vt 0.929688 0.695312
vt 0.898438 0.750000
vt 0.929688 0.750000
vt 0.929688 0.695312
vt 0.898438 0.695312
vt 0.898438 0.750000
vt 0.929688 0.750000
vt 0.929688 0.695312
vt 0.898438 0.695312
vt 0.750000 0.539062
vt 0.773438 0.539062
vt 0.773438 0.507812
vt 0.750000 0.507812
vt 0.343750 0.539062
vt 0.375000 0.539062
vt 0.375000 0.500000
vt 0.343750 0.500000
vt 0.343750 0.539062
vt 0.375000 0.539062
vt 0.375000 0.500000
vt 0.343750 0.500000
vt 0.343750 0.539062
vt 0.375000 0.539062
vt 0.375000 0.500000
vt 0.343750 0.500000
vt 0.343750 0.539062
vt 0.375000 0.539062
vt 0.375000 0.500000
vt 0.343750 0.500000
vt 0.718750 0.539062
vt 0.750000 0.539062
vt 0.750000 0.507812
vt 0.718750 0.507812
vt 0.718750 0.539062
vt 0.750000 0.539062
vt 0.750000 0.507812
vt 0.718750 0.507812
vt 0.750000 0.750000
vt 0.828125 0.750000
vt 0.828125 0.640625
vt 0.750000 0.640625
vt 0.750000 0.750000
vt 0.828125 0.750000
vt 0.828125 0.640625
vt 0.750000 0.640625
vt 0.937500 0.445312
vt 0.968750 0.445312
vt 0.968750 0.429688
vt 0.937500 0.429688
vt 0.937500 0.445312
vt 0.968750 0.445312
vt 0.968750 0.429688
vt 0.937500 0.429688
vt 0.945312 0.468750
vt 0.984375 0.468750
vt 0.984375 0.453125
vt 0.945312 0.453125
vt 0.945312 0.468750
vt 0.984375 0.468750
vt 0.984375 0.453125
vt 0.945312 0.453125
vt 0.375000 0.539062
vt 0.406250 0.539062
vt 0.406250 0.500000
vt 0.375000 0.500000
vt 0.937500 0.445312
vt 0.968750 0.445312
vt 0.968750 0.429688
vt 0.937500 0.429688
vt 0.937500 0.445312
vt 0.968750 0.445312
vt 0.968750 0.429688
vt 0.937500 0.429688
vt 0.945312 0.468750
vt 0.984375 0.468750
vt 0.984375 0.453125
vt 0.945312 0.453125
vt 0.945312 0.468750
vt 0.984375 0.468750
vt 0.984375 0.453125
vt 0.945312 0.453125
vt 0.375000 0.539062
vt 0.406250 0.539062
vt 0.406250 0.500000
vt 0.375000 0.500000
vt 0.000000 0.445312
vt 0.312500 0.445312
vt 0.312500 0.429688
vt 0.000000 0.429688
vt 0.000000 0.445312
vt 0.312500 0.445312
vt 0.312500 0.429688
vt 0.000000 0.429688
vt 0.968750 0.445312
vt 1.000000 0.445312
vt 1.000000 0.429688
vt 0.968750 0.429688
vt 0.968750 0.445312
vt 1.000000 0.445312
vt 1.000000 0.429688
vt 0.968750 0.429688
vt 0.406250 0.539062
vt 0.718750 0.539062
vt 0.718750 0.507812
vt 0.406250 0.507812
vt 0.796875 0.468750
vt 0.820312 0.468750
vt 0.820312 0.445312
vt 0.796875 0.445312
vt 0.796875 0.468750
vt 0.820312 0.468750
vt 0.820312 0.445312
vt 0.796875 0.445312
vt 0.703125 0.468750
vt 0.750000 0.468750
vt 0.750000 0.445312
vt 0.703125 0.445312
vt 0.703125 0.468750
vt 0.750000 0.468750
vt 0.750000 0.445312
vt 0.703125 0.445312
vt 0.296875 0.539062
vt 0.320312 0.539062
vt 0.320312 0.492188
vt 0.296875 0.492188
vt 0.796875 0.468750
vt 0.820312 0.468750
vt 0.820312 0.445312
vt 0.796875 0.445312
vt 0.796875 0.468750
vt 0.820312 0.468750
vt 0.820312 0.445312
vt 0.796875 0.445312
vt 0.703125 0.468750
vt 0.750000 0.468750
vt 0.750000 0.445312
vt 0.703125 0.445312
vt 0.703125 0.468750
vt 0.750000 0.468750
vt 0.750000 0.445312
vt 0.703125 0.445312
vt 0.296875 0.539062
vt 0.320312 0.539062
vt 0.320312 0.492188
vt 0.296875 0.492188
vt 0.796875 0.468750
vt 0.820312 0.468750
vt 0.820312 0.445312
vt 0.796875 0.445312
vt 0.796875 0.468750
vt 0.820312 0.468750
vt 0.820312 0.445312
vt 0.796875 0.445312
vt 0.703125 0.468750
vt 0.750000 0.468750
vt 0.750000 0.445312
vt 0.703125 0.445312
vt 0.703125 0.468750
vt 0.750000 0.468750
vt 0.750000 0.445312
vt 0.703125 0.445312
vt 0.296875 0.539062
vt 0.320312 0.539062
vt 0.320312 0.492188
vt 0.296875 0.492188
vn 0 0 -1
vn 0 0 1
vn -1 0 0
vn 1 0 0
vn 0 1 0
vn 0 -1 0
usemtl electrolyzer
o Hull
f 1/1/1 4/4/1 3/3/1 2/2/1
f 5/5/2 8/8/2 7/7/2 6/6/2
f 9/9/3 12/12/3 11/11/3 10/10/3
f 13/13/4 16/16/4 15/15/4 14/14/4
f 17/17/5 20/20/5 19/19/5 18/18/5
f 21/21/1 24/24/1 23/23/1 22/22/1
f 25/25/2 28/28/2 27/27/2 26/26/2
f 29/29/3 32/32/3 31/31/3 30/30/3
f 33/33/4 36/36/4 35/35/4 34/34/4
f 1061/37/5 1062/40/5 1063/39/5 1064/38/5
f 41/41/6 44/44/6 43/43/6 42/42/6
f 45/45/1 48/48/1 47/47/1 46/46/1
f 49/49/2 52/52/2 51/51/2 50/50/2
f 53/53/3 56/56/3 55/55/3 54/54/3
f 57/57/4 60/60/4 59/59/4 58/58/4
f 1065/61/5 1066/64/5 1067/63/5 1068/62/5
f 65/65/6 68/68/6 67/67/6 66/66/6
f 69/69/1 72/72/1 71/71/1 70/70/1
f 73/73/2 76/76/2 75/75/2 74/74/2
f 77/77/3 80/80/3 79/79/3 78/78/3
f 81/81/4 84/84/4 83/83/4 82/82/4
f 1069/85/5 1070/88/5 1071/87/5 1072/86/5
f 89/89/6 92/92/6 91/91/6 90/90/6
f 93/93/1 96/96/1 95/95/1 94/94/1
f 97/97/2 100/100/2 99/99/2 98/98/2
f 101/101/3 104/104/3 103/103/3 102/102/3
f 105/105/4 108/108/4 107/107/4 106/106/4
f 1073/109/5 1074/112/5 1075/111/5 1076/110/5
f 113/113/6 116/116/6 115/115/6 114/114/6
f 117/117/1 120/120/1 119/119/1 118/118/1
f 121/121/2 124/124/2 123/123/2 122/122/2
f 125/125/3 128/128/3 127/127/3 126/126/3
f 129/129/4 132/132/4 131/131/4 130/130/4
f 133/133/5 136/136/5 135/135/5 134/134/5
f 137/137/6 140/140/6 139/139/6 138/138/6
f 141/141/1 144/144/1 143/143/1 142/142/1
f 145/145/2 148/148/2 147/147/2 146/146/2
f 149/149/3 152/152/3 151/151/3 150/150/3
f 153/153/4 156/156/4 155/155/4 154/154/4
f 157/157/5 160/160/5 159/159/5 158/158/5
f 161/161/6 164/164/6 163/163/6 162/162/6
f 165/165/1 168/168/1 167/167/1 166/166/1
f 169/169/2 172/172/2 171/171/2 170/170/2
f 173/173/3 176/176/3 175/175/3 174/174/3
f 177/177/4 180/180/4 179/179/4 178/178/4
f 181/181/5 184/184/5 183/183/5 182/182/5
f 185/185/6 188/188/6 187/187/6 186/186/6
f 189/189/1 192/192/1 191/191/1 190/190/1
f 193/193/2 196/196/2 195/195/2 194/194/2
f 197/197/3 200/200/3 199/199/3 198/198/3
f 201/201/4 204/204/4 203/203/4 202/202/4
f 1097/205/5 1098/208/5 1099/207/5 1100/206/5
f 1105/209/6 1106/212/6 1107/211/6 1108/210/6
f 213/213/1 216/216/1 215/215/1 214/214/1
f 217/217/2 220/220/2 219/219/2 218/218/2
f 221/221/3 224/224/3 223/223/3 222/222/3
f 225/225/4 228/228/4 227/227/4 226/226/4
f 229/229/5 232/232/5 231/231/5 230/230/5
f 233/233/6 236/236/6 235/235/6 234/234/6
f 1029/237/1 1030/240/1 1031/239/1 1032/238/1
f 1037/241/2 1038/244/2 1039/243/2 1040/242/2
f 1045/245/3 1046/248/3 1047/247/3 1048/246/3
f 1093/249/4 1094/252/4 1095/251/4 1096/250/4
f 253/253/5 256/256/5 255/255/5 254/254/5
f 257/257/1 260/260/1 259/259/1 258/258/1
f 261/261/2 264/264/2 263/263/2 262/262/2
f 265/265/3 268/268/3 267/267/3 266/266/3
f 269/269/4 272/272/4 271/271/4 270/270/4
f 273/273/5 276/276/5 275/275/5 274/274/5
f 277/277/6 280/280/6 279/279/6 278/278/6
f 281/281/1 284/284/1 283/283/1 282/282/1
f 285/285/2 288/288/2 287/287/2 286/286/2
f 289/289/3 292/292/3 291/291/3 290/290/3
f 293/293/4 296/296/4 295/295/4 294/294/4
f 297/297/5 300/300/5 299/299/5 298/298/5
f 301/301/6 304/304/6 303/303/6 302/302/6
f 305/305/1 308/308/1 307/307/1 306/306/1
f 309/309/3 312/312/3 311/311/3 310/310/3
f 313/313/4 316/316/4 315/315/4 314/314/4
f 317/317/5 320/320/5 319/319/5 318/318/5
f 321/321/6 324/324/6 323/323/6 322/322/6
f 325/325/1 328/328/1 327/327/1 326/326/1
f 329/329/3 332/332/3 331/331/3 330/330/3
f 333/333/4 336/336/4 335/335/4 334/334/4
f 337/337/5 340/340/5 339/339/5 338/338/5
f 341/341/6 344/344/6 343/343/6 342/342/6
f 345/345/2 348/348/2 347/347/2 346/346/2
f 349/349/3 352/352/3 351/351/3 350/350/3
f 353/353/4 356/356/4 355/355/4 354/354/4
f 357/357/5 360/360/5 359/359/5 358/358/5
f 361/361/6 364/364/6 363/363/6 362/362/6
f 365/365/1 368/368/1 367/367/1 366/366/1
f 369/369/2 372/372/2 371/371/2 370/370/2
f 373/373/3 376/376/3 375/375/3 374/374/3
f 377/377/4 380/380/4 379/379/4 378/378/4
f 1077/381/5 1078/384/5 1079/383/5 1080/382/5
f 385/385/6 388/388/6 387/387/6 386/386/6
f 389/389/1 392/392/1 391/391/1 390/390/1
f 393/393/2 396/396/2 395/395/2 394/394/2
f 397/397/3 400/400/3 399/399/3 398/398/3
f 401/401/4 404/404/4 403/403/4 402/402/4
f 1081/405/5 1082/408/5 1083/407/5 1084/406/5
f 409/409/6 412/412/6 411/411/6 410/410/6
f 413/413/1 416/416/1 415/415/1 414/414/1
f 417/417/2 420/420/2 419/419/2 418/418/2
f 421/421/3 424/424/3 423/423/3 422/422/3
f 425/425/4 428/428/4 427/427/4 426/426/4
f 1085/429/5 1086/432/5 1087/431/5 1088/430/5
f 433/433/6 436/436/6 435/435/6 434/434/6
f 437/437/1 440/440/1 439/439/1 438/438/1
f 441/441/2 444/444/2 443/443/2 442/442/2
f 445/445/3 448/448/3 447/447/3 446/446/3
f 449/449/4 452/452/4 451/451/4 450/450/4
f 1089/453/5 1090/456/5 1091/455/5 1092/454/5
f 457/457/6 460/460/6 459/459/6 458/458/6
f 461/461/1 464/464/1 463/463/1 462/462/1
f 465/465/2 468/468/2 467/467/2 466/466/2
f 469/469/3 472/472/3 471/471/3 470/470/3
f 473/473/4 476/476/4 475/475/4 474/474/4
f 477/477/5 480/480/5 479/479/5 478/478/5
f 481/481/6 484/484/6 483/483/6 482/482/6
f 485/485/1 488/488/1 487/487/1 486/486/1
f 489/489/2 492/492/2 491/491/2 490/490/2
f 493/493/3 496/496/3 495/495/3 494/494/3
f 497/497/4 500/500/4 499/499/4 498/498/4
f 501/501/5 504/504/5 503/503/5 502/502/5
f 505/505/6 508/508/6 507/507/6 506/506/6
f 509/509/1 512/512/1 511/511/1 510/510/1
f 513/513/2 516/516/2 515/515/2 514/514/2
f 517/517/3 520/520/3 519/519/3 518/518/3
f 521/521/4 524/524/4 523/523/4 522/522/4
f 525/525/5 528/528/5 527/527/5 526/526/5
f 529/529/6 532/532/6 531/531/6 530/530/6
f 533/533/1 536/536/1 535/535/1 534/534/1
f 537/537/2 540/540/2 539/539/2 538/538/2
f 541/541/3 544/544/3 543/543/3 542/542/3
f 545/545/4 548/548/4 547/547/4 546/546/4
f 1101/549/5 1102/552/5 1103/551/5 1104/550/5
f 1109/553/6 1110/556/6 1111/555/6 1112/554/6
f 557/557/1 560/560/1 559/559/1 558/558/1
f 561/561/2 564/564/2 563/563/2 562/562/2
f 565/565/3 568/568/3 567/567/3 566/566/3
f 569/569/4 572/572/4 571/571/4 570/570/4
f 573/573/5 576/576/5 575/575/5 574/574/5
f 577/577/6 580/580/6 579/579/6 578/578/6
f 1033/581/1 1034/584/1 1035/583/1 1036/582/1
f 1041/585/2 1042/588/2 1043/587/2 1044/586/2
f 1113/589/3 1114/592/3 1115/591/3 1116/590/3
f 1049/593/4 1050/596/4 1051/595/4 1052/594/4
f 597/597/5 600/600/5 599/599/5 598/598/5
f 601/601/1 604/604/1 603/603/1 602/602/1
f 605/605/2 608/608/2 607/607/2 606/606/2
f 609/609/3 612/612/3 611/611/3 610/610/3
f 613/613/4 616/616/4 615/615/4 614/614/4
f 617/617/5 620/620/5 619/619/5 618/618/5
f 621/621/6 624/624/6 623/623/6 622/622/6
f 625/625/1 628/628/1 627/627/1 626/626/1
f 629/629/2 632/632/2 631/631/2 630/630/2
f 633/633/3 636/636/3 635/635/3 634/634/3
f 637/637/4 640/640/4 639/639/4 638/638/4
f 641/641/5 644/644/5 643/643/5 642/642/5
f 645/645/6 648/648/6 647/647/6 646/646/6
f 649/649/1 652/652/1 651/651/1 650/650/1
f 653/653/3 656/656/3 655/655/3 654/654/3
f 657/657/4 660/660/4 659/659/4 658/658/4
f 661/661/5 664/664/5 663/663/5 662/662/5
f 665/665/6 668/668/6 667/667/6 666/666/6
f 669/669/1 672/672/1 671/671/1 670/670/1
f 673/673/3 676/676/3 675/675/3 674/674/3
f 677/677/4 680/680/4 679/679/4 678/678/4
f 681/681/5 684/684/5 683/683/5 682/682/5
f 685/685/6 688/688/6 687/687/6 686/686/6
f 689/689/2 692/692/2 691/691/2 690/690/2
f 693/693/3 696/696/3 695/695/3 694/694/3
f 697/697/4 700/700/4 699/699/4 698/698/4
f 701/701/5 704/704/5 703/703/5 702/702/5
f 705/705/6 708/708/6 707/707/6 706/706/6
f 709/709/1 712/712/1 711/711/1 710/710/1
f 713/713/2 716/716/2 715/715/2 714/714/2
f 717/717/6 720/720/6 719/719/6 718/718/6
f 721/721/5 724/724/5 723/723/5 722/722/5
f 725/725/1 728/728/1 727/727/1 726/726/1
f 729/729/2 732/732/2 731/731/2 730/730/2
f 733/733/3 736/736/3 735/735/3 734/734/3
f 737/737/4 740/740/4 739/739/4 738/738/4
f 741/741/5 744/744/5 743/743/5 742/742/5
f 745/745/6 748/748/6 747/747/6 746/746/6
f 749/749/1 752/752/1 751/751/1 750/750/1
f 753/753/2 756/756/2 755/755/2 754/754/2
f 757/757/3 760/760/3 759/759/3 758/758/3
f 761/761/4 764/764/4 763/763/4 762/762/4
f 765/765/5 768/768/5 767/767/5 766/766/5
f 769/769/6 772/772/6 771/771/6 770/770/6
f 773/773/1 776/776/1 775/775/1 774/774/1
f 777/777/2 780/780/2 779/779/2 778/778/2
f 781/781/3 784/784/3 783/783/3 782/782/3
f 785/785/4 788/788/4 787/787/4 786/786/4
f 789/789/5 792/792/5 791/791/5 790/790/5
f 793/793/6 796/796/6 795/795/6 794/794/6
f 797/797/1 800/800/1 799/799/1 798/798/1
f 801/801/2 804/804/2 803/803/2 802/802/2
f 805/805/1 808/808/1 807/807/1 806/806/1
f 809/809/2 812/812/2 811/811/2 810/810/2
f 813/813/1 816/816/1 815/815/1 814/814/1
f 817/817/2 820/820/2 819/819/2 818/818/2
f 821/821/3 824/824/3 823/823/3 822/822/3
f 825/825/4 828/828/4 827/827/4 826/826/4
f 829/829/5 832/832/5 831/831/5 830/830/5
f 833/833/1 836/836/1 835/835/1 834/834/1
f 837/837/2 840/840/2 839/839/2 838/838/2
f 841/841/3 844/844/3 843/843/3 842/842/3
f 845/845/4 848/848/4 847/847/4 846/846/4
f 849/849/5 852/852/5 851/851/5 850/850/5
f 853/853/6 856/856/6 855/855/6 854/854/6
f 857/857/1 860/860/1 859/859/1 858/858/1
f 861/861/2 864/864/2 863/863/2 862/862/2
f 865/865/3 868/868/3 867/867/3 866/866/3
f 869/869/4 872/872/4 871/871/4 870/870/4
f 873/873/5 876/876/5 875/875/5 874/874/5
f 877/877/1 880/880/1 879/879/1 878/878/1
f 881/881/2 884/884/2 883/883/2 882/882/2
f 885/885/3 888/888/3 887/887/3 886/886/3
f 889/889/4 892/892/4 891/891/4 890/890/4
f 893/893/5 896/896/5 895/895/5 894/894/5
f 897/897/6 900/900/6 899/899/6 898/898/6
f 1053/901/5 1054/904/5 1055/903/5 1056/902/5
f 1057/905/5 1058/908/5 1059/907/5 1060/906/5
f 909/909/1 912/912/1 911/911/1 910/910/1
f 913/913/2 916/916/2 915/915/2 914/914/2
f 917/917/3 920/920/3 919/919/3 918/918/3
f 921/921/4 924/924/4 923/923/4 922/922/4
f 925/925/5 928/928/5 927/927/5 926/926/5
f 929/929/1 932/932/1 931/931/1 930/930/1
f 933/933/2 936/936/2 935/935/2 934/934/2
f 937/937/3 940/940/3 939/939/3 938/938/3
f 941/941/4 944/944/4 943/943/4 942/942/4
f 945/945/5 948/948/5 947/947/5 946/946/5
f 949/949/1 952/952/1 951/951/1 950/950/1
f 953/953/2 956/956/2 955/955/2 954/954/2
f 957/957/3 960/960/3 959/959/3 958/958/3
f 961/961/4 964/964/4 963/963/4 962/962/4
f 965/965/5 968/968/5 967/967/5 966/966/5
f 969/969/1 972/972/1 971/971/1 970/970/1
f 973/973/2 976/976/2 975/975/2 974/974/2
f 977/977/3 980/980/3 979/979/3 978/978/3
f 981/981/4 984/984/4 983/983/4 982/982/4
f 985/985/5 988/988/5 987/987/5 986/986/5
f 989/989/1 992/992/1 991/991/1 990/990/1
f 993/993/2 996/996/2 995/995/2 994/994/2
f 997/997/3 1000/1000/3 999/999/3 998/998/3
f 1001/1001/4 1004/1004/4 1003/1003/4 1002/1002/4
f 1005/1005/5 1008/1008/5 1007/1007/5 1006/1006/5
f 1009/1009/1 1012/1012/1 1011/1011/1 1010/1010/1
f 1013/1013/2 1016/1016/2 1015/1015/2 1014/1014/2
f 1017/1017/3 1020/1020/3 1019/1019/3 1018/1018/3
f 1021/1021/4 1024/1024/4 1023/1023/4 1022/1022/4
f 1025/1025/5 1028/1028/5 1027/1027/5 1026/1026/5
