# jetpack generated by machinegen.py
mtllib jetpack.mtl
v 0.343750 0.687500 0.187500
v -0.343750 0.687500 0.187500
v -0.343750 0.000000 0.187500
v 0.343750 0.000000 0.187500
v -0.343750 0.687500 0.187500
v -0.343750 0.687500 0.250000
v -0.343750 0.000000 0.250000
v -0.343750 0.000000 0.187500
v 0.343750 0.687500 0.250000
v 0.343750 0.687500 0.187500
v 0.343750 0.000000 0.187500
v 0.343750 0.000000 0.250000
v -0.343750 0.687500 0.187500
v 0.343750 0.687500 0.187500
v 0.343750 0.687500 0.250000
v -0.343750 0.687500 0.250000
v -0.343750 0.000000 0.250000
v 0.343750 0.000000 0.250000
v 0.343750 0.000000 0.187500
v -0.343750 0.000000 0.187500
v 0.093750 0.562500 0.250000
v -0.093750 0.562500 0.250000
v -0.093750 0.062500 0.250000
v 0.093750 0.062500 0.250000
v -0.093750 0.562500 0.437500
v 0.093750 0.562500 0.437500
v 0.093750 0.062500 0.437500
v -0.093750 0.062500 0.437500
v -0.093750 0.562500 0.250000
v -0.093750 0.562500 0.437500
v -0.093750 0.062500 0.437500
v -0.093750 0.062500 0.250000
v 0.093750 0.562500 0.437500
v 0.093750 0.562500 0.250000
v 0.093750 0.062500 0.250000
v 0.093750 0.062500 0.437500
v -0.093750 0.562500 0.250000
v 0.093750 0.562500 0.250000
v 0.093750 0.562500 0.437500
v -0.093750 0.562500 0.437500
v -0.093750 0.062500 0.437500
v 0.093750 0.062500 0.437500
v 0.093750 0.062500 0.250000
v -0.093750 0.062500 0.250000
v -0.062500 0.281250 0.468750
v 0.062500 0.281250 0.468750
v 0.062500 0.156250 0.468750
v -0.062500 0.156250 0.468750
v -0.062500 0.281250 0.437500
v -0.062500 0.281250 0.468750
v -0.062500 0.156250 0.468750
v -0.062500 0.156250 0.437500
v 0.062500 0.281250 0.468750
v 0.062500 0.281250 0.437500
v 0.062500 0.156250 0.437500
v 0.062500 0.156250 0.468750
v -0.062500 0.281250 0.437500
v 0.062500 0.281250 0.437500
v 0.062500 0.281250 0.468750
v -0.062500 0.281250 0.468750
v -0.062500 0.156250 0.468750
v 0.062500 0.156250 0.468750
v 0.062500 0.156250 0.437500
v -0.062500 0.156250 0.437500
v -0.062500 0.500000 0.468750
v 0.062500 0.500000 0.468750
v 0.062500 0.375000 0.468750
v -0.062500 0.375000 0.468750
v -0.062500 0.500000 0.437500
v -0.062500 0.500000 0.468750
v -0.062500 0.375000 0.468750
v -0.062500 0.375000 0.437500
v 0.062500 0.500000 0.468750
v 0.062500 0.500000 0.437500
v 0.062500 0.375000 0.437500
v 0.062500 0.375000 0.468750
v -0.062500 0.500000 0.437500
v 0.062500 0.500000 0.437500
v 0.062500 0.500000 0.468750
v -0.062500 0.500000 0.468750
v -0.062500 0.375000 0.468750
v 0.062500 0.375000 0.468750
v 0.062500 0.375000 0.437500
v -0.062500 0.375000 0.437500
v -0.093750 0.562500 0.250000
v -0.343750 0.562500 0.250000
v -0.343750 -0.062500 0.250000
v -0.093750 -0.062500 0.250000
v -0.343750 0.562500 0.531250
v -0.093750 0.562500 0.531250
v -0.093750 -0.062500 0.531250
v -0.343750 -0.062500 0.531250
v -0.343750 0.562500 0.250000
v -0.343750 0.562500 0.531250
v -0.343750 -0.062500 0.531250
v -0.343750 -0.062500 0.250000
v -0.093750 0.562500 0.531250
v -0.093750 0.562500 0.250000
v -0.093750 -0.062500 0.250000
v -0.093750 -0.062500 0.531250
v -0.343750 0.562500 0.250000
v -0.093750 0.562500 0.250000
v -0.093750 0.562500 0.531250
v -0.343750 0.562500 0.531250
v -0.343750 -0.062500 0.531250
v -0.093750 -0.062500 0.531250
v -0.093750 -0.062500 0.250000
v -0.343750 -0.062500 0.250000
v -0.125000 -0.062500 0.281250
v -0.312500 -0.062500 0.281250
v -0.312500 -0.187500 0.281250
v -0.125000 -0.187500 0.281250
v -0.312500 -0.062500 0.500000
v -0.125000 -0.062500 0.500000
v -0.125000 -0.187500 0.500000
v -0.312500 -0.187500 0.500000
v -0.312500 -0.062500 0.281250
v -0.312500 -0.062500 0.500000
v -0.312500 -0.187500 0.500000
v -0.312500 -0.187500 0.281250
v -0.125000 -0.062500 0.500000
v -0.125000 -0.062500 0.281250
v -0.125000 -0.187500 0.281250
v -0.125000 -0.187500 0.500000
v -0.312500 -0.062500 0.281250
v -0.125000 -0.062500 0.281250
v -0.125000 -0.062500 0.500000
v -0.312500 -0.062500 0.500000
v -0.078125 0.156250 0.234375
v -0.359375 0.156250 0.234375
v -0.359375 0.062500 0.234375
v -0.078125 0.062500 0.234375
v -0.359375 0.156250 0.546875
v -0.078125 0.156250 0.546875
v -0.078125 0.062500 0.546875
v -0.359375 0.062500 0.546875
v -0.359375 0.156250 0.234375
v -0.359375 0.156250 0.546875
v -0.359375 0.062500 0.546875
v -0.359375 0.062500 0.234375
v -0.078125 0.156250 0.546875
v -0.078125 0.156250 0.234375
v -0.078125 0.062500 0.234375
v -0.078125 0.062500 0.546875
v -0.359375 0.156250 0.234375
v -0.078125 0.156250 0.234375
v -0.078125 0.156250 0.546875
v -0.359375 0.156250 0.546875
v -0.359375 0.062500 0.546875
v -0.078125 0.062500 0.546875
v -0.078125 0.062500 0.234375
v -0.359375 0.062500 0.234375
v -0.078125 0.437500 0.234375
v -0.359375 0.437500 0.234375
v -0.359375 0.375000 0.234375
v -0.078125 0.375000 0.234375
v -0.359375 0.437500 0.546875
v -0.078125 0.437500 0.546875
v -0.078125 0.375000 0.546875
v -0.359375 0.375000 0.546875
v -0.359375 0.437500 0.234375
v -0.359375 0.437500 0.546875
v -0.359375 0.375000 0.546875
v -0.359375 0.375000 0.234375
v -0.078125 0.437500 0.546875
v -0.078125 0.437500 0.234375
v -0.078125 0.375000 0.234375
v -0.078125 0.375000 0.546875
v -0.359375 0.437500 0.234375
v -0.078125 0.437500 0.234375
v -0.078125 0.437500 0.546875
v -0.359375 0.437500 0.546875
v -0.359375 0.375000 0.546875
v -0.078125 0.375000 0.546875
v -0.078125 0.375000 0.234375
v -0.359375 0.375000 0.234375
v -0.125000 0.656250 0.281250
v -0.312500 0.656250 0.281250
v -0.312500 0.562500 0.281250
v -0.125000 0.562500 0.281250
v -0.312500 0.656250 0.500000
v -0.125000 0.656250 0.500000
v -0.125000 0.562500 0.500000
v -0.312500 0.562500 0.500000
v -0.312500 0.656250 0.281250
v -0.312500 0.656250 0.500000
v -0.312500 0.562500 0.500000
v -0.312500 0.562500 0.281250
v -0.125000 0.656250 0.500000
v -0.125000 0.656250 0.281250
v -0.125000 0.562500 0.281250
v -0.125000 0.562500 0.500000
v -0.312500 0.656250 0.281250
v -0.125000 0.656250 0.281250
v -0.125000 0.656250 0.500000
v -0.312500 0.656250 0.500000
v -0.312500 0.562500 0.500000
v -0.125000 0.562500 0.500000
v -0.125000 0.562500 0.281250
v -0.312500 0.562500 0.281250
v -0.156250 0.718750 0.328125
v -0.281250 0.718750 0.328125
v -0.281250 0.656250 0.328125
v -0.156250 0.656250 0.328125
v -0.281250 0.718750 0.453125
v -0.156250 0.718750 0.453125
v -0.156250 0.656250 0.453125
v -0.281250 0.656250 0.453125
v -0.281250 0.718750 0.328125
v -0.281250 0.718750 0.453125
v -0.281250 0.656250 0.453125
v -0.281250 0.656250 0.328125
v -0.156250 0.718750 0.453125
v -0.156250 0.718750 0.328125
v -0.156250 0.656250 0.328125
v -0.156250 0.656250 0.453125
v -0.140625 0.796875 0.312500
v -0.296875 0.796875 0.312500
v -0.296875 0.718750 0.312500
v -0.140625 0.718750 0.312500
v -0.296875 0.796875 0.468750
v -0.140625 0.796875 0.468750
v -0.140625 0.718750 0.468750
v -0.296875 0.718750 0.468750
v -0.296875 0.796875 0.312500
v -0.296875 0.796875 0.468750
v -0.296875 0.718750 0.468750
v -0.296875 0.718750 0.312500
v -0.140625 0.796875 0.468750
v -0.140625 0.796875 0.312500
v -0.140625 0.718750 0.312500
v -0.140625 0.718750 0.468750
v -0.296875 0.796875 0.312500
v -0.140625 0.796875 0.312500
v -0.140625 0.796875 0.468750
v -0.296875 0.796875 0.468750
v -0.296875 0.718750 0.468750
v -0.140625 0.718750 0.468750
v -0.140625 0.718750 0.312500
v -0.296875 0.718750 0.312500
v 0.343750 0.562500 0.250000
v 0.093750 0.562500 0.250000
v 0.093750 -0.062500 0.250000
v 0.343750 -0.062500 0.250000
v 0.093750 0.562500 0.531250
v 0.343750 0.562500 0.531250
v 0.343750 -0.062500 0.531250
v 0.093750 -0.062500 0.531250
v 0.093750 0.562500 0.250000
v 0.093750 0.562500 0.531250
v 0.093750 -0.062500 0.531250
v 0.093750 -0.062500 0.250000
v 0.343750 0.562500 0.531250
v 0.343750 0.562500 0.250000
v 0.343750 -0.062500 0.250000
v 0.343750 -0.062500 0.531250
v 0.093750 0.562500 0.250000
v 0.343750 0.562500 0.250000
v 0.343750 0.562500 0.531250
v 0.093750 0.562500 0.531250
v 0.093750 -0.062500 0.531250
v 0.343750 -0.062500 0.531250
v 0.343750 -0.062500 0.250000
v 0.093750 -0.062500 0.250000
v 0.312500 -0.062500 0.281250
v 0.125000 -0.062500 0.281250
v 0.125000 -0.187500 0.281250
v 0.312500 -0.187500 0.281250
v 0.125000 -0.062500 0.500000
v 0.312500 -0.062500 0.500000
v 0.312500 -0.187500 0.500000
v 0.125000 -0.187500 0.500000
v 0.125000 -0.062500 0.281250
v 0.125000 -0.062500 0.500000
v 0.125000 -0.187500 0.500000
v 0.125000 -0.187500 0.281250
v 0.312500 -0.062500 0.500000
v 0.312500 -0.062500 0.281250
v 0.312500 -0.187500 0.281250
v 0.312500 -0.187500 0.500000
v 0.125000 -0.062500 0.281250
v 0.312500 -0.062500 0.281250
v 0.312500 -0.062500 0.500000
v 0.125000 -0.062500 0.500000
v 0.359375 0.156250 0.234375
v 0.078125 0.156250 0.234375
v 0.078125 0.062500 0.234375
v 0.359375 0.062500 0.234375
v 0.078125 0.156250 0.546875
v 0.359375 0.156250 0.546875
v 0.359375 0.062500 0.546875
v 0.078125 0.062500 0.546875
v 0.078125 0.156250 0.234375
v 0.078125 0.156250 0.546875
v 0.078125 0.062500 0.546875
v 0.078125 0.062500 0.234375
v 0.359375 0.156250 0.546875
v 0.359375 0.156250 0.234375
v 0.359375 0.062500 0.234375
v 0.359375 0.062500 0.546875
v 0.078125 0.156250 0.234375
v 0.359375 0.156250 0.234375
v 0.359375 0.156250 0.546875
v 0.078125 0.156250 0.546875
v 0.078125 0.062500 0.546875
v 0.359375 0.062500 0.546875
v 0.359375 0.062500 0.234375
v 0.078125 0.062500 0.234375
v 0.359375 0.437500 0.234375
v 0.078125 0.437500 0.234375
v 0.078125 0.375000 0.234375
v 0.359375 0.375000 0.234375
v 0.078125 0.437500 0.546875
v 0.359375 0.437500 0.546875
v 0.359375 0.375000 0.546875
v 0.078125 0.375000 0.546875
v 0.078125 0.437500 0.234375
v 0.078125 0.437500 0.546875
v 0.078125 0.375000 0.546875
v 0.078125 0.375000 0.234375
v 0.359375 0.437500 0.546875
v 0.359375 0.437500 0.234375
v 0.359375 0.375000 0.234375
v 0.359375 0.375000 0.546875
v 0.078125 0.437500 0.234375
v 0.359375 0.437500 0.234375
v 0.359375 0.437500 0.546875
v 0.078125 0.437500 0.546875
v 0.078125 0.375000 0.546875
v 0.359375 0.375000 0.546875
v 0.359375 0.375000 0.234375
v 0.078125 0.375000 0.234375
v 0.312500 0.656250 0.281250
v 0.125000 0.656250 0.281250
v 0.125000 0.562500 0.281250
v 0.312500 0.562500 0.281250
v 0.125000 0.656250 0.500000
v 0.312500 0.656250 0.500000
v 0.312500 0.562500 0.500000
v 0.125000 0.562500 0.500000
v 0.125000 0.656250 0.281250
v 0.125000 0.656250 0.500000
v 0.125000 0.562500 0.500000
v 0.125000 0.562500 0.281250
v 0.312500 0.656250 0.500000
v 0.312500 0.656250 0.281250
v 0.312500 0.562500 0.281250
v 0.312500 0.562500 0.500000
v 0.125000 0.656250 0.281250
v 0.312500 0.656250 0.281250
v 0.312500 0.656250 0.500000
v 0.125000 0.656250 0.500000
v 0.125000 0.562500 0.500000
v 0.312500 0.562500 0.500000
v 0.312500 0.562500 0.281250
v 0.125000 0.562500 0.281250
v 0.281250 0.718750 0.328125
v 0.156250 0.718750 0.328125
v 0.156250 0.656250 0.328125
v 0.281250 0.656250 0.328125
v 0.156250 0.718750 0.453125
v 0.281250 0.718750 0.453125
v 0.281250 0.656250 0.453125
v 0.156250 0.656250 0.453125
v 0.156250 0.718750 0.328125
v 0.156250 0.718750 0.453125
v 0.156250 0.656250 0.453125
v 0.156250 0.656250 0.328125
v 0.281250 0.718750 0.453125
v 0.281250 0.718750 0.328125
v 0.281250 0.656250 0.328125
v 0.281250 0.656250 0.453125
v 0.296875 0.796875 0.312500
v 0.140625 0.796875 0.312500
v 0.140625 0.718750 0.312500
v 0.296875 0.718750 0.312500
v 0.140625 0.796875 0.468750
v 0.296875 0.796875 0.468750
v 0.296875 0.718750 0.468750
v 0.140625 0.718750 0.468750
v 0.140625 0.796875 0.312500
v 0.140625 0.796875 0.468750
v 0.140625 0.718750 0.468750
v 0.140625 0.718750 0.312500
v 0.296875 0.796875 0.468750
v 0.296875 0.796875 0.312500
v 0.296875 0.718750 0.312500
v 0.296875 0.718750 0.468750
v 0.140625 0.796875 0.312500
v 0.296875 0.796875 0.312500
v 0.296875 0.796875 0.468750
v 0.140625 0.796875 0.468750
v 0.140625 0.718750 0.468750
v 0.296875 0.718750 0.468750
v 0.296875 0.718750 0.312500
v 0.140625 0.718750 0.312500
v -0.093750 0.058500 0.437500
v -0.093750 0.058500 0.250000
v 0.093750 0.058500 0.250000
v 0.093750 0.058500 0.437500
vt 0.000000 1.000000
vt 0.171875 1.000000
vt 0.171875 0.312500
vt 0.000000 0.312500
vt 0.171875 1.000000
vt 0.187500 1.000000
vt 0.187500 0.312500
vt 0.171875 0.312500
vt 0.171875 1.000000
vt 0.187500 1.000000
vt 0.187500 0.312500
vt 0.171875 0.312500
vt 0.265625 0.312500
vt 0.437500 0.312500
vt 0.437500 0.250000
vt 0.265625 0.250000
vt 0.265625 0.312500
vt 0.437500 0.312500
vt 0.437500 0.250000
vt 0.265625 0.250000
vt 0.328125 1.000000
vt 0.375000 1.000000
vt 0.375000 0.500000
vt 0.328125 0.500000
vt 0.328125 1.000000
vt 0.375000 1.000000
vt 0.375000 0.500000
vt 0.328125 0.500000
vt 0.328125 1.000000
vt 0.375000 1.000000
vt 0.375000 0.500000
vt 0.328125 0.500000
vt 0.328125 1.000000
vt 0.375000 1.000000
vt 0.375000 0.500000
vt 0.328125 0.500000
vt 0.687500 1.000000
vt 0.734375 1.000000
vt 0.734375 0.812500
vt 0.687500 0.812500
vt 0.687500 1.000000
vt 0.734375 1.000000
vt 0.734375 0.812500
vt 0.687500 0.812500
vt 0.968750 1.000000
vt 1.000000 1.000000
vt 1.000000 0.875000
vt 0.968750 0.875000
vt 0.234375 0.312500
vt 0.250000 0.312500
vt 0.250000 0.187500
vt 0.234375 0.187500
vt 0.234375 0.312500
vt 0.250000 0.312500
vt 0.250000 0.187500
vt 0.234375 0.187500
vt 0.515625 0.312500
vt 0.546875 0.312500
vt 0.546875 0.250000
vt 0.515625 0.250000
vt 0.515625 0.312500
vt 0.546875 0.312500
vt 0.546875 0.250000
vt 0.515625 0.250000
vt 0.203125 0.312500
vt 0.234375 0.312500
vt 0.234375 0.187500
vt 0.203125 0.187500
vt 0.250000 0.312500
vt 0.265625 0.312500
vt 0.265625 0.187500
vt 0.250000 0.187500
vt 0.250000 0.312500
vt 0.265625 0.312500
vt 0.265625 0.187500
vt 0.250000 0.187500
vt 0.546875 0.312500
vt 0.578125 0.312500
vt 0.578125 0.250000
vt 0.546875 0.250000
vt 0.546875 0.312500
vt 0.578125 0.312500
vt 0.578125 0.250000
vt 0.546875 0.250000
vt 0.265625 1.000000
vt 0.328125 1.000000
vt 0.328125 0.375000
vt 0.265625 0.375000
vt 0.265625 1.000000
vt 0.328125 1.000000
vt 0.328125 0.375000
vt 0.265625 0.375000
vt 0.187500 1.000000
vt 0.265625 1.000000
vt 0.265625 0.375000
vt 0.187500 0.375000
vt 0.187500 1.000000
vt 0.265625 1.000000
vt 0.265625 0.375000
vt 0.187500 0.375000
vt 0.531250 1.000000
vt 0.593750 1.000000
vt 0.593750 0.687500
vt 0.531250 0.687500
vt 0.531250 1.000000
vt 0.593750 1.000000
vt 0.593750 0.687500
vt 0.531250 0.687500
vt 0.062500 0.312500
vt 0.109375 0.312500
vt 0.109375 0.187500
vt 0.062500 0.187500
vt 0.062500 0.312500
vt 0.109375 0.312500
vt 0.109375 0.187500
vt 0.062500 0.187500
vt 0.906250 1.000000
vt 0.968750 1.000000
vt 0.968750 0.875000
vt 0.906250 0.875000
vt 0.906250 1.000000
vt 0.968750 1.000000
vt 0.968750 0.875000
vt 0.906250 0.875000
vt 0.593750 1.000000
vt 0.640625 1.000000
vt 0.640625 0.750000
vt 0.593750 0.750000
vt 0.828125 1.000000
vt 0.906250 1.000000
vt 0.906250 0.875000
vt 0.828125 0.875000
vt 0.828125 1.000000
vt 0.906250 1.000000
vt 0.906250 0.875000
vt 0.828125 0.875000
vt 0.828125 1.000000
vt 0.906250 1.000000
vt 0.906250 0.875000
vt 0.828125 0.875000
vt 0.828125 1.000000
vt 0.906250 1.000000
vt 0.906250 0.875000
vt 0.828125 0.875000
vt 0.375000 1.000000
vt 0.453125 1.000000
vt 0.453125 0.687500
vt 0.375000 0.687500
vt 0.375000 1.000000
vt 0.453125 1.000000
vt 0.453125 0.687500
vt 0.375000 0.687500
vt 0.437500 0.312500
vt 0.515625 0.312500
vt 0.515625 0.250000
vt 0.437500 0.250000
vt 0.437500 0.312500
vt 0.515625 0.312500
vt 0.515625 0.250000
vt 0.437500 0.250000
vt 0.437500 0.312500
vt 0.515625 0.312500
vt 0.515625 0.250000
vt 0.437500 0.250000
vt 0.437500 0.312500
vt 0.515625 0.312500
vt 0.515625 0.250000
vt 0.437500 0.250000
vt 0.453125 1.000000
vt 0.531250 1.000000
vt 0.531250 0.687500
vt 0.453125 0.687500
vt 0.453125 1.000000
vt 0.531250 1.000000
vt 0.531250 0.687500
vt 0.453125 0.687500
vt 0.109375 0.312500
vt 0.156250 0.312500
vt 0.156250 0.187500
vt 0.109375 0.187500
vt 0.109375 0.312500
vt 0.156250 0.312500
vt 0.156250 0.187500
vt 0.109375 0.187500
vt 0.000000 0.312500
vt 0.062500 0.312500
vt 0.062500 0.187500
vt 0.000000 0.187500
vt 0.000000 0.312500
vt 0.062500 0.312500
vt 0.062500 0.187500
vt 0.000000 0.187500
vt 0.640625 1.000000
vt 0.687500 1.000000
vt 0.687500 0.750000
vt 0.640625 0.750000
vt 0.640625 1.000000
vt 0.687500 1.000000
vt 0.687500 0.750000
vt 0.640625 0.750000
vt 0.578125 0.312500
vt 0.609375 0.312500
vt 0.609375 0.250000
vt 0.578125 0.250000
vt 0.578125 0.312500
vt 0.609375 0.312500
vt 0.609375 0.250000
vt 0.578125 0.250000
vt 0.578125 0.312500
vt 0.609375 0.312500
vt 0.609375 0.250000
vt 0.578125 0.250000
vt 0.578125 0.312500
vt 0.609375 0.312500
vt 0.609375 0.250000
vt 0.578125 0.250000
vt 0.156250 0.312500
vt 0.203125 0.312500
vt 0.203125 0.187500
vt 0.156250 0.187500
vt 0.156250 0.312500
vt 0.203125 0.312500
vt 0.203125 0.187500
vt 0.156250 0.187500
vt 0.156250 0.312500
vt 0.203125 0.312500
vt 0.203125 0.187500
vt 0.156250 0.187500
vt 0.156250 0.312500
vt 0.203125 0.312500
vt 0.203125 0.187500
vt 0.156250 0.187500
vt 0.734375 1.000000
vt 0.781250 1.000000
vt 0.781250 0.812500
vt 0.734375 0.812500
vt 0.781250 1.000000
vt 0.828125 1.000000
vt 0.828125 0.812500
vt 0.781250 0.812500
vt 0.265625 1.000000
vt 0.328125 1.000000
vt 0.328125 0.375000
vt 0.265625 0.375000
vt 0.265625 1.000000
vt 0.328125 1.000000
vt 0.328125 0.375000
vt 0.265625 0.375000
vt 0.187500 1.000000
vt 0.265625 1.000000
vt 0.265625 0.375000
vt 0.187500 0.375000
vt 0.187500 1.000000
vt 0.265625 1.000000
vt 0.265625 0.375000
vt 0.187500 0.375000
vt 0.531250 1.000000
vt 0.593750 1.000000
vt 0.593750 0.687500
vt 0.531250 0.687500
vt 0.531250 1.000000
vt 0.593750 1.000000
vt 0.593750 0.687500
vt 0.531250 0.687500
vt 0.062500 0.312500
vt 0.109375 0.312500
vt 0.109375 0.187500
vt 0.062500 0.187500
vt 0.062500 0.312500
vt 0.109375 0.312500
vt 0.109375 0.187500
vt 0.062500 0.187500
vt 0.906250 1.000000
vt 0.968750 1.000000
vt 0.968750 0.875000
vt 0.906250 0.875000
vt 0.906250 1.000000
vt 0.968750 1.000000
vt 0.968750 0.875000
vt 0.906250 0.875000
vt 0.593750 1.000000
vt 0.640625 1.000000
vt 0.640625 0.750000
vt 0.593750 0.750000
vt 0.828125 1.000000
vt 0.906250 1.000000
vt 0.906250 0.875000
vt 0.828125 0.875000
vt 0.828125 1.000000
vt 0.906250 1.000000
vt 0.906250 0.875000
vt 0.828125 0.875000
vt 0.828125 1.000000
vt 0.906250 1.000000
vt 0.906250 0.875000
vt 0.828125 0.875000
vt 0.828125 1.000000
vt 0.906250 1.000000
vt 0.906250 0.875000
vt 0.828125 0.875000
vt 0.375000 1.000000
vt 0.453125 1.000000
vt 0.453125 0.687500
vt 0.375000 0.687500
vt 0.375000 1.000000
vt 0.453125 1.000000
vt 0.453125 0.687500
vt 0.375000 0.687500
vt 0.437500 0.312500
vt 0.515625 0.312500
vt 0.515625 0.250000
vt 0.437500 0.250000
vt 0.437500 0.312500
vt 0.515625 0.312500
vt 0.515625 0.250000
vt 0.437500 0.250000
vt 0.437500 0.312500
vt 0.515625 0.312500
vt 0.515625 0.250000
vt 0.437500 0.250000
vt 0.437500 0.312500
vt 0.515625 0.312500
vt 0.515625 0.250000
vt 0.437500 0.250000
vt 0.453125 1.000000
vt 0.531250 1.000000
vt 0.531250 0.687500
vt 0.453125 0.687500
vt 0.453125 1.000000
vt 0.531250 1.000000
vt 0.531250 0.687500
vt 0.453125 0.687500
vt 0.109375 0.312500
vt 0.156250 0.312500
vt 0.156250 0.187500
vt 0.109375 0.187500
vt 0.109375 0.312500
vt 0.156250 0.312500
vt 0.156250 0.187500
vt 0.109375 0.187500
vt 0.000000 0.312500
vt 0.062500 0.312500
vt 0.062500 0.187500
vt 0.000000 0.187500
vt 0.000000 0.312500
vt 0.062500 0.312500
vt 0.062500 0.187500
vt 0.000000 0.187500
vt 0.640625 1.000000
vt 0.687500 1.000000
vt 0.687500 0.750000
vt 0.640625 0.750000
vt 0.640625 1.000000
vt 0.687500 1.000000
vt 0.687500 0.750000
vt 0.640625 0.750000
vt 0.578125 0.312500
vt 0.609375 0.312500
vt 0.609375 0.250000
vt 0.578125 0.250000
vt 0.578125 0.312500
vt 0.609375 0.312500
vt 0.609375 0.250000
vt 0.578125 0.250000
vt 0.578125 0.312500
vt 0.609375 0.312500
vt 0.609375 0.250000
vt 0.578125 0.250000
vt 0.578125 0.312500
vt 0.609375 0.312500
vt 0.609375 0.250000
vt 0.578125 0.250000
vt 0.156250 0.312500
vt 0.203125 0.312500
vt 0.203125 0.187500
vt 0.156250 0.187500
vt 0.156250 0.312500
vt 0.203125 0.312500
vt 0.203125 0.187500
vt 0.156250 0.187500
vt 0.156250 0.312500
vt 0.203125 0.312500
vt 0.203125 0.187500
vt 0.156250 0.187500
vt 0.156250 0.312500
vt 0.203125 0.312500
vt 0.203125 0.187500
vt 0.156250 0.187500
vt 0.734375 1.000000
vt 0.781250 1.000000
vt 0.781250 0.812500
vt 0.734375 0.812500
vt 0.781250 1.000000
vt 0.828125 1.000000
vt 0.828125 0.812500
vt 0.781250 0.812500
vn 0 0 -1
vn 0 0 1
vn -1 0 0
vn 1 0 0
vn 0 1 0
vn 0 -1 0
usemtl jetpack
o Cube
f 1/1/1 4/4/1 3/3/1 2/2/1
f 5/5/3 8/8/3 7/7/3 6/6/3
f 9/9/4 12/12/4 11/11/4 10/10/4
f 13/13/5 16/16/5 15/15/5 14/14/5
f 17/17/6 20/20/6 19/19/6 18/18/6
f 21/21/1 24/24/1 23/23/1 22/22/1
f 25/25/2 28/28/2 27/27/2 26/26/2
f 29/29/3 32/32/3 31/31/3 30/30/3
f 33/33/4 36/36/4 35/35/4 34/34/4
f 37/37/5 40/40/5 39/39/5 38/38/5
f 397/41/6 398/44/6 399/43/6 400/42/6
f 45/45/2 48/48/2 47/47/2 46/46/2
f 49/49/3 52/52/3 51/51/3 50/50/3
f 53/53/4 56/56/4 55/55/4 54/54/4
f 57/57/5 60/60/5 59/59/5 58/58/5
f 61/61/6 64/64/6 63/63/6 62/62/6
f 65/65/2 68/68/2 67/67/2 66/66/2
f 69/69/3 72/72/3 71/71/3 70/70/3
f 73/73/4 76/76/4 75/75/4 74/74/4
f 77/77/5 80/80/5 79/79/5 78/78/5
f 81/81/6 84/84/6 83/83/6 82/82/6
f 85/85/1 88/88/1 87/87/1 86/86/1
f 89/89/2 92/92/2 91/91/2 90/90/2
f 93/93/3 96/96/3 95/95/3 94/94/3
f 97/97/4 100/100/4 99/99/4 98/98/4
f 101/101/5 104/104/5 103/103/5 102/102/5
f 105/105/6 108/108/6 107/107/6 106/106/6
f 109/109/1 112/112/1 111/111/1 110/110/1
f 113/113/2 116/116/2 115/115/2 114/114/2
f 117/117/3 120/120/3 119/119/3 118/118/3
f 121/121/4 124/124/4 123/123/4 122/122/4
f 125/125/5 128/128/5 127/127/5 126/126/5
f 129/129/1 132/132/1 131/131/1 130/130/1
f 133/133/2 136/136/2 135/135/2 134/134/2
f 137/137/3 140/140/3 139/139/3 138/138/3
f 141/141/4 144/144/4 143/143/4 142/142/4
f 145/145/5 148/148/5 147/147/5 146/146/5
f 149/149/6 152/152/6 151/151/6 150/150/6
f 153/153/1 156/156/1 155/155/1 154/154/1
f 157/157/2 160/160/2 159/159/2 158/158/2
f 161/161/3 164/164/3 163/163/3 162/162/3
f 165/165/4 168/168/4 167/167/4 166/166/4
f 169/169/5 172/172/5 171/171/5 170/170/5
f 173/173/6 176/176/6 175/175/6 174/174/6
f 177/177/1 180/180/1 179/179/1 178/178/1
f 181/181/2 184/184/2 183/183/2 182/182/2
f 185/185/3 188/188/3 187/187/3 186/186/3
f 189/189/4 192/192/4 191/191/4 190/190/4
f 193/193/5 196/196/5 195/195/5 194/194/5
f 197/197/6 200/200/6 199/199/6 198/198/6
f 201/201/1 204/204/1 203/203/1 202/202/1
f 205/205/2 208/208/2 207/207/2 206/206/2
f 209/209/3 212/212/3 211/211/3 210/210/3
f 213/213/4 216/216/4 215/215/4 214/214/4
f 217/217/1 220/220/1 219/219/1 218/218/1
f 221/221/2 224/224/2 223/223/2 222/222/2
f 225/225/3 228/228/3 227/227/3 226/226/3
f 229/229/4 232/232/4 231/231/4 230/230/4
f 233/233/5 236/236/5 235/235/5 234/234/5
f 237/237/6 240/240/6 239/239/6 238/238/6
f 241/241/1 244/244/1 243/243/1 242/242/1
f 245/245/2 248/248/2 247/247/2 246/246/2
f 249/249/3 252/252/3 251/251/3 250/250/3
f 253/253/4 256/256/4 255/255/4 254/254/4
f 257/257/5 260/260/5 259/259/5 258/258/5
f 261/261/6 264/264/6 263/263/6 262/262/6
f 265/265/1 268/268/1 267/267/1 266/266/1
f 269/269/2 272/272/2 271/271/2 270/270/2
f 273/273/3 276/276/3 275/275/3 274/274/3
f 277/277/4 280/280/4 279/279/4 278/278/4
f 281/281/5 284/284/5 283/283/5 282/282/5
f 285/285/1 288/288/1 287/287/1 286/286/1
f 289/289/2 292/292/2 291/291/2 290/290/2
f 293/293/3 296/296/3 295/295/3 294/294/3
f 297/297/4 300/300/4 299/299/4 298/298/4
f 301/301/5 304/304/5 303/303/5 302/302/5
f 305/305/6 308/308/6 307/307/6 306/306/6
f 309/309/1 312/312/1 311/311/1 310/310/1
f 313/313/2 316/316/2 315/315/2 314/314/2
f 317/317/3 320/320/3 319/319/3 318/318/3
f 321/321/4 324/324/4 323/323/4 322/322/4
f 325/325/5 328/328/5 327/327/5 326/326/5
f 329/329/6 332/332/6 331/331/6 330/330/6
f 333/333/1 336/336/1 335/335/1 334/334/1
f 337/337/2 340/340/2 339/339/2 338/338/2
f 341/341/3 344/344/3 343/343/3 342/342/3
f 345/345/4 348/348/4 347/347/4 346/346/4
f 349/349/5 352/352/5 351/351/5 350/350/5
f 353/353/6 356/356/6 355/355/6 354/354/6
f 357/357/1 360/360/1 359/359/1 358/358/1
f 361/361/2 364/364/2 363/363/2 362/362/2
f 365/365/3 368/368/3 367/367/3 366/366/3
f 369/369/4 372/372/4 371/371/4 370/370/4
f 373/373/1 376/376/1 375/375/1 374/374/1
f 377/377/2 380/380/2 379/379/2 378/378/2
f 381/381/3 384/384/3 383/383/3 382/382/3
f 385/385/4 388/388/4 387/387/4 386/386/4
f 389/389/5 392/392/5 391/391/5 390/390/5
f 393/393/6 396/396/6 395/395/6 394/394/6
