# lathe generated by machinegen.py
mtllib lathe.mtl
v 1.000000 0.187500 -1.000000
v 0.000000 0.187500 -1.000000
v 0.000000 0.000000 -1.000000
v 1.000000 0.000000 -1.000000
v 0.000000 0.187500 3.000000
v 1.000000 0.187500 3.000000
v 1.000000 0.000000 3.000000
v 0.000000 0.000000 3.000000
v 0.000000 0.187500 -1.000000
v 0.000000 0.187500 3.000000
v 0.000000 0.000000 3.000000
v 0.000000 0.000000 -1.000000
v 1.000000 0.187500 3.000000
v 1.000000 0.187500 -1.000000
v 1.000000 0.000000 -1.000000
v 1.000000 0.000000 3.000000
v 0.000000 0.187500 -1.000000
v 1.000000 0.187500 -1.000000
v 1.000000 0.187500 3.000000
v 0.000000 0.187500 3.000000
v 0.187500 0.812500 -1.000000
v 0.000000 0.812500 -1.000000
v 0.000000 0.187500 -1.000000
v 0.187500 0.187500 -1.000000
v 0.000000 0.812500 -0.812500
v 0.187500 0.812500 -0.812500
v 0.187500 0.187500 -0.812500
v 0.000000 0.187500 -0.812500
v 0.000000 0.812500 -1.000000
v 0.000000 0.812500 -0.812500
v 0.000000 0.187500 -0.812500
v 0.000000 0.187500 -1.000000
v 0.187500 0.812500 -0.812500
v 0.187500 0.812500 -1.000000
v 0.187500 0.187500 -1.000000
v 0.187500 0.187500 -0.812500
v 1.000000 0.812500 -1.000000
v 0.812500 0.812500 -1.000000
v 0.812500 0.187500 -1.000000
v 1.000000 0.187500 -1.000000
v 0.812500 0.812500 -0.812500
v 1.000000 0.812500 -0.812500
v 1.000000 0.187500 -0.812500
v 0.812500 0.187500 -0.812500
v 0.812500 0.812500 -1.000000
v 0.812500 0.812500 -0.812500
v 0.812500 0.187500 -0.812500
v 0.812500 0.187500 -1.000000
v 1.000000 0.812500 -0.812500
v 1.000000 0.812500 -1.000000
v 1.000000 0.187500 -1.000000
v 1.000000 0.187500 -0.812500
v 0.187500 0.812500 -0.187500
v 0.000000 0.812500 -0.187500
v 0.000000 0.187500 -0.187500
v 0.187500 0.187500 -0.187500
v 0.000000 0.812500 0.000000
v 0.187500 0.812500 0.000000
v 0.187500 0.187500 0.000000
v 0.000000 0.187500 0.000000
v 0.000000 0.812500 -0.187500
v 0.000000 0.812500 0.000000
v 0.000000 0.187500 0.000000
v 0.000000 0.187500 -0.187500
v 0.187500 0.812500 0.000000
v 0.187500 0.812500 -0.187500
v 0.187500 0.187500 -0.187500
v 0.187500 0.187500 0.000000
v 1.000000 0.812500 -0.187500
v 0.812500 0.812500 -0.187500
v 0.812500 0.187500 -0.187500
v 1.000000 0.187500 -0.187500
v 0.812500 0.812500 0.000000
v 1.000000 0.812500 0.000000
v 1.000000 0.187500 0.000000
v 0.812500 0.187500 0.000000
v 0.812500 0.812500 -0.187500
v 0.812500 0.812500 0.000000
v 0.812500 0.187500 0.000000
v 0.812500 0.187500 -0.187500
v 1.000000 0.812500 0.000000
v 1.000000 0.812500 -0.187500
v 1.000000 0.187500 -0.187500
v 1.000000 0.187500 0.000000
v 0.937500 0.812500 -0.937500
v 0.062500 0.812500 -0.937500
v 0.062500 0.187500 -0.937500
v 0.937500 0.187500 -0.937500
v 0.062500 0.812500 -0.062500
v 0.937500 0.812500 -0.062500
v 0.937500 0.187500 -0.062500
v 0.062500 0.187500 -0.062500
v 0.062500 0.812500 -0.937500
v 0.062500 0.812500 -0.062500
v 0.062500 0.187500 -0.062500
v 0.062500 0.187500 -0.937500
v 0.937500 0.812500 -0.062500
v 0.937500 0.812500 -0.937500
v 0.937500 0.187500 -0.937500
v 0.937500 0.187500 -0.062500
v 1.000000 1.000000 -1.000000
v 0.000000 1.000000 -1.000000
v 0.000000 0.812500 -1.000000
v 1.000000 0.812500 -1.000000
v 0.000000 1.000000 0.000000
v 1.000000 1.000000 0.000000
v 1.000000 0.812500 0.000000
v 0.000000 0.812500 0.000000
v 0.000000 1.000000 -1.000000
v 0.000000 1.000000 0.000000
v 0.000000 0.812500 0.000000
v 0.000000 0.812500 -1.000000
v 1.000000 1.000000 0.000000
v 1.000000 1.000000 -1.000000
v 1.000000 0.812500 -1.000000
v 1.000000 0.812500 0.000000
v 0.000000 1.000000 -1.000000
v 1.000000 1.000000 -1.000000
v 1.000000 1.000000 0.000000
v 0.000000 1.000000 0.000000
v 0.687500 0.687500 -1.000000
v 0.312500 0.687500 -1.000000
v 0.312500 0.312500 -1.000000
v 0.687500 0.312500 -1.000000
v 0.312500 0.687500 -1.000000
v 0.312500 0.687500 -0.937500
v 0.312500 0.312500 -0.937500
v 0.312500 0.312500 -1.000000
v 0.687500 0.687500 -0.937500
v 0.687500 0.687500 -1.000000
v 0.687500 0.312500 -1.000000
v 0.687500 0.312500 -0.937500
v 0.312500 0.687500 -1.000000
v 0.687500 0.687500 -1.000000
v 0.687500 0.687500 -0.937500
v 0.312500 0.687500 -0.937500
v 0.312500 0.312500 -0.937500
v 0.687500 0.312500 -0.937500
v 0.687500 0.312500 -1.000000
v 0.312500 0.312500 -1.000000
v 0.187500 0.812500 1.500000
v 0.000000 0.812500 1.500000
v 0.000000 0.187500 1.500000
v 0.187500 0.187500 1.500000
v 0.000000 0.812500 1.687500
v 0.187500 0.812500 1.687500
v 0.187500 0.187500 1.687500
v 0.000000 0.187500 1.687500
v 0.000000 0.812500 1.500000
v 0.000000 0.812500 1.687500
v 0.000000 0.187500 1.687500
v 0.000000 0.187500 1.500000
v 0.187500 0.812500 1.687500
v 0.187500 0.812500 1.500000
v 0.187500 0.187500 1.500000
v 0.187500 0.187500 1.687500
v 1.000000 0.812500 1.500000
v 0.812500 0.812500 1.500000
v 0.812500 0.187500 1.500000
v 1.000000 0.187500 1.500000
v 0.812500 0.812500 1.687500
v 1.000000 0.812500 1.687500
v 1.000000 0.187500 1.687500
v 0.812500 0.187500 1.687500
v 0.812500 0.812500 1.500000
v 0.812500 0.812500 1.687500
v 0.812500 0.187500 1.687500
v 0.812500 0.187500 1.500000
v 1.000000 0.812500 1.687500
v 1.000000 0.812500 1.500000
v 1.000000 0.187500 1.500000
v 1.000000 0.187500 1.687500
v 0.187500 0.812500 2.812500
v 0.000000 0.812500 2.812500
v 0.000000 0.187500 2.812500
v 0.187500 0.187500 2.812500
v 0.000000 0.812500 3.000000
v 0.187500 0.812500 3.000000
v 0.187500 0.187500 3.000000
v 0.000000 0.187500 3.000000
v 0.000000 0.812500 2.812500
v 0.000000 0.812500 3.000000
v 0.000000 0.187500 3.000000
v 0.000000 0.187500 2.812500
v 0.187500 0.812500 3.000000
v 0.187500 0.812500 2.812500
v 0.187500 0.187500 2.812500
v 0.187500 0.187500 3.000000
v 1.000000 0.812500 2.812500
v 0.812500 0.812500 2.812500
v 0.812500 0.187500 2.812500
v 1.000000 0.187500 2.812500
v 0.812500 0.812500 3.000000
v 1.000000 0.812500 3.000000
v 1.000000 0.187500 3.000000
v 0.812500 0.187500 3.000000
v 0.812500 0.812500 2.812500
v 0.812500 0.812500 3.000000
v 0.812500 0.187500 3.000000
v 0.812500 0.187500 2.812500
v 1.000000 0.812500 3.000000
v 1.000000 0.812500 2.812500
v 1.000000 0.187500 2.812500
v 1.000000 0.187500 3.000000
v 0.937500 0.812500 1.562500
v 0.062500 0.812500 1.562500
v 0.062500 0.187500 1.562500
v 0.937500 0.187500 1.562500
v 0.062500 0.812500 2.937500
v 0.937500 0.812500 2.937500
v 0.937500 0.187500 2.937500
v 0.062500 0.187500 2.937500
v 0.062500 0.812500 1.562500
v 0.062500 0.812500 2.937500
v 0.062500 0.187500 2.937500
v 0.062500 0.187500 1.562500
v 0.937500 0.812500 2.937500
v 0.937500 0.812500 1.562500
v 0.937500 0.187500 1.562500
v 0.937500 0.187500 2.937500
v 1.000000 1.000000 1.500000
v 0.000000 1.000000 1.500000
v 0.000000 0.812500 1.500000
v 1.000000 0.812500 1.500000
v 0.000000 1.000000 3.000000
v 1.000000 1.000000 3.000000
v 1.000000 0.812500 3.000000
v 0.000000 0.812500 3.000000
v 0.000000 1.000000 1.500000
v 0.000000 1.000000 3.000000
v 0.000000 0.812500 3.000000
v 0.000000 0.812500 1.500000
v 1.000000 1.000000 3.000000
v 1.000000 1.000000 1.500000
v 1.000000 0.812500 1.500000
v 1.000000 0.812500 3.000000
v 0.000000 1.000000 1.500000
v 1.000000 1.000000 1.500000
v 1.000000 1.000000 3.000000
v 0.000000 1.000000 3.000000
v 0.312500 0.687500 3.000000
v 0.687500 0.687500 3.000000
v 0.687500 0.312500 3.000000
v 0.312500 0.312500 3.000000
v 0.312500 0.687500 2.937500
v 0.312500 0.687500 3.000000
v 0.312500 0.312500 3.000000
v 0.312500 0.312500 2.937500
v 0.687500 0.687500 3.000000
v 0.687500 0.687500 2.937500
v 0.687500 0.312500 2.937500
v 0.687500 0.312500 3.000000
v 0.312500 0.687500 2.937500
v 0.687500 0.687500 2.937500
v 0.687500 0.687500 3.000000
v 0.312500 0.687500 3.000000
v 0.312500 0.312500 3.000000
v 0.687500 0.312500 3.000000
v 0.687500 0.312500 2.937500
v 0.312500 0.312500 2.937500
v 0.125000 0.625000 0.000000
v 0.125000 0.625000 1.500000
v 0.125000 0.187500 1.500000
v 0.125000 0.187500 0.000000
v 0.625000 0.625000 1.500000
v 0.625000 0.625000 0.000000
v 0.625000 0.187500 0.000000
v 0.625000 0.187500 1.500000
v 0.125000 0.625000 0.000000
v 0.625000 0.625000 0.000000
v 0.625000 0.625000 1.500000
v 0.125000 0.625000 1.500000
v 0.625000 0.250000 0.000000
v 0.625000 0.250000 1.500000
v 0.625000 0.187500 1.500000
v 0.625000 0.187500 0.000000
v 0.875000 0.250000 1.500000
v 0.875000 0.250000 0.000000
v 0.875000 0.187500 0.000000
v 0.875000 0.187500 1.500000
v 0.625000 0.250000 0.000000
v 0.875000 0.250000 0.000000
v 0.875000 0.250000 1.500000
v 0.625000 0.250000 1.500000
v 0.875000 0.312500 0.000000
v 0.875000 0.312500 1.500000
v 0.875000 0.187500 1.500000
v 0.875000 0.187500 0.000000
v 1.000000 0.312500 1.500000
v 1.000000 0.312500 0.000000
v 1.000000 0.187500 0.000000
v 1.000000 0.187500 1.500000
v 0.875000 0.312500 0.000000
v 1.000000 0.312500 0.000000
v 1.000000 0.312500 1.500000
v 0.875000 0.312500 1.500000
v 0.125000 0.875000 -0.062500
v 0.125000 0.875000 1.562500
v 0.125000 0.625000 1.562500
v 0.125000 0.625000 -0.062500
v 0.250000 0.875000 1.562500
v 0.250000 0.875000 -0.062500
v 0.250000 0.625000 -0.062500
v 0.250000 0.625000 1.562500
v 0.125000 0.875000 -0.062500
v 0.250000 0.875000 -0.062500
v 0.250000 0.875000 1.562500
v 0.125000 0.875000 1.562500
v 0.500000 0.875000 -0.062500
v 0.500000 0.875000 1.562500
v 0.500000 0.625000 1.562500
v 0.500000 0.625000 -0.062500
v 0.625000 0.875000 1.562500
v 0.625000 0.875000 -0.062500
v 0.625000 0.625000 -0.062500
v 0.625000 0.625000 1.562500
v 0.500000 0.875000 -0.062500
v 0.625000 0.875000 -0.062500
v 0.625000 0.875000 1.562500
v 0.500000 0.875000 1.562500
v 0.125000 1.437500 -1.000000
v 0.000000 1.437500 -1.000000
v 0.000000 1.000000 -1.000000
v 0.125000 1.000000 -1.000000
v 0.000000 1.437500 -0.875000
v 0.125000 1.437500 -0.875000
v 0.125000 1.000000 -0.875000
v 0.000000 1.000000 -0.875000
v 0.000000 1.437500 -1.000000
v 0.000000 1.437500 -0.875000
v 0.000000 1.000000 -0.875000
v 0.000000 1.000000 -1.000000
v 0.125000 1.437500 -0.875000
v 0.125000 1.437500 -1.000000
v 0.125000 1.000000 -1.000000
v 0.125000 1.000000 -0.875000
v 0.750000 1.437500 -1.000000
v 0.625000 1.437500 -1.000000
v 0.625000 1.000000 -1.000000
v 0.750000 1.000000 -1.000000
v 0.625000 1.437500 -0.875000
v 0.750000 1.437500 -0.875000
v 0.750000 1.000000 -0.875000
v 0.625000 1.000000 -0.875000
v 0.625000 1.437500 -1.000000
v 0.625000 1.437500 -0.875000
v 0.625000 1.000000 -0.875000
v 0.625000 1.000000 -1.000000
v 0.750000 1.437500 -0.875000
v 0.750000 1.437500 -1.000000
v 0.750000 1.000000 -1.000000
v 0.750000 1.000000 -0.875000
v 0.125000 1.437500 -0.125000
v 0.000000 1.437500 -0.125000
v 0.000000 1.000000 -0.125000
v 0.125000 1.000000 -0.125000
v 0.000000 1.437500 0.000000
v 0.125000 1.437500 0.000000
v 0.125000 1.000000 0.000000
v 0.000000 1.000000 0.000000
v 0.000000 1.437500 -0.125000
v 0.000000 1.437500 0.000000
v 0.000000 1.000000 0.000000
v 0.000000 1.000000 -0.125000
v 0.125000 1.437500 0.000000
v 0.125000 1.437500 -0.125000
v 0.125000 1.000000 -0.125000
v 0.125000 1.000000 0.000000
v 0.750000 1.437500 -0.125000
v 0.625000 1.437500 -0.125000
v 0.625000 1.000000 -0.125000
v 0.750000 1.000000 -0.125000
v 0.625000 1.437500 0.000000
v 0.750000 1.437500 0.000000
v 0.750000 1.000000 0.000000
v 0.625000 1.000000 0.000000
v 0.625000 1.437500 -0.125000
v 0.625000 1.437500 0.000000
v 0.625000 1.000000 0.000000
v 0.625000 1.000000 -0.125000
v 0.750000 1.437500 0.000000
v 0.750000 1.437500 -0.125000
v 0.750000 1.000000 -0.125000
v 0.750000 1.000000 0.000000
v 0.687500 1.437500 -0.937500
v 0.062500 1.437500 -0.937500
v 0.062500 1.000000 -0.937500
v 0.687500 1.000000 -0.937500
v 0.062500 1.437500 -0.062500
v 0.687500 1.437500 -0.062500
v 0.687500 1.000000 -0.062500
v 0.062500 1.000000 -0.062500
v 0.062500 1.437500 -0.937500
v 0.062500 1.437500 -0.062500
v 0.062500 1.000000 -0.062500
v 0.062500 1.000000 -0.937500
v 0.687500 1.437500 -0.062500
v 0.687500 1.437500 -0.937500
v 0.687500 1.000000 -0.937500
v 0.687500 1.000000 -0.062500
v 0.750000 1.500000 -1.000000
v 0.000000 1.500000 -1.000000
v 0.000000 1.437500 -1.000000
v 0.750000 1.437500 -1.000000
v 0.000000 1.500000 0.000000
v 0.750000 1.500000 0.000000
v 0.750000 1.437500 0.000000
v 0.000000 1.437500 0.000000
v 0.000000 1.500000 -1.000000
v 0.000000 1.500000 0.000000
v 0.000000 1.437500 0.000000
v 0.000000 1.437500 -1.000000
v 0.750000 1.500000 0.000000
v 0.750000 1.500000 -1.000000
v 0.750000 1.437500 -1.000000
v 0.750000 1.437500 0.000000
v 0.000000 1.500000 -1.000000
v 0.750000 1.500000 -1.000000
v 0.750000 1.500000 0.000000
v 0.000000 1.500000 0.000000
v 0.000000 1.437500 0.000000
v 0.750000 1.437500 0.000000
v 0.750000 1.437500 -1.000000
v 0.000000 1.437500 -1.000000
v 0.500000 1.312500 0.000000
v 0.250000 1.312500 0.000000
v 0.250000 1.062500 0.000000
v 0.500000 1.062500 0.000000
v 0.250000 1.312500 0.125000
v 0.500000 1.312500 0.125000
v 0.500000 1.062500 0.125000
v 0.250000 1.062500 0.125000
v 0.250000 1.312500 0.000000
v 0.250000 1.312500 0.125000
v 0.250000 1.062500 0.125000
v 0.250000 1.062500 0.000000
v 0.500000 1.312500 0.125000
v 0.500000 1.312500 0.000000
v 0.500000 1.062500 0.000000
v 0.500000 1.062500 0.125000
v 0.250000 1.312500 0.000000
v 0.500000 1.312500 0.000000
v 0.500000 1.312500 0.125000
v 0.250000 1.312500 0.125000
v 0.250000 1.062500 0.125000
v 0.500000 1.062500 0.125000
v 0.500000 1.062500 0.000000
v 0.250000 1.062500 0.000000
v 0.437500 1.312500 0.125000
v 0.312500 1.312500 0.125000
v 0.312500 1.250000 0.125000
v 0.437500 1.250000 0.125000
v 0.312500 1.312500 0.187500
v 0.437500 1.312500 0.187500
v 0.437500 1.250000 0.187500
v 0.312500 1.250000 0.187500
v 0.312500 1.312500 0.125000
v 0.312500 1.312500 0.187500
v 0.312500 1.250000 0.187500
v 0.312500 1.250000 0.125000
v 0.437500 1.312500 0.187500
v 0.437500 1.312500 0.125000
v 0.437500 1.250000 0.125000
v 0.437500 1.250000 0.187500
v 0.312500 1.312500 0.125000
v 0.437500 1.312500 0.125000
v 0.437500 1.312500 0.187500
v 0.312500 1.312500 0.187500
v 0.312500 1.250000 0.187500
v 0.437500 1.250000 0.187500
v 0.437500 1.250000 0.125000
v 0.312500 1.250000 0.125000
v 0.750000 1.125000 1.500000
v 0.000000 1.125000 1.500000
v 0.000000 1.000000 1.500000
v 0.750000 1.000000 1.500000
v 0.000000 1.125000 2.125000
v 0.750000 1.125000 2.125000
v 0.750000 1.000000 2.125000
v 0.000000 1.000000 2.125000
v 0.000000 1.125000 1.500000
v 0.000000 1.125000 2.125000
v 0.000000 1.000000 2.125000
v 0.000000 1.000000 1.500000
v 0.750000 1.125000 2.125000
v 0.750000 1.125000 1.500000
v 0.750000 1.000000 1.500000
v 0.750000 1.000000 2.125000
v 0.000000 1.125000 1.500000
v 0.750000 1.125000 1.500000
v 0.750000 1.125000 2.125000
v 0.000000 1.125000 2.125000
v 0.687500 1.500000 1.562500
v 0.062500 1.500000 1.562500
v 0.062500 1.125000 1.562500
v 0.687500 1.125000 1.562500
v 0.062500 1.500000 2.125000
v 0.687500 1.500000 2.125000
v 0.687500 1.125000 2.125000
v 0.062500 1.125000 2.125000
v 0.062500 1.500000 1.562500
v 0.062500 1.500000 2.125000
v 0.062500 1.125000 2.125000
v 0.062500 1.125000 1.562500
v 0.687500 1.500000 2.125000
v 0.687500 1.500000 1.562500
v 0.687500 1.125000 1.562500
v 0.687500 1.125000 2.125000
v 0.062500 1.500000 1.562500
v 0.687500 1.500000 1.562500
v 0.687500 1.500000 2.125000
v 0.062500 1.500000 2.125000
v 0.468750 1.281250 1.375000
v 0.281250 1.281250 1.375000
v 0.281250 1.093750 1.375000
v 0.468750 1.093750 1.375000
v 0.281250 1.281250 1.375000
v 0.281250 1.281250 1.562500
v 0.281250 1.093750 1.562500
v 0.281250 1.093750 1.375000
v 0.468750 1.281250 1.562500
v 0.468750 1.281250 1.375000
v 0.468750 1.093750 1.375000
v 0.468750 1.093750 1.562500
v 0.281250 1.281250 1.375000
v 0.468750 1.281250 1.375000
v 0.468750 1.281250 1.562500
v 0.281250 1.281250 1.562500
v 0.281250 1.093750 1.562500
v 0.468750 1.093750 1.562500
v 0.468750 1.093750 1.375000
v 0.281250 1.093750 1.375000
v 0.125000 1.500000 2.125000
v 0.000000 1.500000 2.125000
v 0.000000 1.000000 2.125000
v 0.125000 1.000000 2.125000
v 0.000000 1.500000 2.250000
v 0.125000 1.500000 2.250000
v 0.125000 1.000000 2.250000
v 0.000000 1.000000 2.250000
v 0.000000 1.500000 2.125000
v 0.000000 1.500000 2.250000
v 0.000000 1.000000 2.250000
v 0.000000 1.000000 2.125000
v 0.125000 1.500000 2.250000
v 0.125000 1.500000 2.125000
v 0.125000 1.000000 2.125000
v 0.125000 1.000000 2.250000
v 0.875000 1.500000 2.125000
v 0.750000 1.500000 2.125000
v 0.750000 1.000000 2.125000
v 0.875000 1.000000 2.125000
v 0.750000 1.500000 2.250000
v 0.875000 1.500000 2.250000
v 0.875000 1.000000 2.250000
v 0.750000 1.000000 2.250000
v 0.750000 1.500000 2.125000
v 0.750000 1.500000 2.250000
v 0.750000 1.000000 2.250000
v 0.750000 1.000000 2.125000
v 0.875000 1.500000 2.250000
v 0.875000 1.500000 2.125000
v 0.875000 1.000000 2.125000
v 0.875000 1.000000 2.250000
v 0.125000 1.500000 2.875000
v 0.000000 1.500000 2.875000
v 0.000000 1.000000 2.875000
v 0.125000 1.000000 2.875000
v 0.000000 1.500000 3.000000
v 0.125000 1.500000 3.000000
v 0.125000 1.000000 3.000000
v 0.000000 1.000000 3.000000
v 0.000000 1.500000 2.875000
v 0.000000 1.500000 3.000000
v 0.000000 1.000000 3.000000
v 0.000000 1.000000 2.875000
v 0.125000 1.500000 3.000000
v 0.125000 1.500000 2.875000
v 0.125000 1.000000 2.875000
v 0.125000 1.000000 3.000000
v 0.875000 1.500000 2.875000
v 0.750000 1.500000 2.875000
v 0.750000 1.000000 2.875000
v 0.875000 1.000000 2.875000
v 0.750000 1.500000 3.000000
v 0.875000 1.500000 3.000000
v 0.875000 1.000000 3.000000
v 0.750000 1.000000 3.000000
v 0.750000 1.500000 2.875000
v 0.750000 1.500000 3.000000
v 0.750000 1.000000 3.000000
v 0.750000 1.000000 2.875000
v 0.875000 1.500000 3.000000
v 0.875000 1.500000 2.875000
v 0.875000 1.000000 2.875000
v 0.875000 1.000000 3.000000
v 0.812500 1.500000 2.187500
v 0.062500 1.500000 2.187500
v 0.062500 1.000000 2.187500
v 0.812500 1.000000 2.187500
v 0.062500 1.500000 2.937500
v 0.812500 1.500000 2.937500
v 0.812500 1.000000 2.937500
v 0.062500 1.000000 2.937500
v 0.062500 1.500000 2.187500
v 0.062500 1.500000 2.937500
v 0.062500 1.000000 2.937500
v 0.062500 1.000000 2.187500
v 0.812500 1.500000 2.937500
v 0.812500 1.500000 2.187500
v 0.812500 1.000000 2.187500
v 0.812500 1.000000 2.937500
v 0.875000 1.625000 2.125000
v 0.000000 1.625000 2.125000
v 0.000000 1.500000 2.125000
v 0.875000 1.500000 2.125000
v 0.000000 1.625000 3.000000
v 0.875000 1.625000 3.000000
v 0.875000 1.500000 3.000000
v 0.000000 1.500000 3.000000
v 0.000000 1.625000 2.125000
v 0.000000 1.625000 3.000000
v 0.000000 1.500000 3.000000
v 0.000000 1.500000 2.125000
v 0.875000 1.625000 3.000000
v 0.875000 1.625000 2.125000
v 0.875000 1.500000 2.125000
v 0.875000 1.500000 3.000000
v 0.000000 1.625000 2.125000
v 0.875000 1.625000 2.125000
v 0.875000 1.625000 3.000000
v 0.000000 1.625000 3.000000
v 0.000000 1.500000 3.000000
v 0.875000 1.500000 3.000000
v 0.875000 1.500000 2.125000
v 0.000000 1.500000 2.125000
v 0.187500 1.625000 2.312500
v 0.687500 1.625000 2.312500
v 0.687500 1.625000 2.812500
v 0.187500 1.625000 2.812500
v 0.906250 1.625000 2.812500
v 0.750000 1.625000 2.812500
v 0.750000 1.531250 2.812500
v 0.906250 1.531250 2.812500
v 0.750000 1.625000 2.937500
v 0.906250 1.625000 2.937500
v 0.906250 1.531250 2.937500
v 0.750000 1.531250 2.937500
v 0.750000 1.625000 2.812500
v 0.750000 1.625000 2.937500
v 0.750000 1.531250 2.937500
v 0.750000 1.531250 2.812500
v 0.906250 1.625000 2.937500
v 0.906250 1.625000 2.812500
v 0.906250 1.531250 2.812500
v 0.906250 1.531250 2.937500
v 0.750000 1.625000 2.812500
v 0.906250 1.625000 2.812500
v 0.906250 1.625000 2.937500
v 0.750000 1.625000 2.937500
v 0.000000 1.500000 0.000000
v 0.000000 1.500000 1.500000
v 0.000000 1.375000 1.500000
v 0.000000 1.375000 0.000000
v 0.125000 1.500000 1.500000
v 0.125000 1.500000 0.000000
v 0.125000 1.375000 0.000000
v 0.125000 1.375000 1.500000
v 0.000000 1.500000 0.000000
v 0.125000 1.500000 0.000000
v 0.125000 1.500000 1.500000
v 0.000000 1.500000 1.500000
v 0.000000 1.375000 1.500000
v 0.125000 1.375000 1.500000
v 0.125000 1.375000 0.000000
v 0.000000 1.375000 0.000000
v 0.031250 1.375000 0.000000
v 0.031250 1.375000 1.500000
v 0.031250 1.000000 1.500000
v 0.031250 1.000000 0.000000
v 0.062500 1.375000 1.500000
v 0.062500 1.375000 0.000000
v 0.062500 1.000000 0.000000
v 0.062500 1.000000 1.500000
v 0.687500 1.062500 1.125000
v 0.062500 1.062500 1.125000
v 0.062500 0.750000 1.125000
v 0.687500 0.750000 1.125000
v 0.062500 1.062500 1.500000
v 0.687500 1.062500 1.500000
v 0.687500 0.750000 1.500000
v 0.062500 0.750000 1.500000
v 0.062500 1.062500 1.125000
v 0.062500 1.062500 1.500000
v 0.062500 0.750000 1.500000
v 0.062500 0.750000 1.125000
v 0.687500 1.062500 1.500000
v 0.687500 1.062500 1.125000
v 0.687500 0.750000 1.125000
v 0.687500 0.750000 1.500000
v 0.062500 1.062500 1.125000
v 0.687500 1.062500 1.125000
v 0.687500 1.062500 1.500000
v 0.062500 1.062500 1.500000
v 0.062500 0.750000 1.500000
v 0.687500 0.750000 1.500000
v 0.687500 0.750000 1.125000
v 0.062500 0.750000 1.125000
v 0.687500 1.125000 1.156250
v 0.500000 1.125000 1.156250
v 0.500000 1.062500 1.156250
v 0.687500 1.062500 1.156250
v 0.500000 1.125000 1.468750
v 0.687500 1.125000 1.468750
v 0.687500 1.062500 1.468750
v 0.500000 1.062500 1.468750
v 0.500000 1.125000 1.156250
v 0.500000 1.125000 1.468750
v 0.500000 1.062500 1.468750
v 0.500000 1.062500 1.156250
v 0.687500 1.125000 1.468750
v 0.687500 1.125000 1.156250
v 0.687500 1.062500 1.156250
v 0.687500 1.062500 1.468750
v 0.500000 1.125000 1.156250
v 0.687500 1.125000 1.156250
v 0.687500 1.125000 1.468750
v 0.500000 1.125000 1.468750
v 0.500000 1.062500 1.468750
v 0.687500 1.062500 1.468750
v 0.687500 1.062500 1.156250
v 0.500000 1.062500 1.156250
v 0.687500 1.312500 1.187500
v 0.531250 1.312500 1.187500
v 0.531250 1.125000 1.187500
v 0.687500 1.125000 1.187500
v 0.531250 1.312500 1.437500
v 0.687500 1.312500 1.437500
v 0.687500 1.125000 1.437500
v 0.531250 1.125000 1.437500
v 0.531250 1.312500 1.187500
v 0.531250 1.312500 1.437500
v 0.531250 1.125000 1.437500
v 0.531250 1.125000 1.187500
v 0.687500 1.312500 1.437500
v 0.687500 1.312500 1.187500
v 0.687500 1.125000 1.187500
v 0.687500 1.125000 1.437500
v 0.531250 1.312500 1.187500
v 0.687500 1.312500 1.187500
v 0.687500 1.312500 1.437500
v 0.531250 1.312500 1.437500
v 0.531250 1.125000 1.437500
v 0.687500 1.125000 1.437500
v 0.687500 1.125000 1.187500
v 0.531250 1.125000 1.187500
v 0.531250 1.218750 1.250000
v 0.437500 1.218750 1.250000
v 0.437500 1.156250 1.250000
v 0.531250 1.156250 1.250000
v 0.437500 1.218750 1.375000
v 0.531250 1.218750 1.375000
v 0.531250 1.156250 1.375000
v 0.437500 1.156250 1.375000
v 0.437500 1.218750 1.250000
v 0.437500 1.218750 1.375000
v 0.437500 1.156250 1.375000
v 0.437500 1.156250 1.250000
v 0.531250 1.218750 1.375000
v 0.531250 1.218750 1.250000
v 0.531250 1.156250 1.250000
v 0.531250 1.156250 1.375000
v 0.437500 1.218750 1.250000
v 0.531250 1.218750 1.250000
v 0.531250 1.218750 1.375000
v 0.437500 1.218750 1.375000
v 0.437500 1.156250 1.375000
v 0.531250 1.156250 1.375000
v 0.531250 1.156250 1.250000
v 0.437500 1.156250 1.250000
v 0.750000 1.000000 1.218750
v 0.687500 1.000000 1.218750
v 0.687500 0.812500 1.218750
v 0.750000 0.812500 1.218750
v 0.687500 1.000000 1.406250
v 0.750000 1.000000 1.406250
v 0.750000 0.812500 1.406250
v 0.687500 0.812500 1.406250
v 0.687500 1.000000 1.218750
v 0.687500 1.000000 1.406250
v 0.687500 0.812500 1.406250
v 0.687500 0.812500 1.218750
v 0.750000 1.000000 1.406250
v 0.750000 1.000000 1.218750
v 0.750000 0.812500 1.218750
v 0.750000 0.812500 1.406250
v 0.687500 1.000000 1.218750
v 0.750000 1.000000 1.218750
v 0.750000 1.000000 1.406250
v 0.687500 1.000000 1.406250
v 0.687500 0.812500 1.406250
v 0.750000 0.812500 1.406250
v 0.750000 0.812500 1.218750
v 0.687500 0.812500 1.218750
v -0.046875 0.046875 0.000000
v -0.046875 0.046875 1.500000
v -0.046875 -0.046875 1.500000
v -0.046875 -0.046875 0.000000
v 0.046875 0.046875 1.500000
v 0.046875 0.046875 0.000000
v 0.046875 -0.046875 0.000000
v 0.046875 -0.046875 1.500000
v -0.046875 0.046875 0.000000
v 0.046875 0.046875 0.000000
v 0.046875 0.046875 1.500000
v -0.046875 0.046875 1.500000
v -0.046875 -0.046875 1.500000
v 0.046875 -0.046875 1.500000
v 0.046875 -0.046875 0.000000
v -0.046875 -0.046875 0.000000
v 0.062500 0.062500 0.125000
v -0.062500 0.062500 0.125000
v -0.062500 -0.062500 0.125000
v 0.062500 -0.062500 0.125000
v -0.062500 0.062500 0.187500
v 0.062500 0.062500 0.187500
v 0.062500 -0.062500 0.187500
v -0.062500 -0.062500 0.187500
v -0.062500 0.062500 0.125000
v -0.062500 0.062500 0.187500
v -0.062500 -0.062500 0.187500
v -0.062500 -0.062500 0.125000
v 0.062500 0.062500 0.187500
v 0.062500 0.062500 0.125000
v 0.062500 -0.062500 0.125000
v 0.062500 -0.062500 0.187500
v -0.062500 0.062500 0.125000
v 0.062500 0.062500 0.125000
v 0.062500 0.062500 0.187500
v -0.062500 0.062500 0.187500
v -0.062500 -0.062500 0.187500
v 0.062500 -0.062500 0.187500
v 0.062500 -0.062500 0.125000
v -0.062500 -0.062500 0.125000
v 0.062500 0.062500 0.375000
v -0.062500 0.062500 0.375000
v -0.062500 -0.062500 0.375000
v 0.062500 -0.062500 0.375000
v -0.062500 0.062500 0.437500
v 0.062500 0.062500 0.437500
v 0.062500 -0.062500 0.437500
v -0.062500 -0.062500 0.437500
v -0.062500 0.062500 0.375000
v -0.062500 0.062500 0.437500
v -0.062500 -0.062500 0.437500
v -0.062500 -0.062500 0.375000
v 0.062500 0.062500 0.437500
v 0.062500 0.062500 0.375000
v 0.062500 -0.062500 0.375000
v 0.062500 -0.062500 0.437500
v -0.062500 0.062500 0.375000
v 0.062500 0.062500 0.375000
v 0.062500 0.062500 0.437500
v -0.062500 0.062500 0.437500
v -0.062500 -0.062500 0.437500
v 0.062500 -0.062500 0.437500
v 0.062500 -0.062500 0.375000
v -0.062500 -0.062500 0.375000
v 0.062500 0.062500 0.625000
v -0.062500 0.062500 0.625000
v -0.062500 -0.062500 0.625000
v 0.062500 -0.062500 0.625000
v -0.062500 0.062500 0.687500
v 0.062500 0.062500 0.687500
v 0.062500 -0.062500 0.687500
v -0.062500 -0.062500 0.687500
v -0.062500 0.062500 0.625000
v -0.062500 0.062500 0.687500
v -0.062500 -0.062500 0.687500
v -0.062500 -0.062500 0.625000
v 0.062500 0.062500 0.687500
v 0.062500 0.062500 0.625000
v 0.062500 -0.062500 0.625000
v 0.062500 -0.062500 0.687500
v -0.062500 0.062500 0.625000
v 0.062500 0.062500 0.625000
v 0.062500 0.062500 0.687500
v -0.062500 0.062500 0.687500
v -0.062500 -0.062500 0.687500
v 0.062500 -0.062500 0.687500
v 0.062500 -0.062500 0.625000
v -0.062500 -0.062500 0.625000
v 0.062500 0.062500 0.875000
v -0.062500 0.062500 0.875000
v -0.062500 -0.062500 0.875000
v 0.062500 -0.062500 0.875000
v -0.062500 0.062500 0.937500
v 0.062500 0.062500 0.937500
v 0.062500 -0.062500 0.937500
v -0.062500 -0.062500 0.937500
v -0.062500 0.062500 0.875000
v -0.062500 0.062500 0.937500
v -0.062500 -0.062500 0.937500
v -0.062500 -0.062500 0.875000
v 0.062500 0.062500 0.937500
v 0.062500 0.062500 0.875000
v 0.062500 -0.062500 0.875000
v 0.062500 -0.062500 0.937500
v -0.062500 0.062500 0.875000
v 0.062500 0.062500 0.875000
v 0.062500 0.062500 0.937500
v -0.062500 0.062500 0.937500
v -0.062500 -0.062500 0.937500
v 0.062500 -0.062500 0.937500
v 0.062500 -0.062500 0.875000
v -0.062500 -0.062500 0.875000
v 0.062500 0.062500 1.125000
v -0.062500 0.062500 1.125000
v -0.062500 -0.062500 1.125000
v 0.062500 -0.062500 1.125000
v -0.062500 0.062500 1.187500
v 0.062500 0.062500 1.187500
v 0.062500 -0.062500 1.187500
v -0.062500 -0.062500 1.187500
v -0.062500 0.062500 1.125000
v -0.062500 0.062500 1.187500
v -0.062500 -0.062500 1.187500
v -0.062500 -0.062500 1.125000
v 0.062500 0.062500 1.187500
v 0.062500 0.062500 1.125000
v 0.062500 -0.062500 1.125000
v 0.062500 -0.062500 1.187500
v -0.062500 0.062500 1.125000
v 0.062500 0.062500 1.125000
v 0.062500 0.062500 1.187500
v -0.062500 0.062500 1.187500
v -0.062500 -0.062500 1.187500
v 0.062500 -0.062500 1.187500
v 0.062500 -0.062500 1.125000
v -0.062500 -0.062500 1.125000
v 0.062500 0.062500 1.375000
v -0.062500 0.062500 1.375000
v -0.062500 -0.062500 1.375000
v 0.062500 -0.062500 1.375000
v -0.062500 0.062500 1.437500
v 0.062500 0.062500 1.437500
v 0.062500 -0.062500 1.437500
v -0.062500 -0.062500 1.437500
v -0.062500 0.062500 1.375000
v -0.062500 0.062500 1.437500
v -0.062500 -0.062500 1.437500
v -0.062500 -0.062500 1.375000
v 0.062500 0.062500 1.437500
v 0.062500 0.062500 1.375000
v 0.062500 -0.062500 1.375000
v 0.062500 -0.062500 1.437500
v -0.062500 0.062500 1.375000
v 0.062500 0.062500 1.375000
v 0.062500 0.062500 1.437500
v -0.062500 0.062500 1.437500
v -0.062500 -0.062500 1.437500
v 0.062500 -0.062500 1.437500
v 0.062500 -0.062500 1.375000
v -0.062500 -0.062500 1.375000
v 0.062500 0.062500 0.000000
v -0.062500 0.062500 0.000000
v -0.062500 -0.062500 0.000000
v 0.062500 -0.062500 0.000000
v -0.062500 0.062500 1.500000
v 0.062500 0.062500 1.500000
v 0.062500 -0.062500 1.500000
v -0.062500 -0.062500 1.500000
v -0.062500 0.062500 0.000000
v -0.062500 0.062500 1.500000
v -0.062500 -0.062500 1.500000
v -0.062500 -0.062500 0.000000
v 0.062500 0.062500 1.500000
v 0.062500 0.062500 0.000000
v 0.062500 -0.062500 0.000000
v 0.062500 -0.062500 1.500000
v -0.062500 0.062500 0.000000
v 0.062500 0.062500 0.000000
v 0.062500 0.062500 1.500000
v -0.062500 0.062500 1.500000
v -0.062500 -0.062500 1.500000
v 0.062500 -0.062500 1.500000
v 0.062500 -0.062500 0.000000
v -0.062500 -0.062500 0.000000
v 0.187500 1.629000 2.312500
v 0.187500 1.629000 2.812500
v 0.687500 1.629000 2.812500
v 0.687500 1.629000 2.312500
v 0.750000 1.629000 2.812500
v 0.750000 1.629000 2.937500
v 0.906250 1.629000 2.937500
v 0.906250 1.629000 2.812500
v 0.066500 0.062500 0.187500
v 0.066500 -0.062500 0.187500
v 0.066500 -0.062500 0.125000
v 0.066500 0.062500 0.125000
v 0.066500 0.062500 0.437500
v 0.066500 -0.062500 0.437500
v 0.066500 -0.062500 0.375000
v 0.066500 0.062500 0.375000
v 0.066500 0.062500 0.687500
v 0.066500 -0.062500 0.687500
v 0.066500 -0.062500 0.625000
v 0.066500 0.062500 0.625000
v 0.066500 0.062500 0.937500
v 0.066500 -0.062500 0.937500
v 0.066500 -0.062500 0.875000
v 0.066500 0.062500 0.875000
v 0.066500 0.062500 1.187500
v 0.066500 -0.062500 1.187500
v 0.066500 -0.062500 1.125000
v 0.066500 0.062500 1.125000
v 0.066500 0.062500 1.437500
v 0.066500 -0.062500 1.437500
v 0.066500 -0.062500 1.375000
v 0.066500 0.062500 1.375000
v -0.066500 0.062500 0.125000
v -0.066500 -0.062500 0.125000
v -0.066500 -0.062500 0.187500
v -0.066500 0.062500 0.187500
v -0.066500 0.062500 0.375000
v -0.066500 -0.062500 0.375000
v -0.066500 -0.062500 0.437500
v -0.066500 0.062500 0.437500
v -0.066500 0.062500 0.625000
v -0.066500 -0.062500 0.625000
v -0.066500 -0.062500 0.687500
v -0.066500 0.062500 0.687500
v -0.066500 0.062500 0.875000
v -0.066500 -0.062500 0.875000
v -0.066500 -0.062500 0.937500
v -0.066500 0.062500 0.937500
v -0.066500 0.062500 1.125000
v -0.066500 -0.062500 1.125000
v -0.066500 -0.062500 1.187500
v -0.066500 0.062500 1.187500
v -0.066500 0.062500 1.375000
v -0.066500 -0.062500 1.375000
v -0.066500 -0.062500 1.437500
v -0.066500 0.062500 1.437500
v -0.062500 0.066500 0.125000
v -0.062500 0.066500 0.187500
v 0.062500 0.066500 0.187500
v 0.062500 0.066500 0.125000
v -0.062500 0.066500 0.375000
v -0.062500 0.066500 0.437500
v 0.062500 0.066500 0.437500
v 0.062500 0.066500 0.375000
v -0.062500 0.066500 0.625000
v -0.062500 0.066500 0.687500
v 0.062500 0.066500 0.687500
v 0.062500 0.066500 0.625000
v -0.062500 0.066500 0.875000
v -0.062500 0.066500 0.937500
v 0.062500 0.066500 0.937500
v 0.062500 0.066500 0.875000
v -0.062500 0.066500 1.125000
v -0.062500 0.066500 1.187500
v 0.062500 0.066500 1.187500
v 0.062500 0.066500 1.125000
v -0.062500 0.066500 1.375000
v -0.062500 0.066500 1.437500
v 0.062500 0.066500 1.437500
v 0.062500 0.066500 1.375000
v -0.062500 -0.066500 0.187500
v -0.062500 -0.066500 0.125000
v 0.062500 -0.066500 0.125000
v 0.062500 -0.066500 0.187500
v -0.062500 -0.066500 0.437500
v -0.062500 -0.066500 0.375000
v 0.062500 -0.066500 0.375000
v 0.062500 -0.066500 0.437500
v -0.062500 -0.066500 0.687500
v -0.062500 -0.066500 0.625000
v 0.062500 -0.066500 0.625000
v 0.062500 -0.066500 0.687500
v -0.062500 -0.066500 0.937500
v -0.062500 -0.066500 0.875000
v 0.062500 -0.066500 0.875000
v 0.062500 -0.066500 0.937500
v -0.062500 -0.066500 1.187500
v -0.062500 -0.066500 1.125000
v 0.062500 -0.066500 1.125000
v 0.062500 -0.066500 1.187500
v -0.062500 -0.066500 1.437500
v -0.062500 -0.066500 1.375000
v 0.062500 -0.066500 1.375000
v 0.062500 -0.066500 1.437500
vt 0.710938 0.359375
vt 0.835938 0.359375
vt 0.835938 0.335938
vt 0.710938 0.335938
vt 0.710938 0.359375
vt 0.835938 0.359375
vt 0.835938 0.335938
vt 0.710938 0.335938
vt 0.000000 0.312500
vt 0.500000 0.312500
vt 0.500000 0.289062
vt 0.000000 0.289062
vt 0.000000 0.312500
vt 0.500000 0.312500
vt 0.500000 0.289062
vt 0.000000 0.289062
vt 0.000000 1.000000
vt 0.125000 1.000000
vt 0.125000 0.500000
vt 0.000000 0.500000
vt 0.937500 1.000000
vt 0.960938 1.000000
vt 0.960938 0.921875
vt 0.937500 0.921875
vt 0.937500 1.000000
vt 0.960938 1.000000
vt 0.960938 0.921875
vt 0.937500 0.921875
vt 0.937500 1.000000
vt 0.960938 1.000000
vt 0.960938 0.921875
vt 0.937500 0.921875
vt 0.937500 1.000000
vt 0.960938 1.000000
vt 0.960938 0.921875
vt 0.937500 0.921875
vt 0.937500 1.000000
vt 0.960938 1.000000
vt 0.960938 0.921875
vt 0.937500 0.921875
vt 0.937500 1.000000
vt 0.960938 1.000000
vt 0.960938 0.921875
vt 0.937500 0.921875
vt 0.937500 1.000000
vt 0.960938 1.000000
vt 0.960938 0.921875
vt 0.937500 0.921875
vt 0.937500 1.000000
vt 0.960938 1.000000
vt 0.960938 0.921875
vt 0.937500 0.921875
vt 0.937500 1.000000
vt 0.960938 1.000000
vt 0.960938 0.921875
vt 0.937500 0.921875
vt 0.937500 1.000000
vt 0.960938 1.000000
vt 0.960938 0.921875
vt 0.937500 0.921875
vt 0.937500 1.000000
vt 0.960938 1.000000
vt 0.960938 0.921875
vt 0.937500 0.921875
vt 0.937500 1.000000
vt 0.960938 1.000000
vt 0.960938 0.921875
vt 0.937500 0.921875
vt 0.937500 1.000000
vt 0.960938 1.000000
vt 0.960938 0.921875
vt 0.937500 0.921875
vt 0.937500 1.000000
vt 0.960938 1.000000
vt 0.960938 0.921875
vt 0.937500 0.921875
vt 0.937500 1.000000
vt 0.960938 1.000000
vt 0.960938 0.921875
vt 0.937500 0.921875
vt 0.937500 1.000000
vt 0.960938 1.000000
vt 0.960938 0.921875
vt 0.937500 0.921875
vt 0.343750 0.500000
vt 0.453125 0.500000
vt 0.453125 0.421875
vt 0.343750 0.421875
vt 0.343750 0.500000
vt 0.453125 0.500000
vt 0.453125 0.421875
vt 0.343750 0.421875
vt 0.453125 0.500000
vt 0.562500 0.500000
vt 0.562500 0.421875
vt 0.453125 0.421875
vt 0.453125 0.500000
vt 0.562500 0.500000
vt 0.562500 0.421875
vt 0.453125 0.421875
vt 0.835938 0.359375
vt 0.960938 0.359375
vt 0.960938 0.335938
vt 0.835938 0.335938
vt 0.835938 0.359375
vt 0.960938 0.359375
vt 0.960938 0.335938
vt 0.835938 0.335938
vt 0.835938 0.359375
vt 0.960938 0.359375
vt 0.960938 0.335938
vt 0.835938 0.335938
vt 0.835938 0.359375
vt 0.960938 0.359375
vt 0.960938 0.335938
vt 0.835938 0.335938
vt 0.406250 1.000000
vt 0.531250 1.000000
vt 0.531250 0.875000
vt 0.406250 0.875000
vt 0.000000 0.359375
vt 0.046875 0.359375
vt 0.046875 0.312500
vt 0.000000 0.312500
vt 0.992188 1.000000
vt 1.000000 1.000000
vt 1.000000 0.953125
vt 0.992188 0.953125
vt 0.992188 1.000000
vt 1.000000 1.000000
vt 1.000000 0.953125
vt 0.992188 0.953125
vt 0.125000 0.273438
vt 0.171875 0.273438
vt 0.171875 0.265625
vt 0.125000 0.265625
vt 0.125000 0.273438
vt 0.171875 0.273438
vt 0.171875 0.265625
vt 0.125000 0.265625
vt 0.937500 1.000000
vt 0.960938 1.000000
vt 0.960938 0.921875
vt 0.937500 0.921875
vt 0.937500 1.000000
vt 0.960938 1.000000
vt 0.960938 0.921875
vt 0.937500 0.921875
vt 0.937500 1.000000
vt 0.960938 1.000000
vt 0.960938 0.921875
vt 0.937500 0.921875
vt 0.937500 1.000000
vt 0.960938 1.000000
vt 0.960938 0.921875
vt 0.937500 0.921875
vt 0.937500 1.000000
vt 0.960938 1.000000
vt 0.960938 0.921875
vt 0.937500 0.921875
vt 0.937500 1.000000
vt 0.960938 1.000000
vt 0.960938 0.921875
vt 0.937500 0.921875
vt 0.937500 1.000000
vt 0.960938 1.000000
vt 0.960938 0.921875
vt 0.937500 0.921875
vt 0.937500 1.000000
vt 0.960938 1.000000
vt 0.960938 0.921875
vt 0.937500 0.921875
vt 0.937500 1.000000
vt 0.960938 1.000000
vt 0.960938 0.921875
vt 0.937500 0.921875
vt 0.937500 1.000000
vt 0.960938 1.000000
vt 0.960938 0.921875
vt 0.937500 0.921875
vt 0.937500 1.000000
vt 0.960938 1.000000
vt 0.960938 0.921875
vt 0.937500 0.921875
vt 0.937500 1.000000
vt 0.960938 1.000000
vt 0.960938 0.921875
vt 0.937500 0.921875
vt 0.937500 1.000000
vt 0.960938 1.000000
vt 0.960938 0.921875
vt 0.937500 0.921875
vt 0.937500 1.000000
vt 0.960938 1.000000
vt 0.960938 0.921875
vt 0.937500 0.921875
vt 0.937500 1.000000
vt 0.960938 1.000000
vt 0.960938 0.921875
vt 0.937500 0.921875
vt 0.937500 1.000000
vt 0.960938 1.000000
vt 0.960938 0.921875
vt 0.937500 0.921875
vt 0.343750 0.500000
vt 0.453125 0.500000
vt 0.453125 0.421875
vt 0.343750 0.421875
vt 0.343750 0.500000
vt 0.453125 0.500000
vt 0.453125 0.421875
vt 0.343750 0.421875
vt 0.000000 0.500000
vt 0.171875 0.500000
vt 0.171875 0.421875
vt 0.000000 0.421875
vt 0.171875 0.500000
vt 0.343750 0.500000
vt 0.343750 0.421875
vt 0.171875 0.421875
vt 0.835938 0.359375
vt 0.960938 0.359375
vt 0.960938 0.335938
vt 0.835938 0.335938
vt 0.835938 0.359375
vt 0.960938 0.359375
vt 0.960938 0.335938
vt 0.835938 0.335938
vt 0.523438 0.359375
vt 0.710938 0.359375
vt 0.710938 0.335938
vt 0.523438 0.335938
vt 0.523438 0.359375
vt 0.710938 0.359375
vt 0.710938 0.335938
vt 0.523438 0.335938
vt 0.140625 1.000000
vt 0.265625 1.000000
vt 0.265625 0.812500
vt 0.140625 0.812500
vt 0.000000 0.359375
vt 0.046875 0.359375
vt 0.046875 0.312500
vt 0.000000 0.312500
vt 0.992188 1.000000
vt 1.000000 1.000000
vt 1.000000 0.953125
vt 0.992188 0.953125
vt 0.992188 1.000000
vt 1.000000 1.000000
vt 1.000000 0.953125
vt 0.992188 0.953125
vt 0.125000 0.273438
vt 0.171875 0.273438
vt 0.171875 0.265625
vt 0.125000 0.265625
vt 0.125000 0.273438
vt 0.171875 0.273438
vt 0.171875 0.265625
vt 0.125000 0.265625
vt 0.093750 0.421875
vt 0.281250 0.421875
vt 0.281250 0.367188
vt 0.093750 0.367188
vt 0.093750 0.421875
vt 0.281250 0.421875
vt 0.281250 0.367188
vt 0.093750 0.367188
vt 0.265625 1.000000
vt 0.328125 1.000000
vt 0.328125 0.812500
vt 0.265625 0.812500
vt 0.695312 0.289062
vt 0.882812 0.289062
vt 0.882812 0.281250
vt 0.695312 0.281250
vt 0.695312 0.289062
vt 0.882812 0.289062
vt 0.882812 0.281250
vt 0.695312 0.281250
vt 0.328125 1.000000
vt 0.359375 1.000000
vt 0.359375 0.812500
vt 0.328125 0.812500
vt 0.546875 0.312500
vt 0.734375 0.312500
vt 0.734375 0.296875
vt 0.546875 0.296875
vt 0.734375 0.312500
vt 0.921875 0.312500
vt 0.921875 0.296875
vt 0.734375 0.296875
vt 0.359375 1.000000
vt 0.375000 1.000000
vt 0.375000 0.812500
vt 0.359375 0.812500
vt 0.242188 0.359375
vt 0.445312 0.359375
vt 0.445312 0.328125
vt 0.242188 0.328125
vt 0.242188 0.359375
vt 0.445312 0.359375
vt 0.445312 0.328125
vt 0.242188 0.328125
vt 0.125000 1.000000
vt 0.140625 1.000000
vt 0.140625 0.796875
vt 0.125000 0.796875
vt 0.242188 0.359375
vt 0.445312 0.359375
vt 0.445312 0.328125
vt 0.242188 0.328125
vt 0.242188 0.359375
vt 0.445312 0.359375
vt 0.445312 0.328125
vt 0.242188 0.328125
vt 0.125000 1.000000
vt 0.140625 1.000000
vt 0.140625 0.796875
vt 0.125000 0.796875
vt 0.976562 1.000000
vt 0.992188 1.000000
vt 0.992188 0.945312
vt 0.976562 0.945312
vt 0.976562 1.000000
vt 0.992188 1.000000
vt 0.992188 0.945312
vt 0.976562 0.945312
vt 0.976562 1.000000
vt 0.992188 1.000000
vt 0.992188 0.945312
vt 0.976562 0.945312
vt 0.976562 1.000000
vt 0.992188 1.000000
vt 0.992188 0.945312
vt 0.976562 0.945312
vt 0.976562 1.000000
vt 0.992188 1.000000
vt 0.992188 0.945312
vt 0.976562 0.945312
vt 0.976562 1.000000
vt 0.992188 1.000000
vt 0.992188 0.945312
vt 0.976562 0.945312
vt 0.976562 1.000000
vt 0.992188 1.000000
vt 0.992188 0.945312
vt 0.976562 0.945312
vt 0.976562 1.000000
vt 0.992188 1.000000
vt 0.992188 0.945312
vt 0.976562 0.945312
vt 0.976562 1.000000
vt 0.992188 1.000000
vt 0.992188 0.945312
vt 0.976562 0.945312
vt 0.976562 1.000000
vt 0.992188 1.000000
vt 0.992188 0.945312
vt 0.976562 0.945312
vt 0.976562 1.000000
vt 0.992188 1.000000
vt 0.992188 0.945312
vt 0.976562 0.945312
vt 0.976562 1.000000
vt 0.992188 1.000000
vt 0.992188 0.945312
vt 0.976562 0.945312
vt 0.976562 1.000000
vt 0.992188 1.000000
vt 0.992188 0.945312
vt 0.976562 0.945312
vt 0.976562 1.000000
vt 0.992188 1.000000
vt 0.992188 0.945312
vt 0.976562 0.945312
vt 0.976562 1.000000
vt 0.992188 1.000000
vt 0.992188 0.945312
vt 0.976562 0.945312
vt 0.976562 1.000000
vt 0.992188 1.000000
vt 0.992188 0.945312
vt 0.976562 0.945312
vt 0.500000 0.421875
vt 0.578125 0.421875
vt 0.578125 0.367188
vt 0.500000 0.367188
vt 0.500000 0.421875
vt 0.578125 0.421875
vt 0.578125 0.367188
vt 0.500000 0.367188
vt 0.281250 0.421875
vt 0.390625 0.421875
vt 0.390625 0.367188
vt 0.281250 0.367188
vt 0.390625 0.421875
vt 0.500000 0.421875
vt 0.500000 0.367188
vt 0.390625 0.367188
vt 0.882812 0.289062
vt 0.976562 0.289062
vt 0.976562 0.281250
vt 0.882812 0.281250
vt 0.882812 0.289062
vt 0.976562 0.289062
vt 0.976562 0.281250
vt 0.882812 0.281250
vt 0.000000 0.273438
vt 0.125000 0.273438
vt 0.125000 0.265625
vt 0.000000 0.265625
vt 0.000000 0.273438
vt 0.125000 0.273438
vt 0.125000 0.265625
vt 0.000000 0.265625
vt 0.531250 1.000000
vt 0.625000 1.000000
vt 0.625000 0.875000
vt 0.531250 0.875000
vt 0.625000 1.000000
vt 0.718750 1.000000
vt 0.718750 0.875000
vt 0.625000 0.875000
vt 0.445312 0.359375
vt 0.476562 0.359375
vt 0.476562 0.328125
vt 0.445312 0.328125
vt 0.445312 0.359375
vt 0.476562 0.359375
vt 0.476562 0.328125
vt 0.445312 0.328125
vt 0.984375 0.500000
vt 1.000000 0.500000
vt 1.000000 0.468750
vt 0.984375 0.468750
vt 0.984375 0.500000
vt 1.000000 0.500000
vt 1.000000 0.468750
vt 0.984375 0.468750
vt 0.578125 0.289062
vt 0.609375 0.289062
vt 0.609375 0.273438
vt 0.578125 0.273438
vt 0.578125 0.289062
vt 0.609375 0.289062
vt 0.609375 0.273438
vt 0.578125 0.273438
vt 0.210938 0.273438
vt 0.226562 0.273438
vt 0.226562 0.265625
vt 0.210938 0.265625
vt 0.210938 0.273438
vt 0.226562 0.273438
vt 0.226562 0.265625
vt 0.210938 0.265625
vt 0.257812 0.273438
vt 0.265625 0.273438
vt 0.265625 0.265625
vt 0.257812 0.265625
vt 0.257812 0.273438
vt 0.265625 0.273438
vt 0.265625 0.265625
vt 0.257812 0.265625
vt 0.210938 0.273438
vt 0.226562 0.273438
vt 0.226562 0.265625
vt 0.210938 0.265625
vt 0.210938 0.273438
vt 0.226562 0.273438
vt 0.226562 0.265625
vt 0.210938 0.265625
vt 0.484375 0.289062
vt 0.578125 0.289062
vt 0.578125 0.273438
vt 0.484375 0.273438
vt 0.484375 0.289062
vt 0.578125 0.289062
vt 0.578125 0.273438
vt 0.484375 0.273438
vt 0.921875 0.312500
vt 1.000000 0.312500
vt 1.000000 0.296875
vt 0.921875 0.296875
vt 0.921875 0.312500
vt 1.000000 0.312500
vt 1.000000 0.296875
vt 0.921875 0.296875
vt 0.562500 0.500000
vt 0.656250 0.500000
vt 0.656250 0.421875
vt 0.562500 0.421875
vt 0.765625 0.421875
vt 0.843750 0.421875
vt 0.843750 0.375000
vt 0.765625 0.375000
vt 0.765625 0.421875
vt 0.843750 0.421875
vt 0.843750 0.375000
vt 0.765625 0.375000
vt 0.921875 0.421875
vt 0.992188 0.421875
vt 0.992188 0.375000
vt 0.921875 0.375000
vt 0.921875 0.421875
vt 0.992188 0.421875
vt 0.992188 0.375000
vt 0.921875 0.375000
vt 0.656250 0.500000
vt 0.734375 0.500000
vt 0.734375 0.429688
vt 0.656250 0.429688
vt 0.500000 0.312500
vt 0.523438 0.312500
vt 0.523438 0.289062
vt 0.500000 0.289062
vt 0.500000 0.312500
vt 0.523438 0.312500
vt 0.523438 0.289062
vt 0.500000 0.289062
vt 0.500000 0.312500
vt 0.523438 0.312500
vt 0.523438 0.289062
vt 0.500000 0.289062
vt 0.500000 0.312500
vt 0.523438 0.312500
vt 0.523438 0.289062
vt 0.500000 0.289062
vt 0.500000 0.312500
vt 0.523438 0.312500
vt 0.523438 0.289062
vt 0.500000 0.289062
vt 0.960938 1.000000
vt 0.976562 1.000000
vt 0.976562 0.937500
vt 0.960938 0.937500
vt 0.960938 1.000000
vt 0.976562 1.000000
vt 0.976562 0.937500
vt 0.960938 0.937500
vt 0.960938 1.000000
vt 0.976562 1.000000
vt 0.976562 0.937500
vt 0.960938 0.937500
vt 0.960938 1.000000
vt 0.976562 1.000000
vt 0.976562 0.937500
vt 0.960938 0.937500
vt 0.960938 1.000000
vt 0.976562 1.000000
vt 0.976562 0.937500
vt 0.960938 0.937500
vt 0.960938 1.000000
vt 0.976562 1.000000
vt 0.976562 0.937500
vt 0.960938 0.937500
vt 0.960938 1.000000
vt 0.976562 1.000000
vt 0.976562 0.937500
vt 0.960938 0.937500
vt 0.960938 1.000000
vt 0.976562 1.000000
vt 0.976562 0.937500
vt 0.960938 0.937500
vt 0.960938 1.000000
vt 0.976562 1.000000
vt 0.976562 0.937500
vt 0.960938 0.937500
vt 0.960938 1.000000
vt 0.976562 1.000000
vt 0.976562 0.937500
vt 0.960938 0.937500
vt 0.960938 1.000000
vt 0.976562 1.000000
vt 0.976562 0.937500
vt 0.960938 0.937500
vt 0.960938 1.000000
vt 0.976562 1.000000
vt 0.976562 0.937500
vt 0.960938 0.937500
vt 0.960938 1.000000
vt 0.976562 1.000000
vt 0.976562 0.937500
vt 0.960938 0.937500
vt 0.960938 1.000000
vt 0.976562 1.000000
vt 0.976562 0.937500
vt 0.960938 0.937500
vt 0.960938 1.000000
vt 0.976562 1.000000
vt 0.976562 0.937500
vt 0.960938 0.937500
vt 0.960938 1.000000
vt 0.976562 1.000000
vt 0.976562 0.937500
vt 0.960938 0.937500
vt 0.734375 0.500000
vt 0.828125 0.500000
vt 0.828125 0.437500
vt 0.734375 0.437500
vt 0.734375 0.500000
vt 0.828125 0.500000
vt 0.828125 0.437500
vt 0.734375 0.437500
vt 0.828125 0.500000
vt 0.921875 0.500000
vt 0.921875 0.437500
vt 0.828125 0.437500
vt 0.000000 0.421875
vt 0.093750 0.421875
vt 0.093750 0.359375
vt 0.000000 0.359375
vt 0.375000 0.289062
vt 0.484375 0.289062
vt 0.484375 0.273438
vt 0.375000 0.273438
vt 0.375000 0.289062
vt 0.484375 0.289062
vt 0.484375 0.273438
vt 0.375000 0.273438
vt 0.375000 0.289062
vt 0.484375 0.289062
vt 0.484375 0.273438
vt 0.375000 0.273438
vt 0.375000 0.289062
vt 0.484375 0.289062
vt 0.484375 0.273438
vt 0.375000 0.273438
vt 0.718750 1.000000
vt 0.828125 1.000000
vt 0.828125 0.890625
vt 0.718750 0.890625
vt 0.828125 1.000000
vt 0.937500 1.000000
vt 0.937500 0.890625
vt 0.828125 0.890625
vt 0.921875 0.500000
vt 0.984375 0.500000
vt 0.984375 0.437500
vt 0.921875 0.437500
vt 0.609375 0.289062
vt 0.632812 0.289062
vt 0.632812 0.273438
vt 0.609375 0.273438
vt 0.609375 0.289062
vt 0.632812 0.289062
vt 0.632812 0.273438
vt 0.609375 0.273438
vt 0.632812 0.289062
vt 0.648438 0.289062
vt 0.648438 0.273438
vt 0.632812 0.273438
vt 0.632812 0.289062
vt 0.648438 0.289062
vt 0.648438 0.273438
vt 0.632812 0.273438
vt 0.609375 0.289062
vt 0.632812 0.289062
vt 0.632812 0.273438
vt 0.609375 0.273438
vt 0.546875 0.312500
vt 0.734375 0.312500
vt 0.734375 0.296875
vt 0.546875 0.296875
vt 0.546875 0.312500
vt 0.734375 0.312500
vt 0.734375 0.296875
vt 0.546875 0.296875
vt 0.359375 1.000000
vt 0.375000 1.000000
vt 0.375000 0.812500
vt 0.359375 0.812500
vt 0.359375 1.000000
vt 0.375000 1.000000
vt 0.375000 0.812500
vt 0.359375 0.812500
vt 0.578125 0.421875
vt 0.765625 0.421875
vt 0.765625 0.375000
vt 0.578125 0.375000
vt 0.578125 0.421875
vt 0.765625 0.421875
vt 0.765625 0.375000
vt 0.578125 0.375000
vt 0.046875 0.359375
vt 0.125000 0.359375
vt 0.125000 0.320312
vt 0.046875 0.320312
vt 0.046875 0.359375
vt 0.125000 0.359375
vt 0.125000 0.320312
vt 0.046875 0.320312
vt 0.125000 0.359375
vt 0.171875 0.359375
vt 0.171875 0.320312
vt 0.125000 0.320312
vt 0.171875 0.359375
vt 0.218750 0.359375
vt 0.218750 0.320312
vt 0.171875 0.320312
vt 0.765625 0.421875
vt 0.843750 0.421875
vt 0.843750 0.375000
vt 0.765625 0.375000
vt 0.843750 0.421875
vt 0.921875 0.421875
vt 0.921875 0.375000
vt 0.843750 0.375000
vt 0.976562 0.289062
vt 1.000000 0.289062
vt 1.000000 0.281250
vt 0.976562 0.281250
vt 0.976562 0.289062
vt 1.000000 0.289062
vt 1.000000 0.281250
vt 0.976562 0.281250
vt 0.171875 0.273438
vt 0.210938 0.273438
vt 0.210938 0.265625
vt 0.171875 0.265625
vt 0.171875 0.273438
vt 0.210938 0.273438
vt 0.210938 0.265625
vt 0.171875 0.265625
vt 0.218750 0.359375
vt 0.242188 0.359375
vt 0.242188 0.320312
vt 0.218750 0.320312
vt 0.218750 0.359375
vt 0.242188 0.359375
vt 0.242188 0.320312
vt 0.218750 0.320312
vt 0.523438 0.312500
vt 0.546875 0.312500
vt 0.546875 0.289062
vt 0.523438 0.289062
vt 0.523438 0.312500
vt 0.546875 0.312500
vt 0.546875 0.289062
vt 0.523438 0.289062
vt 0.960938 0.359375
vt 0.992188 0.359375
vt 0.992188 0.335938
vt 0.960938 0.335938
vt 0.960938 0.359375
vt 0.992188 0.359375
vt 0.992188 0.335938
vt 0.960938 0.335938
vt 0.476562 0.359375
vt 0.500000 0.359375
vt 0.500000 0.328125
vt 0.476562 0.328125
vt 0.500000 0.359375
vt 0.523438 0.359375
vt 0.523438 0.328125
vt 0.500000 0.328125
vt 0.226562 0.273438
vt 0.242188 0.273438
vt 0.242188 0.265625
vt 0.226562 0.265625
vt 0.226562 0.273438
vt 0.242188 0.273438
vt 0.242188 0.265625
vt 0.226562 0.265625
vt 0.226562 0.273438
vt 0.242188 0.273438
vt 0.242188 0.265625
vt 0.226562 0.265625
vt 0.226562 0.273438
vt 0.242188 0.273438
vt 0.242188 0.265625
vt 0.226562 0.265625
vt 0.648438 0.289062
vt 0.664062 0.289062
vt 0.664062 0.273438
vt 0.648438 0.273438
vt 0.648438 0.289062
vt 0.664062 0.289062
vt 0.664062 0.273438
vt 0.648438 0.273438
vt 0.992188 0.421875
vt 1.000000 0.421875
vt 1.000000 0.398438
vt 0.992188 0.398438
vt 0.992188 0.421875
vt 1.000000 0.421875
vt 1.000000 0.398438
vt 0.992188 0.398438
vt 0.500000 0.312500
vt 0.523438 0.312500
vt 0.523438 0.289062
vt 0.500000 0.289062
vt 0.500000 0.312500
vt 0.523438 0.312500
vt 0.523438 0.289062
vt 0.500000 0.289062
vt 0.992188 0.421875
vt 1.000000 0.421875
vt 1.000000 0.398438
vt 0.992188 0.398438
vt 0.992188 0.421875
vt 1.000000 0.421875
vt 1.000000 0.398438
vt 0.992188 0.398438
vt 0.000000 0.289062
vt 0.187500 0.289062
vt 0.187500 0.273438
vt 0.000000 0.273438
vt 0.000000 0.289062
vt 0.187500 0.289062
vt 0.187500 0.273438
vt 0.000000 0.273438
vt 0.375000 1.000000
vt 0.390625 1.000000
vt 0.390625 0.812500
vt 0.375000 0.812500
vt 0.375000 1.000000
vt 0.390625 1.000000
vt 0.390625 0.812500
vt 0.375000 0.812500
vt 0.664062 0.289062
vt 0.679688 0.289062
vt 0.679688 0.273438
vt 0.664062 0.273438
vt 0.664062 0.289062
vt 0.679688 0.289062
vt 0.679688 0.273438
vt 0.664062 0.273438
vt 0.992188 0.359375
vt 1.000000 0.359375
vt 1.000000 0.343750
vt 0.992188 0.343750
vt 0.992188 0.359375
vt 1.000000 0.359375
vt 1.000000 0.343750
vt 0.992188 0.343750
vt 0.242188 0.273438
vt 0.257812 0.273438
vt 0.257812 0.265625
vt 0.242188 0.265625
vt 0.242188 0.273438
vt 0.257812 0.273438
vt 0.257812 0.265625
vt 0.242188 0.265625
vt 0.664062 0.289062
vt 0.679688 0.289062
vt 0.679688 0.273438
vt 0.664062 0.273438
vt 0.664062 0.289062
vt 0.679688 0.289062
vt 0.679688 0.273438
vt 0.664062 0.273438
vt 0.992188 0.359375
vt 1.000000 0.359375
vt 1.000000 0.343750
vt 0.992188 0.343750
vt 0.992188 0.359375
vt 1.000000 0.359375
vt 1.000000 0.343750
vt 0.992188 0.343750
vt 0.242188 0.273438
vt 0.257812 0.273438
vt 0.257812 0.265625
vt 0.242188 0.265625
vt 0.242188 0.273438
vt 0.257812 0.273438
vt 0.257812 0.265625
vt 0.242188 0.265625
vt 0.664062 0.289062
vt 0.679688 0.289062
vt 0.679688 0.273438
vt 0.664062 0.273438
vt 0.664062 0.289062
vt 0.679688 0.289062
vt 0.679688 0.273438
vt 0.664062 0.273438
vt 0.992188 0.359375
vt 1.000000 0.359375
vt 1.000000 0.343750
vt 0.992188 0.343750
vt 0.992188 0.359375
vt 1.000000 0.359375
vt 1.000000 0.343750
vt 0.992188 0.343750
vt 0.242188 0.273438
vt 0.257812 0.273438
vt 0.257812 0.265625
vt 0.242188 0.265625
vt 0.242188 0.273438
vt 0.257812 0.273438
vt 0.257812 0.265625
vt 0.242188 0.265625
vt 0.664062 0.289062
vt 0.679688 0.289062
vt 0.679688 0.273438
vt 0.664062 0.273438
vt 0.664062 0.289062
vt 0.679688 0.289062
vt 0.679688 0.273438
vt 0.664062 0.273438
vt 0.992188 0.359375
vt 1.000000 0.359375
vt 1.000000 0.343750
vt 0.992188 0.343750
vt 0.992188 0.359375
vt 1.000000 0.359375
vt 1.000000 0.343750
vt 0.992188 0.343750
vt 0.242188 0.273438
vt 0.257812 0.273438
vt 0.257812 0.265625
vt 0.242188 0.265625
vt 0.242188 0.273438
vt 0.257812 0.273438
vt 0.257812 0.265625
vt 0.242188 0.265625
vt 0.664062 0.289062
vt 0.679688 0.289062
vt 0.679688 0.273438
vt 0.664062 0.273438
vt 0.664062 0.289062
vt 0.679688 0.289062
vt 0.679688 0.273438
vt 0.664062 0.273438
vt 0.992188 0.359375
vt 1.000000 0.359375
vt 1.000000 0.343750
vt 0.992188 0.343750
vt 0.992188 0.359375
vt 1.000000 0.359375
vt 1.000000 0.343750
vt 0.992188 0.343750
vt 0.242188 0.273438
vt 0.257812 0.273438
vt 0.257812 0.265625
vt 0.242188 0.265625
vt 0.242188 0.273438
vt 0.257812 0.273438
vt 0.257812 0.265625
vt 0.242188 0.265625
vt 0.664062 0.289062
vt 0.679688 0.289062
vt 0.679688 0.273438
vt 0.664062 0.273438
vt 0.664062 0.289062
vt 0.679688 0.289062
vt 0.679688 0.273438
vt 0.664062 0.273438
vt 0.992188 0.359375
vt 1.000000 0.359375
vt 1.000000 0.343750
vt 0.992188 0.343750
vt 0.992188 0.359375
vt 1.000000 0.359375
vt 1.000000 0.343750
vt 0.992188 0.343750
vt 0.242188 0.273438
vt 0.257812 0.273438
vt 0.257812 0.265625
vt 0.242188 0.265625
vt 0.242188 0.273438
vt 0.257812 0.273438
vt 0.257812 0.265625
vt 0.242188 0.265625
vt 0.679688 0.289062
vt 0.695312 0.289062
vt 0.695312 0.273438
vt 0.679688 0.273438
vt 0.679688 0.289062
vt 0.695312 0.289062
vt 0.695312 0.273438
vt 0.679688 0.273438
vt 0.187500 0.289062
vt 0.375000 0.289062
vt 0.375000 0.273438
vt 0.187500 0.273438
vt 0.187500 0.289062
vt 0.375000 0.289062
vt 0.375000 0.273438
vt 0.187500 0.273438
vt 0.390625 1.000000
vt 0.406250 1.000000
vt 0.406250 0.812500
vt 0.390625 0.812500
vt 0.390625 1.000000
vt 0.406250 1.000000
vt 0.406250 0.812500
vt 0.390625 0.812500
vn 0 0 -1
vn 0 0 1
vn -1 0 0
vn 1 0 0
vn 0 1 0
vn 0 -1 0
usemtl lathe
o Hull
f 1/1/1 4/4/1 3/3/1 2/2/1
f 5/5/2 8/8/2 7/7/2 6/6/2
f 9/9/3 12/12/3 11/11/3 10/10/3
f 13/13/4 16/16/4 15/15/4 14/14/4
f 17/17/5 20/20/5 19/19/5 18/18/5
f 21/21/1 24/24/1 23/23/1 22/22/1
f 25/25/2 28/28/2 27/27/2 26/26/2
f 29/29/3 32/32/3 31/31/3 30/30/3
f 33/33/4 36/36/4 35/35/4 34/34/4
f 37/37/1 40/40/1 39/39/1 38/38/1
f 41/41/2 44/44/2 43/43/2 42/42/2
f 45/45/3 48/48/3 47/47/3 46/46/3
f 49/49/4 52/52/4 51/51/4 50/50/4
f 53/53/1 56/56/1 55/55/1 54/54/1
f 57/57/2 60/60/2 59/59/2 58/58/2
f 61/61/3 64/64/3 63/63/3 62/62/3
f 65/65/4 68/68/4 67/67/4 66/66/4
f 69/69/1 72/72/1 71/71/1 70/70/1
f 73/73/2 76/76/2 75/75/2 74/74/2
f 77/77/3 80/80/3 79/79/3 78/78/3
f 81/81/4 84/84/4 83/83/4 82/82/4
f 85/85/1 88/88/1 87/87/1 86/86/1
f 89/89/2 92/92/2 91/91/2 90/90/2
f 93/93/3 96/96/3 95/95/3 94/94/3
f 97/97/4 100/100/4 99/99/4 98/98/4
f 101/101/1 104/104/1 103/103/1 102/102/1
f 105/105/2 108/108/2 107/107/2 106/106/2
f 109/109/3 112/112/3 111/111/3 110/110/3
f 113/113/4 116/116/4 115/115/4 114/114/4
f 117/117/5 120/120/5 119/119/5 118/118/5
f 121/121/1 124/124/1 123/123/1 122/122/1
f 125/125/3 128/128/3 127/127/3 126/126/3
f 129/129/4 132/132/4 131/131/4 130/130/4
f 133/133/5 136/136/5 135/135/5 134/134/5
f 137/137/6 140/140/6 139/139/6 138/138/6
f 141/141/1 144/144/1 143/143/1 142/142/1
f 145/145/2 148/148/2 147/147/2 146/146/2
f 149/149/3 152/152/3 151/151/3 150/150/3
f 153/153/4 156/156/4 155/155/4 154/154/4
f 157/157/1 160/160/1 159/159/1 158/158/1
f 161/161/2 164/164/2 163/163/2 162/162/2
f 165/165/3 168/168/3 167/167/3 166/166/3
f 169/169/4 172/172/4 171/171/4 170/170/4
f 173/173/1 176/176/1 175/175/1 174/174/1
f 177/177/2 180/180/2 179/179/2 178/178/2
f 181/181/3 184/184/3 183/183/3 182/182/3
f 185/185/4 188/188/4 187/187/4 186/186/4
f 189/189/1 192/192/1 191/191/1 190/190/1
f 193/193/2 196/196/2 195/195/2 194/194/2
f 197/197/3 200/200/3 199/199/3 198/198/3
f 201/201/4 204/204/4 203/203/4 202/202/4
f 205/205/1 208/208/1 207/207/1 206/206/1
f 209/209/2 212/212/2 211/211/2 210/210/2
f 213/213/3 216/216/3 215/215/3 214/214/3
f 217/217/4 220/220/4 219/219/4 218/218/4
f 221/221/1 224/224/1 223/223/1 222/222/1
f 225/225/2 228/228/2 227/227/2 226/226/2
f 229/229/3 232/232/3 231/231/3 230/230/3
f 233/233/4 236/236/4 235/235/4 234/234/4
f 237/237/5 240/240/5 239/239/5 238/238/5
f 241/241/2 244/244/2 243/243/2 242/242/2
f 245/245/3 248/248/3 247/247/3 246/246/3
f 249/249/4 252/252/4 251/251/4 250/250/4
f 253/253/5 256/256/5 255/255/5 254/254/5
f 257/257/6 260/260/6 259/259/6 258/258/6
f 261/261/3 264/264/3 263/263/3 262/262/3
f 265/265/4 268/268/4 267/267/4 266/266/4
f 269/269/5 272/272/5 271/271/5 270/270/5
f 273/273/3 276/276/3 275/275/3 274/274/3
f 277/277/4 280/280/4 279/279/4 278/278/4
f 281/281/5 284/284/5 283/283/5 282/282/5
f 285/285/3 288/288/3 287/287/3 286/286/3
f 289/289/4 292/292/4 291/291/4 290/290/4
f 293/293/5 296/296/5 295/295/5 294/294/5
f 297/297/3 300/300/3 299/299/3 298/298/3
f 301/301/4 304/304/4 303/303/4 302/302/4
f 305/305/5 308/308/5 307/307/5 306/306/5
f 309/309/3 312/312/3 311/311/3 310/310/3
f 313/313/4 316/316/4 315/315/4 314/314/4
f 317/317/5 320/320/5 319/319/5 318/318/5
f 321/321/1 324/324/1 323/323/1 322/322/1
f 325/325/2 328/328/2 327/327/2 326/326/2
f 329/329/3 332/332/3 331/331/3 330/330/3
f 333/333/4 336/336/4 335/335/4 334/334/4
f 337/337/1 340/340/1 339/339/1 338/338/1
f 341/341/2 344/344/2 343/343/2 342/342/2
f 345/345/3 348/348/3 347/347/3 346/346/3
f 349/349/4 352/352/4 351/351/4 350/350/4
f 353/353/1 356/356/1 355/355/1 354/354/1
f 357/357/2 360/360/2 359/359/2 358/358/2
f 361/361/3 364/364/3 363/363/3 362/362/3
f 365/365/4 368/368/4 367/367/4 366/366/4
f 369/369/1 372/372/1 371/371/1 370/370/1
f 373/373/2 376/376/2 375/375/2 374/374/2
f 377/377/3 380/380/3 379/379/3 378/378/3
f 381/381/4 384/384/4 383/383/4 382/382/4
f 385/385/1 388/388/1 387/387/1 386/386/1
f 389/389/2 392/392/2 391/391/2 390/390/2
f 393/393/3 396/396/3 395/395/3 394/394/3
f 397/397/4 400/400/4 399/399/4 398/398/4
f 401/401/1 404/404/1 403/403/1 402/402/1
f 405/405/2 408/408/2 407/407/2 406/406/2
f 409/409/3 412/412/3 411/411/3 410/410/3
f 413/413/4 416/416/4 415/415/4 414/414/4
f 417/417/5 420/420/5 419/419/5 418/418/5
f 421/421/6 424/424/6 423/423/6 422/422/6
f 425/425/1 428/428/1 427/427/1 426/426/1
f 429/429/2 432/432/2 431/431/2 430/430/2
f 433/433/3 436/436/3 435/435/3 434/434/3
f 437/437/4 440/440/4 439/439/4 438/438/4
f 441/441/5 444/444/5 443/443/5 442/442/5
f 445/445/6 448/448/6 447/447/6 446/446/6
f 449/449/1 452/452/1 451/451/1 450/450/1
f 453/453/2 456/456/2 455/455/2 454/454/2
f 457/457/3 460/460/3 459/459/3 458/458/3
f 461/461/4 464/464/4 463/463/4 462/462/4
f 465/465/5 468/468/5 467/467/5 466/466/5
f 469/469/6 472/472/6 471/471/6 470/470/6
f 473/473/1 476/476/1 475/475/1 474/474/1
f 477/477/2 480/480/2 479/479/2 478/478/2
f 481/481/3 484/484/3 483/483/3 482/482/3
f 485/485/4 488/488/4 487/487/4 486/486/4
f 489/489/5 492/492/5 491/491/5 490/490/5
f 493/493/1 496/496/1 495/495/1 494/494/1
f 497/497/2 500/500/2 499/499/2 498/498/2
f 501/501/3 504/504/3 503/503/3 502/502/3
f 505/505/4 508/508/4 507/507/4 506/506/4
f 509/509/5 512/512/5 511/511/5 510/510/5
f 513/513/1 516/516/1 515/515/1 514/514/1
f 517/517/3 520/520/3 519/519/3 518/518/3
f 521/521/4 524/524/4 523/523/4 522/522/4
f 525/525/5 528/528/5 527/527/5 526/526/5
f 529/529/6 532/532/6 531/531/6 530/530/6
f 533/533/1 536/536/1 535/535/1 534/534/1
f 537/537/2 540/540/2 539/539/2 538/538/2
f 541/541/3 544/544/3 543/543/3 542/542/3
f 545/545/4 548/548/4 547/547/4 546/546/4
f 549/549/1 552/552/1 551/551/1 550/550/1
f 553/553/2 556/556/2 555/555/2 554/554/2
f 557/557/3 560/560/3 559/559/3 558/558/3
f 561/561/4 564/564/4 563/563/4 562/562/4
f 565/565/1 568/568/1 567/567/1 566/566/1
f 569/569/2 572/572/2 571/571/2 570/570/2
f 573/573/3 576/576/3 575/575/3 574/574/3
f 577/577/4 580/580/4 579/579/4 578/578/4
f 581/581/1 584/584/1 583/583/1 582/582/1
f 585/585/2 588/588/2 587/587/2 586/586/2
f 589/589/3 592/592/3 591/591/3 590/590/3
f 593/593/4 596/596/4 595/595/4 594/594/4
f 597/597/1 600/600/1 599/599/1 598/598/1
f 601/601/2 604/604/2 603/603/2 602/602/2
f 605/605/3 608/608/3 607/607/3 606/606/3
f 609/609/4 612/612/4 611/611/4 610/610/4
f 613/613/1 616/616/1 615/615/1 614/614/1
f 617/617/2 620/620/2 619/619/2 618/618/2
f 621/621/3 624/624/3 623/623/3 622/622/3
f 625/625/4 628/628/4 627/627/4 626/626/4
f 629/629/5 632/632/5 631/631/5 630/630/5
f 633/633/6 636/636/6 635/635/6 634/634/6
f 989/637/5 990/640/5 991/639/5 992/638/5
f 641/641/1 644/644/1 643/643/1 642/642/1
f 645/645/2 648/648/2 647/647/2 646/646/2
f 649/649/3 652/652/3 651/651/3 650/650/3
f 653/653/4 656/656/4 655/655/4 654/654/4
f 993/657/5 994/660/5 995/659/5 996/658/5
f 661/661/3 664/664/3 663/663/3 662/662/3
f 665/665/4 668/668/4 667/667/4 666/666/4
f 669/669/5 672/672/5 671/671/5 670/670/5
f 673/673/6 676/676/6 675/675/6 674/674/6
f 677/677/3 680/680/3 679/679/3 678/678/3
f 681/681/4 684/684/4 683/683/4 682/682/4
o Tool
f 685/685/1 688/688/1 687/687/1 686/686/1
f 689/689/2 692/692/2 691/691/2 690/690/2
f 693/693/3 696/696/3 695/695/3 694/694/3
f 697/697/4 700/700/4 699/699/4 698/698/4
f 701/701/5 704/704/5 703/703/5 702/702/5
f 705/705/6 708/708/6 707/707/6 706/706/6
f 709/709/1 712/712/1 711/711/1 710/710/1
f 713/713/2 716/716/2 715/715/2 714/714/2
f 717/717/3 720/720/3 719/719/3 718/718/3
f 721/721/4 724/724/4 723/723/4 722/722/4
f 725/725/5 728/728/5 727/727/5 726/726/5
f 729/729/6 732/732/6 731/731/6 730/730/6
f 733/733/1 736/736/1 735/735/1 734/734/1
f 737/737/2 740/740/2 739/739/2 738/738/2
f 741/741/3 744/744/3 743/743/3 742/742/3
f 745/745/4 748/748/4 747/747/4 746/746/4
f 749/749/5 752/752/5 751/751/5 750/750/5
f 753/753/6 756/756/6 755/755/6 754/754/6
f 757/757/1 760/760/1 759/759/1 758/758/1
f 761/761/2 764/764/2 763/763/2 762/762/2
f 765/765/3 768/768/3 767/767/3 766/766/3
f 769/769/4 772/772/4 771/771/4 770/770/4
f 773/773/5 776/776/5 775/775/5 774/774/5
f 777/777/6 780/780/6 779/779/6 778/778/6
f 781/781/1 784/784/1 783/783/1 782/782/1
f 785/785/2 788/788/2 787/787/2 786/786/2
f 789/789/3 792/792/3 791/791/3 790/790/3
f 793/793/4 796/796/4 795/795/4 794/794/4
f 797/797/5 800/800/5 799/799/5 798/798/5
f 801/801/6 804/804/6 803/803/6 802/802/6
o Shaft
f 805/805/3 808/808/3 807/807/3 806/806/3
f 809/809/4 812/812/4 811/811/4 810/810/4
f 813/813/5 816/816/5 815/815/5 814/814/5
f 817/817/6 820/820/6 819/819/6 818/818/6
f 821/821/1 824/824/1 823/823/1 822/822/1
f 825/825/2 828/828/2 827/827/2 826/826/2
f 1021/829/3 1022/832/3 1023/831/3 1024/830/3
f 997/833/4 998/836/4 999/835/4 1000/834/4
f 1045/837/5 1046/840/5 1047/839/5 1048/838/5
f 1069/841/6 1070/844/6 1071/843/6 1072/842/6
f 845/845/1 848/848/1 847/847/1 846/846/1
f 849/849/2 852/852/2 851/851/2 850/850/2
f 1025/853/3 1026/856/3 1027/855/3 1028/854/3
f 1001/857/4 1002/860/4 1003/859/4 1004/858/4
f 1049/861/5 1050/864/5 1051/863/5 1052/862/5
f 1073/865/6 1074/868/6 1075/867/6 1076/866/6
f 869/869/1 872/872/1 871/871/1 870/870/1
f 873/873/2 876/876/2 875/875/2 874/874/2
f 1029/877/3 1030/880/3 1031/879/3 1032/878/3
f 1005/881/4 1006/884/4 1007/883/4 1008/882/4
f 1053/885/5 1054/888/5 1055/887/5 1056/886/5
f 1077/889/6 1078/892/6 1079/891/6 1080/890/6
f 893/893/1 896/896/1 895/895/1 894/894/1
f 897/897/2 900/900/2 899/899/2 898/898/2
f 1033/901/3 1034/904/3 1035/903/3 1036/902/3
f 1009/905/4 1010/908/4 1011/907/4 1012/906/4
f 1057/909/5 1058/912/5 1059/911/5 1060/910/5
f 1081/913/6 1082/916/6 1083/915/6 1084/914/6
f 917/917/1 920/920/1 919/919/1 918/918/1
f 921/921/2 924/924/2 923/923/2 922/922/2
f 1037/925/3 1038/928/3 1039/927/3 1040/926/3
f 1013/929/4 1014/932/4 1015/931/4 1016/930/4
f 1061/933/5 1062/936/5 1063/935/5 1064/934/5
f 1085/937/6 1086/940/6 1087/939/6 1088/938/6
f 941/941/1 944/944/1 943/943/1 942/942/1
f 945/945/2 948/948/2 947/947/2 946/946/2
f 1041/949/3 1042/952/3 1043/951/3 1044/950/3
f 1017/953/4 1018/956/4 1019/955/4 1020/954/4
f 1065/957/5 1066/960/5 1067/959/5 1068/958/5
f 1089/961/6 1090/964/6 1091/963/6 1092/962/6
o Rod
f 965/965/1 968/968/1 967/967/1 966/966/1
f 969/969/2 972/972/2 971/971/2 970/970/2
f 973/973/3 976/976/3 975/975/3 974/974/3
f 977/977/4 980/980/4 979/979/4 978/978/4
f 981/981/5 984/984/5 983/983/5 982/982/5
f 985/985/6 988/988/6 987/987/6 986/986/6
