# observatory generated by machinegen.py
mtllib observatory.mtl
v 1.500000 0.250000 -2.500000
v -1.500000 0.250000 -2.500000
v -1.500000 0.000000 -2.500000
v 1.500000 0.000000 -2.500000
v -1.500000 0.250000 2.500000
v 1.500000 0.250000 2.500000
v 1.500000 0.000000 2.500000
v -1.500000 0.000000 2.500000
v -1.500000 0.250000 -2.500000
v -1.500000 0.250000 2.500000
v -1.500000 0.000000 2.500000
v -1.500000 0.000000 -2.500000
v 1.500000 0.250000 2.500000
v 1.500000 0.250000 -2.500000
v 1.500000 0.000000 -2.500000
v 1.500000 0.000000 2.500000
v -1.500000 0.250000 -2.500000
v 1.500000 0.250000 -2.500000
v 1.500000 0.250000 2.500000
v -1.500000 0.250000 2.500000
v -1.500000 0.250000 -1.500000
v -2.500000 0.250000 -1.500000
v -2.500000 0.000000 -1.500000
v -1.500000 0.000000 -1.500000
v -2.500000 0.250000 1.500000
v -1.500000 0.250000 1.500000
v -1.500000 0.000000 1.500000
v -2.500000 0.000000 1.500000
v -2.500000 0.250000 -1.500000
v -2.500000 0.250000 1.500000
v -2.500000 0.000000 1.500000
v -2.500000 0.000000 -1.500000
v -2.500000 0.250000 -1.500000
v -1.500000 0.250000 -1.500000
v -1.500000 0.250000 1.500000
v -2.500000 0.250000 1.500000
v 2.500000 0.250000 -1.500000
v 1.500000 0.250000 -1.500000
v 1.500000 0.000000 -1.500000
v 2.500000 0.000000 -1.500000
v 1.500000 0.250000 1.500000
v 2.500000 0.250000 1.500000
v 2.500000 0.000000 1.500000
v 1.500000 0.000000 1.500000
v 2.500000 0.250000 1.500000
v 2.500000 0.250000 -1.500000
v 2.500000 0.000000 -1.500000
v 2.500000 0.000000 1.500000
v 1.500000 0.250000 -1.500000
v 2.500000 0.250000 -1.500000
v 2.500000 0.250000 1.500000
v 1.500000 0.250000 1.500000
v 1.375000 1.750000 -2.375000
v -1.375000 1.750000 -2.375000
v -1.375000 0.250000 -2.375000
v 1.375000 0.250000 -2.375000
v -1.375000 1.750000 2.375000
v 1.375000 1.750000 2.375000
v 1.375000 0.250000 2.375000
v -1.375000 0.250000 2.375000
v -1.375000 1.750000 -2.375000
v -1.375000 1.750000 2.375000
v -1.375000 0.250000 2.375000
v -1.375000 0.250000 -2.375000
v 1.375000 1.750000 2.375000
v 1.375000 1.750000 -2.375000
v 1.375000 0.250000 -2.375000
v 1.375000 0.250000 2.375000
v -1.375000 1.750000 -2.375000
v 1.375000 1.750000 -2.375000
v 1.375000 1.750000 2.375000
v -1.375000 1.750000 2.375000
v -1.375000 1.750000 -1.375000
v -2.375000 1.750000 -1.375000
v -2.375000 0.250000 -1.375000
v -1.375000 0.250000 -1.375000
v -2.375000 1.750000 1.375000
v -1.375000 1.750000 1.375000
v -1.375000 0.250000 1.375000
v -2.375000 0.250000 1.375000
v -2.375000 1.750000 -1.375000
v -2.375000 1.750000 1.375000
v -2.375000 0.250000 1.375000
v -2.375000 0.250000 -1.375000
v -2.375000 1.750000 -1.375000
v -1.375000 1.750000 -1.375000
v -1.375000 1.750000 1.375000
v -2.375000 1.750000 1.375000
v 2.375000 1.750000 -1.375000
v 1.375000 1.750000 -1.375000
v 1.375000 0.250000 -1.375000
v 2.375000 0.250000 -1.375000
v 1.375000 1.750000 1.375000
v 2.375000 1.750000 1.375000
v 2.375000 0.250000 1.375000
v 1.375000 0.250000 1.375000
v 2.375000 1.750000 1.375000
v 2.375000 1.750000 -1.375000
v 2.375000 0.250000 -1.375000
v 2.375000 0.250000 1.375000
v 1.375000 1.750000 -1.375000
v 2.375000 1.750000 -1.375000
v 2.375000 1.750000 1.375000
v 1.375000 1.750000 1.375000
v -1.250000 1.750000 -2.500000
v -1.500000 1.750000 -2.500000
v -1.500000 0.250000 -2.500000
v -1.250000 0.250000 -2.500000
v -1.500000 1.750000 -2.250000
v -1.250000 1.750000 -2.250000
v -1.250000 0.250000 -2.250000
v -1.500000 0.250000 -2.250000
v -1.500000 1.750000 -2.500000
v -1.500000 1.750000 -2.250000
v -1.500000 0.250000 -2.250000
v -1.500000 0.250000 -2.500000
v -1.250000 1.750000 -2.250000
v -1.250000 1.750000 -2.500000
v -1.250000 0.250000 -2.500000
v -1.250000 0.250000 -2.250000
v 1.500000 1.750000 -2.500000
v 1.250000 1.750000 -2.500000
v 1.250000 0.250000 -2.500000
v 1.500000 0.250000 -2.500000
v 1.250000 1.750000 -2.250000
v 1.500000 1.750000 -2.250000
v 1.500000 0.250000 -2.250000
v 1.250000 0.250000 -2.250000
v 1.250000 1.750000 -2.500000
v 1.250000 1.750000 -2.250000
v 1.250000 0.250000 -2.250000
v 1.250000 0.250000 -2.500000
v 1.500000 1.750000 -2.250000
v 1.500000 1.750000 -2.500000
v 1.500000 0.250000 -2.500000
v 1.500000 0.250000 -2.250000
v -1.250000 1.750000 2.250000
v -1.500000 1.750000 2.250000
v -1.500000 0.250000 2.250000
v -1.250000 0.250000 2.250000
v -1.500000 1.750000 2.500000
v -1.250000 1.750000 2.500000
v -1.250000 0.250000 2.500000
v -1.500000 0.250000 2.500000
v -1.500000 1.750000 2.250000
v -1.500000 1.750000 2.500000
v -1.500000 0.250000 2.500000
v -1.500000 0.250000 2.250000
v -1.250000 1.750000 2.500000
v -1.250000 1.750000 2.250000
v -1.250000 0.250000 2.250000
v -1.250000 0.250000 2.500000
v 1.500000 1.750000 2.250000
v 1.250000 1.750000 2.250000
v 1.250000 0.250000 2.250000
v 1.500000 0.250000 2.250000
v 1.250000 1.750000 2.500000
v 1.500000 1.750000 2.500000
v 1.500000 0.250000 2.500000
v 1.250000 0.250000 2.500000
v 1.250000 1.750000 2.250000
v 1.250000 1.750000 2.500000
v 1.250000 0.250000 2.500000
v 1.250000 0.250000 2.250000
v 1.500000 1.750000 2.500000
v 1.500000 1.750000 2.250000
v 1.500000 0.250000 2.250000
v 1.500000 0.250000 2.500000
v -2.250000 1.750000 -1.500000
v -2.500000 1.750000 -1.500000
v -2.500000 0.250000 -1.500000
v -2.250000 0.250000 -1.500000
v -2.500000 1.750000 -1.250000
v -2.250000 1.750000 -1.250000
v -2.250000 0.250000 -1.250000
v -2.500000 0.250000 -1.250000
v -2.500000 1.750000 -1.500000
v -2.500000 1.750000 -1.250000
v -2.500000 0.250000 -1.250000
v -2.500000 0.250000 -1.500000
v -2.250000 1.750000 -1.250000
v -2.250000 1.750000 -1.500000
v -2.250000 0.250000 -1.500000
v -2.250000 0.250000 -1.250000
v -2.250000 1.750000 1.250000
v -2.500000 1.750000 1.250000
v -2.500000 0.250000 1.250000
v -2.250000 0.250000 1.250000
v -2.500000 1.750000 1.500000
v -2.250000 1.750000 1.500000
v -2.250000 0.250000 1.500000
v -2.500000 0.250000 1.500000
v -2.500000 1.750000 1.250000
v -2.500000 1.750000 1.500000
v -2.500000 0.250000 1.500000
v -2.500000 0.250000 1.250000
v -2.250000 1.750000 1.500000
v -2.250000 1.750000 1.250000
v -2.250000 0.250000 1.250000
v -2.250000 0.250000 1.500000
v 2.500000 1.750000 -1.500000
v 2.250000 1.750000 -1.500000
v 2.250000 0.250000 -1.500000
v 2.500000 0.250000 -1.500000
v 2.250000 1.750000 -1.250000
v 2.500000 1.750000 -1.250000
v 2.500000 0.250000 -1.250000
v 2.250000 0.250000 -1.250000
v 2.250000 1.750000 -1.500000
v 2.250000 1.750000 -1.250000
v 2.250000 0.250000 -1.250000
v 2.250000 0.250000 -1.500000
v 2.500000 1.750000 -1.250000
v 2.500000 1.750000 -1.500000
v 2.500000 0.250000 -1.500000
v 2.500000 0.250000 -1.250000
v 2.500000 1.750000 1.250000
v 2.250000 1.750000 1.250000
v 2.250000 0.250000 1.250000
v 2.500000 0.250000 1.250000
v 2.250000 1.750000 1.500000
v 2.500000 1.750000 1.500000
v 2.500000 0.250000 1.500000
v 2.250000 0.250000 1.500000
v 2.250000 1.750000 1.250000
v 2.250000 1.750000 1.500000
v 2.250000 0.250000 1.500000
v 2.250000 0.250000 1.250000
v 2.500000 1.750000 1.500000
v 2.500000 1.750000 1.250000
v 2.500000 0.250000 1.250000
v 2.500000 0.250000 1.500000
v -1.375000 1.750000 -1.625000
v -1.625000 1.750000 -1.625000
v -1.625000 0.250000 -1.625000
v -1.375000 0.250000 -1.625000
v -1.625000 1.750000 -1.375000
v -1.375000 1.750000 -1.375000
v -1.375000 0.250000 -1.375000
v -1.625000 0.250000 -1.375000
v -1.625000 1.750000 -1.625000
v -1.625000 1.750000 -1.375000
v -1.625000 0.250000 -1.375000
v -1.625000 0.250000 -1.625000
v -1.375000 1.750000 -1.375000
v -1.375000 1.750000 -1.625000
v -1.375000 0.250000 -1.625000
v -1.375000 0.250000 -1.375000
v 1.625000 1.750000 -1.625000
v 1.375000 1.750000 -1.625000
v 1.375000 0.250000 -1.625000
v 1.625000 0.250000 -1.625000
v 1.375000 1.750000 -1.375000
v 1.625000 1.750000 -1.375000
v 1.625000 0.250000 -1.375000
v 1.375000 0.250000 -1.375000
v 1.375000 1.750000 -1.625000
v 1.375000 1.750000 -1.375000
v 1.375000 0.250000 -1.375000
v 1.375000 0.250000 -1.625000
v 1.625000 1.750000 -1.375000
v 1.625000 1.750000 -1.625000
v 1.625000 0.250000 -1.625000
v 1.625000 0.250000 -1.375000
v -1.375000 1.750000 1.375000
v -1.625000 1.750000 1.375000
v -1.625000 0.250000 1.375000
v -1.375000 0.250000 1.375000
v -1.625000 1.750000 1.625000
v -1.375000 1.750000 1.625000
v -1.375000 0.250000 1.625000
v -1.625000 0.250000 1.625000
v -1.625000 1.750000 1.375000
v -1.625000 1.750000 1.625000
v -1.625000 0.250000 1.625000
v -1.625000 0.250000 1.375000
v -1.375000 1.750000 1.625000
v -1.375000 1.750000 1.375000
v -1.375000 0.250000 1.375000
v -1.375000 0.250000 1.625000
v 1.625000 1.750000 1.375000
v 1.375000 1.750000 1.375000
v 1.375000 0.250000 1.375000
v 1.625000 0.250000 1.375000
v 1.375000 1.750000 1.625000
v 1.625000 1.750000 1.625000
v 1.625000 0.250000 1.625000
v 1.375000 0.250000 1.625000
v 1.375000 1.750000 1.375000
v 1.375000 1.750000 1.625000
v 1.375000 0.250000 1.625000
v 1.375000 0.250000 1.375000
v 1.625000 1.750000 1.625000
v 1.625000 1.750000 1.375000
v 1.625000 0.250000 1.375000
v 1.625000 0.250000 1.625000
v 1.250000 1.750000 -2.437500
v -1.250000 1.750000 -2.437500
v -1.250000 1.562500 -2.437500
v 1.250000 1.562500 -2.437500
v -1.250000 1.750000 -2.437500
v -1.250000 1.750000 -2.375000
v -1.250000 1.562500 -2.375000
v -1.250000 1.562500 -2.437500
v 1.250000 1.750000 -2.375000
v 1.250000 1.750000 -2.437500
v 1.250000 1.562500 -2.437500
v 1.250000 1.562500 -2.375000
v -1.250000 1.750000 -2.437500
v 1.250000 1.750000 -2.437500
v 1.250000 1.750000 -2.375000
v -1.250000 1.750000 -2.375000
v -1.250000 1.750000 2.437500
v 1.250000 1.750000 2.437500
v 1.250000 1.562500 2.437500
v -1.250000 1.562500 2.437500
v -1.250000 1.750000 2.375000
v -1.250000 1.750000 2.437500
v -1.250000 1.562500 2.437500
v -1.250000 1.562500 2.375000
v 1.250000 1.750000 2.437500
v 1.250000 1.750000 2.375000
v 1.250000 1.562500 2.375000
v 1.250000 1.562500 2.437500
v -1.250000 1.750000 2.375000
v 1.250000 1.750000 2.375000
v 1.250000 1.750000 2.437500
v -1.250000 1.750000 2.437500
v 1.000000 1.312500 -2.406250
v -1.000000 1.312500 -2.406250
v -1.000000 0.562500 -2.406250
v 1.000000 0.562500 -2.406250
v -1.000000 1.312500 -2.406250
v -1.000000 1.312500 -2.375000
v -1.000000 0.562500 -2.375000
v -1.000000 0.562500 -2.406250
v 1.000000 1.312500 -2.375000
v 1.000000 1.312500 -2.406250
v 1.000000 0.562500 -2.406250
v 1.000000 0.562500 -2.375000
v -1.000000 1.312500 2.406250
v 1.000000 1.312500 2.406250
v 1.000000 0.562500 2.406250
v -1.000000 0.562500 2.406250
v -1.000000 1.312500 2.375000
v -1.000000 1.312500 2.406250
v -1.000000 0.562500 2.406250
v -1.000000 0.562500 2.375000
v 1.000000 1.312500 2.406250
v 1.000000 1.312500 2.375000
v 1.000000 0.562500 2.375000
v 1.000000 0.562500 2.406250
v 2.406250 1.312500 -0.875000
v 2.375000 1.312500 -0.875000
v 2.375000 0.562500 -0.875000
v 2.406250 0.562500 -0.875000
v 2.375000 1.312500 0.875000
v 2.406250 1.312500 0.875000
v 2.406250 0.562500 0.875000
v 2.375000 0.562500 0.875000
v 2.406250 1.312500 0.875000
v 2.406250 1.312500 -0.875000
v 2.406250 0.562500 -0.875000
v 2.406250 0.562500 0.875000
v -2.375000 1.500000 -0.500000
v -2.437500 1.500000 -0.500000
v -2.437500 0.625000 -0.500000
v -2.375000 0.625000 -0.500000
v -2.437500 1.500000 0.500000
v -2.375000 1.500000 0.500000
v -2.375000 0.625000 0.500000
v -2.437500 0.625000 0.500000
v -2.437500 1.500000 -0.500000
v -2.437500 1.500000 0.500000
v -2.437500 0.625000 0.500000
v -2.437500 0.625000 -0.500000
v -2.437500 1.500000 -0.500000
v -2.375000 1.500000 -0.500000
v -2.375000 1.500000 0.500000
v -2.437500 1.500000 0.500000
v -2.437500 0.625000 0.500000
v -2.375000 0.625000 0.500000
v -2.375000 0.625000 -0.500000
v -2.437500 0.625000 -0.500000
v -2.375000 1.562500 0.750000
v -2.437500 1.562500 0.750000
v -2.437500 1.375000 0.750000
v -2.375000 1.375000 0.750000
v -2.437500 1.562500 0.937500
v -2.375000 1.562500 0.937500
v -2.375000 1.375000 0.937500
v -2.437500 1.375000 0.937500
v -2.437500 1.562500 0.750000
v -2.437500 1.562500 0.937500
v -2.437500 1.375000 0.937500
v -2.437500 1.375000 0.750000
v -2.437500 1.562500 0.750000
v -2.375000 1.562500 0.750000
v -2.375000 1.562500 0.937500
v -2.437500 1.562500 0.937500
v -2.437500 1.375000 0.937500
v -2.375000 1.375000 0.937500
v -2.375000 1.375000 0.750000
v -2.437500 1.375000 0.750000
v -2.375000 1.562500 -0.937500
v -2.437500 1.562500 -0.937500
v -2.437500 1.375000 -0.937500
v -2.375000 1.375000 -0.937500
v -2.437500 1.562500 -0.750000
v -2.375000 1.562500 -0.750000
v -2.375000 1.375000 -0.750000
v -2.437500 1.375000 -0.750000
v -2.437500 1.562500 -0.937500
v -2.437500 1.562500 -0.750000
v -2.437500 1.375000 -0.750000
v -2.437500 1.375000 -0.937500
v -2.437500 1.562500 -0.937500
v -2.375000 1.562500 -0.937500
v -2.375000 1.562500 -0.750000
v -2.437500 1.562500 -0.750000
v -2.437500 1.375000 -0.750000
v -2.375000 1.375000 -0.750000
v -2.375000 1.375000 -0.937500
v -2.437500 1.375000 -0.937500
v 1.375000 3.500000 -2.375000
v -1.375000 3.500000 -2.375000
v -1.375000 1.750000 -2.375000
v 1.375000 1.750000 -2.375000
v -1.375000 3.500000 0.000000
v 1.375000 3.500000 0.000000
v 1.375000 1.750000 0.000000
v -1.375000 1.750000 0.000000
v -1.375000 3.500000 -2.375000
v -1.375000 3.500000 0.000000
v -1.375000 1.750000 0.000000
v -1.375000 1.750000 -2.375000
v 1.375000 3.500000 0.000000
v 1.375000 3.500000 -2.375000
v 1.375000 1.750000 -2.375000
v 1.375000 1.750000 0.000000
v -1.375000 3.500000 -1.375000
v -2.375000 3.500000 -1.375000
v -2.375000 1.750000 -1.375000
v -1.375000 1.750000 -1.375000
v -2.375000 3.500000 0.000000
v -1.375000 3.500000 0.000000
v -1.375000 1.750000 0.000000
v -2.375000 1.750000 0.000000
v -2.375000 3.500000 -1.375000
v -2.375000 3.500000 0.000000
v -2.375000 1.750000 0.000000
v -2.375000 1.750000 -1.375000
v 2.375000 3.500000 -1.375000
v 1.375000 3.500000 -1.375000
v 1.375000 1.750000 -1.375000
v 2.375000 1.750000 -1.375000
v 1.375000 3.500000 0.000000
v 2.375000 3.500000 0.000000
v 2.375000 1.750000 0.000000
v 1.375000 1.750000 0.000000
v 2.375000 3.500000 0.000000
v 2.375000 3.500000 -1.375000
v 2.375000 1.750000 -1.375000
v 2.375000 1.750000 0.000000
v -1.250000 3.500000 -2.500000
v -1.500000 3.500000 -2.500000
v -1.500000 1.750000 -2.500000
v -1.250000 1.750000 -2.500000
v -1.500000 3.500000 -2.250000
v -1.250000 3.500000 -2.250000
v -1.250000 1.750000 -2.250000
v -1.500000 1.750000 -2.250000
v -1.500000 3.500000 -2.500000
v -1.500000 3.500000 -2.250000
v -1.500000 1.750000 -2.250000
v -1.500000 1.750000 -2.500000
v -1.250000 3.500000 -2.250000
v -1.250000 3.500000 -2.500000
v -1.250000 1.750000 -2.500000
v -1.250000 1.750000 -2.250000
v 1.500000 3.500000 -2.500000
v 1.250000 3.500000 -2.500000
v 1.250000 1.750000 -2.500000
v 1.500000 1.750000 -2.500000
v 1.250000 3.500000 -2.250000
v 1.500000 3.500000 -2.250000
v 1.500000 1.750000 -2.250000
v 1.250000 1.750000 -2.250000
v 1.250000 3.500000 -2.500000
v 1.250000 3.500000 -2.250000
v 1.250000 1.750000 -2.250000
v 1.250000 1.750000 -2.500000
v 1.500000 3.500000 -2.250000
v 1.500000 3.500000 -2.500000
v 1.500000 1.750000 -2.500000
v 1.500000 1.750000 -2.250000
v -2.250000 3.500000 -1.500000
v -2.500000 3.500000 -1.500000
v -2.500000 1.750000 -1.500000
v -2.250000 1.750000 -1.500000
v -2.500000 3.500000 -1.250000
v -2.250000 3.500000 -1.250000
v -2.250000 1.750000 -1.250000
v -2.500000 1.750000 -1.250000
v -2.500000 3.500000 -1.500000
v -2.500000 3.500000 -1.250000
v -2.500000 1.750000 -1.250000
v -2.500000 1.750000 -1.500000
v -2.250000 3.500000 -1.250000
v -2.250000 3.500000 -1.500000
v -2.250000 1.750000 -1.500000
v -2.250000 1.750000 -1.250000
v 2.500000 3.500000 -1.500000
v 2.250000 3.500000 -1.500000
v 2.250000 1.750000 -1.500000
v 2.500000 1.750000 -1.500000
v 2.250000 3.500000 -1.250000
v 2.500000 3.500000 -1.250000
v 2.500000 1.750000 -1.250000
v 2.250000 1.750000 -1.250000
v 2.250000 3.500000 -1.500000
v 2.250000 3.500000 -1.250000
v 2.250000 1.750000 -1.250000
v 2.250000 1.750000 -1.500000
v 2.500000 3.500000 -1.250000
v 2.500000 3.500000 -1.500000
v 2.500000 1.750000 -1.500000
v 2.500000 1.750000 -1.250000
v -1.375000 3.500000 -1.625000
v -1.625000 3.500000 -1.625000
v -1.625000 1.750000 -1.625000
v -1.375000 1.750000 -1.625000
v -1.625000 3.500000 -1.375000
v -1.375000 3.500000 -1.375000
v -1.375000 1.750000 -1.375000
v -1.625000 1.750000 -1.375000
v -1.625000 3.500000 -1.625000
v -1.625000 3.500000 -1.375000
v -1.625000 1.750000 -1.375000
v -1.625000 1.750000 -1.625000
v -1.375000 3.500000 -1.375000
v -1.375000 3.500000 -1.625000
v -1.375000 1.750000 -1.625000
v -1.375000 1.750000 -1.375000
v 1.625000 3.500000 -1.625000
v 1.375000 3.500000 -1.625000
v 1.375000 1.750000 -1.625000
v 1.625000 1.750000 -1.625000
v 1.375000 3.500000 -1.375000
v 1.625000 3.500000 -1.375000
v 1.625000 1.750000 -1.375000
v 1.375000 1.750000 -1.375000
v 1.375000 3.500000 -1.625000
v 1.375000 3.500000 -1.375000
v 1.375000 1.750000 -1.375000
v 1.375000 1.750000 -1.625000
v 1.625000 3.500000 -1.375000
v 1.625000 3.500000 -1.625000
v 1.625000 1.750000 -1.625000
v 1.625000 1.750000 -1.375000
v -2.375000 3.500000 -0.187500
v -2.500000 3.500000 -0.187500
v -2.500000 1.750000 -0.187500
v -2.375000 1.750000 -0.187500
v -2.500000 3.500000 0.000000
v -2.375000 3.500000 0.000000
v -2.375000 1.750000 0.000000
v -2.500000 1.750000 0.000000
v -2.500000 3.500000 -0.187500
v -2.500000 3.500000 0.000000
v -2.500000 1.750000 0.000000
v -2.500000 1.750000 -0.187500
v -2.375000 3.500000 0.000000
v -2.375000 3.500000 -0.187500
v -2.375000 1.750000 -0.187500
v -2.375000 1.750000 0.000000
v 2.500000 3.500000 -0.187500
v 2.375000 3.500000 -0.187500
v 2.375000 1.750000 -0.187500
v 2.500000 1.750000 -0.187500
v 2.375000 3.500000 0.000000
v 2.500000 3.500000 0.000000
v 2.500000 1.750000 0.000000
v 2.375000 1.750000 0.000000
v 2.375000 3.500000 -0.187500
v 2.375000 3.500000 0.000000
v 2.375000 1.750000 0.000000
v 2.375000 1.750000 -0.187500
v 2.500000 3.500000 0.000000
v 2.500000 3.500000 -0.187500
v 2.500000 1.750000 -0.187500
v 2.500000 1.750000 0.000000
v 1.500000 3.750000 -2.500000
v -1.500000 3.750000 -2.500000
v -1.500000 3.500000 -2.500000
v 1.500000 3.500000 -2.500000
v -1.500000 3.750000 0.000000
v 1.500000 3.750000 0.000000
v 1.500000 3.500000 0.000000
v -1.500000 3.500000 0.000000
v -1.500000 3.750000 -2.500000
v -1.500000 3.750000 0.000000
v -1.500000 3.500000 0.000000
v -1.500000 3.500000 -2.500000
v 1.500000 3.750000 0.000000
v 1.500000 3.750000 -2.500000
v 1.500000 3.500000 -2.500000
v 1.500000 3.500000 0.000000
v -1.500000 3.750000 -2.500000
v 1.500000 3.750000 -2.500000
v 1.500000 3.750000 0.000000
v -1.500000 3.750000 0.000000
v -1.500000 3.500000 0.000000
v 1.500000 3.500000 0.000000
v 1.500000 3.500000 -2.500000
v -1.500000 3.500000 -2.500000
v -1.500000 3.750000 -1.500000
v -2.500000 3.750000 -1.500000
v -2.500000 3.500000 -1.500000
v -1.500000 3.500000 -1.500000
v -2.500000 3.750000 0.000000
v -1.500000 3.750000 0.000000
v -1.500000 3.500000 0.000000
v -2.500000 3.500000 0.000000
v -2.500000 3.750000 -1.500000
v -2.500000 3.750000 0.000000
v -2.500000 3.500000 0.000000
v -2.500000 3.500000 -1.500000
v -2.500000 3.750000 -1.500000
v -1.500000 3.750000 -1.500000
v -1.500000 3.750000 0.000000
v -2.500000 3.750000 0.000000
v -2.500000 3.500000 0.000000
v -1.500000 3.500000 0.000000
v -1.500000 3.500000 -1.500000
v -2.500000 3.500000 -1.500000
v 2.500000 3.750000 -1.500000
v 1.500000 3.750000 -1.500000
v 1.500000 3.500000 -1.500000
v 2.500000 3.500000 -1.500000
v 1.500000 3.750000 0.000000
v 2.500000 3.750000 0.000000
v 2.500000 3.500000 0.000000
v 1.500000 3.500000 0.000000
v 2.500000 3.750000 0.000000
v 2.500000 3.750000 -1.500000
v 2.500000 3.500000 -1.500000
v 2.500000 3.500000 0.000000
v 1.500000 3.750000 -1.500000
v 2.500000 3.750000 -1.500000
v 2.500000 3.750000 0.000000
v 1.500000 3.750000 0.000000
v 1.500000 3.500000 0.000000
v 2.500000 3.500000 0.000000
v 2.500000 3.500000 -1.500000
v 1.500000 3.500000 -1.500000
v 1.250000 4.250000 -2.000000
v -1.250000 4.250000 -2.000000
v -1.250000 3.750000 -2.000000
v 1.250000 3.750000 -2.000000
v -1.250000 4.250000 0.000000
v 1.250000 4.250000 0.000000
v 1.250000 3.750000 0.000000
v -1.250000 3.750000 0.000000
v -1.250000 4.250000 -2.000000
v -1.250000 4.250000 0.000000
v -1.250000 3.750000 0.000000
v -1.250000 3.750000 -2.000000
v 1.250000 4.250000 0.000000
v 1.250000 4.250000 -2.000000
v 1.250000 3.750000 -2.000000
v 1.250000 3.750000 0.000000
v -1.250000 4.250000 -2.000000
v 1.250000 4.250000 -2.000000
v 1.250000 4.250000 0.000000
v -1.250000 4.250000 0.000000
v -1.250000 4.250000 -1.250000
v -2.000000 4.250000 -1.250000
v -2.000000 3.750000 -1.250000
v -1.250000 3.750000 -1.250000
v -2.000000 4.250000 0.000000
v -1.250000 4.250000 0.000000
v -1.250000 3.750000 0.000000
v -2.000000 3.750000 0.000000
v -2.000000 4.250000 -1.250000
v -2.000000 4.250000 0.000000
v -2.000000 3.750000 0.000000
v -2.000000 3.750000 -1.250000
v -2.000000 4.250000 -1.250000
v -1.250000 4.250000 -1.250000
v -1.250000 4.250000 0.000000
v -2.000000 4.250000 0.000000
v 2.000000 4.250000 -1.250000
v 1.250000 4.250000 -1.250000
v 1.250000 3.750000 -1.250000
v 2.000000 3.750000 -1.250000
v 1.250000 4.250000 0.000000
v 2.000000 4.250000 0.000000
v 2.000000 3.750000 0.000000
v 1.250000 3.750000 0.000000
v 2.000000 4.250000 0.000000
v 2.000000 4.250000 -1.250000
v 2.000000 3.750000 -1.250000
v 2.000000 3.750000 0.000000
v 1.250000 4.250000 -1.250000
v 2.000000 4.250000 -1.250000
v 2.000000 4.250000 0.000000
v 1.250000 4.250000 0.000000
v 1.750000 4.750000 -1.250000
v -1.750000 4.750000 -1.250000
v -1.750000 4.250000 -1.250000
v 1.750000 4.250000 -1.250000
v -1.750000 4.750000 0.000000
v 1.750000 4.750000 0.000000
v 1.750000 4.250000 0.000000
v -1.750000 4.250000 0.000000
v -1.750000 4.750000 -1.250000
v -1.750000 4.750000 0.000000
v -1.750000 4.250000 0.000000
v -1.750000 4.250000 -1.250000
v 1.750000 4.750000 0.000000
v 1.750000 4.750000 -1.250000
v 1.750000 4.250000 -1.250000
v 1.750000 4.250000 0.000000
v -1.750000 4.750000 -1.250000
v 1.750000 4.750000 -1.250000
v 1.750000 4.750000 0.000000
v -1.750000 4.750000 0.000000
v 1.000000 5.000000 -0.750000
v -1.000000 5.000000 -0.750000
v -1.000000 4.750000 -0.750000
v 1.000000 4.750000 -0.750000
v -1.000000 5.000000 0.000000
v 1.000000 5.000000 0.000000
v 1.000000 4.750000 0.000000
v -1.000000 4.750000 0.000000
v -1.000000 5.000000 -0.750000
v -1.000000 5.000000 0.000000
v -1.000000 4.750000 0.000000
v -1.000000 4.750000 -0.750000
v 1.000000 5.000000 0.000000
v 1.000000 5.000000 -0.750000
v 1.000000 4.750000 -0.750000
v 1.000000 4.750000 0.000000
v -1.000000 5.000000 -0.750000
v 1.000000 5.000000 -0.750000
v 1.000000 5.000000 0.000000
v -1.000000 5.000000 0.000000
v 0.750000 4.281250 -1.875000
v -0.750000 4.281250 -1.875000
v -0.750000 4.250000 -1.875000
v 0.750000 4.250000 -1.875000
v -0.750000 4.281250 -1.500000
v 0.750000 4.281250 -1.500000
v 0.750000 4.250000 -1.500000
v -0.750000 4.250000 -1.500000
v -0.750000 4.281250 -1.875000
v -0.750000 4.281250 -1.500000
v -0.750000 4.250000 -1.500000
v -0.750000 4.250000 -1.875000
v 0.750000 4.281250 -1.500000
v 0.750000 4.281250 -1.875000
v 0.750000 4.250000 -1.875000
v 0.750000 4.250000 -1.500000
v -0.750000 4.281250 -1.875000
v 0.750000 4.281250 -1.875000
v 0.750000 4.281250 -1.500000
v -0.750000 4.281250 -1.500000
v 0.187500 4.125000 -2.031250
v -0.187500 4.125000 -2.031250
v -0.187500 4.000000 -2.031250
v 0.187500 4.000000 -2.031250
v -0.187500 4.125000 -2.031250
v -0.187500 4.125000 -1.968750
v -0.187500 4.000000 -1.968750
v -0.187500 4.000000 -2.031250
v 0.187500 4.125000 -1.968750
v 0.187500 4.125000 -2.031250
v 0.187500 4.000000 -2.031250
v 0.187500 4.000000 -1.968750
v -0.187500 4.125000 -2.031250
v 0.187500 4.125000 -2.031250
v 0.187500 4.125000 -1.968750
v -0.187500 4.125000 -1.968750
v -0.187500 4.000000 -1.968750
v 0.187500 4.000000 -1.968750
v 0.187500 4.000000 -2.031250
v -0.187500 4.000000 -2.031250
v 1.375000 3.500000 0.000000
v -1.375000 3.500000 0.000000
v -1.375000 1.750000 0.000000
v 1.375000 1.750000 0.000000
v -1.375000 3.500000 2.375000
v 1.375000 3.500000 2.375000
v 1.375000 1.750000 2.375000
v -1.375000 1.750000 2.375000
v -1.375000 3.500000 0.000000
v -1.375000 3.500000 2.375000
v -1.375000 1.750000 2.375000
v -1.375000 1.750000 0.000000
v 1.375000 3.500000 2.375000
v 1.375000 3.500000 0.000000
v 1.375000 1.750000 0.000000
v 1.375000 1.750000 2.375000
v -1.375000 3.500000 0.000000
v -2.375000 3.500000 0.000000
v -2.375000 1.750000 0.000000
v -1.375000 1.750000 0.000000
v -2.375000 3.500000 1.375000
v -1.375000 3.500000 1.375000
v -1.375000 1.750000 1.375000
v -2.375000 1.750000 1.375000
v -2.375000 3.500000 0.000000
v -2.375000 3.500000 1.375000
v -2.375000 1.750000 1.375000
v -2.375000 1.750000 0.000000
v 2.375000 3.500000 0.000000
v 1.375000 3.500000 0.000000
v 1.375000 1.750000 0.000000
v 2.375000 1.750000 0.000000
v 1.375000 3.500000 1.375000
v 2.375000 3.500000 1.375000
v 2.375000 1.750000 1.375000
v 1.375000 1.750000 1.375000
v 2.375000 3.500000 1.375000
v 2.375000 3.500000 0.000000
v 2.375000 1.750000 0.000000
v 2.375000 1.750000 1.375000
v -1.250000 3.500000 2.250000
v -1.500000 3.500000 2.250000
v -1.500000 1.750000 2.250000
v -1.250000 1.750000 2.250000
v -1.500000 3.500000 2.500000
v -1.250000 3.500000 2.500000
v -1.250000 1.750000 2.500000
v -1.500000 1.750000 2.500000
v -1.500000 3.500000 2.250000
v -1.500000 3.500000 2.500000
v -1.500000 1.750000 2.500000
v -1.500000 1.750000 2.250000
v -1.250000 3.500000 2.500000
v -1.250000 3.500000 2.250000
v -1.250000 1.750000 2.250000
v -1.250000 1.750000 2.500000
v 1.500000 3.500000 2.250000
v 1.250000 3.500000 2.250000
v 1.250000 1.750000 2.250000
v 1.500000 1.750000 2.250000
v 1.250000 3.500000 2.500000
v 1.500000 3.500000 2.500000
v 1.500000 1.750000 2.500000
v 1.250000 1.750000 2.500000
v 1.250000 3.500000 2.250000
v 1.250000 3.500000 2.500000
v 1.250000 1.750000 2.500000
v 1.250000 1.750000 2.250000
v 1.500000 3.500000 2.500000
v 1.500000 3.500000 2.250000
v 1.500000 1.750000 2.250000
v 1.500000 1.750000 2.500000
v -2.250000 3.500000 1.250000
v -2.500000 3.500000 1.250000
v -2.500000 1.750000 1.250000
v -2.250000 1.750000 1.250000
v -2.500000 3.500000 1.500000
v -2.250000 3.500000 1.500000
v -2.250000 1.750000 1.500000
v -2.500000 1.750000 1.500000
v -2.500000 3.500000 1.250000
v -2.500000 3.500000 1.500000
v -2.500000 1.750000 1.500000
v -2.500000 1.750000 1.250000
v -2.250000 3.500000 1.500000
v -2.250000 3.500000 1.250000
v -2.250000 1.750000 1.250000
v -2.250000 1.750000 1.500000
v 2.500000 3.500000 1.250000
v 2.250000 3.500000 1.250000
v 2.250000 1.750000 1.250000
v 2.500000 1.750000 1.250000
v 2.250000 3.500000 1.500000
v 2.500000 3.500000 1.500000
v 2.500000 1.750000 1.500000
v 2.250000 1.750000 1.500000
v 2.250000 3.500000 1.250000
v 2.250000 3.500000 1.500000
v 2.250000 1.750000 1.500000
v 2.250000 1.750000 1.250000
v 2.500000 3.500000 1.500000
v 2.500000 3.500000 1.250000
v 2.500000 1.750000 1.250000
v 2.500000 1.750000 1.500000
v -1.375000 3.500000 1.375000
v -1.625000 3.500000 1.375000
v -1.625000 1.750000 1.375000
v -1.375000 1.750000 1.375000
v -1.625000 3.500000 1.625000
v -1.375000 3.500000 1.625000
v -1.375000 1.750000 1.625000
v -1.625000 1.750000 1.625000
v -1.625000 3.500000 1.375000
v -1.625000 3.500000 1.625000
v -1.625000 1.750000 1.625000
v -1.625000 1.750000 1.375000
v -1.375000 3.500000 1.625000
v -1.375000 3.500000 1.375000
v -1.375000 1.750000 1.375000
v -1.375000 1.750000 1.625000
v 1.625000 3.500000 1.375000
v 1.375000 3.500000 1.375000
v 1.375000 1.750000 1.375000
v 1.625000 1.750000 1.375000
v 1.375000 3.500000 1.625000
v 1.625000 3.500000 1.625000
v 1.625000 1.750000 1.625000
v 1.375000 1.750000 1.625000
v 1.375000 3.500000 1.375000
v 1.375000 3.500000 1.625000
v 1.375000 1.750000 1.625000
v 1.375000 1.750000 1.375000
v 1.625000 3.500000 1.625000
v 1.625000 3.500000 1.375000
v 1.625000 1.750000 1.375000
v 1.625000 1.750000 1.625000
v -2.375000 3.500000 0.000000
v -2.500000 3.500000 0.000000
v -2.500000 1.750000 0.000000
v -2.375000 1.750000 0.000000
v -2.500000 3.500000 0.187500
v -2.375000 3.500000 0.187500
v -2.375000 1.750000 0.187500
v -2.500000 1.750000 0.187500
v -2.500000 3.500000 0.000000
v -2.500000 3.500000 0.187500
v -2.500000 1.750000 0.187500
v -2.500000 1.750000 0.000000
v -2.375000 3.500000 0.187500
v -2.375000 3.500000 0.000000
v -2.375000 1.750000 0.000000
v -2.375000 1.750000 0.187500
v 2.500000 3.500000 0.000000
v 2.375000 3.500000 0.000000
v 2.375000 1.750000 0.000000
v 2.500000 1.750000 0.000000
v 2.375000 3.500000 0.187500
v 2.500000 3.500000 0.187500
v 2.500000 1.750000 0.187500
v 2.375000 1.750000 0.187500
v 2.375000 3.500000 0.000000
v 2.375000 3.500000 0.187500
v 2.375000 1.750000 0.187500
v 2.375000 1.750000 0.000000
v 2.500000 3.500000 0.187500
v 2.500000 3.500000 0.000000
v 2.500000 1.750000 0.000000
v 2.500000 1.750000 0.187500
v 1.500000 3.750000 0.000000
v -1.500000 3.750000 0.000000
v -1.500000 3.500000 0.000000
v 1.500000 3.500000 0.000000
v -1.500000 3.750000 2.500000
v 1.500000 3.750000 2.500000
v 1.500000 3.500000 2.500000
v -1.500000 3.500000 2.500000
v -1.500000 3.750000 0.000000
v -1.500000 3.750000 2.500000
v -1.500000 3.500000 2.500000
v -1.500000 3.500000 0.000000
v 1.500000 3.750000 2.500000
v 1.500000 3.750000 0.000000
v 1.500000 3.500000 0.000000
v 1.500000 3.500000 2.500000
v -1.500000 3.750000 0.000000
v 1.500000 3.750000 0.000000
v 1.500000 3.750000 2.500000
v -1.500000 3.750000 2.500000
v -1.500000 3.500000 2.500000
v 1.500000 3.500000 2.500000
v 1.500000 3.500000 0.000000
v -1.500000 3.500000 0.000000
v -1.500000 3.750000 0.000000
v -2.500000 3.750000 0.000000
v -2.500000 3.500000 0.000000
v -1.500000 3.500000 0.000000
v -2.500000 3.750000 1.500000
v -1.500000 3.750000 1.500000
v -1.500000 3.500000 1.500000
v -2.500000 3.500000 1.500000
v -2.500000 3.750000 0.000000
v -2.500000 3.750000 1.500000
v -2.500000 3.500000 1.500000
v -2.500000 3.500000 0.000000
v -2.500000 3.750000 0.000000
v -1.500000 3.750000 0.000000
v -1.500000 3.750000 1.500000
v -2.500000 3.750000 1.500000
v -2.500000 3.500000 1.500000
v -1.500000 3.500000 1.500000
v -1.500000 3.500000 0.000000
v -2.500000 3.500000 0.000000
v 2.500000 3.750000 0.000000
v 1.500000 3.750000 0.000000
v 1.500000 3.500000 0.000000
v 2.500000 3.500000 0.000000
v 1.500000 3.750000 1.500000
v 2.500000 3.750000 1.500000
v 2.500000 3.500000 1.500000
v 1.500000 3.500000 1.500000
v 2.500000 3.750000 1.500000
v 2.500000 3.750000 0.000000
v 2.500000 3.500000 0.000000
v 2.500000 3.500000 1.500000
v 1.500000 3.750000 0.000000
v 2.500000 3.750000 0.000000
v 2.500000 3.750000 1.500000
v 1.500000 3.750000 1.500000
v 1.500000 3.500000 1.500000
v 2.500000 3.500000 1.500000
v 2.500000 3.500000 0.000000
v 1.500000 3.500000 0.000000
v 1.250000 4.250000 0.000000
v -1.250000 4.250000 0.000000
v -1.250000 3.750000 0.000000
v 1.250000 3.750000 0.000000
v -1.250000 4.250000 2.000000
v 1.250000 4.250000 2.000000
v 1.250000 3.750000 2.000000
v -1.250000 3.750000 2.000000
v -1.250000 4.250000 0.000000
v -1.250000 4.250000 2.000000
v -1.250000 3.750000 2.000000
v -1.250000 3.750000 0.000000
v 1.250000 4.250000 2.000000
v 1.250000 4.250000 0.000000
v 1.250000 3.750000 0.000000
v 1.250000 3.750000 2.000000
v -1.250000 4.250000 0.000000
v 1.250000 4.250000 0.000000
v 1.250000 4.250000 2.000000
v -1.250000 4.250000 2.000000
v -1.250000 4.250000 0.000000
v -2.000000 4.250000 0.000000
v -2.000000 3.750000 0.000000
v -1.250000 3.750000 0.000000
v -2.000000 4.250000 1.250000
v -1.250000 4.250000 1.250000
v -1.250000 3.750000 1.250000
v -2.000000 3.750000 1.250000
v -2.000000 4.250000 0.000000
v -2.000000 4.250000 1.250000
v -2.000000 3.750000 1.250000
v -2.000000 3.750000 0.000000
v -2.000000 4.250000 0.000000
v -1.250000 4.250000 0.000000
v -1.250000 4.250000 1.250000
v -2.000000 4.250000 1.250000
v 2.000000 4.250000 0.000000
v 1.250000 4.250000 0.000000
v 1.250000 3.750000 0.000000
v 2.000000 3.750000 0.000000
v 1.250000 4.250000 1.250000
v 2.000000 4.250000 1.250000
v 2.000000 3.750000 1.250000
v 1.250000 3.750000 1.250000
v 2.000000 4.250000 1.250000
v 2.000000 4.250000 0.000000
v 2.000000 3.750000 0.000000
v 2.000000 3.750000 1.250000
v 1.250000 4.250000 0.000000
v 2.000000 4.250000 0.000000
v 2.000000 4.250000 1.250000
v 1.250000 4.250000 1.250000
v 1.750000 4.750000 0.000000
v -1.750000 4.750000 0.000000
v -1.750000 4.250000 0.000000
v 1.750000 4.250000 0.000000
v -1.750000 4.750000 1.250000
v 1.750000 4.750000 1.250000
v 1.750000 4.250000 1.250000
v -1.750000 4.250000 1.250000
v -1.750000 4.750000 0.000000
v -1.750000 4.750000 1.250000
v -1.750000 4.250000 1.250000
v -1.750000 4.250000 0.000000
v 1.750000 4.750000 1.250000
v 1.750000 4.750000 0.000000
v 1.750000 4.250000 0.000000
v 1.750000 4.250000 1.250000
v -1.750000 4.750000 0.000000
v 1.750000 4.750000 0.000000
v 1.750000 4.750000 1.250000
v -1.750000 4.750000 1.250000
v 1.000000 5.000000 0.000000
v -1.000000 5.000000 0.000000
v -1.000000 4.750000 0.000000
v 1.000000 4.750000 0.000000
v -1.000000 5.000000 0.750000
v 1.000000 5.000000 0.750000
v 1.000000 4.750000 0.750000
v -1.000000 4.750000 0.750000
v -1.000000 5.000000 0.000000
v -1.000000 5.000000 0.750000
v -1.000000 4.750000 0.750000
v -1.000000 4.750000 0.000000
v 1.000000 5.000000 0.750000
v 1.000000 5.000000 0.000000
v 1.000000 4.750000 0.000000
v 1.000000 4.750000 0.750000
v -1.000000 5.000000 0.000000
v 1.000000 5.000000 0.000000
v 1.000000 5.000000 0.750000
v -1.000000 5.000000 0.750000
v 0.750000 4.281250 1.500000
v -0.750000 4.281250 1.500000
v -0.750000 4.250000 1.500000
v 0.750000 4.250000 1.500000
v -0.750000 4.281250 1.875000
v 0.750000 4.281250 1.875000
v 0.750000 4.250000 1.875000
v -0.750000 4.250000 1.875000
v -0.750000 4.281250 1.500000
v -0.750000 4.281250 1.875000
v -0.750000 4.250000 1.875000
v -0.750000 4.250000 1.500000
v 0.750000 4.281250 1.875000
v 0.750000 4.281250 1.500000
v 0.750000 4.250000 1.500000
v 0.750000 4.250000 1.875000
v -0.750000 4.281250 1.500000
v 0.750000 4.281250 1.500000
v 0.750000 4.281250 1.875000
v -0.750000 4.281250 1.875000
v -0.187500 4.125000 2.031250
v 0.187500 4.125000 2.031250
v 0.187500 4.000000 2.031250
v -0.187500 4.000000 2.031250
v -0.187500 4.125000 1.968750
v -0.187500 4.125000 2.031250
v -0.187500 4.000000 2.031250
v -0.187500 4.000000 1.968750
v 0.187500 4.125000 2.031250
v 0.187500 4.125000 1.968750
v 0.187500 4.000000 1.968750
v 0.187500 4.000000 2.031250
v -0.187500 4.125000 1.968750
v 0.187500 4.125000 1.968750
v 0.187500 4.125000 2.031250
v -0.187500 4.125000 2.031250
v -0.187500 4.000000 2.031250
v 0.187500 4.000000 2.031250
v 0.187500 4.000000 1.968750
v -0.187500 4.000000 1.968750
v 0.250000 3.375000 -1.281250
v -0.250000 3.375000 -1.281250
v -0.250000 2.875000 -1.281250
v 0.250000 2.875000 -1.281250
v -0.250000 3.375000 1.281250
v 0.250000 3.375000 1.281250
v 0.250000 2.875000 1.281250
v -0.250000 2.875000 1.281250
v -0.250000 3.375000 -1.281250
v -0.250000 3.375000 1.281250
v -0.250000 2.875000 1.281250
v -0.250000 2.875000 -1.281250
v 0.250000 3.375000 1.281250
v 0.250000 3.375000 -1.281250
v 0.250000 2.875000 -1.281250
v 0.250000 2.875000 1.281250
v -0.250000 3.375000 -1.281250
v 0.250000 3.375000 -1.281250
v 0.250000 3.375000 1.281250
v -0.250000 3.375000 1.281250
v -0.250000 2.875000 1.281250
v 0.250000 2.875000 1.281250
v 0.250000 2.875000 -1.281250
v -0.250000 2.875000 -1.281250
v 0.500000 3.375000 -1.531250
v -0.500000 3.375000 -1.531250
v -0.500000 2.875000 -1.531250
v 0.500000 2.875000 -1.531250
v -0.500000 3.375000 -1.281250
v 0.500000 3.375000 -1.281250
v 0.500000 2.875000 -1.281250
v -0.500000 2.875000 -1.281250
v -0.500000 3.375000 -1.531250
v -0.500000 3.375000 -1.281250
v -0.500000 2.875000 -1.281250
v -0.500000 2.875000 -1.531250
v 0.500000 3.375000 -1.281250
v 0.500000 3.375000 -1.531250
v 0.500000 2.875000 -1.531250
v 0.500000 2.875000 -1.281250
v -0.500000 3.375000 -1.531250
v 0.500000 3.375000 -1.531250
v 0.500000 3.375000 -1.281250
v -0.500000 3.375000 -1.281250
v -0.500000 2.875000 -1.281250
v 0.500000 2.875000 -1.281250
v 0.500000 2.875000 -1.531250
v -0.500000 2.875000 -1.531250
v 0.500000 3.375000 1.281250
v -0.500000 3.375000 1.281250
v -0.500000 2.875000 1.281250
v 0.500000 2.875000 1.281250
v -0.500000 3.375000 1.531250
v 0.500000 3.375000 1.531250
v 0.500000 2.875000 1.531250
v -0.500000 2.875000 1.531250
v -0.500000 3.375000 1.281250
v -0.500000 3.375000 1.531250
v -0.500000 2.875000 1.531250
v -0.500000 2.875000 1.281250
v 0.500000 3.375000 1.531250
v 0.500000 3.375000 1.281250
v 0.500000 2.875000 1.281250
v 0.500000 2.875000 1.531250
v -0.500000 3.375000 1.281250
v 0.500000 3.375000 1.281250
v 0.500000 3.375000 1.531250
v -0.500000 3.375000 1.531250
v -0.500000 2.875000 1.531250
v 0.500000 2.875000 1.531250
v 0.500000 2.875000 1.281250
v -0.500000 2.875000 1.281250
v 1.000000 1.937500 -1.000000
v -1.000000 1.937500 -1.000000
v -1.000000 1.750000 -1.000000
v 1.000000 1.750000 -1.000000
v -1.000000 1.937500 1.000000
v 1.000000 1.937500 1.000000
v 1.000000 1.750000 1.000000
v -1.000000 1.750000 1.000000
v -1.000000 1.937500 -1.000000
v -1.000000 1.937500 1.000000
v -1.000000 1.750000 1.000000
v -1.000000 1.750000 -1.000000
v 1.000000 1.937500 1.000000
v 1.000000 1.937500 -1.000000
v 1.000000 1.750000 -1.000000
v 1.000000 1.750000 1.000000
v -1.000000 1.937500 -1.000000
v 1.000000 1.937500 -1.000000
v 1.000000 1.937500 1.000000
v -1.000000 1.937500 1.000000
v 0.312500 3.500000 -1.000000
v -0.312500 3.500000 -1.000000
v -0.312500 1.937500 -1.000000
v 0.312500 1.937500 -1.000000
v -0.312500 3.500000 -0.750000
v 0.312500 3.500000 -0.750000
v 0.312500 1.937500 -0.750000
v -0.312500 1.937500 -0.750000
v -0.312500 3.500000 -1.000000
v -0.312500 3.500000 -0.750000
v -0.312500 1.937500 -0.750000
v -0.312500 1.937500 -1.000000
v 0.312500 3.500000 -0.750000
v 0.312500 3.500000 -1.000000
v 0.312500 1.937500 -1.000000
v 0.312500 1.937500 -0.750000
v -0.312500 3.500000 -1.000000
v 0.312500 3.500000 -1.000000
v 0.312500 3.500000 -0.750000
v -0.312500 3.500000 -0.750000
v 0.312500 3.500000 0.750000
v -0.312500 3.500000 0.750000
v -0.312500 1.937500 0.750000
v 0.312500 1.937500 0.750000
v -0.312500 3.500000 1.000000
v 0.312500 3.500000 1.000000
v 0.312500 1.937500 1.000000
v -0.312500 1.937500 1.000000
v -0.312500 3.500000 0.750000
v -0.312500 3.500000 1.000000
v -0.312500 1.937500 1.000000
v -0.312500 1.937500 0.750000
v 0.312500 3.500000 1.000000
v 0.312500 3.500000 0.750000
v 0.312500 1.937500 0.750000
v 0.312500 1.937500 1.000000
v -0.312500 3.500000 0.750000
v 0.312500 3.500000 0.750000
v 0.312500 3.500000 1.000000
v -0.312500 3.500000 1.000000
v 1.875000 2.625000 -0.312500
v 1.250000 2.625000 -0.312500
v 1.250000 2.000000 -0.312500
v 1.875000 2.000000 -0.312500
v 1.250000 2.625000 0.312500
v 1.875000 2.625000 0.312500
v 1.875000 2.000000 0.312500
v 1.250000 2.000000 0.312500
v 1.250000 2.625000 -0.312500
v 1.250000 2.625000 0.312500
v 1.250000 2.000000 0.312500
v 1.250000 2.000000 -0.312500
v 1.875000 2.625000 0.312500
v 1.875000 2.625000 -0.312500
v 1.875000 2.000000 -0.312500
v 1.875000 2.000000 0.312500
v 1.250000 2.625000 -0.312500
v 1.875000 2.625000 -0.312500
v 1.875000 2.625000 0.312500
v 1.250000 2.625000 0.312500
v 1.250000 2.000000 0.312500
v 1.875000 2.000000 0.312500
v 1.875000 2.000000 -0.312500
v 1.250000 2.000000 -0.312500
v 1.250000 3.250000 -0.562500
v 0.625000 3.250000 -0.562500
v 0.625000 2.125000 -0.562500
v 1.250000 2.125000 -0.562500
v 0.625000 3.250000 0.562500
v 1.250000 3.250000 0.562500
v 1.250000 2.125000 0.562500
v 0.625000 2.125000 0.562500
v 0.625000 3.250000 -0.562500
v 0.625000 3.250000 0.562500
v 0.625000 2.125000 0.562500
v 0.625000 2.125000 -0.562500
v 1.250000 3.250000 0.562500
v 1.250000 3.250000 -0.562500
v 1.250000 2.125000 -0.562500
v 1.250000 2.125000 0.562500
v 0.625000 3.250000 -0.562500
v 1.250000 3.250000 -0.562500
v 1.250000 3.250000 0.562500
v 0.625000 3.250000 0.562500
v 0.625000 2.125000 0.562500
v 1.250000 2.125000 0.562500
v 1.250000 2.125000 -0.562500
v 0.625000 2.125000 -0.562500
v 0.625000 3.625000 -0.562500
v 0.000000 3.625000 -0.562500
v 0.000000 2.500000 -0.562500
v 0.625000 2.500000 -0.562500
v 0.000000 3.625000 0.562500
v 0.625000 3.625000 0.562500
v 0.625000 2.500000 0.562500
v 0.000000 2.500000 0.562500
v 0.000000 3.625000 -0.562500
v 0.000000 3.625000 0.562500
v 0.000000 2.500000 0.562500
v 0.000000 2.500000 -0.562500
v 0.625000 3.625000 0.562500
v 0.625000 3.625000 -0.562500
v 0.625000 2.500000 -0.562500
v 0.625000 2.500000 0.562500
v 0.000000 3.625000 -0.562500
v 0.625000 3.625000 -0.562500
v 0.625000 3.625000 0.562500
v 0.000000 3.625000 0.562500
v 0.000000 2.500000 0.562500
v 0.625000 2.500000 0.562500
v 0.625000 2.500000 -0.562500
v 0.000000 2.500000 -0.562500
v 0.000000 3.937500 -0.562500
v -0.625000 3.937500 -0.562500
v -0.625000 2.812500 -0.562500
v 0.000000 2.812500 -0.562500
v -0.625000 3.937500 0.562500
v 0.000000 3.937500 0.562500
v 0.000000 2.812500 0.562500
v -0.625000 2.812500 0.562500
v -0.625000 3.937500 -0.562500
v -0.625000 3.937500 0.562500
v -0.625000 2.812500 0.562500
v -0.625000 2.812500 -0.562500
v 0.000000 3.937500 0.562500
v 0.000000 3.937500 -0.562500
v 0.000000 2.812500 -0.562500
v 0.000000 2.812500 0.562500
v -0.625000 3.937500 -0.562500
v 0.000000 3.937500 -0.562500
v 0.000000 3.937500 0.562500
v -0.625000 3.937500 0.562500
v -0.625000 2.812500 0.562500
v 0.000000 2.812500 0.562500
v 0.000000 2.812500 -0.562500
v -0.625000 2.812500 -0.562500
v -0.625000 4.562500 -0.687500
v -1.375000 4.562500 -0.687500
v -1.375000 3.187500 -0.687500
v -0.625000 3.187500 -0.687500
v -1.375000 4.562500 0.687500
v -0.625000 4.562500 0.687500
v -0.625000 3.187500 0.687500
v -1.375000 3.187500 0.687500
v -1.375000 4.562500 -0.687500
v -1.375000 4.562500 0.687500
v -1.375000 3.187500 0.687500
v -1.375000 3.187500 -0.687500
v -0.625000 4.562500 0.687500
v -0.625000 4.562500 -0.687500
v -0.625000 3.187500 -0.687500
v -0.625000 3.187500 0.687500
v -1.375000 4.562500 -0.687500
v -0.625000 4.562500 -0.687500
v -0.625000 4.562500 0.687500
v -1.375000 4.562500 0.687500
v -1.375000 3.187500 0.687500
v -0.625000 3.187500 0.687500
v -0.625000 3.187500 -0.687500
v -1.375000 3.187500 -0.687500
v -1.375000 4.625000 -0.750000
v -1.625000 4.625000 -0.750000
v -1.625000 4.437500 -0.750000
v -1.375000 4.437500 -0.750000
v -1.625000 4.625000 0.750000
v -1.375000 4.625000 0.750000
v -1.375000 4.437500 0.750000
v -1.625000 4.437500 0.750000
v -1.625000 4.625000 -0.750000
v -1.625000 4.625000 0.750000
v -1.625000 4.437500 0.750000
v -1.625000 4.437500 -0.750000
v -1.375000 4.625000 0.750000
v -1.375000 4.625000 -0.750000
v -1.375000 4.437500 -0.750000
v -1.375000 4.437500 0.750000
v -1.625000 4.625000 -0.750000
v -1.375000 4.625000 -0.750000
v -1.375000 4.625000 0.750000
v -1.625000 4.625000 0.750000
v -1.625000 4.437500 0.750000
v -1.375000 4.437500 0.750000
v -1.375000 4.437500 -0.750000
v -1.625000 4.437500 -0.750000
v -1.375000 3.312500 -0.750000
v -1.625000 3.312500 -0.750000
v -1.625000 3.125000 -0.750000
v -1.375000 3.125000 -0.750000
v -1.625000 3.312500 0.750000
v -1.375000 3.312500 0.750000
v -1.375000 3.125000 0.750000
v -1.625000 3.125000 0.750000
v -1.625000 3.312500 -0.750000
v -1.625000 3.312500 0.750000
v -1.625000 3.125000 0.750000
v -1.625000 3.125000 -0.750000
v -1.375000 3.312500 0.750000
v -1.375000 3.312500 -0.750000
v -1.375000 3.125000 -0.750000
v -1.375000 3.125000 0.750000
v -1.625000 3.312500 -0.750000
v -1.375000 3.312500 -0.750000
v -1.375000 3.312500 0.750000
v -1.625000 3.312500 0.750000
v -1.625000 3.125000 0.750000
v -1.375000 3.125000 0.750000
v -1.375000 3.125000 -0.750000
v -1.625000 3.125000 -0.750000
v -1.375000 4.437500 -0.750000
v -1.625000 4.437500 -0.750000
v -1.625000 3.312500 -0.750000
v -1.375000 3.312500 -0.750000
v -1.625000 4.437500 -0.562500
v -1.375000 4.437500 -0.562500
v -1.375000 3.312500 -0.562500
v -1.625000 3.312500 -0.562500
v -1.625000 4.437500 -0.750000
v -1.625000 4.437500 -0.562500
v -1.625000 3.312500 -0.562500
v -1.625000 3.312500 -0.750000
v -1.375000 4.437500 -0.562500
v -1.375000 4.437500 -0.750000
v -1.375000 3.312500 -0.750000
v -1.375000 3.312500 -0.562500
v -1.625000 4.437500 -0.750000
v -1.375000 4.437500 -0.750000
v -1.375000 4.437500 -0.562500
v -1.625000 4.437500 -0.562500
v -1.625000 3.312500 -0.562500
v -1.375000 3.312500 -0.562500
v -1.375000 3.312500 -0.750000
v -1.625000 3.312500 -0.750000
v -1.375000 4.437500 0.562500
v -1.625000 4.437500 0.562500
v -1.625000 3.312500 0.562500
v -1.375000 3.312500 0.562500
v -1.625000 4.437500 0.750000
v -1.375000 4.437500 0.750000
v -1.375000 3.312500 0.750000
v -1.625000 3.312500 0.750000
v -1.625000 4.437500 0.562500
v -1.625000 4.437500 0.750000
v -1.625000 3.312500 0.750000
v -1.625000 3.312500 0.562500
v -1.375000 4.437500 0.750000
v -1.375000 4.437500 0.562500
v -1.375000 3.312500 0.562500
v -1.375000 3.312500 0.750000
v -1.625000 4.437500 0.562500
v -1.375000 4.437500 0.562500
v -1.375000 4.437500 0.750000
v -1.625000 4.437500 0.750000
v -1.625000 3.312500 0.750000
v -1.375000 3.312500 0.750000
v -1.375000 3.312500 0.562500
v -1.625000 3.312500 0.562500
v 0.562500 3.875000 -0.187500
v 0.125000 3.875000 -0.187500
v 0.125000 3.625000 -0.187500
v 0.562500 3.625000 -0.187500
v 0.125000 3.875000 0.187500
v 0.562500 3.875000 0.187500
v 0.562500 3.625000 0.187500
v 0.125000 3.625000 0.187500
v 0.125000 3.875000 -0.187500
v 0.125000 3.875000 0.187500
v 0.125000 3.625000 0.187500
v 0.125000 3.625000 -0.187500
v 0.562500 3.875000 0.187500
v 0.562500 3.875000 -0.187500
v 0.562500 3.625000 -0.187500
v 0.562500 3.625000 0.187500
v 0.125000 3.875000 -0.187500
v 0.562500 3.875000 -0.187500
v 0.562500 3.875000 0.187500
v 0.125000 3.875000 0.187500
v 0.125000 3.625000 0.187500
v 0.562500 3.625000 0.187500
v 0.562500 3.625000 -0.187500
v 0.125000 3.625000 -0.187500
v 0.062500 3.687500 -0.625000
v -0.062500 3.687500 -0.625000
v -0.062500 2.437500 -0.625000
v 0.062500 2.437500 -0.625000
v -0.062500 3.687500 0.625000
v 0.062500 3.687500 0.625000
v 0.062500 2.437500 0.625000
v -0.062500 2.437500 0.625000
v -0.062500 3.687500 -0.625000
v -0.062500 3.687500 0.625000
v -0.062500 2.437500 0.625000
v -0.062500 2.437500 -0.625000
v 0.062500 3.687500 0.625000
v 0.062500 3.687500 -0.625000
v 0.062500 2.437500 -0.625000
v 0.062500 2.437500 0.625000
v -0.062500 3.687500 -0.625000
v 0.062500 3.687500 -0.625000
v 0.062500 3.687500 0.625000
v -0.062500 3.687500 0.625000
v -0.062500 2.437500 0.625000
v 0.062500 2.437500 0.625000
v 0.062500 2.437500 -0.625000
v -0.062500 2.437500 -0.625000
v -1.379000 4.562500 -0.687500
v -1.379000 3.187500 -0.687500
v -1.379000 3.187500 0.687500
v -1.379000 4.562500 0.687500
vt 0.312500 0.382812
vt 0.500000 0.382812
vt 0.500000 0.367188
vt 0.312500 0.367188
vt 0.312500 0.382812
vt 0.500000 0.382812
vt 0.500000 0.367188
vt 0.312500 0.367188
vt 0.000000 0.382812
vt 0.312500 0.382812
vt 0.312500 0.367188
vt 0.000000 0.367188
vt 0.000000 0.382812
vt 0.312500 0.382812
vt 0.312500 0.367188
vt 0.000000 0.367188
vt 0.000000 1.000000
vt 0.187500 1.000000
vt 0.187500 0.687500
vt 0.000000 0.687500
vt 0.375000 0.367188
vt 0.437500 0.367188
vt 0.437500 0.351562
vt 0.375000 0.351562
vt 0.375000 0.367188
vt 0.437500 0.367188
vt 0.437500 0.351562
vt 0.375000 0.351562
vt 0.312500 0.382812
vt 0.500000 0.382812
vt 0.500000 0.367188
vt 0.312500 0.367188
vt 0.359375 1.000000
vt 0.421875 1.000000
vt 0.421875 0.812500
vt 0.359375 0.812500
vt 0.375000 0.367188
vt 0.437500 0.367188
vt 0.437500 0.351562
vt 0.375000 0.351562
vt 0.375000 0.367188
vt 0.437500 0.367188
vt 0.437500 0.351562
vt 0.375000 0.351562
vt 0.312500 0.382812
vt 0.500000 0.382812
vt 0.500000 0.367188
vt 0.312500 0.367188
vt 0.359375 1.000000
vt 0.421875 1.000000
vt 0.421875 0.812500
vt 0.359375 0.812500
vt 0.785156 0.687500
vt 0.957031 0.687500
vt 0.957031 0.593750
vt 0.785156 0.593750
vt 0.785156 0.687500
vt 0.957031 0.687500
vt 0.957031 0.593750
vt 0.785156 0.593750
vt 0.000000 0.578125
vt 0.296875 0.578125
vt 0.296875 0.484375
vt 0.000000 0.484375
vt 0.000000 0.578125
vt 0.296875 0.578125
vt 0.296875 0.484375
vt 0.000000 0.484375
vt 0.187500 1.000000
vt 0.359375 1.000000
vt 0.359375 0.703125
vt 0.187500 0.703125
vt 0.296875 0.578125
vt 0.359375 0.578125
vt 0.359375 0.484375
vt 0.296875 0.484375
vt 0.296875 0.578125
vt 0.359375 0.578125
vt 0.359375 0.484375
vt 0.296875 0.484375
vt 0.785156 0.687500
vt 0.957031 0.687500
vt 0.957031 0.593750
vt 0.785156 0.593750
vt 0.421875 1.000000
vt 0.484375 1.000000
vt 0.484375 0.828125
vt 0.421875 0.828125
vt 0.296875 0.578125
vt 0.359375 0.578125
vt 0.359375 0.484375
vt 0.296875 0.484375
vt 0.296875 0.578125
vt 0.359375 0.578125
vt 0.359375 0.484375
vt 0.296875 0.484375
vt 0.785156 0.687500
vt 0.957031 0.687500
vt 0.957031 0.593750
vt 0.785156 0.593750
vt 0.421875 1.000000
vt 0.484375 1.000000
vt 0.484375 0.828125
vt 0.421875 0.828125
vt 0.957031 0.687500
vt 0.972656 0.687500
vt 0.972656 0.593750
vt 0.957031 0.593750
vt 0.957031 0.687500
vt 0.972656 0.687500
vt 0.972656 0.593750
vt 0.957031 0.593750
vt 0.957031 0.687500
vt 0.972656 0.687500
vt 0.972656 0.593750
vt 0.957031 0.593750
vt 0.957031 0.687500
vt 0.972656 0.687500
vt 0.972656 0.593750
vt 0.957031 0.593750
vt 0.957031 0.687500
vt 0.972656 0.687500
vt 0.972656 0.593750
vt 0.957031 0.593750
vt 0.957031 0.687500
vt 0.972656 0.687500
vt 0.972656 0.593750
vt 0.957031 0.593750
vt 0.957031 0.687500
vt 0.972656 0.687500
vt 0.972656 0.593750
vt 0.957031 0.593750
vt 0.957031 0.687500
vt 0.972656 0.687500
vt 0.972656 0.593750
vt 0.957031 0.593750
vt 0.957031 0.687500
vt 0.972656 0.687500
vt 0.972656 0.593750
vt 0.957031 0.593750
vt 0.957031 0.687500
vt 0.972656 0.687500
vt 0.972656 0.593750
vt 0.957031 0.593750
vt 0.957031 0.687500
vt 0.972656 0.687500
vt 0.972656 0.593750
vt 0.957031 0.593750
vt 0.957031 0.687500
vt 0.972656 0.687500
vt 0.972656 0.593750
vt 0.957031 0.593750
vt 0.957031 0.687500
vt 0.972656 0.687500
vt 0.972656 0.593750
vt 0.957031 0.593750
vt 0.957031 0.687500
vt 0.972656 0.687500
vt 0.972656 0.593750
vt 0.957031 0.593750
vt 0.957031 0.687500
vt 0.972656 0.687500
vt 0.972656 0.593750
vt 0.957031 0.593750
vt 0.957031 0.687500
vt 0.972656 0.687500
vt 0.972656 0.593750
vt 0.957031 0.593750
vt 0.957031 0.687500
vt 0.972656 0.687500
vt 0.972656 0.593750
vt 0.957031 0.593750
vt 0.957031 0.687500
vt 0.972656 0.687500
vt 0.972656 0.593750
vt 0.957031 0.593750
vt 0.957031 0.687500
vt 0.972656 0.687500
vt 0.972656 0.593750
vt 0.957031 0.593750
vt 0.957031 0.687500
vt 0.972656 0.687500
vt 0.972656 0.593750
vt 0.957031 0.593750
vt 0.957031 0.687500
vt 0.972656 0.687500
vt 0.972656 0.593750
vt 0.957031 0.593750
vt 0.957031 0.687500
vt 0.972656 0.687500
vt 0.972656 0.593750
vt 0.957031 0.593750
vt 0.957031 0.687500
vt 0.972656 0.687500
vt 0.972656 0.593750
vt 0.957031 0.593750
vt 0.957031 0.687500
vt 0.972656 0.687500
vt 0.972656 0.593750
vt 0.957031 0.593750
vt 0.957031 0.687500
vt 0.972656 0.687500
vt 0.972656 0.593750
vt 0.957031 0.593750
vt 0.957031 0.687500
vt 0.972656 0.687500
vt 0.972656 0.593750
vt 0.957031 0.593750
vt 0.957031 0.687500
vt 0.972656 0.687500
vt 0.972656 0.593750
vt 0.957031 0.593750
vt 0.957031 0.687500
vt 0.972656 0.687500
vt 0.972656 0.593750
vt 0.957031 0.593750
vt 0.957031 0.687500
vt 0.972656 0.687500
vt 0.972656 0.593750
vt 0.957031 0.593750
vt 0.957031 0.687500
vt 0.972656 0.687500
vt 0.972656 0.593750
vt 0.957031 0.593750
vt 0.957031 0.687500
vt 0.972656 0.687500
vt 0.972656 0.593750
vt 0.957031 0.593750
vt 0.957031 0.687500
vt 0.972656 0.687500
vt 0.972656 0.593750
vt 0.957031 0.593750
vt 0.957031 0.687500
vt 0.972656 0.687500
vt 0.972656 0.593750
vt 0.957031 0.593750
vt 0.957031 0.687500
vt 0.972656 0.687500
vt 0.972656 0.593750
vt 0.957031 0.593750
vt 0.957031 0.687500
vt 0.972656 0.687500
vt 0.972656 0.593750
vt 0.957031 0.593750
vt 0.957031 0.687500
vt 0.972656 0.687500
vt 0.972656 0.593750
vt 0.957031 0.593750
vt 0.957031 0.687500
vt 0.972656 0.687500
vt 0.972656 0.593750
vt 0.957031 0.593750
vt 0.957031 0.687500
vt 0.972656 0.687500
vt 0.972656 0.593750
vt 0.957031 0.593750
vt 0.957031 0.687500
vt 0.972656 0.687500
vt 0.972656 0.593750
vt 0.957031 0.593750
vt 0.957031 0.687500
vt 0.972656 0.687500
vt 0.972656 0.593750
vt 0.957031 0.593750
vt 0.957031 0.687500
vt 0.972656 0.687500
vt 0.972656 0.593750
vt 0.957031 0.593750
vt 0.957031 0.687500
vt 0.972656 0.687500
vt 0.972656 0.593750
vt 0.957031 0.593750
vt 0.957031 0.687500
vt 0.972656 0.687500
vt 0.972656 0.593750
vt 0.957031 0.593750
vt 0.957031 0.687500
vt 0.972656 0.687500
vt 0.972656 0.593750
vt 0.957031 0.593750
vt 0.957031 0.687500
vt 0.972656 0.687500
vt 0.972656 0.593750
vt 0.957031 0.593750
vt 0.957031 0.687500
vt 0.972656 0.687500
vt 0.972656 0.593750
vt 0.957031 0.593750
vt 0.957031 0.687500
vt 0.972656 0.687500
vt 0.972656 0.593750
vt 0.957031 0.593750
vt 0.957031 0.687500
vt 0.972656 0.687500
vt 0.972656 0.593750
vt 0.957031 0.593750
vt 0.738281 0.367188
vt 0.894531 0.367188
vt 0.894531 0.355469
vt 0.738281 0.355469
vt 0.996094 0.484375
vt 1.000000 0.484375
vt 1.000000 0.472656
vt 0.996094 0.472656
vt 0.996094 0.484375
vt 1.000000 0.484375
vt 1.000000 0.472656
vt 0.996094 0.472656
vt 0.187500 0.351562
vt 0.343750 0.351562
vt 0.343750 0.347656
vt 0.187500 0.347656
vt 0.738281 0.367188
vt 0.894531 0.367188
vt 0.894531 0.355469
vt 0.738281 0.355469
vt 0.996094 0.484375
vt 1.000000 0.484375
vt 1.000000 0.472656
vt 0.996094 0.472656
vt 0.996094 0.484375
vt 1.000000 0.484375
vt 1.000000 0.472656
vt 0.996094 0.472656
vt 0.187500 0.351562
vt 0.343750 0.351562
vt 0.343750 0.347656
vt 0.187500 0.347656
vt 0.195312 0.484375
vt 0.320312 0.484375
vt 0.320312 0.437500
vt 0.195312 0.437500
vt 0.429688 0.484375
vt 0.433594 0.484375
vt 0.433594 0.437500
vt 0.429688 0.437500
vt 0.429688 0.484375
vt 0.433594 0.484375
vt 0.433594 0.437500
vt 0.429688 0.437500
vt 0.195312 0.484375
vt 0.320312 0.484375
vt 0.320312 0.437500
vt 0.195312 0.437500
vt 0.429688 0.484375
vt 0.433594 0.484375
vt 0.433594 0.437500
vt 0.429688 0.437500
vt 0.429688 0.484375
vt 0.433594 0.484375
vt 0.433594 0.437500
vt 0.429688 0.437500
vt 0.429688 0.484375
vt 0.433594 0.484375
vt 0.433594 0.437500
vt 0.429688 0.437500
vt 0.429688 0.484375
vt 0.433594 0.484375
vt 0.433594 0.437500
vt 0.429688 0.437500
vt 0.320312 0.484375
vt 0.429688 0.484375
vt 0.429688 0.437500
vt 0.320312 0.437500
vt 0.187500 0.484375
vt 0.191406 0.484375
vt 0.191406 0.429688
vt 0.187500 0.429688
vt 0.191406 0.484375
vt 0.195312 0.484375
vt 0.195312 0.429688
vt 0.191406 0.429688
vt 0.125000 0.484375
vt 0.187500 0.484375
vt 0.187500 0.429688
vt 0.125000 0.429688
vt 0.996094 0.687500
vt 1.000000 0.687500
vt 1.000000 0.625000
vt 0.996094 0.625000
vt 0.121094 0.484375
vt 0.125000 0.484375
vt 0.125000 0.421875
vt 0.121094 0.421875
vt 0.156250 0.351562
vt 0.160156 0.351562
vt 0.160156 0.339844
vt 0.156250 0.339844
vt 0.156250 0.351562
vt 0.160156 0.351562
vt 0.160156 0.339844
vt 0.156250 0.339844
vt 0.988281 0.367188
vt 1.000000 0.367188
vt 1.000000 0.355469
vt 0.988281 0.355469
vt 0.156250 0.351562
vt 0.160156 0.351562
vt 0.160156 0.339844
vt 0.156250 0.339844
vt 0.156250 0.351562
vt 0.160156 0.351562
vt 0.160156 0.339844
vt 0.156250 0.339844
vt 0.156250 0.351562
vt 0.160156 0.351562
vt 0.160156 0.339844
vt 0.156250 0.339844
vt 0.156250 0.351562
vt 0.160156 0.351562
vt 0.160156 0.339844
vt 0.156250 0.339844
vt 0.988281 0.367188
vt 1.000000 0.367188
vt 1.000000 0.355469
vt 0.988281 0.355469
vt 0.156250 0.351562
vt 0.160156 0.351562
vt 0.160156 0.339844
vt 0.156250 0.339844
vt 0.156250 0.351562
vt 0.160156 0.351562
vt 0.160156 0.339844
vt 0.156250 0.339844
vt 0.000000 0.687500
vt 0.171875 0.687500
vt 0.171875 0.578125
vt 0.000000 0.578125
vt 0.171875 0.687500
vt 0.343750 0.687500
vt 0.343750 0.578125
vt 0.171875 0.578125
vt 0.343750 0.687500
vt 0.492188 0.687500
vt 0.492188 0.578125
vt 0.343750 0.578125
vt 0.343750 0.687500
vt 0.492188 0.687500
vt 0.492188 0.578125
vt 0.343750 0.578125
vt 0.578125 0.687500
vt 0.640625 0.687500
vt 0.640625 0.578125
vt 0.578125 0.578125
vt 0.640625 0.687500
vt 0.703125 0.687500
vt 0.703125 0.578125
vt 0.640625 0.578125
vt 0.492188 0.687500
vt 0.578125 0.687500
vt 0.578125 0.578125
vt 0.492188 0.578125
vt 0.578125 0.687500
vt 0.640625 0.687500
vt 0.640625 0.578125
vt 0.578125 0.578125
vt 0.640625 0.687500
vt 0.703125 0.687500
vt 0.703125 0.578125
vt 0.640625 0.578125
vt 0.492188 0.687500
vt 0.578125 0.687500
vt 0.578125 0.578125
vt 0.492188 0.578125
vt 0.984375 1.000000
vt 1.000000 1.000000
vt 1.000000 0.890625
vt 0.984375 0.890625
vt 0.984375 1.000000
vt 1.000000 1.000000
vt 1.000000 0.890625
vt 0.984375 0.890625
vt 0.984375 1.000000
vt 1.000000 1.000000
vt 1.000000 0.890625
vt 0.984375 0.890625
vt 0.984375 1.000000
vt 1.000000 1.000000
vt 1.000000 0.890625
vt 0.984375 0.890625
vt 0.984375 1.000000
vt 1.000000 1.000000
vt 1.000000 0.890625
vt 0.984375 0.890625
vt 0.984375 1.000000
vt 1.000000 1.000000
vt 1.000000 0.890625
vt 0.984375 0.890625
vt 0.984375 1.000000
vt 1.000000 1.000000
vt 1.000000 0.890625
vt 0.984375 0.890625
vt 0.984375 1.000000
vt 1.000000 1.000000
vt 1.000000 0.890625
vt 0.984375 0.890625
vt 0.984375 1.000000
vt 1.000000 1.000000
vt 1.000000 0.890625
vt 0.984375 0.890625
vt 0.984375 1.000000
vt 1.000000 1.000000
vt 1.000000 0.890625
vt 0.984375 0.890625
vt 0.984375 1.000000
vt 1.000000 1.000000
vt 1.000000 0.890625
vt 0.984375 0.890625
vt 0.984375 1.000000
vt 1.000000 1.000000
vt 1.000000 0.890625
vt 0.984375 0.890625
vt 0.984375 1.000000
vt 1.000000 1.000000
vt 1.000000 0.890625
vt 0.984375 0.890625
vt 0.984375 1.000000
vt 1.000000 1.000000
vt 1.000000 0.890625
vt 0.984375 0.890625
vt 0.984375 1.000000
vt 1.000000 1.000000
vt 1.000000 0.890625
vt 0.984375 0.890625
vt 0.984375 1.000000
vt 1.000000 1.000000
vt 1.000000 0.890625
vt 0.984375 0.890625
vt 0.984375 1.000000
vt 1.000000 1.000000
vt 1.000000 0.890625
vt 0.984375 0.890625
vt 0.984375 1.000000
vt 1.000000 1.000000
vt 1.000000 0.890625
vt 0.984375 0.890625
vt 0.984375 1.000000
vt 1.000000 1.000000
vt 1.000000 0.890625
vt 0.984375 0.890625
vt 0.984375 1.000000
vt 1.000000 1.000000
vt 1.000000 0.890625
vt 0.984375 0.890625
vt 0.984375 1.000000
vt 1.000000 1.000000
vt 1.000000 0.890625
vt 0.984375 0.890625
vt 0.984375 1.000000
vt 1.000000 1.000000
vt 1.000000 0.890625
vt 0.984375 0.890625
vt 0.984375 1.000000
vt 1.000000 1.000000
vt 1.000000 0.890625
vt 0.984375 0.890625
vt 0.984375 1.000000
vt 1.000000 1.000000
vt 1.000000 0.890625
vt 0.984375 0.890625
vt 0.714844 0.687500
vt 0.722656 0.687500
vt 0.722656 0.578125
vt 0.714844 0.578125
vt 0.722656 0.687500
vt 0.730469 0.687500
vt 0.730469 0.578125
vt 0.722656 0.578125
vt 0.703125 0.687500
vt 0.714844 0.687500
vt 0.714844 0.578125
vt 0.703125 0.578125
vt 0.703125 0.687500
vt 0.714844 0.687500
vt 0.714844 0.578125
vt 0.703125 0.578125
vt 0.714844 0.687500
vt 0.722656 0.687500
vt 0.722656 0.578125
vt 0.714844 0.578125
vt 0.722656 0.687500
vt 0.730469 0.687500
vt 0.730469 0.578125
vt 0.722656 0.578125
vt 0.703125 0.687500
vt 0.714844 0.687500
vt 0.714844 0.578125
vt 0.703125 0.578125
vt 0.703125 0.687500
vt 0.714844 0.687500
vt 0.714844 0.578125
vt 0.703125 0.578125
vt 0.500000 0.382812
vt 0.687500 0.382812
vt 0.687500 0.367188
vt 0.500000 0.367188
vt 0.687500 0.382812
vt 0.875000 0.382812
vt 0.875000 0.367188
vt 0.687500 0.367188
vt 0.000000 0.367188
vt 0.156250 0.367188
vt 0.156250 0.351562
vt 0.000000 0.351562
vt 0.000000 0.367188
vt 0.156250 0.367188
vt 0.156250 0.351562
vt 0.000000 0.351562
vt 0.515625 1.000000
vt 0.703125 1.000000
vt 0.703125 0.843750
vt 0.515625 0.843750
vt 0.515625 1.000000
vt 0.703125 1.000000
vt 0.703125 0.843750
vt 0.515625 0.843750
vt 0.437500 0.367188
vt 0.500000 0.367188
vt 0.500000 0.351562
vt 0.437500 0.351562
vt 0.500000 0.367188
vt 0.562500 0.367188
vt 0.562500 0.351562
vt 0.500000 0.351562
vt 0.281250 0.367188
vt 0.375000 0.367188
vt 0.375000 0.351562
vt 0.281250 0.351562
vt 0.359375 0.578125
vt 0.421875 0.578125
vt 0.421875 0.484375
vt 0.359375 0.484375
vt 0.359375 0.578125
vt 0.421875 0.578125
vt 0.421875 0.484375
vt 0.359375 0.484375
vt 0.437500 0.367188
vt 0.500000 0.367188
vt 0.500000 0.351562
vt 0.437500 0.351562
vt 0.500000 0.367188
vt 0.562500 0.367188
vt 0.562500 0.351562
vt 0.500000 0.351562
vt 0.281250 0.367188
vt 0.375000 0.367188
vt 0.375000 0.351562
vt 0.281250 0.351562
vt 0.359375 0.578125
vt 0.421875 0.578125
vt 0.421875 0.484375
vt 0.359375 0.484375
vt 0.359375 0.578125
vt 0.421875 0.578125
vt 0.421875 0.484375
vt 0.359375 0.484375
vt 0.160156 0.414062
vt 0.316406 0.414062
vt 0.316406 0.382812
vt 0.160156 0.382812
vt 0.316406 0.414062
vt 0.472656 0.414062
vt 0.472656 0.382812
vt 0.316406 0.382812
vt 0.472656 0.414062
vt 0.597656 0.414062
vt 0.597656 0.382812
vt 0.472656 0.382812
vt 0.472656 0.414062
vt 0.597656 0.414062
vt 0.597656 0.382812
vt 0.472656 0.382812
vt 0.703125 1.000000
vt 0.859375 1.000000
vt 0.859375 0.875000
vt 0.703125 0.875000
vt 0.949219 0.484375
vt 0.996094 0.484375
vt 0.996094 0.453125
vt 0.949219 0.453125
vt 0.738281 0.414062
vt 0.785156 0.414062
vt 0.785156 0.382812
vt 0.738281 0.382812
vt 0.597656 0.414062
vt 0.675781 0.414062
vt 0.675781 0.382812
vt 0.597656 0.382812
vt 0.937500 0.578125
vt 0.984375 0.578125
vt 0.984375 0.500000
vt 0.937500 0.500000
vt 0.949219 0.484375
vt 0.996094 0.484375
vt 0.996094 0.453125
vt 0.949219 0.453125
vt 0.738281 0.414062
vt 0.785156 0.414062
vt 0.785156 0.382812
vt 0.738281 0.382812
vt 0.597656 0.414062
vt 0.675781 0.414062
vt 0.675781 0.382812
vt 0.597656 0.382812
vt 0.937500 0.578125
vt 0.984375 0.578125
vt 0.984375 0.500000
vt 0.937500 0.500000
vt 0.511719 0.484375
vt 0.730469 0.484375
vt 0.730469 0.453125
vt 0.511719 0.453125
vt 0.730469 0.484375
vt 0.949219 0.484375
vt 0.949219 0.453125
vt 0.730469 0.453125
vt 0.597656 0.414062
vt 0.675781 0.414062
vt 0.675781 0.382812
vt 0.597656 0.382812
vt 0.597656 0.414062
vt 0.675781 0.414062
vt 0.675781 0.382812
vt 0.597656 0.382812
vt 0.640625 0.578125
vt 0.859375 0.578125
vt 0.859375 0.500000
vt 0.640625 0.500000
vt 0.875000 0.382812
vt 1.000000 0.382812
vt 1.000000 0.367188
vt 0.875000 0.367188
vt 0.156250 0.367188
vt 0.281250 0.367188
vt 0.281250 0.351562
vt 0.156250 0.351562
vt 0.953125 0.414062
vt 1.000000 0.414062
vt 1.000000 0.398438
vt 0.953125 0.398438
vt 0.953125 0.414062
vt 1.000000 0.414062
vt 1.000000 0.398438
vt 0.953125 0.398438
vt 0.195312 0.484375
vt 0.320312 0.484375
vt 0.320312 0.437500
vt 0.195312 0.437500
vt 0.343750 0.351562
vt 0.437500 0.351562
vt 0.437500 0.347656
vt 0.343750 0.347656
vt 0.343750 0.351562
vt 0.437500 0.351562
vt 0.437500 0.347656
vt 0.343750 0.347656
vt 0.437500 0.351562
vt 0.460938 0.351562
vt 0.460938 0.347656
vt 0.437500 0.347656
vt 0.437500 0.351562
vt 0.460938 0.351562
vt 0.460938 0.347656
vt 0.437500 0.347656
vt 0.832031 0.414062
vt 0.925781 0.414062
vt 0.925781 0.390625
vt 0.832031 0.390625
vt 0.160156 0.351562
vt 0.183594 0.351562
vt 0.183594 0.343750
vt 0.160156 0.343750
vt 0.183594 0.351562
vt 0.187500 0.351562
vt 0.187500 0.343750
vt 0.183594 0.343750
vt 0.183594 0.351562
vt 0.187500 0.351562
vt 0.187500 0.343750
vt 0.183594 0.343750
vt 0.460938 0.351562
vt 0.484375 0.351562
vt 0.484375 0.347656
vt 0.460938 0.347656
vt 0.460938 0.351562
vt 0.484375 0.351562
vt 0.484375 0.347656
vt 0.460938 0.347656
vt 0.171875 0.687500
vt 0.343750 0.687500
vt 0.343750 0.578125
vt 0.171875 0.578125
vt 0.000000 0.687500
vt 0.171875 0.687500
vt 0.171875 0.578125
vt 0.000000 0.578125
vt 0.343750 0.687500
vt 0.492188 0.687500
vt 0.492188 0.578125
vt 0.343750 0.578125
vt 0.343750 0.687500
vt 0.492188 0.687500
vt 0.492188 0.578125
vt 0.343750 0.578125
vt 0.640625 0.687500
vt 0.703125 0.687500
vt 0.703125 0.578125
vt 0.640625 0.578125
vt 0.578125 0.687500
vt 0.640625 0.687500
vt 0.640625 0.578125
vt 0.578125 0.578125
vt 0.492188 0.687500
vt 0.578125 0.687500
vt 0.578125 0.578125
vt 0.492188 0.578125
vt 0.640625 0.687500
vt 0.703125 0.687500
vt 0.703125 0.578125
vt 0.640625 0.578125
vt 0.578125 0.687500
vt 0.640625 0.687500
vt 0.640625 0.578125
vt 0.578125 0.578125
vt 0.492188 0.687500
vt 0.578125 0.687500
vt 0.578125 0.578125
vt 0.492188 0.578125
vt 0.984375 1.000000
vt 1.000000 1.000000
vt 1.000000 0.890625
vt 0.984375 0.890625
vt 0.984375 1.000000
vt 1.000000 1.000000
vt 1.000000 0.890625
vt 0.984375 0.890625
vt 0.984375 1.000000
vt 1.000000 1.000000
vt 1.000000 0.890625
vt 0.984375 0.890625
vt 0.984375 1.000000
vt 1.000000 1.000000
vt 1.000000 0.890625
vt 0.984375 0.890625
vt 0.984375 1.000000
vt 1.000000 1.000000
vt 1.000000 0.890625
vt 0.984375 0.890625
vt 0.984375 1.000000
vt 1.000000 1.000000
vt 1.000000 0.890625
vt 0.984375 0.890625
vt 0.984375 1.000000
vt 1.000000 1.000000
vt 1.000000 0.890625
vt 0.984375 0.890625
vt 0.984375 1.000000
vt 1.000000 1.000000
vt 1.000000 0.890625
vt 0.984375 0.890625
vt 0.984375 1.000000
vt 1.000000 1.000000
vt 1.000000 0.890625
vt 0.984375 0.890625
vt 0.984375 1.000000
vt 1.000000 1.000000
vt 1.000000 0.890625
vt 0.984375 0.890625
vt 0.984375 1.000000
vt 1.000000 1.000000
vt 1.000000 0.890625
vt 0.984375 0.890625
vt 0.984375 1.000000
vt 1.000000 1.000000
vt 1.000000 0.890625
vt 0.984375 0.890625
vt 0.984375 1.000000
vt 1.000000 1.000000
vt 1.000000 0.890625
vt 0.984375 0.890625
vt 0.984375 1.000000
vt 1.000000 1.000000
vt 1.000000 0.890625
vt 0.984375 0.890625
vt 0.984375 1.000000
vt 1.000000 1.000000
vt 1.000000 0.890625
vt 0.984375 0.890625
vt 0.984375 1.000000
vt 1.000000 1.000000
vt 1.000000 0.890625
vt 0.984375 0.890625
vt 0.984375 1.000000
vt 1.000000 1.000000
vt 1.000000 0.890625
vt 0.984375 0.890625
vt 0.984375 1.000000
vt 1.000000 1.000000
vt 1.000000 0.890625
vt 0.984375 0.890625
vt 0.984375 1.000000
vt 1.000000 1.000000
vt 1.000000 0.890625
vt 0.984375 0.890625
vt 0.984375 1.000000
vt 1.000000 1.000000
vt 1.000000 0.890625
vt 0.984375 0.890625
vt 0.984375 1.000000
vt 1.000000 1.000000
vt 1.000000 0.890625
vt 0.984375 0.890625
vt 0.984375 1.000000
vt 1.000000 1.000000
vt 1.000000 0.890625
vt 0.984375 0.890625
vt 0.984375 1.000000
vt 1.000000 1.000000
vt 1.000000 0.890625
vt 0.984375 0.890625
vt 0.984375 1.000000
vt 1.000000 1.000000
vt 1.000000 0.890625
vt 0.984375 0.890625
vt 0.722656 0.687500
vt 0.730469 0.687500
vt 0.730469 0.578125
vt 0.722656 0.578125
vt 0.714844 0.687500
vt 0.722656 0.687500
vt 0.722656 0.578125
vt 0.714844 0.578125
vt 0.703125 0.687500
vt 0.714844 0.687500
vt 0.714844 0.578125
vt 0.703125 0.578125
vt 0.703125 0.687500
vt 0.714844 0.687500
vt 0.714844 0.578125
vt 0.703125 0.578125
vt 0.722656 0.687500
vt 0.730469 0.687500
vt 0.730469 0.578125
vt 0.722656 0.578125
vt 0.714844 0.687500
vt 0.722656 0.687500
vt 0.722656 0.578125
vt 0.714844 0.578125
vt 0.703125 0.687500
vt 0.714844 0.687500
vt 0.714844 0.578125
vt 0.703125 0.578125
vt 0.703125 0.687500
vt 0.714844 0.687500
vt 0.714844 0.578125
vt 0.703125 0.578125
vt 0.687500 0.382812
vt 0.875000 0.382812
vt 0.875000 0.367188
vt 0.687500 0.367188
vt 0.500000 0.382812
vt 0.687500 0.382812
vt 0.687500 0.367188
vt 0.500000 0.367188
vt 0.000000 0.367188
vt 0.156250 0.367188
vt 0.156250 0.351562
vt 0.000000 0.351562
vt 0.000000 0.367188
vt 0.156250 0.367188
vt 0.156250 0.351562
vt 0.000000 0.351562
vt 0.515625 1.000000
vt 0.703125 1.000000
vt 0.703125 0.843750
vt 0.515625 0.843750
vt 0.515625 1.000000
vt 0.703125 1.000000
vt 0.703125 0.843750
vt 0.515625 0.843750
vt 0.500000 0.367188
vt 0.562500 0.367188
vt 0.562500 0.351562
vt 0.500000 0.351562
vt 0.437500 0.367188
vt 0.500000 0.367188
vt 0.500000 0.351562
vt 0.437500 0.351562
vt 0.281250 0.367188
vt 0.375000 0.367188
vt 0.375000 0.351562
vt 0.281250 0.351562
vt 0.359375 0.578125
vt 0.421875 0.578125
vt 0.421875 0.484375
vt 0.359375 0.484375
vt 0.359375 0.578125
vt 0.421875 0.578125
vt 0.421875 0.484375
vt 0.359375 0.484375
vt 0.500000 0.367188
vt 0.562500 0.367188
vt 0.562500 0.351562
vt 0.500000 0.351562
vt 0.437500 0.367188
vt 0.500000 0.367188
vt 0.500000 0.351562
vt 0.437500 0.351562
vt 0.281250 0.367188
vt 0.375000 0.367188
vt 0.375000 0.351562
vt 0.281250 0.351562
vt 0.359375 0.578125
vt 0.421875 0.578125
vt 0.421875 0.484375
vt 0.359375 0.484375
vt 0.359375 0.578125
vt 0.421875 0.578125
vt 0.421875 0.484375
vt 0.359375 0.484375
vt 0.316406 0.414062
vt 0.472656 0.414062
vt 0.472656 0.382812
vt 0.316406 0.382812
vt 0.160156 0.414062
vt 0.316406 0.414062
vt 0.316406 0.382812
vt 0.160156 0.382812
vt 0.472656 0.414062
vt 0.597656 0.414062
vt 0.597656 0.382812
vt 0.472656 0.382812
vt 0.472656 0.414062
vt 0.597656 0.414062
vt 0.597656 0.382812
vt 0.472656 0.382812
vt 0.703125 1.000000
vt 0.859375 1.000000
vt 0.859375 0.875000
vt 0.703125 0.875000
vt 0.738281 0.414062
vt 0.785156 0.414062
vt 0.785156 0.382812
vt 0.738281 0.382812
vt 0.949219 0.484375
vt 0.996094 0.484375
vt 0.996094 0.453125
vt 0.949219 0.453125
vt 0.597656 0.414062
vt 0.675781 0.414062
vt 0.675781 0.382812
vt 0.597656 0.382812
vt 0.937500 0.578125
vt 0.984375 0.578125
vt 0.984375 0.500000
vt 0.937500 0.500000
vt 0.738281 0.414062
vt 0.785156 0.414062
vt 0.785156 0.382812
vt 0.738281 0.382812
vt 0.949219 0.484375
vt 0.996094 0.484375
vt 0.996094 0.453125
vt 0.949219 0.453125
vt 0.597656 0.414062
vt 0.675781 0.414062
vt 0.675781 0.382812
vt 0.597656 0.382812
vt 0.937500 0.578125
vt 0.984375 0.578125
vt 0.984375 0.500000
vt 0.937500 0.500000
vt 0.730469 0.484375
vt 0.949219 0.484375
vt 0.949219 0.453125
vt 0.730469 0.453125
vt 0.511719 0.484375
vt 0.730469 0.484375
vt 0.730469 0.453125
vt 0.511719 0.453125
vt 0.597656 0.414062
vt 0.675781 0.414062
vt 0.675781 0.382812
vt 0.597656 0.382812
vt 0.597656 0.414062
vt 0.675781 0.414062
vt 0.675781 0.382812
vt 0.597656 0.382812
vt 0.640625 0.578125
vt 0.859375 0.578125
vt 0.859375 0.500000
vt 0.640625 0.500000
vt 0.156250 0.367188
vt 0.281250 0.367188
vt 0.281250 0.351562
vt 0.156250 0.351562
vt 0.875000 0.382812
vt 1.000000 0.382812
vt 1.000000 0.367188
vt 0.875000 0.367188
vt 0.953125 0.414062
vt 1.000000 0.414062
vt 1.000000 0.398438
vt 0.953125 0.398438
vt 0.953125 0.414062
vt 1.000000 0.414062
vt 1.000000 0.398438
vt 0.953125 0.398438
vt 0.195312 0.484375
vt 0.320312 0.484375
vt 0.320312 0.437500
vt 0.195312 0.437500
vt 0.343750 0.351562
vt 0.437500 0.351562
vt 0.437500 0.347656
vt 0.343750 0.347656
vt 0.343750 0.351562
vt 0.437500 0.351562
vt 0.437500 0.347656
vt 0.343750 0.347656
vt 0.437500 0.351562
vt 0.460938 0.351562
vt 0.460938 0.347656
vt 0.437500 0.347656
vt 0.437500 0.351562
vt 0.460938 0.351562
vt 0.460938 0.347656
vt 0.437500 0.347656
vt 0.832031 0.414062
vt 0.925781 0.414062
vt 0.925781 0.390625
vt 0.832031 0.390625
vt 0.160156 0.351562
vt 0.183594 0.351562
vt 0.183594 0.343750
vt 0.160156 0.343750
vt 0.183594 0.351562
vt 0.187500 0.351562
vt 0.187500 0.343750
vt 0.183594 0.343750
vt 0.183594 0.351562
vt 0.187500 0.351562
vt 0.187500 0.343750
vt 0.183594 0.343750
vt 0.460938 0.351562
vt 0.484375 0.351562
vt 0.484375 0.347656
vt 0.460938 0.347656
vt 0.460938 0.351562
vt 0.484375 0.351562
vt 0.484375 0.347656
vt 0.460938 0.347656
vt 0.785156 0.414062
vt 0.816406 0.414062
vt 0.816406 0.382812
vt 0.785156 0.382812
vt 0.785156 0.414062
vt 0.816406 0.414062
vt 0.816406 0.382812
vt 0.785156 0.382812
vt 0.000000 0.414062
vt 0.160156 0.414062
vt 0.160156 0.382812
vt 0.000000 0.382812
vt 0.000000 0.414062
vt 0.160156 0.414062
vt 0.160156 0.382812
vt 0.000000 0.382812
vt 0.484375 1.000000
vt 0.515625 1.000000
vt 0.515625 0.839844
vt 0.484375 0.839844
vt 0.484375 1.000000
vt 0.515625 1.000000
vt 0.515625 0.839844
vt 0.484375 0.839844
vt 0.675781 0.414062
vt 0.738281 0.414062
vt 0.738281 0.382812
vt 0.675781 0.382812
vt 0.675781 0.414062
vt 0.738281 0.414062
vt 0.738281 0.382812
vt 0.675781 0.382812
vt 0.816406 0.414062
vt 0.832031 0.414062
vt 0.832031 0.382812
vt 0.816406 0.382812
vt 0.816406 0.414062
vt 0.832031 0.414062
vt 0.832031 0.382812
vt 0.816406 0.382812
vt 0.562500 0.367188
vt 0.625000 0.367188
vt 0.625000 0.351562
vt 0.562500 0.351562
vt 0.562500 0.367188
vt 0.625000 0.367188
vt 0.625000 0.351562
vt 0.562500 0.351562
vt 0.675781 0.414062
vt 0.738281 0.414062
vt 0.738281 0.382812
vt 0.675781 0.382812
vt 0.675781 0.414062
vt 0.738281 0.414062
vt 0.738281 0.382812
vt 0.675781 0.382812
vt 0.816406 0.414062
vt 0.832031 0.414062
vt 0.832031 0.382812
vt 0.816406 0.382812
vt 0.816406 0.414062
vt 0.832031 0.414062
vt 0.832031 0.382812
vt 0.816406 0.382812
vt 0.562500 0.367188
vt 0.625000 0.367188
vt 0.625000 0.351562
vt 0.562500 0.351562
vt 0.562500 0.367188
vt 0.625000 0.367188
vt 0.625000 0.351562
vt 0.562500 0.351562
vt 0.000000 0.351562
vt 0.125000 0.351562
vt 0.125000 0.339844
vt 0.000000 0.339844
vt 0.000000 0.351562
vt 0.125000 0.351562
vt 0.125000 0.339844
vt 0.000000 0.339844
vt 0.000000 0.351562
vt 0.125000 0.351562
vt 0.125000 0.339844
vt 0.000000 0.339844
vt 0.000000 0.351562
vt 0.125000 0.351562
vt 0.125000 0.339844
vt 0.000000 0.339844
vt 0.859375 1.000000
vt 0.984375 1.000000
vt 0.984375 0.875000
vt 0.859375 0.875000
vt 0.730469 0.687500
vt 0.769531 0.687500
vt 0.769531 0.589844
vt 0.730469 0.589844
vt 0.730469 0.687500
vt 0.769531 0.687500
vt 0.769531 0.589844
vt 0.730469 0.589844
vt 0.769531 0.687500
vt 0.785156 0.687500
vt 0.785156 0.589844
vt 0.769531 0.589844
vt 0.769531 0.687500
vt 0.785156 0.687500
vt 0.785156 0.589844
vt 0.769531 0.589844
vt 0.625000 0.367188
vt 0.664062 0.367188
vt 0.664062 0.351562
vt 0.625000 0.351562
vt 0.730469 0.687500
vt 0.769531 0.687500
vt 0.769531 0.589844
vt 0.730469 0.589844
vt 0.730469 0.687500
vt 0.769531 0.687500
vt 0.769531 0.589844
vt 0.730469 0.589844
vt 0.769531 0.687500
vt 0.785156 0.687500
vt 0.785156 0.589844
vt 0.769531 0.589844
vt 0.769531 0.687500
vt 0.785156 0.687500
vt 0.785156 0.589844
vt 0.769531 0.589844
vt 0.625000 0.367188
vt 0.664062 0.367188
vt 0.664062 0.351562
vt 0.625000 0.351562
vt 0.433594 0.484375
vt 0.472656 0.484375
vt 0.472656 0.445312
vt 0.433594 0.445312
vt 0.433594 0.484375
vt 0.472656 0.484375
vt 0.472656 0.445312
vt 0.433594 0.445312
vt 0.433594 0.484375
vt 0.472656 0.484375
vt 0.472656 0.445312
vt 0.433594 0.445312
vt 0.472656 0.484375
vt 0.511719 0.484375
vt 0.511719 0.445312
vt 0.472656 0.445312
vt 0.433594 0.484375
vt 0.472656 0.484375
vt 0.472656 0.445312
vt 0.433594 0.445312
vt 0.433594 0.484375
vt 0.472656 0.484375
vt 0.472656 0.445312
vt 0.433594 0.445312
vt 0.070312 0.484375
vt 0.109375 0.484375
vt 0.109375 0.414062
vt 0.070312 0.414062
vt 0.070312 0.484375
vt 0.109375 0.484375
vt 0.109375 0.414062
vt 0.070312 0.414062
vt 0.000000 0.484375
vt 0.070312 0.484375
vt 0.070312 0.414062
vt 0.000000 0.414062
vt 0.000000 0.484375
vt 0.070312 0.484375
vt 0.070312 0.414062
vt 0.000000 0.414062
vt 0.070312 0.484375
vt 0.109375 0.484375
vt 0.109375 0.414062
vt 0.070312 0.414062
vt 0.070312 0.484375
vt 0.109375 0.484375
vt 0.109375 0.414062
vt 0.070312 0.414062
vt 0.070312 0.484375
vt 0.109375 0.484375
vt 0.109375 0.414062
vt 0.070312 0.414062
vt 0.070312 0.484375
vt 0.109375 0.484375
vt 0.109375 0.414062
vt 0.070312 0.414062
vt 0.000000 0.484375
vt 0.070312 0.484375
vt 0.070312 0.414062
vt 0.000000 0.414062
vt 0.000000 0.484375
vt 0.070312 0.484375
vt 0.070312 0.414062
vt 0.000000 0.414062
vt 0.070312 0.484375
vt 0.109375 0.484375
vt 0.109375 0.414062
vt 0.070312 0.414062
vt 0.070312 0.484375
vt 0.109375 0.484375
vt 0.109375 0.414062
vt 0.070312 0.414062
vt 0.070312 0.484375
vt 0.109375 0.484375
vt 0.109375 0.414062
vt 0.070312 0.414062
vt 0.070312 0.484375
vt 0.109375 0.484375
vt 0.109375 0.414062
vt 0.070312 0.414062
vt 0.000000 0.484375
vt 0.070312 0.484375
vt 0.070312 0.414062
vt 0.000000 0.414062
vt 0.000000 0.484375
vt 0.070312 0.484375
vt 0.070312 0.414062
vt 0.000000 0.414062
vt 0.070312 0.484375
vt 0.109375 0.484375
vt 0.109375 0.414062
vt 0.070312 0.414062
vt 0.070312 0.484375
vt 0.109375 0.484375
vt 0.109375 0.414062
vt 0.070312 0.414062
vt 0.593750 0.578125
vt 0.640625 0.578125
vt 0.640625 0.492188
vt 0.593750 0.492188
vt 0.593750 0.578125
vt 0.640625 0.578125
vt 0.640625 0.492188
vt 0.593750 0.492188
vt 0.421875 0.578125
vt 0.507812 0.578125
vt 0.507812 0.492188
vt 0.421875 0.492188
vt 0.507812 0.578125
vt 0.593750 0.578125
vt 0.593750 0.492188
vt 0.507812 0.492188
vt 0.593750 0.578125
vt 0.640625 0.578125
vt 0.640625 0.492188
vt 0.593750 0.492188
vt 0.593750 0.578125
vt 0.640625 0.578125
vt 0.640625 0.492188
vt 0.593750 0.492188
vt 0.125000 0.351562
vt 0.140625 0.351562
vt 0.140625 0.339844
vt 0.125000 0.339844
vt 0.125000 0.351562
vt 0.140625 0.351562
vt 0.140625 0.339844
vt 0.125000 0.339844
vt 0.894531 0.367188
vt 0.988281 0.367188
vt 0.988281 0.355469
vt 0.894531 0.355469
vt 0.894531 0.367188
vt 0.988281 0.367188
vt 0.988281 0.355469
vt 0.894531 0.355469
vt 0.972656 0.687500
vt 0.988281 0.687500
vt 0.988281 0.593750
vt 0.972656 0.593750
vt 0.972656 0.687500
vt 0.988281 0.687500
vt 0.988281 0.593750
vt 0.972656 0.593750
vt 0.125000 0.351562
vt 0.140625 0.351562
vt 0.140625 0.339844
vt 0.125000 0.339844
vt 0.125000 0.351562
vt 0.140625 0.351562
vt 0.140625 0.339844
vt 0.125000 0.339844
vt 0.894531 0.367188
vt 0.988281 0.367188
vt 0.988281 0.355469
vt 0.894531 0.355469
vt 0.894531 0.367188
vt 0.988281 0.367188
vt 0.988281 0.355469
vt 0.894531 0.355469
vt 0.972656 0.687500
vt 0.988281 0.687500
vt 0.988281 0.593750
vt 0.972656 0.593750
vt 0.972656 0.687500
vt 0.988281 0.687500
vt 0.988281 0.593750
vt 0.972656 0.593750
vt 0.984375 0.578125
vt 1.000000 0.578125
vt 1.000000 0.507812
vt 0.984375 0.507812
vt 0.984375 0.578125
vt 1.000000 0.578125
vt 1.000000 0.507812
vt 0.984375 0.507812
vt 0.109375 0.484375
vt 0.121094 0.484375
vt 0.121094 0.414062
vt 0.109375 0.414062
vt 0.109375 0.484375
vt 0.121094 0.484375
vt 0.121094 0.414062
vt 0.109375 0.414062
vt 0.140625 0.351562
vt 0.156250 0.351562
vt 0.156250 0.339844
vt 0.140625 0.339844
vt 0.140625 0.351562
vt 0.156250 0.351562
vt 0.156250 0.339844
vt 0.140625 0.339844
vt 0.984375 0.578125
vt 1.000000 0.578125
vt 1.000000 0.507812
vt 0.984375 0.507812
vt 0.984375 0.578125
vt 1.000000 0.578125
vt 1.000000 0.507812
vt 0.984375 0.507812
vt 0.109375 0.484375
vt 0.121094 0.484375
vt 0.121094 0.414062
vt 0.109375 0.414062
vt 0.109375 0.484375
vt 0.121094 0.484375
vt 0.121094 0.414062
vt 0.109375 0.414062
vt 0.140625 0.351562
vt 0.156250 0.351562
vt 0.156250 0.339844
vt 0.140625 0.339844
vt 0.140625 0.351562
vt 0.156250 0.351562
vt 0.156250 0.339844
vt 0.140625 0.339844
vt 0.664062 0.367188
vt 0.691406 0.367188
vt 0.691406 0.351562
vt 0.664062 0.351562
vt 0.664062 0.367188
vt 0.691406 0.367188
vt 0.691406 0.351562
vt 0.664062 0.351562
vt 0.691406 0.367188
vt 0.714844 0.367188
vt 0.714844 0.351562
vt 0.691406 0.351562
vt 0.714844 0.367188
vt 0.738281 0.367188
vt 0.738281 0.351562
vt 0.714844 0.351562
vt 0.925781 0.414062
vt 0.953125 0.414062
vt 0.953125 0.390625
vt 0.925781 0.390625
vt 0.925781 0.414062
vt 0.953125 0.414062
vt 0.953125 0.390625
vt 0.925781 0.390625
vt 0.988281 0.687500
vt 0.996094 0.687500
vt 0.996094 0.609375
vt 0.988281 0.609375
vt 0.988281 0.687500
vt 0.996094 0.687500
vt 0.996094 0.609375
vt 0.988281 0.609375
vt 0.859375 0.578125
vt 0.937500 0.578125
vt 0.937500 0.500000
vt 0.859375 0.500000
vt 0.859375 0.578125
vt 0.937500 0.578125
vt 0.937500 0.500000
vt 0.859375 0.500000
vt 0.988281 0.687500
vt 0.996094 0.687500
vt 0.996094 0.609375
vt 0.988281 0.609375
vt 0.988281 0.687500
vt 0.996094 0.687500
vt 0.996094 0.609375
vt 0.988281 0.609375
vn 0 0 -1
vn 0 0 1
vn -1 0 0
vn 1 0 0
vn 0 1 0
vn 0 -1 0
usemtl observatory
o Base
f 1/1/1 4/4/1 3/3/1 2/2/1
f 5/5/2 8/8/2 7/7/2 6/6/2
f 9/9/3 12/12/3 11/11/3 10/10/3
f 13/13/4 16/16/4 15/15/4 14/14/4
f 17/17/5 20/20/5 19/19/5 18/18/5
f 21/21/1 24/24/1 23/23/1 22/22/1
f 25/25/2 28/28/2 27/27/2 26/26/2
f 29/29/3 32/32/3 31/31/3 30/30/3
f 33/33/5 36/36/5 35/35/5 34/34/5
f 37/37/1 40/40/1 39/39/1 38/38/1
f 41/41/2 44/44/2 43/43/2 42/42/2
f 45/45/4 48/48/4 47/47/4 46/46/4
f 49/49/5 52/52/5 51/51/5 50/50/5
f 53/53/1 56/56/1 55/55/1 54/54/1
f 57/57/2 60/60/2 59/59/2 58/58/2
f 61/61/3 64/64/3 63/63/3 62/62/3
f 65/65/4 68/68/4 67/67/4 66/66/4
f 69/69/5 72/72/5 71/71/5 70/70/5
f 73/73/1 76/76/1 75/75/1 74/74/1
f 77/77/2 80/80/2 79/79/2 78/78/2
f 81/81/3 84/84/3 83/83/3 82/82/3
f 85/85/5 88/88/5 87/87/5 86/86/5
f 89/89/1 92/92/1 91/91/1 90/90/1
f 93/93/2 96/96/2 95/95/2 94/94/2
f 97/97/4 100/100/4 99/99/4 98/98/4
f 101/101/5 104/104/5 103/103/5 102/102/5
f 105/105/1 108/108/1 107/107/1 106/106/1
f 109/109/2 112/112/2 111/111/2 110/110/2
f 113/113/3 116/116/3 115/115/3 114/114/3
f 117/117/4 120/120/4 119/119/4 118/118/4
f 121/121/1 124/124/1 123/123/1 122/122/1
f 125/125/2 128/128/2 127/127/2 126/126/2
f 129/129/3 132/132/3 131/131/3 130/130/3
f 133/133/4 136/136/4 135/135/4 134/134/4
f 137/137/1 140/140/1 139/139/1 138/138/1
f 141/141/2 144/144/2 143/143/2 142/142/2
f 145/145/3 148/148/3 147/147/3 146/146/3
f 149/149/4 152/152/4 151/151/4 150/150/4
f 153/153/1 156/156/1 155/155/1 154/154/1
f 157/157/2 160/160/2 159/159/2 158/158/2
f 161/161/3 164/164/3 163/163/3 162/162/3
f 165/165/4 168/168/4 167/167/4 166/166/4
f 169/169/1 172/172/1 171/171/1 170/170/1
f 173/173/2 176/176/2 175/175/2 174/174/2
f 177/177/3 180/180/3 179/179/3 178/178/3
f 181/181/4 184/184/4 183/183/4 182/182/4
f 185/185/1 188/188/1 187/187/1 186/186/1
f 189/189/2 192/192/2 191/191/2 190/190/2
f 193/193/3 196/196/3 195/195/3 194/194/3
f 197/197/4 200/200/4 199/199/4 198/198/4
f 201/201/1 204/204/1 203/203/1 202/202/1
f 205/205/2 208/208/2 207/207/2 206/206/2
f 209/209/3 212/212/3 211/211/3 210/210/3
f 213/213/4 216/216/4 215/215/4 214/214/4
f 217/217/1 220/220/1 219/219/1 218/218/1
f 221/221/2 224/224/2 223/223/2 222/222/2
f 225/225/3 228/228/3 227/227/3 226/226/3
f 229/229/4 232/232/4 231/231/4 230/230/4
f 233/233/1 236/236/1 235/235/1 234/234/1
f 237/237/2 240/240/2 239/239/2 238/238/2
f 241/241/3 244/244/3 243/243/3 242/242/3
f 245/245/4 248/248/4 247/247/4 246/246/4
f 249/249/1 252/252/1 251/251/1 250/250/1
f 253/253/2 256/256/2 255/255/2 254/254/2
f 257/257/3 260/260/3 259/259/3 258/258/3
f 261/261/4 264/264/4 263/263/4 262/262/4
f 265/265/1 268/268/1 267/267/1 266/266/1
f 269/269/2 272/272/2 271/271/2 270/270/2
f 273/273/3 276/276/3 275/275/3 274/274/3
f 277/277/4 280/280/4 279/279/4 278/278/4
f 281/281/1 284/284/1 283/283/1 282/282/1
f 285/285/2 288/288/2 287/287/2 286/286/2
f 289/289/3 292/292/3 291/291/3 290/290/3
f 293/293/4 296/296/4 295/295/4 294/294/4
f 297/297/1 300/300/1 299/299/1 298/298/1
f 301/301/3 304/304/3 303/303/3 302/302/3
f 305/305/4 308/308/4 307/307/4 306/306/4
f 309/309/5 312/312/5 311/311/5 310/310/5
f 313/313/2 316/316/2 315/315/2 314/314/2
f 317/317/3 320/320/3 319/319/3 318/318/3
f 321/321/4 324/324/4 323/323/4 322/322/4
f 325/325/5 328/328/5 327/327/5 326/326/5
f 329/329/1 332/332/1 331/331/1 330/330/1
f 333/333/3 336/336/3 335/335/3 334/334/3
f 337/337/4 340/340/4 339/339/4 338/338/4
f 341/341/2 344/344/2 343/343/2 342/342/2
f 345/345/3 348/348/3 347/347/3 346/346/3
f 349/349/4 352/352/4 351/351/4 350/350/4
f 353/353/1 356/356/1 355/355/1 354/354/1
f 357/357/2 360/360/2 359/359/2 358/358/2
f 361/361/4 364/364/4 363/363/4 362/362/4
f 365/365/1 368/368/1 367/367/1 366/366/1
f 369/369/2 372/372/2 371/371/2 370/370/2
f 373/373/3 376/376/3 375/375/3 374/374/3
f 377/377/5 380/380/5 379/379/5 378/378/5
f 381/381/6 384/384/6 383/383/6 382/382/6
f 385/385/1 388/388/1 387/387/1 386/386/1
f 389/389/2 392/392/2 391/391/2 390/390/2
f 393/393/3 396/396/3 395/395/3 394/394/3
f 397/397/5 400/400/5 399/399/5 398/398/5
f 401/401/6 404/404/6 403/403/6 402/402/6
f 405/405/1 408/408/1 407/407/1 406/406/1
f 409/409/2 412/412/2 411/411/2 410/410/2
f 413/413/3 416/416/3 415/415/3 414/414/3
f 417/417/5 420/420/5 419/419/5 418/418/5
f 421/421/6 424/424/6 423/423/6 422/422/6
o CasingXMinus
f 425/425/1 428/428/1 427/427/1 426/426/1
f 429/429/2 432/432/2 431/431/2 430/430/2
f 433/433/3 436/436/3 435/435/3 434/434/3
f 437/437/4 440/440/4 439/439/4 438/438/4
f 441/441/1 444/444/1 443/443/1 442/442/1
f 445/445/2 448/448/2 447/447/2 446/446/2
f 449/449/3 452/452/3 451/451/3 450/450/3
f 453/453/1 456/456/1 455/455/1 454/454/1
f 457/457/2 460/460/2 459/459/2 458/458/2
f 461/461/4 464/464/4 463/463/4 462/462/4
f 465/465/1 468/468/1 467/467/1 466/466/1
f 469/469/2 472/472/2 471/471/2 470/470/2
f 473/473/3 476/476/3 475/475/3 474/474/3
f 477/477/4 480/480/4 479/479/4 478/478/4
f 481/481/1 484/484/1 483/483/1 482/482/1
f 485/485/2 488/488/2 487/487/2 486/486/2
f 489/489/3 492/492/3 491/491/3 490/490/3
f 493/493/4 496/496/4 495/495/4 494/494/4
f 497/497/1 500/500/1 499/499/1 498/498/1
f 501/501/2 504/504/2 503/503/2 502/502/2
f 505/505/3 508/508/3 507/507/3 506/506/3
f 509/509/4 512/512/4 511/511/4 510/510/4
f 513/513/1 516/516/1 515/515/1 514/514/1
f 517/517/2 520/520/2 519/519/2 518/518/2
f 521/521/3 524/524/3 523/523/3 522/522/3
f 525/525/4 528/528/4 527/527/4 526/526/4
f 529/529/1 532/532/1 531/531/1 530/530/1
f 533/533/2 536/536/2 535/535/2 534/534/2
f 537/537/3 540/540/3 539/539/3 538/538/3
f 541/541/4 544/544/4 543/543/4 542/542/4
f 545/545/1 548/548/1 547/547/1 546/546/1
f 549/549/2 552/552/2 551/551/2 550/550/2
f 553/553/3 556/556/3 555/555/3 554/554/3
f 557/557/4 560/560/4 559/559/4 558/558/4
f 561/561/1 564/564/1 563/563/1 562/562/1
f 565/565/2 568/568/2 567/567/2 566/566/2
f 569/569/3 572/572/3 571/571/3 570/570/3
f 573/573/4 576/576/4 575/575/4 574/574/4
f 577/577/1 580/580/1 579/579/1 578/578/1
f 581/581/2 584/584/2 583/583/2 582/582/2
f 585/585/3 588/588/3 587/587/3 586/586/3
f 589/589/4 592/592/4 591/591/4 590/590/4
f 593/593/1 596/596/1 595/595/1 594/594/1
f 597/597/2 600/600/2 599/599/2 598/598/2
f 601/601/3 604/604/3 603/603/3 602/602/3
f 605/605/4 608/608/4 607/607/4 606/606/4
f 609/609/5 612/612/5 611/611/5 610/610/5
f 613/613/6 616/616/6 615/615/6 614/614/6
f 617/617/1 620/620/1 619/619/1 618/618/1
f 621/621/2 624/624/2 623/623/2 622/622/2
f 625/625/3 628/628/3 627/627/3 626/626/3
f 629/629/5 632/632/5 631/631/5 630/630/5
f 633/633/6 636/636/6 635/635/6 634/634/6
f 637/637/1 640/640/1 639/639/1 638/638/1
f 641/641/2 644/644/2 643/643/2 642/642/2
f 645/645/4 648/648/4 647/647/4 646/646/4
f 649/649/5 652/652/5 651/651/5 650/650/5
f 653/653/6 656/656/6 655/655/6 654/654/6
f 657/657/1 660/660/1 659/659/1 658/658/1
f 661/661/2 664/664/2 663/663/2 662/662/2
f 665/665/3 668/668/3 667/667/3 666/666/3
f 669/669/4 672/672/4 671/671/4 670/670/4
f 673/673/5 676/676/5 675/675/5 674/674/5
f 677/677/1 680/680/1 679/679/1 678/678/1
f 681/681/2 684/684/2 683/683/2 682/682/2
f 685/685/3 688/688/3 687/687/3 686/686/3
f 689/689/5 692/692/5 691/691/5 690/690/5
f 693/693/1 696/696/1 695/695/1 694/694/1
f 697/697/2 700/700/2 699/699/2 698/698/2
f 701/701/4 704/704/4 703/703/4 702/702/4
f 705/705/5 708/708/5 707/707/5 706/706/5
f 709/709/1 712/712/1 711/711/1 710/710/1
f 713/713/2 716/716/2 715/715/2 714/714/2
f 717/717/3 720/720/3 719/719/3 718/718/3
f 721/721/4 724/724/4 723/723/4 722/722/4
f 725/725/5 728/728/5 727/727/5 726/726/5
f 729/729/1 732/732/1 731/731/1 730/730/1
f 733/733/2 736/736/2 735/735/2 734/734/2
f 737/737/3 740/740/3 739/739/3 738/738/3
f 741/741/4 744/744/4 743/743/4 742/742/4
f 745/745/5 748/748/5 747/747/5 746/746/5
f 749/749/1 752/752/1 751/751/1 750/750/1
f 753/753/2 756/756/2 755/755/2 754/754/2
f 757/757/3 760/760/3 759/759/3 758/758/3
f 761/761/4 764/764/4 763/763/4 762/762/4
f 765/765/5 768/768/5 767/767/5 766/766/5
f 769/769/1 772/772/1 771/771/1 770/770/1
f 773/773/3 776/776/3 775/775/3 774/774/3
f 777/777/4 780/780/4 779/779/4 778/778/4
f 781/781/5 784/784/5 783/783/5 782/782/5
f 785/785/6 788/788/6 787/787/6 786/786/6
o CasingXPlus
f 789/789/1 792/792/1 791/791/1 790/790/1
f 793/793/2 796/796/2 795/795/2 794/794/2
f 797/797/3 800/800/3 799/799/3 798/798/3
f 801/801/4 804/804/4 803/803/4 802/802/4
f 805/805/1 808/808/1 807/807/1 806/806/1
f 809/809/2 812/812/2 811/811/2 810/810/2
f 813/813/3 816/816/3 815/815/3 814/814/3
f 817/817/1 820/820/1 819/819/1 818/818/1
f 821/821/2 824/824/2 823/823/2 822/822/2
f 825/825/4 828/828/4 827/827/4 826/826/4
f 829/829/1 832/832/1 831/831/1 830/830/1
f 833/833/2 836/836/2 835/835/2 834/834/2
f 837/837/3 840/840/3 839/839/3 838/838/3
f 841/841/4 844/844/4 843/843/4 842/842/4
f 845/845/1 848/848/1 847/847/1 846/846/1
f 849/849/2 852/852/2 851/851/2 850/850/2
f 853/853/3 856/856/3 855/855/3 854/854/3
f 857/857/4 860/860/4 859/859/4 858/858/4
f 861/861/1 864/864/1 863/863/1 862/862/1
f 865/865/2 868/868/2 867/867/2 866/866/2
f 869/869/3 872/872/3 871/871/3 870/870/3
f 873/873/4 876/876/4 875/875/4 874/874/4
f 877/877/1 880/880/1 879/879/1 878/878/1
f 881/881/2 884/884/2 883/883/2 882/882/2
f 885/885/3 888/888/3 887/887/3 886/886/3
f 889/889/4 892/892/4 891/891/4 890/890/4
f 893/893/1 896/896/1 895/895/1 894/894/1
f 897/897/2 900/900/2 899/899/2 898/898/2
f 901/901/3 904/904/3 903/903/3 902/902/3
f 905/905/4 908/908/4 907/907/4 906/906/4
f 909/909/1 912/912/1 911/911/1 910/910/1
f 913/913/2 916/916/2 915/915/2 914/914/2
f 917/917/3 920/920/3 919/919/3 918/918/3
f 921/921/4 924/924/4 923/923/4 922/922/4
f 925/925/1 928/928/1 927/927/1 926/926/1
f 929/929/2 932/932/2 931/931/2 930/930/2
f 933/933/3 936/936/3 935/935/3 934/934/3
f 937/937/4 940/940/4 939/939/4 938/938/4
f 941/941/1 944/944/1 943/943/1 942/942/1
f 945/945/2 948/948/2 947/947/2 946/946/2
f 949/949/3 952/952/3 951/951/3 950/950/3
f 953/953/4 956/956/4 955/955/4 954/954/4
f 957/957/1 960/960/1 959/959/1 958/958/1
f 961/961/2 964/964/2 963/963/2 962/962/2
f 965/965/3 968/968/3 967/967/3 966/966/3
f 969/969/4 972/972/4 971/971/4 970/970/4
f 973/973/5 976/976/5 975/975/5 974/974/5
f 977/977/6 980/980/6 979/979/6 978/978/6
f 981/981/1 984/984/1 983/983/1 982/982/1
f 985/985/2 988/988/2 987/987/2 986/986/2
f 989/989/3 992/992/3 991/991/3 990/990/3
f 993/993/5 996/996/5 995/995/5 994/994/5
f 997/997/6 1000/1000/6 999/999/6 998/998/6
f 1001/1001/1 1004/1004/1 1003/1003/1 1002/1002/1
f 1005/1005/2 1008/1008/2 1007/1007/2 1006/1006/2
f 1009/1009/4 1012/1012/4 1011/1011/4 1010/1010/4
f 1013/1013/5 1016/1016/5 1015/1015/5 1014/1014/5
f 1017/1017/6 1020/1020/6 1019/1019/6 1018/1018/6
f 1021/1021/1 1024/1024/1 1023/1023/1 1022/1022/1
f 1025/1025/2 1028/1028/2 1027/1027/2 1026/1026/2
f 1029/1029/3 1032/1032/3 1031/1031/3 1030/1030/3
f 1033/1033/4 1036/1036/4 1035/1035/4 1034/1034/4
f 1037/1037/5 1040/1040/5 1039/1039/5 1038/1038/5
f 1041/1041/1 1044/1044/1 1043/1043/1 1042/1042/1
f 1045/1045/2 1048/1048/2 1047/1047/2 1046/1046/2
f 1049/1049/3 1052/1052/3 1051/1051/3 1050/1050/3
f 1053/1053/5 1056/1056/5 1055/1055/5 1054/1054/5
f 1057/1057/1 1060/1060/1 1059/1059/1 1058/1058/1
f 1061/1061/2 1064/1064/2 1063/1063/2 1062/1062/2
f 1065/1065/4 1068/1068/4 1067/1067/4 1066/1066/4
f 1069/1069/5 1072/1072/5 1071/1071/5 1070/1070/5
f 1073/1073/1 1076/1076/1 1075/1075/1 1074/1074/1
f 1077/1077/2 1080/1080/2 1079/1079/2 1078/1078/2
f 1081/1081/3 1084/1084/3 1083/1083/3 1082/1082/3
f 1085/1085/4 1088/1088/4 1087/1087/4 1086/1086/4
f 1089/1089/5 1092/1092/5 1091/1091/5 1090/1090/5
f 1093/1093/1 1096/1096/1 1095/1095/1 1094/1094/1
f 1097/1097/2 1100/1100/2 1099/1099/2 1098/1098/2
f 1101/1101/3 1104/1104/3 1103/1103/3 1102/1102/3
f 1105/1105/4 1108/1108/4 1107/1107/4 1106/1106/4
f 1109/1109/5 1112/1112/5 1111/1111/5 1110/1110/5
f 1113/1113/1 1116/1116/1 1115/1115/1 1114/1114/1
f 1117/1117/2 1120/1120/2 1119/1119/2 1118/1118/2
f 1121/1121/3 1124/1124/3 1123/1123/3 1122/1122/3
f 1125/1125/4 1128/1128/4 1127/1127/4 1126/1126/4
f 1129/1129/5 1132/1132/5 1131/1131/5 1130/1130/5
f 1133/1133/2 1136/1136/2 1135/1135/2 1134/1134/2
f 1137/1137/3 1140/1140/3 1139/1139/3 1138/1138/3
f 1141/1141/4 1144/1144/4 1143/1143/4 1142/1142/4
f 1145/1145/5 1148/1148/5 1147/1147/5 1146/1146/5
f 1149/1149/6 1152/1152/6 1151/1151/6 1150/1150/6
o Axis
f 1153/1153/1 1156/1156/1 1155/1155/1 1154/1154/1
f 1157/1157/2 1160/1160/2 1159/1159/2 1158/1158/2
f 1161/1161/3 1164/1164/3 1163/1163/3 1162/1162/3
f 1165/1165/4 1168/1168/4 1167/1167/4 1166/1166/4
f 1169/1169/5 1172/1172/5 1171/1171/5 1170/1170/5
f 1173/1173/6 1176/1176/6 1175/1175/6 1174/1174/6
f 1177/1177/1 1180/1180/1 1179/1179/1 1178/1178/1
f 1181/1181/2 1184/1184/2 1183/1183/2 1182/1182/2
f 1185/1185/3 1188/1188/3 1187/1187/3 1186/1186/3
f 1189/1189/4 1192/1192/4 1191/1191/4 1190/1190/4
f 1193/1193/5 1196/1196/5 1195/1195/5 1194/1194/5
f 1197/1197/6 1200/1200/6 1199/1199/6 1198/1198/6
f 1201/1201/1 1204/1204/1 1203/1203/1 1202/1202/1
f 1205/1205/2 1208/1208/2 1207/1207/2 1206/1206/2
f 1209/1209/3 1212/1212/3 1211/1211/3 1210/1210/3
f 1213/1213/4 1216/1216/4 1215/1215/4 1214/1214/4
f 1217/1217/5 1220/1220/5 1219/1219/5 1218/1218/5
f 1221/1221/6 1224/1224/6 1223/1223/6 1222/1222/6
o Scope
f 1225/1225/1 1228/1228/1 1227/1227/1 1226/1226/1
f 1229/1229/2 1232/1232/2 1231/1231/2 1230/1230/2
f 1233/1233/3 1236/1236/3 1235/1235/3 1234/1234/3
f 1237/1237/4 1240/1240/4 1239/1239/4 1238/1238/4
f 1241/1241/5 1244/1244/5 1243/1243/5 1242/1242/5
f 1245/1245/1 1248/1248/1 1247/1247/1 1246/1246/1
f 1249/1249/2 1252/1252/2 1251/1251/2 1250/1250/2
f 1253/1253/3 1256/1256/3 1255/1255/3 1254/1254/3
f 1257/1257/4 1260/1260/4 1259/1259/4 1258/1258/4
f 1261/1261/5 1264/1264/5 1263/1263/5 1262/1262/5
f 1265/1265/1 1268/1268/1 1267/1267/1 1266/1266/1
f 1269/1269/2 1272/1272/2 1271/1271/2 1270/1270/2
f 1273/1273/3 1276/1276/3 1275/1275/3 1274/1274/3
f 1277/1277/4 1280/1280/4 1279/1279/4 1278/1278/4
f 1281/1281/5 1284/1284/5 1283/1283/5 1282/1282/5
f 1285/1285/1 1288/1288/1 1287/1287/1 1286/1286/1
f 1289/1289/2 1292/1292/2 1291/1291/2 1290/1290/2
f 1293/1293/3 1296/1296/3 1295/1295/3 1294/1294/3
f 1297/1297/4 1300/1300/4 1299/1299/4 1298/1298/4
f 1301/1301/5 1304/1304/5 1303/1303/5 1302/1302/5
f 1305/1305/6 1308/1308/6 1307/1307/6 1306/1306/6
f 1309/1309/1 1312/1312/1 1311/1311/1 1310/1310/1
f 1313/1313/2 1316/1316/2 1315/1315/2 1314/1314/2
f 1317/1317/3 1320/1320/3 1319/1319/3 1318/1318/3
f 1321/1321/4 1324/1324/4 1323/1323/4 1322/1322/4
f 1325/1325/5 1328/1328/5 1327/1327/5 1326/1326/5
f 1329/1329/6 1332/1332/6 1331/1331/6 1330/1330/6
f 1333/1333/1 1336/1336/1 1335/1335/1 1334/1334/1
f 1337/1337/2 1340/1340/2 1339/1339/2 1338/1338/2
f 1341/1341/3 1344/1344/3 1343/1343/3 1342/1342/3
f 1345/1345/4 1348/1348/4 1347/1347/4 1346/1346/4
f 1349/1349/5 1352/1352/5 1351/1351/5 1350/1350/5
f 1353/1353/6 1356/1356/6 1355/1355/6 1354/1354/6
f 1357/1357/1 1360/1360/1 1359/1359/1 1358/1358/1
f 1361/1361/2 1364/1364/2 1363/1363/2 1362/1362/2
f 1365/1365/3 1368/1368/3 1367/1367/3 1366/1366/3
f 1369/1369/4 1372/1372/4 1371/1371/4 1370/1370/4
f 1373/1373/5 1376/1376/5 1375/1375/5 1374/1374/5
f 1377/1377/6 1380/1380/6 1379/1379/6 1378/1378/6
f 1381/1381/1 1384/1384/1 1383/1383/1 1382/1382/1
f 1385/1385/2 1388/1388/2 1387/1387/2 1386/1386/2
f 1549/1389/3 1550/1392/3 1551/1391/3 1552/1390/3
f 1393/1393/4 1396/1396/4 1395/1395/4 1394/1394/4
f 1397/1397/5 1400/1400/5 1399/1399/5 1398/1398/5
f 1401/1401/6 1404/1404/6 1403/1403/6 1402/1402/6
f 1405/1405/1 1408/1408/1 1407/1407/1 1406/1406/1
f 1409/1409/2 1412/1412/2 1411/1411/2 1410/1410/2
f 1413/1413/3 1416/1416/3 1415/1415/3 1414/1414/3
f 1417/1417/4 1420/1420/4 1419/1419/4 1418/1418/4
f 1421/1421/5 1424/1424/5 1423/1423/5 1422/1422/5
f 1425/1425/6 1428/1428/6 1427/1427/6 1426/1426/6
f 1429/1429/1 1432/1432/1 1431/1431/1 1430/1430/1
f 1433/1433/2 1436/1436/2 1435/1435/2 1434/1434/2
f 1437/1437/3 1440/1440/3 1439/1439/3 1438/1438/3
f 1441/1441/4 1444/1444/4 1443/1443/4 1442/1442/4
f 1445/1445/5 1448/1448/5 1447/1447/5 1446/1446/5
f 1449/1449/6 1452/1452/6 1451/1451/6 1450/1450/6
f 1453/1453/1 1456/1456/1 1455/1455/1 1454/1454/1
f 1457/1457/2 1460/1460/2 1459/1459/2 1458/1458/2
f 1461/1461/3 1464/1464/3 1463/1463/3 1462/1462/3
f 1465/1465/4 1468/1468/4 1467/1467/4 1466/1466/4
f 1469/1469/5 1472/1472/5 1471/1471/5 1470/1470/5
f 1473/1473/6 1476/1476/6 1475/1475/6 1474/1474/6
f 1477/1477/1 1480/1480/1 1479/1479/1 1478/1478/1
f 1481/1481/2 1484/1484/2 1483/1483/2 1482/1482/2
f 1485/1485/3 1488/1488/3 1487/1487/3 1486/1486/3
f 1489/1489/4 1492/1492/4 1491/1491/4 1490/1490/4
f 1493/1493/5 1496/1496/5 1495/1495/5 1494/1494/5
f 1497/1497/6 1500/1500/6 1499/1499/6 1498/1498/6
f 1501/1501/1 1504/1504/1 1503/1503/1 1502/1502/1
f 1505/1505/2 1508/1508/2 1507/1507/2 1506/1506/2
f 1509/1509/3 1512/1512/3 1511/1511/3 1510/1510/3
f 1513/1513/4 1516/1516/4 1515/1515/4 1514/1514/4
f 1517/1517/5 1520/1520/5 1519/1519/5 1518/1518/5
f 1521/1521/6 1524/1524/6 1523/1523/6 1522/1522/6
f 1525/1525/1 1528/1528/1 1527/1527/1 1526/1526/1
f 1529/1529/2 1532/1532/2 1531/1531/2 1530/1530/2
f 1533/1533/3 1536/1536/3 1535/1535/3 1534/1534/3
f 1537/1537/4 1540/1540/4 1539/1539/4 1538/1538/4
f 1541/1541/5 1544/1544/5 1543/1543/5 1542/1542/5
f 1545/1545/6 1548/1548/6 1547/1547/6 1546/1546/6
