# orbital_laser generated by machinegen.py
mtllib orbital_laser.mtl
usemtl orbital_laser
vn 0 0 -1
vn 0 0 1
vn -1 0 0
vn 1 0 0
vn 0 1 0
vn 0 -1 0
o Hull
v -1.000000 0.187500 0.000000
v -5.000000 0.187500 0.000000
v -5.000000 0.000000 0.000000
v -1.000000 0.000000 0.000000
vt 0.500000 0.332031
vt 0.750000 0.332031
vt 0.750000 0.320312
vt 0.500000 0.320312
f 1/1/1 4/4/1 3/3/1 2/2/1
v -5.000000 0.187500 4.000000
v -1.000000 0.187500 4.000000
v -1.000000 0.000000 4.000000
v -5.000000 0.000000 4.000000
vt 0.500000 0.332031
vt 0.750000 0.332031
vt 0.750000 0.320312
vt 0.500000 0.320312
f 5/5/2 8/8/2 7/7/2 6/6/2
v -5.000000 0.187500 0.000000
v -5.000000 0.187500 4.000000
v -5.000000 0.000000 4.000000
v -5.000000 0.000000 0.000000
vt 0.500000 0.332031
vt 0.750000 0.332031
vt 0.750000 0.320312
vt 0.500000 0.320312
f 9/9/3 12/12/3 11/11/3 10/10/3
v -1.000000 0.187500 4.000000
v -1.000000 0.187500 0.000000
v -1.000000 0.000000 0.000000
v -1.000000 0.000000 4.000000
vt 0.500000 0.332031
vt 0.750000 0.332031
vt 0.750000 0.320312
vt 0.500000 0.320312
f 13/13/4 16/16/4 15/15/4 14/14/4
v -5.000000 0.187500 0.000000
v -1.000000 0.187500 0.000000
v -1.000000 0.187500 4.000000
v -5.000000 0.187500 4.000000
vt 0.000000 1.000000
vt 0.250000 1.000000
vt 0.250000 0.750000
vt 0.000000 0.750000
f 17/17/5 20/20/5 19/19/5 18/18/5
v -1.000000 2.000000 0.000000
v -5.000000 2.000000 0.000000
v -5.000000 0.187500 0.000000
v -1.000000 0.187500 0.000000
vt 0.570312 0.750000
vt 0.820312 0.750000
vt 0.820312 0.636719
vt 0.570312 0.636719
f 21/21/1 24/24/1 23/23/1 22/22/1
v -5.000000 2.000000 0.750000
v -1.000000 2.000000 0.750000
v -1.000000 0.187500 0.750000
v -5.000000 0.187500 0.750000
vt 0.000000 0.625000
vt 0.250000 0.625000
vt 0.250000 0.511719
vt 0.000000 0.511719
f 25/25/2 28/28/2 27/27/2 26/26/2
v -5.000000 2.000000 0.000000
v -5.000000 2.000000 0.750000
v -5.000000 0.187500 0.750000
v -5.000000 0.187500 0.000000
vt 0.820312 0.750000
vt 0.867188 0.750000
vt 0.867188 0.636719
vt 0.820312 0.636719
f 29/29/3 32/32/3 31/31/3 30/30/3
v -1.000000 2.000000 0.750000
v -1.000000 2.000000 0.000000
v -1.000000 0.187500 0.000000
v -1.000000 0.187500 0.750000
vt 0.820312 0.750000
vt 0.867188 0.750000
vt 0.867188 0.636719
vt 0.820312 0.636719
f 33/33/4 36/36/4 35/35/4 34/34/4
v -5.000000 2.000000 0.000000
v -1.000000 2.000000 0.000000
v -1.000000 2.000000 0.750000
v -5.000000 2.000000 0.750000
vt 0.000000 0.410156
vt 0.250000 0.410156
vt 0.250000 0.363281
vt 0.000000 0.363281
f 37/37/5 40/40/5 39/39/5 38/38/5
v -1.000000 2.000000 3.750000
v -5.000000 2.000000 3.750000
v -5.000000 0.187500 3.750000
v -1.000000 0.187500 3.750000
vt 0.250000 0.625000
vt 0.500000 0.625000
vt 0.500000 0.511719
vt 0.250000 0.511719
f 41/41/1 44/44/1 43/43/1 42/42/1
v -5.000000 2.000000 4.000000
v -1.000000 2.000000 4.000000
v -1.000000 0.187500 4.000000
v -5.000000 0.187500 4.000000
vt 0.500000 0.625000
vt 0.750000 0.625000
vt 0.750000 0.511719
vt 0.500000 0.511719
f 45/45/2 48/48/2 47/47/2 46/46/2
v -5.000000 2.000000 3.750000
v -5.000000 2.000000 4.000000
v -5.000000 0.187500 4.000000
v -5.000000 0.187500 3.750000
vt 0.976562 1.000000
vt 0.992188 1.000000
vt 0.992188 0.886719
vt 0.976562 0.886719
f 49/49/3 52/52/3 51/51/3 50/50/3
v -1.000000 2.000000 4.000000
v -1.000000 2.000000 3.750000
v -1.000000 0.187500 3.750000
v -1.000000 0.187500 4.000000
vt 0.976562 1.000000
vt 0.992188 1.000000
vt 0.992188 0.886719
vt 0.976562 0.886719
f 53/53/4 56/56/4 55/55/4 54/54/4
v -5.000000 2.000000 3.750000
v -1.000000 2.000000 3.750000
v -1.000000 2.000000 4.000000
v -5.000000 2.000000 4.000000
vt 0.570312 0.363281
vt 0.820312 0.363281
vt 0.820312 0.347656
vt 0.570312 0.347656
f 57/57/5 60/60/5 59/59/5 58/58/5
v -4.875000 0.937500 0.750000
v -4.875000 0.937500 3.750000
v -4.875000 0.187500 3.750000
v -4.875000 0.187500 0.750000
vt 0.250000 0.410156
vt 0.437500 0.410156
vt 0.437500 0.363281
vt 0.250000 0.363281
f 61/61/3 64/64/3 63/63/3 62/62/3
v -4.125000 0.937500 3.750000
v -4.125000 0.937500 0.750000
v -4.125000 0.187500 0.750000
v -4.125000 0.187500 3.750000
vt 0.250000 0.410156
vt 0.437500 0.410156
vt 0.437500 0.363281
vt 0.250000 0.363281
f 65/65/4 68/68/4 67/67/4 66/66/4
v -4.875000 0.937500 0.750000
v -4.125000 0.937500 0.750000
v -4.125000 0.937500 3.750000
v -4.875000 0.937500 3.750000
vt 0.726562 1.000000
vt 0.773438 1.000000
vt 0.773438 0.812500
vt 0.726562 0.812500
f 69/69/5 72/72/5 71/71/5 70/70/5
v -4.875000 1.750000 0.750000
v -4.875000 1.750000 3.750000
v -4.875000 1.000000 3.750000
v -4.875000 1.000000 0.750000
vt 0.250000 0.410156
vt 0.437500 0.410156
vt 0.437500 0.363281
vt 0.250000 0.363281
f 73/73/3 76/76/3 75/75/3 74/74/3
v -4.125000 1.750000 3.750000
v -4.125000 1.750000 0.750000
v -4.125000 1.000000 0.750000
v -4.125000 1.000000 3.750000
vt 0.250000 0.410156
vt 0.437500 0.410156
vt 0.437500 0.363281
vt 0.250000 0.363281
f 77/77/4 80/80/4 79/79/4 78/78/4
v -4.875000 1.750000 0.750000
v -4.125000 1.750000 0.750000
v -4.125000 1.750000 3.750000
v -4.875000 1.750000 3.750000
vt 0.726562 1.000000
vt 0.773438 1.000000
vt 0.773438 0.812500
vt 0.726562 0.812500
f 81/81/5 84/84/5 83/83/5 82/82/5
v -4.875000 1.000000 3.750000
v -4.125000 1.000000 3.750000
v -4.125000 1.000000 0.750000
v -4.875000 1.000000 0.750000
vt 0.726562 1.000000
vt 0.773438 1.000000
vt 0.773438 0.812500
vt 0.726562 0.812500
f 85/85/6 88/88/6 87/87/6 86/86/6
v -3.375000 0.937500 0.750000
v -3.375000 0.937500 3.750000
v -3.375000 0.187500 3.750000
v -3.375000 0.187500 0.750000
vt 0.250000 0.410156
vt 0.437500 0.410156
vt 0.437500 0.363281
vt 0.250000 0.363281
f 89/89/3 92/92/3 91/91/3 90/90/3
v -2.625000 0.937500 3.750000
v -2.625000 0.937500 0.750000
v -2.625000 0.187500 0.750000
v -2.625000 0.187500 3.750000
vt 0.250000 0.410156
vt 0.437500 0.410156
vt 0.437500 0.363281
vt 0.250000 0.363281
f 93/93/4 96/96/4 95/95/4 94/94/4
v -3.375000 0.937500 0.750000
v -2.625000 0.937500 0.750000
v -2.625000 0.937500 3.750000
v -3.375000 0.937500 3.750000
vt 0.726562 1.000000
vt 0.773438 1.000000
vt 0.773438 0.812500
vt 0.726562 0.812500
f 97/97/5 100/100/5 99/99/5 98/98/5
v -3.375000 1.750000 0.750000
v -3.375000 1.750000 3.750000
v -3.375000 1.000000 3.750000
v -3.375000 1.000000 0.750000
vt 0.250000 0.410156
vt 0.437500 0.410156
vt 0.437500 0.363281
vt 0.250000 0.363281
f 101/101/3 104/104/3 103/103/3 102/102/3
v -2.625000 1.750000 3.750000
v -2.625000 1.750000 0.750000
v -2.625000 1.000000 0.750000
v -2.625000 1.000000 3.750000
vt 0.250000 0.410156
vt 0.437500 0.410156
vt 0.437500 0.363281
vt 0.250000 0.363281
f 105/105/4 108/108/4 107/107/4 106/106/4
v -3.375000 1.750000 0.750000
v -2.625000 1.750000 0.750000
v -2.625000 1.750000 3.750000
v -3.375000 1.750000 3.750000
vt 0.726562 1.000000
vt 0.773438 1.000000
vt 0.773438 0.812500
vt 0.726562 0.812500
f 109/109/5 112/112/5 111/111/5 110/110/5
v -3.375000 1.000000 3.750000
v -2.625000 1.000000 3.750000
v -2.625000 1.000000 0.750000
v -3.375000 1.000000 0.750000
vt 0.726562 1.000000
vt 0.773438 1.000000
vt 0.773438 0.812500
vt 0.726562 0.812500
f 113/113/6 116/116/6 115/115/6 114/114/6
v -1.875000 0.937500 0.750000
v -1.875000 0.937500 3.750000
v -1.875000 0.187500 3.750000
v -1.875000 0.187500 0.750000
vt 0.250000 0.410156
vt 0.437500 0.410156
vt 0.437500 0.363281
vt 0.250000 0.363281
f 117/117/3 120/120/3 119/119/3 118/118/3
v -1.125000 0.937500 3.750000
v -1.125000 0.937500 0.750000
v -1.125000 0.187500 0.750000
v -1.125000 0.187500 3.750000
vt 0.250000 0.410156
vt 0.437500 0.410156
vt 0.437500 0.363281
vt 0.250000 0.363281
f 121/121/4 124/124/4 123/123/4 122/122/4
v -1.875000 0.937500 0.750000
v -1.125000 0.937500 0.750000
v -1.125000 0.937500 3.750000
v -1.875000 0.937500 3.750000
vt 0.726562 1.000000
vt 0.773438 1.000000
vt 0.773438 0.812500
vt 0.726562 0.812500
f 125/125/5 128/128/5 127/127/5 126/126/5
v -1.875000 1.750000 0.750000
v -1.875000 1.750000 3.750000
v -1.875000 1.000000 3.750000
v -1.875000 1.000000 0.750000
vt 0.250000 0.410156
vt 0.437500 0.410156
vt 0.437500 0.363281
vt 0.250000 0.363281
f 129/129/3 132/132/3 131/131/3 130/130/3
v -1.125000 1.750000 3.750000
v -1.125000 1.750000 0.750000
v -1.125000 1.000000 0.750000
v -1.125000 1.000000 3.750000
vt 0.250000 0.410156
vt 0.437500 0.410156
vt 0.437500 0.363281
vt 0.250000 0.363281
f 133/133/4 136/136/4 135/135/4 134/134/4
v -1.875000 1.750000 0.750000
v -1.125000 1.750000 0.750000
v -1.125000 1.750000 3.750000
v -1.875000 1.750000 3.750000
vt 0.726562 1.000000
vt 0.773438 1.000000
vt 0.773438 0.812500
vt 0.726562 0.812500
f 137/137/5 140/140/5 139/139/5 138/138/5
v -1.875000 1.000000 3.750000
v -1.125000 1.000000 3.750000
v -1.125000 1.000000 0.750000
v -1.875000 1.000000 0.750000
vt 0.726562 1.000000
vt 0.773438 1.000000
vt 0.773438 0.812500
vt 0.726562 0.812500
f 141/141/6 144/144/6 143/143/6 142/142/6
v -5.000000 2.000000 0.750000
v -5.000000 2.000000 3.750000
v -5.000000 1.812500 3.750000
v -5.000000 1.812500 0.750000
vt 0.750000 0.332031
vt 0.937500 0.332031
vt 0.937500 0.320312
vt 0.750000 0.320312
f 145/145/3 148/148/3 147/147/3 146/146/3
v -4.812500 2.000000 3.750000
v -4.812500 2.000000 0.750000
v -4.812500 1.812500 0.750000
v -4.812500 1.812500 3.750000
vt 0.750000 0.332031
vt 0.937500 0.332031
vt 0.937500 0.320312
vt 0.750000 0.320312
f 149/149/4 152/152/4 151/151/4 150/150/4
v -5.000000 2.000000 0.750000
v -4.812500 2.000000 0.750000
v -4.812500 2.000000 3.750000
v -5.000000 2.000000 3.750000
vt 0.773438 1.000000
vt 0.785156 1.000000
vt 0.785156 0.812500
vt 0.773438 0.812500
f 153/153/5 156/156/5 155/155/5 154/154/5
v -5.000000 1.812500 3.750000
v -4.812500 1.812500 3.750000
v -4.812500 1.812500 0.750000
v -5.000000 1.812500 0.750000
vt 0.773438 1.000000
vt 0.785156 1.000000
vt 0.785156 0.812500
vt 0.773438 0.812500
f 157/157/6 160/160/6 159/159/6 158/158/6
v -1.187500 2.000000 0.750000
v -1.187500 2.000000 3.750000
v -1.187500 1.812500 3.750000
v -1.187500 1.812500 0.750000
vt 0.750000 0.332031
vt 0.937500 0.332031
vt 0.937500 0.320312
vt 0.750000 0.320312
f 161/161/3 164/164/3 163/163/3 162/162/3
v -1.000000 2.000000 3.750000
v -1.000000 2.000000 0.750000
v -1.000000 1.812500 0.750000
v -1.000000 1.812500 3.750000
vt 0.750000 0.332031
vt 0.937500 0.332031
vt 0.937500 0.320312
vt 0.750000 0.320312
f 165/165/4 168/168/4 167/167/4 166/166/4
v -1.187500 2.000000 0.750000
v -1.000000 2.000000 0.750000
v -1.000000 2.000000 3.750000
v -1.187500 2.000000 3.750000
vt 0.773438 1.000000
vt 0.785156 1.000000
vt 0.785156 0.812500
vt 0.773438 0.812500
f 169/169/5 172/172/5 171/171/5 170/170/5
v -1.187500 1.812500 3.750000
v -1.000000 1.812500 3.750000
v -1.000000 1.812500 0.750000
v -1.187500 1.812500 0.750000
vt 0.773438 1.000000
vt 0.785156 1.000000
vt 0.785156 0.812500
vt 0.773438 0.812500
f 173/173/6 176/176/6 175/175/6 174/174/6
v -4.812500 1.812500 0.750000
v -5.000000 1.812500 0.750000
v -5.000000 0.187500 0.750000
v -4.812500 0.187500 0.750000
vt 0.914062 0.750000
vt 0.925781 0.750000
vt 0.925781 0.648438
vt 0.914062 0.648438
f 177/177/1 180/180/1 179/179/1 178/178/1
v -5.000000 1.812500 0.937500
v -4.812500 1.812500 0.937500
v -4.812500 0.187500 0.937500
v -5.000000 0.187500 0.937500
vt 0.914062 0.750000
vt 0.925781 0.750000
vt 0.925781 0.648438
vt 0.914062 0.648438
f 181/181/2 184/184/2 183/183/2 182/182/2
v -5.000000 1.812500 0.750000
v -5.000000 1.812500 0.937500
v -5.000000 0.187500 0.937500
v -5.000000 0.187500 0.750000
vt 0.914062 0.750000
vt 0.925781 0.750000
vt 0.925781 0.648438
vt 0.914062 0.648438
f 185/185/3 188/188/3 187/187/3 186/186/3
v -4.812500 1.812500 0.937500
v -4.812500 1.812500 0.750000
v -4.812500 0.187500 0.750000
v -4.812500 0.187500 0.937500
vt 0.914062 0.750000
vt 0.925781 0.750000
vt 0.925781 0.648438
vt 0.914062 0.648438
f 189/189/4 192/192/4 191/191/4 190/190/4
v -5.000000 1.812500 0.750000
v -4.812500 1.812500 0.750000
v -4.812500 1.812500 0.937500
v -5.000000 1.812500 0.937500
vt 0.988281 0.410156
vt 1.000000 0.410156
vt 1.000000 0.398438
vt 0.988281 0.398438
f 193/193/5 196/196/5 195/195/5 194/194/5
v -1.000000 1.812500 0.750000
v -1.187500 1.812500 0.750000
v -1.187500 0.187500 0.750000
v -1.000000 0.187500 0.750000
vt 0.914062 0.750000
vt 0.925781 0.750000
vt 0.925781 0.648438
vt 0.914062 0.648438
f 197/197/1 200/200/1 199/199/1 198/198/1
v -1.187500 1.812500 0.937500
v -1.000000 1.812500 0.937500
v -1.000000 0.187500 0.937500
v -1.187500 0.187500 0.937500
vt 0.914062 0.750000
vt 0.925781 0.750000
vt 0.925781 0.648438
vt 0.914062 0.648438
f 201/201/2 204/204/2 203/203/2 202/202/2
v -1.187500 1.812500 0.750000
v -1.187500 1.812500 0.937500
v -1.187500 0.187500 0.937500
v -1.187500 0.187500 0.750000
vt 0.914062 0.750000
vt 0.925781 0.750000
vt 0.925781 0.648438
vt 0.914062 0.648438
f 205/205/3 208/208/3 207/207/3 206/206/3
v -1.000000 1.812500 0.937500
v -1.000000 1.812500 0.750000
v -1.000000 0.187500 0.750000
v -1.000000 0.187500 0.937500
vt 0.914062 0.750000
vt 0.925781 0.750000
vt 0.925781 0.648438
vt 0.914062 0.648438
f 209/209/4 212/212/4 211/211/4 210/210/4
v -1.187500 1.812500 0.750000
v -1.000000 1.812500 0.750000
v -1.000000 1.812500 0.937500
v -1.187500 1.812500 0.937500
vt 0.988281 0.410156
vt 1.000000 0.410156
vt 1.000000 0.398438
vt 0.988281 0.398438
f 213/213/5 216/216/5 215/215/5 214/214/5
v -4.812500 1.812500 3.562500
v -5.000000 1.812500 3.562500
v -5.000000 0.187500 3.562500
v -4.812500 0.187500 3.562500
vt 0.914062 0.750000
vt 0.925781 0.750000
vt 0.925781 0.648438
vt 0.914062 0.648438
f 217/217/1 220/220/1 219/219/1 218/218/1
v -5.000000 1.812500 3.750000
v -4.812500 1.812500 3.750000
v -4.812500 0.187500 3.750000
v -5.000000 0.187500 3.750000
vt 0.914062 0.750000
vt 0.925781 0.750000
vt 0.925781 0.648438
vt 0.914062 0.648438
f 221/221/2 224/224/2 223/223/2 222/222/2
v -5.000000 1.812500 3.562500
v -5.000000 1.812500 3.750000
v -5.000000 0.187500 3.750000
v -5.000000 0.187500 3.562500
vt 0.914062 0.750000
vt 0.925781 0.750000
vt 0.925781 0.648438
vt 0.914062 0.648438
f 225/225/3 228/228/3 227/227/3 226/226/3
v -4.812500 1.812500 3.750000
v -4.812500 1.812500 3.562500
v -4.812500 0.187500 3.562500
v -4.812500 0.187500 3.750000
vt 0.914062 0.750000
vt 0.925781 0.750000
vt 0.925781 0.648438
vt 0.914062 0.648438
f 229/229/4 232/232/4 231/231/4 230/230/4
v -5.000000 1.812500 3.562500
v -4.812500 1.812500 3.562500
v -4.812500 1.812500 3.750000
v -5.000000 1.812500 3.750000
vt 0.988281 0.410156
vt 1.000000 0.410156
vt 1.000000 0.398438
vt 0.988281 0.398438
f 233/233/5 236/236/5 235/235/5 234/234/5
v -1.000000 1.812500 3.562500
v -1.187500 1.812500 3.562500
v -1.187500 0.187500 3.562500
v -1.000000 0.187500 3.562500
vt 0.914062 0.750000
vt 0.925781 0.750000
vt 0.925781 0.648438
vt 0.914062 0.648438
f 237/237/1 240/240/1 239/239/1 238/238/1
v -1.187500 1.812500 3.750000
v -1.000000 1.812500 3.750000
v -1.000000 0.187500 3.750000
v -1.187500 0.187500 3.750000
vt 0.914062 0.750000
vt 0.925781 0.750000
vt 0.925781 0.648438
vt 0.914062 0.648438
f 241/241/2 244/244/2 243/243/2 242/242/2
v -1.187500 1.812500 3.562500
v -1.187500 1.812500 3.750000
v -1.187500 0.187500 3.750000
v -1.187500 0.187500 3.562500
vt 0.914062 0.750000
vt 0.925781 0.750000
vt 0.925781 0.648438
vt 0.914062 0.648438
f 245/245/3 248/248/3 247/247/3 246/246/3
v -1.000000 1.812500 3.750000
v -1.000000 1.812500 3.562500
v -1.000000 0.187500 3.562500
v -1.000000 0.187500 3.750000
vt 0.914062 0.750000
vt 0.925781 0.750000
vt 0.925781 0.648438
vt 0.914062 0.648438
f 249/249/4 252/252/4 251/251/4 250/250/4
v -1.187500 1.812500 3.562500
v -1.000000 1.812500 3.562500
v -1.000000 1.812500 3.750000
v -1.187500 1.812500 3.750000
vt 0.988281 0.410156
vt 1.000000 0.410156
vt 1.000000 0.398438
vt 0.988281 0.398438
f 253/253/5 256/256/5 255/255/5 254/254/5
v -4.812500 1.937500 0.750000
v -1.187500 1.937500 0.750000
v -1.187500 1.937500 3.750000
v -4.812500 1.937500 3.750000
vt 0.500000 1.000000
vt 0.726562 1.000000
vt 0.726562 0.812500
vt 0.500000 0.812500
f 257/257/5 260/260/5 259/259/5 258/258/5
v -4.812500 1.906250 3.750000
v -1.187500 1.906250 3.750000
v -1.187500 1.906250 0.750000
v -4.812500 1.906250 0.750000
vt 0.500000 1.000000
vt 0.726562 1.000000
vt 0.726562 0.812500
vt 0.500000 0.812500
f 261/261/6 264/264/6 263/263/6 262/262/6
v -4.937500 1.812500 0.937500
v -4.937500 1.812500 3.562500
v -4.937500 0.187500 3.562500
v -4.937500 0.187500 0.937500
vt 0.750000 0.625000
vt 0.914062 0.625000
vt 0.914062 0.523438
vt 0.750000 0.523438
f 265/265/3 268/268/3 267/267/3 266/266/3
v -4.906250 1.812500 3.562500
v -4.906250 1.812500 0.937500
v -4.906250 0.187500 0.937500
v -4.906250 0.187500 3.562500
vt 0.750000 0.625000
vt 0.914062 0.625000
vt 0.914062 0.523438
vt 0.750000 0.523438
f 269/269/4 272/272/4 271/271/4 270/270/4
v -1.093750 1.812500 0.937500
v -1.093750 1.812500 3.562500
v -1.093750 0.187500 3.562500
v -1.093750 0.187500 0.937500
vt 0.750000 0.625000
vt 0.914062 0.625000
vt 0.914062 0.523438
vt 0.750000 0.523438
f 273/273/3 276/276/3 275/275/3 274/274/3
v -1.062500 1.812500 3.562500
v -1.062500 1.812500 0.937500
v -1.062500 0.187500 0.937500
v -1.062500 0.187500 3.562500
vt 0.750000 0.625000
vt 0.914062 0.625000
vt 0.914062 0.523438
vt 0.750000 0.523438
f 277/277/4 280/280/4 279/279/4 278/278/4
v -0.937500 2.062500 1.625000
v -5.062500 2.062500 1.625000
v -5.062500 0.187500 1.625000
v -0.937500 0.187500 1.625000
vt 0.062500 0.750000
vt 0.320312 0.750000
vt 0.320312 0.632812
vt 0.062500 0.632812
f 281/281/1 284/284/1 283/283/1 282/282/1
v -5.062500 2.062500 1.875000
v -0.937500 2.062500 1.875000
v -0.937500 0.187500 1.875000
v -5.062500 0.187500 1.875000
vt 0.062500 0.750000
vt 0.320312 0.750000
vt 0.320312 0.632812
vt 0.062500 0.632812
f 285/285/2 288/288/2 287/287/2 286/286/2
v -5.062500 2.062500 1.625000
v -5.062500 2.062500 1.875000
v -5.062500 0.187500 1.875000
v -5.062500 0.187500 1.625000
vt 0.960938 1.000000
vt 0.976562 1.000000
vt 0.976562 0.882812
vt 0.960938 0.882812
f 289/289/3 292/292/3 291/291/3 290/290/3
v -0.937500 2.062500 1.875000
v -0.937500 2.062500 1.625000
v -0.937500 0.187500 1.625000
v -0.937500 0.187500 1.875000
vt 0.960938 1.000000
vt 0.976562 1.000000
vt 0.976562 0.882812
vt 0.960938 0.882812
f 293/293/4 296/296/4 295/295/4 294/294/4
v -5.062500 2.062500 1.625000
v -0.937500 2.062500 1.625000
v -0.937500 2.062500 1.875000
v -5.062500 2.062500 1.875000
vt 0.312500 0.363281
vt 0.570312 0.363281
vt 0.570312 0.347656
vt 0.312500 0.347656
f 297/297/5 300/300/5 299/299/5 298/298/5
v -0.937500 2.062500 2.750000
v -5.062500 2.062500 2.750000
v -5.062500 0.187500 2.750000
v -0.937500 0.187500 2.750000
vt 0.062500 0.750000
vt 0.320312 0.750000
vt 0.320312 0.632812
vt 0.062500 0.632812
f 301/301/1 304/304/1 303/303/1 302/302/1
v -5.062500 2.062500 3.000000
v -0.937500 2.062500 3.000000
v -0.937500 0.187500 3.000000
v -5.062500 0.187500 3.000000
vt 0.062500 0.750000
vt 0.320312 0.750000
vt 0.320312 0.632812
vt 0.062500 0.632812
f 305/305/2 308/308/2 307/307/2 306/306/2
v -5.062500 2.062500 2.750000
v -5.062500 2.062500 3.000000
v -5.062500 0.187500 3.000000
v -5.062500 0.187500 2.750000
vt 0.960938 1.000000
vt 0.976562 1.000000
vt 0.976562 0.882812
vt 0.960938 0.882812
f 309/309/3 312/312/3 311/311/3 310/310/3
v -0.937500 2.062500 3.000000
v -0.937500 2.062500 2.750000
v -0.937500 0.187500 2.750000
v -0.937500 0.187500 3.000000
vt 0.960938 1.000000
vt 0.976562 1.000000
vt 0.976562 0.882812
vt 0.960938 0.882812
f 313/313/4 316/316/4 315/315/4 314/314/4
v -5.062500 2.062500 2.750000
v -0.937500 2.062500 2.750000
v -0.937500 2.062500 3.000000
v -5.062500 2.062500 3.000000
vt 0.312500 0.363281
vt 0.570312 0.363281
vt 0.570312 0.347656
vt 0.312500 0.347656
f 317/317/5 320/320/5 319/319/5 318/318/5
v -4.000000 1.875000 5.000000
v -2.000000 1.875000 5.000000
v -2.000000 0.000000 5.000000
v -4.000000 0.000000 5.000000
vt 0.320312 0.750000
vt 0.445312 0.750000
vt 0.445312 0.632812
vt 0.320312 0.632812
f 321/321/2 324/324/2 323/323/2 322/322/2
v -4.000000 1.875000 4.000000
v -4.000000 1.875000 5.000000
v -4.000000 0.000000 5.000000
v -4.000000 0.000000 4.000000
vt 0.445312 0.750000
vt 0.507812 0.750000
vt 0.507812 0.632812
vt 0.445312 0.632812
f 325/325/3 328/328/3 327/327/3 326/326/3
v -2.000000 1.875000 5.000000
v -2.000000 1.875000 4.000000
v -2.000000 0.000000 4.000000
v -2.000000 0.000000 5.000000
vt 0.445312 0.750000
vt 0.507812 0.750000
vt 0.507812 0.632812
vt 0.445312 0.632812
f 329/329/4 332/332/4 331/331/4 330/330/4
v -4.000000 1.875000 4.000000
v -2.000000 1.875000 4.000000
v -2.000000 1.875000 5.000000
v -4.000000 1.875000 5.000000
vt 0.171875 0.511719
vt 0.296875 0.511719
vt 0.296875 0.449219
vt 0.171875 0.449219
f 333/333/5 336/336/5 335/335/5 334/334/5
v -4.000000 1.687500 4.312500
v -4.062500 1.687500 4.312500
v -4.062500 1.312500 4.312500
v -4.000000 1.312500 4.312500
vt 0.996094 0.625000
vt 1.000000 0.625000
vt 1.000000 0.601562
vt 0.996094 0.601562
f 337/337/1 340/340/1 339/339/1 338/338/1
v -4.062500 1.687500 4.687500
v -4.000000 1.687500 4.687500
v -4.000000 1.312500 4.687500
v -4.062500 1.312500 4.687500
vt 0.996094 0.625000
vt 1.000000 0.625000
vt 1.000000 0.601562
vt 0.996094 0.601562
f 341/341/2 344/344/2 343/343/2 342/342/2
v -4.062500 1.687500 4.312500
v -4.062500 1.687500 4.687500
v -4.062500 1.312500 4.687500
v -4.062500 1.312500 4.312500
vt 0.273438 0.363281
vt 0.296875 0.363281
vt 0.296875 0.339844
vt 0.273438 0.339844
f 345/345/3 348/348/3 347/347/3 346/346/3
v -4.062500 1.687500 4.312500
v -4.000000 1.687500 4.312500
v -4.000000 1.687500 4.687500
v -4.062500 1.687500 4.687500
vt 0.996094 0.625000
vt 1.000000 0.625000
vt 1.000000 0.601562
vt 0.996094 0.601562
f 349/349/5 352/352/5 351/351/5 350/350/5
v -4.062500 1.312500 4.687500
v -4.000000 1.312500 4.687500
v -4.000000 1.312500 4.312500
v -4.062500 1.312500 4.312500
vt 0.996094 0.625000
vt 1.000000 0.625000
vt 1.000000 0.601562
vt 0.996094 0.601562
f 353/353/6 356/356/6 355/355/6 354/354/6
v -1.937500 1.687500 4.312500
v -2.000000 1.687500 4.312500
v -2.000000 1.312500 4.312500
v -1.937500 1.312500 4.312500
vt 0.996094 0.625000
vt 1.000000 0.625000
vt 1.000000 0.601562
vt 0.996094 0.601562
f 357/357/1 360/360/1 359/359/1 358/358/1
v -2.000000 1.687500 4.687500
v -1.937500 1.687500 4.687500
v -1.937500 1.312500 4.687500
v -2.000000 1.312500 4.687500
vt 0.996094 0.625000
vt 1.000000 0.625000
vt 1.000000 0.601562
vt 0.996094 0.601562
f 361/361/2 364/364/2 363/363/2 362/362/2
v -1.937500 1.687500 4.687500
v -1.937500 1.687500 4.312500
v -1.937500 1.312500 4.312500
v -1.937500 1.312500 4.687500
vt 0.273438 0.363281
vt 0.296875 0.363281
vt 0.296875 0.339844
vt 0.273438 0.339844
f 365/365/4 368/368/4 367/367/4 366/366/4
v -2.000000 1.687500 4.312500
v -1.937500 1.687500 4.312500
v -1.937500 1.687500 4.687500
v -2.000000 1.687500 4.687500
vt 0.996094 0.625000
vt 1.000000 0.625000
vt 1.000000 0.601562
vt 0.996094 0.601562
f 369/369/5 372/372/5 371/371/5 370/370/5
v -2.000000 1.312500 4.687500
v -1.937500 1.312500 4.687500
v -1.937500 1.312500 4.312500
v -2.000000 1.312500 4.312500
vt 0.996094 0.625000
vt 1.000000 0.625000
vt 1.000000 0.601562
vt 0.996094 0.601562
f 373/373/6 376/376/6 375/375/6 374/374/6
v -3.375000 1.250000 -1.000000
v -3.375000 1.250000 0.000000
v -3.375000 0.500000 0.000000
v -3.375000 0.500000 -1.000000
vt 0.632812 0.410156
vt 0.695312 0.410156
vt 0.695312 0.363281
vt 0.632812 0.363281
f 377/377/3 380/380/3 379/379/3 378/378/3
v -2.625000 1.250000 0.000000
v -2.625000 1.250000 -1.000000
v -2.625000 0.500000 -1.000000
v -2.625000 0.500000 0.000000
vt 0.632812 0.410156
vt 0.695312 0.410156
vt 0.695312 0.363281
vt 0.632812 0.363281
f 381/381/4 384/384/4 383/383/4 382/382/4
v -3.375000 1.250000 -1.000000
v -2.625000 1.250000 -1.000000
v -2.625000 1.250000 0.000000
v -3.375000 1.250000 0.000000
vt 0.671875 0.511719
vt 0.718750 0.511719
vt 0.718750 0.449219
vt 0.671875 0.449219
f 385/385/5 388/388/5 387/387/5 386/386/5
v -3.375000 0.500000 0.000000
v -2.625000 0.500000 0.000000
v -2.625000 0.500000 -1.000000
v -3.375000 0.500000 -1.000000
vt 0.671875 0.511719
vt 0.718750 0.511719
vt 0.718750 0.449219
vt 0.671875 0.449219
f 389/389/6 392/392/6 391/391/6 390/390/6
v -2.500000 1.375000 -0.625000
v -3.500000 1.375000 -0.625000
v -3.500000 0.375000 -0.625000
v -2.500000 0.375000 -0.625000
vt 0.296875 0.511719
vt 0.359375 0.511719
vt 0.359375 0.449219
vt 0.296875 0.449219
f 393/393/1 396/396/1 395/395/1 394/394/1
v -3.500000 1.375000 -0.375000
v -2.500000 1.375000 -0.375000
v -2.500000 0.375000 -0.375000
v -3.500000 0.375000 -0.375000
vt 0.296875 0.511719
vt 0.359375 0.511719
vt 0.359375 0.449219
vt 0.296875 0.449219
f 397/397/2 400/400/2 399/399/2 398/398/2
v -3.500000 1.375000 -0.625000
v -3.500000 1.375000 -0.375000
v -3.500000 0.375000 -0.375000
v -3.500000 0.375000 -0.625000
vt 0.746094 0.511719
vt 0.761719 0.511719
vt 0.761719 0.449219
vt 0.746094 0.449219
f 401/401/3 404/404/3 403/403/3 402/402/3
v -2.500000 1.375000 -0.375000
v -2.500000 1.375000 -0.625000
v -2.500000 0.375000 -0.625000
v -2.500000 0.375000 -0.375000
vt 0.746094 0.511719
vt 0.761719 0.511719
vt 0.761719 0.449219
vt 0.746094 0.449219
f 405/405/4 408/408/4 407/407/4 406/406/4
v -3.500000 1.375000 -0.625000
v -2.500000 1.375000 -0.625000
v -2.500000 1.375000 -0.375000
v -3.500000 1.375000 -0.375000
vt 0.898438 0.363281
vt 0.960938 0.363281
vt 0.960938 0.347656
vt 0.898438 0.347656
f 409/409/5 412/412/5 411/411/5 410/410/5
v -3.500000 0.375000 -0.375000
v -2.500000 0.375000 -0.375000
v -2.500000 0.375000 -0.625000
v -3.500000 0.375000 -0.625000
vt 0.898438 0.363281
vt 0.960938 0.363281
vt 0.960938 0.347656
vt 0.898438 0.347656
f 413/413/6 416/416/6 415/415/6 414/414/6
v -2.500000 2.000000 -2.000000
v -3.500000 2.000000 -2.000000
v -3.500000 0.000000 -2.000000
v -2.500000 0.000000 -2.000000
vt 0.000000 0.750000
vt 0.062500 0.750000
vt 0.062500 0.625000
vt 0.000000 0.625000
f 417/417/1 420/420/1 419/419/1 418/418/1
v -3.500000 2.000000 -1.000000
v -2.500000 2.000000 -1.000000
v -2.500000 0.000000 -1.000000
v -3.500000 0.000000 -1.000000
vt 0.000000 0.750000
vt 0.062500 0.750000
vt 0.062500 0.625000
vt 0.000000 0.625000
f 421/421/2 424/424/2 423/423/2 422/422/2
v -3.500000 2.000000 -2.000000
v -3.500000 2.000000 -1.000000
v -3.500000 0.000000 -1.000000
v -3.500000 0.000000 -2.000000
vt 0.000000 0.750000
vt 0.062500 0.750000
vt 0.062500 0.625000
vt 0.000000 0.625000
f 425/425/3 428/428/3 427/427/3 426/426/3
v -2.500000 2.000000 -1.000000
v -2.500000 2.000000 -2.000000
v -2.500000 0.000000 -2.000000
v -2.500000 0.000000 -1.000000
vt 0.000000 0.750000
vt 0.062500 0.750000
vt 0.062500 0.625000
vt 0.000000 0.625000
f 429/429/4 432/432/4 431/431/4 430/430/4
v -3.500000 2.000000 -2.000000
v -2.500000 2.000000 -2.000000
v -2.500000 2.000000 -1.000000
v -3.500000 2.000000 -1.000000
vt 0.359375 0.511719
vt 0.421875 0.511719
vt 0.421875 0.449219
vt 0.359375 0.449219
f 433/433/5 436/436/5 435/435/5 434/434/5
v -2.875000 2.125000 -1.687500
v -3.125000 2.125000 -1.687500
v -3.125000 2.000000 -1.687500
v -2.875000 2.000000 -1.687500
vt 0.000000 0.316406
vt 0.015625 0.316406
vt 0.015625 0.308594
vt 0.000000 0.308594
f 437/437/1 440/440/1 439/439/1 438/438/1
v -3.125000 2.125000 -1.312500
v -2.875000 2.125000 -1.312500
v -2.875000 2.000000 -1.312500
v -3.125000 2.000000 -1.312500
vt 0.000000 0.316406
vt 0.015625 0.316406
vt 0.015625 0.308594
vt 0.000000 0.308594
f 441/441/2 444/444/2 443/443/2 442/442/2
v -3.125000 2.125000 -1.687500
v -3.125000 2.125000 -1.312500
v -3.125000 2.000000 -1.312500
v -3.125000 2.000000 -1.687500
vt 0.976562 0.332031
vt 1.000000 0.332031
vt 1.000000 0.324219
vt 0.976562 0.324219
f 445/445/3 448/448/3 447/447/3 446/446/3
v -2.875000 2.125000 -1.312500
v -2.875000 2.125000 -1.687500
v -2.875000 2.000000 -1.687500
v -2.875000 2.000000 -1.312500
vt 0.976562 0.332031
vt 1.000000 0.332031
vt 1.000000 0.324219
vt 0.976562 0.324219
f 449/449/4 452/452/4 451/451/4 450/450/4
v -3.125000 2.125000 -1.687500
v -2.875000 2.125000 -1.687500
v -2.875000 2.125000 -1.312500
v -3.125000 2.125000 -1.312500
vt 0.296875 0.363281
vt 0.312500 0.363281
vt 0.312500 0.339844
vt 0.296875 0.339844
f 453/453/5 456/456/5 455/455/5 454/454/5
v 4.000000 0.187500 0.000000
v 0.000000 0.187500 0.000000
v 0.000000 0.000000 0.000000
v 4.000000 0.000000 0.000000
vt 0.500000 0.332031
vt 0.750000 0.332031
vt 0.750000 0.320312
vt 0.500000 0.320312
f 457/457/1 460/460/1 459/459/1 458/458/1
v 0.000000 0.187500 4.000000
v 4.000000 0.187500 4.000000
v 4.000000 0.000000 4.000000
v 0.000000 0.000000 4.000000
vt 0.500000 0.332031
vt 0.750000 0.332031
vt 0.750000 0.320312
vt 0.500000 0.320312
f 461/461/2 464/464/2 463/463/2 462/462/2
v 0.000000 0.187500 0.000000
v 0.000000 0.187500 4.000000
v 0.000000 0.000000 4.000000
v 0.000000 0.000000 0.000000
vt 0.500000 0.332031
vt 0.750000 0.332031
vt 0.750000 0.320312
vt 0.500000 0.320312
f 465/465/3 468/468/3 467/467/3 466/466/3
v 4.000000 0.187500 4.000000
v 4.000000 0.187500 0.000000
v 4.000000 0.000000 0.000000
v 4.000000 0.000000 4.000000
vt 0.500000 0.332031
vt 0.750000 0.332031
vt 0.750000 0.320312
vt 0.500000 0.320312
f 469/469/4 472/472/4 471/471/4 470/470/4
v 0.000000 0.187500 0.000000
v 4.000000 0.187500 0.000000
v 4.000000 0.187500 4.000000
v 0.000000 0.187500 4.000000
vt 0.000000 1.000000
vt 0.250000 1.000000
vt 0.250000 0.750000
vt 0.000000 0.750000
f 473/473/5 476/476/5 475/475/5 474/474/5
v 4.000000 2.000000 0.000000
v 0.000000 2.000000 0.000000
v 0.000000 0.187500 0.000000
v 4.000000 0.187500 0.000000
vt 0.570312 0.750000
vt 0.820312 0.750000
vt 0.820312 0.636719
vt 0.570312 0.636719
f 477/477/1 480/480/1 479/479/1 478/478/1
v 0.000000 2.000000 0.750000
v 4.000000 2.000000 0.750000
v 4.000000 0.187500 0.750000
v 0.000000 0.187500 0.750000
vt 0.000000 0.625000
vt 0.250000 0.625000
vt 0.250000 0.511719
vt 0.000000 0.511719
f 481/481/2 484/484/2 483/483/2 482/482/2
v 0.000000 2.000000 0.000000
v 0.000000 2.000000 0.750000
v 0.000000 0.187500 0.750000
v 0.000000 0.187500 0.000000
vt 0.820312 0.750000
vt 0.867188 0.750000
vt 0.867188 0.636719
vt 0.820312 0.636719
f 485/485/3 488/488/3 487/487/3 486/486/3
v 4.000000 2.000000 0.750000
v 4.000000 2.000000 0.000000
v 4.000000 0.187500 0.000000
v 4.000000 0.187500 0.750000
vt 0.820312 0.750000
vt 0.867188 0.750000
vt 0.867188 0.636719
vt 0.820312 0.636719
f 489/489/4 492/492/4 491/491/4 490/490/4
v 0.000000 2.000000 0.000000
v 4.000000 2.000000 0.000000
v 4.000000 2.000000 0.750000
v 0.000000 2.000000 0.750000
vt 0.000000 0.410156
vt 0.250000 0.410156
vt 0.250000 0.363281
vt 0.000000 0.363281
f 493/493/5 496/496/5 495/495/5 494/494/5
v 4.000000 2.000000 3.750000
v 0.000000 2.000000 3.750000
v 0.000000 0.187500 3.750000
v 4.000000 0.187500 3.750000
vt 0.250000 0.625000
vt 0.500000 0.625000
vt 0.500000 0.511719
vt 0.250000 0.511719
f 497/497/1 500/500/1 499/499/1 498/498/1
v 0.000000 2.000000 4.000000
v 4.000000 2.000000 4.000000
v 4.000000 0.187500 4.000000
v 0.000000 0.187500 4.000000
vt 0.500000 0.625000
vt 0.750000 0.625000
vt 0.750000 0.511719
vt 0.500000 0.511719
f 501/501/2 504/504/2 503/503/2 502/502/2
v 0.000000 2.000000 3.750000
v 0.000000 2.000000 4.000000
v 0.000000 0.187500 4.000000
v 0.000000 0.187500 3.750000
vt 0.976562 1.000000
vt 0.992188 1.000000
vt 0.992188 0.886719
vt 0.976562 0.886719
f 505/505/3 508/508/3 507/507/3 506/506/3
v 4.000000 2.000000 4.000000
v 4.000000 2.000000 3.750000
v 4.000000 0.187500 3.750000
v 4.000000 0.187500 4.000000
vt 0.976562 1.000000
vt 0.992188 1.000000
vt 0.992188 0.886719
vt 0.976562 0.886719
f 509/509/4 512/512/4 511/511/4 510/510/4
v 0.000000 2.000000 3.750000
v 4.000000 2.000000 3.750000
v 4.000000 2.000000 4.000000
v 0.000000 2.000000 4.000000
vt 0.570312 0.363281
vt 0.820312 0.363281
vt 0.820312 0.347656
vt 0.570312 0.347656
f 513/513/5 516/516/5 515/515/5 514/514/5
v 0.125000 0.937500 0.750000
v 0.125000 0.937500 3.750000
v 0.125000 0.187500 3.750000
v 0.125000 0.187500 0.750000
vt 0.250000 0.410156
vt 0.437500 0.410156
vt 0.437500 0.363281
vt 0.250000 0.363281
f 517/517/3 520/520/3 519/519/3 518/518/3
v 0.875000 0.937500 3.750000
v 0.875000 0.937500 0.750000
v 0.875000 0.187500 0.750000
v 0.875000 0.187500 3.750000
vt 0.250000 0.410156
vt 0.437500 0.410156
vt 0.437500 0.363281
vt 0.250000 0.363281
f 521/521/4 524/524/4 523/523/4 522/522/4
v 0.125000 0.937500 0.750000
v 0.875000 0.937500 0.750000
v 0.875000 0.937500 3.750000
v 0.125000 0.937500 3.750000
vt 0.726562 1.000000
vt 0.773438 1.000000
vt 0.773438 0.812500
vt 0.726562 0.812500
f 525/525/5 528/528/5 527/527/5 526/526/5
v 0.125000 1.750000 0.750000
v 0.125000 1.750000 3.750000
v 0.125000 1.000000 3.750000
v 0.125000 1.000000 0.750000
vt 0.250000 0.410156
vt 0.437500 0.410156
vt 0.437500 0.363281
vt 0.250000 0.363281
f 529/529/3 532/532/3 531/531/3 530/530/3
v 0.875000 1.750000 3.750000
v 0.875000 1.750000 0.750000
v 0.875000 1.000000 0.750000
v 0.875000 1.000000 3.750000
vt 0.250000 0.410156
vt 0.437500 0.410156
vt 0.437500 0.363281
vt 0.250000 0.363281
f 533/533/4 536/536/4 535/535/4 534/534/4
v 0.125000 1.750000 0.750000
v 0.875000 1.750000 0.750000
v 0.875000 1.750000 3.750000
v 0.125000 1.750000 3.750000
vt 0.726562 1.000000
vt 0.773438 1.000000
vt 0.773438 0.812500
vt 0.726562 0.812500
f 537/537/5 540/540/5 539/539/5 538/538/5
v 0.125000 1.000000 3.750000
v 0.875000 1.000000 3.750000
v 0.875000 1.000000 0.750000
v 0.125000 1.000000 0.750000
vt 0.726562 1.000000
vt 0.773438 1.000000
vt 0.773438 0.812500
vt 0.726562 0.812500
f 541/541/6 544/544/6 543/543/6 542/542/6
v 1.625000 0.937500 0.750000
v 1.625000 0.937500 3.750000
v 1.625000 0.187500 3.750000
v 1.625000 0.187500 0.750000
vt 0.250000 0.410156
vt 0.437500 0.410156
vt 0.437500 0.363281
vt 0.250000 0.363281
f 545/545/3 548/548/3 547/547/3 546/546/3
v 2.375000 0.937500 3.750000
v 2.375000 0.937500 0.750000
v 2.375000 0.187500 0.750000
v 2.375000 0.187500 3.750000
vt 0.250000 0.410156
vt 0.437500 0.410156
vt 0.437500 0.363281
vt 0.250000 0.363281
f 549/549/4 552/552/4 551/551/4 550/550/4
v 1.625000 0.937500 0.750000
v 2.375000 0.937500 0.750000
v 2.375000 0.937500 3.750000
v 1.625000 0.937500 3.750000
vt 0.726562 1.000000
vt 0.773438 1.000000
vt 0.773438 0.812500
vt 0.726562 0.812500
f 553/553/5 556/556/5 555/555/5 554/554/5
v 1.625000 1.750000 0.750000
v 1.625000 1.750000 3.750000
v 1.625000 1.000000 3.750000
v 1.625000 1.000000 0.750000
vt 0.250000 0.410156
vt 0.437500 0.410156
vt 0.437500 0.363281
vt 0.250000 0.363281
f 557/557/3 560/560/3 559/559/3 558/558/3
v 2.375000 1.750000 3.750000
v 2.375000 1.750000 0.750000
v 2.375000 1.000000 0.750000
v 2.375000 1.000000 3.750000
vt 0.250000 0.410156
vt 0.437500 0.410156
vt 0.437500 0.363281
vt 0.250000 0.363281
f 561/561/4 564/564/4 563/563/4 562/562/4
v 1.625000 1.750000 0.750000
v 2.375000 1.750000 0.750000
v 2.375000 1.750000 3.750000
v 1.625000 1.750000 3.750000
vt 0.726562 1.000000
vt 0.773438 1.000000
vt 0.773438 0.812500
vt 0.726562 0.812500
f 565/565/5 568/568/5 567/567/5 566/566/5
v 1.625000 1.000000 3.750000
v 2.375000 1.000000 3.750000
v 2.375000 1.000000 0.750000
v 1.625000 1.000000 0.750000
vt 0.726562 1.000000
vt 0.773438 1.000000
vt 0.773438 0.812500
vt 0.726562 0.812500
f 569/569/6 572/572/6 571/571/6 570/570/6
v 3.125000 0.937500 0.750000
v 3.125000 0.937500 3.750000
v 3.125000 0.187500 3.750000
v 3.125000 0.187500 0.750000
vt 0.250000 0.410156
vt 0.437500 0.410156
vt 0.437500 0.363281
vt 0.250000 0.363281
f 573/573/3 576/576/3 575/575/3 574/574/3
v 3.875000 0.937500 3.750000
v 3.875000 0.937500 0.750000
v 3.875000 0.187500 0.750000
v 3.875000 0.187500 3.750000
vt 0.250000 0.410156
vt 0.437500 0.410156
vt 0.437500 0.363281
vt 0.250000 0.363281
f 577/577/4 580/580/4 579/579/4 578/578/4
v 3.125000 0.937500 0.750000
v 3.875000 0.937500 0.750000
v 3.875000 0.937500 3.750000
v 3.125000 0.937500 3.750000
vt 0.726562 1.000000
vt 0.773438 1.000000
vt 0.773438 0.812500
vt 0.726562 0.812500
f 581/581/5 584/584/5 583/583/5 582/582/5
v 3.125000 1.750000 0.750000
v 3.125000 1.750000 3.750000
v 3.125000 1.000000 3.750000
v 3.125000 1.000000 0.750000
vt 0.250000 0.410156
vt 0.437500 0.410156
vt 0.437500 0.363281
vt 0.250000 0.363281
f 585/585/3 588/588/3 587/587/3 586/586/3
v 3.875000 1.750000 3.750000
v 3.875000 1.750000 0.750000
v 3.875000 1.000000 0.750000
v 3.875000 1.000000 3.750000
vt 0.250000 0.410156
vt 0.437500 0.410156
vt 0.437500 0.363281
vt 0.250000 0.363281
f 589/589/4 592/592/4 591/591/4 590/590/4
v 3.125000 1.750000 0.750000
v 3.875000 1.750000 0.750000
v 3.875000 1.750000 3.750000
v 3.125000 1.750000 3.750000
vt 0.726562 1.000000
vt 0.773438 1.000000
vt 0.773438 0.812500
vt 0.726562 0.812500
f 593/593/5 596/596/5 595/595/5 594/594/5
v 3.125000 1.000000 3.750000
v 3.875000 1.000000 3.750000
v 3.875000 1.000000 0.750000
v 3.125000 1.000000 0.750000
vt 0.726562 1.000000
vt 0.773438 1.000000
vt 0.773438 0.812500
vt 0.726562 0.812500
f 597/597/6 600/600/6 599/599/6 598/598/6
v 0.000000 2.000000 0.750000
v 0.000000 2.000000 3.750000
v 0.000000 1.812500 3.750000
v 0.000000 1.812500 0.750000
vt 0.750000 0.332031
vt 0.937500 0.332031
vt 0.937500 0.320312
vt 0.750000 0.320312
f 601/601/3 604/604/3 603/603/3 602/602/3
v 0.187500 2.000000 3.750000
v 0.187500 2.000000 0.750000
v 0.187500 1.812500 0.750000
v 0.187500 1.812500 3.750000
vt 0.750000 0.332031
vt 0.937500 0.332031
vt 0.937500 0.320312
vt 0.750000 0.320312
f 605/605/4 608/608/4 607/607/4 606/606/4
v 0.000000 2.000000 0.750000
v 0.187500 2.000000 0.750000
v 0.187500 2.000000 3.750000
v 0.000000 2.000000 3.750000
vt 0.773438 1.000000
vt 0.785156 1.000000
vt 0.785156 0.812500
vt 0.773438 0.812500
f 609/609/5 612/612/5 611/611/5 610/610/5
v 0.000000 1.812500 3.750000
v 0.187500 1.812500 3.750000
v 0.187500 1.812500 0.750000
v 0.000000 1.812500 0.750000
vt 0.773438 1.000000
vt 0.785156 1.000000
vt 0.785156 0.812500
vt 0.773438 0.812500
f 613/613/6 616/616/6 615/615/6 614/614/6
v 3.812500 2.000000 0.750000
v 3.812500 2.000000 3.750000
v 3.812500 1.812500 3.750000
v 3.812500 1.812500 0.750000
vt 0.750000 0.332031
vt 0.937500 0.332031
vt 0.937500 0.320312
vt 0.750000 0.320312
f 617/617/3 620/620/3 619/619/3 618/618/3
v 4.000000 2.000000 3.750000
v 4.000000 2.000000 0.750000
v 4.000000 1.812500 0.750000
v 4.000000 1.812500 3.750000
vt 0.750000 0.332031
vt 0.937500 0.332031
vt 0.937500 0.320312
vt 0.750000 0.320312
f 621/621/4 624/624/4 623/623/4 622/622/4
v 3.812500 2.000000 0.750000
v 4.000000 2.000000 0.750000
v 4.000000 2.000000 3.750000
v 3.812500 2.000000 3.750000
vt 0.773438 1.000000
vt 0.785156 1.000000
vt 0.785156 0.812500
vt 0.773438 0.812500
f 625/625/5 628/628/5 627/627/5 626/626/5
v 3.812500 1.812500 3.750000
v 4.000000 1.812500 3.750000
v 4.000000 1.812500 0.750000
v 3.812500 1.812500 0.750000
vt 0.773438 1.000000
vt 0.785156 1.000000
vt 0.785156 0.812500
vt 0.773438 0.812500
f 629/629/6 632/632/6 631/631/6 630/630/6
v 0.187500 1.812500 0.750000
v 0.000000 1.812500 0.750000
v 0.000000 0.187500 0.750000
v 0.187500 0.187500 0.750000
vt 0.914062 0.750000
vt 0.925781 0.750000
vt 0.925781 0.648438
vt 0.914062 0.648438
f 633/633/1 636/636/1 635/635/1 634/634/1
v 0.000000 1.812500 0.937500
v 0.187500 1.812500 0.937500
v 0.187500 0.187500 0.937500
v 0.000000 0.187500 0.937500
vt 0.914062 0.750000
vt 0.925781 0.750000
vt 0.925781 0.648438
vt 0.914062 0.648438
f 637/637/2 640/640/2 639/639/2 638/638/2
v 0.000000 1.812500 0.750000
v 0.000000 1.812500 0.937500
v 0.000000 0.187500 0.937500
v 0.000000 0.187500 0.750000
vt 0.914062 0.750000
vt 0.925781 0.750000
vt 0.925781 0.648438
vt 0.914062 0.648438
f 641/641/3 644/644/3 643/643/3 642/642/3
v 0.187500 1.812500 0.937500
v 0.187500 1.812500 0.750000
v 0.187500 0.187500 0.750000
v 0.187500 0.187500 0.937500
vt 0.914062 0.750000
vt 0.925781 0.750000
vt 0.925781 0.648438
vt 0.914062 0.648438
f 645/645/4 648/648/4 647/647/4 646/646/4
v 0.000000 1.812500 0.750000
v 0.187500 1.812500 0.750000
v 0.187500 1.812500 0.937500
v 0.000000 1.812500 0.937500
vt 0.988281 0.410156
vt 1.000000 0.410156
vt 1.000000 0.398438
vt 0.988281 0.398438
f 649/649/5 652/652/5 651/651/5 650/650/5
v 4.000000 1.812500 0.750000
v 3.812500 1.812500 0.750000
v 3.812500 0.187500 0.750000
v 4.000000 0.187500 0.750000
vt 0.914062 0.750000
vt 0.925781 0.750000
vt 0.925781 0.648438
vt 0.914062 0.648438
f 653/653/1 656/656/1 655/655/1 654/654/1
v 3.812500 1.812500 0.937500
v 4.000000 1.812500 0.937500
v 4.000000 0.187500 0.937500
v 3.812500 0.187500 0.937500
vt 0.914062 0.750000
vt 0.925781 0.750000
vt 0.925781 0.648438
vt 0.914062 0.648438
f 657/657/2 660/660/2 659/659/2 658/658/2
v 3.812500 1.812500 0.750000
v 3.812500 1.812500 0.937500
v 3.812500 0.187500 0.937500
v 3.812500 0.187500 0.750000
vt 0.914062 0.750000
vt 0.925781 0.750000
vt 0.925781 0.648438
vt 0.914062 0.648438
f 661/661/3 664/664/3 663/663/3 662/662/3
v 4.000000 1.812500 0.937500
v 4.000000 1.812500 0.750000
v 4.000000 0.187500 0.750000
v 4.000000 0.187500 0.937500
vt 0.914062 0.750000
vt 0.925781 0.750000
vt 0.925781 0.648438
vt 0.914062 0.648438
f 665/665/4 668/668/4 667/667/4 666/666/4
v 3.812500 1.812500 0.750000
v 4.000000 1.812500 0.750000
v 4.000000 1.812500 0.937500
v 3.812500 1.812500 0.937500
vt 0.988281 0.410156
vt 1.000000 0.410156
vt 1.000000 0.398438
vt 0.988281 0.398438
f 669/669/5 672/672/5 671/671/5 670/670/5
v 0.187500 1.812500 3.562500
v 0.000000 1.812500 3.562500
v 0.000000 0.187500 3.562500
v 0.187500 0.187500 3.562500
vt 0.914062 0.750000
vt 0.925781 0.750000
vt 0.925781 0.648438
vt 0.914062 0.648438
f 673/673/1 676/676/1 675/675/1 674/674/1
v 0.000000 1.812500 3.750000
v 0.187500 1.812500 3.750000
v 0.187500 0.187500 3.750000
v 0.000000 0.187500 3.750000
vt 0.914062 0.750000
vt 0.925781 0.750000
vt 0.925781 0.648438
vt 0.914062 0.648438
f 677/677/2 680/680/2 679/679/2 678/678/2
v 0.000000 1.812500 3.562500
v 0.000000 1.812500 3.750000
v 0.000000 0.187500 3.750000
v 0.000000 0.187500 3.562500
vt 0.914062 0.750000
vt 0.925781 0.750000
vt 0.925781 0.648438
vt 0.914062 0.648438
f 681/681/3 684/684/3 683/683/3 682/682/3
v 0.187500 1.812500 3.750000
v 0.187500 1.812500 3.562500
v 0.187500 0.187500 3.562500
v 0.187500 0.187500 3.750000
vt 0.914062 0.750000
vt 0.925781 0.750000
vt 0.925781 0.648438
vt 0.914062 0.648438
f 685/685/4 688/688/4 687/687/4 686/686/4
v 0.000000 1.812500 3.562500
v 0.187500 1.812500 3.562500
v 0.187500 1.812500 3.750000
v 0.000000 1.812500 3.750000
vt 0.988281 0.410156
vt 1.000000 0.410156
vt 1.000000 0.398438
vt 0.988281 0.398438
f 689/689/5 692/692/5 691/691/5 690/690/5
v 4.000000 1.812500 3.562500
v 3.812500 1.812500 3.562500
v 3.812500 0.187500 3.562500
v 4.000000 0.187500 3.562500
vt 0.914062 0.750000
vt 0.925781 0.750000
vt 0.925781 0.648438
vt 0.914062 0.648438
f 693/693/1 696/696/1 695/695/1 694/694/1
v 3.812500 1.812500 3.750000
v 4.000000 1.812500 3.750000
v 4.000000 0.187500 3.750000
v 3.812500 0.187500 3.750000
vt 0.914062 0.750000
vt 0.925781 0.750000
vt 0.925781 0.648438
vt 0.914062 0.648438
f 697/697/2 700/700/2 699/699/2 698/698/2
v 3.812500 1.812500 3.562500
v 3.812500 1.812500 3.750000
v 3.812500 0.187500 3.750000
v 3.812500 0.187500 3.562500
vt 0.914062 0.750000
vt 0.925781 0.750000
vt 0.925781 0.648438
vt 0.914062 0.648438
f 701/701/3 704/704/3 703/703/3 702/702/3
v 4.000000 1.812500 3.750000
v 4.000000 1.812500 3.562500
v 4.000000 0.187500 3.562500
v 4.000000 0.187500 3.750000
vt 0.914062 0.750000
vt 0.925781 0.750000
vt 0.925781 0.648438
vt 0.914062 0.648438
f 705/705/4 708/708/4 707/707/4 706/706/4
v 3.812500 1.812500 3.562500
v 4.000000 1.812500 3.562500
v 4.000000 1.812500 3.750000
v 3.812500 1.812500 3.750000
vt 0.988281 0.410156
vt 1.000000 0.410156
vt 1.000000 0.398438
vt 0.988281 0.398438
f 709/709/5 712/712/5 711/711/5 710/710/5
v 0.187500 1.937500 0.750000
v 3.812500 1.937500 0.750000
v 3.812500 1.937500 3.750000
v 0.187500 1.937500 3.750000
vt 0.500000 1.000000
vt 0.726562 1.000000
vt 0.726562 0.812500
vt 0.500000 0.812500
f 713/713/5 716/716/5 715/715/5 714/714/5
v 0.187500 1.906250 3.750000
v 3.812500 1.906250 3.750000
v 3.812500 1.906250 0.750000
v 0.187500 1.906250 0.750000
vt 0.500000 1.000000
vt 0.726562 1.000000
vt 0.726562 0.812500
vt 0.500000 0.812500
f 717/717/6 720/720/6 719/719/6 718/718/6
v 0.062500 1.812500 0.937500
v 0.062500 1.812500 3.562500
v 0.062500 0.187500 3.562500
v 0.062500 0.187500 0.937500
vt 0.750000 0.625000
vt 0.914062 0.625000
vt 0.914062 0.523438
vt 0.750000 0.523438
f 721/721/3 724/724/3 723/723/3 722/722/3
v 0.093750 1.812500 3.562500
v 0.093750 1.812500 0.937500
v 0.093750 0.187500 0.937500
v 0.093750 0.187500 3.562500
vt 0.750000 0.625000
vt 0.914062 0.625000
vt 0.914062 0.523438
vt 0.750000 0.523438
f 725/725/4 728/728/4 727/727/4 726/726/4
v 3.906250 1.812500 0.937500
v 3.906250 1.812500 3.562500
v 3.906250 0.187500 3.562500
v 3.906250 0.187500 0.937500
vt 0.750000 0.625000
vt 0.914062 0.625000
vt 0.914062 0.523438
vt 0.750000 0.523438
f 729/729/3 732/732/3 731/731/3 730/730/3
v 3.937500 1.812500 3.562500
v 3.937500 1.812500 0.937500
v 3.937500 0.187500 0.937500
v 3.937500 0.187500 3.562500
vt 0.750000 0.625000
vt 0.914062 0.625000
vt 0.914062 0.523438
vt 0.750000 0.523438
f 733/733/4 736/736/4 735/735/4 734/734/4
v 4.062500 2.062500 1.625000
v -0.062500 2.062500 1.625000
v -0.062500 0.187500 1.625000
v 4.062500 0.187500 1.625000
vt 0.062500 0.750000
vt 0.320312 0.750000
vt 0.320312 0.632812
vt 0.062500 0.632812
f 737/737/1 740/740/1 739/739/1 738/738/1
v -0.062500 2.062500 1.875000
v 4.062500 2.062500 1.875000
v 4.062500 0.187500 1.875000
v -0.062500 0.187500 1.875000
vt 0.062500 0.750000
vt 0.320312 0.750000
vt 0.320312 0.632812
vt 0.062500 0.632812
f 741/741/2 744/744/2 743/743/2 742/742/2
v -0.062500 2.062500 1.625000
v -0.062500 2.062500 1.875000
v -0.062500 0.187500 1.875000
v -0.062500 0.187500 1.625000
vt 0.960938 1.000000
vt 0.976562 1.000000
vt 0.976562 0.882812
vt 0.960938 0.882812
f 745/745/3 748/748/3 747/747/3 746/746/3
v 4.062500 2.062500 1.875000
v 4.062500 2.062500 1.625000
v 4.062500 0.187500 1.625000
v 4.062500 0.187500 1.875000
vt 0.960938 1.000000
vt 0.976562 1.000000
vt 0.976562 0.882812
vt 0.960938 0.882812
f 749/749/4 752/752/4 751/751/4 750/750/4
v -0.062500 2.062500 1.625000
v 4.062500 2.062500 1.625000
v 4.062500 2.062500 1.875000
v -0.062500 2.062500 1.875000
vt 0.312500 0.363281
vt 0.570312 0.363281
vt 0.570312 0.347656
vt 0.312500 0.347656
f 753/753/5 756/756/5 755/755/5 754/754/5
v 4.062500 2.062500 2.750000
v -0.062500 2.062500 2.750000
v -0.062500 0.187500 2.750000
v 4.062500 0.187500 2.750000
vt 0.062500 0.750000
vt 0.320312 0.750000
vt 0.320312 0.632812
vt 0.062500 0.632812
f 757/757/1 760/760/1 759/759/1 758/758/1
v -0.062500 2.062500 3.000000
v 4.062500 2.062500 3.000000
v 4.062500 0.187500 3.000000
v -0.062500 0.187500 3.000000
vt 0.062500 0.750000
vt 0.320312 0.750000
vt 0.320312 0.632812
vt 0.062500 0.632812
f 761/761/2 764/764/2 763/763/2 762/762/2
v -0.062500 2.062500 2.750000
v -0.062500 2.062500 3.000000
v -0.062500 0.187500 3.000000
v -0.062500 0.187500 2.750000
vt 0.960938 1.000000
vt 0.976562 1.000000
vt 0.976562 0.882812
vt 0.960938 0.882812
f 765/765/3 768/768/3 767/767/3 766/766/3
v 4.062500 2.062500 3.000000
v 4.062500 2.062500 2.750000
v 4.062500 0.187500 2.750000
v 4.062500 0.187500 3.000000
vt 0.960938 1.000000
vt 0.976562 1.000000
vt 0.976562 0.882812
vt 0.960938 0.882812
f 769/769/4 772/772/4 771/771/4 770/770/4
v -0.062500 2.062500 2.750000
v 4.062500 2.062500 2.750000
v 4.062500 2.062500 3.000000
v -0.062500 2.062500 3.000000
vt 0.312500 0.363281
vt 0.570312 0.363281
vt 0.570312 0.347656
vt 0.312500 0.347656
f 773/773/5 776/776/5 775/775/5 774/774/5
v 1.000000 1.875000 5.000000
v 3.000000 1.875000 5.000000
v 3.000000 0.000000 5.000000
v 1.000000 0.000000 5.000000
vt 0.320312 0.750000
vt 0.445312 0.750000
vt 0.445312 0.632812
vt 0.320312 0.632812
f 777/777/2 780/780/2 779/779/2 778/778/2
v 1.000000 1.875000 4.000000
v 1.000000 1.875000 5.000000
v 1.000000 0.000000 5.000000
v 1.000000 0.000000 4.000000
vt 0.445312 0.750000
vt 0.507812 0.750000
vt 0.507812 0.632812
vt 0.445312 0.632812
f 781/781/3 784/784/3 783/783/3 782/782/3
v 3.000000 1.875000 5.000000
v 3.000000 1.875000 4.000000
v 3.000000 0.000000 4.000000
v 3.000000 0.000000 5.000000
vt 0.445312 0.750000
vt 0.507812 0.750000
vt 0.507812 0.632812
vt 0.445312 0.632812
f 785/785/4 788/788/4 787/787/4 786/786/4
v 1.000000 1.875000 4.000000
v 3.000000 1.875000 4.000000
v 3.000000 1.875000 5.000000
v 1.000000 1.875000 5.000000
vt 0.171875 0.511719
vt 0.296875 0.511719
vt 0.296875 0.449219
vt 0.171875 0.449219
f 789/789/5 792/792/5 791/791/5 790/790/5
v 1.000000 1.687500 4.312500
v 0.937500 1.687500 4.312500
v 0.937500 1.312500 4.312500
v 1.000000 1.312500 4.312500
vt 0.996094 0.625000
vt 1.000000 0.625000
vt 1.000000 0.601562
vt 0.996094 0.601562
f 793/793/1 796/796/1 795/795/1 794/794/1
v 0.937500 1.687500 4.687500
v 1.000000 1.687500 4.687500
v 1.000000 1.312500 4.687500
v 0.937500 1.312500 4.687500
vt 0.996094 0.625000
vt 1.000000 0.625000
vt 1.000000 0.601562
vt 0.996094 0.601562
f 797/797/2 800/800/2 799/799/2 798/798/2
v 0.937500 1.687500 4.312500
v 0.937500 1.687500 4.687500
v 0.937500 1.312500 4.687500
v 0.937500 1.312500 4.312500
vt 0.273438 0.363281
vt 0.296875 0.363281
vt 0.296875 0.339844
vt 0.273438 0.339844
f 801/801/3 804/804/3 803/803/3 802/802/3
v 0.937500 1.687500 4.312500
v 1.000000 1.687500 4.312500
v 1.000000 1.687500 4.687500
v 0.937500 1.687500 4.687500
vt 0.996094 0.625000
vt 1.000000 0.625000
vt 1.000000 0.601562
vt 0.996094 0.601562
f 805/805/5 808/808/5 807/807/5 806/806/5
v 0.937500 1.312500 4.687500
v 1.000000 1.312500 4.687500
v 1.000000 1.312500 4.312500
v 0.937500 1.312500 4.312500
vt 0.996094 0.625000
vt 1.000000 0.625000
vt 1.000000 0.601562
vt 0.996094 0.601562
f 809/809/6 812/812/6 811/811/6 810/810/6
v 3.062500 1.687500 4.312500
v 3.000000 1.687500 4.312500
v 3.000000 1.312500 4.312500
v 3.062500 1.312500 4.312500
vt 0.996094 0.625000
vt 1.000000 0.625000
vt 1.000000 0.601562
vt 0.996094 0.601562
f 813/813/1 816/816/1 815/815/1 814/814/1
v 3.000000 1.687500 4.687500
v 3.062500 1.687500 4.687500
v 3.062500 1.312500 4.687500
v 3.000000 1.312500 4.687500
vt 0.996094 0.625000
vt 1.000000 0.625000
vt 1.000000 0.601562
vt 0.996094 0.601562
f 817/817/2 820/820/2 819/819/2 818/818/2
v 3.062500 1.687500 4.687500
v 3.062500 1.687500 4.312500
v 3.062500 1.312500 4.312500
v 3.062500 1.312500 4.687500
vt 0.273438 0.363281
vt 0.296875 0.363281
vt 0.296875 0.339844
vt 0.273438 0.339844
f 821/821/4 824/824/4 823/823/4 822/822/4
v 3.000000 1.687500 4.312500
v 3.062500 1.687500 4.312500
v 3.062500 1.687500 4.687500
v 3.000000 1.687500 4.687500
vt 0.996094 0.625000
vt 1.000000 0.625000
vt 1.000000 0.601562
vt 0.996094 0.601562
f 825/825/5 828/828/5 827/827/5 826/826/5
v 3.000000 1.312500 4.687500
v 3.062500 1.312500 4.687500
v 3.062500 1.312500 4.312500
v 3.000000 1.312500 4.312500
vt 0.996094 0.625000
vt 1.000000 0.625000
vt 1.000000 0.601562
vt 0.996094 0.601562
f 829/829/6 832/832/6 831/831/6 830/830/6
v 1.625000 1.250000 -1.000000
v 1.625000 1.250000 0.000000
v 1.625000 0.500000 0.000000
v 1.625000 0.500000 -1.000000
vt 0.632812 0.410156
vt 0.695312 0.410156
vt 0.695312 0.363281
vt 0.632812 0.363281
f 833/833/3 836/836/3 835/835/3 834/834/3
v 2.375000 1.250000 0.000000
v 2.375000 1.250000 -1.000000
v 2.375000 0.500000 -1.000000
v 2.375000 0.500000 0.000000
vt 0.632812 0.410156
vt 0.695312 0.410156
vt 0.695312 0.363281
vt 0.632812 0.363281
f 837/837/4 840/840/4 839/839/4 838/838/4
v 1.625000 1.250000 -1.000000
v 2.375000 1.250000 -1.000000
v 2.375000 1.250000 0.000000
v 1.625000 1.250000 0.000000
vt 0.671875 0.511719
vt 0.718750 0.511719
vt 0.718750 0.449219
vt 0.671875 0.449219
f 841/841/5 844/844/5 843/843/5 842/842/5
v 1.625000 0.500000 0.000000
v 2.375000 0.500000 0.000000
v 2.375000 0.500000 -1.000000
v 1.625000 0.500000 -1.000000
vt 0.671875 0.511719
vt 0.718750 0.511719
vt 0.718750 0.449219
vt 0.671875 0.449219
f 845/845/6 848/848/6 847/847/6 846/846/6
v 2.500000 1.375000 -0.625000
v 1.500000 1.375000 -0.625000
v 1.500000 0.375000 -0.625000
v 2.500000 0.375000 -0.625000
vt 0.296875 0.511719
vt 0.359375 0.511719
vt 0.359375 0.449219
vt 0.296875 0.449219
f 849/849/1 852/852/1 851/851/1 850/850/1
v 1.500000 1.375000 -0.375000
v 2.500000 1.375000 -0.375000
v 2.500000 0.375000 -0.375000
v 1.500000 0.375000 -0.375000
vt 0.296875 0.511719
vt 0.359375 0.511719
vt 0.359375 0.449219
vt 0.296875 0.449219
f 853/853/2 856/856/2 855/855/2 854/854/2
v 1.500000 1.375000 -0.625000
v 1.500000 1.375000 -0.375000
v 1.500000 0.375000 -0.375000
v 1.500000 0.375000 -0.625000
vt 0.746094 0.511719
vt 0.761719 0.511719
vt 0.761719 0.449219
vt 0.746094 0.449219
f 857/857/3 860/860/3 859/859/3 858/858/3
v 2.500000 1.375000 -0.375000
v 2.500000 1.375000 -0.625000
v 2.500000 0.375000 -0.625000
v 2.500000 0.375000 -0.375000
vt 0.746094 0.511719
vt 0.761719 0.511719
vt 0.761719 0.449219
vt 0.746094 0.449219
f 861/861/4 864/864/4 863/863/4 862/862/4
v 1.500000 1.375000 -0.625000
v 2.500000 1.375000 -0.625000
v 2.500000 1.375000 -0.375000
v 1.500000 1.375000 -0.375000
vt 0.898438 0.363281
vt 0.960938 0.363281
vt 0.960938 0.347656
vt 0.898438 0.347656
f 865/865/5 868/868/5 867/867/5 866/866/5
v 1.500000 0.375000 -0.375000
v 2.500000 0.375000 -0.375000
v 2.500000 0.375000 -0.625000
v 1.500000 0.375000 -0.625000
vt 0.898438 0.363281
vt 0.960938 0.363281
vt 0.960938 0.347656
vt 0.898438 0.347656
f 869/869/6 872/872/6 871/871/6 870/870/6
v 2.500000 2.000000 -2.000000
v 1.500000 2.000000 -2.000000
v 1.500000 0.000000 -2.000000
v 2.500000 0.000000 -2.000000
vt 0.000000 0.750000
vt 0.062500 0.750000
vt 0.062500 0.625000
vt 0.000000 0.625000
f 873/873/1 876/876/1 875/875/1 874/874/1
v 1.500000 2.000000 -1.000000
v 2.500000 2.000000 -1.000000
v 2.500000 0.000000 -1.000000
v 1.500000 0.000000 -1.000000
vt 0.000000 0.750000
vt 0.062500 0.750000
vt 0.062500 0.625000
vt 0.000000 0.625000
f 877/877/2 880/880/2 879/879/2 878/878/2
v 1.500000 2.000000 -2.000000
v 1.500000 2.000000 -1.000000
v 1.500000 0.000000 -1.000000
v 1.500000 0.000000 -2.000000
vt 0.000000 0.750000
vt 0.062500 0.750000
vt 0.062500 0.625000
vt 0.000000 0.625000
f 881/881/3 884/884/3 883/883/3 882/882/3
v 2.500000 2.000000 -1.000000
v 2.500000 2.000000 -2.000000
v 2.500000 0.000000 -2.000000
v 2.500000 0.000000 -1.000000
vt 0.000000 0.750000
vt 0.062500 0.750000
vt 0.062500 0.625000
vt 0.000000 0.625000
f 885/885/4 888/888/4 887/887/4 886/886/4
v 1.500000 2.000000 -2.000000
v 2.500000 2.000000 -2.000000
v 2.500000 2.000000 -1.000000
v 1.500000 2.000000 -1.000000
vt 0.359375 0.511719
vt 0.421875 0.511719
vt 0.421875 0.449219
vt 0.359375 0.449219
f 889/889/5 892/892/5 891/891/5 890/890/5
v 2.125000 2.125000 -1.687500
v 1.875000 2.125000 -1.687500
v 1.875000 2.000000 -1.687500
v 2.125000 2.000000 -1.687500
vt 0.000000 0.316406
vt 0.015625 0.316406
vt 0.015625 0.308594
vt 0.000000 0.308594
f 893/893/1 896/896/1 895/895/1 894/894/1
v 1.875000 2.125000 -1.312500
v 2.125000 2.125000 -1.312500
v 2.125000 2.000000 -1.312500
v 1.875000 2.000000 -1.312500
vt 0.000000 0.316406
vt 0.015625 0.316406
vt 0.015625 0.308594
vt 0.000000 0.308594
f 897/897/2 900/900/2 899/899/2 898/898/2
v 1.875000 2.125000 -1.687500
v 1.875000 2.125000 -1.312500
v 1.875000 2.000000 -1.312500
v 1.875000 2.000000 -1.687500
vt 0.976562 0.332031
vt 1.000000 0.332031
vt 1.000000 0.324219
vt 0.976562 0.324219
f 901/901/3 904/904/3 903/903/3 902/902/3
v 2.125000 2.125000 -1.312500
v 2.125000 2.125000 -1.687500
v 2.125000 2.000000 -1.687500
v 2.125000 2.000000 -1.312500
vt 0.976562 0.332031
vt 1.000000 0.332031
vt 1.000000 0.324219
vt 0.976562 0.324219
f 905/905/4 908/908/4 907/907/4 906/906/4
v 1.875000 2.125000 -1.687500
v 2.125000 2.125000 -1.687500
v 2.125000 2.125000 -1.312500
v 1.875000 2.125000 -1.312500
vt 0.296875 0.363281
vt 0.312500 0.363281
vt 0.312500 0.339844
vt 0.296875 0.339844
f 909/909/5 912/912/5 911/911/5 910/910/5
v 0.000000 2.125000 -2.000000
v -1.000000 2.125000 -2.000000
v -1.000000 0.000000 -2.000000
v 0.000000 0.000000 -2.000000
vt 0.835938 1.000000
vt 0.898438 1.000000
vt 0.898438 0.867188
vt 0.835938 0.867188
f 913/913/1 916/916/1 915/915/1 914/914/1
v -1.000000 2.125000 -1.000000
v 0.000000 2.125000 -1.000000
v 0.000000 0.000000 -1.000000
v -1.000000 0.000000 -1.000000
vt 0.898438 1.000000
vt 0.960938 1.000000
vt 0.960938 0.867188
vt 0.898438 0.867188
f 917/917/2 920/920/2 919/919/2 918/918/2
v -1.000000 2.125000 -2.000000
v -1.000000 2.125000 -1.000000
v -1.000000 0.000000 -1.000000
v -1.000000 0.000000 -2.000000
vt 0.898438 1.000000
vt 0.960938 1.000000
vt 0.960938 0.867188
vt 0.898438 0.867188
f 921/921/3 924/924/3 923/923/3 922/922/3
v 0.000000 2.125000 -1.000000
v 0.000000 2.125000 -2.000000
v 0.000000 0.000000 -2.000000
v 0.000000 0.000000 -1.000000
vt 0.898438 1.000000
vt 0.960938 1.000000
vt 0.960938 0.867188
vt 0.898438 0.867188
f 925/925/4 928/928/4 927/927/4 926/926/4
v -1.000000 2.125000 -2.000000
v 0.000000 2.125000 -2.000000
v 0.000000 2.125000 -1.000000
v -1.000000 2.125000 -1.000000
vt 0.421875 0.511719
vt 0.484375 0.511719
vt 0.484375 0.449219
vt 0.421875 0.449219
f 929/929/5 932/932/5 931/931/5 930/930/5
v -1.000000 1.250000 -1.875000
v -2.500000 1.250000 -1.875000
v -2.500000 0.500000 -1.875000
v -1.000000 0.500000 -1.875000
vt 0.539062 0.410156
vt 0.632812 0.410156
vt 0.632812 0.363281
vt 0.539062 0.363281
f 933/933/1 936/936/1 935/935/1 934/934/1
v -2.500000 1.250000 -1.125000
v -1.000000 1.250000 -1.125000
v -1.000000 0.500000 -1.125000
v -2.500000 0.500000 -1.125000
vt 0.539062 0.410156
vt 0.632812 0.410156
vt 0.632812 0.363281
vt 0.539062 0.363281
f 937/937/2 940/940/2 939/939/2 938/938/2
v -2.500000 1.250000 -1.875000
v -1.000000 1.250000 -1.875000
v -1.000000 1.250000 -1.125000
v -2.500000 1.250000 -1.125000
vt 0.539062 0.410156
vt 0.632812 0.410156
vt 0.632812 0.363281
vt 0.539062 0.363281
f 941/941/5 944/944/5 943/943/5 942/942/5
v -2.500000 0.500000 -1.125000
v -1.000000 0.500000 -1.125000
v -1.000000 0.500000 -1.875000
v -2.500000 0.500000 -1.875000
vt 0.539062 0.410156
vt 0.632812 0.410156
vt 0.632812 0.363281
vt 0.539062 0.363281
f 945/945/6 948/948/6 947/947/6 946/946/6
v 1.500000 1.250000 -1.875000
v 0.000000 1.250000 -1.875000
v 0.000000 0.500000 -1.875000
v 1.500000 0.500000 -1.875000
vt 0.539062 0.410156
vt 0.632812 0.410156
vt 0.632812 0.363281
vt 0.539062 0.363281
f 949/949/1 952/952/1 951/951/1 950/950/1
v 0.000000 1.250000 -1.125000
v 1.500000 1.250000 -1.125000
v 1.500000 0.500000 -1.125000
v 0.000000 0.500000 -1.125000
vt 0.539062 0.410156
vt 0.632812 0.410156
vt 0.632812 0.363281
vt 0.539062 0.363281
f 953/953/2 956/956/2 955/955/2 954/954/2
v 0.000000 1.250000 -1.875000
v 1.500000 1.250000 -1.875000
v 1.500000 1.250000 -1.125000
v 0.000000 1.250000 -1.125000
vt 0.539062 0.410156
vt 0.632812 0.410156
vt 0.632812 0.363281
vt 0.539062 0.363281
f 957/957/5 960/960/5 959/959/5 958/958/5
v 0.000000 0.500000 -1.125000
v 1.500000 0.500000 -1.125000
v 1.500000 0.500000 -1.875000
v 0.000000 0.500000 -1.875000
vt 0.539062 0.410156
vt 0.632812 0.410156
vt 0.632812 0.363281
vt 0.539062 0.363281
f 961/961/6 964/964/6 963/963/6 962/962/6
v -1.625000 1.375000 -2.000000
v -1.875000 1.375000 -2.000000
v -1.875000 0.375000 -2.000000
v -1.625000 0.375000 -2.000000
vt 0.761719 0.511719
vt 0.777344 0.511719
vt 0.777344 0.449219
vt 0.761719 0.449219
f 965/965/1 968/968/1 967/967/1 966/966/1
v -1.875000 1.375000 -1.000000
v -1.625000 1.375000 -1.000000
v -1.625000 0.375000 -1.000000
v -1.875000 0.375000 -1.000000
vt 0.761719 0.511719
vt 0.777344 0.511719
vt 0.777344 0.449219
vt 0.761719 0.449219
f 969/969/2 972/972/2 971/971/2 970/970/2
v -1.875000 1.375000 -2.000000
v -1.875000 1.375000 -1.000000
v -1.875000 0.375000 -1.000000
v -1.875000 0.375000 -2.000000
vt 0.484375 0.511719
vt 0.546875 0.511719
vt 0.546875 0.449219
vt 0.484375 0.449219
f 973/973/3 976/976/3 975/975/3 974/974/3
v -1.625000 1.375000 -1.000000
v -1.625000 1.375000 -2.000000
v -1.625000 0.375000 -2.000000
v -1.625000 0.375000 -1.000000
vt 0.484375 0.511719
vt 0.546875 0.511719
vt 0.546875 0.449219
vt 0.484375 0.449219
f 977/977/4 980/980/4 979/979/4 978/978/4
v -1.875000 1.375000 -2.000000
v -1.625000 1.375000 -2.000000
v -1.625000 1.375000 -1.000000
v -1.875000 1.375000 -1.000000
vt 0.761719 0.511719
vt 0.777344 0.511719
vt 0.777344 0.449219
vt 0.761719 0.449219
f 981/981/5 984/984/5 983/983/5 982/982/5
v -1.875000 0.375000 -1.000000
v -1.625000 0.375000 -1.000000
v -1.625000 0.375000 -2.000000
v -1.875000 0.375000 -2.000000
vt 0.761719 0.511719
vt 0.777344 0.511719
vt 0.777344 0.449219
vt 0.761719 0.449219
f 985/985/6 988/988/6 987/987/6 986/986/6
v 0.875000 1.375000 -2.000000
v 0.625000 1.375000 -2.000000
v 0.625000 0.375000 -2.000000
v 0.875000 0.375000 -2.000000
vt 0.761719 0.511719
vt 0.777344 0.511719
vt 0.777344 0.449219
vt 0.761719 0.449219
f 989/989/1 992/992/1 991/991/1 990/990/1
v 0.625000 1.375000 -1.000000
v 0.875000 1.375000 -1.000000
v 0.875000 0.375000 -1.000000
v 0.625000 0.375000 -1.000000
vt 0.761719 0.511719
vt 0.777344 0.511719
vt 0.777344 0.449219
vt 0.761719 0.449219
f 993/993/2 996/996/2 995/995/2 994/994/2
v 0.625000 1.375000 -2.000000
v 0.625000 1.375000 -1.000000
v 0.625000 0.375000 -1.000000
v 0.625000 0.375000 -2.000000
vt 0.484375 0.511719
vt 0.546875 0.511719
vt 0.546875 0.449219
vt 0.484375 0.449219
f 997/997/3 1000/1000/3 999/999/3 998/998/3
v 0.875000 1.375000 -1.000000
v 0.875000 1.375000 -2.000000
v 0.875000 0.375000 -2.000000
v 0.875000 0.375000 -1.000000
vt 0.484375 0.511719
vt 0.546875 0.511719
vt 0.546875 0.449219
vt 0.484375 0.449219
f 1001/1001/4 1004/1004/4 1003/1003/4 1002/1002/4
v 0.625000 1.375000 -2.000000
v 0.875000 1.375000 -2.000000
v 0.875000 1.375000 -1.000000
v 0.625000 1.375000 -1.000000
vt 0.761719 0.511719
vt 0.777344 0.511719
vt 0.777344 0.449219
vt 0.761719 0.449219
f 1005/1005/5 1008/1008/5 1007/1007/5 1006/1006/5
v 0.625000 0.375000 -1.000000
v 0.875000 0.375000 -1.000000
v 0.875000 0.375000 -2.000000
v 0.625000 0.375000 -2.000000
vt 0.761719 0.511719
vt 0.777344 0.511719
vt 0.777344 0.449219
vt 0.761719 0.449219
f 1009/1009/6 1012/1012/6 1011/1011/6 1010/1010/6
v -0.875000 1.250000 -3.687500
v -0.875000 1.250000 -2.000000
v -0.875000 0.500000 -2.000000
v -0.875000 0.500000 -3.687500
vt 0.847656 0.511719
vt 0.953125 0.511719
vt 0.953125 0.464844
vt 0.847656 0.464844
f 1013/1013/3 1016/1016/3 1015/1015/3 1014/1014/3
v -0.125000 1.250000 -2.000000
v -0.125000 1.250000 -3.687500
v -0.125000 0.500000 -3.687500
v -0.125000 0.500000 -2.000000
vt 0.847656 0.511719
vt 0.953125 0.511719
vt 0.953125 0.464844
vt 0.847656 0.464844
f 1017/1017/4 1020/1020/4 1019/1019/4 1018/1018/4
v -0.875000 1.250000 -3.687500
v -0.125000 1.250000 -3.687500
v -0.125000 1.250000 -2.000000
v -0.875000 1.250000 -2.000000
vt 0.867188 0.750000
vt 0.914062 0.750000
vt 0.914062 0.644531
vt 0.867188 0.644531
f 1021/1021/5 1024/1024/5 1023/1023/5 1022/1022/5
v -0.875000 0.500000 -2.000000
v -0.125000 0.500000 -2.000000
v -0.125000 0.500000 -3.687500
v -0.875000 0.500000 -3.687500
vt 0.867188 0.750000
vt 0.914062 0.750000
vt 0.914062 0.644531
vt 0.867188 0.644531
f 1025/1025/6 1028/1028/6 1027/1027/6 1026/1026/6
v 0.000000 1.375000 -2.875000
v -1.000000 1.375000 -2.875000
v -1.000000 0.375000 -2.875000
v 0.000000 0.375000 -2.875000
vt 0.546875 0.511719
vt 0.609375 0.511719
vt 0.609375 0.449219
vt 0.546875 0.449219
f 1029/1029/1 1032/1032/1 1031/1031/1 1030/1030/1
v -1.000000 1.375000 -2.625000
v 0.000000 1.375000 -2.625000
v 0.000000 0.375000 -2.625000
v -1.000000 0.375000 -2.625000
vt 0.546875 0.511719
vt 0.609375 0.511719
vt 0.609375 0.449219
vt 0.546875 0.449219
f 1033/1033/2 1036/1036/2 1035/1035/2 1034/1034/2
v -1.000000 1.375000 -2.875000
v -1.000000 1.375000 -2.625000
v -1.000000 0.375000 -2.625000
v -1.000000 0.375000 -2.875000
vt 0.777344 0.511719
vt 0.792969 0.511719
vt 0.792969 0.449219
vt 0.777344 0.449219
f 1037/1037/3 1040/1040/3 1039/1039/3 1038/1038/3
v 0.000000 1.375000 -2.625000
v 0.000000 1.375000 -2.875000
v 0.000000 0.375000 -2.875000
v 0.000000 0.375000 -2.625000
vt 0.777344 0.511719
vt 0.792969 0.511719
vt 0.792969 0.449219
vt 0.777344 0.449219
f 1041/1041/4 1044/1044/4 1043/1043/4 1042/1042/4
v -1.000000 1.375000 -2.875000
v 0.000000 1.375000 -2.875000
v 0.000000 1.375000 -2.625000
v -1.000000 1.375000 -2.625000
vt 0.437500 0.332031
vt 0.500000 0.332031
vt 0.500000 0.316406
vt 0.437500 0.316406
f 1045/1045/5 1048/1048/5 1047/1047/5 1046/1046/5
v -1.000000 0.375000 -2.625000
v 0.000000 0.375000 -2.625000
v 0.000000 0.375000 -2.875000
v -1.000000 0.375000 -2.875000
vt 0.437500 0.332031
vt 0.500000 0.332031
vt 0.500000 0.316406
vt 0.437500 0.316406
f 1049/1049/6 1052/1052/6 1051/1051/6 1050/1050/6
v 1.000000 0.250000 -6.000000
v -3.000000 0.250000 -6.000000
v -3.000000 0.000000 -6.000000
v 1.000000 0.000000 -6.000000
vt 0.000000 0.332031
vt 0.250000 0.332031
vt 0.250000 0.316406
vt 0.000000 0.316406
f 1053/1053/1 1056/1056/1 1055/1055/1 1054/1054/1
v -3.000000 0.250000 -3.000000
v 1.000000 0.250000 -3.000000
v 1.000000 0.000000 -3.000000
v -3.000000 0.000000 -3.000000
vt 0.000000 0.332031
vt 0.250000 0.332031
vt 0.250000 0.316406
vt 0.000000 0.316406
f 1057/1057/2 1060/1060/2 1059/1059/2 1058/1058/2
v -3.000000 0.250000 -6.000000
v -3.000000 0.250000 -3.000000
v -3.000000 0.000000 -3.000000
v -3.000000 0.000000 -6.000000
vt 0.250000 0.332031
vt 0.437500 0.332031
vt 0.437500 0.316406
vt 0.250000 0.316406
f 1061/1061/3 1064/1064/3 1063/1063/3 1062/1062/3
v 1.000000 0.250000 -3.000000
v 1.000000 0.250000 -6.000000
v 1.000000 0.000000 -6.000000
v 1.000000 0.000000 -3.000000
vt 0.250000 0.332031
vt 0.437500 0.332031
vt 0.437500 0.316406
vt 0.250000 0.316406
f 1065/1065/4 1068/1068/4 1067/1067/4 1066/1066/4
v -3.000000 0.250000 -6.000000
v 1.000000 0.250000 -6.000000
v 1.000000 0.250000 -3.000000
v -3.000000 0.250000 -3.000000
vt 0.250000 1.000000
vt 0.500000 1.000000
vt 0.500000 0.812500
vt 0.250000 0.812500
f 1069/1069/5 1072/1072/5 1071/1071/5 1070/1070/5
v -2.125000 0.875000 -5.937500
v -2.937500 0.875000 -5.937500
v -2.937500 0.250000 -5.937500
v -2.125000 0.250000 -5.937500
vt 0.875000 0.410156
vt 0.925781 0.410156
vt 0.925781 0.371094
vt 0.875000 0.371094
f 1073/1073/1 1076/1076/1 1075/1075/1 1074/1074/1
v -2.937500 0.875000 -3.062500
v -2.125000 0.875000 -3.062500
v -2.125000 0.250000 -3.062500
v -2.937500 0.250000 -3.062500
vt 0.875000 0.410156
vt 0.925781 0.410156
vt 0.925781 0.371094
vt 0.875000 0.371094
f 1077/1077/2 1080/1080/2 1079/1079/2 1078/1078/2
v -2.937500 0.875000 -5.937500
v -2.937500 0.875000 -3.062500
v -2.937500 0.250000 -3.062500
v -2.937500 0.250000 -5.937500
vt 0.695312 0.410156
vt 0.875000 0.410156
vt 0.875000 0.371094
vt 0.695312 0.371094
f 1081/1081/3 1084/1084/3 1083/1083/3 1082/1082/3
v -2.125000 0.875000 -3.062500
v -2.125000 0.875000 -5.937500
v -2.125000 0.250000 -5.937500
v -2.125000 0.250000 -3.062500
vt 0.695312 0.410156
vt 0.875000 0.410156
vt 0.875000 0.371094
vt 0.695312 0.371094
f 1085/1085/4 1088/1088/4 1087/1087/4 1086/1086/4
v -2.937500 0.875000 -5.937500
v -2.125000 0.875000 -5.937500
v -2.125000 0.875000 -3.062500
v -2.937500 0.875000 -3.062500
vt 0.785156 1.000000
vt 0.835938 1.000000
vt 0.835938 0.820312
vt 0.785156 0.820312
f 1089/1089/5 1092/1092/5 1091/1091/5 1090/1090/5
v -2.937500 0.812500 -5.000000
v -3.000000 0.812500 -5.000000
v -3.000000 0.312500 -5.000000
v -2.937500 0.312500 -5.000000
vt 0.996094 0.750000
vt 1.000000 0.750000
vt 1.000000 0.718750
vt 0.996094 0.718750
f 1093/1093/1 1096/1096/1 1095/1095/1 1094/1094/1
v -3.000000 0.812500 -4.000000
v -2.937500 0.812500 -4.000000
v -2.937500 0.312500 -4.000000
v -3.000000 0.312500 -4.000000
vt 0.992188 0.625000
vt 0.996094 0.625000
vt 0.996094 0.593750
vt 0.992188 0.593750
f 1097/1097/2 1100/1100/2 1099/1099/2 1098/1098/2
v -3.000000 0.812500 -5.000000
v -3.000000 0.812500 -4.000000
v -3.000000 0.312500 -4.000000
v -3.000000 0.312500 -5.000000
vt 0.925781 0.410156
vt 0.988281 0.410156
vt 0.988281 0.378906
vt 0.925781 0.378906
f 1101/1101/3 1104/1104/3 1103/1103/3 1102/1102/3
v -3.000000 0.812500 -5.000000
v -2.937500 0.812500 -5.000000
v -2.937500 0.812500 -4.000000
v -3.000000 0.812500 -4.000000
vt 0.992188 1.000000
vt 0.996094 1.000000
vt 0.996094 0.937500
vt 0.992188 0.937500
f 1105/1105/5 1108/1108/5 1107/1107/5 1106/1106/5
v -3.000000 0.312500 -4.000000
v -2.937500 0.312500 -4.000000
v -2.937500 0.312500 -5.000000
v -3.000000 0.312500 -5.000000
vt 0.996094 1.000000
vt 1.000000 1.000000
vt 1.000000 0.937500
vt 0.996094 0.937500
f 1109/1109/6 1112/1112/6 1111/1111/6 1110/1110/6
v -1.000000 2.125000 -6.000000
v -2.000000 2.125000 -6.000000
v -2.000000 0.250000 -6.000000
v -1.000000 0.250000 -6.000000
vt 0.507812 0.750000
vt 0.570312 0.750000
vt 0.570312 0.632812
vt 0.507812 0.632812
f 1113/1113/1 1116/1116/1 1115/1115/1 1114/1114/1
v -2.000000 2.125000 -5.000000
v -1.000000 2.125000 -5.000000
v -1.000000 0.250000 -5.000000
v -2.000000 0.250000 -5.000000
vt 0.507812 0.750000
vt 0.570312 0.750000
vt 0.570312 0.632812
vt 0.507812 0.632812
f 1117/1117/2 1120/1120/2 1119/1119/2 1118/1118/2
v -2.000000 2.125000 -6.000000
v -2.000000 2.125000 -5.000000
v -2.000000 0.250000 -5.000000
v -2.000000 0.250000 -6.000000
vt 0.507812 0.750000
vt 0.570312 0.750000
vt 0.570312 0.632812
vt 0.507812 0.632812
f 1121/1121/3 1124/1124/3 1123/1123/3 1122/1122/3
v -1.000000 2.125000 -5.000000
v -1.000000 2.125000 -6.000000
v -1.000000 0.250000 -6.000000
v -1.000000 0.250000 -5.000000
vt 0.507812 0.750000
vt 0.570312 0.750000
vt 0.570312 0.632812
vt 0.507812 0.632812
f 1125/1125/4 1128/1128/4 1127/1127/4 1126/1126/4
v -2.000000 2.125000 -6.000000
v -1.000000 2.125000 -6.000000
v -1.000000 2.125000 -5.000000
v -2.000000 2.125000 -5.000000
vt 0.609375 0.511719
vt 0.671875 0.511719
vt 0.671875 0.449219
vt 0.609375 0.449219
f 1129/1129/5 1132/1132/5 1131/1131/5 1130/1130/5
v -1.187500 2.250000 -5.812500
v -1.812500 2.250000 -5.812500
v -1.812500 2.125000 -5.812500
v -1.187500 2.125000 -5.812500
vt 0.937500 0.332031
vt 0.976562 0.332031
vt 0.976562 0.324219
vt 0.937500 0.324219
f 1133/1133/1 1136/1136/1 1135/1135/1 1134/1134/1
v -1.812500 2.250000 -5.187500
v -1.187500 2.250000 -5.187500
v -1.187500 2.125000 -5.187500
v -1.812500 2.125000 -5.187500
vt 0.937500 0.332031
vt 0.976562 0.332031
vt 0.976562 0.324219
vt 0.937500 0.324219
f 1137/1137/2 1140/1140/2 1139/1139/2 1138/1138/2
v -1.812500 2.250000 -5.812500
v -1.812500 2.250000 -5.187500
v -1.812500 2.125000 -5.187500
v -1.812500 2.125000 -5.812500
vt 0.937500 0.332031
vt 0.976562 0.332031
vt 0.976562 0.324219
vt 0.937500 0.324219
f 1141/1141/3 1144/1144/3 1143/1143/3 1142/1142/3
v -1.187500 2.250000 -5.187500
v -1.187500 2.250000 -5.812500
v -1.187500 2.125000 -5.812500
v -1.187500 2.125000 -5.187500
vt 0.937500 0.332031
vt 0.976562 0.332031
vt 0.976562 0.324219
vt 0.937500 0.324219
f 1145/1145/4 1148/1148/4 1147/1147/4 1146/1146/4
v -1.812500 2.250000 -5.812500
v -1.187500 2.250000 -5.812500
v -1.187500 2.250000 -5.187500
v -1.812500 2.250000 -5.187500
vt 0.953125 0.511719
vt 0.992188 0.511719
vt 0.992188 0.472656
vt 0.953125 0.472656
f 1149/1149/5 1152/1152/5 1151/1151/5 1150/1150/5
v -1.000000 2.125000 -4.000000
v -2.000000 2.125000 -4.000000
v -2.000000 0.250000 -4.000000
v -1.000000 0.250000 -4.000000
vt 0.507812 0.750000
vt 0.570312 0.750000
vt 0.570312 0.632812
vt 0.507812 0.632812
f 1153/1153/1 1156/1156/1 1155/1155/1 1154/1154/1
v -2.000000 2.125000 -3.000000
v -1.000000 2.125000 -3.000000
v -1.000000 0.250000 -3.000000
v -2.000000 0.250000 -3.000000
vt 0.507812 0.750000
vt 0.570312 0.750000
vt 0.570312 0.632812
vt 0.507812 0.632812
f 1157/1157/2 1160/1160/2 1159/1159/2 1158/1158/2
v -2.000000 2.125000 -4.000000
v -2.000000 2.125000 -3.000000
v -2.000000 0.250000 -3.000000
v -2.000000 0.250000 -4.000000
vt 0.507812 0.750000
vt 0.570312 0.750000
vt 0.570312 0.632812
vt 0.507812 0.632812
f 1161/1161/3 1164/1164/3 1163/1163/3 1162/1162/3
v -1.000000 2.125000 -3.000000
v -1.000000 2.125000 -4.000000
v -1.000000 0.250000 -4.000000
v -1.000000 0.250000 -3.000000
vt 0.507812 0.750000
vt 0.570312 0.750000
vt 0.570312 0.632812
vt 0.507812 0.632812
f 1165/1165/4 1168/1168/4 1167/1167/4 1166/1166/4
v -2.000000 2.125000 -4.000000
v -1.000000 2.125000 -4.000000
v -1.000000 2.125000 -3.000000
v -2.000000 2.125000 -3.000000
vt 0.609375 0.511719
vt 0.671875 0.511719
vt 0.671875 0.449219
vt 0.609375 0.449219
f 1169/1169/5 1172/1172/5 1171/1171/5 1170/1170/5
v -1.187500 2.250000 -3.812500
v -1.812500 2.250000 -3.812500
v -1.812500 2.125000 -3.812500
v -1.187500 2.125000 -3.812500
vt 0.937500 0.332031
vt 0.976562 0.332031
vt 0.976562 0.324219
vt 0.937500 0.324219
f 1173/1173/1 1176/1176/1 1175/1175/1 1174/1174/1
v -1.812500 2.250000 -3.187500
v -1.187500 2.250000 -3.187500
v -1.187500 2.125000 -3.187500
v -1.812500 2.125000 -3.187500
vt 0.937500 0.332031
vt 0.976562 0.332031
vt 0.976562 0.324219
vt 0.937500 0.324219
f 1177/1177/2 1180/1180/2 1179/1179/2 1178/1178/2
v -1.812500 2.250000 -3.812500
v -1.812500 2.250000 -3.187500
v -1.812500 2.125000 -3.187500
v -1.812500 2.125000 -3.812500
vt 0.937500 0.332031
vt 0.976562 0.332031
vt 0.976562 0.324219
vt 0.937500 0.324219
f 1181/1181/3 1184/1184/3 1183/1183/3 1182/1182/3
v -1.187500 2.250000 -3.187500
v -1.187500 2.250000 -3.812500
v -1.187500 2.125000 -3.812500
v -1.187500 2.125000 -3.187500
vt 0.937500 0.332031
vt 0.976562 0.332031
vt 0.976562 0.324219
vt 0.937500 0.324219
f 1185/1185/4 1188/1188/4 1187/1187/4 1186/1186/4
v -1.812500 2.250000 -3.812500
v -1.187500 2.250000 -3.812500
v -1.187500 2.250000 -3.187500
v -1.812500 2.250000 -3.187500
vt 0.953125 0.511719
vt 0.992188 0.511719
vt 0.992188 0.472656
vt 0.953125 0.472656
f 1189/1189/5 1192/1192/5 1191/1191/5 1190/1190/5
v 1.000000 2.125000 -6.000000
v 0.000000 2.125000 -6.000000
v 0.000000 0.250000 -6.000000
v 1.000000 0.250000 -6.000000
vt 0.507812 0.750000
vt 0.570312 0.750000
vt 0.570312 0.632812
vt 0.507812 0.632812
f 1193/1193/1 1196/1196/1 1195/1195/1 1194/1194/1
v 0.000000 2.125000 -5.000000
v 1.000000 2.125000 -5.000000
v 1.000000 0.250000 -5.000000
v 0.000000 0.250000 -5.000000
vt 0.507812 0.750000
vt 0.570312 0.750000
vt 0.570312 0.632812
vt 0.507812 0.632812
f 1197/1197/2 1200/1200/2 1199/1199/2 1198/1198/2
v 0.000000 2.125000 -6.000000
v 0.000000 2.125000 -5.000000
v 0.000000 0.250000 -5.000000
v 0.000000 0.250000 -6.000000
vt 0.507812 0.750000
vt 0.570312 0.750000
vt 0.570312 0.632812
vt 0.507812 0.632812
f 1201/1201/3 1204/1204/3 1203/1203/3 1202/1202/3
v 1.000000 2.125000 -5.000000
v 1.000000 2.125000 -6.000000
v 1.000000 0.250000 -6.000000
v 1.000000 0.250000 -5.000000
vt 0.507812 0.750000
vt 0.570312 0.750000
vt 0.570312 0.632812
vt 0.507812 0.632812
f 1205/1205/4 1208/1208/4 1207/1207/4 1206/1206/4
v 0.000000 2.125000 -6.000000
v 1.000000 2.125000 -6.000000
v 1.000000 2.125000 -5.000000
v 0.000000 2.125000 -5.000000
vt 0.609375 0.511719
vt 0.671875 0.511719
vt 0.671875 0.449219
vt 0.609375 0.449219
f 1209/1209/5 1212/1212/5 1211/1211/5 1210/1210/5
v 0.812500 2.250000 -5.812500
v 0.187500 2.250000 -5.812500
v 0.187500 2.125000 -5.812500
v 0.812500 2.125000 -5.812500
vt 0.937500 0.332031
vt 0.976562 0.332031
vt 0.976562 0.324219
vt 0.937500 0.324219
f 1213/1213/1 1216/1216/1 1215/1215/1 1214/1214/1
v 0.187500 2.250000 -5.187500
v 0.812500 2.250000 -5.187500
v 0.812500 2.125000 -5.187500
v 0.187500 2.125000 -5.187500
vt 0.937500 0.332031
vt 0.976562 0.332031
vt 0.976562 0.324219
vt 0.937500 0.324219
f 1217/1217/2 1220/1220/2 1219/1219/2 1218/1218/2
v 0.187500 2.250000 -5.812500
v 0.187500 2.250000 -5.187500
v 0.187500 2.125000 -5.187500
v 0.187500 2.125000 -5.812500
vt 0.937500 0.332031
vt 0.976562 0.332031
vt 0.976562 0.324219
vt 0.937500 0.324219
f 1221/1221/3 1224/1224/3 1223/1223/3 1222/1222/3
v 0.812500 2.250000 -5.187500
v 0.812500 2.250000 -5.812500
v 0.812500 2.125000 -5.812500
v 0.812500 2.125000 -5.187500
vt 0.937500 0.332031
vt 0.976562 0.332031
vt 0.976562 0.324219
vt 0.937500 0.324219
f 1225/1225/4 1228/1228/4 1227/1227/4 1226/1226/4
v 0.187500 2.250000 -5.812500
v 0.812500 2.250000 -5.812500
v 0.812500 2.250000 -5.187500
v 0.187500 2.250000 -5.187500
vt 0.953125 0.511719
vt 0.992188 0.511719
vt 0.992188 0.472656
vt 0.953125 0.472656
f 1229/1229/5 1232/1232/5 1231/1231/5 1230/1230/5
v 1.000000 2.125000 -4.000000
v 0.000000 2.125000 -4.000000
v 0.000000 0.250000 -4.000000
v 1.000000 0.250000 -4.000000
vt 0.507812 0.750000
vt 0.570312 0.750000
vt 0.570312 0.632812
vt 0.507812 0.632812
f 1233/1233/1 1236/1236/1 1235/1235/1 1234/1234/1
v 0.000000 2.125000 -3.000000
v 1.000000 2.125000 -3.000000
v 1.000000 0.250000 -3.000000
v 0.000000 0.250000 -3.000000
vt 0.507812 0.750000
vt 0.570312 0.750000
vt 0.570312 0.632812
vt 0.507812 0.632812
f 1237/1237/2 1240/1240/2 1239/1239/2 1238/1238/2
v 0.000000 2.125000 -4.000000
v 0.000000 2.125000 -3.000000
v 0.000000 0.250000 -3.000000
v 0.000000 0.250000 -4.000000
vt 0.507812 0.750000
vt 0.570312 0.750000
vt 0.570312 0.632812
vt 0.507812 0.632812
f 1241/1241/3 1244/1244/3 1243/1243/3 1242/1242/3
v 1.000000 2.125000 -3.000000
v 1.000000 2.125000 -4.000000
v 1.000000 0.250000 -4.000000
v 1.000000 0.250000 -3.000000
vt 0.507812 0.750000
vt 0.570312 0.750000
vt 0.570312 0.632812
vt 0.507812 0.632812
f 1245/1245/4 1248/1248/4 1247/1247/4 1246/1246/4
v 0.000000 2.125000 -4.000000
v 1.000000 2.125000 -4.000000
v 1.000000 2.125000 -3.000000
v 0.000000 2.125000 -3.000000
vt 0.609375 0.511719
vt 0.671875 0.511719
vt 0.671875 0.449219
vt 0.609375 0.449219
f 1249/1249/5 1252/1252/5 1251/1251/5 1250/1250/5
v 0.812500 2.250000 -3.812500
v 0.187500 2.250000 -3.812500
v 0.187500 2.125000 -3.812500
v 0.812500 2.125000 -3.812500
vt 0.937500 0.332031
vt 0.976562 0.332031
vt 0.976562 0.324219
vt 0.937500 0.324219
f 1253/1253/1 1256/1256/1 1255/1255/1 1254/1254/1
v 0.187500 2.250000 -3.187500
v 0.812500 2.250000 -3.187500
v 0.812500 2.125000 -3.187500
v 0.187500 2.125000 -3.187500
vt 0.937500 0.332031
vt 0.976562 0.332031
vt 0.976562 0.324219
vt 0.937500 0.324219
f 1257/1257/2 1260/1260/2 1259/1259/2 1258/1258/2
v 0.187500 2.250000 -3.812500
v 0.187500 2.250000 -3.187500
v 0.187500 2.125000 -3.187500
v 0.187500 2.125000 -3.812500
vt 0.937500 0.332031
vt 0.976562 0.332031
vt 0.976562 0.324219
vt 0.937500 0.324219
f 1261/1261/3 1264/1264/3 1263/1263/3 1262/1262/3
v 0.812500 2.250000 -3.187500
v 0.812500 2.250000 -3.812500
v 0.812500 2.125000 -3.812500
v 0.812500 2.125000 -3.187500
vt 0.937500 0.332031
vt 0.976562 0.332031
vt 0.976562 0.324219
vt 0.937500 0.324219
f 1265/1265/4 1268/1268/4 1267/1267/4 1266/1266/4
v 0.187500 2.250000 -3.812500
v 0.812500 2.250000 -3.812500
v 0.812500 2.250000 -3.187500
v 0.187500 2.250000 -3.187500
vt 0.953125 0.511719
vt 0.992188 0.511719
vt 0.992188 0.472656
vt 0.953125 0.472656
f 1269/1269/5 1272/1272/5 1271/1271/5 1270/1270/5
v -1.750000 1.000000 -5.000000
v -1.750000 1.000000 -4.000000
v -1.750000 0.500000 -4.000000
v -1.750000 0.500000 -5.000000
vt 0.000000 0.363281
vt 0.062500 0.363281
vt 0.062500 0.332031
vt 0.000000 0.332031
f 1273/1273/3 1276/1276/3 1275/1275/3 1274/1274/3
v -1.312500 1.000000 -4.000000
v -1.312500 1.000000 -5.000000
v -1.312500 0.500000 -5.000000
v -1.312500 0.500000 -4.000000
vt 0.000000 0.363281
vt 0.062500 0.363281
vt 0.062500 0.332031
vt 0.000000 0.332031
f 1277/1277/4 1280/1280/4 1279/1279/4 1278/1278/4
v -1.750000 1.000000 -5.000000
v -1.312500 1.000000 -5.000000
v -1.312500 1.000000 -4.000000
v -1.750000 1.000000 -4.000000
vt 0.718750 0.511719
vt 0.746094 0.511719
vt 0.746094 0.449219
vt 0.718750 0.449219
f 1281/1281/5 1284/1284/5 1283/1283/5 1282/1282/5
v -1.750000 0.500000 -4.000000
v -1.312500 0.500000 -4.000000
v -1.312500 0.500000 -5.000000
v -1.750000 0.500000 -5.000000
vt 0.718750 0.511719
vt 0.746094 0.511719
vt 0.746094 0.449219
vt 0.718750 0.449219
f 1285/1285/6 1288/1288/6 1287/1287/6 1286/1286/6
v 0.312500 1.000000 -5.000000
v 0.312500 1.000000 -4.000000
v 0.312500 0.500000 -4.000000
v 0.312500 0.500000 -5.000000
vt 0.000000 0.363281
vt 0.062500 0.363281
vt 0.062500 0.332031
vt 0.000000 0.332031
f 1289/1289/3 1292/1292/3 1291/1291/3 1290/1290/3
v 0.750000 1.000000 -4.000000
v 0.750000 1.000000 -5.000000
v 0.750000 0.500000 -5.000000
v 0.750000 0.500000 -4.000000
vt 0.000000 0.363281
vt 0.062500 0.363281
vt 0.062500 0.332031
vt 0.000000 0.332031
f 1293/1293/4 1296/1296/4 1295/1295/4 1294/1294/4
v 0.312500 1.000000 -5.000000
v 0.750000 1.000000 -5.000000
v 0.750000 1.000000 -4.000000
v 0.312500 1.000000 -4.000000
vt 0.718750 0.511719
vt 0.746094 0.511719
vt 0.746094 0.449219
vt 0.718750 0.449219
f 1297/1297/5 1300/1300/5 1299/1299/5 1298/1298/5
v 0.312500 0.500000 -4.000000
v 0.750000 0.500000 -4.000000
v 0.750000 0.500000 -5.000000
v 0.312500 0.500000 -5.000000
vt 0.718750 0.511719
vt 0.746094 0.511719
vt 0.746094 0.449219
vt 0.718750 0.449219
f 1301/1301/6 1304/1304/6 1303/1303/6 1302/1302/6
v 0.000000 1.000000 -5.750000
v -1.000000 1.000000 -5.750000
v -1.000000 0.500000 -5.750000
v 0.000000 0.500000 -5.750000
vt 0.062500 0.363281
vt 0.125000 0.363281
vt 0.125000 0.332031
vt 0.062500 0.332031
f 1305/1305/1 1308/1308/1 1307/1307/1 1306/1306/1
v -1.000000 1.000000 -5.312500
v 0.000000 1.000000 -5.312500
v 0.000000 0.500000 -5.312500
v -1.000000 0.500000 -5.312500
vt 0.062500 0.363281
vt 0.125000 0.363281
vt 0.125000 0.332031
vt 0.062500 0.332031
f 1309/1309/2 1312/1312/2 1311/1311/2 1310/1310/2
v -1.000000 1.000000 -5.750000
v 0.000000 1.000000 -5.750000
v 0.000000 1.000000 -5.312500
v -1.000000 1.000000 -5.312500
vt 0.210938 0.363281
vt 0.273438 0.363281
vt 0.273438 0.335938
vt 0.210938 0.335938
f 1313/1313/5 1316/1316/5 1315/1315/5 1314/1314/5
v -1.000000 0.500000 -5.312500
v 0.000000 0.500000 -5.312500
v 0.000000 0.500000 -5.750000
v -1.000000 0.500000 -5.750000
vt 0.210938 0.363281
vt 0.273438 0.363281
vt 0.273438 0.335938
vt 0.210938 0.335938
f 1317/1317/6 1320/1320/6 1319/1319/6 1318/1318/6
v -1.750000 2.000000 -5.000000
v -1.750000 2.000000 -4.000000
v -1.750000 1.500000 -4.000000
v -1.750000 1.500000 -5.000000
vt 0.000000 0.363281
vt 0.062500 0.363281
vt 0.062500 0.332031
vt 0.000000 0.332031
f 1321/1321/3 1324/1324/3 1323/1323/3 1322/1322/3
v -1.312500 2.000000 -4.000000
v -1.312500 2.000000 -5.000000
v -1.312500 1.500000 -5.000000
v -1.312500 1.500000 -4.000000
vt 0.000000 0.363281
vt 0.062500 0.363281
vt 0.062500 0.332031
vt 0.000000 0.332031
f 1325/1325/4 1328/1328/4 1327/1327/4 1326/1326/4
v -1.750000 2.000000 -5.000000
v -1.312500 2.000000 -5.000000
v -1.312500 2.000000 -4.000000
v -1.750000 2.000000 -4.000000
vt 0.718750 0.511719
vt 0.746094 0.511719
vt 0.746094 0.449219
vt 0.718750 0.449219
f 1329/1329/5 1332/1332/5 1331/1331/5 1330/1330/5
v -1.750000 1.500000 -4.000000
v -1.312500 1.500000 -4.000000
v -1.312500 1.500000 -5.000000
v -1.750000 1.500000 -5.000000
vt 0.718750 0.511719
vt 0.746094 0.511719
vt 0.746094 0.449219
vt 0.718750 0.449219
f 1333/1333/6 1336/1336/6 1335/1335/6 1334/1334/6
v 0.312500 2.000000 -5.000000
v 0.312500 2.000000 -4.000000
v 0.312500 1.500000 -4.000000
v 0.312500 1.500000 -5.000000
vt 0.000000 0.363281
vt 0.062500 0.363281
vt 0.062500 0.332031
vt 0.000000 0.332031
f 1337/1337/3 1340/1340/3 1339/1339/3 1338/1338/3
v 0.750000 2.000000 -4.000000
v 0.750000 2.000000 -5.000000
v 0.750000 1.500000 -5.000000
v 0.750000 1.500000 -4.000000
vt 0.000000 0.363281
vt 0.062500 0.363281
vt 0.062500 0.332031
vt 0.000000 0.332031
f 1341/1341/4 1344/1344/4 1343/1343/4 1342/1342/4
v 0.312500 2.000000 -5.000000
v 0.750000 2.000000 -5.000000
v 0.750000 2.000000 -4.000000
v 0.312500 2.000000 -4.000000
vt 0.718750 0.511719
vt 0.746094 0.511719
vt 0.746094 0.449219
vt 0.718750 0.449219
f 1345/1345/5 1348/1348/5 1347/1347/5 1346/1346/5
v 0.312500 1.500000 -4.000000
v 0.750000 1.500000 -4.000000
v 0.750000 1.500000 -5.000000
v 0.312500 1.500000 -5.000000
vt 0.718750 0.511719
vt 0.746094 0.511719
vt 0.746094 0.449219
vt 0.718750 0.449219
f 1349/1349/6 1352/1352/6 1351/1351/6 1350/1350/6
v 0.000000 2.000000 -5.750000
v -1.000000 2.000000 -5.750000
v -1.000000 1.500000 -5.750000
v 0.000000 1.500000 -5.750000
vt 0.062500 0.363281
vt 0.125000 0.363281
vt 0.125000 0.332031
vt 0.062500 0.332031
f 1353/1353/1 1356/1356/1 1355/1355/1 1354/1354/1
v -1.000000 2.000000 -5.312500
v 0.000000 2.000000 -5.312500
v 0.000000 1.500000 -5.312500
v -1.000000 1.500000 -5.312500
vt 0.062500 0.363281
vt 0.125000 0.363281
vt 0.125000 0.332031
vt 0.062500 0.332031
f 1357/1357/2 1360/1360/2 1359/1359/2 1358/1358/2
v -1.000000 2.000000 -5.750000
v 0.000000 2.000000 -5.750000
v 0.000000 2.000000 -5.312500
v -1.000000 2.000000 -5.312500
vt 0.210938 0.363281
vt 0.273438 0.363281
vt 0.273438 0.335938
vt 0.210938 0.335938
f 1361/1361/5 1364/1364/5 1363/1363/5 1362/1362/5
v -1.000000 1.500000 -5.312500
v 0.000000 1.500000 -5.312500
v 0.000000 1.500000 -5.750000
v -1.000000 1.500000 -5.750000
vt 0.210938 0.363281
vt 0.273438 0.363281
vt 0.273438 0.335938
vt 0.210938 0.335938
f 1365/1365/6 1368/1368/6 1367/1367/6 1366/1366/6
v 0.312500 1.000000 -5.312500
v -1.312500 1.000000 -5.312500
v -1.312500 0.250000 -5.312500
v 0.312500 0.250000 -5.312500
vt 0.437500 0.410156
vt 0.539062 0.410156
vt 0.539062 0.363281
vt 0.437500 0.363281
f 1369/1369/1 1372/1372/1 1371/1371/1 1370/1370/1
v -1.312500 1.000000 -3.687500
v 0.312500 1.000000 -3.687500
v 0.312500 0.250000 -3.687500
v -1.312500 0.250000 -3.687500
vt 0.437500 0.410156
vt 0.539062 0.410156
vt 0.539062 0.363281
vt 0.437500 0.363281
f 1373/1373/2 1376/1376/2 1375/1375/2 1374/1374/2
v -1.312500 1.000000 -5.312500
v -1.312500 1.000000 -3.687500
v -1.312500 0.250000 -3.687500
v -1.312500 0.250000 -5.312500
vt 0.437500 0.410156
vt 0.539062 0.410156
vt 0.539062 0.363281
vt 0.437500 0.363281
f 1377/1377/3 1380/1380/3 1379/1379/3 1378/1378/3
v 0.312500 1.000000 -3.687500
v 0.312500 1.000000 -5.312500
v 0.312500 0.250000 -5.312500
v 0.312500 0.250000 -3.687500
vt 0.437500 0.410156
vt 0.539062 0.410156
vt 0.539062 0.363281
vt 0.437500 0.363281
f 1381/1381/4 1384/1384/4 1383/1383/4 1382/1382/4
v -1.312500 1.000000 -5.312500
v 0.312500 1.000000 -5.312500
v 0.312500 1.000000 -3.687500
v -1.312500 1.000000 -3.687500
vt 0.000000 0.511719
vt 0.101562 0.511719
vt 0.101562 0.410156
vt 0.000000 0.410156
f 1385/1385/5 1388/1388/5 1387/1387/5 1386/1386/5
v 0.062500 2.500000 -5.062500
v -1.062500 2.500000 -5.062500
v -1.062500 1.000000 -5.062500
v 0.062500 1.000000 -5.062500
vt 0.925781 0.750000
vt 0.996094 0.750000
vt 0.996094 0.656250
vt 0.925781 0.656250
f 1389/1389/1 1392/1392/1 1391/1391/1 1390/1390/1
v -1.062500 2.500000 -3.937500
v 0.062500 2.500000 -3.937500
v 0.062500 1.000000 -3.937500
v -1.062500 1.000000 -3.937500
vt 0.925781 0.750000
vt 0.996094 0.750000
vt 0.996094 0.656250
vt 0.925781 0.656250
f 1393/1393/2 1396/1396/2 1395/1395/2 1394/1394/2
v -1.062500 2.500000 -5.062500
v -1.062500 2.500000 -3.937500
v -1.062500 1.000000 -3.937500
v -1.062500 1.000000 -5.062500
vt 0.925781 0.750000
vt 0.996094 0.750000
vt 0.996094 0.656250
vt 0.925781 0.656250
f 1397/1397/3 1400/1400/3 1399/1399/3 1398/1398/3
v 0.062500 2.500000 -3.937500
v 0.062500 2.500000 -5.062500
v 0.062500 1.000000 -5.062500
v 0.062500 1.000000 -3.937500
vt 0.925781 0.750000
vt 0.996094 0.750000
vt 0.996094 0.656250
vt 0.925781 0.656250
f 1401/1401/4 1404/1404/4 1403/1403/4 1402/1402/4
v -1.062500 2.500000 -5.062500
v 0.062500 2.500000 -5.062500
v 0.062500 2.500000 -3.937500
v -1.062500 2.500000 -3.937500
vt 0.101562 0.511719
vt 0.171875 0.511719
vt 0.171875 0.441406
vt 0.101562 0.441406
f 1405/1405/5 1408/1408/5 1407/1407/5 1406/1406/5
v 0.125000 1.500000 -5.125000
v -1.125000 1.500000 -5.125000
v -1.125000 1.250000 -5.125000
v 0.125000 1.250000 -5.125000
vt 0.820312 0.363281
vt 0.898438 0.363281
vt 0.898438 0.347656
vt 0.820312 0.347656
f 1409/1409/1 1412/1412/1 1411/1411/1 1410/1410/1
v -1.125000 1.500000 -3.875000
v 0.125000 1.500000 -3.875000
v 0.125000 1.250000 -3.875000
v -1.125000 1.250000 -3.875000
vt 0.820312 0.363281
vt 0.898438 0.363281
vt 0.898438 0.347656
vt 0.820312 0.347656
f 1413/1413/2 1416/1416/2 1415/1415/2 1414/1414/2
v -1.125000 1.500000 -5.125000
v -1.125000 1.500000 -3.875000
v -1.125000 1.250000 -3.875000
v -1.125000 1.250000 -5.125000
vt 0.820312 0.363281
vt 0.898438 0.363281
vt 0.898438 0.347656
vt 0.820312 0.347656
f 1417/1417/3 1420/1420/3 1419/1419/3 1418/1418/3
v 0.125000 1.500000 -3.875000
v 0.125000 1.500000 -5.125000
v 0.125000 1.250000 -5.125000
v 0.125000 1.250000 -3.875000
vt 0.820312 0.363281
vt 0.898438 0.363281
vt 0.898438 0.347656
vt 0.820312 0.347656
f 1421/1421/4 1424/1424/4 1423/1423/4 1422/1422/4
v -1.125000 1.500000 -5.125000
v 0.125000 1.500000 -5.125000
v 0.125000 1.500000 -3.875000
v -1.125000 1.500000 -3.875000
vt 0.914062 0.625000
vt 0.992188 0.625000
vt 0.992188 0.546875
vt 0.914062 0.546875
f 1425/1425/5 1428/1428/5 1427/1427/5 1426/1426/5
v -1.125000 1.250000 -3.875000
v 0.125000 1.250000 -3.875000
v 0.125000 1.250000 -5.125000
v -1.125000 1.250000 -5.125000
vt 0.914062 0.625000
vt 0.992188 0.625000
vt 0.992188 0.546875
vt 0.914062 0.546875
f 1429/1429/6 1432/1432/6 1431/1431/6 1430/1430/6
v 0.125000 2.062500 -5.125000
v -1.125000 2.062500 -5.125000
v -1.125000 1.812500 -5.125000
v 0.125000 1.812500 -5.125000
vt 0.820312 0.363281
vt 0.898438 0.363281
vt 0.898438 0.347656
vt 0.820312 0.347656
f 1433/1433/1 1436/1436/1 1435/1435/1 1434/1434/1
v -1.125000 2.062500 -3.875000
v 0.125000 2.062500 -3.875000
v 0.125000 1.812500 -3.875000
v -1.125000 1.812500 -3.875000
vt 0.820312 0.363281
vt 0.898438 0.363281
vt 0.898438 0.347656
vt 0.820312 0.347656
f 1437/1437/2 1440/1440/2 1439/1439/2 1438/1438/2
v -1.125000 2.062500 -5.125000
v -1.125000 2.062500 -3.875000
v -1.125000 1.812500 -3.875000
v -1.125000 1.812500 -5.125000
vt 0.820312 0.363281
vt 0.898438 0.363281
vt 0.898438 0.347656
vt 0.820312 0.347656
f 1441/1441/3 1444/1444/3 1443/1443/3 1442/1442/3
v 0.125000 2.062500 -3.875000
v 0.125000 2.062500 -5.125000
v 0.125000 1.812500 -5.125000
v 0.125000 1.812500 -3.875000
vt 0.820312 0.363281
vt 0.898438 0.363281
vt 0.898438 0.347656
vt 0.820312 0.347656
f 1445/1445/4 1448/1448/4 1447/1447/4 1446/1446/4
v -1.125000 2.062500 -5.125000
v 0.125000 2.062500 -5.125000
v 0.125000 2.062500 -3.875000
v -1.125000 2.062500 -3.875000
vt 0.914062 0.625000
vt 0.992188 0.625000
vt 0.992188 0.546875
vt 0.914062 0.546875
f 1449/1449/5 1452/1452/5 1451/1451/5 1450/1450/5
v -1.125000 1.812500 -3.875000
v 0.125000 1.812500 -3.875000
v 0.125000 1.812500 -5.125000
v -1.125000 1.812500 -5.125000
vt 0.914062 0.625000
vt 0.992188 0.625000
vt 0.992188 0.546875
vt 0.914062 0.546875
f 1453/1453/6 1456/1456/6 1455/1455/6 1454/1454/6
v -0.062500 3.000000 -4.937500
v -0.937500 3.000000 -4.937500
v -0.937500 2.500000 -4.937500
v -0.062500 2.500000 -4.937500
vt 0.125000 0.363281
vt 0.179688 0.363281
vt 0.179688 0.332031
vt 0.125000 0.332031
f 1457/1457/1 1460/1460/1 1459/1459/1 1458/1458/1
v -0.937500 3.000000 -4.062500
v -0.062500 3.000000 -4.062500
v -0.062500 2.500000 -4.062500
v -0.937500 2.500000 -4.062500
vt 0.125000 0.363281
vt 0.179688 0.363281
vt 0.179688 0.332031
vt 0.125000 0.332031
f 1461/1461/2 1464/1464/2 1463/1463/2 1462/1462/2
v -0.937500 3.000000 -4.937500
v -0.937500 3.000000 -4.062500
v -0.937500 2.500000 -4.062500
v -0.937500 2.500000 -4.937500
vt 0.125000 0.363281
vt 0.179688 0.363281
vt 0.179688 0.332031
vt 0.125000 0.332031
f 1465/1465/3 1468/1468/3 1467/1467/3 1466/1466/3
v -0.062500 3.000000 -4.062500
v -0.062500 3.000000 -4.937500
v -0.062500 2.500000 -4.937500
v -0.062500 2.500000 -4.062500
vt 0.125000 0.363281
vt 0.179688 0.363281
vt 0.179688 0.332031
vt 0.125000 0.332031
f 1469/1469/4 1472/1472/4 1471/1471/4 1470/1470/4
v -0.937500 3.000000 -4.937500
v -0.062500 3.000000 -4.937500
v -0.062500 3.000000 -4.062500
v -0.937500 3.000000 -4.062500
vt 0.792969 0.511719
vt 0.847656 0.511719
vt 0.847656 0.457031
vt 0.792969 0.457031
f 1473/1473/5 1476/1476/5 1475/1475/5 1474/1474/5
v -0.250000 3.250000 -4.750000
v -0.750000 3.250000 -4.750000
v -0.750000 3.000000 -4.750000
v -0.250000 3.000000 -4.750000
vt 0.960938 0.363281
vt 0.992188 0.363281
vt 0.992188 0.347656
vt 0.960938 0.347656
f 1477/1477/1 1480/1480/1 1479/1479/1 1478/1478/1
v -0.750000 3.250000 -4.250000
v -0.250000 3.250000 -4.250000
v -0.250000 3.000000 -4.250000
v -0.750000 3.000000 -4.250000
vt 0.960938 0.363281
vt 0.992188 0.363281
vt 0.992188 0.347656
vt 0.960938 0.347656
f 1481/1481/2 1484/1484/2 1483/1483/2 1482/1482/2
v -0.750000 3.250000 -4.750000
v -0.750000 3.250000 -4.250000
v -0.750000 3.000000 -4.250000
v -0.750000 3.000000 -4.750000
vt 0.960938 0.363281
vt 0.992188 0.363281
vt 0.992188 0.347656
vt 0.960938 0.347656
f 1485/1485/3 1488/1488/3 1487/1487/3 1486/1486/3
v -0.250000 3.250000 -4.250000
v -0.250000 3.250000 -4.750000
v -0.250000 3.000000 -4.750000
v -0.250000 3.000000 -4.250000
vt 0.960938 0.363281
vt 0.992188 0.363281
vt 0.992188 0.347656
vt 0.960938 0.347656
f 1489/1489/4 1492/1492/4 1491/1491/4 1490/1490/4
v -0.750000 3.250000 -4.750000
v -0.250000 3.250000 -4.750000
v -0.250000 3.250000 -4.250000
v -0.750000 3.250000 -4.250000
vt 0.179688 0.363281
vt 0.210938 0.363281
vt 0.210938 0.332031
vt 0.179688 0.332031
f 1493/1493/5 1496/1496/5 1495/1495/5 1494/1494/5
