# precision_laser_etcher generated by machinegen.py
mtllib precision_laser_etcher.mtl
usemtl precision_laser_etcher
vn 0 0 -1
vn 0 0 1
vn -1 0 0
vn 1 0 0
vn 0 1 0
vn 0 -1 0
o Hull
v 0.000000 0.187500 -3.000000
v -3.000000 0.187500 -3.000000
v -3.000000 0.000000 -3.000000
v 0.000000 0.000000 -3.000000
vt 0.484375 0.320312
vt 0.859375 0.320312
vt 0.859375 0.296875
vt 0.484375 0.296875
f 1/1/1 4/4/1 3/3/1 2/2/1
v -3.000000 0.187500 0.000000
v 0.000000 0.187500 0.000000
v 0.000000 0.000000 0.000000
v -3.000000 0.000000 0.000000
vt 0.484375 0.320312
vt 0.859375 0.320312
vt 0.859375 0.296875
vt 0.484375 0.296875
f 5/5/2 8/8/2 7/7/2 6/6/2
v -3.000000 0.187500 -3.000000
v -3.000000 0.187500 0.000000
v -3.000000 0.000000 0.000000
v -3.000000 0.000000 -3.000000
vt 0.484375 0.320312
vt 0.859375 0.320312
vt 0.859375 0.296875
vt 0.484375 0.296875
f 9/9/3 12/12/3 11/11/3 10/10/3
v 0.000000 0.187500 0.000000
v 0.000000 0.187500 -3.000000
v 0.000000 0.000000 -3.000000
v 0.000000 0.000000 0.000000
vt 0.484375 0.320312
vt 0.859375 0.320312
vt 0.859375 0.296875
vt 0.484375 0.296875
f 13/13/4 16/16/4 15/15/4 14/14/4
v -3.000000 0.187500 -3.000000
v 0.000000 0.187500 -3.000000
v 0.000000 0.187500 0.000000
v -3.000000 0.187500 0.000000
vt 0.000000 1.000000
vt 0.375000 1.000000
vt 0.375000 0.625000
vt 0.000000 0.625000
f 17/17/5 20/20/5 19/19/5 18/18/5
v -2.812500 0.812500 -3.000000
v -3.000000 0.812500 -3.000000
v -3.000000 0.187500 -3.000000
v -2.812500 0.187500 -3.000000
vt 0.968750 0.492188
vt 0.992188 0.492188
vt 0.992188 0.414062
vt 0.968750 0.414062
f 21/21/1 24/24/1 23/23/1 22/22/1
v -3.000000 0.812500 -2.812500
v -2.812500 0.812500 -2.812500
v -2.812500 0.187500 -2.812500
v -3.000000 0.187500 -2.812500
vt 0.968750 0.492188
vt 0.992188 0.492188
vt 0.992188 0.414062
vt 0.968750 0.414062
f 25/25/2 28/28/2 27/27/2 26/26/2
v -3.000000 0.812500 -3.000000
v -3.000000 0.812500 -2.812500
v -3.000000 0.187500 -2.812500
v -3.000000 0.187500 -3.000000
vt 0.968750 0.492188
vt 0.992188 0.492188
vt 0.992188 0.414062
vt 0.968750 0.414062
f 29/29/3 32/32/3 31/31/3 30/30/3
v -2.812500 0.812500 -2.812500
v -2.812500 0.812500 -3.000000
v -2.812500 0.187500 -3.000000
v -2.812500 0.187500 -2.812500
vt 0.968750 0.492188
vt 0.992188 0.492188
vt 0.992188 0.414062
vt 0.968750 0.414062
f 33/33/4 36/36/4 35/35/4 34/34/4
v 0.000000 0.812500 -3.000000
v -0.187500 0.812500 -3.000000
v -0.187500 0.187500 -3.000000
v 0.000000 0.187500 -3.000000
vt 0.968750 0.492188
vt 0.992188 0.492188
vt 0.992188 0.414062
vt 0.968750 0.414062
f 37/37/1 40/40/1 39/39/1 38/38/1
v -0.187500 0.812500 -2.812500
v 0.000000 0.812500 -2.812500
v 0.000000 0.187500 -2.812500
v -0.187500 0.187500 -2.812500
vt 0.968750 0.492188
vt 0.992188 0.492188
vt 0.992188 0.414062
vt 0.968750 0.414062
f 41/41/2 44/44/2 43/43/2 42/42/2
v -0.187500 0.812500 -3.000000
v -0.187500 0.812500 -2.812500
v -0.187500 0.187500 -2.812500
v -0.187500 0.187500 -3.000000
vt 0.968750 0.492188
vt 0.992188 0.492188
vt 0.992188 0.414062
vt 0.968750 0.414062
f 45/45/3 48/48/3 47/47/3 46/46/3
v 0.000000 0.812500 -2.812500
v 0.000000 0.812500 -3.000000
v 0.000000 0.187500 -3.000000
v 0.000000 0.187500 -2.812500
vt 0.968750 0.492188
vt 0.992188 0.492188
vt 0.992188 0.414062
vt 0.968750 0.414062
f 49/49/4 52/52/4 51/51/4 50/50/4
v -2.812500 0.812500 -0.187500
v -3.000000 0.812500 -0.187500
v -3.000000 0.187500 -0.187500
v -2.812500 0.187500 -0.187500
vt 0.968750 0.492188
vt 0.992188 0.492188
vt 0.992188 0.414062
vt 0.968750 0.414062
f 53/53/1 56/56/1 55/55/1 54/54/1
v -3.000000 0.812500 0.000000
v -2.812500 0.812500 0.000000
v -2.812500 0.187500 0.000000
v -3.000000 0.187500 0.000000
vt 0.968750 0.492188
vt 0.992188 0.492188
vt 0.992188 0.414062
vt 0.968750 0.414062
f 57/57/2 60/60/2 59/59/2 58/58/2
v -3.000000 0.812500 -0.187500
v -3.000000 0.812500 0.000000
v -3.000000 0.187500 0.000000
v -3.000000 0.187500 -0.187500
vt 0.968750 0.492188
vt 0.992188 0.492188
vt 0.992188 0.414062
vt 0.968750 0.414062
f 61/61/3 64/64/3 63/63/3 62/62/3
v -2.812500 0.812500 0.000000
v -2.812500 0.812500 -0.187500
v -2.812500 0.187500 -0.187500
v -2.812500 0.187500 0.000000
vt 0.968750 0.492188
vt 0.992188 0.492188
vt 0.992188 0.414062
vt 0.968750 0.414062
f 65/65/4 68/68/4 67/67/4 66/66/4
v 0.000000 0.812500 -0.187500
v -0.187500 0.812500 -0.187500
v -0.187500 0.187500 -0.187500
v 0.000000 0.187500 -0.187500
vt 0.968750 0.492188
vt 0.992188 0.492188
vt 0.992188 0.414062
vt 0.968750 0.414062
f 69/69/1 72/72/1 71/71/1 70/70/1
v -0.187500 0.812500 0.000000
v 0.000000 0.812500 0.000000
v 0.000000 0.187500 0.000000
v -0.187500 0.187500 0.000000
vt 0.968750 0.492188
vt 0.992188 0.492188
vt 0.992188 0.414062
vt 0.968750 0.414062
f 73/73/2 76/76/2 75/75/2 74/74/2
v -0.187500 0.812500 -0.187500
v -0.187500 0.812500 0.000000
v -0.187500 0.187500 0.000000
v -0.187500 0.187500 -0.187500
vt 0.968750 0.492188
vt 0.992188 0.492188
vt 0.992188 0.414062
vt 0.968750 0.414062
f 77/77/3 80/80/3 79/79/3 78/78/3
v 0.000000 0.812500 0.000000
v 0.000000 0.812500 -0.187500
v 0.000000 0.187500 -0.187500
v 0.000000 0.187500 0.000000
vt 0.968750 0.492188
vt 0.992188 0.492188
vt 0.992188 0.414062
vt 0.968750 0.414062
f 81/81/4 84/84/4 83/83/4 82/82/4
v -1.937500 0.812500 -3.000000
v -2.062500 0.812500 -3.000000
v -2.062500 0.187500 -3.000000
v -1.937500 0.187500 -3.000000
vt 0.359375 0.398438
vt 0.375000 0.398438
vt 0.375000 0.320312
vt 0.359375 0.320312
f 85/85/1 88/88/1 87/87/1 86/86/1
v -2.062500 0.812500 -2.875000
v -1.937500 0.812500 -2.875000
v -1.937500 0.187500 -2.875000
v -2.062500 0.187500 -2.875000
vt 0.359375 0.398438
vt 0.375000 0.398438
vt 0.375000 0.320312
vt 0.359375 0.320312
f 89/89/2 92/92/2 91/91/2 90/90/2
v -2.062500 0.812500 -3.000000
v -2.062500 0.812500 -2.875000
v -2.062500 0.187500 -2.875000
v -2.062500 0.187500 -3.000000
vt 0.359375 0.398438
vt 0.375000 0.398438
vt 0.375000 0.320312
vt 0.359375 0.320312
f 93/93/3 96/96/3 95/95/3 94/94/3
v -1.937500 0.812500 -2.875000
v -1.937500 0.812500 -3.000000
v -1.937500 0.187500 -3.000000
v -1.937500 0.187500 -2.875000
vt 0.359375 0.398438
vt 0.375000 0.398438
vt 0.375000 0.320312
vt 0.359375 0.320312
f 97/97/4 100/100/4 99/99/4 98/98/4
v -0.937500 0.812500 -3.000000
v -1.062500 0.812500 -3.000000
v -1.062500 0.187500 -3.000000
v -0.937500 0.187500 -3.000000
vt 0.359375 0.398438
vt 0.375000 0.398438
vt 0.375000 0.320312
vt 0.359375 0.320312
f 101/101/1 104/104/1 103/103/1 102/102/1
v -1.062500 0.812500 -2.875000
v -0.937500 0.812500 -2.875000
v -0.937500 0.187500 -2.875000
v -1.062500 0.187500 -2.875000
vt 0.359375 0.398438
vt 0.375000 0.398438
vt 0.375000 0.320312
vt 0.359375 0.320312
f 105/105/2 108/108/2 107/107/2 106/106/2
v -1.062500 0.812500 -3.000000
v -1.062500 0.812500 -2.875000
v -1.062500 0.187500 -2.875000
v -1.062500 0.187500 -3.000000
vt 0.359375 0.398438
vt 0.375000 0.398438
vt 0.375000 0.320312
vt 0.359375 0.320312
f 109/109/3 112/112/3 111/111/3 110/110/3
v -0.937500 0.812500 -2.875000
v -0.937500 0.812500 -3.000000
v -0.937500 0.187500 -3.000000
v -0.937500 0.187500 -2.875000
vt 0.359375 0.398438
vt 0.375000 0.398438
vt 0.375000 0.320312
vt 0.359375 0.320312
f 113/113/4 116/116/4 115/115/4 114/114/4
v -1.937500 0.812500 -0.125000
v -2.062500 0.812500 -0.125000
v -2.062500 0.187500 -0.125000
v -1.937500 0.187500 -0.125000
vt 0.359375 0.398438
vt 0.375000 0.398438
vt 0.375000 0.320312
vt 0.359375 0.320312
f 117/117/1 120/120/1 119/119/1 118/118/1
v -2.062500 0.812500 0.000000
v -1.937500 0.812500 0.000000
v -1.937500 0.187500 0.000000
v -2.062500 0.187500 0.000000
vt 0.359375 0.398438
vt 0.375000 0.398438
vt 0.375000 0.320312
vt 0.359375 0.320312
f 121/121/2 124/124/2 123/123/2 122/122/2
v -2.062500 0.812500 -0.125000
v -2.062500 0.812500 0.000000
v -2.062500 0.187500 0.000000
v -2.062500 0.187500 -0.125000
vt 0.359375 0.398438
vt 0.375000 0.398438
vt 0.375000 0.320312
vt 0.359375 0.320312
f 125/125/3 128/128/3 127/127/3 126/126/3
v -1.937500 0.812500 0.000000
v -1.937500 0.812500 -0.125000
v -1.937500 0.187500 -0.125000
v -1.937500 0.187500 0.000000
vt 0.359375 0.398438
vt 0.375000 0.398438
vt 0.375000 0.320312
vt 0.359375 0.320312
f 129/129/4 132/132/4 131/131/4 130/130/4
v -0.937500 0.812500 -0.125000
v -1.062500 0.812500 -0.125000
v -1.062500 0.187500 -0.125000
v -0.937500 0.187500 -0.125000
vt 0.359375 0.398438
vt 0.375000 0.398438
vt 0.375000 0.320312
vt 0.359375 0.320312
f 133/133/1 136/136/1 135/135/1 134/134/1
v -1.062500 0.812500 0.000000
v -0.937500 0.812500 0.000000
v -0.937500 0.187500 0.000000
v -1.062500 0.187500 0.000000
vt 0.359375 0.398438
vt 0.375000 0.398438
vt 0.375000 0.320312
vt 0.359375 0.320312
f 137/137/2 140/140/2 139/139/2 138/138/2
v -1.062500 0.812500 -0.125000
v -1.062500 0.812500 0.000000
v -1.062500 0.187500 0.000000
v -1.062500 0.187500 -0.125000
vt 0.359375 0.398438
vt 0.375000 0.398438
vt 0.375000 0.320312
vt 0.359375 0.320312
f 141/141/3 144/144/3 143/143/3 142/142/3
v -0.937500 0.812500 0.000000
v -0.937500 0.812500 -0.125000
v -0.937500 0.187500 -0.125000
v -0.937500 0.187500 0.000000
vt 0.359375 0.398438
vt 0.375000 0.398438
vt 0.375000 0.320312
vt 0.359375 0.320312
f 145/145/4 148/148/4 147/147/4 146/146/4
v -2.875000 0.812500 -2.062500
v -3.000000 0.812500 -2.062500
v -3.000000 0.187500 -2.062500
v -2.875000 0.187500 -2.062500
vt 0.359375 0.398438
vt 0.375000 0.398438
vt 0.375000 0.320312
vt 0.359375 0.320312
f 149/149/1 152/152/1 151/151/1 150/150/1
v -3.000000 0.812500 -1.937500
v -2.875000 0.812500 -1.937500
v -2.875000 0.187500 -1.937500
v -3.000000 0.187500 -1.937500
vt 0.359375 0.398438
vt 0.375000 0.398438
vt 0.375000 0.320312
vt 0.359375 0.320312
f 153/153/2 156/156/2 155/155/2 154/154/2
v -3.000000 0.812500 -2.062500
v -3.000000 0.812500 -1.937500
v -3.000000 0.187500 -1.937500
v -3.000000 0.187500 -2.062500
vt 0.359375 0.398438
vt 0.375000 0.398438
vt 0.375000 0.320312
vt 0.359375 0.320312
f 157/157/3 160/160/3 159/159/3 158/158/3
v -2.875000 0.812500 -1.937500
v -2.875000 0.812500 -2.062500
v -2.875000 0.187500 -2.062500
v -2.875000 0.187500 -1.937500
vt 0.359375 0.398438
vt 0.375000 0.398438
vt 0.375000 0.320312
vt 0.359375 0.320312
f 161/161/4 164/164/4 163/163/4 162/162/4
v -2.875000 0.812500 -1.062500
v -3.000000 0.812500 -1.062500
v -3.000000 0.187500 -1.062500
v -2.875000 0.187500 -1.062500
vt 0.359375 0.398438
vt 0.375000 0.398438
vt 0.375000 0.320312
vt 0.359375 0.320312
f 165/165/1 168/168/1 167/167/1 166/166/1
v -3.000000 0.812500 -0.937500
v -2.875000 0.812500 -0.937500
v -2.875000 0.187500 -0.937500
v -3.000000 0.187500 -0.937500
vt 0.359375 0.398438
vt 0.375000 0.398438
vt 0.375000 0.320312
vt 0.359375 0.320312
f 169/169/2 172/172/2 171/171/2 170/170/2
v -3.000000 0.812500 -1.062500
v -3.000000 0.812500 -0.937500
v -3.000000 0.187500 -0.937500
v -3.000000 0.187500 -1.062500
vt 0.359375 0.398438
vt 0.375000 0.398438
vt 0.375000 0.320312
vt 0.359375 0.320312
f 173/173/3 176/176/3 175/175/3 174/174/3
v -2.875000 0.812500 -0.937500
v -2.875000 0.812500 -1.062500
v -2.875000 0.187500 -1.062500
v -2.875000 0.187500 -0.937500
vt 0.359375 0.398438
vt 0.375000 0.398438
vt 0.375000 0.320312
vt 0.359375 0.320312
f 177/177/4 180/180/4 179/179/4 178/178/4
v 0.000000 0.812500 -2.125000
v -0.125000 0.812500 -2.125000
v -0.125000 0.187500 -2.125000
v 0.000000 0.187500 -2.125000
vt 0.359375 0.398438
vt 0.375000 0.398438
vt 0.375000 0.320312
vt 0.359375 0.320312
f 181/181/1 184/184/1 183/183/1 182/182/1
v -0.125000 0.812500 -2.000000
v 0.000000 0.812500 -2.000000
v 0.000000 0.187500 -2.000000
v -0.125000 0.187500 -2.000000
vt 0.359375 0.398438
vt 0.375000 0.398438
vt 0.375000 0.320312
vt 0.359375 0.320312
f 185/185/2 188/188/2 187/187/2 186/186/2
v -0.125000 0.812500 -2.125000
v -0.125000 0.812500 -2.000000
v -0.125000 0.187500 -2.000000
v -0.125000 0.187500 -2.125000
vt 0.359375 0.398438
vt 0.375000 0.398438
vt 0.375000 0.320312
vt 0.359375 0.320312
f 189/189/3 192/192/3 191/191/3 190/190/3
v 0.000000 0.812500 -2.000000
v 0.000000 0.812500 -2.125000
v 0.000000 0.187500 -2.125000
v 0.000000 0.187500 -2.000000
vt 0.359375 0.398438
vt 0.375000 0.398438
vt 0.375000 0.320312
vt 0.359375 0.320312
f 193/193/4 196/196/4 195/195/4 194/194/4
v 0.000000 0.812500 -1.000000
v -0.125000 0.812500 -1.000000
v -0.125000 0.187500 -1.000000
v 0.000000 0.187500 -1.000000
vt 0.359375 0.398438
vt 0.375000 0.398438
vt 0.375000 0.320312
vt 0.359375 0.320312
f 197/197/1 200/200/1 199/199/1 198/198/1
v -0.125000 0.812500 -0.875000
v 0.000000 0.812500 -0.875000
v 0.000000 0.187500 -0.875000
v -0.125000 0.187500 -0.875000
vt 0.359375 0.398438
vt 0.375000 0.398438
vt 0.375000 0.320312
vt 0.359375 0.320312
f 201/201/2 204/204/2 203/203/2 202/202/2
v -0.125000 0.812500 -1.000000
v -0.125000 0.812500 -0.875000
v -0.125000 0.187500 -0.875000
v -0.125000 0.187500 -1.000000
vt 0.359375 0.398438
vt 0.375000 0.398438
vt 0.375000 0.320312
vt 0.359375 0.320312
f 205/205/3 208/208/3 207/207/3 206/206/3
v 0.000000 0.812500 -0.875000
v 0.000000 0.812500 -1.000000
v 0.000000 0.187500 -1.000000
v 0.000000 0.187500 -0.875000
vt 0.359375 0.398438
vt 0.375000 0.398438
vt 0.375000 0.320312
vt 0.359375 0.320312
f 209/209/4 212/212/4 211/211/4 210/210/4
v -0.062500 0.812500 -2.937500
v -2.937500 0.812500 -2.937500
v -2.937500 0.187500 -2.937500
v -0.062500 0.187500 -2.937500
vt 0.000000 0.398438
vt 0.359375 0.398438
vt 0.359375 0.320312
vt 0.000000 0.320312
f 213/213/1 216/216/1 215/215/1 214/214/1
v -2.937500 0.812500 -0.062500
v -0.062500 0.812500 -0.062500
v -0.062500 0.187500 -0.062500
v -2.937500 0.187500 -0.062500
vt 0.000000 0.398438
vt 0.359375 0.398438
vt 0.359375 0.320312
vt 0.000000 0.320312
f 217/217/2 220/220/2 219/219/2 218/218/2
v -2.937500 0.812500 -2.937500
v -2.937500 0.812500 -0.062500
v -2.937500 0.187500 -0.062500
v -2.937500 0.187500 -2.937500
vt 0.000000 0.398438
vt 0.359375 0.398438
vt 0.359375 0.320312
vt 0.000000 0.320312
f 221/221/3 224/224/3 223/223/3 222/222/3
v -0.062500 0.812500 -0.062500
v -0.062500 0.812500 -2.937500
v -0.062500 0.187500 -2.937500
v -0.062500 0.187500 -0.062500
vt 0.000000 0.398438
vt 0.359375 0.398438
vt 0.359375 0.320312
vt 0.000000 0.320312
f 225/225/4 228/228/4 227/227/4 226/226/4
v -2.937500 0.687500 -1.812500
v -2.968750 0.687500 -1.812500
v -2.968750 0.312500 -1.812500
v -2.937500 0.312500 -1.812500
vt 0.984375 0.398438
vt 0.992188 0.398438
vt 0.992188 0.351562
vt 0.984375 0.351562
f 229/229/1 232/232/1 231/231/1 230/230/1
v -2.968750 0.687500 -1.187500
v -2.937500 0.687500 -1.187500
v -2.937500 0.312500 -1.187500
v -2.968750 0.312500 -1.187500
vt 0.984375 0.398438
vt 0.992188 0.398438
vt 0.992188 0.351562
vt 0.984375 0.351562
f 233/233/2 236/236/2 235/235/2 234/234/2
v -2.968750 0.687500 -1.812500
v -2.968750 0.687500 -1.187500
v -2.968750 0.312500 -1.187500
v -2.968750 0.312500 -1.812500
vt 0.000000 0.320312
vt 0.078125 0.320312
vt 0.078125 0.273438
vt 0.000000 0.273438
f 237/237/3 240/240/3 239/239/3 238/238/3
v -2.968750 0.687500 -1.812500
v -2.937500 0.687500 -1.812500
v -2.937500 0.687500 -1.187500
v -2.968750 0.687500 -1.187500
vt 0.992188 0.625000
vt 1.000000 0.625000
vt 1.000000 0.546875
vt 0.992188 0.546875
f 241/241/5 244/244/5 243/243/5 242/242/5
v 0.000000 0.812500 -2.000000
v -0.062500 0.812500 -2.000000
v -0.062500 0.250000 -2.000000
v 0.000000 0.250000 -2.000000
vt 0.500000 0.398438
vt 0.507812 0.398438
vt 0.507812 0.328125
vt 0.500000 0.328125
f 245/245/1 248/248/1 247/247/1 246/246/1
v -0.062500 0.812500 -1.000000
v 0.000000 0.812500 -1.000000
v 0.000000 0.250000 -1.000000
v -0.062500 0.250000 -1.000000
vt 0.500000 0.398438
vt 0.507812 0.398438
vt 0.507812 0.328125
vt 0.500000 0.328125
f 249/249/2 252/252/2 251/251/2 250/250/2
v 0.000000 0.812500 -1.000000
v 0.000000 0.812500 -2.000000
v 0.000000 0.250000 -2.000000
v 0.000000 0.250000 -1.000000
vt 0.375000 0.398438
vt 0.500000 0.398438
vt 0.500000 0.328125
vt 0.375000 0.328125
f 253/253/4 256/256/4 255/255/4 254/254/4
v -0.062500 0.812500 -2.000000
v 0.000000 0.812500 -2.000000
v 0.000000 0.812500 -1.000000
v -0.062500 0.812500 -1.000000
vt 0.796875 0.625000
vt 0.804688 0.625000
vt 0.804688 0.500000
vt 0.796875 0.500000
f 257/257/5 260/260/5 259/259/5 258/258/5
v -1.312500 0.687500 -3.000000
v -1.687500 0.687500 -3.000000
v -1.687500 0.312500 -3.000000
v -1.312500 0.312500 -3.000000
vt 0.078125 0.320312
vt 0.125000 0.320312
vt 0.125000 0.273438
vt 0.078125 0.273438
f 261/261/1 264/264/1 263/263/1 262/262/1
v -1.687500 0.687500 -3.000000
v -1.687500 0.687500 -2.937500
v -1.687500 0.312500 -2.937500
v -1.687500 0.312500 -3.000000
vt 0.992188 0.398438
vt 1.000000 0.398438
vt 1.000000 0.351562
vt 0.992188 0.351562
f 265/265/3 268/268/3 267/267/3 266/266/3
v -1.312500 0.687500 -2.937500
v -1.312500 0.687500 -3.000000
v -1.312500 0.312500 -3.000000
v -1.312500 0.312500 -2.937500
vt 0.992188 0.398438
vt 1.000000 0.398438
vt 1.000000 0.351562
vt 0.992188 0.351562
f 269/269/4 272/272/4 271/271/4 270/270/4
v -1.687500 0.687500 -3.000000
v -1.312500 0.687500 -3.000000
v -1.312500 0.687500 -2.937500
v -1.687500 0.687500 -2.937500
vt 0.718750 0.226562
vt 0.765625 0.226562
vt 0.765625 0.218750
vt 0.718750 0.218750
f 273/273/5 276/276/5 275/275/5 274/274/5
v -1.687500 0.312500 -2.937500
v -1.312500 0.312500 -2.937500
v -1.312500 0.312500 -3.000000
v -1.687500 0.312500 -3.000000
vt 0.718750 0.226562
vt 0.765625 0.226562
vt 0.765625 0.218750
vt 0.718750 0.218750
f 277/277/6 280/280/6 279/279/6 278/278/6
v -0.312500 0.687500 -3.000000
v -0.687500 0.687500 -3.000000
v -0.687500 0.312500 -3.000000
v -0.312500 0.312500 -3.000000
vt 0.078125 0.320312
vt 0.125000 0.320312
vt 0.125000 0.273438
vt 0.078125 0.273438
f 281/281/1 284/284/1 283/283/1 282/282/1
v -0.687500 0.687500 -3.000000
v -0.687500 0.687500 -2.937500
v -0.687500 0.312500 -2.937500
v -0.687500 0.312500 -3.000000
vt 0.992188 0.398438
vt 1.000000 0.398438
vt 1.000000 0.351562
vt 0.992188 0.351562
f 285/285/3 288/288/3 287/287/3 286/286/3
v -0.312500 0.687500 -2.937500
v -0.312500 0.687500 -3.000000
v -0.312500 0.312500 -3.000000
v -0.312500 0.312500 -2.937500
vt 0.992188 0.398438
vt 1.000000 0.398438
vt 1.000000 0.351562
vt 0.992188 0.351562
f 289/289/4 292/292/4 291/291/4 290/290/4
v -0.687500 0.687500 -3.000000
v -0.312500 0.687500 -3.000000
v -0.312500 0.687500 -2.937500
v -0.687500 0.687500 -2.937500
vt 0.718750 0.226562
vt 0.765625 0.226562
vt 0.765625 0.218750
vt 0.718750 0.218750
f 293/293/5 296/296/5 295/295/5 294/294/5
v -0.687500 0.312500 -2.937500
v -0.312500 0.312500 -2.937500
v -0.312500 0.312500 -3.000000
v -0.687500 0.312500 -3.000000
vt 0.718750 0.226562
vt 0.765625 0.226562
vt 0.765625 0.218750
vt 0.718750 0.218750
f 297/297/6 300/300/6 299/299/6 298/298/6
v -2.687500 0.687500 0.000000
v -2.312500 0.687500 0.000000
v -2.312500 0.312500 0.000000
v -2.687500 0.312500 0.000000
vt 0.078125 0.320312
vt 0.125000 0.320312
vt 0.125000 0.273438
vt 0.078125 0.273438
f 301/301/2 304/304/2 303/303/2 302/302/2
v -2.687500 0.687500 -0.062500
v -2.687500 0.687500 0.000000
v -2.687500 0.312500 0.000000
v -2.687500 0.312500 -0.062500
vt 0.992188 0.398438
vt 1.000000 0.398438
vt 1.000000 0.351562
vt 0.992188 0.351562
f 305/305/3 308/308/3 307/307/3 306/306/3
v -2.312500 0.687500 0.000000
v -2.312500 0.687500 -0.062500
v -2.312500 0.312500 -0.062500
v -2.312500 0.312500 0.000000
vt 0.992188 0.398438
vt 1.000000 0.398438
vt 1.000000 0.351562
vt 0.992188 0.351562
f 309/309/4 312/312/4 311/311/4 310/310/4
v -2.687500 0.687500 -0.062500
v -2.312500 0.687500 -0.062500
v -2.312500 0.687500 0.000000
v -2.687500 0.687500 0.000000
vt 0.718750 0.226562
vt 0.765625 0.226562
vt 0.765625 0.218750
vt 0.718750 0.218750
f 313/313/5 316/316/5 315/315/5 314/314/5
v -2.687500 0.312500 0.000000
v -2.312500 0.312500 0.000000
v -2.312500 0.312500 -0.062500
v -2.687500 0.312500 -0.062500
vt 0.718750 0.226562
vt 0.765625 0.226562
vt 0.765625 0.218750
vt 0.718750 0.218750
f 317/317/6 320/320/6 319/319/6 318/318/6
v -1.687500 0.687500 0.000000
v -1.312500 0.687500 0.000000
v -1.312500 0.312500 0.000000
v -1.687500 0.312500 0.000000
vt 0.078125 0.320312
vt 0.125000 0.320312
vt 0.125000 0.273438
vt 0.078125 0.273438
f 321/321/2 324/324/2 323/323/2 322/322/2
v -1.687500 0.687500 -0.062500
v -1.687500 0.687500 0.000000
v -1.687500 0.312500 0.000000
v -1.687500 0.312500 -0.062500
vt 0.992188 0.398438
vt 1.000000 0.398438
vt 1.000000 0.351562
vt 0.992188 0.351562
f 325/325/3 328/328/3 327/327/3 326/326/3
v -1.312500 0.687500 0.000000
v -1.312500 0.687500 -0.062500
v -1.312500 0.312500 -0.062500
v -1.312500 0.312500 0.000000
vt 0.992188 0.398438
vt 1.000000 0.398438
vt 1.000000 0.351562
vt 0.992188 0.351562
f 329/329/4 332/332/4 331/331/4 330/330/4
v -1.687500 0.687500 -0.062500
v -1.312500 0.687500 -0.062500
v -1.312500 0.687500 0.000000
v -1.687500 0.687500 0.000000
vt 0.718750 0.226562
vt 0.765625 0.226562
vt 0.765625 0.218750
vt 0.718750 0.218750
f 333/333/5 336/336/5 335/335/5 334/334/5
v -1.687500 0.312500 0.000000
v -1.312500 0.312500 0.000000
v -1.312500 0.312500 -0.062500
v -1.687500 0.312500 -0.062500
vt 0.718750 0.226562
vt 0.765625 0.226562
vt 0.765625 0.218750
vt 0.718750 0.218750
f 337/337/6 340/340/6 339/339/6 338/338/6
v 0.000000 1.000000 -3.000000
v -3.000000 1.000000 -3.000000
v -3.000000 0.812500 -3.000000
v 0.000000 0.812500 -3.000000
vt 0.000000 0.273438
vt 0.375000 0.273438
vt 0.375000 0.250000
vt 0.000000 0.250000
f 341/341/1 344/344/1 343/343/1 342/342/1
v -3.000000 1.000000 0.000000
v 0.000000 1.000000 0.000000
v 0.000000 0.812500 0.000000
v -3.000000 0.812500 0.000000
vt 0.000000 0.273438
vt 0.375000 0.273438
vt 0.375000 0.250000
vt 0.000000 0.250000
f 345/345/2 348/348/2 347/347/2 346/346/2
v -3.000000 1.000000 -3.000000
v -3.000000 1.000000 0.000000
v -3.000000 0.812500 0.000000
v -3.000000 0.812500 -3.000000
vt 0.000000 0.273438
vt 0.375000 0.273438
vt 0.375000 0.250000
vt 0.000000 0.250000
f 349/349/3 352/352/3 351/351/3 350/350/3
v 0.000000 1.000000 0.000000
v 0.000000 1.000000 -3.000000
v 0.000000 0.812500 -3.000000
v 0.000000 0.812500 0.000000
vt 0.000000 0.273438
vt 0.375000 0.273438
vt 0.375000 0.250000
vt 0.000000 0.250000
f 353/353/4 356/356/4 355/355/4 354/354/4
v -3.000000 1.000000 -3.000000
v 0.000000 1.000000 -3.000000
v 0.000000 1.000000 0.000000
v -3.000000 1.000000 0.000000
vt 0.375000 1.000000
vt 0.750000 1.000000
vt 0.750000 0.625000
vt 0.375000 0.625000
f 357/357/5 360/360/5 359/359/5 358/358/5
v -1.000000 1.312500 -2.000000
v -2.000000 1.312500 -2.000000
v -2.000000 1.000000 -2.000000
v -1.000000 1.000000 -2.000000
vt 0.328125 0.320312
vt 0.453125 0.320312
vt 0.453125 0.281250
vt 0.328125 0.281250
f 361/361/1 364/364/1 363/363/1 362/362/1
v -2.000000 1.312500 -1.000000
v -1.000000 1.312500 -1.000000
v -1.000000 1.000000 -1.000000
v -2.000000 1.000000 -1.000000
vt 0.328125 0.320312
vt 0.453125 0.320312
vt 0.453125 0.281250
vt 0.328125 0.281250
f 365/365/2 368/368/2 367/367/2 366/366/2
v -2.000000 1.312500 -2.000000
v -2.000000 1.312500 -1.000000
v -2.000000 1.000000 -1.000000
v -2.000000 1.000000 -2.000000
vt 0.328125 0.320312
vt 0.453125 0.320312
vt 0.453125 0.281250
vt 0.328125 0.281250
f 369/369/3 372/372/3 371/371/3 370/370/3
v -1.000000 1.312500 -1.000000
v -1.000000 1.312500 -2.000000
v -1.000000 1.000000 -2.000000
v -1.000000 1.000000 -1.000000
vt 0.328125 0.320312
vt 0.453125 0.320312
vt 0.453125 0.281250
vt 0.328125 0.281250
f 373/373/4 376/376/4 375/375/4 374/374/4
v -2.000000 1.312500 -2.000000
v -1.000000 1.312500 -2.000000
v -1.000000 1.312500 -1.000000
v -2.000000 1.312500 -1.000000
vt 0.671875 0.625000
vt 0.796875 0.625000
vt 0.796875 0.500000
vt 0.671875 0.500000
f 377/377/5 380/380/5 379/379/5 378/378/5
v -1.125000 1.406250 -1.875000
v -1.875000 1.406250 -1.875000
v -1.875000 1.312500 -1.875000
v -1.125000 1.312500 -1.875000
vt 0.476562 0.250000
vt 0.570312 0.250000
vt 0.570312 0.234375
vt 0.476562 0.234375
f 381/381/1 384/384/1 383/383/1 382/382/1
v -1.875000 1.406250 -1.125000
v -1.125000 1.406250 -1.125000
v -1.125000 1.312500 -1.125000
v -1.875000 1.312500 -1.125000
vt 0.476562 0.250000
vt 0.570312 0.250000
vt 0.570312 0.234375
vt 0.476562 0.234375
f 385/385/2 388/388/2 387/387/2 386/386/2
v -1.875000 1.406250 -1.875000
v -1.875000 1.406250 -1.125000
v -1.875000 1.312500 -1.125000
v -1.875000 1.312500 -1.875000
vt 0.476562 0.250000
vt 0.570312 0.250000
vt 0.570312 0.234375
vt 0.476562 0.234375
f 389/389/3 392/392/3 391/391/3 390/390/3
v -1.125000 1.406250 -1.125000
v -1.125000 1.406250 -1.875000
v -1.125000 1.312500 -1.875000
v -1.125000 1.312500 -1.125000
vt 0.476562 0.250000
vt 0.570312 0.250000
vt 0.570312 0.234375
vt 0.476562 0.234375
f 393/393/4 396/396/4 395/395/4 394/394/4
v -1.875000 1.406250 -1.875000
v -1.125000 1.406250 -1.875000
v -1.125000 1.406250 -1.125000
v -1.875000 1.406250 -1.125000
vt 0.804688 0.625000
vt 0.898438 0.625000
vt 0.898438 0.531250
vt 0.804688 0.531250
f 397/397/5 400/400/5 399/399/5 398/398/5
v -1.250000 1.437500 -1.750000
v -1.750000 1.437500 -1.750000
v -1.750000 1.406250 -1.750000
v -1.250000 1.406250 -1.750000
vt 0.859375 0.250000
vt 0.921875 0.250000
vt 0.921875 0.242188
vt 0.859375 0.242188
f 401/401/1 404/404/1 403/403/1 402/402/1
v -1.750000 1.437500 -1.250000
v -1.250000 1.437500 -1.250000
v -1.250000 1.406250 -1.250000
v -1.750000 1.406250 -1.250000
vt 0.859375 0.250000
vt 0.921875 0.250000
vt 0.921875 0.242188
vt 0.859375 0.242188
f 405/405/2 408/408/2 407/407/2 406/406/2
v -1.750000 1.437500 -1.750000
v -1.750000 1.437500 -1.250000
v -1.750000 1.406250 -1.250000
v -1.750000 1.406250 -1.750000
vt 0.859375 0.250000
vt 0.921875 0.250000
vt 0.921875 0.242188
vt 0.859375 0.242188
f 409/409/3 412/412/3 411/411/3 410/410/3
v -1.250000 1.437500 -1.250000
v -1.250000 1.437500 -1.750000
v -1.250000 1.406250 -1.750000
v -1.250000 1.406250 -1.250000
vt 0.859375 0.250000
vt 0.921875 0.250000
vt 0.921875 0.242188
vt 0.859375 0.242188
f 413/413/4 416/416/4 415/415/4 414/414/4
v -1.750000 1.437500 -1.750000
v -1.250000 1.437500 -1.750000
v -1.250000 1.437500 -1.250000
v -1.750000 1.437500 -1.250000
vt 0.695312 0.398438
vt 0.757812 0.398438
vt 0.757812 0.335938
vt 0.695312 0.335938
f 417/417/5 420/420/5 419/419/5 418/418/5
v -2.562500 2.062500 -2.875000
v -2.750000 2.062500 -2.875000
v -2.750000 1.000000 -2.875000
v -2.562500 1.000000 -2.875000
vt 0.960938 1.000000
vt 0.984375 1.000000
vt 0.984375 0.867188
vt 0.960938 0.867188
f 421/421/1 424/424/1 423/423/1 422/422/1
v -2.750000 2.062500 -2.687500
v -2.562500 2.062500 -2.687500
v -2.562500 1.000000 -2.687500
v -2.750000 1.000000 -2.687500
vt 0.960938 1.000000
vt 0.984375 1.000000
vt 0.984375 0.867188
vt 0.960938 0.867188
f 425/425/2 428/428/2 427/427/2 426/426/2
v -2.750000 2.062500 -2.875000
v -2.750000 2.062500 -2.687500
v -2.750000 1.000000 -2.687500
v -2.750000 1.000000 -2.875000
vt 0.960938 1.000000
vt 0.984375 1.000000
vt 0.984375 0.867188
vt 0.960938 0.867188
f 429/429/3 432/432/3 431/431/3 430/430/3
v -2.562500 2.062500 -2.687500
v -2.562500 2.062500 -2.875000
v -2.562500 1.000000 -2.875000
v -2.562500 1.000000 -2.687500
vt 0.960938 1.000000
vt 0.984375 1.000000
vt 0.984375 0.867188
vt 0.960938 0.867188
f 433/433/4 436/436/4 435/435/4 434/434/4
v -0.250000 2.062500 -2.875000
v -0.437500 2.062500 -2.875000
v -0.437500 1.000000 -2.875000
v -0.250000 1.000000 -2.875000
vt 0.960938 1.000000
vt 0.984375 1.000000
vt 0.984375 0.867188
vt 0.960938 0.867188
f 437/437/1 440/440/1 439/439/1 438/438/1
v -0.437500 2.062500 -2.687500
v -0.250000 2.062500 -2.687500
v -0.250000 1.000000 -2.687500
v -0.437500 1.000000 -2.687500
vt 0.960938 1.000000
vt 0.984375 1.000000
vt 0.984375 0.867188
vt 0.960938 0.867188
f 441/441/2 444/444/2 443/443/2 442/442/2
v -0.437500 2.062500 -2.875000
v -0.437500 2.062500 -2.687500
v -0.437500 1.000000 -2.687500
v -0.437500 1.000000 -2.875000
vt 0.960938 1.000000
vt 0.984375 1.000000
vt 0.984375 0.867188
vt 0.960938 0.867188
f 445/445/3 448/448/3 447/447/3 446/446/3
v -0.250000 2.062500 -2.687500
v -0.250000 2.062500 -2.875000
v -0.250000 1.000000 -2.875000
v -0.250000 1.000000 -2.687500
vt 0.960938 1.000000
vt 0.984375 1.000000
vt 0.984375 0.867188
vt 0.960938 0.867188
f 449/449/4 452/452/4 451/451/4 450/450/4
v -0.312500 2.062500 -2.812500
v -2.687500 2.062500 -2.812500
v -2.687500 1.000000 -2.812500
v -0.312500 1.000000 -2.812500
vt 0.000000 0.625000
vt 0.296875 0.625000
vt 0.296875 0.492188
vt 0.000000 0.492188
f 453/453/1 456/456/1 455/455/1 454/454/1
v -2.687500 2.062500 -2.187500
v -0.312500 2.062500 -2.187500
v -0.312500 1.000000 -2.187500
v -2.687500 1.000000 -2.187500
vt 0.296875 0.625000
vt 0.593750 0.625000
vt 0.593750 0.492188
vt 0.296875 0.492188
f 457/457/2 460/460/2 459/459/2 458/458/2
v -2.687500 2.062500 -2.812500
v -2.687500 2.062500 -2.187500
v -2.687500 1.000000 -2.187500
v -2.687500 1.000000 -2.812500
vt 0.593750 0.625000
vt 0.671875 0.625000
vt 0.671875 0.492188
vt 0.593750 0.492188
f 461/461/3 464/464/3 463/463/3 462/462/3
v -0.312500 2.062500 -2.187500
v -0.312500 2.062500 -2.812500
v -0.312500 1.000000 -2.812500
v -0.312500 1.000000 -2.187500
vt 0.593750 0.625000
vt 0.671875 0.625000
vt 0.671875 0.492188
vt 0.593750 0.492188
f 465/465/4 468/468/4 467/467/4 466/466/4
v -0.875000 1.812500 -2.843750
v -2.125000 1.812500 -2.843750
v -2.125000 1.187500 -2.843750
v -0.875000 1.187500 -2.843750
vt 0.718750 0.492188
vt 0.875000 0.492188
vt 0.875000 0.414062
vt 0.718750 0.414062
f 469/469/1 472/472/1 471/471/1 470/470/1
v -2.125000 1.812500 -2.843750
v -2.125000 1.812500 -2.812500
v -2.125000 1.187500 -2.812500
v -2.125000 1.187500 -2.843750
vt 0.992188 0.625000
vt 1.000000 0.625000
vt 1.000000 0.546875
vt 0.992188 0.546875
f 473/473/3 476/476/3 475/475/3 474/474/3
v -0.875000 1.812500 -2.812500
v -0.875000 1.812500 -2.843750
v -0.875000 1.187500 -2.843750
v -0.875000 1.187500 -2.812500
vt 0.992188 0.625000
vt 1.000000 0.625000
vt 1.000000 0.546875
vt 0.992188 0.546875
f 477/477/4 480/480/4 479/479/4 478/478/4
v -2.125000 1.812500 -2.843750
v -0.875000 1.812500 -2.843750
v -0.875000 1.812500 -2.812500
v -2.125000 1.812500 -2.812500
vt 0.187500 0.226562
vt 0.343750 0.226562
vt 0.343750 0.218750
vt 0.187500 0.218750
f 481/481/5 484/484/5 483/483/5 482/482/5
v -2.125000 1.562500 -2.156250
v -0.875000 1.562500 -2.156250
v -0.875000 1.187500 -2.156250
v -2.125000 1.187500 -2.156250
vt 0.828125 0.398438
vt 0.984375 0.398438
vt 0.984375 0.351562
vt 0.828125 0.351562
f 485/485/2 488/488/2 487/487/2 486/486/2
v -2.125000 1.562500 -2.187500
v -2.125000 1.562500 -2.156250
v -2.125000 1.187500 -2.156250
v -2.125000 1.187500 -2.187500
vt 0.312500 0.320312
vt 0.320312 0.320312
vt 0.320312 0.273438
vt 0.312500 0.273438
f 489/489/3 492/492/3 491/491/3 490/490/3
v -0.875000 1.562500 -2.156250
v -0.875000 1.562500 -2.187500
v -0.875000 1.187500 -2.187500
v -0.875000 1.187500 -2.156250
vt 0.320312 0.320312
vt 0.328125 0.320312
vt 0.328125 0.273438
vt 0.320312 0.273438
f 493/493/4 496/496/4 495/495/4 494/494/4
v -2.125000 1.562500 -2.187500
v -0.875000 1.562500 -2.187500
v -0.875000 1.562500 -2.156250
v -2.125000 1.562500 -2.156250
vt 0.343750 0.226562
vt 0.500000 0.226562
vt 0.500000 0.218750
vt 0.343750 0.218750
f 497/497/5 500/500/5 499/499/5 498/498/5
v -2.125000 1.187500 -2.156250
v -0.875000 1.187500 -2.156250
v -0.875000 1.187500 -2.187500
v -2.125000 1.187500 -2.187500
vt 0.500000 0.226562
vt 0.656250 0.226562
vt 0.656250 0.218750
vt 0.500000 0.218750
f 501/501/6 504/504/6 503/503/6 502/502/6
v -0.250000 2.250000 -2.875000
v -2.750000 2.250000 -2.875000
v -2.750000 2.062500 -2.875000
v -0.250000 2.062500 -2.875000
vt 0.375000 0.273438
vt 0.687500 0.273438
vt 0.687500 0.250000
vt 0.375000 0.250000
f 505/505/1 508/508/1 507/507/1 506/506/1
v -2.750000 2.250000 -2.125000
v -0.250000 2.250000 -2.125000
v -0.250000 2.062500 -2.125000
v -2.750000 2.062500 -2.125000
vt 0.375000 0.273438
vt 0.687500 0.273438
vt 0.687500 0.250000
vt 0.375000 0.250000
f 509/509/2 512/512/2 511/511/2 510/510/2
v -2.750000 2.250000 -2.875000
v -2.750000 2.250000 -2.125000
v -2.750000 2.062500 -2.125000
v -2.750000 2.062500 -2.875000
vt 0.859375 0.320312
vt 0.953125 0.320312
vt 0.953125 0.296875
vt 0.859375 0.296875
f 513/513/3 516/516/3 515/515/3 514/514/3
v -0.250000 2.250000 -2.125000
v -0.250000 2.250000 -2.875000
v -0.250000 2.062500 -2.875000
v -0.250000 2.062500 -2.125000
vt 0.859375 0.320312
vt 0.953125 0.320312
vt 0.953125 0.296875
vt 0.859375 0.296875
f 517/517/4 520/520/4 519/519/4 518/518/4
v -2.750000 2.250000 -2.875000
v -0.250000 2.250000 -2.875000
v -0.250000 2.250000 -2.125000
v -2.750000 2.250000 -2.125000
vt 0.000000 0.492188
vt 0.312500 0.492188
vt 0.312500 0.398438
vt 0.000000 0.398438
f 521/521/5 524/524/5 523/523/5 522/522/5
v -2.750000 2.062500 -2.125000
v -0.250000 2.062500 -2.125000
v -0.250000 2.062500 -2.875000
v -2.750000 2.062500 -2.875000
vt 0.312500 0.492188
vt 0.625000 0.492188
vt 0.625000 0.398438
vt 0.312500 0.398438
f 525/525/6 528/528/6 527/527/6 526/526/6
v -0.750000 2.281250 -2.750000
v -2.250000 2.281250 -2.750000
v -2.250000 2.250000 -2.750000
v -0.750000 2.250000 -2.750000
vt 0.000000 0.226562
vt 0.187500 0.226562
vt 0.187500 0.218750
vt 0.000000 0.218750
f 529/529/1 532/532/1 531/531/1 530/530/1
v -2.250000 2.281250 -2.250000
v -0.750000 2.281250 -2.250000
v -0.750000 2.250000 -2.250000
v -2.250000 2.250000 -2.250000
vt 0.000000 0.226562
vt 0.187500 0.226562
vt 0.187500 0.218750
vt 0.000000 0.218750
f 533/533/2 536/536/2 535/535/2 534/534/2
v -2.250000 2.281250 -2.750000
v -2.250000 2.281250 -2.250000
v -2.250000 2.250000 -2.250000
v -2.250000 2.250000 -2.750000
vt 0.921875 0.250000
vt 0.984375 0.250000
vt 0.984375 0.242188
vt 0.921875 0.242188
f 537/537/3 540/540/3 539/539/3 538/538/3
v -0.750000 2.281250 -2.250000
v -0.750000 2.281250 -2.750000
v -0.750000 2.250000 -2.750000
v -0.750000 2.250000 -2.250000
vt 0.921875 0.250000
vt 0.984375 0.250000
vt 0.984375 0.242188
vt 0.921875 0.242188
f 541/541/4 544/544/4 543/543/4 542/542/4
v -2.250000 2.281250 -2.750000
v -0.750000 2.281250 -2.750000
v -0.750000 2.281250 -2.250000
v -2.250000 2.281250 -2.250000
vt 0.507812 0.398438
vt 0.695312 0.398438
vt 0.695312 0.335938
vt 0.507812 0.335938
f 545/545/5 548/548/5 547/547/5 546/546/5
v -2.375000 2.312500 -2.750000
v -2.562500 2.312500 -2.750000
v -2.562500 2.250000 -2.750000
v -2.375000 2.250000 -2.750000
vt 0.812500 0.226562
vt 0.835938 0.226562
vt 0.835938 0.218750
vt 0.812500 0.218750
f 549/549/1 552/552/1 551/551/1 550/550/1
v -2.562500 2.312500 -2.250000
v -2.375000 2.312500 -2.250000
v -2.375000 2.250000 -2.250000
v -2.562500 2.250000 -2.250000
vt 0.812500 0.226562
vt 0.835938 0.226562
vt 0.835938 0.218750
vt 0.812500 0.218750
f 553/553/2 556/556/2 555/555/2 554/554/2
v -2.562500 2.312500 -2.750000
v -2.562500 2.312500 -2.250000
v -2.562500 2.250000 -2.250000
v -2.562500 2.250000 -2.750000
vt 0.656250 0.226562
vt 0.718750 0.226562
vt 0.718750 0.218750
vt 0.656250 0.218750
f 557/557/3 560/560/3 559/559/3 558/558/3
v -2.375000 2.312500 -2.250000
v -2.375000 2.312500 -2.750000
v -2.375000 2.250000 -2.750000
v -2.375000 2.250000 -2.250000
vt 0.656250 0.226562
vt 0.718750 0.226562
vt 0.718750 0.218750
vt 0.656250 0.218750
f 561/561/4 564/564/4 563/563/4 562/562/4
v -2.562500 2.312500 -2.750000
v -2.375000 2.312500 -2.750000
v -2.375000 2.312500 -2.250000
v -2.562500 2.312500 -2.250000
vt 0.804688 0.398438
vt 0.828125 0.398438
vt 0.828125 0.335938
vt 0.804688 0.335938
f 565/565/5 568/568/5 567/567/5 566/566/5
v -2.187500 2.062500 -0.812500
v -2.812500 2.062500 -0.812500
v -2.812500 1.000000 -0.812500
v -2.187500 1.000000 -0.812500
vt 0.593750 0.625000
vt 0.671875 0.625000
vt 0.671875 0.492188
vt 0.593750 0.492188
f 569/569/1 572/572/1 571/571/1 570/570/1
v -2.812500 2.062500 -0.187500
v -2.187500 2.062500 -0.187500
v -2.187500 1.000000 -0.187500
v -2.812500 1.000000 -0.187500
vt 0.593750 0.625000
vt 0.671875 0.625000
vt 0.671875 0.492188
vt 0.593750 0.492188
f 573/573/2 576/576/2 575/575/2 574/574/2
v -2.812500 2.062500 -0.812500
v -2.812500 2.062500 -0.187500
v -2.812500 1.000000 -0.187500
v -2.812500 1.000000 -0.812500
vt 0.593750 0.625000
vt 0.671875 0.625000
vt 0.671875 0.492188
vt 0.593750 0.492188
f 577/577/3 580/580/3 579/579/3 578/578/3
v -2.187500 2.062500 -0.187500
v -2.187500 2.062500 -0.812500
v -2.187500 1.000000 -0.812500
v -2.187500 1.000000 -0.187500
vt 0.593750 0.625000
vt 0.671875 0.625000
vt 0.671875 0.492188
vt 0.593750 0.492188
f 581/581/4 584/584/4 583/583/4 582/582/4
v -2.687500 1.875000 -0.156250
v -2.312500 1.875000 -0.156250
v -2.312500 1.250000 -0.156250
v -2.687500 1.250000 -0.156250
vt 0.875000 0.492188
vt 0.921875 0.492188
vt 0.921875 0.414062
vt 0.875000 0.414062
f 585/585/2 588/588/2 587/587/2 586/586/2
v -2.687500 1.875000 -0.187500
v -2.687500 1.875000 -0.156250
v -2.687500 1.250000 -0.156250
v -2.687500 1.250000 -0.187500
vt 0.992188 0.492188
vt 1.000000 0.492188
vt 1.000000 0.414062
vt 0.992188 0.414062
f 589/589/3 592/592/3 591/591/3 590/590/3
v -2.312500 1.875000 -0.156250
v -2.312500 1.875000 -0.187500
v -2.312500 1.250000 -0.187500
v -2.312500 1.250000 -0.156250
vt 0.992188 0.492188
vt 1.000000 0.492188
vt 1.000000 0.414062
vt 0.992188 0.414062
f 593/593/4 596/596/4 595/595/4 594/594/4
v -2.687500 1.875000 -0.187500
v -2.312500 1.875000 -0.187500
v -2.312500 1.875000 -0.156250
v -2.687500 1.875000 -0.156250
vt 0.765625 0.226562
vt 0.812500 0.226562
vt 0.812500 0.218750
vt 0.765625 0.218750
f 597/597/5 600/600/5 599/599/5 598/598/5
v -2.750000 2.062500 -0.875000
v -2.875000 2.062500 -0.875000
v -2.875000 1.000000 -0.875000
v -2.750000 1.000000 -0.875000
vt 0.984375 1.000000
vt 1.000000 1.000000
vt 1.000000 0.867188
vt 0.984375 0.867188
f 601/601/1 604/604/1 603/603/1 602/602/1
v -2.875000 2.062500 -0.750000
v -2.750000 2.062500 -0.750000
v -2.750000 1.000000 -0.750000
v -2.875000 1.000000 -0.750000
vt 0.984375 1.000000
vt 1.000000 1.000000
vt 1.000000 0.867188
vt 0.984375 0.867188
f 605/605/2 608/608/2 607/607/2 606/606/2
v -2.875000 2.062500 -0.875000
v -2.875000 2.062500 -0.750000
v -2.875000 1.000000 -0.750000
v -2.875000 1.000000 -0.875000
vt 0.984375 1.000000
vt 1.000000 1.000000
vt 1.000000 0.867188
vt 0.984375 0.867188
f 609/609/3 612/612/3 611/611/3 610/610/3
v -2.750000 2.062500 -0.750000
v -2.750000 2.062500 -0.875000
v -2.750000 1.000000 -0.875000
v -2.750000 1.000000 -0.750000
vt 0.984375 1.000000
vt 1.000000 1.000000
vt 1.000000 0.867188
vt 0.984375 0.867188
f 613/613/4 616/616/4 615/615/4 614/614/4
v -2.125000 2.062500 -0.875000
v -2.250000 2.062500 -0.875000
v -2.250000 1.000000 -0.875000
v -2.125000 1.000000 -0.875000
vt 0.984375 1.000000
vt 1.000000 1.000000
vt 1.000000 0.867188
vt 0.984375 0.867188
f 617/617/1 620/620/1 619/619/1 618/618/1
v -2.250000 2.062500 -0.750000
v -2.125000 2.062500 -0.750000
v -2.125000 1.000000 -0.750000
v -2.250000 1.000000 -0.750000
vt 0.984375 1.000000
vt 1.000000 1.000000
vt 1.000000 0.867188
vt 0.984375 0.867188
f 621/621/2 624/624/2 623/623/2 622/622/2
v -2.250000 2.062500 -0.875000
v -2.250000 2.062500 -0.750000
v -2.250000 1.000000 -0.750000
v -2.250000 1.000000 -0.875000
vt 0.984375 1.000000
vt 1.000000 1.000000
vt 1.000000 0.867188
vt 0.984375 0.867188
f 625/625/3 628/628/3 627/627/3 626/626/3
v -2.125000 2.062500 -0.750000
v -2.125000 2.062500 -0.875000
v -2.125000 1.000000 -0.875000
v -2.125000 1.000000 -0.750000
vt 0.984375 1.000000
vt 1.000000 1.000000
vt 1.000000 0.867188
vt 0.984375 0.867188
f 629/629/4 632/632/4 631/631/4 630/630/4
v -2.750000 2.062500 -0.250000
v -2.875000 2.062500 -0.250000
v -2.875000 1.000000 -0.250000
v -2.750000 1.000000 -0.250000
vt 0.984375 1.000000
vt 1.000000 1.000000
vt 1.000000 0.867188
vt 0.984375 0.867188
f 633/633/1 636/636/1 635/635/1 634/634/1
v -2.875000 2.062500 -0.125000
v -2.750000 2.062500 -0.125000
v -2.750000 1.000000 -0.125000
v -2.875000 1.000000 -0.125000
vt 0.984375 1.000000
vt 1.000000 1.000000
vt 1.000000 0.867188
vt 0.984375 0.867188
f 637/637/2 640/640/2 639/639/2 638/638/2
v -2.875000 2.062500 -0.250000
v -2.875000 2.062500 -0.125000
v -2.875000 1.000000 -0.125000
v -2.875000 1.000000 -0.250000
vt 0.984375 1.000000
vt 1.000000 1.000000
vt 1.000000 0.867188
vt 0.984375 0.867188
f 641/641/3 644/644/3 643/643/3 642/642/3
v -2.750000 2.062500 -0.125000
v -2.750000 2.062500 -0.250000
v -2.750000 1.000000 -0.250000
v -2.750000 1.000000 -0.125000
vt 0.984375 1.000000
vt 1.000000 1.000000
vt 1.000000 0.867188
vt 0.984375 0.867188
f 645/645/4 648/648/4 647/647/4 646/646/4
v -2.125000 2.062500 -0.250000
v -2.250000 2.062500 -0.250000
v -2.250000 1.000000 -0.250000
v -2.125000 1.000000 -0.250000
vt 0.984375 1.000000
vt 1.000000 1.000000
vt 1.000000 0.867188
vt 0.984375 0.867188
f 649/649/1 652/652/1 651/651/1 650/650/1
v -2.250000 2.062500 -0.125000
v -2.125000 2.062500 -0.125000
v -2.125000 1.000000 -0.125000
v -2.250000 1.000000 -0.125000
vt 0.984375 1.000000
vt 1.000000 1.000000
vt 1.000000 0.867188
vt 0.984375 0.867188
f 653/653/2 656/656/2 655/655/2 654/654/2
v -2.250000 2.062500 -0.250000
v -2.250000 2.062500 -0.125000
v -2.250000 1.000000 -0.125000
v -2.250000 1.000000 -0.250000
vt 0.984375 1.000000
vt 1.000000 1.000000
vt 1.000000 0.867188
vt 0.984375 0.867188
f 657/657/3 660/660/3 659/659/3 658/658/3
v -2.125000 2.062500 -0.125000
v -2.125000 2.062500 -0.250000
v -2.125000 1.000000 -0.250000
v -2.125000 1.000000 -0.125000
vt 0.984375 1.000000
vt 1.000000 1.000000
vt 1.000000 0.867188
vt 0.984375 0.867188
f 661/661/4 664/664/4 663/663/4 662/662/4
v -2.125000 2.250000 -0.875000
v -2.875000 2.250000 -0.875000
v -2.875000 2.062500 -0.875000
v -2.125000 2.062500 -0.875000
vt 0.890625 0.273438
vt 0.984375 0.273438
vt 0.984375 0.250000
vt 0.890625 0.250000
f 665/665/1 668/668/1 667/667/1 666/666/1
v -2.875000 2.250000 -0.125000
v -2.125000 2.250000 -0.125000
v -2.125000 2.062500 -0.125000
v -2.875000 2.062500 -0.125000
vt 0.890625 0.273438
vt 0.984375 0.273438
vt 0.984375 0.250000
vt 0.890625 0.250000
f 669/669/2 672/672/2 671/671/2 670/670/2
v -2.875000 2.250000 -0.875000
v -2.875000 2.250000 -0.125000
v -2.875000 2.062500 -0.125000
v -2.875000 2.062500 -0.875000
vt 0.890625 0.273438
vt 0.984375 0.273438
vt 0.984375 0.250000
vt 0.890625 0.250000
f 673/673/3 676/676/3 675/675/3 674/674/3
v -2.125000 2.250000 -0.125000
v -2.125000 2.250000 -0.875000
v -2.125000 2.062500 -0.875000
v -2.125000 2.062500 -0.125000
vt 0.890625 0.273438
vt 0.984375 0.273438
vt 0.984375 0.250000
vt 0.890625 0.250000
f 677/677/4 680/680/4 679/679/4 678/678/4
v -2.875000 2.250000 -0.875000
v -2.125000 2.250000 -0.875000
v -2.125000 2.250000 -0.125000
v -2.875000 2.250000 -0.125000
vt 0.898438 0.625000
vt 0.992188 0.625000
vt 0.992188 0.531250
vt 0.898438 0.531250
f 681/681/5 684/684/5 683/683/5 682/682/5
v -2.875000 2.062500 -0.125000
v -2.125000 2.062500 -0.125000
v -2.125000 2.062500 -0.875000
v -2.875000 2.062500 -0.875000
vt 0.625000 0.492188
vt 0.718750 0.492188
vt 0.718750 0.398438
vt 0.625000 0.398438
f 685/685/6 688/688/6 687/687/6 686/686/6
v -0.187500 2.062500 -0.812500
v -0.812500 2.062500 -0.812500
v -0.812500 1.000000 -0.812500
v -0.187500 1.000000 -0.812500
vt 0.593750 0.625000
vt 0.671875 0.625000
vt 0.671875 0.492188
vt 0.593750 0.492188
f 689/689/1 692/692/1 691/691/1 690/690/1
v -0.812500 2.062500 -0.187500
v -0.187500 2.062500 -0.187500
v -0.187500 1.000000 -0.187500
v -0.812500 1.000000 -0.187500
vt 0.593750 0.625000
vt 0.671875 0.625000
vt 0.671875 0.492188
vt 0.593750 0.492188
f 693/693/2 696/696/2 695/695/2 694/694/2
v -0.812500 2.062500 -0.812500
v -0.812500 2.062500 -0.187500
v -0.812500 1.000000 -0.187500
v -0.812500 1.000000 -0.812500
vt 0.593750 0.625000
vt 0.671875 0.625000
vt 0.671875 0.492188
vt 0.593750 0.492188
f 697/697/3 700/700/3 699/699/3 698/698/3
v -0.187500 2.062500 -0.187500
v -0.187500 2.062500 -0.812500
v -0.187500 1.000000 -0.812500
v -0.187500 1.000000 -0.187500
vt 0.593750 0.625000
vt 0.671875 0.625000
vt 0.671875 0.492188
vt 0.593750 0.492188
f 701/701/4 704/704/4 703/703/4 702/702/4
v -0.687500 1.875000 -0.156250
v -0.312500 1.875000 -0.156250
v -0.312500 1.250000 -0.156250
v -0.687500 1.250000 -0.156250
vt 0.875000 0.492188
vt 0.921875 0.492188
vt 0.921875 0.414062
vt 0.875000 0.414062
f 705/705/2 708/708/2 707/707/2 706/706/2
v -0.687500 1.875000 -0.187500
v -0.687500 1.875000 -0.156250
v -0.687500 1.250000 -0.156250
v -0.687500 1.250000 -0.187500
vt 0.992188 0.492188
vt 1.000000 0.492188
vt 1.000000 0.414062
vt 0.992188 0.414062
f 709/709/3 712/712/3 711/711/3 710/710/3
v -0.312500 1.875000 -0.156250
v -0.312500 1.875000 -0.187500
v -0.312500 1.250000 -0.187500
v -0.312500 1.250000 -0.156250
vt 0.992188 0.492188
vt 1.000000 0.492188
vt 1.000000 0.414062
vt 0.992188 0.414062
f 713/713/4 716/716/4 715/715/4 714/714/4
v -0.687500 1.875000 -0.187500
v -0.312500 1.875000 -0.187500
v -0.312500 1.875000 -0.156250
v -0.687500 1.875000 -0.156250
vt 0.765625 0.226562
vt 0.812500 0.226562
vt 0.812500 0.218750
vt 0.765625 0.218750
f 717/717/5 720/720/5 719/719/5 718/718/5
v -0.750000 2.062500 -0.875000
v -0.875000 2.062500 -0.875000
v -0.875000 1.000000 -0.875000
v -0.750000 1.000000 -0.875000
vt 0.984375 1.000000
vt 1.000000 1.000000
vt 1.000000 0.867188
vt 0.984375 0.867188
f 721/721/1 724/724/1 723/723/1 722/722/1
v -0.875000 2.062500 -0.750000
v -0.750000 2.062500 -0.750000
v -0.750000 1.000000 -0.750000
v -0.875000 1.000000 -0.750000
vt 0.984375 1.000000
vt 1.000000 1.000000
vt 1.000000 0.867188
vt 0.984375 0.867188
f 725/725/2 728/728/2 727/727/2 726/726/2
v -0.875000 2.062500 -0.875000
v -0.875000 2.062500 -0.750000
v -0.875000 1.000000 -0.750000
v -0.875000 1.000000 -0.875000
vt 0.984375 1.000000
vt 1.000000 1.000000
vt 1.000000 0.867188
vt 0.984375 0.867188
f 729/729/3 732/732/3 731/731/3 730/730/3
v -0.750000 2.062500 -0.750000
v -0.750000 2.062500 -0.875000
v -0.750000 1.000000 -0.875000
v -0.750000 1.000000 -0.750000
vt 0.984375 1.000000
vt 1.000000 1.000000
vt 1.000000 0.867188
vt 0.984375 0.867188
f 733/733/4 736/736/4 735/735/4 734/734/4
v -0.125000 2.062500 -0.875000
v -0.250000 2.062500 -0.875000
v -0.250000 1.000000 -0.875000
v -0.125000 1.000000 -0.875000
vt 0.984375 1.000000
vt 1.000000 1.000000
vt 1.000000 0.867188
vt 0.984375 0.867188
f 737/737/1 740/740/1 739/739/1 738/738/1
v -0.250000 2.062500 -0.750000
v -0.125000 2.062500 -0.750000
v -0.125000 1.000000 -0.750000
v -0.250000 1.000000 -0.750000
vt 0.984375 1.000000
vt 1.000000 1.000000
vt 1.000000 0.867188
vt 0.984375 0.867188
f 741/741/2 744/744/2 743/743/2 742/742/2
v -0.250000 2.062500 -0.875000
v -0.250000 2.062500 -0.750000
v -0.250000 1.000000 -0.750000
v -0.250000 1.000000 -0.875000
vt 0.984375 1.000000
vt 1.000000 1.000000
vt 1.000000 0.867188
vt 0.984375 0.867188
f 745/745/3 748/748/3 747/747/3 746/746/3
v -0.125000 2.062500 -0.750000
v -0.125000 2.062500 -0.875000
v -0.125000 1.000000 -0.875000
v -0.125000 1.000000 -0.750000
vt 0.984375 1.000000
vt 1.000000 1.000000
vt 1.000000 0.867188
vt 0.984375 0.867188
f 749/749/4 752/752/4 751/751/4 750/750/4
v -0.750000 2.062500 -0.250000
v -0.875000 2.062500 -0.250000
v -0.875000 1.000000 -0.250000
v -0.750000 1.000000 -0.250000
vt 0.984375 1.000000
vt 1.000000 1.000000
vt 1.000000 0.867188
vt 0.984375 0.867188
f 753/753/1 756/756/1 755/755/1 754/754/1
v -0.875000 2.062500 -0.125000
v -0.750000 2.062500 -0.125000
v -0.750000 1.000000 -0.125000
v -0.875000 1.000000 -0.125000
vt 0.984375 1.000000
vt 1.000000 1.000000
vt 1.000000 0.867188
vt 0.984375 0.867188
f 757/757/2 760/760/2 759/759/2 758/758/2
v -0.875000 2.062500 -0.250000
v -0.875000 2.062500 -0.125000
v -0.875000 1.000000 -0.125000
v -0.875000 1.000000 -0.250000
vt 0.984375 1.000000
vt 1.000000 1.000000
vt 1.000000 0.867188
vt 0.984375 0.867188
f 761/761/3 764/764/3 763/763/3 762/762/3
v -0.750000 2.062500 -0.125000
v -0.750000 2.062500 -0.250000
v -0.750000 1.000000 -0.250000
v -0.750000 1.000000 -0.125000
vt 0.984375 1.000000
vt 1.000000 1.000000
vt 1.000000 0.867188
vt 0.984375 0.867188
f 765/765/4 768/768/4 767/767/4 766/766/4
v -0.125000 2.062500 -0.250000
v -0.250000 2.062500 -0.250000
v -0.250000 1.000000 -0.250000
v -0.125000 1.000000 -0.250000
vt 0.984375 1.000000
vt 1.000000 1.000000
vt 1.000000 0.867188
vt 0.984375 0.867188
f 769/769/1 772/772/1 771/771/1 770/770/1
v -0.250000 2.062500 -0.125000
v -0.125000 2.062500 -0.125000
v -0.125000 1.000000 -0.125000
v -0.250000 1.000000 -0.125000
vt 0.984375 1.000000
vt 1.000000 1.000000
vt 1.000000 0.867188
vt 0.984375 0.867188
f 773/773/2 776/776/2 775/775/2 774/774/2
v -0.250000 2.062500 -0.250000
v -0.250000 2.062500 -0.125000
v -0.250000 1.000000 -0.125000
v -0.250000 1.000000 -0.250000
vt 0.984375 1.000000
vt 1.000000 1.000000
vt 1.000000 0.867188
vt 0.984375 0.867188
f 777/777/3 780/780/3 779/779/3 778/778/3
v -0.125000 2.062500 -0.125000
v -0.125000 2.062500 -0.250000
v -0.125000 1.000000 -0.250000
v -0.125000 1.000000 -0.125000
vt 0.984375 1.000000
vt 1.000000 1.000000
vt 1.000000 0.867188
vt 0.984375 0.867188
f 781/781/4 784/784/4 783/783/4 782/782/4
v -0.125000 2.250000 -0.875000
v -0.875000 2.250000 -0.875000
v -0.875000 2.062500 -0.875000
v -0.125000 2.062500 -0.875000
vt 0.890625 0.273438
vt 0.984375 0.273438
vt 0.984375 0.250000
vt 0.890625 0.250000
f 785/785/1 788/788/1 787/787/1 786/786/1
v -0.875000 2.250000 -0.125000
v -0.125000 2.250000 -0.125000
v -0.125000 2.062500 -0.125000
v -0.875000 2.062500 -0.125000
vt 0.890625 0.273438
vt 0.984375 0.273438
vt 0.984375 0.250000
vt 0.890625 0.250000
f 789/789/2 792/792/2 791/791/2 790/790/2
v -0.875000 2.250000 -0.875000
v -0.875000 2.250000 -0.125000
v -0.875000 2.062500 -0.125000
v -0.875000 2.062500 -0.875000
vt 0.890625 0.273438
vt 0.984375 0.273438
vt 0.984375 0.250000
vt 0.890625 0.250000
f 793/793/3 796/796/3 795/795/3 794/794/3
v -0.125000 2.250000 -0.125000
v -0.125000 2.250000 -0.875000
v -0.125000 2.062500 -0.875000
v -0.125000 2.062500 -0.125000
vt 0.890625 0.273438
vt 0.984375 0.273438
vt 0.984375 0.250000
vt 0.890625 0.250000
f 797/797/4 800/800/4 799/799/4 798/798/4
v -0.875000 2.250000 -0.875000
v -0.125000 2.250000 -0.875000
v -0.125000 2.250000 -0.125000
v -0.875000 2.250000 -0.125000
vt 0.898438 0.625000
vt 0.992188 0.625000
vt 0.992188 0.531250
vt 0.898438 0.531250
f 801/801/5 804/804/5 803/803/5 802/802/5
v -0.875000 2.062500 -0.125000
v -0.125000 2.062500 -0.125000
v -0.125000 2.062500 -0.875000
v -0.875000 2.062500 -0.875000
vt 0.625000 0.492188
vt 0.718750 0.492188
vt 0.718750 0.398438
vt 0.625000 0.398438
f 805/805/6 808/808/6 807/807/6 806/806/6
v -0.187500 2.312500 -0.375000
v -0.375000 2.312500 -0.375000
v -0.375000 2.250000 -0.375000
v -0.187500 2.250000 -0.375000
vt 0.835938 0.226562
vt 0.859375 0.226562
vt 0.859375 0.218750
vt 0.835938 0.218750
f 809/809/1 812/812/1 811/811/1 810/810/1
v -0.375000 2.312500 -0.187500
v -0.187500 2.312500 -0.187500
v -0.187500 2.250000 -0.187500
v -0.375000 2.250000 -0.187500
vt 0.835938 0.226562
vt 0.859375 0.226562
vt 0.859375 0.218750
vt 0.835938 0.218750
f 813/813/2 816/816/2 815/815/2 814/814/2
v -0.375000 2.312500 -0.375000
v -0.375000 2.312500 -0.187500
v -0.375000 2.250000 -0.187500
v -0.375000 2.250000 -0.375000
vt 0.835938 0.226562
vt 0.859375 0.226562
vt 0.859375 0.218750
vt 0.835938 0.218750
f 817/817/3 820/820/3 819/819/3 818/818/3
v -0.187500 2.312500 -0.187500
v -0.187500 2.312500 -0.375000
v -0.187500 2.250000 -0.375000
v -0.187500 2.250000 -0.187500
vt 0.835938 0.226562
vt 0.859375 0.226562
vt 0.859375 0.218750
vt 0.835938 0.218750
f 821/821/4 824/824/4 823/823/4 822/822/4
v -0.375000 2.312500 -0.375000
v -0.187500 2.312500 -0.375000
v -0.187500 2.312500 -0.187500
v -0.375000 2.312500 -0.187500
vt 0.953125 0.320312
vt 0.976562 0.320312
vt 0.976562 0.296875
vt 0.953125 0.296875
f 825/825/5 828/828/5 827/827/5 826/826/5
v -2.593750 2.125000 -2.125000
v -2.593750 2.125000 -0.812500
v -2.593750 1.937500 -0.812500
v -2.593750 1.937500 -2.125000
vt 0.000000 0.250000
vt 0.164062 0.250000
vt 0.164062 0.226562
vt 0.000000 0.226562
f 829/829/3 832/832/3 831/831/3 830/830/3
v -2.406250 2.125000 -0.812500
v -2.406250 2.125000 -2.125000
v -2.406250 1.937500 -2.125000
v -2.406250 1.937500 -0.812500
vt 0.000000 0.250000
vt 0.164062 0.250000
vt 0.164062 0.226562
vt 0.000000 0.226562
f 833/833/4 836/836/4 835/835/4 834/834/4
v -2.593750 2.125000 -2.125000
v -2.406250 2.125000 -2.125000
v -2.406250 2.125000 -0.812500
v -2.593750 2.125000 -0.812500
vt 0.750000 1.000000
vt 0.773438 1.000000
vt 0.773438 0.835938
vt 0.750000 0.835938
f 837/837/5 840/840/5 839/839/5 838/838/5
v -2.593750 1.937500 -0.812500
v -2.406250 1.937500 -0.812500
v -2.406250 1.937500 -2.125000
v -2.593750 1.937500 -2.125000
vt 0.750000 1.000000
vt 0.773438 1.000000
vt 0.773438 0.835938
vt 0.750000 0.835938
f 841/841/6 844/844/6 843/843/6 842/842/6
v -2.593750 1.812500 -2.125000
v -2.593750 1.812500 -0.812500
v -2.593750 1.625000 -0.812500
v -2.593750 1.625000 -2.125000
vt 0.000000 0.250000
vt 0.164062 0.250000
vt 0.164062 0.226562
vt 0.000000 0.226562
f 845/845/3 848/848/3 847/847/3 846/846/3
v -2.406250 1.812500 -0.812500
v -2.406250 1.812500 -2.125000
v -2.406250 1.625000 -2.125000
v -2.406250 1.625000 -0.812500
vt 0.000000 0.250000
vt 0.164062 0.250000
vt 0.164062 0.226562
vt 0.000000 0.226562
f 849/849/4 852/852/4 851/851/4 850/850/4
v -2.593750 1.812500 -2.125000
v -2.406250 1.812500 -2.125000
v -2.406250 1.812500 -0.812500
v -2.593750 1.812500 -0.812500
vt 0.750000 1.000000
vt 0.773438 1.000000
vt 0.773438 0.835938
vt 0.750000 0.835938
f 853/853/5 856/856/5 855/855/5 854/854/5
v -2.593750 1.625000 -0.812500
v -2.406250 1.625000 -0.812500
v -2.406250 1.625000 -2.125000
v -2.593750 1.625000 -2.125000
vt 0.750000 1.000000
vt 0.773438 1.000000
vt 0.773438 0.835938
vt 0.750000 0.835938
f 857/857/6 860/860/6 859/859/6 858/858/6
v -0.593750 2.125000 -2.125000
v -0.593750 2.125000 -0.812500
v -0.593750 1.937500 -0.812500
v -0.593750 1.937500 -2.125000
vt 0.000000 0.250000
vt 0.164062 0.250000
vt 0.164062 0.226562
vt 0.000000 0.226562
f 861/861/3 864/864/3 863/863/3 862/862/3
v -0.406250 2.125000 -0.812500
v -0.406250 2.125000 -2.125000
v -0.406250 1.937500 -2.125000
v -0.406250 1.937500 -0.812500
vt 0.000000 0.250000
vt 0.164062 0.250000
vt 0.164062 0.226562
vt 0.000000 0.226562
f 865/865/4 868/868/4 867/867/4 866/866/4
v -0.593750 2.125000 -2.125000
v -0.406250 2.125000 -2.125000
v -0.406250 2.125000 -0.812500
v -0.593750 2.125000 -0.812500
vt 0.750000 1.000000
vt 0.773438 1.000000
vt 0.773438 0.835938
vt 0.750000 0.835938
f 869/869/5 872/872/5 871/871/5 870/870/5
v -0.593750 1.937500 -0.812500
v -0.406250 1.937500 -0.812500
v -0.406250 1.937500 -2.125000
v -0.593750 1.937500 -2.125000
vt 0.750000 1.000000
vt 0.773438 1.000000
vt 0.773438 0.835938
vt 0.750000 0.835938
f 873/873/6 876/876/6 875/875/6 874/874/6
v -0.593750 1.812500 -2.125000
v -0.593750 1.812500 -0.812500
v -0.593750 1.625000 -0.812500
v -0.593750 1.625000 -2.125000
vt 0.000000 0.250000
vt 0.164062 0.250000
vt 0.164062 0.226562
vt 0.000000 0.226562
f 877/877/3 880/880/3 879/879/3 878/878/3
v -0.406250 1.812500 -0.812500
v -0.406250 1.812500 -2.125000
v -0.406250 1.625000 -2.125000
v -0.406250 1.625000 -0.812500
vt 0.000000 0.250000
vt 0.164062 0.250000
vt 0.164062 0.226562
vt 0.000000 0.226562
f 881/881/4 884/884/4 883/883/4 882/882/4
v -0.593750 1.812500 -2.125000
v -0.406250 1.812500 -2.125000
v -0.406250 1.812500 -0.812500
v -0.593750 1.812500 -0.812500
vt 0.750000 1.000000
vt 0.773438 1.000000
vt 0.773438 0.835938
vt 0.750000 0.835938
f 885/885/5 888/888/5 887/887/5 886/886/5
v -0.593750 1.625000 -0.812500
v -0.406250 1.625000 -0.812500
v -0.406250 1.625000 -2.125000
v -0.593750 1.625000 -2.125000
vt 0.750000 1.000000
vt 0.773438 1.000000
vt 0.773438 0.835938
vt 0.750000 0.835938
f 889/889/6 892/892/6 891/891/6 890/890/6
v -2.875000 2.250000 -2.125000
v -2.875000 2.250000 -0.875000
v -2.875000 2.125000 -0.875000
v -2.875000 2.125000 -2.125000
vt 0.164062 0.250000
vt 0.320312 0.250000
vt 0.320312 0.234375
vt 0.164062 0.234375
f 893/893/3 896/896/3 895/895/3 894/894/3
v -2.750000 2.250000 -0.875000
v -2.750000 2.250000 -2.125000
v -2.750000 2.125000 -2.125000
v -2.750000 2.125000 -0.875000
vt 0.164062 0.250000
vt 0.320312 0.250000
vt 0.320312 0.234375
vt 0.164062 0.234375
f 897/897/4 900/900/4 899/899/4 898/898/4
v -2.875000 2.250000 -2.125000
v -2.750000 2.250000 -2.125000
v -2.750000 2.250000 -0.875000
v -2.875000 2.250000 -0.875000
vt 0.773438 1.000000
vt 0.789062 1.000000
vt 0.789062 0.843750
vt 0.773438 0.843750
f 901/901/5 904/904/5 903/903/5 902/902/5
v -2.875000 2.125000 -0.875000
v -2.750000 2.125000 -0.875000
v -2.750000 2.125000 -2.125000
v -2.875000 2.125000 -2.125000
vt 0.773438 1.000000
vt 0.789062 1.000000
vt 0.789062 0.843750
vt 0.773438 0.843750
f 905/905/6 908/908/6 907/907/6 906/906/6
v -0.250000 2.250000 -2.125000
v -0.250000 2.250000 -0.875000
v -0.250000 2.125000 -0.875000
v -0.250000 2.125000 -2.125000
vt 0.164062 0.250000
vt 0.320312 0.250000
vt 0.320312 0.234375
vt 0.164062 0.234375
f 909/909/3 912/912/3 911/911/3 910/910/3
v -0.125000 2.250000 -0.875000
v -0.125000 2.250000 -2.125000
v -0.125000 2.125000 -2.125000
v -0.125000 2.125000 -0.875000
vt 0.164062 0.250000
vt 0.320312 0.250000
vt 0.320312 0.234375
vt 0.164062 0.234375
f 913/913/4 916/916/4 915/915/4 914/914/4
v -0.250000 2.250000 -2.125000
v -0.125000 2.250000 -2.125000
v -0.125000 2.250000 -0.875000
v -0.250000 2.250000 -0.875000
vt 0.773438 1.000000
vt 0.789062 1.000000
vt 0.789062 0.843750
vt 0.773438 0.843750
f 917/917/5 920/920/5 919/919/5 918/918/5
v -0.250000 2.125000 -0.875000
v -0.125000 2.125000 -0.875000
v -0.125000 2.125000 -2.125000
v -0.250000 2.125000 -2.125000
vt 0.773438 1.000000
vt 0.789062 1.000000
vt 0.789062 0.843750
vt 0.773438 0.843750
f 921/921/6 924/924/6 923/923/6 922/922/6
v -0.875000 2.250000 -0.250000
v -2.125000 2.250000 -0.250000
v -2.125000 2.125000 -0.250000
v -0.875000 2.125000 -0.250000
vt 0.320312 0.250000
vt 0.476562 0.250000
vt 0.476562 0.234375
vt 0.320312 0.234375
f 925/925/1 928/928/1 927/927/1 926/926/1
v -2.125000 2.250000 -0.125000
v -0.875000 2.250000 -0.125000
v -0.875000 2.125000 -0.125000
v -2.125000 2.125000 -0.125000
vt 0.320312 0.250000
vt 0.476562 0.250000
vt 0.476562 0.234375
vt 0.320312 0.234375
f 929/929/2 932/932/2 931/931/2 930/930/2
v -2.125000 2.250000 -0.250000
v -0.875000 2.250000 -0.250000
v -0.875000 2.250000 -0.125000
v -2.125000 2.250000 -0.125000
vt 0.320312 0.250000
vt 0.476562 0.250000
vt 0.476562 0.234375
vt 0.320312 0.234375
f 933/933/5 936/936/5 935/935/5 934/934/5
v -2.125000 2.125000 -0.125000
v -0.875000 2.125000 -0.125000
v -0.875000 2.125000 -0.250000
v -2.125000 2.125000 -0.250000
vt 0.320312 0.250000
vt 0.476562 0.250000
vt 0.476562 0.234375
vt 0.320312 0.234375
f 937/937/6 940/940/6 939/939/6 938/938/6
v -2.750000 2.125000 -2.250000
v -2.875000 2.125000 -2.250000
v -2.875000 1.000000 -2.250000
v -2.750000 1.000000 -2.250000
vt 0.945312 1.000000
vt 0.960938 1.000000
vt 0.960938 0.859375
vt 0.945312 0.859375
f 941/941/1 944/944/1 943/943/1 942/942/1
v -2.875000 2.125000 -2.125000
v -2.750000 2.125000 -2.125000
v -2.750000 1.000000 -2.125000
v -2.875000 1.000000 -2.125000
vt 0.945312 1.000000
vt 0.960938 1.000000
vt 0.960938 0.859375
vt 0.945312 0.859375
f 945/945/2 948/948/2 947/947/2 946/946/2
v -2.875000 2.125000 -2.250000
v -2.875000 2.125000 -2.125000
v -2.875000 1.000000 -2.125000
v -2.875000 1.000000 -2.250000
vt 0.945312 1.000000
vt 0.960938 1.000000
vt 0.960938 0.859375
vt 0.945312 0.859375
f 949/949/3 952/952/3 951/951/3 950/950/3
v -2.750000 2.125000 -2.125000
v -2.750000 2.125000 -2.250000
v -2.750000 1.000000 -2.250000
v -2.750000 1.000000 -2.125000
vt 0.945312 1.000000
vt 0.960938 1.000000
vt 0.960938 0.859375
vt 0.945312 0.859375
f 953/953/4 956/956/4 955/955/4 954/954/4
v -0.125000 2.125000 -2.250000
v -0.250000 2.125000 -2.250000
v -0.250000 1.000000 -2.250000
v -0.125000 1.000000 -2.250000
vt 0.945312 1.000000
vt 0.960938 1.000000
vt 0.960938 0.859375
vt 0.945312 0.859375
f 957/957/1 960/960/1 959/959/1 958/958/1
v -0.250000 2.125000 -2.125000
v -0.125000 2.125000 -2.125000
v -0.125000 1.000000 -2.125000
v -0.250000 1.000000 -2.125000
vt 0.945312 1.000000
vt 0.960938 1.000000
vt 0.960938 0.859375
vt 0.945312 0.859375
f 961/961/2 964/964/2 963/963/2 962/962/2
v -0.250000 2.125000 -2.250000
v -0.250000 2.125000 -2.125000
v -0.250000 1.000000 -2.125000
v -0.250000 1.000000 -2.250000
vt 0.945312 1.000000
vt 0.960938 1.000000
vt 0.960938 0.859375
vt 0.945312 0.859375
f 965/965/3 968/968/3 967/967/3 966/966/3
v -0.125000 2.125000 -2.125000
v -0.125000 2.125000 -2.250000
v -0.125000 1.000000 -2.250000
v -0.125000 1.000000 -2.125000
vt 0.945312 1.000000
vt 0.960938 1.000000
vt 0.960938 0.859375
vt 0.945312 0.859375
f 969/969/4 972/972/4 971/971/4 970/970/4
v -2.843750 2.125000 -2.125000
v -2.843750 2.125000 -0.875000
v -2.843750 1.000000 -0.875000
v -2.843750 1.000000 -2.125000
vt 0.789062 1.000000
vt 0.945312 1.000000
vt 0.945312 0.859375
vt 0.789062 0.859375
f 973/973/3 976/976/3 975/975/3 974/974/3
v -2.812500 2.125000 -0.875000
v -2.812500 2.125000 -2.125000
v -2.812500 1.000000 -2.125000
v -2.812500 1.000000 -0.875000
vt 0.789062 1.000000
vt 0.945312 1.000000
vt 0.945312 0.859375
vt 0.789062 0.859375
f 977/977/4 980/980/4 979/979/4 978/978/4
v -0.187500 2.125000 -2.125000
v -0.187500 2.125000 -0.875000
v -0.187500 1.000000 -0.875000
v -0.187500 1.000000 -2.125000
vt 0.789062 1.000000
vt 0.945312 1.000000
vt 0.945312 0.859375
vt 0.789062 0.859375
f 981/981/3 984/984/3 983/983/3 982/982/3
v -0.156250 2.125000 -0.875000
v -0.156250 2.125000 -2.125000
v -0.156250 1.000000 -2.125000
v -0.156250 1.000000 -0.875000
vt 0.789062 1.000000
vt 0.945312 1.000000
vt 0.945312 0.859375
vt 0.789062 0.859375
f 985/985/4 988/988/4 987/987/4 986/986/4
v -0.875000 2.125000 -0.187500
v -2.125000 2.125000 -0.187500
v -2.125000 1.000000 -0.187500
v -0.875000 1.000000 -0.187500
vt 0.789062 1.000000
vt 0.945312 1.000000
vt 0.945312 0.859375
vt 0.789062 0.859375
f 989/989/1 992/992/1 991/991/1 990/990/1
v -2.125000 2.125000 -0.156250
v -0.875000 2.125000 -0.156250
v -0.875000 1.000000 -0.156250
v -2.125000 1.000000 -0.156250
vt 0.789062 1.000000
vt 0.945312 1.000000
vt 0.945312 0.859375
vt 0.789062 0.859375
f 993/993/2 996/996/2 995/995/2 994/994/2
o Mount
v -2.312500 2.187500 -2.125000
v -2.687500 2.187500 -2.125000
v -2.687500 1.562500 -2.125000
v -2.312500 1.562500 -2.125000
vt 0.921875 0.492188
vt 0.968750 0.492188
vt 0.968750 0.414062
vt 0.921875 0.414062
f 997/997/1 1000/1000/1 999/999/1 998/998/1
v -2.687500 2.187500 -1.750000
v -2.312500 2.187500 -1.750000
v -2.312500 1.562500 -1.750000
v -2.687500 1.562500 -1.750000
vt 0.921875 0.492188
vt 0.968750 0.492188
vt 0.968750 0.414062
vt 0.921875 0.414062
f 1001/1001/2 1004/1004/2 1003/1003/2 1002/1002/2
v -2.687500 2.187500 -2.125000
v -2.687500 2.187500 -1.750000
v -2.687500 1.562500 -1.750000
v -2.687500 1.562500 -2.125000
vt 0.921875 0.492188
vt 0.968750 0.492188
vt 0.968750 0.414062
vt 0.921875 0.414062
f 1005/1005/3 1008/1008/3 1007/1007/3 1006/1006/3
v -2.312500 2.187500 -1.750000
v -2.312500 2.187500 -2.125000
v -2.312500 1.562500 -2.125000
v -2.312500 1.562500 -1.750000
vt 0.921875 0.492188
vt 0.968750 0.492188
vt 0.968750 0.414062
vt 0.921875 0.414062
f 1009/1009/4 1012/1012/4 1011/1011/4 1010/1010/4
v -2.687500 2.187500 -2.125000
v -2.312500 2.187500 -2.125000
v -2.312500 2.187500 -1.750000
v -2.687500 2.187500 -1.750000
vt 0.125000 0.320312
vt 0.171875 0.320312
vt 0.171875 0.273438
vt 0.125000 0.273438
f 1013/1013/5 1016/1016/5 1015/1015/5 1014/1014/5
v -2.687500 1.562500 -1.750000
v -2.312500 1.562500 -1.750000
v -2.312500 1.562500 -2.125000
v -2.687500 1.562500 -2.125000
vt 0.171875 0.320312
vt 0.218750 0.320312
vt 0.218750 0.273438
vt 0.171875 0.273438
f 1017/1017/6 1020/1020/6 1019/1019/6 1018/1018/6
v -0.312500 2.187500 -2.125000
v -0.687500 2.187500 -2.125000
v -0.687500 1.562500 -2.125000
v -0.312500 1.562500 -2.125000
vt 0.921875 0.492188
vt 0.968750 0.492188
vt 0.968750 0.414062
vt 0.921875 0.414062
f 1021/1021/1 1024/1024/1 1023/1023/1 1022/1022/1
v -0.687500 2.187500 -1.750000
v -0.312500 2.187500 -1.750000
v -0.312500 1.562500 -1.750000
v -0.687500 1.562500 -1.750000
vt 0.921875 0.492188
vt 0.968750 0.492188
vt 0.968750 0.414062
vt 0.921875 0.414062
f 1025/1025/2 1028/1028/2 1027/1027/2 1026/1026/2
v -0.687500 2.187500 -2.125000
v -0.687500 2.187500 -1.750000
v -0.687500 1.562500 -1.750000
v -0.687500 1.562500 -2.125000
vt 0.921875 0.492188
vt 0.968750 0.492188
vt 0.968750 0.414062
vt 0.921875 0.414062
f 1029/1029/3 1032/1032/3 1031/1031/3 1030/1030/3
v -0.312500 2.187500 -1.750000
v -0.312500 2.187500 -2.125000
v -0.312500 1.562500 -2.125000
v -0.312500 1.562500 -1.750000
vt 0.921875 0.492188
vt 0.968750 0.492188
vt 0.968750 0.414062
vt 0.921875 0.414062
f 1033/1033/4 1036/1036/4 1035/1035/4 1034/1034/4
v -0.687500 2.187500 -2.125000
v -0.312500 2.187500 -2.125000
v -0.312500 2.187500 -1.750000
v -0.687500 2.187500 -1.750000
vt 0.125000 0.320312
vt 0.171875 0.320312
vt 0.171875 0.273438
vt 0.125000 0.273438
f 1037/1037/5 1040/1040/5 1039/1039/5 1038/1038/5
v -0.687500 1.562500 -1.750000
v -0.312500 1.562500 -1.750000
v -0.312500 1.562500 -2.125000
v -0.687500 1.562500 -2.125000
vt 0.171875 0.320312
vt 0.218750 0.320312
vt 0.218750 0.273438
vt 0.171875 0.273438
f 1041/1041/6 1044/1044/6 1043/1043/6 1042/1042/6
v -0.687500 2.125000 -2.031250
v -2.312500 2.125000 -2.031250
v -2.312500 1.937500 -2.031250
v -0.687500 1.937500 -2.031250
vt 0.687500 0.273438
vt 0.890625 0.273438
vt 0.890625 0.250000
vt 0.687500 0.250000
f 1045/1045/1 1048/1048/1 1047/1047/1 1046/1046/1
v -2.312500 2.125000 -1.843750
v -0.687500 2.125000 -1.843750
v -0.687500 1.937500 -1.843750
v -2.312500 1.937500 -1.843750
vt 0.687500 0.273438
vt 0.890625 0.273438
vt 0.890625 0.250000
vt 0.687500 0.250000
f 1049/1049/2 1052/1052/2 1051/1051/2 1050/1050/2
v -2.312500 2.125000 -2.031250
v -0.687500 2.125000 -2.031250
v -0.687500 2.125000 -1.843750
v -2.312500 2.125000 -1.843750
vt 0.687500 0.273438
vt 0.890625 0.273438
vt 0.890625 0.250000
vt 0.687500 0.250000
f 1053/1053/5 1056/1056/5 1055/1055/5 1054/1054/5
v -2.312500 1.937500 -1.843750
v -0.687500 1.937500 -1.843750
v -0.687500 1.937500 -2.031250
v -2.312500 1.937500 -2.031250
vt 0.687500 0.273438
vt 0.890625 0.273438
vt 0.890625 0.250000
vt 0.687500 0.250000
f 1057/1057/6 1060/1060/6 1059/1059/6 1058/1058/6
v -0.687500 1.812500 -2.031250
v -2.312500 1.812500 -2.031250
v -2.312500 1.625000 -2.031250
v -0.687500 1.625000 -2.031250
vt 0.687500 0.273438
vt 0.890625 0.273438
vt 0.890625 0.250000
vt 0.687500 0.250000
f 1061/1061/1 1064/1064/1 1063/1063/1 1062/1062/1
v -2.312500 1.812500 -1.843750
v -0.687500 1.812500 -1.843750
v -0.687500 1.625000 -1.843750
v -2.312500 1.625000 -1.843750
vt 0.687500 0.273438
vt 0.890625 0.273438
vt 0.890625 0.250000
vt 0.687500 0.250000
f 1065/1065/2 1068/1068/2 1067/1067/2 1066/1066/2
v -2.312500 1.812500 -2.031250
v -0.687500 1.812500 -2.031250
v -0.687500 1.812500 -1.843750
v -2.312500 1.812500 -1.843750
vt 0.687500 0.273438
vt 0.890625 0.273438
vt 0.890625 0.250000
vt 0.687500 0.250000
f 1069/1069/5 1072/1072/5 1071/1071/5 1070/1070/5
v -2.312500 1.625000 -1.843750
v -0.687500 1.625000 -1.843750
v -0.687500 1.625000 -2.031250
v -2.312500 1.625000 -2.031250
vt 0.687500 0.273438
vt 0.890625 0.273438
vt 0.890625 0.250000
vt 0.687500 0.250000
f 1073/1073/6 1076/1076/6 1075/1075/6 1074/1074/6
v -0.687500 1.906250 -2.000000
v -2.312500 1.906250 -2.000000
v -2.312500 1.843750 -2.000000
v -0.687500 1.843750 -2.000000
vt 0.656250 0.250000
vt 0.859375 0.250000
vt 0.859375 0.242188
vt 0.656250 0.242188
f 1077/1077/1 1080/1080/1 1079/1079/1 1078/1078/1
v -2.312500 1.906250 -1.937500
v -0.687500 1.906250 -1.937500
v -0.687500 1.843750 -1.937500
v -2.312500 1.843750 -1.937500
vt 0.656250 0.250000
vt 0.859375 0.250000
vt 0.859375 0.242188
vt 0.656250 0.242188
f 1081/1081/2 1084/1084/2 1083/1083/2 1082/1082/2
v -2.312500 1.906250 -2.000000
v -0.687500 1.906250 -2.000000
v -0.687500 1.906250 -1.937500
v -2.312500 1.906250 -1.937500
vt 0.656250 0.250000
vt 0.859375 0.250000
vt 0.859375 0.242188
vt 0.656250 0.242188
f 1085/1085/5 1088/1088/5 1087/1087/5 1086/1086/5
v -2.312500 1.843750 -1.937500
v -0.687500 1.843750 -1.937500
v -0.687500 1.843750 -2.000000
v -2.312500 1.843750 -2.000000
vt 0.656250 0.250000
vt 0.859375 0.250000
vt 0.859375 0.242188
vt 0.656250 0.242188
f 1089/1089/6 1092/1092/6 1091/1091/6 1090/1090/6
o Laser
v -0.875000 2.187500 -2.125000
v -1.250000 2.187500 -2.125000
v -1.250000 1.687500 -2.125000
v -0.875000 1.687500 -2.125000
vt 0.757812 0.398438
vt 0.804688 0.398438
vt 0.804688 0.335938
vt 0.757812 0.335938
f 1093/1093/1 1096/1096/1 1095/1095/1 1094/1094/1
v -1.250000 2.187500 -1.750000
v -0.875000 2.187500 -1.750000
v -0.875000 1.687500 -1.750000
v -1.250000 1.687500 -1.750000
vt 0.757812 0.398438
vt 0.804688 0.398438
vt 0.804688 0.335938
vt 0.757812 0.335938
f 1097/1097/2 1100/1100/2 1099/1099/2 1098/1098/2
v -1.250000 2.187500 -2.125000
v -1.250000 2.187500 -1.750000
v -1.250000 1.687500 -1.750000
v -1.250000 1.687500 -2.125000
vt 0.757812 0.398438
vt 0.804688 0.398438
vt 0.804688 0.335938
vt 0.757812 0.335938
f 1101/1101/3 1104/1104/3 1103/1103/3 1102/1102/3
v -0.875000 2.187500 -1.750000
v -0.875000 2.187500 -2.125000
v -0.875000 1.687500 -2.125000
v -0.875000 1.687500 -1.750000
vt 0.757812 0.398438
vt 0.804688 0.398438
vt 0.804688 0.335938
vt 0.757812 0.335938
f 1105/1105/4 1108/1108/4 1107/1107/4 1106/1106/4
v -1.250000 2.187500 -2.125000
v -0.875000 2.187500 -2.125000
v -0.875000 2.187500 -1.750000
v -1.250000 2.187500 -1.750000
vt 0.218750 0.320312
vt 0.265625 0.320312
vt 0.265625 0.273438
vt 0.218750 0.273438
f 1109/1109/5 1112/1112/5 1111/1111/5 1110/1110/5
v -1.250000 1.687500 -1.750000
v -0.875000 1.687500 -1.750000
v -0.875000 1.687500 -2.125000
v -1.250000 1.687500 -2.125000
vt 0.265625 0.320312
vt 0.312500 0.320312
vt 0.312500 0.273438
vt 0.265625 0.273438
f 1113/1113/6 1116/1116/6 1115/1115/6 1114/1114/6
v -0.843750 1.968750 -2.156250
v -1.281250 1.968750 -2.156250
v -1.281250 1.875000 -2.156250
v -0.843750 1.875000 -2.156250
vt 0.570312 0.250000
vt 0.625000 0.250000
vt 0.625000 0.234375
vt 0.570312 0.234375
f 1117/1117/1 1120/1120/1 1119/1119/1 1118/1118/1
v -1.281250 1.968750 -1.718750
v -0.843750 1.968750 -1.718750
v -0.843750 1.875000 -1.718750
v -1.281250 1.875000 -1.718750
vt 0.570312 0.250000
vt 0.625000 0.250000
vt 0.625000 0.234375
vt 0.570312 0.234375
f 1121/1121/2 1124/1124/2 1123/1123/2 1122/1122/2
v -1.281250 1.968750 -2.156250
v -1.281250 1.968750 -1.718750
v -1.281250 1.875000 -1.718750
v -1.281250 1.875000 -2.156250
vt 0.570312 0.250000
vt 0.625000 0.250000
vt 0.625000 0.234375
vt 0.570312 0.234375
f 1125/1125/3 1128/1128/3 1127/1127/3 1126/1126/3
v -0.843750 1.968750 -1.718750
v -0.843750 1.968750 -2.156250
v -0.843750 1.875000 -2.156250
v -0.843750 1.875000 -1.718750
vt 0.570312 0.250000
vt 0.625000 0.250000
vt 0.625000 0.234375
vt 0.570312 0.234375
f 1129/1129/4 1132/1132/4 1131/1131/4 1130/1130/4
v -0.937500 1.687500 -2.062500
v -1.187500 1.687500 -2.062500
v -1.187500 1.593750 -2.062500
v -0.937500 1.593750 -2.062500
vt 0.625000 0.250000
vt 0.656250 0.250000
vt 0.656250 0.234375
vt 0.625000 0.234375
f 1133/1133/1 1136/1136/1 1135/1135/1 1134/1134/1
v -1.187500 1.687500 -1.812500
v -0.937500 1.687500 -1.812500
v -0.937500 1.593750 -1.812500
v -1.187500 1.593750 -1.812500
vt 0.625000 0.250000
vt 0.656250 0.250000
vt 0.656250 0.234375
vt 0.625000 0.234375
f 1137/1137/2 1140/1140/2 1139/1139/2 1138/1138/2
v -1.187500 1.687500 -2.062500
v -1.187500 1.687500 -1.812500
v -1.187500 1.593750 -1.812500
v -1.187500 1.593750 -2.062500
vt 0.625000 0.250000
vt 0.656250 0.250000
vt 0.656250 0.234375
vt 0.625000 0.234375
f 1141/1141/3 1144/1144/3 1143/1143/3 1142/1142/3
v -0.937500 1.687500 -1.812500
v -0.937500 1.687500 -2.062500
v -0.937500 1.593750 -2.062500
v -0.937500 1.593750 -1.812500
vt 0.625000 0.250000
vt 0.656250 0.250000
vt 0.656250 0.234375
vt 0.625000 0.234375
f 1145/1145/4 1148/1148/4 1147/1147/4 1146/1146/4
v -1.187500 1.593750 -1.812500
v -0.937500 1.593750 -1.812500
v -0.937500 1.593750 -2.062500
v -1.187500 1.593750 -2.062500
vt 0.453125 0.320312
vt 0.484375 0.320312
vt 0.484375 0.289062
vt 0.453125 0.289062
f 1149/1149/6 1152/1152/6 1151/1151/6 1150/1150/6
v -1.000000 1.593750 -2.000000
v -1.125000 1.593750 -2.000000
v -1.125000 1.562500 -2.000000
v -1.000000 1.562500 -2.000000
vt 0.984375 0.273438
vt 1.000000 0.273438
vt 1.000000 0.265625
vt 0.984375 0.265625
f 1153/1153/1 1156/1156/1 1155/1155/1 1154/1154/1
v -1.125000 1.593750 -1.875000
v -1.000000 1.593750 -1.875000
v -1.000000 1.562500 -1.875000
v -1.125000 1.562500 -1.875000
vt 0.984375 0.273438
vt 1.000000 0.273438
vt 1.000000 0.265625
vt 0.984375 0.265625
f 1157/1157/2 1160/1160/2 1159/1159/2 1158/1158/2
v -1.125000 1.593750 -2.000000
v -1.125000 1.593750 -1.875000
v -1.125000 1.562500 -1.875000
v -1.125000 1.562500 -2.000000
vt 0.984375 0.273438
vt 1.000000 0.273438
vt 1.000000 0.265625
vt 0.984375 0.265625
f 1161/1161/3 1164/1164/3 1163/1163/3 1162/1162/3
v -1.000000 1.593750 -1.875000
v -1.000000 1.593750 -2.000000
v -1.000000 1.562500 -2.000000
v -1.000000 1.562500 -1.875000
vt 0.984375 0.273438
vt 1.000000 0.273438
vt 1.000000 0.265625
vt 0.984375 0.265625
f 1165/1165/4 1168/1168/4 1167/1167/4 1166/1166/4
v -1.125000 1.562500 -1.875000
v -1.000000 1.562500 -1.875000
v -1.000000 1.562500 -2.000000
v -1.125000 1.562500 -2.000000
vt 0.976562 0.320312
vt 0.992188 0.320312
vt 0.992188 0.304688
vt 0.976562 0.304688
f 1169/1169/6 1172/1172/6 1171/1171/6 1170/1170/6
