# precision_assembler generated by machinegen.py
mtllib precision_assembler.mtl
v 3.000000 0.187500 0.000000
v 0.000000 0.187500 0.000000
v 0.000000 0.000000 0.000000
v 3.000000 0.000000 0.000000
v 0.000000 0.187500 4.000000
v 3.000000 0.187500 4.000000
v 3.000000 0.000000 4.000000
v 0.000000 0.000000 4.000000
v 0.000000 0.187500 0.000000
v 0.000000 0.187500 4.000000
v 0.000000 0.000000 4.000000
v 0.000000 0.000000 0.000000
v 3.000000 0.187500 4.000000
v 3.000000 0.187500 0.000000
v 3.000000 0.000000 0.000000
v 3.000000 0.000000 4.000000
v 0.000000 0.187500 0.000000
v 3.000000 0.187500 0.000000
v 3.000000 0.187500 4.000000
v 0.000000 0.187500 4.000000
v 0.187500 0.937500 0.000000
v 0.000000 0.937500 0.000000
v 0.000000 0.187500 0.000000
v 0.187500 0.187500 0.000000
v 0.000000 0.937500 0.187500
v 0.187500 0.937500 0.187500
v 0.187500 0.187500 0.187500
v 0.000000 0.187500 0.187500
v 0.000000 0.937500 0.000000
v 0.000000 0.937500 0.187500
v 0.000000 0.187500 0.187500
v 0.000000 0.187500 0.000000
v 0.187500 0.937500 0.187500
v 0.187500 0.937500 0.000000
v 0.187500 0.187500 0.000000
v 0.187500 0.187500 0.187500
v 0.000000 0.937500 0.000000
v 0.187500 0.937500 0.000000
v 0.187500 0.937500 0.187500
v 0.000000 0.937500 0.187500
v 0.000000 0.187500 0.187500
v 0.187500 0.187500 0.187500
v 0.187500 0.187500 0.000000
v 0.000000 0.187500 0.000000
v 3.000000 0.937500 0.000000
v 2.812500 0.937500 0.000000
v 2.812500 0.187500 0.000000
v 3.000000 0.187500 0.000000
v 2.812500 0.937500 0.187500
v 3.000000 0.937500 0.187500
v 3.000000 0.187500 0.187500
v 2.812500 0.187500 0.187500
v 2.812500 0.937500 0.000000
v 2.812500 0.937500 0.187500
v 2.812500 0.187500 0.187500
v 2.812500 0.187500 0.000000
v 3.000000 0.937500 0.187500
v 3.000000 0.937500 0.000000
v 3.000000 0.187500 0.000000
v 3.000000 0.187500 0.187500
v 2.812500 0.937500 0.000000
v 3.000000 0.937500 0.000000
v 3.000000 0.937500 0.187500
v 2.812500 0.937500 0.187500
v 2.812500 0.187500 0.187500
v 3.000000 0.187500 0.187500
v 3.000000 0.187500 0.000000
v 2.812500 0.187500 0.000000
v 0.187500 0.937500 3.812500
v 0.000000 0.937500 3.812500
v 0.000000 0.187500 3.812500
v 0.187500 0.187500 3.812500
v 0.000000 0.937500 4.000000
v 0.187500 0.937500 4.000000
v 0.187500 0.187500 4.000000
v 0.000000 0.187500 4.000000
v 0.000000 0.937500 3.812500
v 0.000000 0.937500 4.000000
v 0.000000 0.187500 4.000000
v 0.000000 0.187500 3.812500
v 0.187500 0.937500 4.000000
v 0.187500 0.937500 3.812500
v 0.187500 0.187500 3.812500
v 0.187500 0.187500 4.000000
v 0.000000 0.937500 3.812500
v 0.187500 0.937500 3.812500
v 0.187500 0.937500 4.000000
v 0.000000 0.937500 4.000000
v 0.000000 0.187500 4.000000
v 0.187500 0.187500 4.000000
v 0.187500 0.187500 3.812500
v 0.000000 0.187500 3.812500
v 3.000000 0.937500 3.812500
v 2.812500 0.937500 3.812500
v 2.812500 0.187500 3.812500
v 3.000000 0.187500 3.812500
v 2.812500 0.937500 4.000000
v 3.000000 0.937500 4.000000
v 3.000000 0.187500 4.000000
v 2.812500 0.187500 4.000000
v 2.812500 0.937500 3.812500
v 2.812500 0.937500 4.000000
v 2.812500 0.187500 4.000000
v 2.812500 0.187500 3.812500
v 3.000000 0.937500 4.000000
v 3.000000 0.937500 3.812500
v 3.000000 0.187500 3.812500
v 3.000000 0.187500 4.000000
v 2.812500 0.937500 3.812500
v 3.000000 0.937500 3.812500
v 3.000000 0.937500 4.000000
v 2.812500 0.937500 4.000000
v 2.812500 0.187500 4.000000
v 3.000000 0.187500 4.000000
v 3.000000 0.187500 3.812500
v 2.812500 0.187500 3.812500
v 2.937500 0.937500 0.062500
v 0.062500 0.937500 0.062500
v 0.062500 0.187500 0.062500
v 2.937500 0.187500 0.062500
v 0.062500 0.937500 0.062500
v 0.062500 0.937500 1.000000
v 0.062500 0.187500 1.000000
v 0.062500 0.187500 0.062500
v 2.937500 0.937500 1.000000
v 2.937500 0.937500 0.062500
v 2.937500 0.187500 0.062500
v 2.937500 0.187500 1.000000
v 0.062500 0.937500 3.937500
v 2.937500 0.937500 3.937500
v 2.937500 0.187500 3.937500
v 0.062500 0.187500 3.937500
v 0.062500 0.937500 1.000000
v 0.062500 0.937500 3.937500
v 0.062500 0.187500 3.937500
v 0.062500 0.187500 1.000000
v 2.937500 0.937500 3.937500
v 2.937500 0.937500 1.000000
v 2.937500 0.187500 1.000000
v 2.937500 0.187500 3.937500
v 0.062500 0.750000 1.312500
v 0.031250 0.750000 1.312500
v 0.031250 0.375000 1.312500
v 0.062500 0.375000 1.312500
v 0.031250 0.750000 1.812500
v 0.062500 0.750000 1.812500
v 0.062500 0.375000 1.812500
v 0.031250 0.375000 1.812500
v 0.031250 0.750000 1.312500
v 0.031250 0.750000 1.812500
v 0.031250 0.375000 1.812500
v 0.031250 0.375000 1.312500
v 0.031250 0.750000 1.312500
v 0.062500 0.750000 1.312500
v 0.062500 0.750000 1.812500
v 0.031250 0.750000 1.812500
v 0.031250 0.375000 1.812500
v 0.062500 0.375000 1.812500
v 0.062500 0.375000 1.312500
v 0.031250 0.375000 1.312500
v 0.062500 0.750000 2.312500
v 0.031250 0.750000 2.312500
v 0.031250 0.375000 2.312500
v 0.062500 0.375000 2.312500
v 0.031250 0.750000 2.812500
v 0.062500 0.750000 2.812500
v 0.062500 0.375000 2.812500
v 0.031250 0.375000 2.812500
v 0.031250 0.750000 2.312500
v 0.031250 0.750000 2.812500
v 0.031250 0.375000 2.812500
v 0.031250 0.375000 2.312500
v 0.031250 0.750000 2.312500
v 0.062500 0.750000 2.312500
v 0.062500 0.750000 2.812500
v 0.031250 0.750000 2.812500
v 0.031250 0.375000 2.812500
v 0.062500 0.375000 2.812500
v 0.062500 0.375000 2.312500
v 0.031250 0.375000 2.312500
v 0.062500 0.750000 3.312500
v 0.031250 0.750000 3.312500
v 0.031250 0.375000 3.312500
v 0.062500 0.375000 3.312500
v 0.031250 0.750000 3.812500
v 0.062500 0.750000 3.812500
v 0.062500 0.375000 3.812500
v 0.031250 0.375000 3.812500
v 0.031250 0.750000 3.312500
v 0.031250 0.750000 3.812500
v 0.031250 0.375000 3.812500
v 0.031250 0.375000 3.312500
v 0.031250 0.750000 3.312500
v 0.062500 0.750000 3.312500
v 0.062500 0.750000 3.812500
v 0.031250 0.750000 3.812500
v 0.031250 0.375000 3.812500
v 0.062500 0.375000 3.812500
v 0.062500 0.375000 3.312500
v 0.031250 0.375000 3.312500
v 1.687500 0.750000 3.937500
v 1.312500 0.750000 3.937500
v 1.312500 0.375000 3.937500
v 1.687500 0.375000 3.937500
v 1.312500 0.750000 4.000000
v 1.687500 0.750000 4.000000
v 1.687500 0.375000 4.000000
v 1.312500 0.375000 4.000000
v 1.312500 0.750000 3.937500
v 1.312500 0.750000 4.000000
v 1.312500 0.375000 4.000000
v 1.312500 0.375000 3.937500
v 1.687500 0.750000 4.000000
v 1.687500 0.750000 3.937500
v 1.687500 0.375000 3.937500
v 1.687500 0.375000 4.000000
v 1.312500 0.750000 3.937500
v 1.687500 0.750000 3.937500
v 1.687500 0.750000 4.000000
v 1.312500 0.750000 4.000000
v 1.312500 0.375000 4.000000
v 1.687500 0.375000 4.000000
v 1.687500 0.375000 3.937500
v 1.312500 0.375000 3.937500
v 3.000000 0.750000 1.812500
v 2.937500 0.750000 1.812500
v 2.937500 0.375000 1.812500
v 3.000000 0.375000 1.812500
v 2.937500 0.750000 2.187500
v 3.000000 0.750000 2.187500
v 3.000000 0.375000 2.187500
v 2.937500 0.375000 2.187500
v 2.937500 0.750000 1.812500
v 2.937500 0.750000 2.187500
v 2.937500 0.375000 2.187500
v 2.937500 0.375000 1.812500
v 3.000000 0.750000 2.187500
v 3.000000 0.750000 1.812500
v 3.000000 0.375000 1.812500
v 3.000000 0.375000 2.187500
v 2.937500 0.750000 1.812500
v 3.000000 0.750000 1.812500
v 3.000000 0.750000 2.187500
v 2.937500 0.750000 2.187500
v 2.937500 0.375000 2.187500
v 3.000000 0.375000 2.187500
v 3.000000 0.375000 1.812500
v 2.937500 0.375000 1.812500
v 3.000000 1.093750 0.000000
v 0.000000 1.093750 0.000000
v 0.000000 0.937500 0.000000
v 3.000000 0.937500 0.000000
v 0.000000 1.093750 4.000000
v 3.000000 1.093750 4.000000
v 3.000000 0.937500 4.000000
v 0.000000 0.937500 4.000000
v 0.000000 1.093750 0.000000
v 0.000000 1.093750 4.000000
v 0.000000 0.937500 4.000000
v 0.000000 0.937500 0.000000
v 3.000000 1.093750 4.000000
v 3.000000 1.093750 0.000000
v 3.000000 0.937500 0.000000
v 3.000000 0.937500 4.000000
v 0.000000 1.093750 0.000000
v 3.000000 1.093750 0.000000
v 3.000000 1.093750 4.000000
v 0.000000 1.093750 4.000000
v 0.000000 0.937500 4.000000
v 3.000000 0.937500 4.000000
v 3.000000 0.937500 0.000000
v 0.000000 0.937500 0.000000
v 1.375000 1.125000 0.125000
v 0.562500 1.125000 0.125000
v 0.562500 1.093750 0.125000
v 1.375000 1.093750 0.125000
v 0.562500 1.125000 3.875000
v 1.375000 1.125000 3.875000
v 1.375000 1.093750 3.875000
v 0.562500 1.093750 3.875000
v 0.562500 1.125000 0.125000
v 0.562500 1.125000 3.875000
v 0.562500 1.093750 3.875000
v 0.562500 1.093750 0.125000
v 1.375000 1.125000 3.875000
v 1.375000 1.125000 0.125000
v 1.375000 1.093750 0.125000
v 1.375000 1.093750 3.875000
v 0.562500 1.125000 0.125000
v 1.375000 1.125000 0.125000
v 1.375000 1.125000 3.875000
v 0.562500 1.125000 3.875000
v 0.562500 1.218750 0.125000
v 0.468750 1.218750 0.125000
v 0.468750 1.093750 0.125000
v 0.562500 1.093750 0.125000
v 0.468750 1.218750 3.875000
v 0.562500 1.218750 3.875000
v 0.562500 1.093750 3.875000
v 0.468750 1.093750 3.875000
v 0.468750 1.218750 0.125000
v 0.468750 1.218750 3.875000
v 0.468750 1.093750 3.875000
v 0.468750 1.093750 0.125000
v 0.562500 1.218750 3.875000
v 0.562500 1.218750 0.125000
v 0.562500 1.093750 0.125000
v 0.562500 1.093750 3.875000
v 0.468750 1.218750 0.125000
v 0.562500 1.218750 0.125000
v 0.562500 1.218750 3.875000
v 0.468750 1.218750 3.875000
v 1.468750 1.218750 0.125000
v 1.375000 1.218750 0.125000
v 1.375000 1.093750 0.125000
v 1.468750 1.093750 0.125000
v 1.375000 1.218750 3.875000
v 1.468750 1.218750 3.875000
v 1.468750 1.093750 3.875000
v 1.375000 1.093750 3.875000
v 1.375000 1.218750 0.125000
v 1.375000 1.218750 3.875000
v 1.375000 1.093750 3.875000
v 1.375000 1.093750 0.125000
v 1.468750 1.218750 3.875000
v 1.468750 1.218750 0.125000
v 1.468750 1.093750 0.125000
v 1.468750 1.093750 3.875000
v 1.375000 1.218750 0.125000
v 1.468750 1.218750 0.125000
v 1.468750 1.218750 3.875000
v 1.375000 1.218750 3.875000
v 0.187500 2.750000 0.000000
v 0.000000 2.750000 0.000000
v 0.000000 1.093750 0.000000
v 0.187500 1.093750 0.000000
v 0.000000 2.750000 0.187500
v 0.187500 2.750000 0.187500
v 0.187500 1.093750 0.187500
v 0.000000 1.093750 0.187500
v 0.000000 2.750000 0.000000
v 0.000000 2.750000 0.187500
v 0.000000 1.093750 0.187500
v 0.000000 1.093750 0.000000
v 0.187500 2.750000 0.187500
v 0.187500 2.750000 0.000000
v 0.187500 1.093750 0.000000
v 0.187500 1.093750 0.187500
v 0.000000 2.750000 0.000000
v 0.187500 2.750000 0.000000
v 0.187500 2.750000 0.187500
v 0.000000 2.750000 0.187500
v 0.000000 1.093750 0.187500
v 0.187500 1.093750 0.187500
v 0.187500 1.093750 0.000000
v 0.000000 1.093750 0.000000
v 3.000000 2.750000 0.000000
v 2.812500 2.750000 0.000000
v 2.812500 1.093750 0.000000
v 3.000000 1.093750 0.000000
v 2.812500 2.750000 0.187500
v 3.000000 2.750000 0.187500
v 3.000000 1.093750 0.187500
v 2.812500 1.093750 0.187500
v 2.812500 2.750000 0.000000
v 2.812500 2.750000 0.187500
v 2.812500 1.093750 0.187500
v 2.812500 1.093750 0.000000
v 3.000000 2.750000 0.187500
v 3.000000 2.750000 0.000000
v 3.000000 1.093750 0.000000
v 3.000000 1.093750 0.187500
v 2.812500 2.750000 0.000000
v 3.000000 2.750000 0.000000
v 3.000000 2.750000 0.187500
v 2.812500 2.750000 0.187500
v 2.812500 1.093750 0.187500
v 3.000000 1.093750 0.187500
v 3.000000 1.093750 0.000000
v 2.812500 1.093750 0.000000
v 0.187500 2.750000 3.812500
v 0.000000 2.750000 3.812500
v 0.000000 1.093750 3.812500
v 0.187500 1.093750 3.812500
v 0.000000 2.750000 4.000000
v 0.187500 2.750000 4.000000
v 0.187500 1.093750 4.000000
v 0.000000 1.093750 4.000000
v 0.000000 2.750000 3.812500
v 0.000000 2.750000 4.000000
v 0.000000 1.093750 4.000000
v 0.000000 1.093750 3.812500
v 0.187500 2.750000 4.000000
v 0.187500 2.750000 3.812500
v 0.187500 1.093750 3.812500
v 0.187500 1.093750 4.000000
v 0.000000 2.750000 3.812500
v 0.187500 2.750000 3.812500
v 0.187500 2.750000 4.000000
v 0.000000 2.750000 4.000000
v 0.000000 1.093750 4.000000
v 0.187500 1.093750 4.000000
v 0.187500 1.093750 3.812500
v 0.000000 1.093750 3.812500
v 3.000000 2.750000 3.812500
v 2.812500 2.750000 3.812500
v 2.812500 1.093750 3.812500
v 3.000000 1.093750 3.812500
v 2.812500 2.750000 4.000000
v 3.000000 2.750000 4.000000
v 3.000000 1.093750 4.000000
v 2.812500 1.093750 4.000000
v 2.812500 2.750000 3.812500
v 2.812500 2.750000 4.000000
v 2.812500 1.093750 4.000000
v 2.812500 1.093750 3.812500
v 3.000000 2.750000 4.000000
v 3.000000 2.750000 3.812500
v 3.000000 1.093750 3.812500
v 3.000000 1.093750 4.000000
v 2.812500 2.750000 3.812500
v 3.000000 2.750000 3.812500
v 3.000000 2.750000 4.000000
v 2.812500 2.750000 4.000000
v 2.812500 1.093750 4.000000
v 3.000000 1.093750 4.000000
v 3.000000 1.093750 3.812500
v 2.812500 1.093750 3.812500
v 2.062500 2.750000 0.000000
v 1.875000 2.750000 0.000000
v 1.875000 1.093750 0.000000
v 2.062500 1.093750 0.000000
v 1.875000 2.750000 0.187500
v 2.062500 2.750000 0.187500
v 2.062500 1.093750 0.187500
v 1.875000 1.093750 0.187500
v 1.875000 2.750000 0.000000
v 1.875000 2.750000 0.187500
v 1.875000 1.093750 0.187500
v 1.875000 1.093750 0.000000
v 2.062500 2.750000 0.187500
v 2.062500 2.750000 0.000000
v 2.062500 1.093750 0.000000
v 2.062500 1.093750 0.187500
v 1.875000 2.750000 0.000000
v 2.062500 2.750000 0.000000
v 2.062500 2.750000 0.187500
v 1.875000 2.750000 0.187500
v 1.875000 1.093750 0.187500
v 2.062500 1.093750 0.187500
v 2.062500 1.093750 0.000000
v 1.875000 1.093750 0.000000
v 2.062500 2.750000 3.812500
v 1.875000 2.750000 3.812500
v 1.875000 1.093750 3.812500
v 2.062500 1.093750 3.812500
v 1.875000 2.750000 4.000000
v 2.062500 2.750000 4.000000
v 2.062500 1.093750 4.000000
v 1.875000 1.093750 4.000000
v 1.875000 2.750000 3.812500
v 1.875000 2.750000 4.000000
v 1.875000 1.093750 4.000000
v 1.875000 1.093750 3.812500
v 2.062500 2.750000 4.000000
v 2.062500 2.750000 3.812500
v 2.062500 1.093750 3.812500
v 2.062500 1.093750 4.000000
v 1.875000 2.750000 3.812500
v 2.062500 2.750000 3.812500
v 2.062500 2.750000 4.000000
v 1.875000 2.750000 4.000000
v 1.875000 1.093750 4.000000
v 2.062500 1.093750 4.000000
v 2.062500 1.093750 3.812500
v 1.875000 1.093750 3.812500
v 3.000000 3.000000 0.000000
v 0.000000 3.000000 0.000000
v 0.000000 2.750000 0.000000
v 3.000000 2.750000 0.000000
v 0.000000 3.000000 4.000000
v 3.000000 3.000000 4.000000
v 3.000000 2.750000 4.000000
v 0.000000 2.750000 4.000000
v 0.000000 3.000000 0.000000
v 0.000000 3.000000 4.000000
v 0.000000 2.750000 4.000000
v 0.000000 2.750000 0.000000
v 3.000000 3.000000 4.000000
v 3.000000 3.000000 0.000000
v 3.000000 2.750000 0.000000
v 3.000000 2.750000 4.000000
v 0.000000 3.000000 0.000000
v 3.000000 3.000000 0.000000
v 3.000000 3.000000 4.000000
v 0.000000 3.000000 4.000000
v 0.000000 2.750000 4.000000
v 3.000000 2.750000 4.000000
v 3.000000 2.750000 0.000000
v 0.000000 2.750000 0.000000
v 2.250000 3.000000 0.375000
v 2.750000 3.000000 0.375000
v 2.750000 3.000000 3.625000
v 2.250000 3.000000 3.625000
v 0.000000 2.937500 0.375000
v -0.031250 2.937500 0.375000
v -0.031250 2.812500 0.375000
v 0.000000 2.812500 0.375000
v -0.031250 2.937500 0.500000
v 0.000000 2.937500 0.500000
v 0.000000 2.812500 0.500000
v -0.031250 2.812500 0.500000
v -0.031250 2.937500 0.375000
v -0.031250 2.937500 0.500000
v -0.031250 2.812500 0.500000
v -0.031250 2.812500 0.375000
v -0.031250 2.937500 0.375000
v 0.000000 2.937500 0.375000
v 0.000000 2.937500 0.500000
v -0.031250 2.937500 0.500000
v -0.031250 2.812500 0.500000
v 0.000000 2.812500 0.500000
v 0.000000 2.812500 0.375000
v -0.031250 2.812500 0.375000
v 0.062500 2.750000 0.187500
v 0.062500 2.750000 3.812500
v 0.062500 1.093750 3.812500
v 0.062500 1.093750 0.187500
v 0.093750 2.750000 3.812500
v 0.093750 2.750000 0.187500
v 0.093750 1.093750 0.187500
v 0.093750 1.093750 3.812500
v 1.875000 2.750000 0.062500
v 0.187500 2.750000 0.062500
v 0.187500 1.093750 0.062500
v 1.875000 1.093750 0.062500
v 0.187500 2.750000 0.093750
v 1.875000 2.750000 0.093750
v 1.875000 1.093750 0.093750
v 0.187500 1.093750 0.093750
v 1.875000 2.750000 3.906250
v 0.187500 2.750000 3.906250
v 0.187500 1.093750 3.906250
v 1.875000 1.093750 3.906250
v 0.187500 2.750000 3.937500
v 1.875000 2.750000 3.937500
v 1.875000 1.093750 3.937500
v 0.187500 1.093750 3.937500
v 2.937500 2.750000 0.062500
v 1.937500 2.750000 0.062500
v 1.937500 1.093750 0.062500
v 2.937500 1.093750 0.062500
v 1.937500 2.750000 3.937500
v 2.937500 2.750000 3.937500
v 2.937500 1.093750 3.937500
v 1.937500 1.093750 3.937500
v 1.937500 2.750000 0.062500
v 1.937500 2.750000 3.937500
v 1.937500 1.093750 3.937500
v 1.937500 1.093750 0.062500
v 2.937500 2.750000 3.937500
v 2.937500 2.750000 0.062500
v 2.937500 1.093750 0.062500
v 2.937500 1.093750 3.937500
v 2.968750 2.375000 0.375000
v 2.937500 2.375000 0.375000
v 2.937500 1.375000 0.375000
v 2.968750 1.375000 0.375000
v 2.937500 2.375000 1.250000
v 2.968750 2.375000 1.250000
v 2.968750 1.375000 1.250000
v 2.937500 1.375000 1.250000
v 2.968750 2.375000 1.250000
v 2.968750 2.375000 0.375000
v 2.968750 1.375000 0.375000
v 2.968750 1.375000 1.250000
v 2.937500 2.375000 0.375000
v 2.968750 2.375000 0.375000
v 2.968750 2.375000 1.250000
v 2.937500 2.375000 1.250000
v 2.937500 1.375000 1.250000
v 2.968750 1.375000 1.250000
v 2.968750 1.375000 0.375000
v 2.937500 1.375000 0.375000
v 2.968750 2.375000 1.562500
v 2.937500 2.375000 1.562500
v 2.937500 1.375000 1.562500
v 2.968750 1.375000 1.562500
v 2.937500 2.375000 2.437500
v 2.968750 2.375000 2.437500
v 2.968750 1.375000 2.437500
v 2.937500 1.375000 2.437500
v 2.968750 2.375000 2.437500
v 2.968750 2.375000 1.562500
v 2.968750 1.375000 1.562500
v 2.968750 1.375000 2.437500
v 2.937500 2.375000 1.562500
v 2.968750 2.375000 1.562500
v 2.968750 2.375000 2.437500
v 2.937500 2.375000 2.437500
v 2.937500 1.375000 2.437500
v 2.968750 1.375000 2.437500
v 2.968750 1.375000 1.562500
v 2.937500 1.375000 1.562500
v 2.968750 2.375000 2.750000
v 2.937500 2.375000 2.750000
v 2.937500 1.375000 2.750000
v 2.968750 1.375000 2.750000
v 2.937500 2.375000 3.625000
v 2.968750 2.375000 3.625000
v 2.968750 1.375000 3.625000
v 2.937500 1.375000 3.625000
v 2.968750 2.375000 3.625000
v 2.968750 2.375000 2.750000
v 2.968750 1.375000 2.750000
v 2.968750 1.375000 3.625000
v 2.937500 2.375000 2.750000
v 2.968750 2.375000 2.750000
v 2.968750 2.375000 3.625000
v 2.937500 2.375000 3.625000
v 2.937500 1.375000 3.625000
v 2.968750 1.375000 3.625000
v 2.968750 1.375000 2.750000
v 2.937500 1.375000 2.750000
v 2.812500 2.562500 0.031250
v 2.062500 2.562500 0.031250
v 2.062500 2.437500 0.031250
v 2.812500 2.437500 0.031250
v 2.062500 2.562500 3.968750
v 2.812500 2.562500 3.968750
v 2.812500 2.437500 3.968750
v 2.062500 2.437500 3.968750
v 2.812500 2.562500 3.968750
v 2.812500 2.562500 0.031250
v 2.812500 2.437500 0.031250
v 2.812500 2.437500 3.968750
v 1.937500 2.375000 0.375000
v 1.906250 2.375000 0.375000
v 1.906250 1.875000 0.375000
v 1.937500 1.875000 0.375000
v 1.906250 2.375000 0.875000
v 1.937500 2.375000 0.875000
v 1.937500 1.875000 0.875000
v 1.906250 1.875000 0.875000
v 1.906250 2.375000 0.375000
v 1.906250 2.375000 0.875000
v 1.906250 1.875000 0.875000
v 1.906250 1.875000 0.375000
v 1.906250 2.375000 0.375000
v 1.937500 2.375000 0.375000
v 1.937500 2.375000 0.875000
v 1.906250 2.375000 0.875000
v 1.906250 1.875000 0.875000
v 1.937500 1.875000 0.875000
v 1.937500 1.875000 0.375000
v 1.906250 1.875000 0.375000
v 1.250000 2.750000 0.187500
v 0.687500 2.750000 0.187500
v 0.687500 2.562500 0.187500
v 1.250000 2.562500 0.187500
v 0.687500 2.750000 3.812500
v 1.250000 2.750000 3.812500
v 1.250000 2.562500 3.812500
v 0.687500 2.562500 3.812500
v 0.687500 2.750000 0.187500
v 0.687500 2.750000 3.812500
v 0.687500 2.562500 3.812500
v 0.687500 2.562500 0.187500
v 1.250000 2.750000 3.812500
v 1.250000 2.750000 0.187500
v 1.250000 2.562500 0.187500
v 1.250000 2.562500 3.812500
v 0.687500 2.562500 3.812500
v 1.250000 2.562500 3.812500
v 1.250000 2.562500 0.187500
v 0.687500 2.562500 0.187500
v 1.125000 2.562500 1.187500
v 0.812500 2.562500 1.187500
v 0.812500 2.125000 1.187500
v 1.125000 2.125000 1.187500
v 0.812500 2.562500 1.500000
v 1.125000 2.562500 1.500000
v 1.125000 2.125000 1.500000
v 0.812500 2.125000 1.500000
v 0.812500 2.562500 1.187500
v 0.812500 2.562500 1.500000
v 0.812500 2.125000 1.500000
v 0.812500 2.125000 1.187500
v 1.125000 2.562500 1.500000
v 1.125000 2.562500 1.187500
v 1.125000 2.125000 1.187500
v 1.125000 2.125000 1.500000
v 0.812500 2.125000 1.500000
v 1.125000 2.125000 1.500000
v 1.125000 2.125000 1.187500
v 0.812500 2.125000 1.187500
v 1.125000 2.562500 2.062500
v 0.812500 2.562500 2.062500
v 0.812500 2.125000 2.062500
v 1.125000 2.125000 2.062500
v 0.812500 2.562500 2.375000
v 1.125000 2.562500 2.375000
v 1.125000 2.125000 2.375000
v 0.812500 2.125000 2.375000
v 0.812500 2.562500 2.062500
v 0.812500 2.562500 2.375000
v 0.812500 2.125000 2.375000
v 0.812500 2.125000 2.062500
v 1.125000 2.562500 2.375000
v 1.125000 2.562500 2.062500
v 1.125000 2.125000 2.062500
v 1.125000 2.125000 2.375000
v 0.812500 2.125000 2.375000
v 1.125000 2.125000 2.375000
v 1.125000 2.125000 2.062500
v 0.812500 2.125000 2.062500
v 1.625000 1.375000 2.843750
v 1.468750 1.375000 2.843750
v 1.468750 1.093750 2.843750
v 1.625000 1.093750 2.843750
v 1.468750 1.375000 3.000000
v 1.625000 1.375000 3.000000
v 1.625000 1.093750 3.000000
v 1.468750 1.093750 3.000000
v 1.468750 1.375000 2.843750
v 1.468750 1.375000 3.000000
v 1.468750 1.093750 3.000000
v 1.468750 1.093750 2.843750
v 1.625000 1.375000 3.000000
v 1.625000 1.375000 2.843750
v 1.625000 1.093750 2.843750
v 1.625000 1.093750 3.000000
v 1.468750 1.375000 2.843750
v 1.625000 1.375000 2.843750
v 1.625000 1.375000 3.000000
v 1.468750 1.375000 3.000000
v 1.312500 1.218750 0.343750
v 0.593750 1.218750 0.343750
v 0.593750 1.125000 0.343750
v 1.312500 1.125000 0.343750
v 0.593750 1.218750 1.062500
v 1.312500 1.218750 1.062500
v 1.312500 1.125000 1.062500
v 0.593750 1.125000 1.062500
v 0.593750 1.218750 0.343750
v 0.593750 1.218750 1.062500
v 0.593750 1.125000 1.062500
v 0.593750 1.125000 0.343750
v 1.312500 1.218750 1.062500
v 1.312500 1.218750 0.343750
v 1.312500 1.125000 0.343750
v 1.312500 1.125000 1.062500
v 0.593750 1.218750 0.343750
v 1.312500 1.218750 0.343750
v 1.312500 1.218750 1.062500
v 0.593750 1.218750 1.062500
v 1.250000 1.625000 1.062500
v 0.687500 1.625000 1.062500
v 0.687500 1.437500 1.062500
v 1.250000 1.437500 1.062500
v 0.687500 1.625000 1.625000
v 1.250000 1.625000 1.625000
v 1.250000 1.437500 1.625000
v 0.687500 1.437500 1.625000
v 0.687500 1.625000 1.062500
v 0.687500 1.625000 1.625000
v 0.687500 1.437500 1.625000
v 0.687500 1.437500 1.062500
v 1.250000 1.625000 1.625000
v 1.250000 1.625000 1.062500
v 1.250000 1.437500 1.062500
v 1.250000 1.437500 1.625000
v 0.687500 1.625000 1.062500
v 1.250000 1.625000 1.062500
v 1.250000 1.625000 1.625000
v 0.687500 1.625000 1.625000
v 0.687500 1.437500 1.625000
v 1.250000 1.437500 1.625000
v 1.250000 1.437500 1.062500
v 0.687500 1.437500 1.062500
v 1.187500 2.000000 1.125000
v 0.750000 2.000000 1.125000
v 0.750000 1.625000 1.125000
v 1.187500 1.625000 1.125000
v 0.750000 2.000000 1.562500
v 1.187500 2.000000 1.562500
v 1.187500 1.625000 1.562500
v 0.750000 1.625000 1.562500
v 0.750000 2.000000 1.125000
v 0.750000 2.000000 1.562500
v 0.750000 1.625000 1.562500
v 0.750000 1.625000 1.125000
v 1.187500 2.000000 1.562500
v 1.187500 2.000000 1.125000
v 1.187500 1.625000 1.125000
v 1.187500 1.625000 1.562500
v 0.750000 2.000000 1.125000
v 1.187500 2.000000 1.125000
v 1.187500 2.000000 1.562500
v 0.750000 2.000000 1.562500
v 1.062500 2.406250 1.250000
v 0.875000 2.406250 1.250000
v 0.875000 2.000000 1.250000
v 1.062500 2.000000 1.250000
v 0.875000 2.406250 1.437500
v 1.062500 2.406250 1.437500
v 1.062500 2.000000 1.437500
v 0.875000 2.000000 1.437500
v 0.875000 2.406250 1.250000
v 0.875000 2.406250 1.437500
v 0.875000 2.000000 1.437500
v 0.875000 2.000000 1.250000
v 1.062500 2.406250 1.437500
v 1.062500 2.406250 1.250000
v 1.062500 2.000000 1.250000
v 1.062500 2.000000 1.437500
v 0.875000 2.406250 1.250000
v 1.062500 2.406250 1.250000
v 1.062500 2.406250 1.437500
v 0.875000 2.406250 1.437500
v 1.000000 1.625000 2.187500
v 0.937500 1.625000 2.187500
v 0.937500 1.468750 2.187500
v 1.000000 1.468750 2.187500
v 0.937500 1.625000 2.250000
v 1.000000 1.625000 2.250000
v 1.000000 1.468750 2.250000
v 0.937500 1.468750 2.250000
v 0.937500 1.625000 2.187500
v 0.937500 1.625000 2.250000
v 0.937500 1.468750 2.250000
v 0.937500 1.468750 2.187500
v 1.000000 1.625000 2.250000
v 1.000000 1.625000 2.187500
v 1.000000 1.468750 2.187500
v 1.000000 1.468750 2.250000
v 0.937500 1.468750 2.250000
v 1.000000 1.468750 2.250000
v 1.000000 1.468750 2.187500
v 0.937500 1.468750 2.187500
v 1.031250 1.937500 2.093750
v 0.906250 1.937500 2.093750
v 0.906250 1.625000 2.093750
v 1.031250 1.625000 2.093750
v 0.906250 1.937500 2.343750
v 1.031250 1.937500 2.343750
v 1.031250 1.625000 2.343750
v 0.906250 1.625000 2.343750
v 0.906250 1.937500 2.093750
v 0.906250 1.937500 2.343750
v 0.906250 1.625000 2.343750
v 0.906250 1.625000 2.093750
v 1.031250 1.937500 2.343750
v 1.031250 1.937500 2.093750
v 1.031250 1.625000 2.093750
v 1.031250 1.625000 2.343750
v 0.906250 1.937500 2.093750
v 1.031250 1.937500 2.093750
v 1.031250 1.937500 2.343750
v 0.906250 1.937500 2.343750
v 0.906250 1.625000 2.343750
v 1.031250 1.625000 2.343750
v 1.031250 1.625000 2.093750
v 0.906250 1.625000 2.093750
v 1.031250 2.406250 2.156250
v 0.906250 2.406250 2.156250
v 0.906250 1.937500 2.156250
v 1.031250 1.937500 2.156250
v 0.906250 2.406250 2.281250
v 1.031250 2.406250 2.281250
v 1.031250 1.937500 2.281250
v 0.906250 1.937500 2.281250
v 0.906250 2.406250 2.156250
v 0.906250 2.406250 2.281250
v 0.906250 1.937500 2.281250
v 0.906250 1.937500 2.156250
v 1.031250 2.406250 2.281250
v 1.031250 2.406250 2.156250
v 1.031250 1.937500 2.156250
v 1.031250 1.937500 2.281250
v 0.906250 2.406250 2.156250
v 1.031250 2.406250 2.156250
v 1.031250 2.406250 2.281250
v 0.906250 2.406250 2.281250
v 1.643750 1.562500 2.812500
v 1.456250 1.562500 2.812500
v 1.456250 1.375000 2.812500
v 1.643750 1.375000 2.812500
v 1.456250 1.562500 3.031250
v 1.643750 1.562500 3.031250
v 1.643750 1.375000 3.031250
v 1.456250 1.375000 3.031250
v 1.456250 1.562500 2.812500
v 1.456250 1.562500 3.031250
v 1.456250 1.375000 3.031250
v 1.456250 1.375000 2.812500
v 1.643750 1.562500 3.031250
v 1.643750 1.562500 2.812500
v 1.643750 1.375000 2.812500
v 1.643750 1.375000 3.031250
v 1.456250 1.562500 2.812500
v 1.643750 1.562500 2.812500
v 1.643750 1.562500 3.031250
v 1.456250 1.562500 3.031250
v 1.456250 1.375000 3.031250
v 1.643750 1.375000 3.031250
v 1.643750 1.375000 2.812500
v 1.456250 1.375000 2.812500
v 1.593750 1.906250 2.875000
v 1.468750 1.906250 2.875000
v 1.468750 1.562500 2.875000
v 1.593750 1.562500 2.875000
v 1.468750 1.906250 2.968750
v 1.593750 1.906250 2.968750
v 1.593750 1.562500 2.968750
v 1.468750 1.562500 2.968750
v 1.468750 1.906250 2.875000
v 1.468750 1.906250 2.968750
v 1.468750 1.562500 2.968750
v 1.468750 1.562500 2.875000
v 1.593750 1.906250 2.968750
v 1.593750 1.906250 2.875000
v 1.593750 1.562500 2.875000
v 1.593750 1.562500 2.968750
v 1.593750 2.093750 2.687500
v 1.375000 2.093750 2.687500
v 1.375000 1.906250 2.687500
v 1.593750 1.906250 2.687500
v 1.375000 2.093750 3.125000
v 1.593750 2.093750 3.125000
v 1.593750 1.906250 3.125000
v 1.375000 1.906250 3.125000
v 1.375000 2.093750 2.687500
v 1.375000 2.093750 3.125000
v 1.375000 1.906250 3.125000
v 1.375000 1.906250 2.687500
v 1.593750 2.093750 3.125000
v 1.593750 2.093750 2.687500
v 1.593750 1.906250 2.687500
v 1.593750 1.906250 3.125000
v 1.375000 2.093750 2.687500
v 1.593750 2.093750 2.687500
v 1.593750 2.093750 3.125000
v 1.375000 2.093750 3.125000
v 1.375000 1.906250 3.125000
v 1.593750 1.906250 3.125000
v 1.593750 1.906250 2.687500
v 1.375000 1.906250 2.687500
v 2.250000 3.004000 0.375000
v 2.250000 3.004000 3.625000
v 2.750000 3.004000 3.625000
v 2.750000 3.004000 0.375000
vt 0.226562 0.164062
vt 0.414062 0.164062
vt 0.414062 0.140625
vt 0.226562 0.140625
vt 0.226562 0.164062
vt 0.414062 0.164062
vt 0.414062 0.140625
vt 0.226562 0.140625
vt 0.187500 0.195312
vt 0.437500 0.195312
vt 0.437500 0.171875
vt 0.187500 0.171875
vt 0.187500 0.195312
vt 0.437500 0.195312
vt 0.437500 0.171875
vt 0.187500 0.171875
vt 0.000000 1.000000
vt 0.187500 1.000000
vt 0.187500 0.500000
vt 0.000000 0.500000
vt 0.363281 0.289062
vt 0.375000 0.289062
vt 0.375000 0.195312
vt 0.363281 0.195312
vt 0.363281 0.289062
vt 0.375000 0.289062
vt 0.375000 0.195312
vt 0.363281 0.195312
vt 0.363281 0.289062
vt 0.375000 0.289062
vt 0.375000 0.195312
vt 0.363281 0.195312
vt 0.363281 0.289062
vt 0.375000 0.289062
vt 0.375000 0.195312
vt 0.363281 0.195312
vt 0.695312 0.164062
vt 0.707031 0.164062
vt 0.707031 0.140625
vt 0.695312 0.140625
vt 0.695312 0.164062
vt 0.707031 0.164062
vt 0.707031 0.140625
vt 0.695312 0.140625
vt 0.363281 0.289062
vt 0.375000 0.289062
vt 0.375000 0.195312
vt 0.363281 0.195312
vt 0.363281 0.289062
vt 0.375000 0.289062
vt 0.375000 0.195312
vt 0.363281 0.195312
vt 0.363281 0.289062
vt 0.375000 0.289062
vt 0.375000 0.195312
vt 0.363281 0.195312
vt 0.363281 0.289062
vt 0.375000 0.289062
vt 0.375000 0.195312
vt 0.363281 0.195312
vt 0.695312 0.164062
vt 0.707031 0.164062
vt 0.707031 0.140625
vt 0.695312 0.140625
vt 0.695312 0.164062
vt 0.707031 0.164062
vt 0.707031 0.140625
vt 0.695312 0.140625
vt 0.363281 0.289062
vt 0.375000 0.289062
vt 0.375000 0.195312
vt 0.363281 0.195312
vt 0.363281 0.289062
vt 0.375000 0.289062
vt 0.375000 0.195312
vt 0.363281 0.195312
vt 0.363281 0.289062
vt 0.375000 0.289062
vt 0.375000 0.195312
vt 0.363281 0.195312
vt 0.363281 0.289062
vt 0.375000 0.289062
vt 0.375000 0.195312
vt 0.363281 0.195312
vt 0.695312 0.164062
vt 0.707031 0.164062
vt 0.707031 0.140625
vt 0.695312 0.140625
vt 0.695312 0.164062
vt 0.707031 0.164062
vt 0.707031 0.140625
vt 0.695312 0.140625
vt 0.363281 0.289062
vt 0.375000 0.289062
vt 0.375000 0.195312
vt 0.363281 0.195312
vt 0.363281 0.289062
vt 0.375000 0.289062
vt 0.375000 0.195312
vt 0.363281 0.195312
vt 0.363281 0.289062
vt 0.375000 0.289062
vt 0.375000 0.195312
vt 0.363281 0.195312
vt 0.363281 0.289062
vt 0.375000 0.289062
vt 0.375000 0.195312
vt 0.363281 0.195312
vt 0.695312 0.164062
vt 0.707031 0.164062
vt 0.707031 0.140625
vt 0.695312 0.140625
vt 0.695312 0.164062
vt 0.707031 0.164062
vt 0.707031 0.140625
vt 0.695312 0.140625
vt 0.183594 0.289062
vt 0.363281 0.289062
vt 0.363281 0.195312
vt 0.183594 0.195312
vt 0.828125 0.500000
vt 0.886719 0.500000
vt 0.886719 0.406250
vt 0.828125 0.406250
vt 0.886719 0.500000
vt 0.945312 0.500000
vt 0.945312 0.406250
vt 0.886719 0.406250
vt 0.183594 0.289062
vt 0.363281 0.289062
vt 0.363281 0.195312
vt 0.183594 0.195312
vt 0.000000 0.289062
vt 0.183594 0.289062
vt 0.183594 0.195312
vt 0.000000 0.195312
vt 0.000000 0.289062
vt 0.183594 0.289062
vt 0.183594 0.195312
vt 0.000000 0.195312
vt 0.660156 0.289062
vt 0.664062 0.289062
vt 0.664062 0.242188
vt 0.660156 0.242188
vt 0.660156 0.289062
vt 0.664062 0.289062
vt 0.664062 0.242188
vt 0.660156 0.242188
vt 0.570312 0.289062
vt 0.601562 0.289062
vt 0.601562 0.242188
vt 0.570312 0.242188
vt 0.476562 0.289062
vt 0.480469 0.289062
vt 0.480469 0.226562
vt 0.476562 0.226562
vt 0.476562 0.289062
vt 0.480469 0.289062
vt 0.480469 0.226562
vt 0.476562 0.226562
vt 0.660156 0.289062
vt 0.664062 0.289062
vt 0.664062 0.242188
vt 0.660156 0.242188
vt 0.660156 0.289062
vt 0.664062 0.289062
vt 0.664062 0.242188
vt 0.660156 0.242188
vt 0.570312 0.289062
vt 0.601562 0.289062
vt 0.601562 0.242188
vt 0.570312 0.242188
vt 0.476562 0.289062
vt 0.480469 0.289062
vt 0.480469 0.226562
vt 0.476562 0.226562
vt 0.476562 0.289062
vt 0.480469 0.289062
vt 0.480469 0.226562
vt 0.476562 0.226562
vt 0.660156 0.289062
vt 0.664062 0.289062
vt 0.664062 0.242188
vt 0.660156 0.242188
vt 0.660156 0.289062
vt 0.664062 0.289062
vt 0.664062 0.242188
vt 0.660156 0.242188
vt 0.570312 0.289062
vt 0.601562 0.289062
vt 0.601562 0.242188
vt 0.570312 0.242188
vt 0.476562 0.289062
vt 0.480469 0.289062
vt 0.480469 0.226562
vt 0.476562 0.226562
vt 0.476562 0.289062
vt 0.480469 0.289062
vt 0.480469 0.226562
vt 0.476562 0.226562
vt 0.628906 0.289062
vt 0.652344 0.289062
vt 0.652344 0.242188
vt 0.628906 0.242188
vt 0.628906 0.289062
vt 0.652344 0.289062
vt 0.652344 0.242188
vt 0.628906 0.242188
vt 0.664062 0.289062
vt 0.667969 0.289062
vt 0.667969 0.242188
vt 0.664062 0.242188
vt 0.664062 0.289062
vt 0.667969 0.289062
vt 0.667969 0.242188
vt 0.664062 0.242188
vt 0.636719 0.140625
vt 0.660156 0.140625
vt 0.660156 0.132812
vt 0.636719 0.132812
vt 0.636719 0.140625
vt 0.660156 0.140625
vt 0.660156 0.132812
vt 0.636719 0.132812
vt 0.664062 0.289062
vt 0.667969 0.289062
vt 0.667969 0.242188
vt 0.664062 0.242188
vt 0.664062 0.289062
vt 0.667969 0.289062
vt 0.667969 0.242188
vt 0.664062 0.242188
vt 0.628906 0.289062
vt 0.652344 0.289062
vt 0.652344 0.242188
vt 0.628906 0.242188
vt 0.628906 0.289062
vt 0.652344 0.289062
vt 0.652344 0.242188
vt 0.628906 0.242188
vt 0.664062 0.289062
vt 0.667969 0.289062
vt 0.667969 0.242188
vt 0.664062 0.242188
vt 0.664062 0.289062
vt 0.667969 0.289062
vt 0.667969 0.242188
vt 0.664062 0.242188
vt 0.414062 0.164062
vt 0.601562 0.164062
vt 0.601562 0.140625
vt 0.414062 0.140625
vt 0.414062 0.164062
vt 0.601562 0.164062
vt 0.601562 0.140625
vt 0.414062 0.140625
vt 0.437500 0.195312
vt 0.687500 0.195312
vt 0.687500 0.171875
vt 0.437500 0.171875
vt 0.687500 0.195312
vt 0.937500 0.195312
vt 0.937500 0.171875
vt 0.687500 0.171875
vt 0.000000 1.000000
vt 0.187500 1.000000
vt 0.187500 0.500000
vt 0.000000 0.500000
vt 0.187500 1.000000
vt 0.375000 1.000000
vt 0.375000 0.500000
vt 0.187500 0.500000
vt 0.585938 0.140625
vt 0.636719 0.140625
vt 0.636719 0.132812
vt 0.585938 0.132812
vt 0.585938 0.140625
vt 0.636719 0.140625
vt 0.636719 0.132812
vt 0.585938 0.132812
vt 0.351562 0.140625
vt 0.585938 0.140625
vt 0.585938 0.132812
vt 0.351562 0.132812
vt 0.351562 0.140625
vt 0.585938 0.140625
vt 0.585938 0.132812
vt 0.351562 0.132812
vt 0.750000 1.000000
vt 0.800781 1.000000
vt 0.800781 0.531250
vt 0.750000 0.531250
vt 0.328125 0.140625
vt 0.335938 0.140625
vt 0.335938 0.125000
vt 0.328125 0.125000
vt 0.328125 0.140625
vt 0.335938 0.140625
vt 0.335938 0.125000
vt 0.328125 0.125000
vt 0.000000 0.140625
vt 0.234375 0.140625
vt 0.234375 0.125000
vt 0.000000 0.125000
vt 0.000000 0.140625
vt 0.234375 0.140625
vt 0.234375 0.125000
vt 0.000000 0.125000
vt 0.800781 1.000000
vt 0.808594 1.000000
vt 0.808594 0.531250
vt 0.800781 0.531250
vt 0.328125 0.140625
vt 0.335938 0.140625
vt 0.335938 0.125000
vt 0.328125 0.125000
vt 0.328125 0.140625
vt 0.335938 0.140625
vt 0.335938 0.125000
vt 0.328125 0.125000
vt 0.000000 0.140625
vt 0.234375 0.140625
vt 0.234375 0.125000
vt 0.000000 0.125000
vt 0.000000 0.140625
vt 0.234375 0.140625
vt 0.234375 0.125000
vt 0.000000 0.125000
vt 0.800781 1.000000
vt 0.808594 1.000000
vt 0.808594 0.531250
vt 0.800781 0.531250
vt 0.980469 1.000000
vt 0.992188 1.000000
vt 0.992188 0.789062
vt 0.980469 0.789062
vt 0.980469 1.000000
vt 0.992188 1.000000
vt 0.992188 0.789062
vt 0.980469 0.789062
vt 0.980469 1.000000
vt 0.992188 1.000000
vt 0.992188 0.789062
vt 0.980469 0.789062
vt 0.980469 1.000000
vt 0.992188 1.000000
vt 0.992188 0.789062
vt 0.980469 0.789062
vt 0.707031 0.164062
vt 0.718750 0.164062
vt 0.718750 0.140625
vt 0.707031 0.140625
vt 0.707031 0.164062
vt 0.718750 0.164062
vt 0.718750 0.140625
vt 0.707031 0.140625
vt 0.980469 1.000000
vt 0.992188 1.000000
vt 0.992188 0.789062
vt 0.980469 0.789062
vt 0.980469 1.000000
vt 0.992188 1.000000
vt 0.992188 0.789062
vt 0.980469 0.789062
vt 0.980469 1.000000
vt 0.992188 1.000000
vt 0.992188 0.789062
vt 0.980469 0.789062
vt 0.980469 1.000000
vt 0.992188 1.000000
vt 0.992188 0.789062
vt 0.980469 0.789062
vt 0.707031 0.164062
vt 0.718750 0.164062
vt 0.718750 0.140625
vt 0.707031 0.140625
vt 0.707031 0.164062
vt 0.718750 0.164062
vt 0.718750 0.140625
vt 0.707031 0.140625
vt 0.980469 1.000000
vt 0.992188 1.000000
vt 0.992188 0.789062
vt 0.980469 0.789062
vt 0.980469 1.000000
vt 0.992188 1.000000
vt 0.992188 0.789062
vt 0.980469 0.789062
vt 0.980469 1.000000
vt 0.992188 1.000000
vt 0.992188 0.789062
vt 0.980469 0.789062
vt 0.980469 1.000000
vt 0.992188 1.000000
vt 0.992188 0.789062
vt 0.980469 0.789062
vt 0.707031 0.164062
vt 0.718750 0.164062
vt 0.718750 0.140625
vt 0.707031 0.140625
vt 0.707031 0.164062
vt 0.718750 0.164062
vt 0.718750 0.140625
vt 0.707031 0.140625
vt 0.980469 1.000000
vt 0.992188 1.000000
vt 0.992188 0.789062
vt 0.980469 0.789062
vt 0.980469 1.000000
vt 0.992188 1.000000
vt 0.992188 0.789062
vt 0.980469 0.789062
vt 0.980469 1.000000
vt 0.992188 1.000000
vt 0.992188 0.789062
vt 0.980469 0.789062
vt 0.980469 1.000000
vt 0.992188 1.000000
vt 0.992188 0.789062
vt 0.980469 0.789062
vt 0.707031 0.164062
vt 0.718750 0.164062
vt 0.718750 0.140625
vt 0.707031 0.140625
vt 0.707031 0.164062
vt 0.718750 0.164062
vt 0.718750 0.140625
vt 0.707031 0.140625
vt 0.980469 1.000000
vt 0.992188 1.000000
vt 0.992188 0.789062
vt 0.980469 0.789062
vt 0.980469 1.000000
vt 0.992188 1.000000
vt 0.992188 0.789062
vt 0.980469 0.789062
vt 0.980469 1.000000
vt 0.992188 1.000000
vt 0.992188 0.789062
vt 0.980469 0.789062
vt 0.980469 1.000000
vt 0.992188 1.000000
vt 0.992188 0.789062
vt 0.980469 0.789062
vt 0.707031 0.164062
vt 0.718750 0.164062
vt 0.718750 0.140625
vt 0.707031 0.140625
vt 0.707031 0.164062
vt 0.718750 0.164062
vt 0.718750 0.140625
vt 0.707031 0.140625
vt 0.980469 1.000000
vt 0.992188 1.000000
vt 0.992188 0.789062
vt 0.980469 0.789062
vt 0.980469 1.000000
vt 0.992188 1.000000
vt 0.992188 0.789062
vt 0.980469 0.789062
vt 0.980469 1.000000
vt 0.992188 1.000000
vt 0.992188 0.789062
vt 0.980469 0.789062
vt 0.980469 1.000000
vt 0.992188 1.000000
vt 0.992188 0.789062
vt 0.980469 0.789062
vt 0.707031 0.164062
vt 0.718750 0.164062
vt 0.718750 0.140625
vt 0.707031 0.140625
vt 0.707031 0.164062
vt 0.718750 0.164062
vt 0.718750 0.140625
vt 0.707031 0.140625
vt 0.000000 0.195312
vt 0.187500 0.195312
vt 0.187500 0.164062
vt 0.000000 0.164062
vt 0.000000 0.195312
vt 0.187500 0.195312
vt 0.187500 0.164062
vt 0.000000 0.164062
vt 0.722656 0.289062
vt 0.972656 0.289062
vt 0.972656 0.257812
vt 0.722656 0.257812
vt 0.722656 0.289062
vt 0.972656 0.289062
vt 0.972656 0.257812
vt 0.722656 0.257812
vt 0.375000 1.000000
vt 0.562500 1.000000
vt 0.562500 0.500000
vt 0.375000 0.500000
vt 0.562500 1.000000
vt 0.750000 1.000000
vt 0.750000 0.500000
vt 0.562500 0.500000
vt 0.843750 1.000000
vt 0.875000 1.000000
vt 0.875000 0.593750
vt 0.843750 0.593750
vt 0.996094 0.289062
vt 1.000000 0.289062
vt 1.000000 0.273438
vt 0.996094 0.273438
vt 0.996094 0.289062
vt 1.000000 0.289062
vt 1.000000 0.273438
vt 0.996094 0.273438
vt 0.335938 0.140625
vt 0.343750 0.140625
vt 0.343750 0.125000
vt 0.335938 0.125000
vt 0.996094 0.289062
vt 1.000000 0.289062
vt 1.000000 0.273438
vt 0.996094 0.273438
vt 0.996094 0.289062
vt 1.000000 0.289062
vt 1.000000 0.273438
vt 0.996094 0.273438
vt 0.484375 0.500000
vt 0.710938 0.500000
vt 0.710938 0.289062
vt 0.484375 0.289062
vt 0.484375 0.500000
vt 0.710938 0.500000
vt 0.710938 0.289062
vt 0.484375 0.289062
vt 0.875000 1.000000
vt 0.980469 1.000000
vt 0.980469 0.789062
vt 0.875000 0.789062
vt 0.875000 1.000000
vt 0.980469 1.000000
vt 0.980469 0.789062
vt 0.875000 0.789062
vt 0.875000 1.000000
vt 0.980469 1.000000
vt 0.980469 0.789062
vt 0.875000 0.789062
vt 0.875000 1.000000
vt 0.980469 1.000000
vt 0.980469 0.789062
vt 0.875000 0.789062
vt 0.710938 0.500000
vt 0.773438 0.500000
vt 0.773438 0.289062
vt 0.710938 0.289062
vt 0.710938 0.500000
vt 0.773438 0.500000
vt 0.773438 0.289062
vt 0.710938 0.289062
vt 0.000000 0.500000
vt 0.242188 0.500000
vt 0.242188 0.289062
vt 0.000000 0.289062
vt 0.242188 0.500000
vt 0.484375 0.500000
vt 0.484375 0.289062
vt 0.242188 0.289062
vt 0.992188 1.000000
vt 0.996094 1.000000
vt 0.996094 0.875000
vt 0.992188 0.875000
vt 0.992188 1.000000
vt 0.996094 1.000000
vt 0.996094 0.875000
vt 0.992188 0.875000
vt 0.773438 0.500000
vt 0.828125 0.500000
vt 0.828125 0.375000
vt 0.773438 0.375000
vt 0.996094 1.000000
vt 1.000000 1.000000
vt 1.000000 0.890625
vt 0.996094 0.890625
vt 0.996094 1.000000
vt 1.000000 1.000000
vt 1.000000 0.890625
vt 0.996094 0.890625
vt 0.992188 1.000000
vt 0.996094 1.000000
vt 0.996094 0.875000
vt 0.992188 0.875000
vt 0.992188 1.000000
vt 0.996094 1.000000
vt 0.996094 0.875000
vt 0.992188 0.875000
vt 0.773438 0.500000
vt 0.828125 0.500000
vt 0.828125 0.375000
vt 0.773438 0.375000
vt 0.996094 1.000000
vt 1.000000 1.000000
vt 1.000000 0.890625
vt 0.996094 0.890625
vt 0.996094 1.000000
vt 1.000000 1.000000
vt 1.000000 0.890625
vt 0.996094 0.890625
vt 0.992188 1.000000
vt 0.996094 1.000000
vt 0.996094 0.875000
vt 0.992188 0.875000
vt 0.992188 1.000000
vt 0.996094 1.000000
vt 0.996094 0.875000
vt 0.992188 0.875000
vt 0.773438 0.500000
vt 0.828125 0.500000
vt 0.828125 0.375000
vt 0.773438 0.375000
vt 0.996094 1.000000
vt 1.000000 1.000000
vt 1.000000 0.890625
vt 0.996094 0.890625
vt 0.996094 1.000000
vt 1.000000 1.000000
vt 1.000000 0.890625
vt 0.996094 0.890625
vt 0.234375 0.140625
vt 0.281250 0.140625
vt 0.281250 0.125000
vt 0.234375 0.125000
vt 0.234375 0.140625
vt 0.281250 0.140625
vt 0.281250 0.125000
vt 0.234375 0.125000
vt 0.753906 0.164062
vt 1.000000 0.164062
vt 1.000000 0.148438
vt 0.753906 0.148438
vt 0.480469 0.289062
vt 0.484375 0.289062
vt 0.484375 0.226562
vt 0.480469 0.226562
vt 0.484375 0.289062
vt 0.488281 0.289062
vt 0.488281 0.226562
vt 0.484375 0.226562
vt 0.445312 0.289062
vt 0.476562 0.289062
vt 0.476562 0.226562
vt 0.445312 0.226562
vt 0.488281 0.289062
vt 0.492188 0.289062
vt 0.492188 0.226562
vt 0.488281 0.226562
vt 0.492188 0.289062
vt 0.496094 0.289062
vt 0.496094 0.226562
vt 0.492188 0.226562
vt 0.937500 0.195312
vt 0.972656 0.195312
vt 0.972656 0.171875
vt 0.937500 0.171875
vt 0.937500 0.195312
vt 0.972656 0.195312
vt 0.972656 0.171875
vt 0.937500 0.171875
vt 0.000000 0.164062
vt 0.226562 0.164062
vt 0.226562 0.140625
vt 0.000000 0.140625
vt 0.000000 0.164062
vt 0.226562 0.164062
vt 0.226562 0.140625
vt 0.000000 0.140625
vt 0.808594 1.000000
vt 0.843750 1.000000
vt 0.843750 0.546875
vt 0.808594 0.546875
vt 0.523438 0.289062
vt 0.542969 0.289062
vt 0.542969 0.234375
vt 0.523438 0.234375
vt 0.523438 0.289062
vt 0.542969 0.289062
vt 0.542969 0.234375
vt 0.523438 0.234375
vt 0.523438 0.289062
vt 0.542969 0.289062
vt 0.542969 0.234375
vt 0.523438 0.234375
vt 0.523438 0.289062
vt 0.542969 0.289062
vt 0.542969 0.234375
vt 0.523438 0.234375
vt 0.667969 0.289062
vt 0.687500 0.289062
vt 0.687500 0.250000
vt 0.667969 0.250000
vt 0.523438 0.289062
vt 0.542969 0.289062
vt 0.542969 0.234375
vt 0.523438 0.234375
vt 0.523438 0.289062
vt 0.542969 0.289062
vt 0.542969 0.234375
vt 0.523438 0.234375
vt 0.523438 0.289062
vt 0.542969 0.289062
vt 0.542969 0.234375
vt 0.523438 0.234375
vt 0.523438 0.289062
vt 0.542969 0.289062
vt 0.542969 0.234375
vt 0.523438 0.234375
vt 0.667969 0.289062
vt 0.687500 0.289062
vt 0.687500 0.250000
vt 0.667969 0.250000
vt 0.703125 0.289062
vt 0.714844 0.289062
vt 0.714844 0.250000
vt 0.703125 0.250000
vt 0.703125 0.289062
vt 0.714844 0.289062
vt 0.714844 0.250000
vt 0.703125 0.250000
vt 0.703125 0.289062
vt 0.714844 0.289062
vt 0.714844 0.250000
vt 0.703125 0.250000
vt 0.703125 0.289062
vt 0.714844 0.289062
vt 0.714844 0.250000
vt 0.703125 0.250000
vt 0.718750 0.164062
vt 0.730469 0.164062
vt 0.730469 0.140625
vt 0.718750 0.140625
vt 0.281250 0.140625
vt 0.328125 0.140625
vt 0.328125 0.125000
vt 0.281250 0.125000
vt 0.281250 0.140625
vt 0.328125 0.140625
vt 0.328125 0.125000
vt 0.281250 0.125000
vt 0.281250 0.140625
vt 0.328125 0.140625
vt 0.328125 0.125000
vt 0.281250 0.125000
vt 0.281250 0.140625
vt 0.328125 0.140625
vt 0.328125 0.125000
vt 0.281250 0.125000
vt 0.945312 0.500000
vt 0.992188 0.500000
vt 0.992188 0.406250
vt 0.945312 0.406250
vt 0.601562 0.164062
vt 0.636719 0.164062
vt 0.636719 0.140625
vt 0.601562 0.140625
vt 0.601562 0.164062
vt 0.636719 0.164062
vt 0.636719 0.140625
vt 0.601562 0.140625
vt 0.601562 0.164062
vt 0.636719 0.164062
vt 0.636719 0.140625
vt 0.601562 0.140625
vt 0.601562 0.164062
vt 0.636719 0.164062
vt 0.636719 0.140625
vt 0.601562 0.140625
vt 0.375000 0.289062
vt 0.410156 0.289062
vt 0.410156 0.218750
vt 0.375000 0.218750
vt 0.410156 0.289062
vt 0.445312 0.289062
vt 0.445312 0.218750
vt 0.410156 0.218750
vt 0.601562 0.289062
vt 0.628906 0.289062
vt 0.628906 0.242188
vt 0.601562 0.242188
vt 0.601562 0.289062
vt 0.628906 0.289062
vt 0.628906 0.242188
vt 0.601562 0.242188
vt 0.601562 0.289062
vt 0.628906 0.289062
vt 0.628906 0.242188
vt 0.601562 0.242188
vt 0.601562 0.289062
vt 0.628906 0.289062
vt 0.628906 0.242188
vt 0.601562 0.242188
vt 0.496094 0.289062
vt 0.523438 0.289062
vt 0.523438 0.234375
vt 0.496094 0.234375
vt 0.558594 0.289062
vt 0.570312 0.289062
vt 0.570312 0.234375
vt 0.558594 0.234375
vt 0.558594 0.289062
vt 0.570312 0.289062
vt 0.570312 0.234375
vt 0.558594 0.234375
vt 0.558594 0.289062
vt 0.570312 0.289062
vt 0.570312 0.234375
vt 0.558594 0.234375
vt 0.558594 0.289062
vt 0.570312 0.289062
vt 0.570312 0.234375
vt 0.558594 0.234375
vt 0.730469 0.164062
vt 0.742188 0.164062
vt 0.742188 0.140625
vt 0.730469 0.140625
vt 0.992188 0.289062
vt 0.996094 0.289062
vt 0.996094 0.265625
vt 0.992188 0.265625
vt 0.992188 0.289062
vt 0.996094 0.289062
vt 0.996094 0.265625
vt 0.992188 0.265625
vt 0.992188 0.289062
vt 0.996094 0.289062
vt 0.996094 0.265625
vt 0.992188 0.265625
vt 0.992188 0.289062
vt 0.996094 0.289062
vt 0.996094 0.265625
vt 0.992188 0.265625
vt 0.660156 0.140625
vt 0.664062 0.140625
vt 0.664062 0.132812
vt 0.660156 0.132812
vt 0.714844 0.289062
vt 0.722656 0.289062
vt 0.722656 0.250000
vt 0.714844 0.250000
vt 0.714844 0.289062
vt 0.722656 0.289062
vt 0.722656 0.250000
vt 0.714844 0.250000
vt 0.687500 0.289062
vt 0.703125 0.289062
vt 0.703125 0.250000
vt 0.687500 0.250000
vt 0.687500 0.289062
vt 0.703125 0.289062
vt 0.703125 0.250000
vt 0.687500 0.250000
vt 0.984375 0.289062
vt 0.992188 0.289062
vt 0.992188 0.257812
vt 0.984375 0.257812
vt 0.984375 0.289062
vt 0.992188 0.289062
vt 0.992188 0.257812
vt 0.984375 0.257812
vt 0.992188 0.500000
vt 1.000000 0.500000
vt 1.000000 0.437500
vt 0.992188 0.437500
vt 0.992188 0.500000
vt 1.000000 0.500000
vt 1.000000 0.437500
vt 0.992188 0.437500
vt 0.992188 0.500000
vt 1.000000 0.500000
vt 1.000000 0.437500
vt 0.992188 0.437500
vt 0.992188 0.500000
vt 1.000000 0.500000
vt 1.000000 0.437500
vt 0.992188 0.437500
vt 0.343750 0.140625
vt 0.351562 0.140625
vt 0.351562 0.125000
vt 0.343750 0.125000
vt 0.742188 0.164062
vt 0.753906 0.164062
vt 0.753906 0.140625
vt 0.742188 0.140625
vt 0.742188 0.164062
vt 0.753906 0.164062
vt 0.753906 0.140625
vt 0.742188 0.140625
vt 0.664062 0.164062
vt 0.679688 0.164062
vt 0.679688 0.140625
vt 0.664062 0.140625
vt 0.664062 0.164062
vt 0.679688 0.164062
vt 0.679688 0.140625
vt 0.664062 0.140625
vt 0.972656 0.289062
vt 0.984375 0.289062
vt 0.984375 0.257812
vt 0.972656 0.257812
vt 0.972656 0.289062
vt 0.984375 0.289062
vt 0.984375 0.257812
vt 0.972656 0.257812
vt 0.652344 0.289062
vt 0.660156 0.289062
vt 0.660156 0.242188
vt 0.652344 0.242188
vt 0.652344 0.289062
vt 0.660156 0.289062
vt 0.660156 0.242188
vt 0.652344 0.242188
vt 0.652344 0.289062
vt 0.660156 0.289062
vt 0.660156 0.242188
vt 0.652344 0.242188
vt 0.652344 0.289062
vt 0.660156 0.289062
vt 0.660156 0.242188
vt 0.652344 0.242188
vt 0.679688 0.164062
vt 0.695312 0.164062
vt 0.695312 0.140625
vt 0.679688 0.140625
vt 0.679688 0.164062
vt 0.695312 0.164062
vt 0.695312 0.140625
vt 0.679688 0.140625
vt 0.972656 0.195312
vt 1.000000 0.195312
vt 1.000000 0.171875
vt 0.972656 0.171875
vt 0.636719 0.164062
vt 0.664062 0.164062
vt 0.664062 0.140625
vt 0.636719 0.140625
vt 0.542969 0.289062
vt 0.558594 0.289062
vt 0.558594 0.234375
vt 0.542969 0.234375
vt 0.542969 0.289062
vt 0.558594 0.289062
vt 0.558594 0.234375
vt 0.542969 0.234375
vn 0 0 -1
vn 0 0 1
vn -1 0 0
vn 1 0 0
vn 0 1 0
vn 0 -1 0
usemtl precision_assembler
o Hull
f 1/1/1 4/4/1 3/3/1 2/2/1
f 5/5/2 8/8/2 7/7/2 6/6/2
f 9/9/3 12/12/3 11/11/3 10/10/3
f 13/13/4 16/16/4 15/15/4 14/14/4
f 17/17/5 20/20/5 19/19/5 18/18/5
f 21/21/1 24/24/1 23/23/1 22/22/1
f 25/25/2 28/28/2 27/27/2 26/26/2
f 29/29/3 32/32/3 31/31/3 30/30/3
f 33/33/4 36/36/4 35/35/4 34/34/4
f 37/37/5 40/40/5 39/39/5 38/38/5
f 41/41/6 44/44/6 43/43/6 42/42/6
f 45/45/1 48/48/1 47/47/1 46/46/1
f 49/49/2 52/52/2 51/51/2 50/50/2
f 53/53/3 56/56/3 55/55/3 54/54/3
f 57/57/4 60/60/4 59/59/4 58/58/4
f 61/61/5 64/64/5 63/63/5 62/62/5
f 65/65/6 68/68/6 67/67/6 66/66/6
f 69/69/1 72/72/1 71/71/1 70/70/1
f 73/73/2 76/76/2 75/75/2 74/74/2
f 77/77/3 80/80/3 79/79/3 78/78/3
f 81/81/4 84/84/4 83/83/4 82/82/4
f 85/85/5 88/88/5 87/87/5 86/86/5
f 89/89/6 92/92/6 91/91/6 90/90/6
f 93/93/1 96/96/1 95/95/1 94/94/1
f 97/97/2 100/100/2 99/99/2 98/98/2
f 101/101/3 104/104/3 103/103/3 102/102/3
f 105/105/4 108/108/4 107/107/4 106/106/4
f 109/109/5 112/112/5 111/111/5 110/110/5
f 113/113/6 116/116/6 115/115/6 114/114/6
f 117/117/1 120/120/1 119/119/1 118/118/1
f 121/121/3 124/124/3 123/123/3 122/122/3
f 125/125/4 128/128/4 127/127/4 126/126/4
f 129/129/2 132/132/2 131/131/2 130/130/2
f 133/133/3 136/136/3 135/135/3 134/134/3
f 137/137/4 140/140/4 139/139/4 138/138/4
f 141/141/1 144/144/1 143/143/1 142/142/1
f 145/145/2 148/148/2 147/147/2 146/146/2
f 149/149/3 152/152/3 151/151/3 150/150/3
f 153/153/5 156/156/5 155/155/5 154/154/5
f 157/157/6 160/160/6 159/159/6 158/158/6
f 161/161/1 164/164/1 163/163/1 162/162/1
f 165/165/2 168/168/2 167/167/2 166/166/2
f 169/169/3 172/172/3 171/171/3 170/170/3
f 173/173/5 176/176/5 175/175/5 174/174/5
f 177/177/6 180/180/6 179/179/6 178/178/6
f 181/181/1 184/184/1 183/183/1 182/182/1
f 185/185/2 188/188/2 187/187/2 186/186/2
f 189/189/3 192/192/3 191/191/3 190/190/3
f 193/193/5 196/196/5 195/195/5 194/194/5
f 197/197/6 200/200/6 199/199/6 198/198/6
f 201/201/1 204/204/1 203/203/1 202/202/1
f 205/205/2 208/208/2 207/207/2 206/206/2
f 209/209/3 212/212/3 211/211/3 210/210/3
f 213/213/4 216/216/4 215/215/4 214/214/4
f 217/217/5 220/220/5 219/219/5 218/218/5
f 221/221/6 224/224/6 223/223/6 222/222/6
f 225/225/1 228/228/1 227/227/1 226/226/1
f 229/229/2 232/232/2 231/231/2 230/230/2
f 233/233/3 236/236/3 235/235/3 234/234/3
f 237/237/4 240/240/4 239/239/4 238/238/4
f 241/241/5 244/244/5 243/243/5 242/242/5
f 245/245/6 248/248/6 247/247/6 246/246/6
f 249/249/1 252/252/1 251/251/1 250/250/1
f 253/253/2 256/256/2 255/255/2 254/254/2
f 257/257/3 260/260/3 259/259/3 258/258/3
f 261/261/4 264/264/4 263/263/4 262/262/4
f 265/265/5 268/268/5 267/267/5 266/266/5
f 269/269/6 272/272/6 271/271/6 270/270/6
f 273/273/1 276/276/1 275/275/1 274/274/1
f 277/277/2 280/280/2 279/279/2 278/278/2
f 281/281/3 284/284/3 283/283/3 282/282/3
f 285/285/4 288/288/4 287/287/4 286/286/4
f 289/289/5 292/292/5 291/291/5 290/290/5
f 293/293/1 296/296/1 295/295/1 294/294/1
f 297/297/2 300/300/2 299/299/2 298/298/2
f 301/301/3 304/304/3 303/303/3 302/302/3
f 305/305/4 308/308/4 307/307/4 306/306/4
f 309/309/5 312/312/5 311/311/5 310/310/5
f 313/313/1 316/316/1 315/315/1 314/314/1
f 317/317/2 320/320/2 319/319/2 318/318/2
f 321/321/3 324/324/3 323/323/3 322/322/3
f 325/325/4 328/328/4 327/327/4 326/326/4
f 329/329/5 332/332/5 331/331/5 330/330/5
f 333/333/1 336/336/1 335/335/1 334/334/1
f 337/337/2 340/340/2 339/339/2 338/338/2
f 341/341/3 344/344/3 343/343/3 342/342/3
f 345/345/4 348/348/4 347/347/4 346/346/4
f 349/349/5 352/352/5 351/351/5 350/350/5
f 353/353/6 356/356/6 355/355/6 354/354/6
f 357/357/1 360/360/1 359/359/1 358/358/1
f 361/361/2 364/364/2 363/363/2 362/362/2
f 365/365/3 368/368/3 367/367/3 366/366/3
f 369/369/4 372/372/4 371/371/4 370/370/4
f 373/373/5 376/376/5 375/375/5 374/374/5
f 377/377/6 380/380/6 379/379/6 378/378/6
f 381/381/1 384/384/1 383/383/1 382/382/1
f 385/385/2 388/388/2 387/387/2 386/386/2
f 389/389/3 392/392/3 391/391/3 390/390/3
f 393/393/4 396/396/4 395/395/4 394/394/4
f 397/397/5 400/400/5 399/399/5 398/398/5
f 401/401/6 404/404/6 403/403/6 402/402/6
f 405/405/1 408/408/1 407/407/1 406/406/1
f 409/409/2 412/412/2 411/411/2 410/410/2
f 413/413/3 416/416/3 415/415/3 414/414/3
f 417/417/4 420/420/4 419/419/4 418/418/4
f 421/421/5 424/424/5 423/423/5 422/422/5
f 425/425/6 428/428/6 427/427/6 426/426/6
f 429/429/1 432/432/1 431/431/1 430/430/1
f 433/433/2 436/436/2 435/435/2 434/434/2
f 437/437/3 440/440/3 439/439/3 438/438/3
f 441/441/4 444/444/4 443/443/4 442/442/4
f 445/445/5 448/448/5 447/447/5 446/446/5
f 449/449/6 452/452/6 451/451/6 450/450/6
f 453/453/1 456/456/1 455/455/1 454/454/1
f 457/457/2 460/460/2 459/459/2 458/458/2
f 461/461/3 464/464/3 463/463/3 462/462/3
f 465/465/4 468/468/4 467/467/4 466/466/4
f 469/469/5 472/472/5 471/471/5 470/470/5
f 473/473/6 476/476/6 475/475/6 474/474/6
f 477/477/1 480/480/1 479/479/1 478/478/1
f 481/481/2 484/484/2 483/483/2 482/482/2
f 485/485/3 488/488/3 487/487/3 486/486/3
f 489/489/4 492/492/4 491/491/4 490/490/4
f 493/493/5 496/496/5 495/495/5 494/494/5
f 497/497/6 500/500/6 499/499/6 498/498/6
f 949/501/5 950/504/5 951/503/5 952/502/5
f 505/505/1 508/508/1 507/507/1 506/506/1
f 509/509/2 512/512/2 511/511/2 510/510/2
f 513/513/3 516/516/3 515/515/3 514/514/3
f 517/517/5 520/520/5 519/519/5 518/518/5
f 521/521/6 524/524/6 523/523/6 522/522/6
f 525/525/3 528/528/3 527/527/3 526/526/3
f 529/529/4 532/532/4 531/531/4 530/530/4
f 533/533/1 536/536/1 535/535/1 534/534/1
f 537/537/2 540/540/2 539/539/2 538/538/2
f 541/541/1 544/544/1 543/543/1 542/542/1
f 545/545/2 548/548/2 547/547/2 546/546/2
f 549/549/1 552/552/1 551/551/1 550/550/1
f 553/553/2 556/556/2 555/555/2 554/554/2
f 557/557/3 560/560/3 559/559/3 558/558/3
f 561/561/4 564/564/4 563/563/4 562/562/4
f 565/565/1 568/568/1 567/567/1 566/566/1
f 569/569/2 572/572/2 571/571/2 570/570/2
f 573/573/4 576/576/4 575/575/4 574/574/4
f 577/577/5 580/580/5 579/579/5 578/578/5
f 581/581/6 584/584/6 583/583/6 582/582/6
f 585/585/1 588/588/1 587/587/1 586/586/1
f 589/589/2 592/592/2 591/591/2 590/590/2
f 593/593/4 596/596/4 595/595/4 594/594/4
f 597/597/5 600/600/5 599/599/5 598/598/5
f 601/601/6 604/604/6 603/603/6 602/602/6
f 605/605/1 608/608/1 607/607/1 606/606/1
f 609/609/2 612/612/2 611/611/2 610/610/2
f 613/613/4 616/616/4 615/615/4 614/614/4
f 617/617/5 620/620/5 619/619/5 618/618/5
f 621/621/6 624/624/6 623/623/6 622/622/6
f 625/625/1 628/628/1 627/627/1 626/626/1
f 629/629/2 632/632/2 631/631/2 630/630/2
f 633/633/4 636/636/4 635/635/4 634/634/4
f 637/637/1 640/640/1 639/639/1 638/638/1
f 641/641/2 644/644/2 643/643/2 642/642/2
f 645/645/3 648/648/3 647/647/3 646/646/3
f 649/649/5 652/652/5 651/651/5 650/650/5
f 653/653/6 656/656/6 655/655/6 654/654/6
f 657/657/1 660/660/1 659/659/1 658/658/1
f 661/661/2 664/664/2 663/663/2 662/662/2
f 665/665/3 668/668/3 667/667/3 666/666/3
f 669/669/4 672/672/4 671/671/4 670/670/4
f 673/673/6 676/676/6 675/675/6 674/674/6
f 677/677/1 680/680/1 679/679/1 678/678/1
f 681/681/2 684/684/2 683/683/2 682/682/2
f 685/685/3 688/688/3 687/687/3 686/686/3
f 689/689/4 692/692/4 691/691/4 690/690/4
f 693/693/6 696/696/6 695/695/6 694/694/6
f 697/697/1 700/700/1 699/699/1 698/698/1
f 701/701/2 704/704/2 703/703/2 702/702/2
f 705/705/3 708/708/3 707/707/3 706/706/3
f 709/709/4 712/712/4 711/711/4 710/710/4
f 713/713/6 716/716/6 715/715/6 714/714/6
f 717/717/1 720/720/1 719/719/1 718/718/1
f 721/721/2 724/724/2 723/723/2 722/722/2
f 725/725/3 728/728/3 727/727/3 726/726/3
f 729/729/4 732/732/4 731/731/4 730/730/4
f 733/733/5 736/736/5 735/735/5 734/734/5
o Tray
f 737/737/1 740/740/1 739/739/1 738/738/1
f 741/741/2 744/744/2 743/743/2 742/742/2
f 745/745/3 748/748/3 747/747/3 746/746/3
f 749/749/4 752/752/4 751/751/4 750/750/4
f 753/753/5 756/756/5 755/755/5 754/754/5
o ProcessA
f 757/757/1 760/760/1 759/759/1 758/758/1
f 761/761/2 764/764/2 763/763/2 762/762/2
f 765/765/3 768/768/3 767/767/3 766/766/3
f 769/769/4 772/772/4 771/771/4 770/770/4
f 773/773/5 776/776/5 775/775/5 774/774/5
f 777/777/6 780/780/6 779/779/6 778/778/6
f 781/781/1 784/784/1 783/783/1 782/782/1
f 785/785/2 788/788/2 787/787/2 786/786/2
f 789/789/3 792/792/3 791/791/3 790/790/3
f 793/793/4 796/796/4 795/795/4 794/794/4
f 797/797/5 800/800/5 799/799/5 798/798/5
f 801/801/1 804/804/1 803/803/1 802/802/1
f 805/805/2 808/808/2 807/807/2 806/806/2
f 809/809/3 812/812/3 811/811/3 810/810/3
f 813/813/4 816/816/4 815/815/4 814/814/4
f 817/817/5 820/820/5 819/819/5 818/818/5
o ProcessB
f 821/821/1 824/824/1 823/823/1 822/822/1
f 825/825/2 828/828/2 827/827/2 826/826/2
f 829/829/3 832/832/3 831/831/3 830/830/3
f 833/833/4 836/836/4 835/835/4 834/834/4
f 837/837/6 840/840/6 839/839/6 838/838/6
f 841/841/1 844/844/1 843/843/1 842/842/1
f 845/845/2 848/848/2 847/847/2 846/846/2
f 849/849/3 852/852/3 851/851/3 850/850/3
f 853/853/4 856/856/4 855/855/4 854/854/4
f 857/857/5 860/860/5 859/859/5 858/858/5
f 861/861/6 864/864/6 863/863/6 862/862/6
f 865/865/1 868/868/1 867/867/1 866/866/1
f 869/869/2 872/872/2 871/871/2 870/870/2
f 873/873/3 876/876/3 875/875/3 874/874/3
f 877/877/4 880/880/4 879/879/4 878/878/4
f 881/881/5 884/884/5 883/883/5 882/882/5
o ProcessC
f 885/885/1 888/888/1 887/887/1 886/886/1
f 889/889/2 892/892/2 891/891/2 890/890/2
f 893/893/3 896/896/3 895/895/3 894/894/3
f 897/897/4 900/900/4 899/899/4 898/898/4
f 901/901/5 904/904/5 903/903/5 902/902/5
f 905/905/6 908/908/6 907/907/6 906/906/6
f 909/909/1 912/912/1 911/911/1 910/910/1
f 913/913/2 916/916/2 915/915/2 914/914/2
f 917/917/3 920/920/3 919/919/3 918/918/3
f 921/921/4 924/924/4 923/923/4 922/922/4
f 925/925/1 928/928/1 927/927/1 926/926/1
f 929/929/2 932/932/2 931/931/2 930/930/2
f 933/933/3 936/936/3 935/935/3 934/934/3
f 937/937/4 940/940/4 939/939/4 938/938/4
f 941/941/5 944/944/5 943/943/5 942/942/5
f 945/945/6 948/948/6 947/947/6 946/946/6
