# railgun generated by machinegen.py
mtllib railgun.mtl
usemtl railgun
vn 0 0 -1
vn 0 0 1
vn -1 0 0
vn 1 0 0
vn 0 1 0
vn 0 -1 0
o Base
v 3.500000 0.500000 -3.500000
v -3.500000 0.500000 -3.500000
v -3.500000 0.000000 -3.500000
v 3.500000 0.000000 -3.500000
vt 0.093750 0.187500
vt 0.531250 0.187500
vt 0.531250 0.156250
vt 0.093750 0.156250
f 1/1/1 4/4/1 3/3/1 2/2/1
v -3.500000 0.500000 3.500000
v 3.500000 0.500000 3.500000
v 3.500000 0.000000 3.500000
v -3.500000 0.000000 3.500000
vt 0.093750 0.187500
vt 0.531250 0.187500
vt 0.531250 0.156250
vt 0.093750 0.156250
f 5/5/2 8/8/2 7/7/2 6/6/2
v -3.500000 0.500000 -3.500000
v -3.500000 0.500000 3.500000
v -3.500000 0.000000 3.500000
v -3.500000 0.000000 -3.500000
vt 0.093750 0.187500
vt 0.531250 0.187500
vt 0.531250 0.156250
vt 0.093750 0.156250
f 9/9/3 12/12/3 11/11/3 10/10/3
v 3.500000 0.500000 3.500000
v 3.500000 0.500000 -3.500000
v 3.500000 0.000000 -3.500000
v 3.500000 0.000000 3.500000
vt 0.093750 0.187500
vt 0.531250 0.187500
vt 0.531250 0.156250
vt 0.093750 0.156250
f 13/13/4 16/16/4 15/15/4 14/14/4
v -3.500000 0.500000 -3.500000
v 3.500000 0.500000 -3.500000
v 3.500000 0.500000 3.500000
v -3.500000 0.500000 3.500000
vt 0.117188 1.000000
vt 0.554688 1.000000
vt 0.554688 0.562500
vt 0.117188 0.562500
f 17/17/5 20/20/5 19/19/5 18/18/5
v 4.500000 0.500000 -1.500000
v 3.500000 0.500000 -1.500000
v 3.500000 0.000000 -1.500000
v 4.500000 0.000000 -1.500000
vt 0.937500 0.250000
vt 1.000000 0.250000
vt 1.000000 0.218750
vt 0.937500 0.218750
f 21/21/1 24/24/1 23/23/1 22/22/1
v 3.500000 0.500000 1.500000
v 4.500000 0.500000 1.500000
v 4.500000 0.000000 1.500000
v 3.500000 0.000000 1.500000
vt 0.937500 0.250000
vt 1.000000 0.250000
vt 1.000000 0.218750
vt 0.937500 0.218750
f 25/25/2 28/28/2 27/27/2 26/26/2
v 4.500000 0.500000 1.500000
v 4.500000 0.500000 -1.500000
v 4.500000 0.000000 -1.500000
v 4.500000 0.000000 1.500000
vt 0.000000 0.152344
vt 0.187500 0.152344
vt 0.187500 0.121094
vt 0.000000 0.121094
f 29/29/4 32/32/4 31/31/4 30/30/4
v 3.500000 0.500000 -1.500000
v 4.500000 0.500000 -1.500000
v 4.500000 0.500000 1.500000
v 3.500000 0.500000 1.500000
vt 0.867188 1.000000
vt 0.929688 1.000000
vt 0.929688 0.812500
vt 0.867188 0.812500
f 33/33/5 36/36/5 35/35/5 34/34/5
v -1.500000 0.500000 4.500000
v 1.500000 0.500000 4.500000
v 1.500000 0.000000 4.500000
v -1.500000 0.000000 4.500000
vt 0.000000 0.152344
vt 0.187500 0.152344
vt 0.187500 0.121094
vt 0.000000 0.121094
f 37/37/2 40/40/2 39/39/2 38/38/2
v -1.500000 0.500000 3.500000
v -1.500000 0.500000 4.500000
v -1.500000 0.000000 4.500000
v -1.500000 0.000000 3.500000
vt 0.937500 0.250000
vt 1.000000 0.250000
vt 1.000000 0.218750
vt 0.937500 0.218750
f 41/41/3 44/44/3 43/43/3 42/42/3
v 1.500000 0.500000 4.500000
v 1.500000 0.500000 3.500000
v 1.500000 0.000000 3.500000
v 1.500000 0.000000 4.500000
vt 0.937500 0.250000
vt 1.000000 0.250000
vt 1.000000 0.218750
vt 0.937500 0.218750
f 45/45/4 48/48/4 47/47/4 46/46/4
v -1.500000 0.500000 3.500000
v 1.500000 0.500000 3.500000
v 1.500000 0.500000 4.500000
v -1.500000 0.500000 4.500000
vt 0.000000 0.250000
vt 0.187500 0.250000
vt 0.187500 0.187500
vt 0.000000 0.187500
f 49/49/5 52/52/5 51/51/5 50/50/5
v -3.500000 0.500000 -1.500000
v -4.500000 0.500000 -1.500000
v -4.500000 0.000000 -1.500000
v -3.500000 0.000000 -1.500000
vt 0.937500 0.250000
vt 1.000000 0.250000
vt 1.000000 0.218750
vt 0.937500 0.218750
f 53/53/1 56/56/1 55/55/1 54/54/1
v -4.500000 0.500000 1.500000
v -3.500000 0.500000 1.500000
v -3.500000 0.000000 1.500000
v -4.500000 0.000000 1.500000
vt 0.937500 0.250000
vt 1.000000 0.250000
vt 1.000000 0.218750
vt 0.937500 0.218750
f 57/57/2 60/60/2 59/59/2 58/58/2
v -4.500000 0.500000 -1.500000
v -4.500000 0.500000 1.500000
v -4.500000 0.000000 1.500000
v -4.500000 0.000000 -1.500000
vt 0.000000 0.152344
vt 0.187500 0.152344
vt 0.187500 0.121094
vt 0.000000 0.121094
f 61/61/3 64/64/3 63/63/3 62/62/3
v -4.500000 0.500000 -1.500000
v -3.500000 0.500000 -1.500000
v -3.500000 0.500000 1.500000
v -4.500000 0.500000 1.500000
vt 0.867188 1.000000
vt 0.929688 1.000000
vt 0.929688 0.812500
vt 0.867188 0.812500
f 65/65/5 68/68/5 67/67/5 66/66/5
v 1.500000 0.500000 -4.500000
v -1.500000 0.500000 -4.500000
v -1.500000 0.000000 -4.500000
v 1.500000 0.000000 -4.500000
vt 0.000000 0.152344
vt 0.187500 0.152344
vt 0.187500 0.121094
vt 0.000000 0.121094
f 69/69/1 72/72/1 71/71/1 70/70/1
v -1.500000 0.500000 -4.500000
v -1.500000 0.500000 -3.500000
v -1.500000 0.000000 -3.500000
v -1.500000 0.000000 -4.500000
vt 0.937500 0.250000
vt 1.000000 0.250000
vt 1.000000 0.218750
vt 0.937500 0.218750
f 73/73/3 76/76/3 75/75/3 74/74/3
v 1.500000 0.500000 -3.500000
v 1.500000 0.500000 -4.500000
v 1.500000 0.000000 -4.500000
v 1.500000 0.000000 -3.500000
vt 0.937500 0.250000
vt 1.000000 0.250000
vt 1.000000 0.218750
vt 0.937500 0.218750
f 77/77/4 80/80/4 79/79/4 78/78/4
v -1.500000 0.500000 -4.500000
v 1.500000 0.500000 -4.500000
v 1.500000 0.500000 -3.500000
v -1.500000 0.500000 -3.500000
vt 0.000000 0.250000
vt 0.187500 0.250000
vt 0.187500 0.187500
vt 0.000000 0.187500
f 81/81/5 84/84/5 83/83/5 82/82/5
v 4.500000 1.500000 3.500000
v 3.500000 1.500000 3.500000
v 3.500000 0.000000 3.500000
v 4.500000 0.000000 3.500000
vt 0.625000 0.437500
vt 0.687500 0.437500
vt 0.687500 0.343750
vt 0.625000 0.343750
f 85/85/1 88/88/1 87/87/1 86/86/1
v 3.500000 1.500000 4.500000
v 4.500000 1.500000 4.500000
v 4.500000 0.000000 4.500000
v 3.500000 0.000000 4.500000
vt 0.625000 0.437500
vt 0.687500 0.437500
vt 0.687500 0.343750
vt 0.625000 0.343750
f 89/89/2 92/92/2 91/91/2 90/90/2
v 3.500000 1.500000 3.500000
v 3.500000 1.500000 4.500000
v 3.500000 0.000000 4.500000
v 3.500000 0.000000 3.500000
vt 0.625000 0.437500
vt 0.687500 0.437500
vt 0.687500 0.343750
vt 0.625000 0.343750
f 93/93/3 96/96/3 95/95/3 94/94/3
v 4.500000 1.500000 4.500000
v 4.500000 1.500000 3.500000
v 4.500000 0.000000 3.500000
v 4.500000 0.000000 4.500000
vt 0.625000 0.437500
vt 0.687500 0.437500
vt 0.687500 0.343750
vt 0.625000 0.343750
f 97/97/4 100/100/4 99/99/4 98/98/4
v 3.500000 1.500000 3.500000
v 4.500000 1.500000 3.500000
v 4.500000 1.500000 4.500000
v 3.500000 1.500000 4.500000
vt 0.894531 0.437500
vt 0.957031 0.437500
vt 0.957031 0.375000
vt 0.894531 0.375000
f 101/101/5 104/104/5 103/103/5 102/102/5
v -3.500000 1.500000 3.500000
v -4.500000 1.500000 3.500000
v -4.500000 0.000000 3.500000
v -3.500000 0.000000 3.500000
vt 0.625000 0.437500
vt 0.687500 0.437500
vt 0.687500 0.343750
vt 0.625000 0.343750
f 105/105/1 108/108/1 107/107/1 106/106/1
v -4.500000 1.500000 4.500000
v -3.500000 1.500000 4.500000
v -3.500000 0.000000 4.500000
v -4.500000 0.000000 4.500000
vt 0.625000 0.437500
vt 0.687500 0.437500
vt 0.687500 0.343750
vt 0.625000 0.343750
f 109/109/2 112/112/2 111/111/2 110/110/2
v -4.500000 1.500000 3.500000
v -4.500000 1.500000 4.500000
v -4.500000 0.000000 4.500000
v -4.500000 0.000000 3.500000
vt 0.625000 0.437500
vt 0.687500 0.437500
vt 0.687500 0.343750
vt 0.625000 0.343750
f 113/113/3 116/116/3 115/115/3 114/114/3
v -3.500000 1.500000 4.500000
v -3.500000 1.500000 3.500000
v -3.500000 0.000000 3.500000
v -3.500000 0.000000 4.500000
vt 0.625000 0.437500
vt 0.687500 0.437500
vt 0.687500 0.343750
vt 0.625000 0.343750
f 117/117/4 120/120/4 119/119/4 118/118/4
v -4.500000 1.500000 3.500000
v -3.500000 1.500000 3.500000
v -3.500000 1.500000 4.500000
v -4.500000 1.500000 4.500000
vt 0.894531 0.437500
vt 0.957031 0.437500
vt 0.957031 0.375000
vt 0.894531 0.375000
f 121/121/5 124/124/5 123/123/5 122/122/5
v -3.500000 1.500000 -4.500000
v -4.500000 1.500000 -4.500000
v -4.500000 0.000000 -4.500000
v -3.500000 0.000000 -4.500000
vt 0.625000 0.437500
vt 0.687500 0.437500
vt 0.687500 0.343750
vt 0.625000 0.343750
f 125/125/1 128/128/1 127/127/1 126/126/1
v -4.500000 1.500000 -3.500000
v -3.500000 1.500000 -3.500000
v -3.500000 0.000000 -3.500000
v -4.500000 0.000000 -3.500000
vt 0.625000 0.437500
vt 0.687500 0.437500
vt 0.687500 0.343750
vt 0.625000 0.343750
f 129/129/2 132/132/2 131/131/2 130/130/2
v -4.500000 1.500000 -4.500000
v -4.500000 1.500000 -3.500000
v -4.500000 0.000000 -3.500000
v -4.500000 0.000000 -4.500000
vt 0.625000 0.437500
vt 0.687500 0.437500
vt 0.687500 0.343750
vt 0.625000 0.343750
f 133/133/3 136/136/3 135/135/3 134/134/3
v -3.500000 1.500000 -3.500000
v -3.500000 1.500000 -4.500000
v -3.500000 0.000000 -4.500000
v -3.500000 0.000000 -3.500000
vt 0.625000 0.437500
vt 0.687500 0.437500
vt 0.687500 0.343750
vt 0.625000 0.343750
f 137/137/4 140/140/4 139/139/4 138/138/4
v -4.500000 1.500000 -4.500000
v -3.500000 1.500000 -4.500000
v -3.500000 1.500000 -3.500000
v -4.500000 1.500000 -3.500000
vt 0.894531 0.437500
vt 0.957031 0.437500
vt 0.957031 0.375000
vt 0.894531 0.375000
f 141/141/5 144/144/5 143/143/5 142/142/5
v 4.500000 1.500000 -4.500000
v 3.500000 1.500000 -4.500000
v 3.500000 0.000000 -4.500000
v 4.500000 0.000000 -4.500000
vt 0.625000 0.437500
vt 0.687500 0.437500
vt 0.687500 0.343750
vt 0.625000 0.343750
f 145/145/1 148/148/1 147/147/1 146/146/1
v 3.500000 1.500000 -3.500000
v 4.500000 1.500000 -3.500000
v 4.500000 0.000000 -3.500000
v 3.500000 0.000000 -3.500000
vt 0.625000 0.437500
vt 0.687500 0.437500
vt 0.687500 0.343750
vt 0.625000 0.343750
f 149/149/2 152/152/2 151/151/2 150/150/2
v 3.500000 1.500000 -4.500000
v 3.500000 1.500000 -3.500000
v 3.500000 0.000000 -3.500000
v 3.500000 0.000000 -4.500000
vt 0.625000 0.437500
vt 0.687500 0.437500
vt 0.687500 0.343750
vt 0.625000 0.343750
f 153/153/3 156/156/3 155/155/3 154/154/3
v 4.500000 1.500000 -3.500000
v 4.500000 1.500000 -4.500000
v 4.500000 0.000000 -4.500000
v 4.500000 0.000000 -3.500000
vt 0.625000 0.437500
vt 0.687500 0.437500
vt 0.687500 0.343750
vt 0.625000 0.343750
f 157/157/4 160/160/4 159/159/4 158/158/4
v 3.500000 1.500000 -4.500000
v 4.500000 1.500000 -4.500000
v 4.500000 1.500000 -3.500000
v 3.500000 1.500000 -3.500000
vt 0.894531 0.437500
vt 0.957031 0.437500
vt 0.957031 0.375000
vt 0.894531 0.375000
f 161/161/5 164/164/5 163/163/5 162/162/5
v 4.125000 1.625000 3.875000
v 3.875000 1.625000 3.875000
v 3.875000 1.500000 3.875000
v 4.125000 1.500000 3.875000
vt 0.246094 0.121094
vt 0.261719 0.121094
vt 0.261719 0.113281
vt 0.246094 0.113281
f 165/165/1 168/168/1 167/167/1 166/166/1
v 3.875000 1.625000 4.125000
v 4.125000 1.625000 4.125000
v 4.125000 1.500000 4.125000
v 3.875000 1.500000 4.125000
vt 0.246094 0.121094
vt 0.261719 0.121094
vt 0.261719 0.113281
vt 0.246094 0.113281
f 169/169/2 172/172/2 171/171/2 170/170/2
v 3.875000 1.625000 3.875000
v 3.875000 1.625000 4.125000
v 3.875000 1.500000 4.125000
v 3.875000 1.500000 3.875000
vt 0.246094 0.121094
vt 0.261719 0.121094
vt 0.261719 0.113281
vt 0.246094 0.113281
f 173/173/3 176/176/3 175/175/3 174/174/3
v 4.125000 1.625000 4.125000
v 4.125000 1.625000 3.875000
v 4.125000 1.500000 3.875000
v 4.125000 1.500000 4.125000
vt 0.246094 0.121094
vt 0.261719 0.121094
vt 0.261719 0.113281
vt 0.246094 0.113281
f 177/177/4 180/180/4 179/179/4 178/178/4
v 3.875000 1.625000 3.875000
v 4.125000 1.625000 3.875000
v 4.125000 1.625000 4.125000
v 3.875000 1.625000 4.125000
vt 0.976562 0.187500
vt 0.992188 0.187500
vt 0.992188 0.171875
vt 0.976562 0.171875
f 181/181/5 184/184/5 183/183/5 182/182/5
v -3.875000 1.625000 3.875000
v -4.125000 1.625000 3.875000
v -4.125000 1.500000 3.875000
v -3.875000 1.500000 3.875000
vt 0.246094 0.121094
vt 0.261719 0.121094
vt 0.261719 0.113281
vt 0.246094 0.113281
f 185/185/1 188/188/1 187/187/1 186/186/1
v -4.125000 1.625000 4.125000
v -3.875000 1.625000 4.125000
v -3.875000 1.500000 4.125000
v -4.125000 1.500000 4.125000
vt 0.246094 0.121094
vt 0.261719 0.121094
vt 0.261719 0.113281
vt 0.246094 0.113281
f 189/189/2 192/192/2 191/191/2 190/190/2
v -4.125000 1.625000 3.875000
v -4.125000 1.625000 4.125000
v -4.125000 1.500000 4.125000
v -4.125000 1.500000 3.875000
vt 0.246094 0.121094
vt 0.261719 0.121094
vt 0.261719 0.113281
vt 0.246094 0.113281
f 193/193/3 196/196/3 195/195/3 194/194/3
v -3.875000 1.625000 4.125000
v -3.875000 1.625000 3.875000
v -3.875000 1.500000 3.875000
v -3.875000 1.500000 4.125000
vt 0.246094 0.121094
vt 0.261719 0.121094
vt 0.261719 0.113281
vt 0.246094 0.113281
f 197/197/4 200/200/4 199/199/4 198/198/4
v -4.125000 1.625000 3.875000
v -3.875000 1.625000 3.875000
v -3.875000 1.625000 4.125000
v -4.125000 1.625000 4.125000
vt 0.976562 0.187500
vt 0.992188 0.187500
vt 0.992188 0.171875
vt 0.976562 0.171875
f 201/201/5 204/204/5 203/203/5 202/202/5
v -3.875000 1.625000 -4.125000
v -4.125000 1.625000 -4.125000
v -4.125000 1.500000 -4.125000
v -3.875000 1.500000 -4.125000
vt 0.246094 0.121094
vt 0.261719 0.121094
vt 0.261719 0.113281
vt 0.246094 0.113281
f 205/205/1 208/208/1 207/207/1 206/206/1
v -4.125000 1.625000 -3.875000
v -3.875000 1.625000 -3.875000
v -3.875000 1.500000 -3.875000
v -4.125000 1.500000 -3.875000
vt 0.246094 0.121094
vt 0.261719 0.121094
vt 0.261719 0.113281
vt 0.246094 0.113281
f 209/209/2 212/212/2 211/211/2 210/210/2
v -4.125000 1.625000 -4.125000
v -4.125000 1.625000 -3.875000
v -4.125000 1.500000 -3.875000
v -4.125000 1.500000 -4.125000
vt 0.246094 0.121094
vt 0.261719 0.121094
vt 0.261719 0.113281
vt 0.246094 0.113281
f 213/213/3 216/216/3 215/215/3 214/214/3
v -3.875000 1.625000 -3.875000
v -3.875000 1.625000 -4.125000
v -3.875000 1.500000 -4.125000
v -3.875000 1.500000 -3.875000
vt 0.246094 0.121094
vt 0.261719 0.121094
vt 0.261719 0.113281
vt 0.246094 0.113281
f 217/217/4 220/220/4 219/219/4 218/218/4
v -4.125000 1.625000 -4.125000
v -3.875000 1.625000 -4.125000
v -3.875000 1.625000 -3.875000
v -4.125000 1.625000 -3.875000
vt 0.976562 0.187500
vt 0.992188 0.187500
vt 0.992188 0.171875
vt 0.976562 0.171875
f 221/221/5 224/224/5 223/223/5 222/222/5
v 4.125000 1.625000 -4.125000
v 3.875000 1.625000 -4.125000
v 3.875000 1.500000 -4.125000
v 4.125000 1.500000 -4.125000
vt 0.246094 0.121094
vt 0.261719 0.121094
vt 0.261719 0.113281
vt 0.246094 0.113281
f 225/225/1 228/228/1 227/227/1 226/226/1
v 3.875000 1.625000 -3.875000
v 4.125000 1.625000 -3.875000
v 4.125000 1.500000 -3.875000
v 3.875000 1.500000 -3.875000
vt 0.246094 0.121094
vt 0.261719 0.121094
vt 0.261719 0.113281
vt 0.246094 0.113281
f 229/229/2 232/232/2 231/231/2 230/230/2
v 3.875000 1.625000 -4.125000
v 3.875000 1.625000 -3.875000
v 3.875000 1.500000 -3.875000
v 3.875000 1.500000 -4.125000
vt 0.246094 0.121094
vt 0.261719 0.121094
vt 0.261719 0.113281
vt 0.246094 0.113281
f 233/233/3 236/236/3 235/235/3 234/234/3
v 4.125000 1.625000 -3.875000
v 4.125000 1.625000 -4.125000
v 4.125000 1.500000 -4.125000
v 4.125000 1.500000 -3.875000
vt 0.246094 0.121094
vt 0.261719 0.121094
vt 0.261719 0.113281
vt 0.246094 0.113281
f 237/237/4 240/240/4 239/239/4 238/238/4
v 3.875000 1.625000 -4.125000
v 4.125000 1.625000 -4.125000
v 4.125000 1.625000 -3.875000
v 3.875000 1.625000 -3.875000
vt 0.976562 0.187500
vt 0.992188 0.187500
vt 0.992188 0.171875
vt 0.976562 0.171875
f 241/241/5 244/244/5 243/243/5 242/242/5
v 4.562500 1.062500 3.437500
v 3.437500 1.062500 3.437500
v 3.437500 0.875000 3.437500
v 4.562500 0.875000 3.437500
vt 0.035156 0.121094
vt 0.105469 0.121094
vt 0.105469 0.109375
vt 0.035156 0.109375
f 245/245/1 248/248/1 247/247/1 246/246/1
v 3.437500 1.062500 4.562500
v 4.562500 1.062500 4.562500
v 4.562500 0.875000 4.562500
v 3.437500 0.875000 4.562500
vt 0.035156 0.121094
vt 0.105469 0.121094
vt 0.105469 0.109375
vt 0.035156 0.109375
f 249/249/2 252/252/2 251/251/2 250/250/2
v 3.437500 1.062500 3.437500
v 3.437500 1.062500 4.562500
v 3.437500 0.875000 4.562500
v 3.437500 0.875000 3.437500
vt 0.035156 0.121094
vt 0.105469 0.121094
vt 0.105469 0.109375
vt 0.035156 0.109375
f 253/253/3 256/256/3 255/255/3 254/254/3
v 4.562500 1.062500 4.562500
v 4.562500 1.062500 3.437500
v 4.562500 0.875000 3.437500
v 4.562500 0.875000 4.562500
vt 0.035156 0.121094
vt 0.105469 0.121094
vt 0.105469 0.109375
vt 0.035156 0.109375
f 257/257/4 260/260/4 259/259/4 258/258/4
v 3.437500 1.062500 3.437500
v 4.562500 1.062500 3.437500
v 4.562500 1.062500 4.562500
v 3.437500 1.062500 4.562500
vt 0.824219 0.437500
vt 0.894531 0.437500
vt 0.894531 0.367188
vt 0.824219 0.367188
f 261/261/5 264/264/5 263/263/5 262/262/5
v 3.437500 0.875000 4.562500
v 4.562500 0.875000 4.562500
v 4.562500 0.875000 3.437500
v 3.437500 0.875000 3.437500
vt 0.824219 0.437500
vt 0.894531 0.437500
vt 0.894531 0.367188
vt 0.824219 0.367188
f 265/265/6 268/268/6 267/267/6 266/266/6
v -3.437500 1.062500 3.437500
v -4.562500 1.062500 3.437500
v -4.562500 0.875000 3.437500
v -3.437500 0.875000 3.437500
vt 0.035156 0.121094
vt 0.105469 0.121094
vt 0.105469 0.109375
vt 0.035156 0.109375
f 269/269/1 272/272/1 271/271/1 270/270/1
v -4.562500 1.062500 4.562500
v -3.437500 1.062500 4.562500
v -3.437500 0.875000 4.562500
v -4.562500 0.875000 4.562500
vt 0.035156 0.121094
vt 0.105469 0.121094
vt 0.105469 0.109375
vt 0.035156 0.109375
f 273/273/2 276/276/2 275/275/2 274/274/2
v -4.562500 1.062500 3.437500
v -4.562500 1.062500 4.562500
v -4.562500 0.875000 4.562500
v -4.562500 0.875000 3.437500
vt 0.035156 0.121094
vt 0.105469 0.121094
vt 0.105469 0.109375
vt 0.035156 0.109375
f 277/277/3 280/280/3 279/279/3 278/278/3
v -3.437500 1.062500 4.562500
v -3.437500 1.062500 3.437500
v -3.437500 0.875000 3.437500
v -3.437500 0.875000 4.562500
vt 0.035156 0.121094
vt 0.105469 0.121094
vt 0.105469 0.109375
vt 0.035156 0.109375
f 281/281/4 284/284/4 283/283/4 282/282/4
v -4.562500 1.062500 3.437500
v -3.437500 1.062500 3.437500
v -3.437500 1.062500 4.562500
v -4.562500 1.062500 4.562500
vt 0.824219 0.437500
vt 0.894531 0.437500
vt 0.894531 0.367188
vt 0.824219 0.367188
f 285/285/5 288/288/5 287/287/5 286/286/5
v -4.562500 0.875000 4.562500
v -3.437500 0.875000 4.562500
v -3.437500 0.875000 3.437500
v -4.562500 0.875000 3.437500
vt 0.824219 0.437500
vt 0.894531 0.437500
vt 0.894531 0.367188
vt 0.824219 0.367188
f 289/289/6 292/292/6 291/291/6 290/290/6
v -3.437500 1.062500 -4.562500
v -4.562500 1.062500 -4.562500
v -4.562500 0.875000 -4.562500
v -3.437500 0.875000 -4.562500
vt 0.035156 0.121094
vt 0.105469 0.121094
vt 0.105469 0.109375
vt 0.035156 0.109375
f 293/293/1 296/296/1 295/295/1 294/294/1
v -4.562500 1.062500 -3.437500
v -3.437500 1.062500 -3.437500
v -3.437500 0.875000 -3.437500
v -4.562500 0.875000 -3.437500
vt 0.035156 0.121094
vt 0.105469 0.121094
vt 0.105469 0.109375
vt 0.035156 0.109375
f 297/297/2 300/300/2 299/299/2 298/298/2
v -4.562500 1.062500 -4.562500
v -4.562500 1.062500 -3.437500
v -4.562500 0.875000 -3.437500
v -4.562500 0.875000 -4.562500
vt 0.035156 0.121094
vt 0.105469 0.121094
vt 0.105469 0.109375
vt 0.035156 0.109375
f 301/301/3 304/304/3 303/303/3 302/302/3
v -3.437500 1.062500 -3.437500
v -3.437500 1.062500 -4.562500
v -3.437500 0.875000 -4.562500
v -3.437500 0.875000 -3.437500
vt 0.035156 0.121094
vt 0.105469 0.121094
vt 0.105469 0.109375
vt 0.035156 0.109375
f 305/305/4 308/308/4 307/307/4 306/306/4
v -4.562500 1.062500 -4.562500
v -3.437500 1.062500 -4.562500
v -3.437500 1.062500 -3.437500
v -4.562500 1.062500 -3.437500
vt 0.824219 0.437500
vt 0.894531 0.437500
vt 0.894531 0.367188
vt 0.824219 0.367188
f 309/309/5 312/312/5 311/311/5 310/310/5
v -4.562500 0.875000 -3.437500
v -3.437500 0.875000 -3.437500
v -3.437500 0.875000 -4.562500
v -4.562500 0.875000 -4.562500
vt 0.824219 0.437500
vt 0.894531 0.437500
vt 0.894531 0.367188
vt 0.824219 0.367188
f 313/313/6 316/316/6 315/315/6 314/314/6
v 4.562500 1.062500 -4.562500
v 3.437500 1.062500 -4.562500
v 3.437500 0.875000 -4.562500
v 4.562500 0.875000 -4.562500
vt 0.035156 0.121094
vt 0.105469 0.121094
vt 0.105469 0.109375
vt 0.035156 0.109375
f 317/317/1 320/320/1 319/319/1 318/318/1
v 3.437500 1.062500 -3.437500
v 4.562500 1.062500 -3.437500
v 4.562500 0.875000 -3.437500
v 3.437500 0.875000 -3.437500
vt 0.035156 0.121094
vt 0.105469 0.121094
vt 0.105469 0.109375
vt 0.035156 0.109375
f 321/321/2 324/324/2 323/323/2 322/322/2
v 3.437500 1.062500 -4.562500
v 3.437500 1.062500 -3.437500
v 3.437500 0.875000 -3.437500
v 3.437500 0.875000 -4.562500
vt 0.035156 0.121094
vt 0.105469 0.121094
vt 0.105469 0.109375
vt 0.035156 0.109375
f 325/325/3 328/328/3 327/327/3 326/326/3
v 4.562500 1.062500 -3.437500
v 4.562500 1.062500 -4.562500
v 4.562500 0.875000 -4.562500
v 4.562500 0.875000 -3.437500
vt 0.035156 0.121094
vt 0.105469 0.121094
vt 0.105469 0.109375
vt 0.035156 0.109375
f 329/329/4 332/332/4 331/331/4 330/330/4
v 3.437500 1.062500 -4.562500
v 4.562500 1.062500 -4.562500
v 4.562500 1.062500 -3.437500
v 3.437500 1.062500 -3.437500
vt 0.824219 0.437500
vt 0.894531 0.437500
vt 0.894531 0.367188
vt 0.824219 0.367188
f 333/333/5 336/336/5 335/335/5 334/334/5
v 3.437500 0.875000 -3.437500
v 4.562500 0.875000 -3.437500
v 4.562500 0.875000 -4.562500
v 3.437500 0.875000 -4.562500
vt 0.824219 0.437500
vt 0.894531 0.437500
vt 0.894531 0.367188
vt 0.824219 0.367188
f 337/337/6 340/340/6 339/339/6 338/338/6
v 2.500000 1.000000 -2.500000
v -2.500000 1.000000 -2.500000
v -2.500000 0.500000 -2.500000
v 2.500000 0.500000 -2.500000
vt 0.531250 0.187500
vt 0.843750 0.187500
vt 0.843750 0.156250
vt 0.531250 0.156250
f 341/341/1 344/344/1 343/343/1 342/342/1
v -2.500000 1.000000 2.500000
v 2.500000 1.000000 2.500000
v 2.500000 0.500000 2.500000
v -2.500000 0.500000 2.500000
vt 0.531250 0.187500
vt 0.843750 0.187500
vt 0.843750 0.156250
vt 0.531250 0.156250
f 345/345/2 348/348/2 347/347/2 346/346/2
v -2.500000 1.000000 -2.500000
v -2.500000 1.000000 2.500000
v -2.500000 0.500000 2.500000
v -2.500000 0.500000 -2.500000
vt 0.531250 0.187500
vt 0.843750 0.187500
vt 0.843750 0.156250
vt 0.531250 0.156250
f 349/349/3 352/352/3 351/351/3 350/350/3
v 2.500000 1.000000 2.500000
v 2.500000 1.000000 -2.500000
v 2.500000 0.500000 -2.500000
v 2.500000 0.500000 2.500000
vt 0.531250 0.187500
vt 0.843750 0.187500
vt 0.843750 0.156250
vt 0.531250 0.156250
f 353/353/4 356/356/4 355/355/4 354/354/4
v -2.500000 1.000000 -2.500000
v 2.500000 1.000000 -2.500000
v 2.500000 1.000000 2.500000
v -2.500000 1.000000 2.500000
vt 0.554688 1.000000
vt 0.867188 1.000000
vt 0.867188 0.687500
vt 0.554688 0.687500
f 357/357/5 360/360/5 359/359/5 358/358/5
v 3.500000 1.000000 -1.500000
v 2.500000 1.000000 -1.500000
v 2.500000 0.500000 -1.500000
v 3.500000 0.500000 -1.500000
vt 0.843750 0.187500
vt 0.906250 0.187500
vt 0.906250 0.156250
vt 0.843750 0.156250
f 361/361/1 364/364/1 363/363/1 362/362/1
v 2.500000 1.000000 1.500000
v 3.500000 1.000000 1.500000
v 3.500000 0.500000 1.500000
v 2.500000 0.500000 1.500000
vt 0.843750 0.187500
vt 0.906250 0.187500
vt 0.906250 0.156250
vt 0.843750 0.156250
f 365/365/2 368/368/2 367/367/2 366/366/2
v 3.500000 1.000000 1.500000
v 3.500000 1.000000 -1.500000
v 3.500000 0.500000 -1.500000
v 3.500000 0.500000 1.500000
vt 0.187500 0.152344
vt 0.375000 0.152344
vt 0.375000 0.121094
vt 0.187500 0.121094
f 369/369/4 372/372/4 371/371/4 370/370/4
v 2.500000 1.000000 -1.500000
v 3.500000 1.000000 -1.500000
v 3.500000 1.000000 1.500000
v 2.500000 1.000000 1.500000
vt 0.929688 1.000000
vt 0.992188 1.000000
vt 0.992188 0.812500
vt 0.929688 0.812500
f 373/373/5 376/376/5 375/375/5 374/374/5
v -1.500000 1.000000 3.500000
v 1.500000 1.000000 3.500000
v 1.500000 0.500000 3.500000
v -1.500000 0.500000 3.500000
vt 0.187500 0.152344
vt 0.375000 0.152344
vt 0.375000 0.121094
vt 0.187500 0.121094
f 377/377/2 380/380/2 379/379/2 378/378/2
v -1.500000 1.000000 2.500000
v -1.500000 1.000000 3.500000
v -1.500000 0.500000 3.500000
v -1.500000 0.500000 2.500000
vt 0.843750 0.187500
vt 0.906250 0.187500
vt 0.906250 0.156250
vt 0.843750 0.156250
f 381/381/3 384/384/3 383/383/3 382/382/3
v 1.500000 1.000000 3.500000
v 1.500000 1.000000 2.500000
v 1.500000 0.500000 2.500000
v 1.500000 0.500000 3.500000
vt 0.843750 0.187500
vt 0.906250 0.187500
vt 0.906250 0.156250
vt 0.843750 0.156250
f 385/385/4 388/388/4 387/387/4 386/386/4
v -1.500000 1.000000 2.500000
v 1.500000 1.000000 2.500000
v 1.500000 1.000000 3.500000
v -1.500000 1.000000 3.500000
vt 0.187500 0.250000
vt 0.375000 0.250000
vt 0.375000 0.187500
vt 0.187500 0.187500
f 389/389/5 392/392/5 391/391/5 390/390/5
v -2.500000 1.000000 -1.500000
v -3.500000 1.000000 -1.500000
v -3.500000 0.500000 -1.500000
v -2.500000 0.500000 -1.500000
vt 0.843750 0.187500
vt 0.906250 0.187500
vt 0.906250 0.156250
vt 0.843750 0.156250
f 393/393/1 396/396/1 395/395/1 394/394/1
v -3.500000 1.000000 1.500000
v -2.500000 1.000000 1.500000
v -2.500000 0.500000 1.500000
v -3.500000 0.500000 1.500000
vt 0.843750 0.187500
vt 0.906250 0.187500
vt 0.906250 0.156250
vt 0.843750 0.156250
f 397/397/2 400/400/2 399/399/2 398/398/2
v -3.500000 1.000000 -1.500000
v -3.500000 1.000000 1.500000
v -3.500000 0.500000 1.500000
v -3.500000 0.500000 -1.500000
vt 0.187500 0.152344
vt 0.375000 0.152344
vt 0.375000 0.121094
vt 0.187500 0.121094
f 401/401/3 404/404/3 403/403/3 402/402/3
v -3.500000 1.000000 -1.500000
v -2.500000 1.000000 -1.500000
v -2.500000 1.000000 1.500000
v -3.500000 1.000000 1.500000
vt 0.929688 1.000000
vt 0.992188 1.000000
vt 0.992188 0.812500
vt 0.929688 0.812500
f 405/405/5 408/408/5 407/407/5 406/406/5
v 1.500000 1.000000 -3.500000
v -1.500000 1.000000 -3.500000
v -1.500000 0.500000 -3.500000
v 1.500000 0.500000 -3.500000
vt 0.187500 0.152344
vt 0.375000 0.152344
vt 0.375000 0.121094
vt 0.187500 0.121094
f 409/409/1 412/412/1 411/411/1 410/410/1
v -1.500000 1.000000 -3.500000
v -1.500000 1.000000 -2.500000
v -1.500000 0.500000 -2.500000
v -1.500000 0.500000 -3.500000
vt 0.843750 0.187500
vt 0.906250 0.187500
vt 0.906250 0.156250
vt 0.843750 0.156250
f 413/413/3 416/416/3 415/415/3 414/414/3
v 1.500000 1.000000 -2.500000
v 1.500000 1.000000 -3.500000
v 1.500000 0.500000 -3.500000
v 1.500000 0.500000 -2.500000
vt 0.843750 0.187500
vt 0.906250 0.187500
vt 0.906250 0.156250
vt 0.843750 0.156250
f 417/417/4 420/420/4 419/419/4 418/418/4
v -1.500000 1.000000 -3.500000
v 1.500000 1.000000 -3.500000
v 1.500000 1.000000 -2.500000
v -1.500000 1.000000 -2.500000
vt 0.187500 0.250000
vt 0.375000 0.250000
vt 0.375000 0.187500
vt 0.187500 0.187500
f 421/421/5 424/424/5 423/423/5 422/422/5
v 1.500000 2.000000 -1.500000
v -1.500000 2.000000 -1.500000
v -1.500000 1.000000 -1.500000
v 1.500000 1.000000 -1.500000
vt 0.375000 0.250000
vt 0.562500 0.250000
vt 0.562500 0.187500
vt 0.375000 0.187500
f 425/425/1 428/428/1 427/427/1 426/426/1
v -1.500000 2.000000 1.500000
v 1.500000 2.000000 1.500000
v 1.500000 1.000000 1.500000
v -1.500000 1.000000 1.500000
vt 0.562500 0.250000
vt 0.750000 0.250000
vt 0.750000 0.187500
vt 0.562500 0.187500
f 429/429/2 432/432/2 431/431/2 430/430/2
v -1.500000 2.000000 -1.500000
v -1.500000 2.000000 1.500000
v -1.500000 1.000000 1.500000
v -1.500000 1.000000 -1.500000
vt 0.750000 0.250000
vt 0.937500 0.250000
vt 0.937500 0.187500
vt 0.750000 0.187500
f 433/433/3 436/436/3 435/435/3 434/434/3
v 1.500000 2.000000 1.500000
v 1.500000 2.000000 -1.500000
v 1.500000 1.000000 -1.500000
v 1.500000 1.000000 1.500000
vt 0.750000 0.250000
vt 0.937500 0.250000
vt 0.937500 0.187500
vt 0.750000 0.187500
f 437/437/4 440/440/4 439/439/4 438/438/4
v -1.500000 2.000000 -1.500000
v 1.500000 2.000000 -1.500000
v 1.500000 2.000000 1.500000
v -1.500000 2.000000 1.500000
vt 0.000000 0.437500
vt 0.187500 0.437500
vt 0.187500 0.250000
vt 0.000000 0.250000
f 441/441/5 444/444/5 443/443/5 442/442/5
v 1.875000 2.375000 -0.687500
v 1.500000 2.375000 -0.687500
v 1.500000 1.000000 -0.687500
v 1.875000 1.000000 -0.687500
vt 0.722656 0.437500
vt 0.746094 0.437500
vt 0.746094 0.351562
vt 0.722656 0.351562
f 445/445/1 448/448/1 447/447/1 446/446/1
v 1.500000 2.375000 -0.312500
v 1.875000 2.375000 -0.312500
v 1.875000 1.000000 -0.312500
v 1.500000 1.000000 -0.312500
vt 0.722656 0.437500
vt 0.746094 0.437500
vt 0.746094 0.351562
vt 0.722656 0.351562
f 449/449/2 452/452/2 451/451/2 450/450/2
v 1.500000 2.375000 -0.687500
v 1.500000 2.375000 -0.312500
v 1.500000 1.000000 -0.312500
v 1.500000 1.000000 -0.687500
vt 0.722656 0.437500
vt 0.746094 0.437500
vt 0.746094 0.351562
vt 0.722656 0.351562
f 453/453/3 456/456/3 455/455/3 454/454/3
v 1.875000 2.375000 -0.312500
v 1.875000 2.375000 -0.687500
v 1.875000 1.000000 -0.687500
v 1.875000 1.000000 -0.312500
vt 0.722656 0.437500
vt 0.746094 0.437500
vt 0.746094 0.351562
vt 0.722656 0.351562
f 457/457/4 460/460/4 459/459/4 458/458/4
v 1.500000 2.375000 -0.687500
v 1.875000 2.375000 -0.687500
v 1.875000 2.375000 -0.312500
v 1.500000 2.375000 -0.312500
vt 0.972656 0.437500
vt 0.996094 0.437500
vt 0.996094 0.414062
vt 0.972656 0.414062
f 461/461/5 464/464/5 463/463/5 462/462/5
v 0.687500 2.375000 1.500000
v 0.312500 2.375000 1.500000
v 0.312500 1.000000 1.500000
v 0.687500 1.000000 1.500000
vt 0.722656 0.437500
vt 0.746094 0.437500
vt 0.746094 0.351562
vt 0.722656 0.351562
f 465/465/1 468/468/1 467/467/1 466/466/1
v 0.312500 2.375000 1.875000
v 0.687500 2.375000 1.875000
v 0.687500 1.000000 1.875000
v 0.312500 1.000000 1.875000
vt 0.722656 0.437500
vt 0.746094 0.437500
vt 0.746094 0.351562
vt 0.722656 0.351562
f 469/469/2 472/472/2 471/471/2 470/470/2
v 0.312500 2.375000 1.500000
v 0.312500 2.375000 1.875000
v 0.312500 1.000000 1.875000
v 0.312500 1.000000 1.500000
vt 0.722656 0.437500
vt 0.746094 0.437500
vt 0.746094 0.351562
vt 0.722656 0.351562
f 473/473/3 476/476/3 475/475/3 474/474/3
v 0.687500 2.375000 1.875000
v 0.687500 2.375000 1.500000
v 0.687500 1.000000 1.500000
v 0.687500 1.000000 1.875000
vt 0.722656 0.437500
vt 0.746094 0.437500
vt 0.746094 0.351562
vt 0.722656 0.351562
f 477/477/4 480/480/4 479/479/4 478/478/4
v 0.312500 2.375000 1.500000
v 0.687500 2.375000 1.500000
v 0.687500 2.375000 1.875000
v 0.312500 2.375000 1.875000
vt 0.972656 0.437500
vt 0.996094 0.437500
vt 0.996094 0.414062
vt 0.972656 0.414062
f 481/481/5 484/484/5 483/483/5 482/482/5
v -1.500000 2.375000 0.312500
v -1.875000 2.375000 0.312500
v -1.875000 1.000000 0.312500
v -1.500000 1.000000 0.312500
vt 0.722656 0.437500
vt 0.746094 0.437500
vt 0.746094 0.351562
vt 0.722656 0.351562
f 485/485/1 488/488/1 487/487/1 486/486/1
v -1.875000 2.375000 0.687500
v -1.500000 2.375000 0.687500
v -1.500000 1.000000 0.687500
v -1.875000 1.000000 0.687500
vt 0.722656 0.437500
vt 0.746094 0.437500
vt 0.746094 0.351562
vt 0.722656 0.351562
f 489/489/2 492/492/2 491/491/2 490/490/2
v -1.875000 2.375000 0.312500
v -1.875000 2.375000 0.687500
v -1.875000 1.000000 0.687500
v -1.875000 1.000000 0.312500
vt 0.722656 0.437500
vt 0.746094 0.437500
vt 0.746094 0.351562
vt 0.722656 0.351562
f 493/493/3 496/496/3 495/495/3 494/494/3
v -1.500000 2.375000 0.687500
v -1.500000 2.375000 0.312500
v -1.500000 1.000000 0.312500
v -1.500000 1.000000 0.687500
vt 0.722656 0.437500
vt 0.746094 0.437500
vt 0.746094 0.351562
vt 0.722656 0.351562
f 497/497/4 500/500/4 499/499/4 498/498/4
v -1.875000 2.375000 0.312500
v -1.500000 2.375000 0.312500
v -1.500000 2.375000 0.687500
v -1.875000 2.375000 0.687500
vt 0.972656 0.437500
vt 0.996094 0.437500
vt 0.996094 0.414062
vt 0.972656 0.414062
f 501/501/5 504/504/5 503/503/5 502/502/5
v -0.312500 2.375000 -1.875000
v -0.687500 2.375000 -1.875000
v -0.687500 1.000000 -1.875000
v -0.312500 1.000000 -1.875000
vt 0.722656 0.437500
vt 0.746094 0.437500
vt 0.746094 0.351562
vt 0.722656 0.351562
f 505/505/1 508/508/1 507/507/1 506/506/1
v -0.687500 2.375000 -1.500000
v -0.312500 2.375000 -1.500000
v -0.312500 1.000000 -1.500000
v -0.687500 1.000000 -1.500000
vt 0.722656 0.437500
vt 0.746094 0.437500
vt 0.746094 0.351562
vt 0.722656 0.351562
f 509/509/2 512/512/2 511/511/2 510/510/2
v -0.687500 2.375000 -1.875000
v -0.687500 2.375000 -1.500000
v -0.687500 1.000000 -1.500000
v -0.687500 1.000000 -1.875000
vt 0.722656 0.437500
vt 0.746094 0.437500
vt 0.746094 0.351562
vt 0.722656 0.351562
f 513/513/3 516/516/3 515/515/3 514/514/3
v -0.312500 2.375000 -1.500000
v -0.312500 2.375000 -1.875000
v -0.312500 1.000000 -1.875000
v -0.312500 1.000000 -1.500000
vt 0.722656 0.437500
vt 0.746094 0.437500
vt 0.746094 0.351562
vt 0.722656 0.351562
f 517/517/4 520/520/4 519/519/4 518/518/4
v -0.687500 2.375000 -1.875000
v -0.312500 2.375000 -1.875000
v -0.312500 2.375000 -1.500000
v -0.687500 2.375000 -1.500000
vt 0.972656 0.437500
vt 0.996094 0.437500
vt 0.996094 0.414062
vt 0.972656 0.414062
f 521/521/5 524/524/5 523/523/5 522/522/5
v 1.875000 2.375000 0.312500
v 1.500000 2.375000 0.312500
v 1.500000 1.000000 0.312500
v 1.875000 1.000000 0.312500
vt 0.722656 0.437500
vt 0.746094 0.437500
vt 0.746094 0.351562
vt 0.722656 0.351562
f 525/525/1 528/528/1 527/527/1 526/526/1
v 1.500000 2.375000 0.687500
v 1.875000 2.375000 0.687500
v 1.875000 1.000000 0.687500
v 1.500000 1.000000 0.687500
vt 0.722656 0.437500
vt 0.746094 0.437500
vt 0.746094 0.351562
vt 0.722656 0.351562
f 529/529/2 532/532/2 531/531/2 530/530/2
v 1.500000 2.375000 0.312500
v 1.500000 2.375000 0.687500
v 1.500000 1.000000 0.687500
v 1.500000 1.000000 0.312500
vt 0.722656 0.437500
vt 0.746094 0.437500
vt 0.746094 0.351562
vt 0.722656 0.351562
f 533/533/3 536/536/3 535/535/3 534/534/3
v 1.875000 2.375000 0.687500
v 1.875000 2.375000 0.312500
v 1.875000 1.000000 0.312500
v 1.875000 1.000000 0.687500
vt 0.722656 0.437500
vt 0.746094 0.437500
vt 0.746094 0.351562
vt 0.722656 0.351562
f 537/537/4 540/540/4 539/539/4 538/538/4
v 1.500000 2.375000 0.312500
v 1.875000 2.375000 0.312500
v 1.875000 2.375000 0.687500
v 1.500000 2.375000 0.687500
vt 0.972656 0.437500
vt 0.996094 0.437500
vt 0.996094 0.414062
vt 0.972656 0.414062
f 541/541/5 544/544/5 543/543/5 542/542/5
v -0.312500 2.375000 1.500000
v -0.687500 2.375000 1.500000
v -0.687500 1.000000 1.500000
v -0.312500 1.000000 1.500000
vt 0.722656 0.437500
vt 0.746094 0.437500
vt 0.746094 0.351562
vt 0.722656 0.351562
f 545/545/1 548/548/1 547/547/1 546/546/1
v -0.687500 2.375000 1.875000
v -0.312500 2.375000 1.875000
v -0.312500 1.000000 1.875000
v -0.687500 1.000000 1.875000
vt 0.722656 0.437500
vt 0.746094 0.437500
vt 0.746094 0.351562
vt 0.722656 0.351562
f 549/549/2 552/552/2 551/551/2 550/550/2
v -0.687500 2.375000 1.500000
v -0.687500 2.375000 1.875000
v -0.687500 1.000000 1.875000
v -0.687500 1.000000 1.500000
vt 0.722656 0.437500
vt 0.746094 0.437500
vt 0.746094 0.351562
vt 0.722656 0.351562
f 553/553/3 556/556/3 555/555/3 554/554/3
v -0.312500 2.375000 1.875000
v -0.312500 2.375000 1.500000
v -0.312500 1.000000 1.500000
v -0.312500 1.000000 1.875000
vt 0.722656 0.437500
vt 0.746094 0.437500
vt 0.746094 0.351562
vt 0.722656 0.351562
f 557/557/4 560/560/4 559/559/4 558/558/4
v -0.687500 2.375000 1.500000
v -0.312500 2.375000 1.500000
v -0.312500 2.375000 1.875000
v -0.687500 2.375000 1.875000
vt 0.972656 0.437500
vt 0.996094 0.437500
vt 0.996094 0.414062
vt 0.972656 0.414062
f 561/561/5 564/564/5 563/563/5 562/562/5
v -1.500000 2.375000 -0.687500
v -1.875000 2.375000 -0.687500
v -1.875000 1.000000 -0.687500
v -1.500000 1.000000 -0.687500
vt 0.722656 0.437500
vt 0.746094 0.437500
vt 0.746094 0.351562
vt 0.722656 0.351562
f 565/565/1 568/568/1 567/567/1 566/566/1
v -1.875000 2.375000 -0.312500
v -1.500000 2.375000 -0.312500
v -1.500000 1.000000 -0.312500
v -1.875000 1.000000 -0.312500
vt 0.722656 0.437500
vt 0.746094 0.437500
vt 0.746094 0.351562
vt 0.722656 0.351562
f 569/569/2 572/572/2 571/571/2 570/570/2
v -1.875000 2.375000 -0.687500
v -1.875000 2.375000 -0.312500
v -1.875000 1.000000 -0.312500
v -1.875000 1.000000 -0.687500
vt 0.722656 0.437500
vt 0.746094 0.437500
vt 0.746094 0.351562
vt 0.722656 0.351562
f 573/573/3 576/576/3 575/575/3 574/574/3
v -1.500000 2.375000 -0.312500
v -1.500000 2.375000 -0.687500
v -1.500000 1.000000 -0.687500
v -1.500000 1.000000 -0.312500
vt 0.722656 0.437500
vt 0.746094 0.437500
vt 0.746094 0.351562
vt 0.722656 0.351562
f 577/577/4 580/580/4 579/579/4 578/578/4
v -1.875000 2.375000 -0.687500
v -1.500000 2.375000 -0.687500
v -1.500000 2.375000 -0.312500
v -1.875000 2.375000 -0.312500
vt 0.972656 0.437500
vt 0.996094 0.437500
vt 0.996094 0.414062
vt 0.972656 0.414062
f 581/581/5 584/584/5 583/583/5 582/582/5
v 0.687500 2.375000 -1.875000
v 0.312500 2.375000 -1.875000
v 0.312500 1.000000 -1.875000
v 0.687500 1.000000 -1.875000
vt 0.722656 0.437500
vt 0.746094 0.437500
vt 0.746094 0.351562
vt 0.722656 0.351562
f 585/585/1 588/588/1 587/587/1 586/586/1
v 0.312500 2.375000 -1.500000
v 0.687500 2.375000 -1.500000
v 0.687500 1.000000 -1.500000
v 0.312500 1.000000 -1.500000
vt 0.722656 0.437500
vt 0.746094 0.437500
vt 0.746094 0.351562
vt 0.722656 0.351562
f 589/589/2 592/592/2 591/591/2 590/590/2
v 0.312500 2.375000 -1.875000
v 0.312500 2.375000 -1.500000
v 0.312500 1.000000 -1.500000
v 0.312500 1.000000 -1.875000
vt 0.722656 0.437500
vt 0.746094 0.437500
vt 0.746094 0.351562
vt 0.722656 0.351562
f 593/593/3 596/596/3 595/595/3 594/594/3
v 0.687500 2.375000 -1.500000
v 0.687500 2.375000 -1.875000
v 0.687500 1.000000 -1.875000
v 0.687500 1.000000 -1.500000
vt 0.722656 0.437500
vt 0.746094 0.437500
vt 0.746094 0.351562
vt 0.722656 0.351562
f 597/597/4 600/600/4 599/599/4 598/598/4
v 0.312500 2.375000 -1.875000
v 0.687500 2.375000 -1.875000
v 0.687500 2.375000 -1.500000
v 0.312500 2.375000 -1.500000
vt 0.972656 0.437500
vt 0.996094 0.437500
vt 0.996094 0.414062
vt 0.972656 0.414062
f 601/601/5 604/604/5 603/603/5 602/602/5
v 1.937500 2.500000 -0.750000
v 1.375000 2.500000 -0.750000
v 1.375000 2.250000 -0.750000
v 1.937500 2.250000 -0.750000
vt 0.000000 0.121094
vt 0.035156 0.121094
vt 0.035156 0.105469
vt 0.000000 0.105469
f 605/605/1 608/608/1 607/607/1 606/606/1
v 1.375000 2.500000 0.750000
v 1.937500 2.500000 0.750000
v 1.937500 2.250000 0.750000
v 1.375000 2.250000 0.750000
vt 0.000000 0.121094
vt 0.035156 0.121094
vt 0.035156 0.105469
vt 0.000000 0.105469
f 609/609/2 612/612/2 611/611/2 610/610/2
v 1.375000 2.500000 -0.750000
v 1.375000 2.500000 0.750000
v 1.375000 2.250000 0.750000
v 1.375000 2.250000 -0.750000
vt 0.671875 0.152344
vt 0.765625 0.152344
vt 0.765625 0.136719
vt 0.671875 0.136719
f 613/613/3 616/616/3 615/615/3 614/614/3
v 1.937500 2.500000 0.750000
v 1.937500 2.500000 -0.750000
v 1.937500 2.250000 -0.750000
v 1.937500 2.250000 0.750000
vt 0.671875 0.152344
vt 0.765625 0.152344
vt 0.765625 0.136719
vt 0.671875 0.136719
f 617/617/4 620/620/4 619/619/4 618/618/4
v 1.375000 2.500000 -0.750000
v 1.937500 2.500000 -0.750000
v 1.937500 2.500000 0.750000
v 1.375000 2.500000 0.750000
vt 0.687500 0.437500
vt 0.722656 0.437500
vt 0.722656 0.343750
vt 0.687500 0.343750
f 621/621/5 624/624/5 623/623/5 622/622/5
v 1.375000 2.250000 0.750000
v 1.937500 2.250000 0.750000
v 1.937500 2.250000 -0.750000
v 1.375000 2.250000 -0.750000
vt 0.687500 0.437500
vt 0.722656 0.437500
vt 0.722656 0.343750
vt 0.687500 0.343750
f 625/625/6 628/628/6 627/627/6 626/626/6
v 0.750000 2.500000 1.375000
v -0.750000 2.500000 1.375000
v -0.750000 2.250000 1.375000
v 0.750000 2.250000 1.375000
vt 0.671875 0.152344
vt 0.765625 0.152344
vt 0.765625 0.136719
vt 0.671875 0.136719
f 629/629/1 632/632/1 631/631/1 630/630/1
v -0.750000 2.500000 1.937500
v 0.750000 2.500000 1.937500
v 0.750000 2.250000 1.937500
v -0.750000 2.250000 1.937500
vt 0.671875 0.152344
vt 0.765625 0.152344
vt 0.765625 0.136719
vt 0.671875 0.136719
f 633/633/2 636/636/2 635/635/2 634/634/2
v -0.750000 2.500000 1.375000
v -0.750000 2.500000 1.937500
v -0.750000 2.250000 1.937500
v -0.750000 2.250000 1.375000
vt 0.000000 0.121094
vt 0.035156 0.121094
vt 0.035156 0.105469
vt 0.000000 0.105469
f 637/637/3 640/640/3 639/639/3 638/638/3
v 0.750000 2.500000 1.937500
v 0.750000 2.500000 1.375000
v 0.750000 2.250000 1.375000
v 0.750000 2.250000 1.937500
vt 0.000000 0.121094
vt 0.035156 0.121094
vt 0.035156 0.105469
vt 0.000000 0.105469
f 641/641/4 644/644/4 643/643/4 642/642/4
v -0.750000 2.500000 1.375000
v 0.750000 2.500000 1.375000
v 0.750000 2.500000 1.937500
v -0.750000 2.500000 1.937500
vt 0.000000 0.187500
vt 0.093750 0.187500
vt 0.093750 0.152344
vt 0.000000 0.152344
f 645/645/5 648/648/5 647/647/5 646/646/5
v -0.750000 2.250000 1.937500
v 0.750000 2.250000 1.937500
v 0.750000 2.250000 1.375000
v -0.750000 2.250000 1.375000
vt 0.000000 0.187500
vt 0.093750 0.187500
vt 0.093750 0.152344
vt 0.000000 0.152344
f 649/649/6 652/652/6 651/651/6 650/650/6
v -1.375000 2.500000 -0.750000
v -1.937500 2.500000 -0.750000
v -1.937500 2.250000 -0.750000
v -1.375000 2.250000 -0.750000
vt 0.000000 0.121094
vt 0.035156 0.121094
vt 0.035156 0.105469
vt 0.000000 0.105469
f 653/653/1 656/656/1 655/655/1 654/654/1
v -1.937500 2.500000 0.750000
v -1.375000 2.500000 0.750000
v -1.375000 2.250000 0.750000
v -1.937500 2.250000 0.750000
vt 0.000000 0.121094
vt 0.035156 0.121094
vt 0.035156 0.105469
vt 0.000000 0.105469
f 657/657/2 660/660/2 659/659/2 658/658/2
v -1.937500 2.500000 -0.750000
v -1.937500 2.500000 0.750000
v -1.937500 2.250000 0.750000
v -1.937500 2.250000 -0.750000
vt 0.671875 0.152344
vt 0.765625 0.152344
vt 0.765625 0.136719
vt 0.671875 0.136719
f 661/661/3 664/664/3 663/663/3 662/662/3
v -1.375000 2.500000 0.750000
v -1.375000 2.500000 -0.750000
v -1.375000 2.250000 -0.750000
v -1.375000 2.250000 0.750000
vt 0.671875 0.152344
vt 0.765625 0.152344
vt 0.765625 0.136719
vt 0.671875 0.136719
f 665/665/4 668/668/4 667/667/4 666/666/4
v -1.937500 2.500000 -0.750000
v -1.375000 2.500000 -0.750000
v -1.375000 2.500000 0.750000
v -1.937500 2.500000 0.750000
vt 0.687500 0.437500
vt 0.722656 0.437500
vt 0.722656 0.343750
vt 0.687500 0.343750
f 669/669/5 672/672/5 671/671/5 670/670/5
v -1.937500 2.250000 0.750000
v -1.375000 2.250000 0.750000
v -1.375000 2.250000 -0.750000
v -1.937500 2.250000 -0.750000
vt 0.687500 0.437500
vt 0.722656 0.437500
vt 0.722656 0.343750
vt 0.687500 0.343750
f 673/673/6 676/676/6 675/675/6 674/674/6
v 0.750000 2.500000 -1.937500
v -0.750000 2.500000 -1.937500
v -0.750000 2.250000 -1.937500
v 0.750000 2.250000 -1.937500
vt 0.671875 0.152344
vt 0.765625 0.152344
vt 0.765625 0.136719
vt 0.671875 0.136719
f 677/677/1 680/680/1 679/679/1 678/678/1
v -0.750000 2.500000 -1.375000
v 0.750000 2.500000 -1.375000
v 0.750000 2.250000 -1.375000
v -0.750000 2.250000 -1.375000
vt 0.671875 0.152344
vt 0.765625 0.152344
vt 0.765625 0.136719
vt 0.671875 0.136719
f 681/681/2 684/684/2 683/683/2 682/682/2
v -0.750000 2.500000 -1.937500
v -0.750000 2.500000 -1.375000
v -0.750000 2.250000 -1.375000
v -0.750000 2.250000 -1.937500
vt 0.000000 0.121094
vt 0.035156 0.121094
vt 0.035156 0.105469
vt 0.000000 0.105469
f 685/685/3 688/688/3 687/687/3 686/686/3
v 0.750000 2.500000 -1.375000
v 0.750000 2.500000 -1.937500
v 0.750000 2.250000 -1.937500
v 0.750000 2.250000 -1.375000
vt 0.000000 0.121094
vt 0.035156 0.121094
vt 0.035156 0.105469
vt 0.000000 0.105469
f 689/689/4 692/692/4 691/691/4 690/690/4
v -0.750000 2.500000 -1.937500
v 0.750000 2.500000 -1.937500
v 0.750000 2.500000 -1.375000
v -0.750000 2.500000 -1.375000
vt 0.000000 0.187500
vt 0.093750 0.187500
vt 0.093750 0.152344
vt 0.000000 0.152344
f 693/693/5 696/696/5 695/695/5 694/694/5
v -0.750000 2.250000 -1.375000
v 0.750000 2.250000 -1.375000
v 0.750000 2.250000 -1.937500
v -0.750000 2.250000 -1.937500
vt 0.000000 0.187500
vt 0.093750 0.187500
vt 0.093750 0.152344
vt 0.000000 0.152344
f 697/697/6 700/700/6 699/699/6 698/698/6
v 1.312500 2.250000 -1.312500
v -1.312500 2.250000 -1.312500
v -1.312500 2.000000 -1.312500
v 1.312500 2.000000 -1.312500
vt 0.507812 0.152344
vt 0.671875 0.152344
vt 0.671875 0.136719
vt 0.507812 0.136719
f 701/701/1 704/704/1 703/703/1 702/702/1
v -1.312500 2.250000 1.312500
v 1.312500 2.250000 1.312500
v 1.312500 2.000000 1.312500
v -1.312500 2.000000 1.312500
vt 0.507812 0.152344
vt 0.671875 0.152344
vt 0.671875 0.136719
vt 0.507812 0.136719
f 705/705/2 708/708/2 707/707/2 706/706/2
v -1.312500 2.250000 -1.312500
v -1.312500 2.250000 1.312500
v -1.312500 2.000000 1.312500
v -1.312500 2.000000 -1.312500
vt 0.507812 0.152344
vt 0.671875 0.152344
vt 0.671875 0.136719
vt 0.507812 0.136719
f 709/709/3 712/712/3 711/711/3 710/710/3
v 1.312500 2.250000 1.312500
v 1.312500 2.250000 -1.312500
v 1.312500 2.000000 -1.312500
v 1.312500 2.000000 1.312500
vt 0.507812 0.152344
vt 0.671875 0.152344
vt 0.671875 0.136719
vt 0.507812 0.136719
f 713/713/4 716/716/4 715/715/4 714/714/4
v -1.312500 2.250000 -1.312500
v 1.312500 2.250000 -1.312500
v 1.312500 2.250000 1.312500
v -1.312500 2.250000 1.312500
vt 0.187500 0.437500
vt 0.351562 0.437500
vt 0.351562 0.273438
vt 0.187500 0.273438
f 717/717/5 720/720/5 719/719/5 718/718/5
v 1.062500 2.687500 -1.062500
v -1.062500 2.687500 -1.062500
v -1.062500 2.312500 -1.062500
v 1.062500 2.312500 -1.062500
vt 0.375000 0.152344
vt 0.507812 0.152344
vt 0.507812 0.128906
vt 0.375000 0.128906
f 721/721/1 724/724/1 723/723/1 722/722/1
v -1.062500 2.687500 1.062500
v 1.062500 2.687500 1.062500
v 1.062500 2.312500 1.062500
v -1.062500 2.312500 1.062500
vt 0.375000 0.152344
vt 0.507812 0.152344
vt 0.507812 0.128906
vt 0.375000 0.128906
f 725/725/2 728/728/2 727/727/2 726/726/2
v -1.062500 2.687500 -1.062500
v -1.062500 2.687500 1.062500
v -1.062500 2.312500 1.062500
v -1.062500 2.312500 -1.062500
vt 0.375000 0.152344
vt 0.507812 0.152344
vt 0.507812 0.128906
vt 0.375000 0.128906
f 729/729/3 732/732/3 731/731/3 730/730/3
v 1.062500 2.687500 1.062500
v 1.062500 2.687500 -1.062500
v 1.062500 2.312500 -1.062500
v 1.062500 2.312500 1.062500
vt 0.375000 0.152344
vt 0.507812 0.152344
vt 0.507812 0.128906
vt 0.375000 0.128906
f 733/733/4 736/736/4 735/735/4 734/734/4
v -1.062500 2.687500 -1.062500
v 1.062500 2.687500 -1.062500
v 1.062500 2.687500 1.062500
v -1.062500 2.687500 1.062500
vt 0.492188 0.437500
vt 0.625000 0.437500
vt 0.625000 0.304688
vt 0.492188 0.304688
f 737/737/5 740/740/5 739/739/5 738/738/5
v -1.062500 2.312500 1.062500
v 1.062500 2.312500 1.062500
v 1.062500 2.312500 -1.062500
v -1.062500 2.312500 -1.062500
vt 0.492188 0.437500
vt 0.625000 0.437500
vt 0.625000 0.304688
vt 0.492188 0.304688
f 741/741/6 744/744/6 743/743/6 742/742/6
v 1.125000 2.312500 -1.125000
v -1.125000 2.312500 -1.125000
v -1.125000 2.187500 -1.125000
v 1.125000 2.187500 -1.125000
vt 0.105469 0.121094
vt 0.246094 0.121094
vt 0.246094 0.113281
vt 0.105469 0.113281
f 745/745/1 748/748/1 747/747/1 746/746/1
v -1.125000 2.312500 1.125000
v 1.125000 2.312500 1.125000
v 1.125000 2.187500 1.125000
v -1.125000 2.187500 1.125000
vt 0.105469 0.121094
vt 0.246094 0.121094
vt 0.246094 0.113281
vt 0.105469 0.113281
f 749/749/2 752/752/2 751/751/2 750/750/2
v -1.125000 2.312500 -1.125000
v -1.125000 2.312500 1.125000
v -1.125000 2.187500 1.125000
v -1.125000 2.187500 -1.125000
vt 0.105469 0.121094
vt 0.246094 0.121094
vt 0.246094 0.113281
vt 0.105469 0.113281
f 753/753/3 756/756/3 755/755/3 754/754/3
v 1.125000 2.312500 1.125000
v 1.125000 2.312500 -1.125000
v 1.125000 2.187500 -1.125000
v 1.125000 2.187500 1.125000
vt 0.105469 0.121094
vt 0.246094 0.121094
vt 0.246094 0.113281
vt 0.105469 0.113281
f 757/757/4 760/760/4 759/759/4 758/758/4
v -1.125000 2.312500 -1.125000
v 1.125000 2.312500 -1.125000
v 1.125000 2.312500 1.125000
v -1.125000 2.312500 1.125000
vt 0.351562 0.437500
vt 0.492188 0.437500
vt 0.492188 0.296875
vt 0.351562 0.296875
f 761/761/5 764/764/5 763/763/5 762/762/5
v -1.125000 2.187500 1.125000
v 1.125000 2.187500 1.125000
v 1.125000 2.187500 -1.125000
v -1.125000 2.187500 -1.125000
vt 0.351562 0.437500
vt 0.492188 0.437500
vt 0.492188 0.296875
vt 0.351562 0.296875
f 765/765/6 768/768/6 767/767/6 766/766/6
v 1.062500 3.687500 -1.062500
v -1.062500 3.687500 -1.062500
v -1.062500 3.312500 -1.062500
v 1.062500 3.312500 -1.062500
vt 0.375000 0.152344
vt 0.507812 0.152344
vt 0.507812 0.128906
vt 0.375000 0.128906
f 769/769/1 772/772/1 771/771/1 770/770/1
v -1.062500 3.687500 1.062500
v 1.062500 3.687500 1.062500
v 1.062500 3.312500 1.062500
v -1.062500 3.312500 1.062500
vt 0.375000 0.152344
vt 0.507812 0.152344
vt 0.507812 0.128906
vt 0.375000 0.128906
f 773/773/2 776/776/2 775/775/2 774/774/2
v -1.062500 3.687500 -1.062500
v -1.062500 3.687500 1.062500
v -1.062500 3.312500 1.062500
v -1.062500 3.312500 -1.062500
vt 0.375000 0.152344
vt 0.507812 0.152344
vt 0.507812 0.128906
vt 0.375000 0.128906
f 777/777/3 780/780/3 779/779/3 778/778/3
v 1.062500 3.687500 1.062500
v 1.062500 3.687500 -1.062500
v 1.062500 3.312500 -1.062500
v 1.062500 3.312500 1.062500
vt 0.375000 0.152344
vt 0.507812 0.152344
vt 0.507812 0.128906
vt 0.375000 0.128906
f 781/781/4 784/784/4 783/783/4 782/782/4
v -1.062500 3.687500 -1.062500
v 1.062500 3.687500 -1.062500
v 1.062500 3.687500 1.062500
v -1.062500 3.687500 1.062500
vt 0.492188 0.437500
vt 0.625000 0.437500
vt 0.625000 0.304688
vt 0.492188 0.304688
f 785/785/5 788/788/5 787/787/5 786/786/5
v -1.062500 3.312500 1.062500
v 1.062500 3.312500 1.062500
v 1.062500 3.312500 -1.062500
v -1.062500 3.312500 -1.062500
vt 0.492188 0.437500
vt 0.625000 0.437500
vt 0.625000 0.304688
vt 0.492188 0.304688
f 789/789/6 792/792/6 791/791/6 790/790/6
v 1.125000 3.312500 -1.125000
v -1.125000 3.312500 -1.125000
v -1.125000 3.187500 -1.125000
v 1.125000 3.187500 -1.125000
vt 0.105469 0.121094
vt 0.246094 0.121094
vt 0.246094 0.113281
vt 0.105469 0.113281
f 793/793/1 796/796/1 795/795/1 794/794/1
v -1.125000 3.312500 1.125000
v 1.125000 3.312500 1.125000
v 1.125000 3.187500 1.125000
v -1.125000 3.187500 1.125000
vt 0.105469 0.121094
vt 0.246094 0.121094
vt 0.246094 0.113281
vt 0.105469 0.113281
f 797/797/2 800/800/2 799/799/2 798/798/2
v -1.125000 3.312500 -1.125000
v -1.125000 3.312500 1.125000
v -1.125000 3.187500 1.125000
v -1.125000 3.187500 -1.125000
vt 0.105469 0.121094
vt 0.246094 0.121094
vt 0.246094 0.113281
vt 0.105469 0.113281
f 801/801/3 804/804/3 803/803/3 802/802/3
v 1.125000 3.312500 1.125000
v 1.125000 3.312500 -1.125000
v 1.125000 3.187500 -1.125000
v 1.125000 3.187500 1.125000
vt 0.105469 0.121094
vt 0.246094 0.121094
vt 0.246094 0.113281
vt 0.105469 0.113281
f 805/805/4 808/808/4 807/807/4 806/806/4
v -1.125000 3.312500 -1.125000
v 1.125000 3.312500 -1.125000
v 1.125000 3.312500 1.125000
v -1.125000 3.312500 1.125000
vt 0.351562 0.437500
vt 0.492188 0.437500
vt 0.492188 0.296875
vt 0.351562 0.296875
f 809/809/5 812/812/5 811/811/5 810/810/5
v -1.125000 3.187500 1.125000
v 1.125000 3.187500 1.125000
v 1.125000 3.187500 -1.125000
v -1.125000 3.187500 -1.125000
vt 0.351562 0.437500
vt 0.492188 0.437500
vt 0.492188 0.296875
vt 0.351562 0.296875
f 813/813/6 816/816/6 815/815/6 814/814/6
v 1.062500 4.687500 -1.062500
v -1.062500 4.687500 -1.062500
v -1.062500 4.312500 -1.062500
v 1.062500 4.312500 -1.062500
vt 0.375000 0.152344
vt 0.507812 0.152344
vt 0.507812 0.128906
vt 0.375000 0.128906
f 817/817/1 820/820/1 819/819/1 818/818/1
v -1.062500 4.687500 1.062500
v 1.062500 4.687500 1.062500
v 1.062500 4.312500 1.062500
v -1.062500 4.312500 1.062500
vt 0.375000 0.152344
vt 0.507812 0.152344
vt 0.507812 0.128906
vt 0.375000 0.128906
f 821/821/2 824/824/2 823/823/2 822/822/2
v -1.062500 4.687500 -1.062500
v -1.062500 4.687500 1.062500
v -1.062500 4.312500 1.062500
v -1.062500 4.312500 -1.062500
vt 0.375000 0.152344
vt 0.507812 0.152344
vt 0.507812 0.128906
vt 0.375000 0.128906
f 825/825/3 828/828/3 827/827/3 826/826/3
v 1.062500 4.687500 1.062500
v 1.062500 4.687500 -1.062500
v 1.062500 4.312500 -1.062500
v 1.062500 4.312500 1.062500
vt 0.375000 0.152344
vt 0.507812 0.152344
vt 0.507812 0.128906
vt 0.375000 0.128906
f 829/829/4 832/832/4 831/831/4 830/830/4
v -1.062500 4.687500 -1.062500
v 1.062500 4.687500 -1.062500
v 1.062500 4.687500 1.062500
v -1.062500 4.687500 1.062500
vt 0.492188 0.437500
vt 0.625000 0.437500
vt 0.625000 0.304688
vt 0.492188 0.304688
f 833/833/5 836/836/5 835/835/5 834/834/5
v -1.062500 4.312500 1.062500
v 1.062500 4.312500 1.062500
v 1.062500 4.312500 -1.062500
v -1.062500 4.312500 -1.062500
vt 0.492188 0.437500
vt 0.625000 0.437500
vt 0.625000 0.304688
vt 0.492188 0.304688
f 837/837/6 840/840/6 839/839/6 838/838/6
v 1.125000 4.312500 -1.125000
v -1.125000 4.312500 -1.125000
v -1.125000 4.187500 -1.125000
v 1.125000 4.187500 -1.125000
vt 0.105469 0.121094
vt 0.246094 0.121094
vt 0.246094 0.113281
vt 0.105469 0.113281
f 841/841/1 844/844/1 843/843/1 842/842/1
v -1.125000 4.312500 1.125000
v 1.125000 4.312500 1.125000
v 1.125000 4.187500 1.125000
v -1.125000 4.187500 1.125000
vt 0.105469 0.121094
vt 0.246094 0.121094
vt 0.246094 0.113281
vt 0.105469 0.113281
f 845/845/2 848/848/2 847/847/2 846/846/2
v -1.125000 4.312500 -1.125000
v -1.125000 4.312500 1.125000
v -1.125000 4.187500 1.125000
v -1.125000 4.187500 -1.125000
vt 0.105469 0.121094
vt 0.246094 0.121094
vt 0.246094 0.113281
vt 0.105469 0.113281
f 849/849/3 852/852/3 851/851/3 850/850/3
v 1.125000 4.312500 1.125000
v 1.125000 4.312500 -1.125000
v 1.125000 4.187500 -1.125000
v 1.125000 4.187500 1.125000
vt 0.105469 0.121094
vt 0.246094 0.121094
vt 0.246094 0.113281
vt 0.105469 0.113281
f 853/853/4 856/856/4 855/855/4 854/854/4
v -1.125000 4.312500 -1.125000
v 1.125000 4.312500 -1.125000
v 1.125000 4.312500 1.125000
v -1.125000 4.312500 1.125000
vt 0.351562 0.437500
vt 0.492188 0.437500
vt 0.492188 0.296875
vt 0.351562 0.296875
f 857/857/5 860/860/5 859/859/5 858/858/5
v -1.125000 4.187500 1.125000
v 1.125000 4.187500 1.125000
v 1.125000 4.187500 -1.125000
v -1.125000 4.187500 -1.125000
vt 0.351562 0.437500
vt 0.492188 0.437500
vt 0.492188 0.296875
vt 0.351562 0.296875
f 861/861/6 864/864/6 863/863/6 862/862/6
v 1.062500 5.687500 -1.062500
v -1.062500 5.687500 -1.062500
v -1.062500 5.312500 -1.062500
v 1.062500 5.312500 -1.062500
vt 0.375000 0.152344
vt 0.507812 0.152344
vt 0.507812 0.128906
vt 0.375000 0.128906
f 865/865/1 868/868/1 867/867/1 866/866/1
v -1.062500 5.687500 1.062500
v 1.062500 5.687500 1.062500
v 1.062500 5.312500 1.062500
v -1.062500 5.312500 1.062500
vt 0.375000 0.152344
vt 0.507812 0.152344
vt 0.507812 0.128906
vt 0.375000 0.128906
f 869/869/2 872/872/2 871/871/2 870/870/2
v -1.062500 5.687500 -1.062500
v -1.062500 5.687500 1.062500
v -1.062500 5.312500 1.062500
v -1.062500 5.312500 -1.062500
vt 0.375000 0.152344
vt 0.507812 0.152344
vt 0.507812 0.128906
vt 0.375000 0.128906
f 873/873/3 876/876/3 875/875/3 874/874/3
v 1.062500 5.687500 1.062500
v 1.062500 5.687500 -1.062500
v 1.062500 5.312500 -1.062500
v 1.062500 5.312500 1.062500
vt 0.375000 0.152344
vt 0.507812 0.152344
vt 0.507812 0.128906
vt 0.375000 0.128906
f 877/877/4 880/880/4 879/879/4 878/878/4
v -1.062500 5.687500 -1.062500
v 1.062500 5.687500 -1.062500
v 1.062500 5.687500 1.062500
v -1.062500 5.687500 1.062500
vt 0.492188 0.437500
vt 0.625000 0.437500
vt 0.625000 0.304688
vt 0.492188 0.304688
f 881/881/5 884/884/5 883/883/5 882/882/5
v -1.062500 5.312500 1.062500
v 1.062500 5.312500 1.062500
v 1.062500 5.312500 -1.062500
v -1.062500 5.312500 -1.062500
vt 0.492188 0.437500
vt 0.625000 0.437500
vt 0.625000 0.304688
vt 0.492188 0.304688
f 885/885/6 888/888/6 887/887/6 886/886/6
v 1.125000 5.312500 -1.125000
v -1.125000 5.312500 -1.125000
v -1.125000 5.187500 -1.125000
v 1.125000 5.187500 -1.125000
vt 0.105469 0.121094
vt 0.246094 0.121094
vt 0.246094 0.113281
vt 0.105469 0.113281
f 889/889/1 892/892/1 891/891/1 890/890/1
v -1.125000 5.312500 1.125000
v 1.125000 5.312500 1.125000
v 1.125000 5.187500 1.125000
v -1.125000 5.187500 1.125000
vt 0.105469 0.121094
vt 0.246094 0.121094
vt 0.246094 0.113281
vt 0.105469 0.113281
f 893/893/2 896/896/2 895/895/2 894/894/2
v -1.125000 5.312500 -1.125000
v -1.125000 5.312500 1.125000
v -1.125000 5.187500 1.125000
v -1.125000 5.187500 -1.125000
vt 0.105469 0.121094
vt 0.246094 0.121094
vt 0.246094 0.113281
vt 0.105469 0.113281
f 897/897/3 900/900/3 899/899/3 898/898/3
v 1.125000 5.312500 1.125000
v 1.125000 5.312500 -1.125000
v 1.125000 5.187500 -1.125000
v 1.125000 5.187500 1.125000
vt 0.105469 0.121094
vt 0.246094 0.121094
vt 0.246094 0.113281
vt 0.105469 0.113281
f 901/901/4 904/904/4 903/903/4 902/902/4
v -1.125000 5.312500 -1.125000
v 1.125000 5.312500 -1.125000
v 1.125000 5.312500 1.125000
v -1.125000 5.312500 1.125000
vt 0.351562 0.437500
vt 0.492188 0.437500
vt 0.492188 0.296875
vt 0.351562 0.296875
f 905/905/5 908/908/5 907/907/5 906/906/5
v -1.125000 5.187500 1.125000
v 1.125000 5.187500 1.125000
v 1.125000 5.187500 -1.125000
v -1.125000 5.187500 -1.125000
vt 0.351562 0.437500
vt 0.492188 0.437500
vt 0.492188 0.296875
vt 0.351562 0.296875
f 909/909/6 912/912/6 911/911/6 910/910/6
v 1.062500 6.687500 -1.062500
v -1.062500 6.687500 -1.062500
v -1.062500 6.312500 -1.062500
v 1.062500 6.312500 -1.062500
vt 0.375000 0.152344
vt 0.507812 0.152344
vt 0.507812 0.128906
vt 0.375000 0.128906
f 913/913/1 916/916/1 915/915/1 914/914/1
v -1.062500 6.687500 1.062500
v 1.062500 6.687500 1.062500
v 1.062500 6.312500 1.062500
v -1.062500 6.312500 1.062500
vt 0.375000 0.152344
vt 0.507812 0.152344
vt 0.507812 0.128906
vt 0.375000 0.128906
f 917/917/2 920/920/2 919/919/2 918/918/2
v -1.062500 6.687500 -1.062500
v -1.062500 6.687500 1.062500
v -1.062500 6.312500 1.062500
v -1.062500 6.312500 -1.062500
vt 0.375000 0.152344
vt 0.507812 0.152344
vt 0.507812 0.128906
vt 0.375000 0.128906
f 921/921/3 924/924/3 923/923/3 922/922/3
v 1.062500 6.687500 1.062500
v 1.062500 6.687500 -1.062500
v 1.062500 6.312500 -1.062500
v 1.062500 6.312500 1.062500
vt 0.375000 0.152344
vt 0.507812 0.152344
vt 0.507812 0.128906
vt 0.375000 0.128906
f 925/925/4 928/928/4 927/927/4 926/926/4
v -1.062500 6.687500 -1.062500
v 1.062500 6.687500 -1.062500
v 1.062500 6.687500 1.062500
v -1.062500 6.687500 1.062500
vt 0.492188 0.437500
vt 0.625000 0.437500
vt 0.625000 0.304688
vt 0.492188 0.304688
f 929/929/5 932/932/5 931/931/5 930/930/5
v -1.062500 6.312500 1.062500
v 1.062500 6.312500 1.062500
v 1.062500 6.312500 -1.062500
v -1.062500 6.312500 -1.062500
vt 0.492188 0.437500
vt 0.625000 0.437500
vt 0.625000 0.304688
vt 0.492188 0.304688
f 933/933/6 936/936/6 935/935/6 934/934/6
v 1.125000 6.312500 -1.125000
v -1.125000 6.312500 -1.125000
v -1.125000 6.187500 -1.125000
v 1.125000 6.187500 -1.125000
vt 0.105469 0.121094
vt 0.246094 0.121094
vt 0.246094 0.113281
vt 0.105469 0.113281
f 937/937/1 940/940/1 939/939/1 938/938/1
v -1.125000 6.312500 1.125000
v 1.125000 6.312500 1.125000
v 1.125000 6.187500 1.125000
v -1.125000 6.187500 1.125000
vt 0.105469 0.121094
vt 0.246094 0.121094
vt 0.246094 0.113281
vt 0.105469 0.113281
f 941/941/2 944/944/2 943/943/2 942/942/2
v -1.125000 6.312500 -1.125000
v -1.125000 6.312500 1.125000
v -1.125000 6.187500 1.125000
v -1.125000 6.187500 -1.125000
vt 0.105469 0.121094
vt 0.246094 0.121094
vt 0.246094 0.113281
vt 0.105469 0.113281
f 945/945/3 948/948/3 947/947/3 946/946/3
v 1.125000 6.312500 1.125000
v 1.125000 6.312500 -1.125000
v 1.125000 6.187500 -1.125000
v 1.125000 6.187500 1.125000
vt 0.105469 0.121094
vt 0.246094 0.121094
vt 0.246094 0.113281
vt 0.105469 0.113281
f 949/949/4 952/952/4 951/951/4 950/950/4
v -1.125000 6.312500 -1.125000
v 1.125000 6.312500 -1.125000
v 1.125000 6.312500 1.125000
v -1.125000 6.312500 1.125000
vt 0.351562 0.437500
vt 0.492188 0.437500
vt 0.492188 0.296875
vt 0.351562 0.296875
f 953/953/5 956/956/5 955/955/5 954/954/5
v -1.125000 6.187500 1.125000
v 1.125000 6.187500 1.125000
v 1.125000 6.187500 -1.125000
v -1.125000 6.187500 -1.125000
vt 0.351562 0.437500
vt 0.492188 0.437500
vt 0.492188 0.296875
vt 0.351562 0.296875
f 957/957/6 960/960/6 959/959/6 958/958/6
v 1.062500 7.687500 -1.062500
v -1.062500 7.687500 -1.062500
v -1.062500 7.312500 -1.062500
v 1.062500 7.312500 -1.062500
vt 0.375000 0.152344
vt 0.507812 0.152344
vt 0.507812 0.128906
vt 0.375000 0.128906
f 961/961/1 964/964/1 963/963/1 962/962/1
v -1.062500 7.687500 1.062500
v 1.062500 7.687500 1.062500
v 1.062500 7.312500 1.062500
v -1.062500 7.312500 1.062500
vt 0.375000 0.152344
vt 0.507812 0.152344
vt 0.507812 0.128906
vt 0.375000 0.128906
f 965/965/2 968/968/2 967/967/2 966/966/2
v -1.062500 7.687500 -1.062500
v -1.062500 7.687500 1.062500
v -1.062500 7.312500 1.062500
v -1.062500 7.312500 -1.062500
vt 0.375000 0.152344
vt 0.507812 0.152344
vt 0.507812 0.128906
vt 0.375000 0.128906
f 969/969/3 972/972/3 971/971/3 970/970/3
v 1.062500 7.687500 1.062500
v 1.062500 7.687500 -1.062500
v 1.062500 7.312500 -1.062500
v 1.062500 7.312500 1.062500
vt 0.375000 0.152344
vt 0.507812 0.152344
vt 0.507812 0.128906
vt 0.375000 0.128906
f 973/973/4 976/976/4 975/975/4 974/974/4
v -1.062500 7.687500 -1.062500
v 1.062500 7.687500 -1.062500
v 1.062500 7.687500 1.062500
v -1.062500 7.687500 1.062500
vt 0.492188 0.437500
vt 0.625000 0.437500
vt 0.625000 0.304688
vt 0.492188 0.304688
f 977/977/5 980/980/5 979/979/5 978/978/5
v -1.062500 7.312500 1.062500
v 1.062500 7.312500 1.062500
v 1.062500 7.312500 -1.062500
v -1.062500 7.312500 -1.062500
vt 0.492188 0.437500
vt 0.625000 0.437500
vt 0.625000 0.304688
vt 0.492188 0.304688
f 981/981/6 984/984/6 983/983/6 982/982/6
v 1.125000 7.312500 -1.125000
v -1.125000 7.312500 -1.125000
v -1.125000 7.187500 -1.125000
v 1.125000 7.187500 -1.125000
vt 0.105469 0.121094
vt 0.246094 0.121094
vt 0.246094 0.113281
vt 0.105469 0.113281
f 985/985/1 988/988/1 987/987/1 986/986/1
v -1.125000 7.312500 1.125000
v 1.125000 7.312500 1.125000
v 1.125000 7.187500 1.125000
v -1.125000 7.187500 1.125000
vt 0.105469 0.121094
vt 0.246094 0.121094
vt 0.246094 0.113281
vt 0.105469 0.113281
f 989/989/2 992/992/2 991/991/2 990/990/2
v -1.125000 7.312500 -1.125000
v -1.125000 7.312500 1.125000
v -1.125000 7.187500 1.125000
v -1.125000 7.187500 -1.125000
vt 0.105469 0.121094
vt 0.246094 0.121094
vt 0.246094 0.113281
vt 0.105469 0.113281
f 993/993/3 996/996/3 995/995/3 994/994/3
v 1.125000 7.312500 1.125000
v 1.125000 7.312500 -1.125000
v 1.125000 7.187500 -1.125000
v 1.125000 7.187500 1.125000
vt 0.105469 0.121094
vt 0.246094 0.121094
vt 0.246094 0.113281
vt 0.105469 0.113281
f 997/997/4 1000/1000/4 999/999/4 998/998/4
v -1.125000 7.312500 -1.125000
v 1.125000 7.312500 -1.125000
v 1.125000 7.312500 1.125000
v -1.125000 7.312500 1.125000
vt 0.351562 0.437500
vt 0.492188 0.437500
vt 0.492188 0.296875
vt 0.351562 0.296875
f 1001/1001/5 1004/1004/5 1003/1003/5 1002/1002/5
v -1.125000 7.187500 1.125000
v 1.125000 7.187500 1.125000
v 1.125000 7.187500 -1.125000
v -1.125000 7.187500 -1.125000
vt 0.351562 0.437500
vt 0.492188 0.437500
vt 0.492188 0.296875
vt 0.351562 0.296875
f 1005/1005/6 1008/1008/6 1007/1007/6 1006/1006/6
v 1.062500 8.687500 -1.062500
v -1.062500 8.687500 -1.062500
v -1.062500 8.312500 -1.062500
v 1.062500 8.312500 -1.062500
vt 0.375000 0.152344
vt 0.507812 0.152344
vt 0.507812 0.128906
vt 0.375000 0.128906
f 1009/1009/1 1012/1012/1 1011/1011/1 1010/1010/1
v -1.062500 8.687500 1.062500
v 1.062500 8.687500 1.062500
v 1.062500 8.312500 1.062500
v -1.062500 8.312500 1.062500
vt 0.375000 0.152344
vt 0.507812 0.152344
vt 0.507812 0.128906
vt 0.375000 0.128906
f 1013/1013/2 1016/1016/2 1015/1015/2 1014/1014/2
v -1.062500 8.687500 -1.062500
v -1.062500 8.687500 1.062500
v -1.062500 8.312500 1.062500
v -1.062500 8.312500 -1.062500
vt 0.375000 0.152344
vt 0.507812 0.152344
vt 0.507812 0.128906
vt 0.375000 0.128906
f 1017/1017/3 1020/1020/3 1019/1019/3 1018/1018/3
v 1.062500 8.687500 1.062500
v 1.062500 8.687500 -1.062500
v 1.062500 8.312500 -1.062500
v 1.062500 8.312500 1.062500
vt 0.375000 0.152344
vt 0.507812 0.152344
vt 0.507812 0.128906
vt 0.375000 0.128906
f 1021/1021/4 1024/1024/4 1023/1023/4 1022/1022/4
v -1.062500 8.687500 -1.062500
v 1.062500 8.687500 -1.062500
v 1.062500 8.687500 1.062500
v -1.062500 8.687500 1.062500
vt 0.492188 0.437500
vt 0.625000 0.437500
vt 0.625000 0.304688
vt 0.492188 0.304688
f 1025/1025/5 1028/1028/5 1027/1027/5 1026/1026/5
v -1.062500 8.312500 1.062500
v 1.062500 8.312500 1.062500
v 1.062500 8.312500 -1.062500
v -1.062500 8.312500 -1.062500
vt 0.492188 0.437500
vt 0.625000 0.437500
vt 0.625000 0.304688
vt 0.492188 0.304688
f 1029/1029/6 1032/1032/6 1031/1031/6 1030/1030/6
v 1.125000 8.312500 -1.125000
v -1.125000 8.312500 -1.125000
v -1.125000 8.187500 -1.125000
v 1.125000 8.187500 -1.125000
vt 0.105469 0.121094
vt 0.246094 0.121094
vt 0.246094 0.113281
vt 0.105469 0.113281
f 1033/1033/1 1036/1036/1 1035/1035/1 1034/1034/1
v -1.125000 8.312500 1.125000
v 1.125000 8.312500 1.125000
v 1.125000 8.187500 1.125000
v -1.125000 8.187500 1.125000
vt 0.105469 0.121094
vt 0.246094 0.121094
vt 0.246094 0.113281
vt 0.105469 0.113281
f 1037/1037/2 1040/1040/2 1039/1039/2 1038/1038/2
v -1.125000 8.312500 -1.125000
v -1.125000 8.312500 1.125000
v -1.125000 8.187500 1.125000
v -1.125000 8.187500 -1.125000
vt 0.105469 0.121094
vt 0.246094 0.121094
vt 0.246094 0.113281
vt 0.105469 0.113281
f 1041/1041/3 1044/1044/3 1043/1043/3 1042/1042/3
v 1.125000 8.312500 1.125000
v 1.125000 8.312500 -1.125000
v 1.125000 8.187500 -1.125000
v 1.125000 8.187500 1.125000
vt 0.105469 0.121094
vt 0.246094 0.121094
vt 0.246094 0.113281
vt 0.105469 0.113281
f 1045/1045/4 1048/1048/4 1047/1047/4 1046/1046/4
v -1.125000 8.312500 -1.125000
v 1.125000 8.312500 -1.125000
v 1.125000 8.312500 1.125000
v -1.125000 8.312500 1.125000
vt 0.351562 0.437500
vt 0.492188 0.437500
vt 0.492188 0.296875
vt 0.351562 0.296875
f 1049/1049/5 1052/1052/5 1051/1051/5 1050/1050/5
v -1.125000 8.187500 1.125000
v 1.125000 8.187500 1.125000
v 1.125000 8.187500 -1.125000
v -1.125000 8.187500 -1.125000
vt 0.351562 0.437500
vt 0.492188 0.437500
vt 0.492188 0.296875
vt 0.351562 0.296875
f 1053/1053/6 1056/1056/6 1055/1055/6 1054/1054/6
v 1.062500 9.687500 -1.062500
v -1.062500 9.687500 -1.062500
v -1.062500 9.312500 -1.062500
v 1.062500 9.312500 -1.062500
vt 0.375000 0.152344
vt 0.507812 0.152344
vt 0.507812 0.128906
vt 0.375000 0.128906
f 1057/1057/1 1060/1060/1 1059/1059/1 1058/1058/1
v -1.062500 9.687500 1.062500
v 1.062500 9.687500 1.062500
v 1.062500 9.312500 1.062500
v -1.062500 9.312500 1.062500
vt 0.375000 0.152344
vt 0.507812 0.152344
vt 0.507812 0.128906
vt 0.375000 0.128906
f 1061/1061/2 1064/1064/2 1063/1063/2 1062/1062/2
v -1.062500 9.687500 -1.062500
v -1.062500 9.687500 1.062500
v -1.062500 9.312500 1.062500
v -1.062500 9.312500 -1.062500
vt 0.375000 0.152344
vt 0.507812 0.152344
vt 0.507812 0.128906
vt 0.375000 0.128906
f 1065/1065/3 1068/1068/3 1067/1067/3 1066/1066/3
v 1.062500 9.687500 1.062500
v 1.062500 9.687500 -1.062500
v 1.062500 9.312500 -1.062500
v 1.062500 9.312500 1.062500
vt 0.375000 0.152344
vt 0.507812 0.152344
vt 0.507812 0.128906
vt 0.375000 0.128906
f 1069/1069/4 1072/1072/4 1071/1071/4 1070/1070/4
v -1.062500 9.687500 -1.062500
v 1.062500 9.687500 -1.062500
v 1.062500 9.687500 1.062500
v -1.062500 9.687500 1.062500
vt 0.492188 0.437500
vt 0.625000 0.437500
vt 0.625000 0.304688
vt 0.492188 0.304688
f 1073/1073/5 1076/1076/5 1075/1075/5 1074/1074/5
v -1.062500 9.312500 1.062500
v 1.062500 9.312500 1.062500
v 1.062500 9.312500 -1.062500
v -1.062500 9.312500 -1.062500
vt 0.492188 0.437500
vt 0.625000 0.437500
vt 0.625000 0.304688
vt 0.492188 0.304688
f 1077/1077/6 1080/1080/6 1079/1079/6 1078/1078/6
v 1.125000 9.312500 -1.125000
v -1.125000 9.312500 -1.125000
v -1.125000 9.187500 -1.125000
v 1.125000 9.187500 -1.125000
vt 0.105469 0.121094
vt 0.246094 0.121094
vt 0.246094 0.113281
vt 0.105469 0.113281
f 1081/1081/1 1084/1084/1 1083/1083/1 1082/1082/1
v -1.125000 9.312500 1.125000
v 1.125000 9.312500 1.125000
v 1.125000 9.187500 1.125000
v -1.125000 9.187500 1.125000
vt 0.105469 0.121094
vt 0.246094 0.121094
vt 0.246094 0.113281
vt 0.105469 0.113281
f 1085/1085/2 1088/1088/2 1087/1087/2 1086/1086/2
v -1.125000 9.312500 -1.125000
v -1.125000 9.312500 1.125000
v -1.125000 9.187500 1.125000
v -1.125000 9.187500 -1.125000
vt 0.105469 0.121094
vt 0.246094 0.121094
vt 0.246094 0.113281
vt 0.105469 0.113281
f 1089/1089/3 1092/1092/3 1091/1091/3 1090/1090/3
v 1.125000 9.312500 1.125000
v 1.125000 9.312500 -1.125000
v 1.125000 9.187500 -1.125000
v 1.125000 9.187500 1.125000
vt 0.105469 0.121094
vt 0.246094 0.121094
vt 0.246094 0.113281
vt 0.105469 0.113281
f 1093/1093/4 1096/1096/4 1095/1095/4 1094/1094/4
v -1.125000 9.312500 -1.125000
v 1.125000 9.312500 -1.125000
v 1.125000 9.312500 1.125000
v -1.125000 9.312500 1.125000
vt 0.351562 0.437500
vt 0.492188 0.437500
vt 0.492188 0.296875
vt 0.351562 0.296875
f 1097/1097/5 1100/1100/5 1099/1099/5 1098/1098/5
v -1.125000 9.187500 1.125000
v 1.125000 9.187500 1.125000
v 1.125000 9.187500 -1.125000
v -1.125000 9.187500 -1.125000
vt 0.351562 0.437500
vt 0.492188 0.437500
vt 0.492188 0.296875
vt 0.351562 0.296875
f 1101/1101/6 1104/1104/6 1103/1103/6 1102/1102/6
v 1.062500 10.687500 -1.062500
v -1.062500 10.687500 -1.062500
v -1.062500 10.312500 -1.062500
v 1.062500 10.312500 -1.062500
vt 0.375000 0.152344
vt 0.507812 0.152344
vt 0.507812 0.128906
vt 0.375000 0.128906
f 1105/1105/1 1108/1108/1 1107/1107/1 1106/1106/1
v -1.062500 10.687500 1.062500
v 1.062500 10.687500 1.062500
v 1.062500 10.312500 1.062500
v -1.062500 10.312500 1.062500
vt 0.375000 0.152344
vt 0.507812 0.152344
vt 0.507812 0.128906
vt 0.375000 0.128906
f 1109/1109/2 1112/1112/2 1111/1111/2 1110/1110/2
v -1.062500 10.687500 -1.062500
v -1.062500 10.687500 1.062500
v -1.062500 10.312500 1.062500
v -1.062500 10.312500 -1.062500
vt 0.375000 0.152344
vt 0.507812 0.152344
vt 0.507812 0.128906
vt 0.375000 0.128906
f 1113/1113/3 1116/1116/3 1115/1115/3 1114/1114/3
v 1.062500 10.687500 1.062500
v 1.062500 10.687500 -1.062500
v 1.062500 10.312500 -1.062500
v 1.062500 10.312500 1.062500
vt 0.375000 0.152344
vt 0.507812 0.152344
vt 0.507812 0.128906
vt 0.375000 0.128906
f 1117/1117/4 1120/1120/4 1119/1119/4 1118/1118/4
v -1.062500 10.687500 -1.062500
v 1.062500 10.687500 -1.062500
v 1.062500 10.687500 1.062500
v -1.062500 10.687500 1.062500
vt 0.492188 0.437500
vt 0.625000 0.437500
vt 0.625000 0.304688
vt 0.492188 0.304688
f 1121/1121/5 1124/1124/5 1123/1123/5 1122/1122/5
v -1.062500 10.312500 1.062500
v 1.062500 10.312500 1.062500
v 1.062500 10.312500 -1.062500
v -1.062500 10.312500 -1.062500
vt 0.492188 0.437500
vt 0.625000 0.437500
vt 0.625000 0.304688
vt 0.492188 0.304688
f 1125/1125/6 1128/1128/6 1127/1127/6 1126/1126/6
v 1.125000 10.312500 -1.125000
v -1.125000 10.312500 -1.125000
v -1.125000 10.187500 -1.125000
v 1.125000 10.187500 -1.125000
vt 0.105469 0.121094
vt 0.246094 0.121094
vt 0.246094 0.113281
vt 0.105469 0.113281
f 1129/1129/1 1132/1132/1 1131/1131/1 1130/1130/1
v -1.125000 10.312500 1.125000
v 1.125000 10.312500 1.125000
v 1.125000 10.187500 1.125000
v -1.125000 10.187500 1.125000
vt 0.105469 0.121094
vt 0.246094 0.121094
vt 0.246094 0.113281
vt 0.105469 0.113281
f 1133/1133/2 1136/1136/2 1135/1135/2 1134/1134/2
v -1.125000 10.312500 -1.125000
v -1.125000 10.312500 1.125000
v -1.125000 10.187500 1.125000
v -1.125000 10.187500 -1.125000
vt 0.105469 0.121094
vt 0.246094 0.121094
vt 0.246094 0.113281
vt 0.105469 0.113281
f 1137/1137/3 1140/1140/3 1139/1139/3 1138/1138/3
v 1.125000 10.312500 1.125000
v 1.125000 10.312500 -1.125000
v 1.125000 10.187500 -1.125000
v 1.125000 10.187500 1.125000
vt 0.105469 0.121094
vt 0.246094 0.121094
vt 0.246094 0.113281
vt 0.105469 0.113281
f 1141/1141/4 1144/1144/4 1143/1143/4 1142/1142/4
v -1.125000 10.312500 -1.125000
v 1.125000 10.312500 -1.125000
v 1.125000 10.312500 1.125000
v -1.125000 10.312500 1.125000
vt 0.351562 0.437500
vt 0.492188 0.437500
vt 0.492188 0.296875
vt 0.351562 0.296875
f 1145/1145/5 1148/1148/5 1147/1147/5 1146/1146/5
v -1.125000 10.187500 1.125000
v 1.125000 10.187500 1.125000
v 1.125000 10.187500 -1.125000
v -1.125000 10.187500 -1.125000
vt 0.351562 0.437500
vt 0.492188 0.437500
vt 0.492188 0.296875
vt 0.351562 0.296875
f 1149/1149/6 1152/1152/6 1151/1151/6 1150/1150/6
v 0.937500 11.000000 -0.937500
v 0.687500 11.000000 -0.937500
v 0.687500 2.250000 -0.937500
v 0.937500 2.250000 -0.937500
vt 0.101562 1.000000
vt 0.117188 1.000000
vt 0.117188 0.453125
vt 0.101562 0.453125
f 1153/1153/1 1156/1156/1 1155/1155/1 1154/1154/1
v 0.687500 11.000000 -0.687500
v 0.937500 11.000000 -0.687500
v 0.937500 2.250000 -0.687500
v 0.687500 2.250000 -0.687500
vt 0.101562 1.000000
vt 0.117188 1.000000
vt 0.117188 0.453125
vt 0.101562 0.453125
f 1157/1157/2 1160/1160/2 1159/1159/2 1158/1158/2
v 0.687500 11.000000 -0.937500
v 0.687500 11.000000 -0.687500
v 0.687500 2.250000 -0.687500
v 0.687500 2.250000 -0.937500
vt 0.101562 1.000000
vt 0.117188 1.000000
vt 0.117188 0.453125
vt 0.101562 0.453125
f 1161/1161/3 1164/1164/3 1163/1163/3 1162/1162/3
v 0.937500 11.000000 -0.687500
v 0.937500 11.000000 -0.937500
v 0.937500 2.250000 -0.937500
v 0.937500 2.250000 -0.687500
vt 0.101562 1.000000
vt 0.117188 1.000000
vt 0.117188 0.453125
vt 0.101562 0.453125
f 1165/1165/4 1168/1168/4 1167/1167/4 1166/1166/4
v 0.687500 11.000000 -0.937500
v 0.937500 11.000000 -0.937500
v 0.937500 11.000000 -0.687500
v 0.687500 11.000000 -0.687500
vt 0.968750 0.152344
vt 0.984375 0.152344
vt 0.984375 0.136719
vt 0.968750 0.136719
f 1169/1169/5 1172/1172/5 1171/1171/5 1170/1170/5
v 0.937500 11.000000 0.687500
v 0.687500 11.000000 0.687500
v 0.687500 2.250000 0.687500
v 0.937500 2.250000 0.687500
vt 0.101562 1.000000
vt 0.117188 1.000000
vt 0.117188 0.453125
vt 0.101562 0.453125
f 1173/1173/1 1176/1176/1 1175/1175/1 1174/1174/1
v 0.687500 11.000000 0.937500
v 0.937500 11.000000 0.937500
v 0.937500 2.250000 0.937500
v 0.687500 2.250000 0.937500
vt 0.101562 1.000000
vt 0.117188 1.000000
vt 0.117188 0.453125
vt 0.101562 0.453125
f 1177/1177/2 1180/1180/2 1179/1179/2 1178/1178/2
v 0.687500 11.000000 0.687500
v 0.687500 11.000000 0.937500
v 0.687500 2.250000 0.937500
v 0.687500 2.250000 0.687500
vt 0.101562 1.000000
vt 0.117188 1.000000
vt 0.117188 0.453125
vt 0.101562 0.453125
f 1181/1181/3 1184/1184/3 1183/1183/3 1182/1182/3
v 0.937500 11.000000 0.937500
v 0.937500 11.000000 0.687500
v 0.937500 2.250000 0.687500
v 0.937500 2.250000 0.937500
vt 0.101562 1.000000
vt 0.117188 1.000000
vt 0.117188 0.453125
vt 0.101562 0.453125
f 1185/1185/4 1188/1188/4 1187/1187/4 1186/1186/4
v 0.687500 11.000000 0.687500
v 0.937500 11.000000 0.687500
v 0.937500 11.000000 0.937500
v 0.687500 11.000000 0.937500
vt 0.968750 0.152344
vt 0.984375 0.152344
vt 0.984375 0.136719
vt 0.968750 0.136719
f 1189/1189/5 1192/1192/5 1191/1191/5 1190/1190/5
v -0.687500 11.000000 0.687500
v -0.937500 11.000000 0.687500
v -0.937500 2.250000 0.687500
v -0.687500 2.250000 0.687500
vt 0.101562 1.000000
vt 0.117188 1.000000
vt 0.117188 0.453125
vt 0.101562 0.453125
f 1193/1193/1 1196/1196/1 1195/1195/1 1194/1194/1
v -0.937500 11.000000 0.937500
v -0.687500 11.000000 0.937500
v -0.687500 2.250000 0.937500
v -0.937500 2.250000 0.937500
vt 0.101562 1.000000
vt 0.117188 1.000000
vt 0.117188 0.453125
vt 0.101562 0.453125
f 1197/1197/2 1200/1200/2 1199/1199/2 1198/1198/2
v -0.937500 11.000000 0.687500
v -0.937500 11.000000 0.937500
v -0.937500 2.250000 0.937500
v -0.937500 2.250000 0.687500
vt 0.101562 1.000000
vt 0.117188 1.000000
vt 0.117188 0.453125
vt 0.101562 0.453125
f 1201/1201/3 1204/1204/3 1203/1203/3 1202/1202/3
v -0.687500 11.000000 0.937500
v -0.687500 11.000000 0.687500
v -0.687500 2.250000 0.687500
v -0.687500 2.250000 0.937500
vt 0.101562 1.000000
vt 0.117188 1.000000
vt 0.117188 0.453125
vt 0.101562 0.453125
f 1205/1205/4 1208/1208/4 1207/1207/4 1206/1206/4
v -0.937500 11.000000 0.687500
v -0.687500 11.000000 0.687500
v -0.687500 11.000000 0.937500
v -0.937500 11.000000 0.937500
vt 0.968750 0.152344
vt 0.984375 0.152344
vt 0.984375 0.136719
vt 0.968750 0.136719
f 1209/1209/5 1212/1212/5 1211/1211/5 1210/1210/5
v -0.687500 11.000000 -0.937500
v -0.937500 11.000000 -0.937500
v -0.937500 2.250000 -0.937500
v -0.687500 2.250000 -0.937500
vt 0.101562 1.000000
vt 0.117188 1.000000
vt 0.117188 0.453125
vt 0.101562 0.453125
f 1213/1213/1 1216/1216/1 1215/1215/1 1214/1214/1
v -0.937500 11.000000 -0.687500
v -0.687500 11.000000 -0.687500
v -0.687500 2.250000 -0.687500
v -0.937500 2.250000 -0.687500
vt 0.101562 1.000000
vt 0.117188 1.000000
vt 0.117188 0.453125
vt 0.101562 0.453125
f 1217/1217/2 1220/1220/2 1219/1219/2 1218/1218/2
v -0.937500 11.000000 -0.937500
v -0.937500 11.000000 -0.687500
v -0.937500 2.250000 -0.687500
v -0.937500 2.250000 -0.937500
vt 0.101562 1.000000
vt 0.117188 1.000000
vt 0.117188 0.453125
vt 0.101562 0.453125
f 1221/1221/3 1224/1224/3 1223/1223/3 1222/1222/3
v -0.687500 11.000000 -0.687500
v -0.687500 11.000000 -0.937500
v -0.687500 2.250000 -0.937500
v -0.687500 2.250000 -0.687500
vt 0.101562 1.000000
vt 0.117188 1.000000
vt 0.117188 0.453125
vt 0.101562 0.453125
f 1225/1225/4 1228/1228/4 1227/1227/4 1226/1226/4
v -0.937500 11.000000 -0.937500
v -0.687500 11.000000 -0.937500
v -0.687500 11.000000 -0.687500
v -0.937500 11.000000 -0.687500
vt 0.968750 0.152344
vt 0.984375 0.152344
vt 0.984375 0.136719
vt 0.968750 0.136719
f 1229/1229/5 1232/1232/5 1231/1231/5 1230/1230/5
o Barrel
v 0.625000 10.750000 -0.625000
v -0.625000 10.750000 -0.625000
v -0.625000 2.000000 -0.625000
v 0.625000 2.000000 -0.625000
vt 0.023438 1.000000
vt 0.101562 1.000000
vt 0.101562 0.453125
vt 0.023438 0.453125
f 1233/1233/1 1236/1236/1 1235/1235/1 1234/1234/1
v -0.625000 10.750000 0.625000
v 0.625000 10.750000 0.625000
v 0.625000 2.000000 0.625000
v -0.625000 2.000000 0.625000
vt 0.023438 1.000000
vt 0.101562 1.000000
vt 0.101562 0.453125
vt 0.023438 0.453125
f 1237/1237/2 1240/1240/2 1239/1239/2 1238/1238/2
v -0.625000 10.750000 -0.625000
v -0.625000 10.750000 0.625000
v -0.625000 2.000000 0.625000
v -0.625000 2.000000 -0.625000
vt 0.023438 1.000000
vt 0.101562 1.000000
vt 0.101562 0.453125
vt 0.023438 0.453125
f 1241/1241/3 1244/1244/3 1243/1243/3 1242/1242/3
v 0.625000 10.750000 0.625000
v 0.625000 10.750000 -0.625000
v 0.625000 2.000000 -0.625000
v 0.625000 2.000000 0.625000
vt 0.023438 1.000000
vt 0.101562 1.000000
vt 0.101562 0.453125
vt 0.023438 0.453125
f 1245/1245/4 1248/1248/4 1247/1247/4 1246/1246/4
v -0.625000 10.750000 -0.625000
v 0.625000 10.750000 -0.625000
v 0.625000 10.750000 0.625000
v -0.625000 10.750000 0.625000
vt 0.746094 0.437500
vt 0.824219 0.437500
vt 0.824219 0.359375
vt 0.746094 0.359375
f 1249/1249/5 1252/1252/5 1251/1251/5 1250/1250/5
v 1.000000 11.000000 -0.187500
v 0.625000 11.000000 -0.187500
v 0.625000 2.000000 -0.187500
v 1.000000 2.000000 -0.187500
vt 0.000000 1.000000
vt 0.023438 1.000000
vt 0.023438 0.437500
vt 0.000000 0.437500
f 1253/1253/1 1256/1256/1 1255/1255/1 1254/1254/1
v 0.625000 11.000000 0.187500
v 1.000000 11.000000 0.187500
v 1.000000 2.000000 0.187500
v 0.625000 2.000000 0.187500
vt 0.000000 1.000000
vt 0.023438 1.000000
vt 0.023438 0.437500
vt 0.000000 0.437500
f 1257/1257/2 1260/1260/2 1259/1259/2 1258/1258/2
v 1.000000 11.000000 0.187500
v 1.000000 11.000000 -0.187500
v 1.000000 2.000000 -0.187500
v 1.000000 2.000000 0.187500
vt 0.000000 1.000000
vt 0.023438 1.000000
vt 0.023438 0.437500
vt 0.000000 0.437500
f 1261/1261/4 1264/1264/4 1263/1263/4 1262/1262/4
v 0.625000 11.000000 -0.187500
v 1.000000 11.000000 -0.187500
v 1.000000 11.000000 0.187500
v 0.625000 11.000000 0.187500
vt 0.906250 0.187500
vt 0.929688 0.187500
vt 0.929688 0.164062
vt 0.906250 0.164062
f 1265/1265/5 1268/1268/5 1267/1267/5 1266/1266/5
v -0.187500 11.000000 1.000000
v 0.187500 11.000000 1.000000
v 0.187500 2.000000 1.000000
v -0.187500 2.000000 1.000000
vt 0.000000 1.000000
vt 0.023438 1.000000
vt 0.023438 0.437500
vt 0.000000 0.437500
f 1269/1269/2 1272/1272/2 1271/1271/2 1270/1270/2
v -0.187500 11.000000 0.625000
v -0.187500 11.000000 1.000000
v -0.187500 2.000000 1.000000
v -0.187500 2.000000 0.625000
vt 0.000000 1.000000
vt 0.023438 1.000000
vt 0.023438 0.437500
vt 0.000000 0.437500
f 1273/1273/3 1276/1276/3 1275/1275/3 1274/1274/3
v 0.187500 11.000000 1.000000
v 0.187500 11.000000 0.625000
v 0.187500 2.000000 0.625000
v 0.187500 2.000000 1.000000
vt 0.000000 1.000000
vt 0.023438 1.000000
vt 0.023438 0.437500
vt 0.000000 0.437500
f 1277/1277/4 1280/1280/4 1279/1279/4 1278/1278/4
v -0.187500 11.000000 0.625000
v 0.187500 11.000000 0.625000
v 0.187500 11.000000 1.000000
v -0.187500 11.000000 1.000000
vt 0.906250 0.187500
vt 0.929688 0.187500
vt 0.929688 0.164062
vt 0.906250 0.164062
f 1281/1281/5 1284/1284/5 1283/1283/5 1282/1282/5
v -0.625000 11.000000 -0.187500
v -1.000000 11.000000 -0.187500
v -1.000000 2.000000 -0.187500
v -0.625000 2.000000 -0.187500
vt 0.000000 1.000000
vt 0.023438 1.000000
vt 0.023438 0.437500
vt 0.000000 0.437500
f 1285/1285/1 1288/1288/1 1287/1287/1 1286/1286/1
v -1.000000 11.000000 0.187500
v -0.625000 11.000000 0.187500
v -0.625000 2.000000 0.187500
v -1.000000 2.000000 0.187500
vt 0.000000 1.000000
vt 0.023438 1.000000
vt 0.023438 0.437500
vt 0.000000 0.437500
f 1289/1289/2 1292/1292/2 1291/1291/2 1290/1290/2
v -1.000000 11.000000 -0.187500
v -1.000000 11.000000 0.187500
v -1.000000 2.000000 0.187500
v -1.000000 2.000000 -0.187500
vt 0.000000 1.000000
vt 0.023438 1.000000
vt 0.023438 0.437500
vt 0.000000 0.437500
f 1293/1293/3 1296/1296/3 1295/1295/3 1294/1294/3
v -1.000000 11.000000 -0.187500
v -0.625000 11.000000 -0.187500
v -0.625000 11.000000 0.187500
v -1.000000 11.000000 0.187500
vt 0.906250 0.187500
vt 0.929688 0.187500
vt 0.929688 0.164062
vt 0.906250 0.164062
f 1297/1297/5 1300/1300/5 1299/1299/5 1298/1298/5
v 0.187500 11.000000 -1.000000
v -0.187500 11.000000 -1.000000
v -0.187500 2.000000 -1.000000
v 0.187500 2.000000 -1.000000
vt 0.000000 1.000000
vt 0.023438 1.000000
vt 0.023438 0.437500
vt 0.000000 0.437500
f 1301/1301/1 1304/1304/1 1303/1303/1 1302/1302/1
v -0.187500 11.000000 -1.000000
v -0.187500 11.000000 -0.625000
v -0.187500 2.000000 -0.625000
v -0.187500 2.000000 -1.000000
vt 0.000000 1.000000
vt 0.023438 1.000000
vt 0.023438 0.437500
vt 0.000000 0.437500
f 1305/1305/3 1308/1308/3 1307/1307/3 1306/1306/3
v 0.187500 11.000000 -0.625000
v 0.187500 11.000000 -1.000000
v 0.187500 2.000000 -1.000000
v 0.187500 2.000000 -0.625000
vt 0.000000 1.000000
vt 0.023438 1.000000
vt 0.023438 0.437500
vt 0.000000 0.437500
f 1309/1309/4 1312/1312/4 1311/1311/4 1310/1310/4
v -0.187500 11.000000 -1.000000
v 0.187500 11.000000 -1.000000
v 0.187500 11.000000 -0.625000
v -0.187500 11.000000 -0.625000
vt 0.906250 0.187500
vt 0.929688 0.187500
vt 0.929688 0.164062
vt 0.906250 0.164062
f 1313/1313/5 1316/1316/5 1315/1315/5 1314/1314/5
v 0.625000 11.000000 -0.625000
v -0.625000 11.000000 -0.625000
v -0.625000 10.750000 -0.625000
v 0.625000 10.750000 -0.625000
vt 0.765625 0.152344
vt 0.843750 0.152344
vt 0.843750 0.136719
vt 0.765625 0.136719
f 1317/1317/1 1320/1320/1 1319/1319/1 1318/1318/1
v -0.625000 11.000000 -0.375000
v 0.625000 11.000000 -0.375000
v 0.625000 10.750000 -0.375000
v -0.625000 10.750000 -0.375000
vt 0.843750 0.152344
vt 0.921875 0.152344
vt 0.921875 0.136719
vt 0.843750 0.136719
f 1321/1321/2 1324/1324/2 1323/1323/2 1322/1322/2
v -0.625000 11.000000 -0.625000
v -0.625000 11.000000 -0.375000
v -0.625000 10.750000 -0.375000
v -0.625000 10.750000 -0.625000
vt 0.984375 0.152344
vt 1.000000 0.152344
vt 1.000000 0.136719
vt 0.984375 0.136719
f 1325/1325/3 1328/1328/3 1327/1327/3 1326/1326/3
v 0.625000 11.000000 -0.375000
v 0.625000 11.000000 -0.625000
v 0.625000 10.750000 -0.625000
v 0.625000 10.750000 -0.375000
vt 0.984375 0.152344
vt 1.000000 0.152344
vt 1.000000 0.136719
vt 0.984375 0.136719
f 1329/1329/4 1332/1332/4 1331/1331/4 1330/1330/4
v -0.625000 11.000000 -0.625000
v 0.625000 11.000000 -0.625000
v 0.625000 11.000000 -0.375000
v -0.625000 11.000000 -0.375000
vt 0.765625 0.152344
vt 0.843750 0.152344
vt 0.843750 0.136719
vt 0.765625 0.136719
f 1333/1333/5 1336/1336/5 1335/1335/5 1334/1334/5
v 0.625000 11.000000 0.375000
v -0.625000 11.000000 0.375000
v -0.625000 10.750000 0.375000
v 0.625000 10.750000 0.375000
vt 0.843750 0.152344
vt 0.921875 0.152344
vt 0.921875 0.136719
vt 0.843750 0.136719
f 1337/1337/1 1340/1340/1 1339/1339/1 1338/1338/1
v -0.625000 11.000000 0.625000
v 0.625000 11.000000 0.625000
v 0.625000 10.750000 0.625000
v -0.625000 10.750000 0.625000
vt 0.765625 0.152344
vt 0.843750 0.152344
vt 0.843750 0.136719
vt 0.765625 0.136719
f 1341/1341/2 1344/1344/2 1343/1343/2 1342/1342/2
v -0.625000 11.000000 0.375000
v -0.625000 11.000000 0.625000
v -0.625000 10.750000 0.625000
v -0.625000 10.750000 0.375000
vt 0.984375 0.152344
vt 1.000000 0.152344
vt 1.000000 0.136719
vt 0.984375 0.136719
f 1345/1345/3 1348/1348/3 1347/1347/3 1346/1346/3
v 0.625000 11.000000 0.625000
v 0.625000 11.000000 0.375000
v 0.625000 10.750000 0.375000
v 0.625000 10.750000 0.625000
vt 0.984375 0.152344
vt 1.000000 0.152344
vt 1.000000 0.136719
vt 0.984375 0.136719
f 1349/1349/4 1352/1352/4 1351/1351/4 1350/1350/4
v -0.625000 11.000000 0.375000
v 0.625000 11.000000 0.375000
v 0.625000 11.000000 0.625000
v -0.625000 11.000000 0.625000
vt 0.765625 0.152344
vt 0.843750 0.152344
vt 0.843750 0.136719
vt 0.765625 0.136719
f 1353/1353/5 1356/1356/5 1355/1355/5 1354/1354/5
v -0.625000 11.000000 -0.375000
v -0.625000 11.000000 0.375000
v -0.625000 10.750000 0.375000
v -0.625000 10.750000 -0.375000
vt 0.929688 0.187500
vt 0.976562 0.187500
vt 0.976562 0.171875
vt 0.929688 0.171875
f 1357/1357/3 1360/1360/3 1359/1359/3 1358/1358/3
v -0.375000 11.000000 0.375000
v -0.375000 11.000000 -0.375000
v -0.375000 10.750000 -0.375000
v -0.375000 10.750000 0.375000
vt 0.921875 0.152344
vt 0.968750 0.152344
vt 0.968750 0.136719
vt 0.921875 0.136719
f 1361/1361/4 1364/1364/4 1363/1363/4 1362/1362/4
v -0.625000 11.000000 -0.375000
v -0.375000 11.000000 -0.375000
v -0.375000 11.000000 0.375000
v -0.625000 11.000000 0.375000
vt 0.957031 0.437500
vt 0.972656 0.437500
vt 0.972656 0.390625
vt 0.957031 0.390625
f 1365/1365/5 1368/1368/5 1367/1367/5 1366/1366/5
v 0.375000 11.000000 -0.375000
v 0.375000 11.000000 0.375000
v 0.375000 10.750000 0.375000
v 0.375000 10.750000 -0.375000
vt 0.921875 0.152344
vt 0.968750 0.152344
vt 0.968750 0.136719
vt 0.921875 0.136719
f 1369/1369/3 1372/1372/3 1371/1371/3 1370/1370/3
v 0.625000 11.000000 0.375000
v 0.625000 11.000000 -0.375000
v 0.625000 10.750000 -0.375000
v 0.625000 10.750000 0.375000
vt 0.929688 0.187500
vt 0.976562 0.187500
vt 0.976562 0.171875
vt 0.929688 0.171875
f 1373/1373/4 1376/1376/4 1375/1375/4 1374/1374/4
v 0.375000 11.000000 -0.375000
v 0.625000 11.000000 -0.375000
v 0.625000 11.000000 0.375000
v 0.375000 11.000000 0.375000
vt 0.957031 0.437500
vt 0.972656 0.437500
vt 0.972656 0.390625
vt 0.957031 0.390625
f 1377/1377/5 1380/1380/5 1379/1379/5 1378/1378/5
