# rolling_machine generated by machinegen.py
mtllib rolling_machine.mtl
v 1.000000 0.187500 0.000000
v 0.000000 0.187500 0.000000
v 0.000000 0.000000 0.000000
v 1.000000 0.000000 0.000000
v 0.000000 0.187500 3.000000
v 1.000000 0.187500 3.000000
v 1.000000 0.000000 3.000000
v 0.000000 0.000000 3.000000
v 0.000000 0.187500 0.000000
v 0.000000 0.187500 3.000000
v 0.000000 0.000000 3.000000
v 0.000000 0.000000 0.000000
v 0.000000 0.187500 0.000000
v 1.000000 0.187500 0.000000
v 1.000000 0.187500 3.000000
v 0.000000 0.187500 3.000000
v 0.187500 0.812500 0.000000
v 0.000000 0.812500 0.000000
v 0.000000 0.187500 0.000000
v 0.187500 0.187500 0.000000
v 0.000000 0.812500 0.187500
v 0.187500 0.812500 0.187500
v 0.187500 0.187500 0.187500
v 0.000000 0.187500 0.187500
v 0.000000 0.812500 0.000000
v 0.000000 0.812500 0.187500
v 0.000000 0.187500 0.187500
v 0.000000 0.187500 0.000000
v 0.187500 0.812500 0.187500
v 0.187500 0.812500 0.000000
v 0.187500 0.187500 0.000000
v 0.187500 0.187500 0.187500
v 0.187500 0.812500 2.812500
v 0.000000 0.812500 2.812500
v 0.000000 0.187500 2.812500
v 0.187500 0.187500 2.812500
v 0.000000 0.812500 3.000000
v 0.187500 0.812500 3.000000
v 0.187500 0.187500 3.000000
v 0.000000 0.187500 3.000000
v 0.000000 0.812500 2.812500
v 0.000000 0.812500 3.000000
v 0.000000 0.187500 3.000000
v 0.000000 0.187500 2.812500
v 0.187500 0.812500 3.000000
v 0.187500 0.812500 2.812500
v 0.187500 0.187500 2.812500
v 0.187500 0.187500 3.000000
v 1.000000 0.812500 2.812500
v 0.812500 0.812500 2.812500
v 0.812500 0.187500 2.812500
v 1.000000 0.187500 2.812500
v 0.812500 0.812500 3.000000
v 1.000000 0.812500 3.000000
v 1.000000 0.187500 3.000000
v 0.812500 0.187500 3.000000
v 0.812500 0.812500 2.812500
v 0.812500 0.812500 3.000000
v 0.812500 0.187500 3.000000
v 0.812500 0.187500 2.812500
v 1.000000 0.812500 3.000000
v 1.000000 0.812500 2.812500
v 1.000000 0.187500 2.812500
v 1.000000 0.187500 3.000000
v 0.125000 0.812500 0.875000
v 0.000000 0.812500 0.875000
v 0.000000 0.187500 0.875000
v 0.125000 0.187500 0.875000
v 0.000000 0.812500 1.000000
v 0.125000 0.812500 1.000000
v 0.125000 0.187500 1.000000
v 0.000000 0.187500 1.000000
v 0.000000 0.812500 0.875000
v 0.000000 0.812500 1.000000
v 0.000000 0.187500 1.000000
v 0.000000 0.187500 0.875000
v 0.125000 0.812500 1.000000
v 0.125000 0.812500 0.875000
v 0.125000 0.187500 0.875000
v 0.125000 0.187500 1.000000
v 0.125000 0.812500 2.000000
v 0.000000 0.812500 2.000000
v 0.000000 0.187500 2.000000
v 0.125000 0.187500 2.000000
v 0.000000 0.812500 2.125000
v 0.125000 0.812500 2.125000
v 0.125000 0.187500 2.125000
v 0.000000 0.187500 2.125000
v 0.000000 0.812500 2.000000
v 0.000000 0.812500 2.125000
v 0.000000 0.187500 2.125000
v 0.000000 0.187500 2.000000
v 0.125000 0.812500 2.125000
v 0.125000 0.812500 2.000000
v 0.125000 0.187500 2.000000
v 0.125000 0.187500 2.125000
v 1.000000 0.812500 0.062500
v 0.062500 0.812500 0.062500
v 0.062500 0.187500 0.062500
v 1.000000 0.187500 0.062500
v 0.062500 0.812500 2.937500
v 1.000000 0.812500 2.937500
v 1.000000 0.187500 2.937500
v 0.062500 0.187500 2.937500
v 0.062500 0.812500 0.062500
v 0.062500 0.812500 2.937500
v 0.062500 0.187500 2.937500
v 0.062500 0.187500 0.062500
v 1.000000 0.812500 2.937500
v 1.000000 0.812500 0.062500
v 1.000000 0.187500 0.062500
v 1.000000 0.187500 2.937500
v 0.062500 0.812500 1.000000
v 0.000000 0.812500 1.000000
v 0.000000 0.250000 1.000000
v 0.062500 0.250000 1.000000
v 0.000000 0.812500 2.000000
v 0.062500 0.812500 2.000000
v 0.062500 0.250000 2.000000
v 0.000000 0.250000 2.000000
v 0.000000 0.812500 1.000000
v 0.000000 0.812500 2.000000
v 0.000000 0.250000 2.000000
v 0.000000 0.250000 1.000000
v 0.000000 0.812500 1.000000
v 0.062500 0.812500 1.000000
v 0.062500 0.812500 2.000000
v 0.000000 0.812500 2.000000
v 1.000000 1.000000 0.000000
v 0.000000 1.000000 0.000000
v 0.000000 0.812500 0.000000
v 1.000000 0.812500 0.000000
v 0.000000 1.000000 3.000000
v 1.000000 1.000000 3.000000
v 1.000000 0.812500 3.000000
v 0.000000 0.812500 3.000000
v 0.000000 1.000000 0.000000
v 0.000000 1.000000 3.000000
v 0.000000 0.812500 3.000000
v 0.000000 0.812500 0.000000
v 1.000000 1.000000 3.000000
v 1.000000 1.000000 0.000000
v 1.000000 0.812500 0.000000
v 1.000000 0.812500 3.000000
v 0.000000 1.000000 0.000000
v 1.000000 1.000000 0.000000
v 1.000000 1.000000 3.000000
v 0.000000 1.000000 3.000000
v 0.687500 0.687500 0.000000
v 0.312500 0.687500 0.000000
v 0.312500 0.312500 0.000000
v 0.687500 0.312500 0.000000
v 0.312500 0.687500 0.000000
v 0.312500 0.687500 0.062500
v 0.312500 0.312500 0.062500
v 0.312500 0.312500 0.000000
v 0.687500 0.687500 0.062500
v 0.687500 0.687500 0.000000
v 0.687500 0.312500 0.000000
v 0.687500 0.312500 0.062500
v 0.312500 0.687500 0.000000
v 0.687500 0.687500 0.000000
v 0.687500 0.687500 0.062500
v 0.312500 0.687500 0.062500
v 0.312500 0.312500 0.062500
v 0.687500 0.312500 0.062500
v 0.687500 0.312500 0.000000
v 0.312500 0.312500 0.000000
v 0.312500 0.687500 3.000000
v 0.687500 0.687500 3.000000
v 0.687500 0.312500 3.000000
v 0.312500 0.312500 3.000000
v 0.312500 0.687500 2.937500
v 0.312500 0.687500 3.000000
v 0.312500 0.312500 3.000000
v 0.312500 0.312500 2.937500
v 0.687500 0.687500 3.000000
v 0.687500 0.687500 2.937500
v 0.687500 0.312500 2.937500
v 0.687500 0.312500 3.000000
v 0.312500 0.687500 2.937500
v 0.687500 0.687500 2.937500
v 0.687500 0.687500 3.000000
v 0.312500 0.687500 3.000000
v 0.312500 0.312500 3.000000
v 0.687500 0.312500 3.000000
v 0.687500 0.312500 2.937500
v 0.312500 0.312500 2.937500
v 3.000000 0.187500 1.000000
v 2.250000 0.187500 1.000000
v 2.250000 0.000000 1.000000
v 3.000000 0.000000 1.000000
v 2.250000 0.187500 3.000000
v 3.000000 0.187500 3.000000
v 3.000000 0.000000 3.000000
v 2.250000 0.000000 3.000000
v 2.250000 0.187500 1.000000
v 2.250000 0.187500 3.000000
v 2.250000 0.000000 3.000000
v 2.250000 0.000000 1.000000
v 3.000000 0.187500 3.000000
v 3.000000 0.187500 1.000000
v 3.000000 0.000000 1.000000
v 3.000000 0.000000 3.000000
v 2.250000 0.187500 1.000000
v 3.000000 0.187500 1.000000
v 3.000000 0.187500 3.000000
v 2.250000 0.187500 3.000000
v 3.000000 0.812500 1.000000
v 2.812500 0.812500 1.000000
v 2.812500 0.187500 1.000000
v 3.000000 0.187500 1.000000
v 2.812500 0.812500 1.187500
v 3.000000 0.812500 1.187500
v 3.000000 0.187500 1.187500
v 2.812500 0.187500 1.187500
v 2.812500 0.812500 1.000000
v 2.812500 0.812500 1.187500
v 2.812500 0.187500 1.187500
v 2.812500 0.187500 1.000000
v 3.000000 0.812500 1.187500
v 3.000000 0.812500 1.000000
v 3.000000 0.187500 1.000000
v 3.000000 0.187500 1.187500
v 3.000000 0.812500 2.812500
v 2.812500 0.812500 2.812500
v 2.812500 0.187500 2.812500
v 3.000000 0.187500 2.812500
v 2.812500 0.812500 3.000000
v 3.000000 0.812500 3.000000
v 3.000000 0.187500 3.000000
v 2.812500 0.187500 3.000000
v 2.812500 0.812500 2.812500
v 2.812500 0.812500 3.000000
v 2.812500 0.187500 3.000000
v 2.812500 0.187500 2.812500
v 3.000000 0.812500 3.000000
v 3.000000 0.812500 2.812500
v 3.000000 0.187500 2.812500
v 3.000000 0.187500 3.000000
v 2.437500 0.812500 2.812500
v 2.250000 0.812500 2.812500
v 2.250000 0.187500 2.812500
v 2.437500 0.187500 2.812500
v 2.250000 0.812500 3.000000
v 2.437500 0.812500 3.000000
v 2.437500 0.187500 3.000000
v 2.250000 0.187500 3.000000
v 2.250000 0.812500 2.812500
v 2.250000 0.812500 3.000000
v 2.250000 0.187500 3.000000
v 2.250000 0.187500 2.812500
v 2.437500 0.812500 3.000000
v 2.437500 0.812500 2.812500
v 2.437500 0.187500 2.812500
v 2.437500 0.187500 3.000000
v 3.000000 0.812500 1.937500
v 2.875000 0.812500 1.937500
v 2.875000 0.187500 1.937500
v 3.000000 0.187500 1.937500
v 2.875000 0.812500 2.062500
v 3.000000 0.812500 2.062500
v 3.000000 0.187500 2.062500
v 2.875000 0.187500 2.062500
v 2.875000 0.812500 1.937500
v 2.875000 0.812500 2.062500
v 2.875000 0.187500 2.062500
v 2.875000 0.187500 1.937500
v 3.000000 0.812500 2.062500
v 3.000000 0.812500 1.937500
v 3.000000 0.187500 1.937500
v 3.000000 0.187500 2.062500
v 2.937500 0.812500 1.062500
v 2.250000 0.812500 1.062500
v 2.250000 0.187500 1.062500
v 2.937500 0.187500 1.062500
v 2.250000 0.812500 2.937500
v 2.937500 0.812500 2.937500
v 2.937500 0.187500 2.937500
v 2.250000 0.187500 2.937500
v 2.250000 0.812500 1.062500
v 2.250000 0.812500 2.937500
v 2.250000 0.187500 2.937500
v 2.250000 0.187500 1.062500
v 2.937500 0.812500 2.937500
v 2.937500 0.812500 1.062500
v 2.937500 0.187500 1.062500
v 2.937500 0.187500 2.937500
v 3.000000 1.000000 1.000000
v 2.250000 1.000000 1.000000
v 2.250000 0.812500 1.000000
v 3.000000 0.812500 1.000000
v 2.250000 1.000000 3.000000
v 3.000000 1.000000 3.000000
v 3.000000 0.812500 3.000000
v 2.250000 0.812500 3.000000
v 2.250000 1.000000 1.000000
v 2.250000 1.000000 3.000000
v 2.250000 0.812500 3.000000
v 2.250000 0.812500 1.000000
v 3.000000 1.000000 3.000000
v 3.000000 1.000000 1.000000
v 3.000000 0.812500 1.000000
v 3.000000 0.812500 3.000000
v 2.250000 1.000000 1.000000
v 3.000000 1.000000 1.000000
v 3.000000 1.000000 3.000000
v 2.250000 1.000000 3.000000
v 3.000000 0.687500 1.312500
v 2.937500 0.687500 1.312500
v 2.937500 0.312500 1.312500
v 3.000000 0.312500 1.312500
v 2.937500 0.687500 1.687500
v 3.000000 0.687500 1.687500
v 3.000000 0.312500 1.687500
v 2.937500 0.312500 1.687500
v 3.000000 0.687500 1.687500
v 3.000000 0.687500 1.312500
v 3.000000 0.312500 1.312500
v 3.000000 0.312500 1.687500
v 2.937500 0.687500 1.312500
v 3.000000 0.687500 1.312500
v 3.000000 0.687500 1.687500
v 2.937500 0.687500 1.687500
v 2.937500 0.312500 1.687500
v 3.000000 0.312500 1.687500
v 3.000000 0.312500 1.312500
v 2.937500 0.312500 1.312500
v 3.000000 0.687500 2.312500
v 2.937500 0.687500 2.312500
v 2.937500 0.312500 2.312500
v 3.000000 0.312500 2.312500
v 2.937500 0.687500 2.687500
v 3.000000 0.687500 2.687500
v 3.000000 0.312500 2.687500
v 2.937500 0.312500 2.687500
v 3.000000 0.687500 2.687500
v 3.000000 0.687500 2.312500
v 3.000000 0.312500 2.312500
v 3.000000 0.312500 2.687500
v 2.937500 0.687500 2.312500
v 3.000000 0.687500 2.312500
v 3.000000 0.687500 2.687500
v 2.937500 0.687500 2.687500
v 2.937500 0.312500 2.687500
v 3.000000 0.312500 2.687500
v 3.000000 0.312500 2.312500
v 2.937500 0.312500 2.312500
v 2.500000 0.187500 0.000000
v 1.000000 0.187500 0.000000
v 1.000000 0.000000 0.000000
v 2.500000 0.000000 0.000000
v 1.000000 0.187500 2.500000
v 2.500000 0.187500 2.500000
v 2.500000 0.000000 2.500000
v 1.000000 0.000000 2.500000
v 2.500000 0.187500 2.500000
v 2.500000 0.187500 0.000000
v 2.500000 0.000000 0.000000
v 2.500000 0.000000 2.500000
v 1.000000 0.187500 0.000000
v 2.500000 0.187500 0.000000
v 2.500000 0.187500 2.500000
v 1.000000 0.187500 2.500000
v 1.187500 1.250000 0.000000
v 1.000000 1.250000 0.000000
v 1.000000 0.187500 0.000000
v 1.187500 0.187500 0.000000
v 1.000000 1.250000 0.187500
v 1.187500 1.250000 0.187500
v 1.187500 0.187500 0.187500
v 1.000000 0.187500 0.187500
v 1.000000 1.250000 0.000000
v 1.000000 1.250000 0.187500
v 1.000000 0.187500 0.187500
v 1.000000 0.187500 0.000000
v 1.187500 1.250000 0.187500
v 1.187500 1.250000 0.000000
v 1.187500 0.187500 0.000000
v 1.187500 0.187500 0.187500
v 2.500000 1.250000 0.000000
v 2.312500 1.250000 0.000000
v 2.312500 0.187500 0.000000
v 2.500000 0.187500 0.000000
v 2.312500 1.250000 0.187500
v 2.500000 1.250000 0.187500
v 2.500000 0.187500 0.187500
v 2.312500 0.187500 0.187500
v 2.312500 1.250000 0.000000
v 2.312500 1.250000 0.187500
v 2.312500 0.187500 0.187500
v 2.312500 0.187500 0.000000
v 2.500000 1.250000 0.187500
v 2.500000 1.250000 0.000000
v 2.500000 0.187500 0.000000
v 2.500000 0.187500 0.187500
v 1.187500 1.250000 2.312500
v 1.000000 1.250000 2.312500
v 1.000000 1.000000 2.312500
v 1.187500 1.000000 2.312500
v 1.000000 1.250000 2.500000
v 1.187500 1.250000 2.500000
v 1.187500 1.000000 2.500000
v 1.000000 1.000000 2.500000
v 1.000000 1.250000 2.312500
v 1.000000 1.250000 2.500000
v 1.000000 1.000000 2.500000
v 1.000000 1.000000 2.312500
v 1.187500 1.250000 2.500000
v 1.187500 1.250000 2.312500
v 1.187500 1.000000 2.312500
v 1.187500 1.000000 2.500000
v 2.500000 1.250000 2.312500
v 2.312500 1.250000 2.312500
v 2.312500 0.187500 2.312500
v 2.500000 0.187500 2.312500
v 2.312500 1.250000 2.500000
v 2.500000 1.250000 2.500000
v 2.500000 0.187500 2.500000
v 2.312500 0.187500 2.500000
v 2.312500 1.250000 2.312500
v 2.312500 1.250000 2.500000
v 2.312500 0.187500 2.500000
v 2.312500 0.187500 2.312500
v 2.500000 1.250000 2.500000
v 2.500000 1.250000 2.312500
v 2.500000 0.187500 2.312500
v 2.500000 0.187500 2.500000
v 1.125000 1.250000 1.187500
v 1.000000 1.250000 1.187500
v 1.000000 1.000000 1.187500
v 1.125000 1.000000 1.187500
v 1.000000 1.250000 1.312500
v 1.125000 1.250000 1.312500
v 1.125000 1.000000 1.312500
v 1.000000 1.000000 1.312500
v 1.000000 1.250000 1.187500
v 1.000000 1.250000 1.312500
v 1.000000 1.000000 1.312500
v 1.000000 1.000000 1.187500
v 2.437500 1.250000 0.062500
v 1.062500 1.250000 0.062500
v 1.062500 0.187500 0.062500
v 2.437500 0.187500 0.062500
v 1.062500 1.250000 2.437500
v 2.437500 1.250000 2.437500
v 2.437500 0.187500 2.437500
v 1.062500 0.187500 2.437500
v 1.062500 1.250000 0.062500
v 1.062500 1.250000 2.437500
v 1.062500 0.187500 2.437500
v 1.062500 0.187500 0.062500
v 2.437500 1.250000 2.437500
v 2.437500 1.250000 0.062500
v 2.437500 0.187500 0.062500
v 2.437500 0.187500 2.437500
v 2.187500 1.000000 0.031250
v 1.312500 1.000000 0.031250
v 1.312500 0.375000 0.031250
v 2.187500 0.375000 0.031250
v 1.312500 1.000000 0.031250
v 1.312500 1.000000 0.062500
v 1.312500 0.375000 0.062500
v 1.312500 0.375000 0.031250
v 2.187500 1.000000 0.062500
v 2.187500 1.000000 0.031250
v 2.187500 0.375000 0.031250
v 2.187500 0.375000 0.062500
v 1.312500 1.000000 0.031250
v 2.187500 1.000000 0.031250
v 2.187500 1.000000 0.062500
v 1.312500 1.000000 0.062500
v 2.500000 1.375000 0.000000
v 1.000000 1.375000 0.000000
v 1.000000 1.250000 0.000000
v 2.500000 1.250000 0.000000
v 1.000000 1.375000 2.500000
v 2.500000 1.375000 2.500000
v 2.500000 1.250000 2.500000
v 1.000000 1.250000 2.500000
v 1.000000 1.375000 0.000000
v 1.000000 1.375000 2.500000
v 1.000000 1.250000 2.500000
v 1.000000 1.250000 0.000000
v 2.500000 1.375000 2.500000
v 2.500000 1.375000 0.000000
v 2.500000 1.250000 0.000000
v 2.500000 1.250000 2.500000
v 1.000000 1.375000 0.000000
v 2.500000 1.375000 0.000000
v 2.500000 1.375000 2.500000
v 1.000000 1.375000 2.500000
v 2.312500 1.500000 0.125000
v 1.187500 1.500000 0.125000
v 1.187500 1.375000 0.125000
v 2.312500 1.375000 0.125000
v 1.187500 1.500000 2.375000
v 2.312500 1.500000 2.375000
v 2.312500 1.375000 2.375000
v 1.187500 1.375000 2.375000
v 1.187500 1.500000 0.125000
v 1.187500 1.500000 2.375000
v 1.187500 1.375000 2.375000
v 1.187500 1.375000 0.125000
v 2.312500 1.500000 2.375000
v 2.312500 1.500000 0.125000
v 2.312500 1.375000 0.125000
v 2.312500 1.375000 2.375000
v 1.187500 1.500000 0.125000
v 2.312500 1.500000 0.125000
v 2.312500 1.500000 2.375000
v 1.187500 1.500000 2.375000
v 2.125000 1.531250 0.500000
v 1.375000 1.531250 0.500000
v 1.375000 1.500000 0.500000
v 2.125000 1.500000 0.500000
v 1.375000 1.531250 1.750000
v 2.125000 1.531250 1.750000
v 2.125000 1.500000 1.750000
v 1.375000 1.500000 1.750000
v 1.375000 1.531250 0.500000
v 1.375000 1.531250 1.750000
v 1.375000 1.500000 1.750000
v 1.375000 1.500000 0.500000
v 2.125000 1.531250 1.750000
v 2.125000 1.531250 0.500000
v 2.125000 1.500000 0.500000
v 2.125000 1.500000 1.750000
v 1.375000 1.531250 0.500000
v 2.125000 1.531250 0.500000
v 2.125000 1.531250 1.750000
v 1.375000 1.531250 1.750000
v 2.250000 1.562500 0.187500
v 2.062500 1.562500 0.187500
v 2.062500 1.500000 0.187500
v 2.250000 1.500000 0.187500
v 2.062500 1.562500 0.375000
v 2.250000 1.562500 0.375000
v 2.250000 1.500000 0.375000
v 2.062500 1.500000 0.375000
v 2.062500 1.562500 0.187500
v 2.062500 1.562500 0.375000
v 2.062500 1.500000 0.375000
v 2.062500 1.500000 0.187500
v 2.250000 1.562500 0.375000
v 2.250000 1.562500 0.187500
v 2.250000 1.500000 0.187500
v 2.250000 1.500000 0.375000
v 2.062500 1.562500 0.187500
v 2.250000 1.562500 0.187500
v 2.250000 1.562500 0.375000
v 2.062500 1.562500 0.375000
v 1.625000 1.562500 1.937500
v 1.375000 1.562500 1.937500
v 1.375000 1.500000 1.937500
v 1.625000 1.500000 1.937500
v 1.375000 1.562500 2.312500
v 1.625000 1.562500 2.312500
v 1.625000 1.500000 2.312500
v 1.375000 1.500000 2.312500
v 1.375000 1.562500 1.937500
v 1.375000 1.562500 2.312500
v 1.375000 1.500000 2.312500
v 1.375000 1.500000 1.937500
v 1.625000 1.562500 2.312500
v 1.625000 1.562500 1.937500
v 1.625000 1.500000 1.937500
v 1.625000 1.500000 2.312500
v 1.375000 1.562500 1.937500
v 1.625000 1.562500 1.937500
v 1.625000 1.562500 2.312500
v 1.375000 1.562500 2.312500
v 1.000000 0.250000 2.500000
v 1.000000 0.250000 4.500000
v 1.000000 0.000000 4.500000
v 1.000000 0.000000 2.500000
v 2.500000 0.250000 4.500000
v 2.500000 0.250000 2.500000
v 2.500000 0.000000 2.500000
v 2.500000 0.000000 4.500000
v 1.000000 0.250000 2.500000
v 2.500000 0.250000 2.500000
v 2.500000 0.250000 4.500000
v 1.000000 0.250000 4.500000
v 1.187500 0.312500 2.625000
v 1.187500 0.312500 4.375000
v 1.187500 0.250000 4.375000
v 1.187500 0.250000 2.625000
v 2.312500 0.312500 4.375000
v 2.312500 0.312500 2.625000
v 2.312500 0.250000 2.625000
v 2.312500 0.250000 4.375000
v 1.187500 0.312500 2.625000
v 2.312500 0.312500 2.625000
v 2.312500 0.312500 4.375000
v 1.187500 0.312500 4.375000
v 1.000000 1.375000 2.500000
v 1.000000 1.375000 4.500000
v 1.000000 1.250000 4.500000
v 1.000000 1.250000 2.500000
v 1.125000 1.375000 4.500000
v 1.125000 1.375000 2.500000
v 1.125000 1.250000 2.500000
v 1.125000 1.250000 4.500000
v 1.000000 1.375000 2.500000
v 1.125000 1.375000 2.500000
v 1.125000 1.375000 4.500000
v 1.000000 1.375000 4.500000
v 1.000000 1.250000 4.500000
v 1.125000 1.250000 4.500000
v 1.125000 1.250000 2.500000
v 1.000000 1.250000 2.500000
v 2.375000 1.375000 2.500000
v 2.375000 1.375000 4.500000
v 2.375000 1.250000 4.500000
v 2.375000 1.250000 2.500000
v 2.500000 1.375000 4.500000
v 2.500000 1.375000 2.500000
v 2.500000 1.250000 2.500000
v 2.500000 1.250000 4.500000
v 2.375000 1.375000 2.500000
v 2.500000 1.375000 2.500000
v 2.500000 1.375000 4.500000
v 2.375000 1.375000 4.500000
v 2.375000 1.250000 4.500000
v 2.500000 1.250000 4.500000
v 2.500000 1.250000 2.500000
v 2.375000 1.250000 2.500000
v 1.000000 0.375000 3.000000
v 1.000000 0.375000 4.500000
v 1.000000 0.250000 4.500000
v 1.000000 0.250000 3.000000
v 1.125000 0.375000 4.500000
v 1.125000 0.375000 3.000000
v 1.125000 0.250000 3.000000
v 1.125000 0.250000 4.500000
v 1.000000 0.375000 3.000000
v 1.125000 0.375000 3.000000
v 1.125000 0.375000 4.500000
v 1.000000 0.375000 4.500000
v 2.375000 0.375000 3.000000
v 2.375000 0.375000 4.500000
v 2.375000 0.250000 4.500000
v 2.375000 0.250000 3.000000
v 2.500000 0.375000 4.500000
v 2.500000 0.375000 3.000000
v 2.500000 0.250000 3.000000
v 2.500000 0.250000 4.500000
v 2.375000 0.375000 3.000000
v 2.500000 0.375000 3.000000
v 2.500000 0.375000 4.500000
v 2.375000 0.375000 4.500000
v 1.125000 1.250000 3.687500
v 1.000000 1.250000 3.687500
v 1.000000 0.375000 3.687500
v 1.125000 0.375000 3.687500
v 1.000000 1.250000 3.812500
v 1.125000 1.250000 3.812500
v 1.125000 0.375000 3.812500
v 1.000000 0.375000 3.812500
v 1.000000 1.250000 3.687500
v 1.000000 1.250000 3.812500
v 1.000000 0.375000 3.812500
v 1.000000 0.375000 3.687500
v 1.125000 1.250000 3.812500
v 1.125000 1.250000 3.687500
v 1.125000 0.375000 3.687500
v 1.125000 0.375000 3.812500
v 2.500000 1.250000 3.687500
v 2.375000 1.250000 3.687500
v 2.375000 0.375000 3.687500
v 2.500000 0.375000 3.687500
v 2.375000 1.250000 3.812500
v 2.500000 1.250000 3.812500
v 2.500000 0.375000 3.812500
v 2.375000 0.375000 3.812500
v 2.375000 1.250000 3.687500
v 2.375000 1.250000 3.812500
v 2.375000 0.375000 3.812500
v 2.375000 0.375000 3.687500
v 2.500000 1.250000 3.812500
v 2.500000 1.250000 3.687500
v 2.500000 0.375000 3.687500
v 2.500000 0.375000 3.812500
v 1.125000 1.250000 3.000000
v 1.000000 1.250000 3.000000
v 1.000000 0.375000 3.000000
v 1.125000 0.375000 3.000000
v 1.000000 1.250000 3.125000
v 1.125000 1.250000 3.125000
v 1.125000 0.375000 3.125000
v 1.000000 0.375000 3.125000
v 1.000000 1.250000 3.000000
v 1.000000 1.250000 3.125000
v 1.000000 0.375000 3.125000
v 1.000000 0.375000 3.000000
v 1.125000 1.250000 3.125000
v 1.125000 1.250000 3.000000
v 1.125000 0.375000 3.000000
v 1.125000 0.375000 3.125000
v 2.500000 1.250000 3.000000
v 2.375000 1.250000 3.000000
v 2.375000 0.375000 3.000000
v 2.500000 0.375000 3.000000
v 2.375000 1.250000 3.125000
v 2.500000 1.250000 3.125000
v 2.500000 0.375000 3.125000
v 2.375000 0.375000 3.125000
v 2.375000 1.250000 3.000000
v 2.375000 1.250000 3.125000
v 2.375000 0.375000 3.125000
v 2.375000 0.375000 3.000000
v 2.500000 1.250000 3.125000
v 2.500000 1.250000 3.000000
v 2.500000 0.375000 3.000000
v 2.500000 0.375000 3.125000
v 1.031250 1.250000 2.500000
v 1.031250 1.250000 3.000000
v 1.031250 1.000000 3.000000
v 1.031250 1.000000 2.500000
v 1.062500 1.250000 3.000000
v 1.062500 1.250000 2.500000
v 1.062500 1.000000 2.500000
v 1.062500 1.000000 3.000000
v 1.031250 1.250000 3.125000
v 1.031250 1.250000 4.500000
v 1.031250 0.375000 4.500000
v 1.031250 0.375000 3.125000
v 1.062500 1.250000 4.500000
v 1.062500 1.250000 3.125000
v 1.062500 0.375000 3.125000
v 1.062500 0.375000 4.500000
v 2.437500 1.250000 2.500000
v 2.437500 1.250000 3.000000
v 2.437500 1.000000 3.000000
v 2.437500 1.000000 2.500000
v 2.468750 1.250000 3.000000
v 2.468750 1.250000 2.500000
v 2.468750 1.000000 2.500000
v 2.468750 1.000000 3.000000
v 2.437500 1.250000 3.125000
v 2.437500 1.250000 4.500000
v 2.437500 0.375000 4.500000
v 2.437500 0.375000 3.125000
v 2.468750 1.250000 4.500000
v 2.468750 1.250000 3.125000
v 2.468750 0.375000 3.125000
v 2.468750 0.375000 4.500000
v 2.500000 0.187500 4.500000
v 1.000000 0.187500 4.500000
v 1.000000 0.000000 4.500000
v 2.500000 0.000000 4.500000
v 1.000000 0.187500 5.000000
v 2.500000 0.187500 5.000000
v 2.500000 0.000000 5.000000
v 1.000000 0.000000 5.000000
v 1.000000 0.187500 4.500000
v 1.000000 0.187500 5.000000
v 1.000000 0.000000 5.000000
v 1.000000 0.000000 4.500000
v 2.500000 0.187500 5.000000
v 2.500000 0.187500 4.500000
v 2.500000 0.000000 4.500000
v 2.500000 0.000000 5.000000
v 1.000000 0.187500 4.500000
v 2.500000 0.187500 4.500000
v 2.500000 0.187500 5.000000
v 1.000000 0.187500 5.000000
v 1.187500 1.250000 4.500000
v 1.000000 1.250000 4.500000
v 1.000000 0.187500 4.500000
v 1.187500 0.187500 4.500000
v 1.000000 1.250000 4.687500
v 1.187500 1.250000 4.687500
v 1.187500 0.187500 4.687500
v 1.000000 0.187500 4.687500
v 1.000000 1.250000 4.500000
v 1.000000 1.250000 4.687500
v 1.000000 0.187500 4.687500
v 1.000000 0.187500 4.500000
v 1.187500 1.250000 4.687500
v 1.187500 1.250000 4.500000
v 1.187500 0.187500 4.500000
v 1.187500 0.187500 4.687500
v 2.500000 1.250000 4.500000
v 2.312500 1.250000 4.500000
v 2.312500 0.187500 4.500000
v 2.500000 0.187500 4.500000
v 2.312500 1.250000 4.687500
v 2.500000 1.250000 4.687500
v 2.500000 0.187500 4.687500
v 2.312500 0.187500 4.687500
v 2.312500 1.250000 4.500000
v 2.312500 1.250000 4.687500
v 2.312500 0.187500 4.687500
v 2.312500 0.187500 4.500000
v 2.500000 1.250000 4.687500
v 2.500000 1.250000 4.500000
v 2.500000 0.187500 4.500000
v 2.500000 0.187500 4.687500
v 1.187500 1.250000 4.812500
v 1.000000 1.250000 4.812500
v 1.000000 0.187500 4.812500
v 1.187500 0.187500 4.812500
v 1.000000 1.250000 5.000000
v 1.187500 1.250000 5.000000
v 1.187500 0.187500 5.000000
v 1.000000 0.187500 5.000000
v 1.000000 1.250000 4.812500
v 1.000000 1.250000 5.000000
v 1.000000 0.187500 5.000000
v 1.000000 0.187500 4.812500
v 1.187500 1.250000 5.000000
v 1.187500 1.250000 4.812500
v 1.187500 0.187500 4.812500
v 1.187500 0.187500 5.000000
v 2.500000 1.250000 4.812500
v 2.312500 1.250000 4.812500
v 2.312500 0.187500 4.812500
v 2.500000 0.187500 4.812500
v 2.312500 1.250000 5.000000
v 2.500000 1.250000 5.000000
v 2.500000 0.187500 5.000000
v 2.312500 0.187500 5.000000
v 2.312500 1.250000 4.812500
v 2.312500 1.250000 5.000000
v 2.312500 0.187500 5.000000
v 2.312500 0.187500 4.812500
v 2.500000 1.250000 5.000000
v 2.500000 1.250000 4.812500
v 2.500000 0.187500 4.812500
v 2.500000 0.187500 5.000000
v 2.437500 1.250000 4.562500
v 1.062500 1.250000 4.562500
v 1.062500 0.187500 4.562500
v 2.437500 0.187500 4.562500
v 1.062500 1.250000 4.937500
v 2.437500 1.250000 4.937500
v 2.437500 0.187500 4.937500
v 1.062500 0.187500 4.937500
v 1.062500 1.250000 4.562500
v 1.062500 1.250000 4.937500
v 1.062500 0.187500 4.937500
v 1.062500 0.187500 4.562500
v 2.437500 1.250000 4.937500
v 2.437500 1.250000 4.562500
v 2.437500 0.187500 4.562500
v 2.437500 0.187500 4.937500
v 1.312500 1.000000 4.968750
v 2.187500 1.000000 4.968750
v 2.187500 0.375000 4.968750
v 1.312500 0.375000 4.968750
v 1.312500 1.000000 4.937500
v 1.312500 1.000000 4.968750
v 1.312500 0.375000 4.968750
v 1.312500 0.375000 4.937500
v 2.187500 1.000000 4.968750
v 2.187500 1.000000 4.937500
v 2.187500 0.375000 4.937500
v 2.187500 0.375000 4.968750
v 1.312500 1.000000 4.937500
v 2.187500 1.000000 4.937500
v 2.187500 1.000000 4.968750
v 1.312500 1.000000 4.968750
v 2.500000 1.375000 4.500000
v 1.000000 1.375000 4.500000
v 1.000000 1.250000 4.500000
v 2.500000 1.250000 4.500000
v 1.000000 1.375000 5.000000
v 2.500000 1.375000 5.000000
v 2.500000 1.250000 5.000000
v 1.000000 1.250000 5.000000
v 1.000000 1.375000 4.500000
v 1.000000 1.375000 5.000000
v 1.000000 1.250000 5.000000
v 1.000000 1.250000 4.500000
v 2.500000 1.375000 5.000000
v 2.500000 1.375000 4.500000
v 2.500000 1.250000 4.500000
v 2.500000 1.250000 5.000000
v 1.000000 1.375000 4.500000
v 2.500000 1.375000 4.500000
v 2.500000 1.375000 5.000000
v 1.000000 1.375000 5.000000
v 2.312500 1.500000 4.562500
v 1.187500 1.500000 4.562500
v 1.187500 1.375000 4.562500
v 2.312500 1.375000 4.562500
v 1.187500 1.500000 4.937500
v 2.312500 1.500000 4.937500
v 2.312500 1.375000 4.937500
v 1.187500 1.375000 4.937500
v 1.187500 1.500000 4.562500
v 1.187500 1.500000 4.937500
v 1.187500 1.375000 4.937500
v 1.187500 1.375000 4.562500
v 2.312500 1.500000 4.937500
v 2.312500 1.500000 4.562500
v 2.312500 1.375000 4.562500
v 2.312500 1.375000 4.937500
v 1.187500 1.500000 4.562500
v 2.312500 1.500000 4.562500
v 2.312500 1.500000 4.937500
v 1.187500 1.500000 4.937500
v 2.125000 1.562500 4.625000
v 1.875000 1.562500 4.625000
v 1.875000 1.500000 4.625000
v 2.125000 1.500000 4.625000
v 1.875000 1.562500 4.875000
v 2.125000 1.562500 4.875000
v 2.125000 1.500000 4.875000
v 1.875000 1.500000 4.875000
v 1.875000 1.562500 4.625000
v 1.875000 1.562500 4.875000
v 1.875000 1.500000 4.875000
v 1.875000 1.500000 4.625000
v 2.125000 1.562500 4.875000
v 2.125000 1.562500 4.625000
v 2.125000 1.500000 4.625000
v 2.125000 1.500000 4.875000
v 1.875000 1.562500 4.625000
v 2.125000 1.562500 4.625000
v 2.125000 1.562500 4.875000
v 1.875000 1.562500 4.875000
v -0.187500 0.187500 2.625000
v -0.187500 0.187500 4.375000
v -0.187500 -0.187500 4.375000
v -0.187500 -0.187500 2.625000
v 0.187500 0.187500 4.375000
v 0.187500 0.187500 2.625000
v 0.187500 -0.187500 2.625000
v 0.187500 -0.187500 4.375000
v -0.187500 0.187500 2.625000
v 0.187500 0.187500 2.625000
v 0.187500 0.187500 4.375000
v -0.187500 0.187500 4.375000
v -0.187500 -0.187500 4.375000
v 0.187500 -0.187500 4.375000
v 0.187500 -0.187500 2.625000
v -0.187500 -0.187500 2.625000
v 0.250000 0.093750 2.625000
v -0.250000 0.093750 2.625000
v -0.250000 -0.093750 2.625000
v 0.250000 -0.093750 2.625000
v -0.250000 0.093750 4.375000
v 0.250000 0.093750 4.375000
v 0.250000 -0.093750 4.375000
v -0.250000 -0.093750 4.375000
v -0.250000 0.093750 2.625000
v -0.250000 0.093750 4.375000
v -0.250000 -0.093750 4.375000
v -0.250000 -0.093750 2.625000
v 0.250000 0.093750 4.375000
v 0.250000 0.093750 2.625000
v 0.250000 -0.093750 2.625000
v 0.250000 -0.093750 4.375000
v -0.250000 0.093750 2.625000
v 0.250000 0.093750 2.625000
v 0.250000 0.093750 4.375000
v -0.250000 0.093750 4.375000
v -0.250000 -0.093750 4.375000
v 0.250000 -0.093750 4.375000
v 0.250000 -0.093750 2.625000
v -0.250000 -0.093750 2.625000
v 0.093750 0.250000 2.625000
v -0.093750 0.250000 2.625000
v -0.093750 -0.250000 2.625000
v 0.093750 -0.250000 2.625000
v -0.093750 0.250000 4.375000
v 0.093750 0.250000 4.375000
v 0.093750 -0.250000 4.375000
v -0.093750 -0.250000 4.375000
v -0.093750 0.250000 2.625000
v -0.093750 0.250000 4.375000
v -0.093750 -0.250000 4.375000
v -0.093750 -0.250000 2.625000
v 0.093750 0.250000 4.375000
v 0.093750 0.250000 2.625000
v 0.093750 -0.250000 2.625000
v 0.093750 -0.250000 4.375000
v -0.093750 0.250000 2.625000
v 0.093750 0.250000 2.625000
v 0.093750 0.250000 4.375000
v -0.093750 0.250000 4.375000
v -0.093750 -0.250000 4.375000
v 0.093750 -0.250000 4.375000
v 0.093750 -0.250000 2.625000
v -0.093750 -0.250000 2.625000
v -0.125000 0.125000 2.625000
v 0.125000 0.125000 2.625000
v 0.125000 -0.125000 2.625000
v -0.125000 -0.125000 2.625000
v -0.125000 0.125000 2.500000
v -0.125000 0.125000 2.625000
v -0.125000 -0.125000 2.625000
v -0.125000 -0.125000 2.500000
v 0.125000 0.125000 2.625000
v 0.125000 0.125000 2.500000
v 0.125000 -0.125000 2.500000
v 0.125000 -0.125000 2.625000
v -0.125000 0.125000 2.500000
v 0.125000 0.125000 2.500000
v 0.125000 0.125000 2.625000
v -0.125000 0.125000 2.625000
v -0.125000 -0.125000 2.625000
v 0.125000 -0.125000 2.625000
v 0.125000 -0.125000 2.500000
v -0.125000 -0.125000 2.500000
v 0.125000 0.125000 4.375000
v -0.125000 0.125000 4.375000
v -0.125000 -0.125000 4.375000
v 0.125000 -0.125000 4.375000
v -0.125000 0.125000 4.375000
v -0.125000 0.125000 4.500000
v -0.125000 -0.125000 4.500000
v -0.125000 -0.125000 4.375000
v 0.125000 0.125000 4.500000
v 0.125000 0.125000 4.375000
v 0.125000 -0.125000 4.375000
v 0.125000 -0.125000 4.500000
v -0.125000 0.125000 4.375000
v 0.125000 0.125000 4.375000
v 0.125000 0.125000 4.500000
v -0.125000 0.125000 4.500000
v -0.125000 -0.125000 4.500000
v 0.125000 -0.125000 4.500000
v 0.125000 -0.125000 4.375000
v -0.125000 -0.125000 4.375000
v -0.187500 0.187500 2.625000
v -0.187500 0.187500 4.375000
v -0.187500 -0.187500 4.375000
v -0.187500 -0.187500 2.625000
v 0.187500 0.187500 4.375000
v 0.187500 0.187500 2.625000
v 0.187500 -0.187500 2.625000
v 0.187500 -0.187500 4.375000
v -0.187500 0.187500 2.625000
v 0.187500 0.187500 2.625000
v 0.187500 0.187500 4.375000
v -0.187500 0.187500 4.375000
v -0.187500 -0.187500 4.375000
v 0.187500 -0.187500 4.375000
v 0.187500 -0.187500 2.625000
v -0.187500 -0.187500 2.625000
v 0.250000 0.093750 2.625000
v -0.250000 0.093750 2.625000
v -0.250000 -0.093750 2.625000
v 0.250000 -0.093750 2.625000
v -0.250000 0.093750 4.375000
v 0.250000 0.093750 4.375000
v 0.250000 -0.093750 4.375000
v -0.250000 -0.093750 4.375000
v -0.250000 0.093750 2.625000
v -0.250000 0.093750 4.375000
v -0.250000 -0.093750 4.375000
v -0.250000 -0.093750 2.625000
v 0.250000 0.093750 4.375000
v 0.250000 0.093750 2.625000
v 0.250000 -0.093750 2.625000
v 0.250000 -0.093750 4.375000
v -0.250000 0.093750 2.625000
v 0.250000 0.093750 2.625000
v 0.250000 0.093750 4.375000
v -0.250000 0.093750 4.375000
v -0.250000 -0.093750 4.375000
v 0.250000 -0.093750 4.375000
v 0.250000 -0.093750 2.625000
v -0.250000 -0.093750 2.625000
v 0.093750 0.250000 2.625000
v -0.093750 0.250000 2.625000
v -0.093750 -0.250000 2.625000
v 0.093750 -0.250000 2.625000
v -0.093750 0.250000 4.375000
v 0.093750 0.250000 4.375000
v 0.093750 -0.250000 4.375000
v -0.093750 -0.250000 4.375000
v -0.093750 0.250000 2.625000
v -0.093750 0.250000 4.375000
v -0.093750 -0.250000 4.375000
v -0.093750 -0.250000 2.625000
v 0.093750 0.250000 4.375000
v 0.093750 0.250000 2.625000
v 0.093750 -0.250000 2.625000
v 0.093750 -0.250000 4.375000
v -0.093750 0.250000 2.625000
v 0.093750 0.250000 2.625000
v 0.093750 0.250000 4.375000
v -0.093750 0.250000 4.375000
v -0.093750 -0.250000 4.375000
v 0.093750 -0.250000 4.375000
v 0.093750 -0.250000 2.625000
v -0.093750 -0.250000 2.625000
v -0.125000 0.125000 2.625000
v 0.125000 0.125000 2.625000
v 0.125000 -0.125000 2.625000
v -0.125000 -0.125000 2.625000
v -0.125000 0.125000 2.500000
v -0.125000 0.125000 2.625000
v -0.125000 -0.125000 2.625000
v -0.125000 -0.125000 2.500000
v 0.125000 0.125000 2.625000
v 0.125000 0.125000 2.500000
v 0.125000 -0.125000 2.500000
v 0.125000 -0.125000 2.625000
v -0.125000 0.125000 2.500000
v 0.125000 0.125000 2.500000
v 0.125000 0.125000 2.625000
v -0.125000 0.125000 2.625000
v -0.125000 -0.125000 2.625000
v 0.125000 -0.125000 2.625000
v 0.125000 -0.125000 2.500000
v -0.125000 -0.125000 2.500000
v 0.125000 0.125000 4.375000
v -0.125000 0.125000 4.375000
v -0.125000 -0.125000 4.375000
v 0.125000 -0.125000 4.375000
v -0.125000 0.125000 4.375000
v -0.125000 0.125000 4.500000
v -0.125000 -0.125000 4.500000
v -0.125000 -0.125000 4.375000
v 0.125000 0.125000 4.500000
v 0.125000 0.125000 4.375000
v 0.125000 -0.125000 4.375000
v 0.125000 -0.125000 4.500000
v -0.125000 0.125000 4.375000
v 0.125000 0.125000 4.375000
v 0.125000 0.125000 4.500000
v -0.125000 0.125000 4.500000
v -0.125000 -0.125000 4.500000
v 0.125000 -0.125000 4.500000
v 0.125000 -0.125000 4.375000
v -0.125000 -0.125000 4.375000
v -0.187500 0.187500 2.625000
v -0.187500 0.187500 4.375000
v -0.187500 -0.187500 4.375000
v -0.187500 -0.187500 2.625000
v 0.187500 0.187500 4.375000
v 0.187500 0.187500 2.625000
v 0.187500 -0.187500 2.625000
v 0.187500 -0.187500 4.375000
v -0.187500 0.187500 2.625000
v 0.187500 0.187500 2.625000
v 0.187500 0.187500 4.375000
v -0.187500 0.187500 4.375000
v -0.187500 -0.187500 4.375000
v 0.187500 -0.187500 4.375000
v 0.187500 -0.187500 2.625000
v -0.187500 -0.187500 2.625000
v 0.250000 0.093750 2.625000
v -0.250000 0.093750 2.625000
v -0.250000 -0.093750 2.625000
v 0.250000 -0.093750 2.625000
v -0.250000 0.093750 4.375000
v 0.250000 0.093750 4.375000
v 0.250000 -0.093750 4.375000
v -0.250000 -0.093750 4.375000
v -0.250000 0.093750 2.625000
v -0.250000 0.093750 4.375000
v -0.250000 -0.093750 4.375000
v -0.250000 -0.093750 2.625000
v 0.250000 0.093750 4.375000
v 0.250000 0.093750 2.625000
v 0.250000 -0.093750 2.625000
v 0.250000 -0.093750 4.375000
v -0.250000 0.093750 2.625000
v 0.250000 0.093750 2.625000
v 0.250000 0.093750 4.375000
v -0.250000 0.093750 4.375000
v -0.250000 -0.093750 4.375000
v 0.250000 -0.093750 4.375000
v 0.250000 -0.093750 2.625000
v -0.250000 -0.093750 2.625000
v 0.093750 0.250000 2.625000
v -0.093750 0.250000 2.625000
v -0.093750 -0.250000 2.625000
v 0.093750 -0.250000 2.625000
v -0.093750 0.250000 4.375000
v 0.093750 0.250000 4.375000
v 0.093750 -0.250000 4.375000
v -0.093750 -0.250000 4.375000
v -0.093750 0.250000 2.625000
v -0.093750 0.250000 4.375000
v -0.093750 -0.250000 4.375000
v -0.093750 -0.250000 2.625000
v 0.093750 0.250000 4.375000
v 0.093750 0.250000 2.625000
v 0.093750 -0.250000 2.625000
v 0.093750 -0.250000 4.375000
v -0.093750 0.250000 2.625000
v 0.093750 0.250000 2.625000
v 0.093750 0.250000 4.375000
v -0.093750 0.250000 4.375000
v -0.093750 -0.250000 4.375000
v 0.093750 -0.250000 4.375000
v 0.093750 -0.250000 2.625000
v -0.093750 -0.250000 2.625000
v -0.125000 0.125000 2.625000
v 0.125000 0.125000 2.625000
v 0.125000 -0.125000 2.625000
v -0.125000 -0.125000 2.625000
v -0.125000 0.125000 2.500000
v -0.125000 0.125000 2.625000
v -0.125000 -0.125000 2.625000
v -0.125000 -0.125000 2.500000
v 0.125000 0.125000 2.625000
v 0.125000 0.125000 2.500000
v 0.125000 -0.125000 2.500000
v 0.125000 -0.125000 2.625000
v -0.125000 0.125000 2.500000
v 0.125000 0.125000 2.500000
v 0.125000 0.125000 2.625000
v -0.125000 0.125000 2.625000
v -0.125000 -0.125000 2.625000
v 0.125000 -0.125000 2.625000
v 0.125000 -0.125000 2.500000
v -0.125000 -0.125000 2.500000
v 0.125000 0.125000 4.375000
v -0.125000 0.125000 4.375000
v -0.125000 -0.125000 4.375000
v 0.125000 -0.125000 4.375000
v -0.125000 0.125000 4.375000
v -0.125000 0.125000 4.500000
v -0.125000 -0.125000 4.500000
v -0.125000 -0.125000 4.375000
v 0.125000 0.125000 4.500000
v 0.125000 0.125000 4.375000
v 0.125000 -0.125000 4.375000
v 0.125000 -0.125000 4.500000
v -0.125000 0.125000 4.375000
v 0.125000 0.125000 4.375000
v 0.125000 0.125000 4.500000
v -0.125000 0.125000 4.500000
v -0.125000 -0.125000 4.500000
v 0.125000 -0.125000 4.500000
v 0.125000 -0.125000 4.375000
v -0.125000 -0.125000 4.375000
v 2.250000 0.191500 1.000000
v 2.250000 0.191500 3.000000
v 3.000000 0.191500 3.000000
v 3.000000 0.191500 1.000000
v -0.187500 0.191500 2.625000
v -0.187500 0.191500 4.375000
v 0.187500 0.191500 4.375000
v 0.187500 0.191500 2.625000
v -0.187500 0.195500 2.625000
v -0.187500 0.195500 4.375000
v 0.187500 0.195500 4.375000
v 0.187500 0.195500 2.625000
v -0.187500 0.199500 2.625000
v -0.187500 0.199500 4.375000
v 0.187500 0.199500 4.375000
v 0.187500 0.199500 2.625000
v 0.191500 0.187500 4.375000
v 0.191500 -0.187500 4.375000
v 0.191500 -0.187500 2.625000
v 0.191500 0.187500 2.625000
v 0.195500 0.187500 4.375000
v 0.195500 -0.187500 4.375000
v 0.195500 -0.187500 2.625000
v 0.195500 0.187500 2.625000
v 1.004000 0.812500 3.000000
v 1.004000 0.187500 3.000000
v 1.004000 0.187500 2.812500
v 1.004000 0.812500 2.812500
v 0.129000 0.125000 2.625000
v 0.129000 -0.125000 2.625000
v 0.129000 -0.125000 2.500000
v 0.129000 0.125000 2.500000
v 0.129000 0.125000 4.500000
v 0.129000 -0.125000 4.500000
v 0.129000 -0.125000 4.375000
v 0.129000 0.125000 4.375000
v 0.133000 0.125000 2.625000
v 0.133000 -0.125000 2.625000
v 0.133000 -0.125000 2.500000
v 0.133000 0.125000 2.500000
v 0.133000 0.125000 4.500000
v 0.133000 -0.125000 4.500000
v 0.133000 -0.125000 4.375000
v 0.133000 0.125000 4.375000
v 2.246000 0.812500 2.812500
v 2.246000 0.187500 2.812500
v 2.246000 0.187500 3.000000
v 2.246000 0.812500 3.000000
v -0.093750 0.254000 2.625000
v -0.093750 0.254000 4.375000
v 0.093750 0.254000 4.375000
v 0.093750 0.254000 2.625000
v -0.093750 0.258000 2.625000
v -0.093750 0.258000 4.375000
v 0.093750 0.258000 4.375000
v 0.093750 0.258000 2.625000
v -0.191500 0.187500 2.625000
v -0.191500 -0.187500 2.625000
v -0.191500 -0.187500 4.375000
v -0.191500 0.187500 4.375000
v -0.195500 0.187500 2.625000
v -0.195500 -0.187500 2.625000
v -0.195500 -0.187500 4.375000
v -0.195500 0.187500 4.375000
v -0.187500 -0.191500 4.375000
v -0.187500 -0.191500 2.625000
v 0.187500 -0.191500 2.625000
v 0.187500 -0.191500 4.375000
v -0.187500 -0.195500 4.375000
v -0.187500 -0.195500 2.625000
v 0.187500 -0.195500 2.625000
v 0.187500 -0.195500 4.375000
v 0.093750 0.250000 2.621000
v 0.093750 -0.250000 2.621000
v -0.093750 -0.250000 2.621000
v -0.093750 0.250000 2.621000
v 0.250000 0.093750 2.617000
v 0.250000 -0.093750 2.617000
v -0.250000 -0.093750 2.617000
v -0.250000 0.093750 2.617000
v 0.093750 0.250000 2.613000
v 0.093750 -0.250000 2.613000
v -0.093750 -0.250000 2.613000
v -0.093750 0.250000 2.613000
v 0.250000 0.093750 2.609000
v 0.250000 -0.093750 2.609000
v -0.250000 -0.093750 2.609000
v -0.250000 0.093750 2.609000
v 0.093750 0.250000 2.605000
v 0.093750 -0.250000 2.605000
v -0.093750 -0.250000 2.605000
v -0.093750 0.250000 2.605000
v -0.093750 0.250000 4.379000
v -0.093750 -0.250000 4.379000
v 0.093750 -0.250000 4.379000
v 0.093750 0.250000 4.379000
v -0.250000 0.093750 4.383000
v -0.250000 -0.093750 4.383000
v 0.250000 -0.093750 4.383000
v 0.250000 0.093750 4.383000
v -0.093750 0.250000 4.387000
v -0.093750 -0.250000 4.387000
v 0.093750 -0.250000 4.387000
v 0.093750 0.250000 4.387000
v -0.250000 0.093750 4.391000
v -0.250000 -0.093750 4.391000
v 0.250000 -0.093750 4.391000
v 0.250000 0.093750 4.391000
v -0.093750 0.250000 4.395000
v -0.093750 -0.250000 4.395000
v 0.093750 -0.250000 4.395000
v 0.093750 0.250000 4.395000
v -0.254000 0.093750 2.625000
v -0.254000 -0.093750 2.625000
v -0.254000 -0.093750 4.375000
v -0.254000 0.093750 4.375000
v -0.258000 0.093750 2.625000
v -0.258000 -0.093750 2.625000
v -0.258000 -0.093750 4.375000
v -0.258000 0.093750 4.375000
v 0.254000 0.093750 4.375000
v 0.254000 -0.093750 4.375000
v 0.254000 -0.093750 2.625000
v 0.254000 0.093750 2.625000
v 0.258000 0.093750 4.375000
v 0.258000 -0.093750 4.375000
v 0.258000 -0.093750 2.625000
v 0.258000 0.093750 2.625000
v -0.250000 0.097750 2.625000
v -0.250000 0.097750 4.375000
v 0.250000 0.097750 4.375000
v 0.250000 0.097750 2.625000
v -0.250000 0.101750 2.625000
v -0.250000 0.101750 4.375000
v 0.250000 0.101750 4.375000
v 0.250000 0.101750 2.625000
v -0.250000 -0.097750 4.375000
v -0.250000 -0.097750 2.625000
v 0.250000 -0.097750 2.625000
v 0.250000 -0.097750 4.375000
v -0.250000 -0.101750 4.375000
v -0.250000 -0.101750 2.625000
v 0.250000 -0.101750 2.625000
v 0.250000 -0.101750 4.375000
v -0.097750 0.250000 2.625000
v -0.097750 -0.250000 2.625000
v -0.097750 -0.250000 4.375000
v -0.097750 0.250000 4.375000
v -0.101750 0.250000 2.625000
v -0.101750 -0.250000 2.625000
v -0.101750 -0.250000 4.375000
v -0.101750 0.250000 4.375000
v 0.097750 0.250000 4.375000
v 0.097750 -0.250000 4.375000
v 0.097750 -0.250000 2.625000
v 0.097750 0.250000 2.625000
v 0.101750 0.250000 4.375000
v 0.101750 -0.250000 4.375000
v 0.101750 -0.250000 2.625000
v 0.101750 0.250000 2.625000
v -0.093750 -0.254000 4.375000
v -0.093750 -0.254000 2.625000
v 0.093750 -0.254000 2.625000
v 0.093750 -0.254000 4.375000
v -0.093750 -0.258000 4.375000
v -0.093750 -0.258000 2.625000
v 0.093750 -0.258000 2.625000
v 0.093750 -0.258000 4.375000
v -0.125000 0.125000 2.629000
v -0.125000 -0.125000 2.629000
v 0.125000 -0.125000 2.629000
v 0.125000 0.125000 2.629000
v -0.125000 0.125000 2.633000
v -0.125000 -0.125000 2.633000
v 0.125000 -0.125000 2.633000
v 0.125000 0.125000 2.633000
v -0.129000 0.125000 2.500000
v -0.129000 -0.125000 2.500000
v -0.129000 -0.125000 2.625000
v -0.129000 0.125000 2.625000
v -0.129000 0.125000 4.375000
v -0.129000 -0.125000 4.375000
v -0.129000 -0.125000 4.500000
v -0.129000 0.125000 4.500000
v -0.133000 0.125000 2.500000
v -0.133000 -0.125000 2.500000
v -0.133000 -0.125000 2.625000
v -0.133000 0.125000 2.625000
v -0.133000 0.125000 4.375000
v -0.133000 -0.125000 4.375000
v -0.133000 -0.125000 4.500000
v -0.133000 0.125000 4.500000
v -0.125000 0.129000 2.500000
v -0.125000 0.129000 2.625000
v 0.125000 0.129000 2.625000
v 0.125000 0.129000 2.500000
v -0.125000 0.129000 4.375000
v -0.125000 0.129000 4.500000
v 0.125000 0.129000 4.500000
v 0.125000 0.129000 4.375000
v -0.125000 0.133000 2.500000
v -0.125000 0.133000 2.625000
v 0.125000 0.133000 2.625000
v 0.125000 0.133000 2.500000
v -0.125000 0.133000 4.375000
v -0.125000 0.133000 4.500000
v 0.125000 0.133000 4.500000
v 0.125000 0.133000 4.375000
v -0.125000 -0.129000 2.625000
v -0.125000 -0.129000 2.500000
v 0.125000 -0.129000 2.500000
v 0.125000 -0.129000 2.625000
v -0.125000 -0.129000 4.500000
v -0.125000 -0.129000 4.375000
v 0.125000 -0.129000 4.375000
v 0.125000 -0.129000 4.500000
v -0.125000 -0.133000 2.625000
v -0.125000 -0.133000 2.500000
v 0.125000 -0.133000 2.500000
v 0.125000 -0.133000 2.625000
v -0.125000 -0.133000 4.500000
v -0.125000 -0.133000 4.375000
v 0.125000 -0.133000 4.375000
v 0.125000 -0.133000 4.500000
v 0.125000 0.125000 4.371000
v 0.125000 -0.125000 4.371000
v -0.125000 -0.125000 4.371000
v -0.125000 0.125000 4.371000
v 0.125000 0.125000 4.367000
v 0.125000 -0.125000 4.367000
v -0.125000 -0.125000 4.367000
v -0.125000 0.125000 4.367000
vt 0.796875 0.414062
vt 0.859375 0.414062
vt 0.859375 0.390625
vt 0.796875 0.390625
vt 0.796875 0.414062
vt 0.859375 0.414062
vt 0.859375 0.390625
vt 0.796875 0.390625
vt 0.812500 0.492188
vt 1.000000 0.492188
vt 1.000000 0.468750
vt 0.812500 0.468750
vt 0.000000 1.000000
vt 0.062500 1.000000
vt 0.062500 0.625000
vt 0.000000 0.625000
vt 0.964844 1.000000
vt 0.976562 1.000000
vt 0.976562 0.921875
vt 0.964844 0.921875
vt 0.964844 1.000000
vt 0.976562 1.000000
vt 0.976562 0.921875
vt 0.964844 0.921875
vt 0.964844 1.000000
vt 0.976562 1.000000
vt 0.976562 0.921875
vt 0.964844 0.921875
vt 0.964844 1.000000
vt 0.976562 1.000000
vt 0.976562 0.921875
vt 0.964844 0.921875
vt 0.964844 1.000000
vt 0.976562 1.000000
vt 0.976562 0.921875
vt 0.964844 0.921875
vt 0.964844 1.000000
vt 0.976562 1.000000
vt 0.976562 0.921875
vt 0.964844 0.921875
vt 0.964844 1.000000
vt 0.976562 1.000000
vt 0.976562 0.921875
vt 0.964844 0.921875
vt 0.964844 1.000000
vt 0.976562 1.000000
vt 0.976562 0.921875
vt 0.964844 0.921875
vt 0.964844 1.000000
vt 0.976562 1.000000
vt 0.976562 0.921875
vt 0.964844 0.921875
vt 0.964844 1.000000
vt 0.976562 1.000000
vt 0.976562 0.921875
vt 0.964844 0.921875
vt 0.964844 1.000000
vt 0.976562 1.000000
vt 0.976562 0.921875
vt 0.964844 0.921875
vt 0.964844 1.000000
vt 0.976562 1.000000
vt 0.976562 0.921875
vt 0.964844 0.921875
vt 0.976562 1.000000
vt 0.984375 1.000000
vt 0.984375 0.921875
vt 0.976562 0.921875
vt 0.976562 1.000000
vt 0.984375 1.000000
vt 0.984375 0.921875
vt 0.976562 0.921875
vt 0.976562 1.000000
vt 0.984375 1.000000
vt 0.984375 0.921875
vt 0.976562 0.921875
vt 0.976562 1.000000
vt 0.984375 1.000000
vt 0.984375 0.921875
vt 0.976562 0.921875
vt 0.976562 1.000000
vt 0.984375 1.000000
vt 0.984375 0.921875
vt 0.976562 0.921875
vt 0.976562 1.000000
vt 0.984375 1.000000
vt 0.984375 0.921875
vt 0.976562 0.921875
vt 0.976562 1.000000
vt 0.984375 1.000000
vt 0.984375 0.921875
vt 0.976562 0.921875
vt 0.976562 1.000000
vt 0.984375 1.000000
vt 0.984375 0.921875
vt 0.976562 0.921875
vt 0.851562 0.625000
vt 0.910156 0.625000
vt 0.910156 0.546875
vt 0.851562 0.546875
vt 0.851562 0.625000
vt 0.910156 0.625000
vt 0.910156 0.546875
vt 0.851562 0.546875
vt 0.257812 0.625000
vt 0.437500 0.625000
vt 0.437500 0.546875
vt 0.257812 0.546875
vt 0.437500 0.625000
vt 0.617188 0.625000
vt 0.617188 0.546875
vt 0.437500 0.546875
vt 0.988281 1.000000
vt 0.992188 1.000000
vt 0.992188 0.929688
vt 0.988281 0.929688
vt 0.988281 1.000000
vt 0.992188 1.000000
vt 0.992188 0.929688
vt 0.988281 0.929688
vt 0.042969 0.492188
vt 0.105469 0.492188
vt 0.105469 0.421875
vt 0.042969 0.421875
vt 0.953125 1.000000
vt 0.957031 1.000000
vt 0.957031 0.875000
vt 0.953125 0.875000
vt 0.859375 0.414062
vt 0.921875 0.414062
vt 0.921875 0.390625
vt 0.859375 0.390625
vt 0.859375 0.414062
vt 0.921875 0.414062
vt 0.921875 0.390625
vt 0.859375 0.390625
vt 0.000000 0.414062
vt 0.187500 0.414062
vt 0.187500 0.390625
vt 0.000000 0.390625
vt 0.000000 0.414062
vt 0.187500 0.414062
vt 0.187500 0.390625
vt 0.000000 0.390625
vt 0.062500 1.000000
vt 0.125000 1.000000
vt 0.125000 0.625000
vt 0.062500 0.625000
vt 0.976562 0.625000
vt 1.000000 0.625000
vt 1.000000 0.578125
vt 0.976562 0.578125
vt 0.992188 1.000000
vt 0.996094 1.000000
vt 0.996094 0.953125
vt 0.992188 0.953125
vt 0.992188 1.000000
vt 0.996094 1.000000
vt 0.996094 0.953125
vt 0.992188 0.953125
vt 0.046875 0.367188
vt 0.070312 0.367188
vt 0.070312 0.359375
vt 0.046875 0.359375
vt 0.046875 0.367188
vt 0.070312 0.367188
vt 0.070312 0.359375
vt 0.046875 0.359375
vt 0.976562 0.625000
vt 1.000000 0.625000
vt 1.000000 0.578125
vt 0.976562 0.578125
vt 0.992188 1.000000
vt 0.996094 1.000000
vt 0.996094 0.953125
vt 0.992188 0.953125
vt 0.992188 1.000000
vt 0.996094 1.000000
vt 0.996094 0.953125
vt 0.992188 0.953125
vt 0.046875 0.367188
vt 0.070312 0.367188
vt 0.070312 0.359375
vt 0.046875 0.359375
vt 0.046875 0.367188
vt 0.070312 0.367188
vt 0.070312 0.359375
vt 0.046875 0.359375
vt 0.921875 0.414062
vt 0.968750 0.414062
vt 0.968750 0.390625
vt 0.921875 0.390625
vt 0.921875 0.414062
vt 0.968750 0.414062
vt 0.968750 0.390625
vt 0.921875 0.390625
vt 0.343750 0.414062
vt 0.468750 0.414062
vt 0.468750 0.390625
vt 0.343750 0.390625
vt 0.343750 0.414062
vt 0.468750 0.414062
vt 0.468750 0.390625
vt 0.343750 0.390625
vt 0.476562 1.000000
vt 0.523438 1.000000
vt 0.523438 0.750000
vt 0.476562 0.750000
vt 0.964844 1.000000
vt 0.976562 1.000000
vt 0.976562 0.921875
vt 0.964844 0.921875
vt 0.964844 1.000000
vt 0.976562 1.000000
vt 0.976562 0.921875
vt 0.964844 0.921875
vt 0.964844 1.000000
vt 0.976562 1.000000
vt 0.976562 0.921875
vt 0.964844 0.921875
vt 0.964844 1.000000
vt 0.976562 1.000000
vt 0.976562 0.921875
vt 0.964844 0.921875
vt 0.964844 1.000000
vt 0.976562 1.000000
vt 0.976562 0.921875
vt 0.964844 0.921875
vt 0.964844 1.000000
vt 0.976562 1.000000
vt 0.976562 0.921875
vt 0.964844 0.921875
vt 0.964844 1.000000
vt 0.976562 1.000000
vt 0.976562 0.921875
vt 0.964844 0.921875
vt 0.964844 1.000000
vt 0.976562 1.000000
vt 0.976562 0.921875
vt 0.964844 0.921875
vt 0.964844 1.000000
vt 0.976562 1.000000
vt 0.976562 0.921875
vt 0.964844 0.921875
vt 0.964844 1.000000
vt 0.976562 1.000000
vt 0.976562 0.921875
vt 0.964844 0.921875
vt 0.964844 1.000000
vt 0.976562 1.000000
vt 0.976562 0.921875
vt 0.964844 0.921875
vt 0.964844 1.000000
vt 0.976562 1.000000
vt 0.976562 0.921875
vt 0.964844 0.921875
vt 0.976562 1.000000
vt 0.984375 1.000000
vt 0.984375 0.921875
vt 0.976562 0.921875
vt 0.976562 1.000000
vt 0.984375 1.000000
vt 0.984375 0.921875
vt 0.976562 0.921875
vt 0.976562 1.000000
vt 0.984375 1.000000
vt 0.984375 0.921875
vt 0.976562 0.921875
vt 0.976562 1.000000
vt 0.984375 1.000000
vt 0.984375 0.921875
vt 0.976562 0.921875
vt 0.000000 0.492188
vt 0.042969 0.492188
vt 0.042969 0.414062
vt 0.000000 0.414062
vt 0.000000 0.492188
vt 0.042969 0.492188
vt 0.042969 0.414062
vt 0.000000 0.414062
vt 0.617188 0.625000
vt 0.734375 0.625000
vt 0.734375 0.546875
vt 0.617188 0.546875
vt 0.734375 0.625000
vt 0.851562 0.625000
vt 0.851562 0.546875
vt 0.734375 0.546875
vt 0.000000 0.390625
vt 0.046875 0.390625
vt 0.046875 0.367188
vt 0.000000 0.367188
vt 0.000000 0.390625
vt 0.046875 0.390625
vt 0.046875 0.367188
vt 0.000000 0.367188
vt 0.468750 0.414062
vt 0.593750 0.414062
vt 0.593750 0.390625
vt 0.468750 0.390625
vt 0.468750 0.414062
vt 0.593750 0.414062
vt 0.593750 0.390625
vt 0.468750 0.390625
vt 0.523438 1.000000
vt 0.570312 1.000000
vt 0.570312 0.750000
vt 0.523438 0.750000
vt 0.992188 1.000000
vt 0.996094 1.000000
vt 0.996094 0.953125
vt 0.992188 0.953125
vt 0.992188 1.000000
vt 0.996094 1.000000
vt 0.996094 0.953125
vt 0.992188 0.953125
vt 0.976562 0.625000
vt 1.000000 0.625000
vt 1.000000 0.578125
vt 0.976562 0.578125
vt 0.992188 1.000000
vt 0.996094 1.000000
vt 0.996094 0.953125
vt 0.992188 0.953125
vt 0.992188 1.000000
vt 0.996094 1.000000
vt 0.996094 0.953125
vt 0.992188 0.953125
vt 0.992188 1.000000
vt 0.996094 1.000000
vt 0.996094 0.953125
vt 0.992188 0.953125
vt 0.992188 1.000000
vt 0.996094 1.000000
vt 0.996094 0.953125
vt 0.992188 0.953125
vt 0.976562 0.625000
vt 1.000000 0.625000
vt 1.000000 0.578125
vt 0.976562 0.578125
vt 0.992188 1.000000
vt 0.996094 1.000000
vt 0.996094 0.953125
vt 0.992188 0.953125
vt 0.992188 1.000000
vt 0.996094 1.000000
vt 0.996094 0.953125
vt 0.992188 0.953125
vt 0.703125 0.414062
vt 0.796875 0.414062
vt 0.796875 0.390625
vt 0.703125 0.390625
vt 0.703125 0.414062
vt 0.796875 0.414062
vt 0.796875 0.390625
vt 0.703125 0.390625
vt 0.187500 0.414062
vt 0.343750 0.414062
vt 0.343750 0.390625
vt 0.187500 0.390625
vt 0.125000 1.000000
vt 0.218750 1.000000
vt 0.218750 0.687500
vt 0.125000 0.687500
vt 0.941406 1.000000
vt 0.953125 1.000000
vt 0.953125 0.867188
vt 0.941406 0.867188
vt 0.941406 1.000000
vt 0.953125 1.000000
vt 0.953125 0.867188
vt 0.941406 0.867188
vt 0.941406 1.000000
vt 0.953125 1.000000
vt 0.953125 0.867188
vt 0.941406 0.867188
vt 0.941406 1.000000
vt 0.953125 1.000000
vt 0.953125 0.867188
vt 0.941406 0.867188
vt 0.941406 1.000000
vt 0.953125 1.000000
vt 0.953125 0.867188
vt 0.941406 0.867188
vt 0.941406 1.000000
vt 0.953125 1.000000
vt 0.953125 0.867188
vt 0.941406 0.867188
vt 0.941406 1.000000
vt 0.953125 1.000000
vt 0.953125 0.867188
vt 0.941406 0.867188
vt 0.941406 1.000000
vt 0.953125 1.000000
vt 0.953125 0.867188
vt 0.941406 0.867188
vt 0.785156 0.492188
vt 0.796875 0.492188
vt 0.796875 0.460938
vt 0.785156 0.460938
vt 0.785156 0.492188
vt 0.796875 0.492188
vt 0.796875 0.460938
vt 0.785156 0.460938
vt 0.785156 0.492188
vt 0.796875 0.492188
vt 0.796875 0.460938
vt 0.785156 0.460938
vt 0.785156 0.492188
vt 0.796875 0.492188
vt 0.796875 0.460938
vt 0.785156 0.460938
vt 0.941406 1.000000
vt 0.953125 1.000000
vt 0.953125 0.867188
vt 0.941406 0.867188
vt 0.941406 1.000000
vt 0.953125 1.000000
vt 0.953125 0.867188
vt 0.941406 0.867188
vt 0.941406 1.000000
vt 0.953125 1.000000
vt 0.953125 0.867188
vt 0.941406 0.867188
vt 0.941406 1.000000
vt 0.953125 1.000000
vt 0.953125 0.867188
vt 0.941406 0.867188
vt 0.796875 0.492188
vt 0.804688 0.492188
vt 0.804688 0.460938
vt 0.796875 0.460938
vt 0.796875 0.492188
vt 0.804688 0.492188
vt 0.804688 0.460938
vt 0.796875 0.460938
vt 0.796875 0.492188
vt 0.804688 0.492188
vt 0.804688 0.460938
vt 0.796875 0.460938
vt 0.000000 0.625000
vt 0.085938 0.625000
vt 0.085938 0.492188
vt 0.000000 0.492188
vt 0.085938 0.625000
vt 0.171875 0.625000
vt 0.171875 0.492188
vt 0.085938 0.492188
vt 0.769531 1.000000
vt 0.917969 1.000000
vt 0.917969 0.867188
vt 0.769531 0.867188
vt 0.769531 1.000000
vt 0.917969 1.000000
vt 0.917969 0.867188
vt 0.769531 0.867188
vt 0.910156 0.625000
vt 0.964844 0.625000
vt 0.964844 0.546875
vt 0.910156 0.546875
vt 0.984375 1.000000
vt 0.988281 1.000000
vt 0.988281 0.921875
vt 0.984375 0.921875
vt 0.984375 1.000000
vt 0.988281 1.000000
vt 0.988281 0.921875
vt 0.984375 0.921875
vt 0.933594 0.390625
vt 0.988281 0.390625
vt 0.988281 0.382812
vt 0.933594 0.382812
vt 0.511719 0.390625
vt 0.605469 0.390625
vt 0.605469 0.375000
vt 0.511719 0.375000
vt 0.511719 0.390625
vt 0.605469 0.390625
vt 0.605469 0.375000
vt 0.511719 0.375000
vt 0.089844 0.390625
vt 0.246094 0.390625
vt 0.246094 0.375000
vt 0.089844 0.375000
vt 0.089844 0.390625
vt 0.246094 0.390625
vt 0.246094 0.375000
vt 0.089844 0.375000
vt 0.218750 1.000000
vt 0.312500 1.000000
vt 0.312500 0.687500
vt 0.218750 0.687500
vt 0.605469 0.390625
vt 0.675781 0.390625
vt 0.675781 0.375000
vt 0.605469 0.375000
vt 0.605469 0.390625
vt 0.675781 0.390625
vt 0.675781 0.375000
vt 0.605469 0.375000
vt 0.246094 0.390625
vt 0.386719 0.390625
vt 0.386719 0.375000
vt 0.246094 0.375000
vt 0.246094 0.390625
vt 0.386719 0.390625
vt 0.386719 0.375000
vt 0.246094 0.375000
vt 0.312500 1.000000
vt 0.382812 1.000000
vt 0.382812 0.718750
vt 0.312500 0.718750
vt 0.000000 0.367188
vt 0.046875 0.367188
vt 0.046875 0.359375
vt 0.000000 0.359375
vt 0.000000 0.367188
vt 0.046875 0.367188
vt 0.046875 0.359375
vt 0.000000 0.359375
vt 0.855469 0.390625
vt 0.933594 0.390625
vt 0.933594 0.382812
vt 0.855469 0.382812
vt 0.855469 0.390625
vt 0.933594 0.390625
vt 0.933594 0.382812
vt 0.855469 0.382812
vt 0.722656 1.000000
vt 0.769531 1.000000
vt 0.769531 0.843750
vt 0.722656 0.843750
vt 0.988281 0.390625
vt 1.000000 0.390625
vt 1.000000 0.382812
vt 0.988281 0.382812
vt 0.988281 0.390625
vt 1.000000 0.390625
vt 1.000000 0.382812
vt 0.988281 0.382812
vt 0.988281 0.390625
vt 1.000000 0.390625
vt 1.000000 0.382812
vt 0.988281 0.382812
vt 0.988281 0.390625
vt 1.000000 0.390625
vt 1.000000 0.382812
vt 0.988281 0.382812
vt 0.078125 0.390625
vt 0.089844 0.390625
vt 0.089844 0.367188
vt 0.078125 0.367188
vt 0.070312 0.367188
vt 0.085938 0.367188
vt 0.085938 0.359375
vt 0.070312 0.359375
vt 0.070312 0.367188
vt 0.085938 0.367188
vt 0.085938 0.359375
vt 0.070312 0.359375
vt 0.046875 0.367188
vt 0.070312 0.367188
vt 0.070312 0.359375
vt 0.046875 0.359375
vt 0.046875 0.367188
vt 0.070312 0.367188
vt 0.070312 0.359375
vt 0.046875 0.359375
vt 0.582031 0.492188
vt 0.597656 0.492188
vt 0.597656 0.445312
vt 0.582031 0.445312
vt 0.597656 0.492188
vt 0.722656 0.492188
vt 0.722656 0.460938
vt 0.597656 0.460938
vt 0.597656 0.492188
vt 0.722656 0.492188
vt 0.722656 0.460938
vt 0.597656 0.460938
vt 0.382812 1.000000
vt 0.476562 1.000000
vt 0.476562 0.750000
vt 0.382812 0.750000
vt 0.746094 0.390625
vt 0.855469 0.390625
vt 0.855469 0.382812
vt 0.746094 0.382812
vt 0.746094 0.390625
vt 0.855469 0.390625
vt 0.855469 0.382812
vt 0.746094 0.382812
vt 0.578125 1.000000
vt 0.648438 1.000000
vt 0.648438 0.781250
vt 0.578125 0.781250
vt 0.386719 0.390625
vt 0.511719 0.390625
vt 0.511719 0.375000
vt 0.386719 0.375000
vt 0.386719 0.390625
vt 0.511719 0.390625
vt 0.511719 0.375000
vt 0.386719 0.375000
vt 0.570312 1.000000
vt 0.578125 1.000000
vt 0.578125 0.750000
vt 0.570312 0.750000
vt 0.570312 1.000000
vt 0.578125 1.000000
vt 0.578125 0.750000
vt 0.570312 0.750000
vt 0.386719 0.390625
vt 0.511719 0.390625
vt 0.511719 0.375000
vt 0.386719 0.375000
vt 0.386719 0.390625
vt 0.511719 0.390625
vt 0.511719 0.375000
vt 0.386719 0.375000
vt 0.570312 1.000000
vt 0.578125 1.000000
vt 0.578125 0.750000
vt 0.570312 0.750000
vt 0.570312 1.000000
vt 0.578125 1.000000
vt 0.578125 0.750000
vt 0.570312 0.750000
vt 0.511719 0.390625
vt 0.605469 0.390625
vt 0.605469 0.375000
vt 0.511719 0.375000
vt 0.511719 0.390625
vt 0.605469 0.390625
vt 0.605469 0.375000
vt 0.511719 0.375000
vt 0.714844 1.000000
vt 0.722656 1.000000
vt 0.722656 0.812500
vt 0.714844 0.812500
vt 0.511719 0.390625
vt 0.605469 0.390625
vt 0.605469 0.375000
vt 0.511719 0.375000
vt 0.511719 0.390625
vt 0.605469 0.390625
vt 0.605469 0.375000
vt 0.511719 0.375000
vt 0.714844 1.000000
vt 0.722656 1.000000
vt 0.722656 0.812500
vt 0.714844 0.812500
vt 0.957031 1.000000
vt 0.964844 1.000000
vt 0.964844 0.890625
vt 0.957031 0.890625
vt 0.957031 1.000000
vt 0.964844 1.000000
vt 0.964844 0.890625
vt 0.957031 0.890625
vt 0.957031 1.000000
vt 0.964844 1.000000
vt 0.964844 0.890625
vt 0.957031 0.890625
vt 0.957031 1.000000
vt 0.964844 1.000000
vt 0.964844 0.890625
vt 0.957031 0.890625
vt 0.957031 1.000000
vt 0.964844 1.000000
vt 0.964844 0.890625
vt 0.957031 0.890625
vt 0.957031 1.000000
vt 0.964844 1.000000
vt 0.964844 0.890625
vt 0.957031 0.890625
vt 0.957031 1.000000
vt 0.964844 1.000000
vt 0.964844 0.890625
vt 0.957031 0.890625
vt 0.957031 1.000000
vt 0.964844 1.000000
vt 0.964844 0.890625
vt 0.957031 0.890625
vt 0.957031 1.000000
vt 0.964844 1.000000
vt 0.964844 0.890625
vt 0.957031 0.890625
vt 0.957031 1.000000
vt 0.964844 1.000000
vt 0.964844 0.890625
vt 0.957031 0.890625
vt 0.957031 1.000000
vt 0.964844 1.000000
vt 0.964844 0.890625
vt 0.957031 0.890625
vt 0.957031 1.000000
vt 0.964844 1.000000
vt 0.964844 0.890625
vt 0.957031 0.890625
vt 0.957031 1.000000
vt 0.964844 1.000000
vt 0.964844 0.890625
vt 0.957031 0.890625
vt 0.957031 1.000000
vt 0.964844 1.000000
vt 0.964844 0.890625
vt 0.957031 0.890625
vt 0.957031 1.000000
vt 0.964844 1.000000
vt 0.964844 0.890625
vt 0.957031 0.890625
vt 0.957031 1.000000
vt 0.964844 1.000000
vt 0.964844 0.890625
vt 0.957031 0.890625
vt 0.722656 0.492188
vt 0.753906 0.492188
vt 0.753906 0.460938
vt 0.722656 0.460938
vt 0.722656 0.492188
vt 0.753906 0.492188
vt 0.753906 0.460938
vt 0.722656 0.460938
vt 0.171875 0.625000
vt 0.257812 0.625000
vt 0.257812 0.515625
vt 0.171875 0.515625
vt 0.171875 0.625000
vt 0.257812 0.625000
vt 0.257812 0.515625
vt 0.171875 0.515625
vt 0.722656 0.492188
vt 0.753906 0.492188
vt 0.753906 0.460938
vt 0.722656 0.460938
vt 0.722656 0.492188
vt 0.753906 0.492188
vt 0.753906 0.460938
vt 0.722656 0.460938
vt 0.171875 0.625000
vt 0.257812 0.625000
vt 0.257812 0.515625
vt 0.171875 0.515625
vt 0.171875 0.625000
vt 0.257812 0.625000
vt 0.257812 0.515625
vt 0.171875 0.515625
vt 0.703125 0.414062
vt 0.796875 0.414062
vt 0.796875 0.390625
vt 0.703125 0.390625
vt 0.703125 0.414062
vt 0.796875 0.414062
vt 0.796875 0.390625
vt 0.703125 0.390625
vt 0.968750 0.414062
vt 1.000000 0.414062
vt 1.000000 0.390625
vt 0.968750 0.390625
vt 0.968750 0.414062
vt 1.000000 0.414062
vt 1.000000 0.390625
vt 0.968750 0.390625
vt 0.214844 0.492188
vt 0.308594 0.492188
vt 0.308594 0.429688
vt 0.214844 0.429688
vt 0.941406 1.000000
vt 0.953125 1.000000
vt 0.953125 0.867188
vt 0.941406 0.867188
vt 0.941406 1.000000
vt 0.953125 1.000000
vt 0.953125 0.867188
vt 0.941406 0.867188
vt 0.941406 1.000000
vt 0.953125 1.000000
vt 0.953125 0.867188
vt 0.941406 0.867188
vt 0.941406 1.000000
vt 0.953125 1.000000
vt 0.953125 0.867188
vt 0.941406 0.867188
vt 0.941406 1.000000
vt 0.953125 1.000000
vt 0.953125 0.867188
vt 0.941406 0.867188
vt 0.941406 1.000000
vt 0.953125 1.000000
vt 0.953125 0.867188
vt 0.941406 0.867188
vt 0.941406 1.000000
vt 0.953125 1.000000
vt 0.953125 0.867188
vt 0.941406 0.867188
vt 0.941406 1.000000
vt 0.953125 1.000000
vt 0.953125 0.867188
vt 0.941406 0.867188
vt 0.941406 1.000000
vt 0.953125 1.000000
vt 0.953125 0.867188
vt 0.941406 0.867188
vt 0.941406 1.000000
vt 0.953125 1.000000
vt 0.953125 0.867188
vt 0.941406 0.867188
vt 0.941406 1.000000
vt 0.953125 1.000000
vt 0.953125 0.867188
vt 0.941406 0.867188
vt 0.941406 1.000000
vt 0.953125 1.000000
vt 0.953125 0.867188
vt 0.941406 0.867188
vt 0.941406 1.000000
vt 0.953125 1.000000
vt 0.953125 0.867188
vt 0.941406 0.867188
vt 0.941406 1.000000
vt 0.953125 1.000000
vt 0.953125 0.867188
vt 0.941406 0.867188
vt 0.941406 1.000000
vt 0.953125 1.000000
vt 0.953125 0.867188
vt 0.941406 0.867188
vt 0.941406 1.000000
vt 0.953125 1.000000
vt 0.953125 0.867188
vt 0.941406 0.867188
vt 0.085938 0.625000
vt 0.171875 0.625000
vt 0.171875 0.492188
vt 0.085938 0.492188
vt 0.000000 0.625000
vt 0.085938 0.625000
vt 0.085938 0.492188
vt 0.000000 0.492188
vt 0.917969 1.000000
vt 0.941406 1.000000
vt 0.941406 0.867188
vt 0.917969 0.867188
vt 0.917969 1.000000
vt 0.941406 1.000000
vt 0.941406 0.867188
vt 0.917969 0.867188
vt 0.910156 0.625000
vt 0.964844 0.625000
vt 0.964844 0.546875
vt 0.910156 0.546875
vt 0.984375 1.000000
vt 0.988281 1.000000
vt 0.988281 0.921875
vt 0.984375 0.921875
vt 0.984375 1.000000
vt 0.988281 1.000000
vt 0.988281 0.921875
vt 0.984375 0.921875
vt 0.933594 0.390625
vt 0.988281 0.390625
vt 0.988281 0.382812
vt 0.933594 0.382812
vt 0.511719 0.390625
vt 0.605469 0.390625
vt 0.605469 0.375000
vt 0.511719 0.375000
vt 0.511719 0.390625
vt 0.605469 0.390625
vt 0.605469 0.375000
vt 0.511719 0.375000
vt 0.675781 0.390625
vt 0.707031 0.390625
vt 0.707031 0.375000
vt 0.675781 0.375000
vt 0.675781 0.390625
vt 0.707031 0.390625
vt 0.707031 0.375000
vt 0.675781 0.375000
vt 0.308594 0.492188
vt 0.402344 0.492188
vt 0.402344 0.429688
vt 0.308594 0.429688
vt 0.605469 0.390625
vt 0.675781 0.390625
vt 0.675781 0.375000
vt 0.605469 0.375000
vt 0.605469 0.390625
vt 0.675781 0.390625
vt 0.675781 0.375000
vt 0.605469 0.375000
vt 0.707031 0.390625
vt 0.730469 0.390625
vt 0.730469 0.375000
vt 0.707031 0.375000
vt 0.707031 0.390625
vt 0.730469 0.390625
vt 0.730469 0.375000
vt 0.707031 0.375000
vt 0.511719 0.492188
vt 0.582031 0.492188
vt 0.582031 0.445312
vt 0.511719 0.445312
vt 0.070312 0.367188
vt 0.085938 0.367188
vt 0.085938 0.359375
vt 0.070312 0.359375
vt 0.070312 0.367188
vt 0.085938 0.367188
vt 0.085938 0.359375
vt 0.070312 0.359375
vt 0.070312 0.367188
vt 0.085938 0.367188
vt 0.085938 0.359375
vt 0.070312 0.359375
vt 0.070312 0.367188
vt 0.085938 0.367188
vt 0.085938 0.359375
vt 0.070312 0.359375
vt 0.753906 0.492188
vt 0.769531 0.492188
vt 0.769531 0.460938
vt 0.753906 0.460938
vt 0.402344 0.492188
vt 0.511719 0.492188
vt 0.511719 0.445312
vt 0.402344 0.445312
vt 0.402344 0.492188
vt 0.511719 0.492188
vt 0.511719 0.445312
vt 0.402344 0.445312
vt 0.679688 1.000000
vt 0.703125 1.000000
vt 0.703125 0.781250
vt 0.679688 0.781250
vt 0.679688 1.000000
vt 0.703125 1.000000
vt 0.703125 0.781250
vt 0.679688 0.781250
vt 0.046875 0.390625
vt 0.078125 0.390625
vt 0.078125 0.367188
vt 0.046875 0.367188
vt 0.046875 0.390625
vt 0.078125 0.390625
vt 0.078125 0.367188
vt 0.046875 0.367188
vt 0.593750 0.414062
vt 0.703125 0.414062
vt 0.703125 0.390625
vt 0.593750 0.390625
vt 0.593750 0.414062
vt 0.703125 0.414062
vt 0.703125 0.390625
vt 0.593750 0.390625
vt 0.648438 1.000000
vt 0.679688 1.000000
vt 0.679688 0.781250
vt 0.648438 0.781250
vt 0.648438 1.000000
vt 0.679688 1.000000
vt 0.679688 0.781250
vt 0.648438 0.781250
vt 0.964844 0.625000
vt 0.976562 0.625000
vt 0.976562 0.562500
vt 0.964844 0.562500
vt 0.964844 0.625000
vt 0.976562 0.625000
vt 0.976562 0.562500
vt 0.964844 0.562500
vt 0.105469 0.492188
vt 0.214844 0.492188
vt 0.214844 0.429688
vt 0.105469 0.429688
vt 0.105469 0.492188
vt 0.214844 0.492188
vt 0.214844 0.429688
vt 0.105469 0.429688
vt 0.703125 1.000000
vt 0.714844 1.000000
vt 0.714844 0.781250
vt 0.703125 0.781250
vt 0.703125 1.000000
vt 0.714844 1.000000
vt 0.714844 0.781250
vt 0.703125 0.781250
vt 0.769531 0.492188
vt 0.785156 0.492188
vt 0.785156 0.460938
vt 0.769531 0.460938
vt 0.804688 0.492188
vt 0.812500 0.492188
vt 0.812500 0.460938
vt 0.804688 0.460938
vt 0.804688 0.492188
vt 0.812500 0.492188
vt 0.812500 0.460938
vt 0.804688 0.460938
vt 0.730469 0.390625
vt 0.746094 0.390625
vt 0.746094 0.375000
vt 0.730469 0.375000
vt 0.730469 0.390625
vt 0.746094 0.390625
vt 0.746094 0.375000
vt 0.730469 0.375000
vt 0.769531 0.492188
vt 0.785156 0.492188
vt 0.785156 0.460938
vt 0.769531 0.460938
vt 0.804688 0.492188
vt 0.812500 0.492188
vt 0.812500 0.460938
vt 0.804688 0.460938
vt 0.804688 0.492188
vt 0.812500 0.492188
vt 0.812500 0.460938
vt 0.804688 0.460938
vt 0.730469 0.390625
vt 0.746094 0.390625
vt 0.746094 0.375000
vt 0.730469 0.375000
vt 0.730469 0.390625
vt 0.746094 0.390625
vt 0.746094 0.375000
vt 0.730469 0.375000
vt 0.402344 0.492188
vt 0.511719 0.492188
vt 0.511719 0.445312
vt 0.402344 0.445312
vt 0.402344 0.492188
vt 0.511719 0.492188
vt 0.511719 0.445312
vt 0.402344 0.445312
vt 0.679688 1.000000
vt 0.703125 1.000000
vt 0.703125 0.781250
vt 0.679688 0.781250
vt 0.679688 1.000000
vt 0.703125 1.000000
vt 0.703125 0.781250
vt 0.679688 0.781250
vt 0.046875 0.390625
vt 0.078125 0.390625
vt 0.078125 0.367188
vt 0.046875 0.367188
vt 0.046875 0.390625
vt 0.078125 0.390625
vt 0.078125 0.367188
vt 0.046875 0.367188
vt 0.593750 0.414062
vt 0.703125 0.414062
vt 0.703125 0.390625
vt 0.593750 0.390625
vt 0.593750 0.414062
vt 0.703125 0.414062
vt 0.703125 0.390625
vt 0.593750 0.390625
vt 0.648438 1.000000
vt 0.679688 1.000000
vt 0.679688 0.781250
vt 0.648438 0.781250
vt 0.648438 1.000000
vt 0.679688 1.000000
vt 0.679688 0.781250
vt 0.648438 0.781250
vt 0.964844 0.625000
vt 0.976562 0.625000
vt 0.976562 0.562500
vt 0.964844 0.562500
vt 0.964844 0.625000
vt 0.976562 0.625000
vt 0.976562 0.562500
vt 0.964844 0.562500
vt 0.105469 0.492188
vt 0.214844 0.492188
vt 0.214844 0.429688
vt 0.105469 0.429688
vt 0.105469 0.492188
vt 0.214844 0.492188
vt 0.214844 0.429688
vt 0.105469 0.429688
vt 0.703125 1.000000
vt 0.714844 1.000000
vt 0.714844 0.781250
vt 0.703125 0.781250
vt 0.703125 1.000000
vt 0.714844 1.000000
vt 0.714844 0.781250
vt 0.703125 0.781250
vt 0.769531 0.492188
vt 0.785156 0.492188
vt 0.785156 0.460938
vt 0.769531 0.460938
vt 0.804688 0.492188
vt 0.812500 0.492188
vt 0.812500 0.460938
vt 0.804688 0.460938
vt 0.804688 0.492188
vt 0.812500 0.492188
vt 0.812500 0.460938
vt 0.804688 0.460938
vt 0.730469 0.390625
vt 0.746094 0.390625
vt 0.746094 0.375000
vt 0.730469 0.375000
vt 0.730469 0.390625
vt 0.746094 0.390625
vt 0.746094 0.375000
vt 0.730469 0.375000
vt 0.769531 0.492188
vt 0.785156 0.492188
vt 0.785156 0.460938
vt 0.769531 0.460938
vt 0.804688 0.492188
vt 0.812500 0.492188
vt 0.812500 0.460938
vt 0.804688 0.460938
vt 0.804688 0.492188
vt 0.812500 0.492188
vt 0.812500 0.460938
vt 0.804688 0.460938
vt 0.730469 0.390625
vt 0.746094 0.390625
vt 0.746094 0.375000
vt 0.730469 0.375000
vt 0.730469 0.390625
vt 0.746094 0.390625
vt 0.746094 0.375000
vt 0.730469 0.375000
vt 0.402344 0.492188
vt 0.511719 0.492188
vt 0.511719 0.445312
vt 0.402344 0.445312
vt 0.402344 0.492188
vt 0.511719 0.492188
vt 0.511719 0.445312
vt 0.402344 0.445312
vt 0.679688 1.000000
vt 0.703125 1.000000
vt 0.703125 0.781250
vt 0.679688 0.781250
vt 0.679688 1.000000
vt 0.703125 1.000000
vt 0.703125 0.781250
vt 0.679688 0.781250
vt 0.046875 0.390625
vt 0.078125 0.390625
vt 0.078125 0.367188
vt 0.046875 0.367188
vt 0.046875 0.390625
vt 0.078125 0.390625
vt 0.078125 0.367188
vt 0.046875 0.367188
vt 0.593750 0.414062
vt 0.703125 0.414062
vt 0.703125 0.390625
vt 0.593750 0.390625
vt 0.593750 0.414062
vt 0.703125 0.414062
vt 0.703125 0.390625
vt 0.593750 0.390625
vt 0.648438 1.000000
vt 0.679688 1.000000
vt 0.679688 0.781250
vt 0.648438 0.781250
vt 0.648438 1.000000
vt 0.679688 1.000000
vt 0.679688 0.781250
vt 0.648438 0.781250
vt 0.964844 0.625000
vt 0.976562 0.625000
vt 0.976562 0.562500
vt 0.964844 0.562500
vt 0.964844 0.625000
vt 0.976562 0.625000
vt 0.976562 0.562500
vt 0.964844 0.562500
vt 0.105469 0.492188
vt 0.214844 0.492188
vt 0.214844 0.429688
vt 0.105469 0.429688
vt 0.105469 0.492188
vt 0.214844 0.492188
vt 0.214844 0.429688
vt 0.105469 0.429688
vt 0.703125 1.000000
vt 0.714844 1.000000
vt 0.714844 0.781250
vt 0.703125 0.781250
vt 0.703125 1.000000
vt 0.714844 1.000000
vt 0.714844 0.781250
vt 0.703125 0.781250
vt 0.769531 0.492188
vt 0.785156 0.492188
vt 0.785156 0.460938
vt 0.769531 0.460938
vt 0.804688 0.492188
vt 0.812500 0.492188
vt 0.812500 0.460938
vt 0.804688 0.460938
vt 0.804688 0.492188
vt 0.812500 0.492188
vt 0.812500 0.460938
vt 0.804688 0.460938
vt 0.730469 0.390625
vt 0.746094 0.390625
vt 0.746094 0.375000
vt 0.730469 0.375000
vt 0.730469 0.390625
vt 0.746094 0.390625
vt 0.746094 0.375000
vt 0.730469 0.375000
vt 0.769531 0.492188
vt 0.785156 0.492188
vt 0.785156 0.460938
vt 0.769531 0.460938
vt 0.804688 0.492188
vt 0.812500 0.492188
vt 0.812500 0.460938
vt 0.804688 0.460938
vt 0.804688 0.492188
vt 0.812500 0.492188
vt 0.812500 0.460938
vt 0.804688 0.460938
vt 0.730469 0.390625
vt 0.746094 0.390625
vt 0.746094 0.375000
vt 0.730469 0.375000
vt 0.730469 0.390625
vt 0.746094 0.390625
vt 0.746094 0.375000
vt 0.730469 0.375000
vn 0 0 -1
vn 0 0 1
vn -1 0 0
vn 1 0 0
vn 0 1 0
vn 0 -1 0
usemtl rolling_machine
o Hull
f 1/1/1 4/4/1 3/3/1 2/2/1
f 5/5/2 8/8/2 7/7/2 6/6/2
f 9/9/3 12/12/3 11/11/3 10/10/3
f 13/13/5 16/16/5 15/15/5 14/14/5
f 17/17/1 20/20/1 19/19/1 18/18/1
f 21/21/2 24/24/2 23/23/2 22/22/2
f 25/25/3 28/28/3 27/27/3 26/26/3
f 29/29/4 32/32/4 31/31/4 30/30/4
f 33/33/1 36/36/1 35/35/1 34/34/1
f 37/37/2 40/40/2 39/39/2 38/38/2
f 41/41/3 44/44/3 43/43/3 42/42/3
f 45/45/4 48/48/4 47/47/4 46/46/4
f 49/49/1 52/52/1 51/51/1 50/50/1
f 53/53/2 56/56/2 55/55/2 54/54/2
f 57/57/3 60/60/3 59/59/3 58/58/3
f 1261/61/4 1262/64/4 1263/63/4 1264/62/4
f 65/65/1 68/68/1 67/67/1 66/66/1
f 69/69/2 72/72/2 71/71/2 70/70/2
f 73/73/3 76/76/3 75/75/3 74/74/3
f 77/77/4 80/80/4 79/79/4 78/78/4
f 81/81/1 84/84/1 83/83/1 82/82/1
f 85/85/2 88/88/2 87/87/2 86/86/2
f 89/89/3 92/92/3 91/91/3 90/90/3
f 93/93/4 96/96/4 95/95/4 94/94/4
f 97/97/1 100/100/1 99/99/1 98/98/1
f 101/101/2 104/104/2 103/103/2 102/102/2
f 105/105/3 108/108/3 107/107/3 106/106/3
f 109/109/4 112/112/4 111/111/4 110/110/4
f 113/113/1 116/116/1 115/115/1 114/114/1
f 117/117/2 120/120/2 119/119/2 118/118/2
f 121/121/3 124/124/3 123/123/3 122/122/3
f 125/125/5 128/128/5 127/127/5 126/126/5
f 129/129/1 132/132/1 131/131/1 130/130/1
f 133/133/2 136/136/2 135/135/2 134/134/2
f 137/137/3 140/140/3 139/139/3 138/138/3
f 141/141/4 144/144/4 143/143/4 142/142/4
f 145/145/5 148/148/5 147/147/5 146/146/5
f 149/149/1 152/152/1 151/151/1 150/150/1
f 153/153/3 156/156/3 155/155/3 154/154/3
f 157/157/4 160/160/4 159/159/4 158/158/4
f 161/161/5 164/164/5 163/163/5 162/162/5
f 165/165/6 168/168/6 167/167/6 166/166/6
f 169/169/2 172/172/2 171/171/2 170/170/2
f 173/173/3 176/176/3 175/175/3 174/174/3
f 177/177/4 180/180/4 179/179/4 178/178/4
f 181/181/5 184/184/5 183/183/5 182/182/5
f 185/185/6 188/188/6 187/187/6 186/186/6
f 189/189/1 192/192/1 191/191/1 190/190/1
f 193/193/2 196/196/2 195/195/2 194/194/2
f 197/197/3 200/200/3 199/199/3 198/198/3
f 201/201/4 204/204/4 203/203/4 202/202/4
f 1237/205/5 1238/208/5 1239/207/5 1240/206/5
f 209/209/1 212/212/1 211/211/1 210/210/1
f 213/213/2 216/216/2 215/215/2 214/214/2
f 217/217/3 220/220/3 219/219/3 218/218/3
f 221/221/4 224/224/4 223/223/4 222/222/4
f 225/225/1 228/228/1 227/227/1 226/226/1
f 229/229/2 232/232/2 231/231/2 230/230/2
f 233/233/3 236/236/3 235/235/3 234/234/3
f 237/237/4 240/240/4 239/239/4 238/238/4
f 241/241/1 244/244/1 243/243/1 242/242/1
f 245/245/2 248/248/2 247/247/2 246/246/2
f 1281/249/3 1282/252/3 1283/251/3 1284/250/3
f 253/253/4 256/256/4 255/255/4 254/254/4
f 257/257/1 260/260/1 259/259/1 258/258/1
f 261/261/2 264/264/2 263/263/2 262/262/2
f 265/265/3 268/268/3 267/267/3 266/266/3
f 269/269/4 272/272/4 271/271/4 270/270/4
f 273/273/1 276/276/1 275/275/1 274/274/1
f 277/277/2 280/280/2 279/279/2 278/278/2
f 281/281/3 284/284/3 283/283/3 282/282/3
f 285/285/4 288/288/4 287/287/4 286/286/4
f 289/289/1 292/292/1 291/291/1 290/290/1
f 293/293/2 296/296/2 295/295/2 294/294/2
f 297/297/3 300/300/3 299/299/3 298/298/3
f 301/301/4 304/304/4 303/303/4 302/302/4
f 305/305/5 308/308/5 307/307/5 306/306/5
f 309/309/1 312/312/1 311/311/1 310/310/1
f 313/313/2 316/316/2 315/315/2 314/314/2
f 317/317/4 320/320/4 319/319/4 318/318/4
f 321/321/5 324/324/5 323/323/5 322/322/5
f 325/325/6 328/328/6 327/327/6 326/326/6
f 329/329/1 332/332/1 331/331/1 330/330/1
f 333/333/2 336/336/2 335/335/2 334/334/2
f 337/337/4 340/340/4 339/339/4 338/338/4
f 341/341/5 344/344/5 343/343/5 342/342/5
f 345/345/6 348/348/6 347/347/6 346/346/6
f 349/349/1 352/352/1 351/351/1 350/350/1
f 353/353/2 356/356/2 355/355/2 354/354/2
f 357/357/4 360/360/4 359/359/4 358/358/4
f 361/361/5 364/364/5 363/363/5 362/362/5
f 365/365/1 368/368/1 367/367/1 366/366/1
f 369/369/2 372/372/2 371/371/2 370/370/2
f 373/373/3 376/376/3 375/375/3 374/374/3
f 377/377/4 380/380/4 379/379/4 378/378/4
f 381/381/1 384/384/1 383/383/1 382/382/1
f 385/385/2 388/388/2 387/387/2 386/386/2
f 389/389/3 392/392/3 391/391/3 390/390/3
f 393/393/4 396/396/4 395/395/4 394/394/4
f 397/397/1 400/400/1 399/399/1 398/398/1
f 401/401/2 404/404/2 403/403/2 402/402/2
f 405/405/3 408/408/3 407/407/3 406/406/3
f 409/409/4 412/412/4 411/411/4 410/410/4
f 413/413/1 416/416/1 415/415/1 414/414/1
f 417/417/2 420/420/2 419/419/2 418/418/2
f 421/421/3 424/424/3 423/423/3 422/422/3
f 425/425/4 428/428/4 427/427/4 426/426/4
f 429/429/1 432/432/1 431/431/1 430/430/1
f 433/433/2 436/436/2 435/435/2 434/434/2
f 437/437/3 440/440/3 439/439/3 438/438/3
f 441/441/1 444/444/1 443/443/1 442/442/1
f 445/445/2 448/448/2 447/447/2 446/446/2
f 449/449/3 452/452/3 451/451/3 450/450/3
f 453/453/4 456/456/4 455/455/4 454/454/4
f 457/457/1 460/460/1 459/459/1 458/458/1
f 461/461/3 464/464/3 463/463/3 462/462/3
f 465/465/4 468/468/4 467/467/4 466/466/4
f 469/469/5 472/472/5 471/471/5 470/470/5
f 473/473/1 476/476/1 475/475/1 474/474/1
f 477/477/2 480/480/2 479/479/2 478/478/2
f 481/481/3 484/484/3 483/483/3 482/482/3
f 485/485/4 488/488/4 487/487/4 486/486/4
f 489/489/5 492/492/5 491/491/5 490/490/5
f 493/493/1 496/496/1 495/495/1 494/494/1
f 497/497/2 500/500/2 499/499/2 498/498/2
f 501/501/3 504/504/3 503/503/3 502/502/3
f 505/505/4 508/508/4 507/507/4 506/506/4
f 509/509/5 512/512/5 511/511/5 510/510/5
f 513/513/1 516/516/1 515/515/1 514/514/1
f 517/517/2 520/520/2 519/519/2 518/518/2
f 521/521/3 524/524/3 523/523/3 522/522/3
f 525/525/4 528/528/4 527/527/4 526/526/4
f 529/529/5 532/532/5 531/531/5 530/530/5
f 533/533/1 536/536/1 535/535/1 534/534/1
f 537/537/2 540/540/2 539/539/2 538/538/2
f 541/541/3 544/544/3 543/543/3 542/542/3
f 545/545/4 548/548/4 547/547/4 546/546/4
f 549/549/5 552/552/5 551/551/5 550/550/5
f 553/553/1 556/556/1 555/555/1 554/554/1
f 557/557/2 560/560/2 559/559/2 558/558/2
f 561/561/3 564/564/3 563/563/3 562/562/3
f 565/565/4 568/568/4 567/567/4 566/566/4
f 569/569/5 572/572/5 571/571/5 570/570/5
f 573/573/3 576/576/3 575/575/3 574/574/3
f 577/577/4 580/580/4 579/579/4 578/578/4
f 581/581/5 584/584/5 583/583/5 582/582/5
f 585/585/3 588/588/3 587/587/3 586/586/3
f 589/589/4 592/592/4 591/591/4 590/590/4
f 593/593/5 596/596/5 595/595/5 594/594/5
f 597/597/3 600/600/3 599/599/3 598/598/3
f 601/601/4 604/604/4 603/603/4 602/602/4
f 605/605/5 608/608/5 607/607/5 606/606/5
f 609/609/6 612/612/6 611/611/6 610/610/6
f 613/613/3 616/616/3 615/615/3 614/614/3
f 617/617/4 620/620/4 619/619/4 618/618/4
f 621/621/5 624/624/5 623/623/5 622/622/5
f 625/625/6 628/628/6 627/627/6 626/626/6
f 629/629/3 632/632/3 631/631/3 630/630/3
f 633/633/4 636/636/4 635/635/4 634/634/4
f 637/637/5 640/640/5 639/639/5 638/638/5
f 641/641/3 644/644/3 643/643/3 642/642/3
f 645/645/4 648/648/4 647/647/4 646/646/4
f 649/649/5 652/652/5 651/651/5 650/650/5
f 653/653/1 656/656/1 655/655/1 654/654/1
f 657/657/2 660/660/2 659/659/2 658/658/2
f 661/661/3 664/664/3 663/663/3 662/662/3
f 665/665/4 668/668/4 667/667/4 666/666/4
f 669/669/1 672/672/1 671/671/1 670/670/1
f 673/673/2 676/676/2 675/675/2 674/674/2
f 677/677/3 680/680/3 679/679/3 678/678/3
f 681/681/4 684/684/4 683/683/4 682/682/4
f 685/685/1 688/688/1 687/687/1 686/686/1
f 689/689/2 692/692/2 691/691/2 690/690/2
f 693/693/3 696/696/3 695/695/3 694/694/3
f 697/697/4 700/700/4 699/699/4 698/698/4
f 701/701/1 704/704/1 703/703/1 702/702/1
f 705/705/2 708/708/2 707/707/2 706/706/2
f 709/709/3 712/712/3 711/711/3 710/710/3
f 713/713/4 716/716/4 715/715/4 714/714/4
f 717/717/3 720/720/3 719/719/3 718/718/3
f 721/721/4 724/724/4 723/723/4 722/722/4
f 725/725/3 728/728/3 727/727/3 726/726/3
f 729/729/4 732/732/4 731/731/4 730/730/4
f 733/733/3 736/736/3 735/735/3 734/734/3
f 737/737/4 740/740/4 739/739/4 738/738/4
f 741/741/3 744/744/3 743/743/3 742/742/3
f 745/745/4 748/748/4 747/747/4 746/746/4
f 749/749/1 752/752/1 751/751/1 750/750/1
f 753/753/2 756/756/2 755/755/2 754/754/2
f 757/757/3 760/760/3 759/759/3 758/758/3
f 761/761/4 764/764/4 763/763/4 762/762/4
f 765/765/5 768/768/5 767/767/5 766/766/5
f 769/769/1 772/772/1 771/771/1 770/770/1
f 773/773/2 776/776/2 775/775/2 774/774/2
f 777/777/3 780/780/3 779/779/3 778/778/3
f 781/781/4 784/784/4 783/783/4 782/782/4
f 785/785/1 788/788/1 787/787/1 786/786/1
f 789/789/2 792/792/2 791/791/2 790/790/2
f 793/793/3 796/796/3 795/795/3 794/794/3
f 797/797/4 800/800/4 799/799/4 798/798/4
f 801/801/1 804/804/1 803/803/1 802/802/1
f 805/805/2 808/808/2 807/807/2 806/806/2
f 809/809/3 812/812/3 811/811/3 810/810/3
f 813/813/4 816/816/4 815/815/4 814/814/4
f 817/817/1 820/820/1 819/819/1 818/818/1
f 821/821/2 824/824/2 823/823/2 822/822/2
f 825/825/3 828/828/3 827/827/3 826/826/3
f 829/829/4 832/832/4 831/831/4 830/830/4
f 833/833/1 836/836/1 835/835/1 834/834/1
f 837/837/2 840/840/2 839/839/2 838/838/2
f 841/841/3 844/844/3 843/843/3 842/842/3
f 845/845/4 848/848/4 847/847/4 846/846/4
f 849/849/2 852/852/2 851/851/2 850/850/2
f 853/853/3 856/856/3 855/855/3 854/854/3
f 857/857/4 860/860/4 859/859/4 858/858/4
f 861/861/5 864/864/5 863/863/5 862/862/5
f 865/865/1 868/868/1 867/867/1 866/866/1
f 869/869/2 872/872/2 871/871/2 870/870/2
f 873/873/3 876/876/3 875/875/3 874/874/3
f 877/877/4 880/880/4 879/879/4 878/878/4
f 881/881/5 884/884/5 883/883/5 882/882/5
f 885/885/1 888/888/1 887/887/1 886/886/1
f 889/889/2 892/892/2 891/891/2 890/890/2
f 893/893/3 896/896/3 895/895/3 894/894/3
f 897/897/4 900/900/4 899/899/4 898/898/4
f 901/901/5 904/904/5 903/903/5 902/902/5
f 905/905/1 908/908/1 907/907/1 906/906/1
f 909/909/2 912/912/2 911/911/2 910/910/2
f 913/913/3 916/916/3 915/915/3 914/914/3
f 917/917/4 920/920/4 919/919/4 918/918/4
f 921/921/5 924/924/5 923/923/5 922/922/5
o Roller_1
f 925/925/3 928/928/3 927/927/3 926/926/3
f 929/929/4 932/932/4 931/931/4 930/930/4
f 1241/933/5 1242/936/5 1243/935/5 1244/934/5
f 937/937/6 940/940/6 939/939/6 938/938/6
f 941/941/1 944/944/1 943/943/1 942/942/1
f 945/945/2 948/948/2 947/947/2 946/946/2
f 949/949/3 952/952/3 951/951/3 950/950/3
f 953/953/4 956/956/4 955/955/4 954/954/4
f 957/957/5 960/960/5 959/959/5 958/958/5
f 961/961/6 964/964/6 963/963/6 962/962/6
f 1309/965/1 1310/968/1 1311/967/1 1312/966/1
f 1329/969/2 1330/972/2 1331/971/2 1332/970/2
f 973/973/3 976/976/3 975/975/3 974/974/3
f 977/977/4 980/980/4 979/979/4 978/978/4
f 981/981/5 984/984/5 983/983/5 982/982/5
f 985/985/6 988/988/6 987/987/6 986/986/6
f 989/989/2 992/992/2 991/991/2 990/990/2
f 993/993/3 996/996/3 995/995/3 994/994/3
f 997/997/4 1000/1000/4 999/999/4 998/998/4
f 1001/1001/5 1004/1004/5 1003/1003/5 1002/1002/5
f 1005/1005/6 1008/1008/6 1007/1007/6 1006/1006/6
f 1009/1009/1 1012/1012/1 1011/1011/1 1010/1010/1
f 1013/1013/3 1016/1016/3 1015/1015/3 1014/1014/3
f 1017/1017/4 1020/1020/4 1019/1019/4 1018/1018/4
f 1021/1021/5 1024/1024/5 1023/1023/5 1022/1022/5
f 1025/1025/6 1028/1028/6 1027/1027/6 1026/1026/6
o Roller_2
f 1293/1029/3 1294/1032/3 1295/1031/3 1296/1030/3
f 1253/1033/4 1254/1036/4 1255/1035/4 1256/1034/4
f 1245/1037/5 1246/1040/5 1247/1039/5 1248/1038/5
f 1301/1041/6 1302/1044/6 1303/1043/6 1304/1042/6
f 1313/1045/1 1314/1048/1 1315/1047/1 1316/1046/1
f 1333/1049/2 1334/1052/2 1335/1051/2 1336/1050/2
f 1349/1053/3 1350/1056/3 1351/1055/3 1352/1054/3
f 1357/1057/4 1358/1060/4 1359/1059/4 1360/1058/4
f 1365/1061/5 1366/1064/5 1367/1063/5 1368/1062/5
f 1373/1065/6 1374/1068/6 1375/1067/6 1376/1066/6
f 1317/1069/1 1318/1072/1 1319/1071/1 1320/1070/1
f 1337/1073/2 1338/1076/2 1339/1075/2 1340/1074/2
f 1381/1077/3 1382/1080/3 1383/1079/3 1384/1078/3
f 1389/1081/4 1390/1084/4 1391/1083/4 1392/1082/4
f 1285/1085/5 1286/1088/5 1287/1087/5 1288/1086/5
f 1397/1089/6 1398/1092/6 1399/1091/6 1400/1090/6
f 1405/1093/2 1406/1096/2 1407/1095/2 1408/1094/2
f 1413/1097/3 1414/1100/3 1415/1099/3 1416/1098/3
f 1265/1101/4 1266/1104/4 1267/1103/4 1268/1102/4
f 1429/1105/5 1430/1108/5 1431/1107/5 1432/1106/5
f 1445/1109/6 1446/1112/6 1447/1111/6 1448/1110/6
f 1461/1113/1 1462/1116/1 1463/1115/1 1464/1114/1
f 1417/1117/3 1418/1120/3 1419/1119/3 1420/1118/3
f 1269/1121/4 1270/1124/4 1271/1123/4 1272/1122/4
f 1433/1125/5 1434/1128/5 1435/1127/5 1436/1126/5
f 1449/1129/6 1450/1132/6 1451/1131/6 1452/1130/6
o Roller_3
f 1297/1133/3 1298/1136/3 1299/1135/3 1300/1134/3
f 1257/1137/4 1258/1140/4 1259/1139/4 1260/1138/4
f 1249/1141/5 1250/1144/5 1251/1143/5 1252/1142/5
f 1305/1145/6 1306/1148/6 1307/1147/6 1308/1146/6
f 1321/1149/1 1322/1152/1 1323/1151/1 1324/1150/1
f 1341/1153/2 1342/1156/2 1343/1155/2 1344/1154/2
f 1353/1157/3 1354/1160/3 1355/1159/3 1356/1158/3
f 1361/1161/4 1362/1164/4 1363/1163/4 1364/1162/4
f 1369/1165/5 1370/1168/5 1371/1167/5 1372/1166/5
f 1377/1169/6 1378/1172/6 1379/1171/6 1380/1170/6
f 1325/1173/1 1326/1176/1 1327/1175/1 1328/1174/1
f 1345/1177/2 1346/1180/2 1347/1179/2 1348/1178/2
f 1385/1181/3 1386/1184/3 1387/1183/3 1388/1182/3
f 1393/1185/4 1394/1188/4 1395/1187/4 1396/1186/4
f 1289/1189/5 1290/1192/5 1291/1191/5 1292/1190/5
f 1401/1193/6 1402/1196/6 1403/1195/6 1404/1194/6
f 1409/1197/2 1410/1200/2 1411/1199/2 1412/1198/2
f 1421/1201/3 1422/1204/3 1423/1203/3 1424/1202/3
f 1273/1205/4 1274/1208/4 1275/1207/4 1276/1206/4
f 1437/1209/5 1438/1212/5 1439/1211/5 1440/1210/5
f 1453/1213/6 1454/1216/6 1455/1215/6 1456/1214/6
f 1465/1217/1 1466/1220/1 1467/1219/1 1468/1218/1
f 1425/1221/3 1426/1224/3 1427/1223/3 1428/1222/3
f 1277/1225/4 1278/1228/4 1279/1227/4 1280/1226/4
f 1441/1229/5 1442/1232/5 1443/1231/5 1444/1230/5
f 1457/1233/6 1458/1236/6 1459/1235/6 1460/1234/6
