# solar_array generated by machinegen.py
mtllib solar_array.mtl
v 1.000000 0.125000 -2.000000
v 0.000000 0.125000 -2.000000
v 0.000000 0.000000 -2.000000
v 1.000000 0.000000 -2.000000
v 0.000000 0.125000 1.000000
v 1.000000 0.125000 1.000000
v 1.000000 0.000000 1.000000
v 0.000000 0.000000 1.000000
v 0.000000 0.125000 -2.000000
v 0.000000 0.125000 1.000000
v 0.000000 0.000000 1.000000
v 0.000000 0.000000 -2.000000
v 1.000000 0.125000 1.000000
v 1.000000 0.125000 -2.000000
v 1.000000 0.000000 -2.000000
v 1.000000 0.000000 1.000000
v 0.000000 0.125000 -2.000000
v 1.000000 0.125000 -2.000000
v 1.000000 0.125000 1.000000
v 0.000000 0.125000 1.000000
v 0.937500 0.875000 -1.937500
v 0.062500 0.875000 -1.937500
v 0.062500 0.125000 -1.937500
v 0.937500 0.125000 -1.937500
v 0.062500 0.875000 0.937500
v 0.937500 0.875000 0.937500
v 0.937500 0.125000 0.937500
v 0.062500 0.125000 0.937500
v 0.062500 0.875000 -1.937500
v 0.062500 0.875000 0.937500
v 0.062500 0.125000 0.937500
v 0.062500 0.125000 -1.937500
v 0.937500 0.875000 0.937500
v 0.937500 0.875000 -1.937500
v 0.937500 0.125000 -1.937500
v 0.937500 0.125000 0.937500
v 0.062500 0.875000 -1.937500
v 0.937500 0.875000 -1.937500
v 0.937500 0.875000 0.937500
v 0.062500 0.875000 0.937500
v 0.062500 0.125000 0.937500
v 0.937500 0.125000 0.937500
v 0.937500 0.125000 -1.937500
v 0.062500 0.125000 -1.937500
v 1.000000 1.000000 -2.000000
v 0.000000 1.000000 -2.000000
v 0.000000 0.875000 -2.000000
v 1.000000 0.875000 -2.000000
v 0.000000 1.000000 1.000000
v 1.000000 1.000000 1.000000
v 1.000000 0.875000 1.000000
v 0.000000 0.875000 1.000000
v 0.000000 1.000000 -2.000000
v 0.000000 1.000000 1.000000
v 0.000000 0.875000 1.000000
v 0.000000 0.875000 -2.000000
v 1.000000 1.000000 1.000000
v 1.000000 1.000000 -2.000000
v 1.000000 0.875000 -2.000000
v 1.000000 0.875000 1.000000
v 0.000000 1.000000 -2.000000
v 1.000000 1.000000 -2.000000
v 1.000000 1.000000 1.000000
v 0.000000 1.000000 1.000000
v 0.000000 0.875000 1.000000
v 1.000000 0.875000 1.000000
v 1.000000 0.875000 -2.000000
v 0.000000 0.875000 -2.000000
v 0.125000 0.875000 -2.000000
v 0.000000 0.875000 -2.000000
v 0.000000 0.125000 -2.000000
v 0.125000 0.125000 -2.000000
v 0.000000 0.875000 -1.875000
v 0.125000 0.875000 -1.875000
v 0.125000 0.125000 -1.875000
v 0.000000 0.125000 -1.875000
v 0.000000 0.875000 -2.000000
v 0.000000 0.875000 -1.875000
v 0.000000 0.125000 -1.875000
v 0.000000 0.125000 -2.000000
v 0.125000 0.875000 -1.875000
v 0.125000 0.875000 -2.000000
v 0.125000 0.125000 -2.000000
v 0.125000 0.125000 -1.875000
v 0.000000 0.875000 -2.000000
v 0.125000 0.875000 -2.000000
v 0.125000 0.875000 -1.875000
v 0.000000 0.875000 -1.875000
v 0.000000 0.125000 -1.875000
v 0.125000 0.125000 -1.875000
v 0.125000 0.125000 -2.000000
v 0.000000 0.125000 -2.000000
v 1.000000 0.875000 -2.000000
v 0.875000 0.875000 -2.000000
v 0.875000 0.125000 -2.000000
v 1.000000 0.125000 -2.000000
v 0.875000 0.875000 -1.875000
v 1.000000 0.875000 -1.875000
v 1.000000 0.125000 -1.875000
v 0.875000 0.125000 -1.875000
v 0.875000 0.875000 -2.000000
v 0.875000 0.875000 -1.875000
v 0.875000 0.125000 -1.875000
v 0.875000 0.125000 -2.000000
v 1.000000 0.875000 -1.875000
v 1.000000 0.875000 -2.000000
v 1.000000 0.125000 -2.000000
v 1.000000 0.125000 -1.875000
v 0.875000 0.875000 -2.000000
v 1.000000 0.875000 -2.000000
v 1.000000 0.875000 -1.875000
v 0.875000 0.875000 -1.875000
v 0.875000 0.125000 -1.875000
v 1.000000 0.125000 -1.875000
v 1.000000 0.125000 -2.000000
v 0.875000 0.125000 -2.000000
v 0.125000 0.875000 -1.062500
v 0.000000 0.875000 -1.062500
v 0.000000 0.125000 -1.062500
v 0.125000 0.125000 -1.062500
v 0.000000 0.875000 -0.937500
v 0.125000 0.875000 -0.937500
v 0.125000 0.125000 -0.937500
v 0.000000 0.125000 -0.937500
v 0.000000 0.875000 -1.062500
v 0.000000 0.875000 -0.937500
v 0.000000 0.125000 -0.937500
v 0.000000 0.125000 -1.062500
v 0.125000 0.875000 -0.937500
v 0.125000 0.875000 -1.062500
v 0.125000 0.125000 -1.062500
v 0.125000 0.125000 -0.937500
v 0.000000 0.875000 -1.062500
v 0.125000 0.875000 -1.062500
v 0.125000 0.875000 -0.937500
v 0.000000 0.875000 -0.937500
v 0.000000 0.125000 -0.937500
v 0.125000 0.125000 -0.937500
v 0.125000 0.125000 -1.062500
v 0.000000 0.125000 -1.062500
v 1.000000 0.875000 -1.062500
v 0.875000 0.875000 -1.062500
v 0.875000 0.125000 -1.062500
v 1.000000 0.125000 -1.062500
v 0.875000 0.875000 -0.937500
v 1.000000 0.875000 -0.937500
v 1.000000 0.125000 -0.937500
v 0.875000 0.125000 -0.937500
v 0.875000 0.875000 -1.062500
v 0.875000 0.875000 -0.937500
v 0.875000 0.125000 -0.937500
v 0.875000 0.125000 -1.062500
v 1.000000 0.875000 -0.937500
v 1.000000 0.875000 -1.062500
v 1.000000 0.125000 -1.062500
v 1.000000 0.125000 -0.937500
v 0.875000 0.875000 -1.062500
v 1.000000 0.875000 -1.062500
v 1.000000 0.875000 -0.937500
v 0.875000 0.875000 -0.937500
v 0.875000 0.125000 -0.937500
v 1.000000 0.125000 -0.937500
v 1.000000 0.125000 -1.062500
v 0.875000 0.125000 -1.062500
v 0.125000 0.875000 -0.062500
v 0.000000 0.875000 -0.062500
v 0.000000 0.125000 -0.062500
v 0.125000 0.125000 -0.062500
v 0.000000 0.875000 0.062500
v 0.125000 0.875000 0.062500
v 0.125000 0.125000 0.062500
v 0.000000 0.125000 0.062500
v 0.000000 0.875000 -0.062500
v 0.000000 0.875000 0.062500
v 0.000000 0.125000 0.062500
v 0.000000 0.125000 -0.062500
v 0.125000 0.875000 0.062500
v 0.125000 0.875000 -0.062500
v 0.125000 0.125000 -0.062500
v 0.125000 0.125000 0.062500
v 0.000000 0.875000 -0.062500
v 0.125000 0.875000 -0.062500
v 0.125000 0.875000 0.062500
v 0.000000 0.875000 0.062500
v 0.000000 0.125000 0.062500
v 0.125000 0.125000 0.062500
v 0.125000 0.125000 -0.062500
v 0.000000 0.125000 -0.062500
v 1.000000 0.875000 -0.062500
v 0.875000 0.875000 -0.062500
v 0.875000 0.125000 -0.062500
v 1.000000 0.125000 -0.062500
v 0.875000 0.875000 0.062500
v 1.000000 0.875000 0.062500
v 1.000000 0.125000 0.062500
v 0.875000 0.125000 0.062500
v 0.875000 0.875000 -0.062500
v 0.875000 0.875000 0.062500
v 0.875000 0.125000 0.062500
v 0.875000 0.125000 -0.062500
v 1.000000 0.875000 0.062500
v 1.000000 0.875000 -0.062500
v 1.000000 0.125000 -0.062500
v 1.000000 0.125000 0.062500
v 0.875000 0.875000 -0.062500
v 1.000000 0.875000 -0.062500
v 1.000000 0.875000 0.062500
v 0.875000 0.875000 0.062500
v 0.875000 0.125000 0.062500
v 1.000000 0.125000 0.062500
v 1.000000 0.125000 -0.062500
v 0.875000 0.125000 -0.062500
v 0.125000 0.875000 0.875000
v 0.000000 0.875000 0.875000
v 0.000000 0.125000 0.875000
v 0.125000 0.125000 0.875000
v 0.000000 0.875000 1.000000
v 0.125000 0.875000 1.000000
v 0.125000 0.125000 1.000000
v 0.000000 0.125000 1.000000
v 0.000000 0.875000 0.875000
v 0.000000 0.875000 1.000000
v 0.000000 0.125000 1.000000
v 0.000000 0.125000 0.875000
v 0.125000 0.875000 1.000000
v 0.125000 0.875000 0.875000
v 0.125000 0.125000 0.875000
v 0.125000 0.125000 1.000000
v 0.000000 0.875000 0.875000
v 0.125000 0.875000 0.875000
v 0.125000 0.875000 1.000000
v 0.000000 0.875000 1.000000
v 0.000000 0.125000 1.000000
v 0.125000 0.125000 1.000000
v 0.125000 0.125000 0.875000
v 0.000000 0.125000 0.875000
v 1.000000 0.875000 0.875000
v 0.875000 0.875000 0.875000
v 0.875000 0.125000 0.875000
v 1.000000 0.125000 0.875000
v 0.875000 0.875000 1.000000
v 1.000000 0.875000 1.000000
v 1.000000 0.125000 1.000000
v 0.875000 0.125000 1.000000
v 0.875000 0.875000 0.875000
v 0.875000 0.875000 1.000000
v 0.875000 0.125000 1.000000
v 0.875000 0.125000 0.875000
v 1.000000 0.875000 1.000000
v 1.000000 0.875000 0.875000
v 1.000000 0.125000 0.875000
v 1.000000 0.125000 1.000000
v 0.875000 0.875000 0.875000
v 1.000000 0.875000 0.875000
v 1.000000 0.875000 1.000000
v 0.875000 0.875000 1.000000
v 0.875000 0.125000 1.000000
v 1.000000 0.125000 1.000000
v 1.000000 0.125000 0.875000
v 0.875000 0.125000 0.875000
v 0.968750 0.750000 -1.812500
v 0.937500 0.750000 -1.812500
v 0.937500 0.250000 -1.812500
v 0.968750 0.250000 -1.812500
v 0.937500 0.750000 -1.187500
v 0.968750 0.750000 -1.187500
v 0.968750 0.250000 -1.187500
v 0.937500 0.250000 -1.187500
v 0.968750 0.750000 -1.187500
v 0.968750 0.750000 -1.812500
v 0.968750 0.250000 -1.812500
v 0.968750 0.250000 -1.187500
v 0.937500 0.750000 -1.812500
v 0.968750 0.750000 -1.812500
v 0.968750 0.750000 -1.187500
v 0.937500 0.750000 -1.187500
v 0.937500 0.250000 -1.187500
v 0.968750 0.250000 -1.187500
v 0.968750 0.250000 -1.812500
v 0.937500 0.250000 -1.812500
v 0.968750 0.750000 -0.875000
v 0.937500 0.750000 -0.875000
v 0.937500 0.250000 -0.875000
v 0.968750 0.250000 -0.875000
v 0.937500 0.750000 -0.125000
v 0.968750 0.750000 -0.125000
v 0.968750 0.250000 -0.125000
v 0.937500 0.250000 -0.125000
v 0.968750 0.750000 -0.125000
v 0.968750 0.750000 -0.875000
v 0.968750 0.250000 -0.875000
v 0.968750 0.250000 -0.125000
v 0.937500 0.750000 -0.875000
v 0.968750 0.750000 -0.875000
v 0.968750 0.750000 -0.125000
v 0.937500 0.750000 -0.125000
v 0.937500 0.250000 -0.125000
v 0.968750 0.250000 -0.125000
v 0.968750 0.250000 -0.875000
v 0.937500 0.250000 -0.875000
v 0.968750 0.750000 0.187500
v 0.937500 0.750000 0.187500
v 0.937500 0.250000 0.187500
v 0.968750 0.250000 0.187500
v 0.937500 0.750000 0.812500
v 0.968750 0.750000 0.812500
v 0.968750 0.250000 0.812500
v 0.937500 0.250000 0.812500
v 0.968750 0.750000 0.812500
v 0.968750 0.750000 0.187500
v 0.968750 0.250000 0.187500
v 0.968750 0.250000 0.812500
v 0.937500 0.750000 0.187500
v 0.968750 0.750000 0.187500
v 0.968750 0.750000 0.812500
v 0.937500 0.750000 0.812500
v 0.937500 0.250000 0.812500
v 0.968750 0.250000 0.812500
v 0.968750 0.250000 0.187500
v 0.937500 0.250000 0.187500
v 0.062500 0.625000 -1.875000
v 0.031250 0.625000 -1.875000
v 0.031250 0.375000 -1.875000
v 0.062500 0.375000 -1.875000
v 0.031250 0.625000 0.875000
v 0.062500 0.625000 0.875000
v 0.062500 0.375000 0.875000
v 0.031250 0.375000 0.875000
v 0.031250 0.625000 -1.875000
v 0.031250 0.625000 0.875000
v 0.031250 0.375000 0.875000
v 0.031250 0.375000 -1.875000
v 0.031250 0.625000 -1.875000
v 0.062500 0.625000 -1.875000
v 0.062500 0.625000 0.875000
v 0.031250 0.625000 0.875000
v 0.031250 0.375000 0.875000
v 0.062500 0.375000 0.875000
v 0.062500 0.375000 -1.875000
v 0.031250 0.375000 -1.875000
v 0.968750 0.843750 -1.562500
v 0.937500 0.843750 -1.562500
v 0.937500 0.781250 -1.562500
v 0.968750 0.781250 -1.562500
v 0.937500 0.843750 -1.437500
v 0.968750 0.843750 -1.437500
v 0.968750 0.781250 -1.437500
v 0.937500 0.781250 -1.437500
v 0.968750 0.843750 -1.437500
v 0.968750 0.843750 -1.562500
v 0.968750 0.781250 -1.562500
v 0.968750 0.781250 -1.437500
v 0.937500 0.843750 -1.562500
v 0.968750 0.843750 -1.562500
v 0.968750 0.843750 -1.437500
v 0.937500 0.843750 -1.437500
v 0.937500 0.781250 -1.437500
v 0.968750 0.781250 -1.437500
v 0.968750 0.781250 -1.562500
v 0.937500 0.781250 -1.562500
v 0.968750 0.843750 0.437500
v 0.937500 0.843750 0.437500
v 0.937500 0.781250 0.437500
v 0.968750 0.781250 0.437500
v 0.937500 0.843750 0.562500
v 0.968750 0.843750 0.562500
v 0.968750 0.781250 0.562500
v 0.937500 0.781250 0.562500
v 0.968750 0.843750 0.562500
v 0.968750 0.843750 0.437500
v 0.968750 0.781250 0.437500
v 0.968750 0.781250 0.562500
v 0.937500 0.843750 0.437500
v 0.968750 0.843750 0.437500
v 0.968750 0.843750 0.562500
v 0.937500 0.843750 0.562500
v 0.937500 0.781250 0.562500
v 0.968750 0.781250 0.562500
v 0.968750 0.781250 0.437500
v 0.937500 0.781250 0.437500
v 0.000000 0.879000 -2.000000
v 0.000000 0.879000 -1.875000
v 0.125000 0.879000 -1.875000
v 0.125000 0.879000 -2.000000
v 0.875000 0.879000 -2.000000
v 0.875000 0.879000 -1.875000
v 1.000000 0.879000 -1.875000
v 1.000000 0.879000 -2.000000
v 0.000000 0.879000 -1.062500
v 0.000000 0.879000 -0.937500
v 0.125000 0.879000 -0.937500
v 0.125000 0.879000 -1.062500
v 0.875000 0.879000 -1.062500
v 0.875000 0.879000 -0.937500
v 1.000000 0.879000 -0.937500
v 1.000000 0.879000 -1.062500
v 0.000000 0.879000 -0.062500
v 0.000000 0.879000 0.062500
v 0.125000 0.879000 0.062500
v 0.125000 0.879000 -0.062500
v 0.875000 0.879000 -0.062500
v 0.875000 0.879000 0.062500
v 1.000000 0.879000 0.062500
v 1.000000 0.879000 -0.062500
v 0.000000 0.879000 0.875000
v 0.000000 0.879000 1.000000
v 0.125000 0.879000 1.000000
v 0.125000 0.879000 0.875000
v 0.875000 0.879000 0.875000
v 0.875000 0.879000 1.000000
v 1.000000 0.879000 1.000000
v 1.000000 0.879000 0.875000
v 0.000000 0.121000 -1.875000
v 0.000000 0.121000 -2.000000
v 0.125000 0.121000 -2.000000
v 0.125000 0.121000 -1.875000
v 0.875000 0.121000 -1.875000
v 0.875000 0.121000 -2.000000
v 1.000000 0.121000 -2.000000
v 1.000000 0.121000 -1.875000
v 0.000000 0.121000 -0.937500
v 0.000000 0.121000 -1.062500
v 0.125000 0.121000 -1.062500
v 0.125000 0.121000 -0.937500
v 0.875000 0.121000 -0.937500
v 0.875000 0.121000 -1.062500
v 1.000000 0.121000 -1.062500
v 1.000000 0.121000 -0.937500
v 0.000000 0.121000 0.062500
v 0.000000 0.121000 -0.062500
v 0.125000 0.121000 -0.062500
v 0.125000 0.121000 0.062500
v 0.875000 0.121000 0.062500
v 0.875000 0.121000 -0.062500
v 1.000000 0.121000 -0.062500
v 1.000000 0.121000 0.062500
v 0.000000 0.121000 1.000000
v 0.000000 0.121000 0.875000
v 0.125000 0.121000 0.875000
v 0.125000 0.121000 1.000000
v 0.875000 0.121000 1.000000
v 0.875000 0.121000 0.875000
v 1.000000 0.121000 0.875000
v 1.000000 0.121000 1.000000
vt 0.375000 0.125000
vt 0.500000 0.125000
vt 0.500000 0.093750
vt 0.375000 0.093750
vt 0.375000 0.125000
vt 0.500000 0.125000
vt 0.500000 0.093750
vt 0.375000 0.093750
vt 0.546875 0.250000
vt 0.921875 0.250000
vt 0.921875 0.218750
vt 0.546875 0.218750
vt 0.546875 0.250000
vt 0.921875 0.250000
vt 0.921875 0.218750
vt 0.546875 0.218750
vt 0.000000 1.000000
vt 0.125000 1.000000
vt 0.125000 0.250000
vt 0.000000 0.250000
vt 0.851562 1.000000
vt 0.960938 1.000000
vt 0.960938 0.812500
vt 0.851562 0.812500
vt 0.851562 1.000000
vt 0.960938 1.000000
vt 0.960938 0.812500
vt 0.851562 0.812500
vt 0.492188 1.000000
vt 0.851562 1.000000
vt 0.851562 0.812500
vt 0.492188 0.812500
vt 0.492188 1.000000
vt 0.851562 1.000000
vt 0.851562 0.812500
vt 0.492188 0.812500
vt 0.375000 1.000000
vt 0.484375 1.000000
vt 0.484375 0.281250
vt 0.375000 0.281250
vt 0.375000 1.000000
vt 0.484375 1.000000
vt 0.484375 0.281250
vt 0.375000 0.281250
vt 0.500000 0.125000
vt 0.625000 0.125000
vt 0.625000 0.093750
vt 0.500000 0.093750
vt 0.500000 0.125000
vt 0.625000 0.125000
vt 0.625000 0.093750
vt 0.500000 0.093750
vt 0.000000 0.125000
vt 0.375000 0.125000
vt 0.375000 0.093750
vt 0.000000 0.093750
vt 0.000000 0.125000
vt 0.375000 0.125000
vt 0.375000 0.093750
vt 0.000000 0.093750
vt 0.125000 1.000000
vt 0.250000 1.000000
vt 0.250000 0.250000
vt 0.125000 0.250000
vt 0.250000 1.000000
vt 0.375000 1.000000
vt 0.375000 0.250000
vt 0.250000 0.250000
vt 0.960938 1.000000
vt 0.976562 1.000000
vt 0.976562 0.812500
vt 0.960938 0.812500
vt 0.960938 1.000000
vt 0.976562 1.000000
vt 0.976562 0.812500
vt 0.960938 0.812500
vt 0.960938 1.000000
vt 0.976562 1.000000
vt 0.976562 0.812500
vt 0.960938 0.812500
vt 0.960938 1.000000
vt 0.976562 1.000000
vt 0.976562 0.812500
vt 0.960938 0.812500
vt 0.921875 0.250000
vt 0.937500 0.250000
vt 0.937500 0.218750
vt 0.921875 0.218750
vt 0.921875 0.250000
vt 0.937500 0.250000
vt 0.937500 0.218750
vt 0.921875 0.218750
vt 0.960938 1.000000
vt 0.976562 1.000000
vt 0.976562 0.812500
vt 0.960938 0.812500
vt 0.960938 1.000000
vt 0.976562 1.000000
vt 0.976562 0.812500
vt 0.960938 0.812500
vt 0.960938 1.000000
vt 0.976562 1.000000
vt 0.976562 0.812500
vt 0.960938 0.812500
vt 0.960938 1.000000
vt 0.976562 1.000000
vt 0.976562 0.812500
vt 0.960938 0.812500
vt 0.921875 0.250000
vt 0.937500 0.250000
vt 0.937500 0.218750
vt 0.921875 0.218750
vt 0.921875 0.250000
vt 0.937500 0.250000
vt 0.937500 0.218750
vt 0.921875 0.218750
vt 0.960938 1.000000
vt 0.976562 1.000000
vt 0.976562 0.812500
vt 0.960938 0.812500
vt 0.960938 1.000000
vt 0.976562 1.000000
vt 0.976562 0.812500
vt 0.960938 0.812500
vt 0.960938 1.000000
vt 0.976562 1.000000
vt 0.976562 0.812500
vt 0.960938 0.812500
vt 0.960938 1.000000
vt 0.976562 1.000000
vt 0.976562 0.812500
vt 0.960938 0.812500
vt 0.921875 0.250000
vt 0.937500 0.250000
vt 0.937500 0.218750
vt 0.921875 0.218750
vt 0.921875 0.250000
vt 0.937500 0.250000
vt 0.937500 0.218750
vt 0.921875 0.218750
vt 0.960938 1.000000
vt 0.976562 1.000000
vt 0.976562 0.812500
vt 0.960938 0.812500
vt 0.960938 1.000000
vt 0.976562 1.000000
vt 0.976562 0.812500
vt 0.960938 0.812500
vt 0.960938 1.000000
vt 0.976562 1.000000
vt 0.976562 0.812500
vt 0.960938 0.812500
vt 0.960938 1.000000
vt 0.976562 1.000000
vt 0.976562 0.812500
vt 0.960938 0.812500
vt 0.921875 0.250000
vt 0.937500 0.250000
vt 0.937500 0.218750
vt 0.921875 0.218750
vt 0.921875 0.250000
vt 0.937500 0.250000
vt 0.937500 0.218750
vt 0.921875 0.218750
vt 0.960938 1.000000
vt 0.976562 1.000000
vt 0.976562 0.812500
vt 0.960938 0.812500
vt 0.960938 1.000000
vt 0.976562 1.000000
vt 0.976562 0.812500
vt 0.960938 0.812500
vt 0.960938 1.000000
vt 0.976562 1.000000
vt 0.976562 0.812500
vt 0.960938 0.812500
vt 0.960938 1.000000
vt 0.976562 1.000000
vt 0.976562 0.812500
vt 0.960938 0.812500
vt 0.921875 0.250000
vt 0.937500 0.250000
vt 0.937500 0.218750
vt 0.921875 0.218750
vt 0.921875 0.250000
vt 0.937500 0.250000
vt 0.937500 0.218750
vt 0.921875 0.218750
vt 0.960938 1.000000
vt 0.976562 1.000000
vt 0.976562 0.812500
vt 0.960938 0.812500
vt 0.960938 1.000000
vt 0.976562 1.000000
vt 0.976562 0.812500
vt 0.960938 0.812500
vt 0.960938 1.000000
vt 0.976562 1.000000
vt 0.976562 0.812500
vt 0.960938 0.812500
vt 0.960938 1.000000
vt 0.976562 1.000000
vt 0.976562 0.812500
vt 0.960938 0.812500
vt 0.921875 0.250000
vt 0.937500 0.250000
vt 0.937500 0.218750
vt 0.921875 0.218750
vt 0.921875 0.250000
vt 0.937500 0.250000
vt 0.937500 0.218750
vt 0.921875 0.218750
vt 0.960938 1.000000
vt 0.976562 1.000000
vt 0.976562 0.812500
vt 0.960938 0.812500
vt 0.960938 1.000000
vt 0.976562 1.000000
vt 0.976562 0.812500
vt 0.960938 0.812500
vt 0.960938 1.000000
vt 0.976562 1.000000
vt 0.976562 0.812500
vt 0.960938 0.812500
vt 0.960938 1.000000
vt 0.976562 1.000000
vt 0.976562 0.812500
vt 0.960938 0.812500
vt 0.921875 0.250000
vt 0.937500 0.250000
vt 0.937500 0.218750
vt 0.921875 0.218750
vt 0.921875 0.250000
vt 0.937500 0.250000
vt 0.937500 0.218750
vt 0.921875 0.218750
vt 0.960938 1.000000
vt 0.976562 1.000000
vt 0.976562 0.812500
vt 0.960938 0.812500
vt 0.960938 1.000000
vt 0.976562 1.000000
vt 0.976562 0.812500
vt 0.960938 0.812500
vt 0.960938 1.000000
vt 0.976562 1.000000
vt 0.976562 0.812500
vt 0.960938 0.812500
vt 0.960938 1.000000
vt 0.976562 1.000000
vt 0.976562 0.812500
vt 0.960938 0.812500
vt 0.921875 0.250000
vt 0.937500 0.250000
vt 0.937500 0.218750
vt 0.921875 0.218750
vt 0.921875 0.250000
vt 0.937500 0.250000
vt 0.937500 0.218750
vt 0.921875 0.218750
vt 0.171875 0.250000
vt 0.179688 0.250000
vt 0.179688 0.125000
vt 0.171875 0.125000
vt 0.171875 0.250000
vt 0.179688 0.250000
vt 0.179688 0.125000
vt 0.171875 0.125000
vt 0.093750 0.250000
vt 0.171875 0.250000
vt 0.171875 0.125000
vt 0.093750 0.125000
vt 0.992188 1.000000
vt 1.000000 1.000000
vt 1.000000 0.843750
vt 0.992188 0.843750
vt 0.992188 1.000000
vt 1.000000 1.000000
vt 1.000000 0.843750
vt 0.992188 0.843750
vt 0.179688 0.250000
vt 0.187500 0.250000
vt 0.187500 0.125000
vt 0.179688 0.125000
vt 0.187500 0.250000
vt 0.195312 0.250000
vt 0.195312 0.125000
vt 0.187500 0.125000
vt 0.000000 0.250000
vt 0.093750 0.250000
vt 0.093750 0.125000
vt 0.000000 0.125000
vt 0.976562 1.000000
vt 0.984375 1.000000
vt 0.984375 0.812500
vt 0.976562 0.812500
vt 0.984375 1.000000
vt 0.992188 1.000000
vt 0.992188 0.812500
vt 0.984375 0.812500
vt 0.171875 0.250000
vt 0.179688 0.250000
vt 0.179688 0.125000
vt 0.171875 0.125000
vt 0.171875 0.250000
vt 0.179688 0.250000
vt 0.179688 0.125000
vt 0.171875 0.125000
vt 0.093750 0.250000
vt 0.171875 0.250000
vt 0.171875 0.125000
vt 0.093750 0.125000
vt 0.992188 1.000000
vt 1.000000 1.000000
vt 1.000000 0.843750
vt 0.992188 0.843750
vt 0.992188 1.000000
vt 1.000000 1.000000
vt 1.000000 0.843750
vt 0.992188 0.843750
vt 0.539062 0.250000
vt 0.546875 0.250000
vt 0.546875 0.187500
vt 0.539062 0.187500
vt 0.539062 0.250000
vt 0.546875 0.250000
vt 0.546875 0.187500
vt 0.539062 0.187500
vt 0.195312 0.250000
vt 0.539062 0.250000
vt 0.539062 0.187500
vt 0.195312 0.187500
vt 0.484375 1.000000
vt 0.492188 1.000000
vt 0.492188 0.312500
vt 0.484375 0.312500
vt 0.484375 1.000000
vt 0.492188 1.000000
vt 0.492188 0.312500
vt 0.484375 0.312500
vt 0.960938 0.250000
vt 0.968750 0.250000
vt 0.968750 0.234375
vt 0.960938 0.234375
vt 0.960938 0.250000
vt 0.968750 0.250000
vt 0.968750 0.234375
vt 0.960938 0.234375
vt 0.945312 0.250000
vt 0.960938 0.250000
vt 0.960938 0.234375
vt 0.945312 0.234375
vt 0.937500 0.250000
vt 0.945312 0.250000
vt 0.945312 0.218750
vt 0.937500 0.218750
vt 0.937500 0.250000
vt 0.945312 0.250000
vt 0.945312 0.218750
vt 0.937500 0.218750
vt 0.960938 0.250000
vt 0.968750 0.250000
vt 0.968750 0.234375
vt 0.960938 0.234375
vt 0.960938 0.250000
vt 0.968750 0.250000
vt 0.968750 0.234375
vt 0.960938 0.234375
vt 0.945312 0.250000
vt 0.960938 0.250000
vt 0.960938 0.234375
vt 0.945312 0.234375
vt 0.937500 0.250000
vt 0.945312 0.250000
vt 0.945312 0.218750
vt 0.937500 0.218750
vt 0.937500 0.250000
vt 0.945312 0.250000
vt 0.945312 0.218750
vt 0.937500 0.218750
vn 0 0 -1
vn 0 0 1
vn -1 0 0
vn 1 0 0
vn 0 1 0
vn 0 -1 0
usemtl solar_array
o Cube_Cube.001
f 1/1/1 4/4/1 3/3/1 2/2/1
f 5/5/2 8/8/2 7/7/2 6/6/2
f 9/9/3 12/12/3 11/11/3 10/10/3
f 13/13/4 16/16/4 15/15/4 14/14/4
f 17/17/5 20/20/5 19/19/5 18/18/5
f 21/21/1 24/24/1 23/23/1 22/22/1
f 25/25/2 28/28/2 27/27/2 26/26/2
f 29/29/3 32/32/3 31/31/3 30/30/3
f 33/33/4 36/36/4 35/35/4 34/34/4
f 37/37/5 40/40/5 39/39/5 38/38/5
f 41/41/6 44/44/6 43/43/6 42/42/6
f 45/45/1 48/48/1 47/47/1 46/46/1
f 49/49/2 52/52/2 51/51/2 50/50/2
f 53/53/3 56/56/3 55/55/3 54/54/3
f 57/57/4 60/60/4 59/59/4 58/58/4
f 61/61/5 64/64/5 63/63/5 62/62/5
f 65/65/6 68/68/6 67/67/6 66/66/6
f 69/69/1 72/72/1 71/71/1 70/70/1
f 73/73/2 76/76/2 75/75/2 74/74/2
f 77/77/3 80/80/3 79/79/3 78/78/3
f 81/81/4 84/84/4 83/83/4 82/82/4
f 381/85/5 382/88/5 383/87/5 384/86/5
f 413/89/6 414/92/6 415/91/6 416/90/6
f 93/93/1 96/96/1 95/95/1 94/94/1
f 97/97/2 100/100/2 99/99/2 98/98/2
f 101/101/3 104/104/3 103/103/3 102/102/3
f 105/105/4 108/108/4 107/107/4 106/106/4
f 385/109/5 386/112/5 387/111/5 388/110/5
f 417/113/6 418/116/6 419/115/6 420/114/6
f 117/117/1 120/120/1 119/119/1 118/118/1
f 121/121/2 124/124/2 123/123/2 122/122/2
f 125/125/3 128/128/3 127/127/3 126/126/3
f 129/129/4 132/132/4 131/131/4 130/130/4
f 389/133/5 390/136/5 391/135/5 392/134/5
f 421/137/6 422/140/6 423/139/6 424/138/6
f 141/141/1 144/144/1 143/143/1 142/142/1
f 145/145/2 148/148/2 147/147/2 146/146/2
f 149/149/3 152/152/3 151/151/3 150/150/3
f 153/153/4 156/156/4 155/155/4 154/154/4
f 393/157/5 394/160/5 395/159/5 396/158/5
f 425/161/6 426/164/6 427/163/6 428/162/6
f 165/165/1 168/168/1 167/167/1 166/166/1
f 169/169/2 172/172/2 171/171/2 170/170/2
f 173/173/3 176/176/3 175/175/3 174/174/3
f 177/177/4 180/180/4 179/179/4 178/178/4
f 397/181/5 398/184/5 399/183/5 400/182/5
f 429/185/6 430/188/6 431/187/6 432/186/6
f 189/189/1 192/192/1 191/191/1 190/190/1
f 193/193/2 196/196/2 195/195/2 194/194/2
f 197/197/3 200/200/3 199/199/3 198/198/3
f 201/201/4 204/204/4 203/203/4 202/202/4
f 401/205/5 402/208/5 403/207/5 404/206/5
f 433/209/6 434/212/6 435/211/6 436/210/6
f 213/213/1 216/216/1 215/215/1 214/214/1
f 217/217/2 220/220/2 219/219/2 218/218/2
f 221/221/3 224/224/3 223/223/3 222/222/3
f 225/225/4 228/228/4 227/227/4 226/226/4
f 405/229/5 406/232/5 407/231/5 408/230/5
f 437/233/6 438/236/6 439/235/6 440/234/6
f 237/237/1 240/240/1 239/239/1 238/238/1
f 241/241/2 244/244/2 243/243/2 242/242/2
f 245/245/3 248/248/3 247/247/3 246/246/3
f 249/249/4 252/252/4 251/251/4 250/250/4
f 409/253/5 410/256/5 411/255/5 412/254/5
f 441/257/6 442/260/6 443/259/6 444/258/6
f 261/261/1 264/264/1 263/263/1 262/262/1
f 265/265/2 268/268/2 267/267/2 266/266/2
f 269/269/4 272/272/4 271/271/4 270/270/4
f 273/273/5 276/276/5 275/275/5 274/274/5
f 277/277/6 280/280/6 279/279/6 278/278/6
f 281/281/1 284/284/1 283/283/1 282/282/1
f 285/285/2 288/288/2 287/287/2 286/286/2
f 289/289/4 292/292/4 291/291/4 290/290/4
f 293/293/5 296/296/5 295/295/5 294/294/5
f 297/297/6 300/300/6 299/299/6 298/298/6
f 301/301/1 304/304/1 303/303/1 302/302/1
f 305/305/2 308/308/2 307/307/2 306/306/2
f 309/309/4 312/312/4 311/311/4 310/310/4
f 313/313/5 316/316/5 315/315/5 314/314/5
f 317/317/6 320/320/6 319/319/6 318/318/6
f 321/321/1 324/324/1 323/323/1 322/322/1
f 325/325/2 328/328/2 327/327/2 326/326/2
f 329/329/3 332/332/3 331/331/3 330/330/3
f 333/333/5 336/336/5 335/335/5 334/334/5
f 337/337/6 340/340/6 339/339/6 338/338/6
f 341/341/1 344/344/1 343/343/1 342/342/1
f 345/345/2 348/348/2 347/347/2 346/346/2
f 349/349/4 352/352/4 351/351/4 350/350/4
f 353/353/5 356/356/5 355/355/5 354/354/5
f 357/357/6 360/360/6 359/359/6 358/358/6
f 361/361/1 364/364/1 363/363/1 362/362/1
f 365/365/2 368/368/2 367/367/2 366/366/2
f 369/369/4 372/372/4 371/371/4 370/370/4
f 373/373/5 376/376/5 375/375/5 374/374/5
f 377/377/6 380/380/6 379/379/6 378/378/6
