# elitemotor generated by machinegen.py
mtllib elitemotor.mtl
v 1.000000 0.125000 0.062500
v 0.000000 0.125000 0.062500
v 0.000000 0.000000 0.062500
v 1.000000 0.000000 0.062500
v 0.000000 0.125000 0.750000
v 1.000000 0.125000 0.750000
v 1.000000 0.000000 0.750000
v 0.000000 0.000000 0.750000
v 0.000000 0.125000 0.062500
v 0.000000 0.125000 0.750000
v 0.000000 0.000000 0.750000
v 0.000000 0.000000 0.062500
v 1.000000 0.125000 0.750000
v 1.000000 0.125000 0.062500
v 1.000000 0.000000 0.062500
v 1.000000 0.000000 0.750000
v 0.000000 0.125000 0.062500
v 1.000000 0.125000 0.062500
v 1.000000 0.125000 0.750000
v 0.000000 0.125000 0.750000
v 0.000000 0.000000 0.750000
v 1.000000 0.000000 0.750000
v 1.000000 0.000000 0.062500
v 0.000000 0.000000 0.062500
v 0.937500 0.375000 0.250000
v 0.062500 0.375000 0.250000
v 0.062500 0.125000 0.250000
v 0.937500 0.125000 0.250000
v 0.062500 0.375000 0.375000
v 0.937500 0.375000 0.375000
v 0.937500 0.125000 0.375000
v 0.062500 0.125000 0.375000
v 0.062500 0.375000 0.250000
v 0.062500 0.375000 0.375000
v 0.062500 0.125000 0.375000
v 0.062500 0.125000 0.250000
v 0.937500 0.375000 0.375000
v 0.937500 0.375000 0.250000
v 0.937500 0.125000 0.250000
v 0.937500 0.125000 0.375000
v 0.062500 0.375000 0.250000
v 0.937500 0.375000 0.250000
v 0.937500 0.375000 0.375000
v 0.062500 0.375000 0.375000
v 0.062500 0.125000 0.375000
v 0.937500 0.125000 0.375000
v 0.937500 0.125000 0.250000
v 0.062500 0.125000 0.250000
v 0.937500 0.375000 0.562500
v 0.062500 0.375000 0.562500
v 0.062500 0.125000 0.562500
v 0.937500 0.125000 0.562500
v 0.062500 0.375000 0.687500
v 0.937500 0.375000 0.687500
v 0.937500 0.125000 0.687500
v 0.062500 0.125000 0.687500
v 0.062500 0.375000 0.562500
v 0.062500 0.375000 0.687500
v 0.062500 0.125000 0.687500
v 0.062500 0.125000 0.562500
v 0.937500 0.375000 0.687500
v 0.937500 0.375000 0.562500
v 0.937500 0.125000 0.562500
v 0.937500 0.125000 0.687500
v 0.062500 0.375000 0.562500
v 0.937500 0.375000 0.562500
v 0.937500 0.375000 0.687500
v 0.062500 0.375000 0.687500
v 0.062500 0.125000 0.687500
v 0.937500 0.125000 0.687500
v 0.937500 0.125000 0.562500
v 0.062500 0.125000 0.562500
v 0.750000 0.875000 0.062500
v 0.250000 0.875000 0.062500
v 0.250000 0.125000 0.062500
v 0.750000 0.125000 0.062500
v 0.250000 0.875000 0.812500
v 0.750000 0.875000 0.812500
v 0.750000 0.125000 0.812500
v 0.250000 0.125000 0.812500
v 0.250000 0.875000 0.062500
v 0.250000 0.875000 0.812500
v 0.250000 0.125000 0.812500
v 0.250000 0.125000 0.062500
v 0.750000 0.875000 0.812500
v 0.750000 0.875000 0.062500
v 0.750000 0.125000 0.062500
v 0.750000 0.125000 0.812500
v 0.250000 0.875000 0.062500
v 0.750000 0.875000 0.062500
v 0.750000 0.875000 0.812500
v 0.250000 0.875000 0.812500
v 0.250000 0.125000 0.812500
v 0.750000 0.125000 0.812500
v 0.750000 0.125000 0.062500
v 0.250000 0.125000 0.062500
v 0.250000 0.812500 0.062500
v 0.187500 0.812500 0.062500
v 0.187500 0.187500 0.062500
v 0.250000 0.187500 0.062500
v 0.187500 0.812500 0.812500
v 0.250000 0.812500 0.812500
v 0.250000 0.187500 0.812500
v 0.187500 0.187500 0.812500
v 0.187500 0.812500 0.062500
v 0.187500 0.812500 0.812500
v 0.187500 0.187500 0.812500
v 0.187500 0.187500 0.062500
v 0.250000 0.812500 0.812500
v 0.250000 0.812500 0.062500
v 0.250000 0.187500 0.062500
v 0.250000 0.187500 0.812500
v 0.187500 0.812500 0.062500
v 0.250000 0.812500 0.062500
v 0.250000 0.812500 0.812500
v 0.187500 0.812500 0.812500
v 0.187500 0.187500 0.812500
v 0.250000 0.187500 0.812500
v 0.250000 0.187500 0.062500
v 0.187500 0.187500 0.062500
v 0.812500 0.812500 0.062500
v 0.750000 0.812500 0.062500
v 0.750000 0.187500 0.062500
v 0.812500 0.187500 0.062500
v 0.750000 0.812500 0.812500
v 0.812500 0.812500 0.812500
v 0.812500 0.187500 0.812500
v 0.750000 0.187500 0.812500
v 0.750000 0.812500 0.062500
v 0.750000 0.812500 0.812500
v 0.750000 0.187500 0.812500
v 0.750000 0.187500 0.062500
v 0.812500 0.812500 0.812500
v 0.812500 0.812500 0.062500
v 0.812500 0.187500 0.062500
v 0.812500 0.187500 0.812500
v 0.750000 0.812500 0.062500
v 0.812500 0.812500 0.062500
v 0.812500 0.812500 0.812500
v 0.750000 0.812500 0.812500
v 0.750000 0.187500 0.812500
v 0.812500 0.187500 0.812500
v 0.812500 0.187500 0.062500
v 0.750000 0.187500 0.062500
v 0.187500 0.750000 0.062500
v 0.125000 0.750000 0.062500
v 0.125000 0.250000 0.062500
v 0.187500 0.250000 0.062500
v 0.125000 0.750000 0.812500
v 0.187500 0.750000 0.812500
v 0.187500 0.250000 0.812500
v 0.125000 0.250000 0.812500
v 0.125000 0.750000 0.062500
v 0.125000 0.750000 0.812500
v 0.125000 0.250000 0.812500
v 0.125000 0.250000 0.062500
v 0.187500 0.750000 0.812500
v 0.187500 0.750000 0.062500
v 0.187500 0.250000 0.062500
v 0.187500 0.250000 0.812500
v 0.125000 0.750000 0.062500
v 0.187500 0.750000 0.062500
v 0.187500 0.750000 0.812500
v 0.125000 0.750000 0.812500
v 0.125000 0.250000 0.812500
v 0.187500 0.250000 0.812500
v 0.187500 0.250000 0.062500
v 0.125000 0.250000 0.062500
v 0.875000 0.750000 0.062500
v 0.812500 0.750000 0.062500
v 0.812500 0.250000 0.062500
v 0.875000 0.250000 0.062500
v 0.812500 0.750000 0.812500
v 0.875000 0.750000 0.812500
v 0.875000 0.250000 0.812500
v 0.812500 0.250000 0.812500
v 0.812500 0.750000 0.062500
v 0.812500 0.750000 0.812500
v 0.812500 0.250000 0.812500
v 0.812500 0.250000 0.062500
v 0.875000 0.750000 0.812500
v 0.875000 0.750000 0.062500
v 0.875000 0.250000 0.062500
v 0.875000 0.250000 0.812500
v 0.812500 0.750000 0.062500
v 0.875000 0.750000 0.062500
v 0.875000 0.750000 0.812500
v 0.812500 0.750000 0.812500
v 0.812500 0.250000 0.812500
v 0.875000 0.250000 0.812500
v 0.875000 0.250000 0.062500
v 0.812500 0.250000 0.062500
v 0.250000 0.750000 0.000000
v 0.125000 0.750000 0.000000
v 0.125000 0.250000 0.000000
v 0.250000 0.250000 0.000000
v 0.125000 0.750000 0.000000
v 0.125000 0.750000 0.062500
v 0.125000 0.250000 0.062500
v 0.125000 0.250000 0.000000
v 0.250000 0.750000 0.062500
v 0.250000 0.750000 0.000000
v 0.250000 0.250000 0.000000
v 0.250000 0.250000 0.062500
v 0.125000 0.750000 0.000000
v 0.250000 0.750000 0.000000
v 0.250000 0.750000 0.062500
v 0.125000 0.750000 0.062500
v 0.125000 0.250000 0.062500
v 0.250000 0.250000 0.062500
v 0.250000 0.250000 0.000000
v 0.125000 0.250000 0.000000
v 0.875000 0.750000 0.000000
v 0.750000 0.750000 0.000000
v 0.750000 0.250000 0.000000
v 0.875000 0.250000 0.000000
v 0.750000 0.750000 0.000000
v 0.750000 0.750000 0.062500
v 0.750000 0.250000 0.062500
v 0.750000 0.250000 0.000000
v 0.875000 0.750000 0.062500
v 0.875000 0.750000 0.000000
v 0.875000 0.250000 0.000000
v 0.875000 0.250000 0.062500
v 0.750000 0.750000 0.000000
v 0.875000 0.750000 0.000000
v 0.875000 0.750000 0.062500
v 0.750000 0.750000 0.062500
v 0.750000 0.250000 0.062500
v 0.875000 0.250000 0.062500
v 0.875000 0.250000 0.000000
v 0.750000 0.250000 0.000000
v 0.250000 0.812500 0.000000
v 0.187500 0.812500 0.000000
v 0.187500 0.750000 0.000000
v 0.250000 0.750000 0.000000
v 0.187500 0.812500 0.000000
v 0.187500 0.812500 0.062500
v 0.187500 0.750000 0.062500
v 0.187500 0.750000 0.000000
v 0.250000 0.812500 0.062500
v 0.250000 0.812500 0.000000
v 0.250000 0.750000 0.000000
v 0.250000 0.750000 0.062500
v 0.187500 0.812500 0.000000
v 0.250000 0.812500 0.000000
v 0.250000 0.812500 0.062500
v 0.187500 0.812500 0.062500
v 0.187500 0.750000 0.062500
v 0.250000 0.750000 0.062500
v 0.250000 0.750000 0.000000
v 0.187500 0.750000 0.000000
v 0.812500 0.812500 0.000000
v 0.750000 0.812500 0.000000
v 0.750000 0.750000 0.000000
v 0.812500 0.750000 0.000000
v 0.750000 0.812500 0.000000
v 0.750000 0.812500 0.062500
v 0.750000 0.750000 0.062500
v 0.750000 0.750000 0.000000
v 0.812500 0.812500 0.062500
v 0.812500 0.812500 0.000000
v 0.812500 0.750000 0.000000
v 0.812500 0.750000 0.062500
v 0.750000 0.812500 0.000000
v 0.812500 0.812500 0.000000
v 0.812500 0.812500 0.062500
v 0.750000 0.812500 0.062500
v 0.750000 0.750000 0.062500
v 0.812500 0.750000 0.062500
v 0.812500 0.750000 0.000000
v 0.750000 0.750000 0.000000
v 0.250000 0.250000 0.000000
v 0.187500 0.250000 0.000000
v 0.187500 0.187500 0.000000
v 0.250000 0.187500 0.000000
v 0.187500 0.250000 0.000000
v 0.187500 0.250000 0.062500
v 0.187500 0.187500 0.062500
v 0.187500 0.187500 0.000000
v 0.250000 0.250000 0.062500
v 0.250000 0.250000 0.000000
v 0.250000 0.187500 0.000000
v 0.250000 0.187500 0.062500
v 0.187500 0.250000 0.000000
v 0.250000 0.250000 0.000000
v 0.250000 0.250000 0.062500
v 0.187500 0.250000 0.062500
v 0.187500 0.187500 0.062500
v 0.250000 0.187500 0.062500
v 0.250000 0.187500 0.000000
v 0.187500 0.187500 0.000000
v 0.812500 0.250000 0.000000
v 0.750000 0.250000 0.000000
v 0.750000 0.187500 0.000000
v 0.812500 0.187500 0.000000
v 0.750000 0.250000 0.000000
v 0.750000 0.250000 0.062500
v 0.750000 0.187500 0.062500
v 0.750000 0.187500 0.000000
v 0.812500 0.250000 0.062500
v 0.812500 0.250000 0.000000
v 0.812500 0.187500 0.000000
v 0.812500 0.187500 0.062500
v 0.750000 0.250000 0.000000
v 0.812500 0.250000 0.000000
v 0.812500 0.250000 0.062500
v 0.750000 0.250000 0.062500
v 0.750000 0.187500 0.062500
v 0.812500 0.187500 0.062500
v 0.812500 0.187500 0.000000
v 0.750000 0.187500 0.000000
v 0.750000 0.875000 0.000000
v 0.250000 0.875000 0.000000
v 0.250000 0.750000 0.000000
v 0.750000 0.750000 0.000000
v 0.250000 0.875000 0.000000
v 0.250000 0.875000 0.062500
v 0.250000 0.750000 0.062500
v 0.250000 0.750000 0.000000
v 0.750000 0.875000 0.062500
v 0.750000 0.875000 0.000000
v 0.750000 0.750000 0.000000
v 0.750000 0.750000 0.062500
v 0.250000 0.875000 0.000000
v 0.750000 0.875000 0.000000
v 0.750000 0.875000 0.062500
v 0.250000 0.875000 0.062500
v 0.250000 0.750000 0.062500
v 0.750000 0.750000 0.062500
v 0.750000 0.750000 0.000000
v 0.250000 0.750000 0.000000
v 0.750000 0.250000 0.000000
v 0.250000 0.250000 0.000000
v 0.250000 0.125000 0.000000
v 0.750000 0.125000 0.000000
v 0.250000 0.250000 0.000000
v 0.250000 0.250000 0.062500
v 0.250000 0.125000 0.062500
v 0.250000 0.125000 0.000000
v 0.750000 0.250000 0.062500
v 0.750000 0.250000 0.000000
v 0.750000 0.125000 0.000000
v 0.750000 0.125000 0.062500
v 0.250000 0.250000 0.000000
v 0.750000 0.250000 0.000000
v 0.750000 0.250000 0.062500
v 0.250000 0.250000 0.062500
v 0.250000 0.125000 0.062500
v 0.750000 0.125000 0.062500
v 0.750000 0.125000 0.000000
v 0.250000 0.125000 0.000000
v 0.593750 0.593750 0.000000
v 0.406250 0.593750 0.000000
v 0.406250 0.406250 0.000000
v 0.593750 0.406250 0.000000
v 0.406250 0.593750 0.000000
v 0.406250 0.593750 0.062500
v 0.406250 0.406250 0.062500
v 0.406250 0.406250 0.000000
v 0.593750 0.593750 0.062500
v 0.593750 0.593750 0.000000
v 0.593750 0.406250 0.000000
v 0.593750 0.406250 0.062500
v 0.406250 0.593750 0.000000
v 0.593750 0.593750 0.000000
v 0.593750 0.593750 0.062500
v 0.406250 0.593750 0.062500
v 0.406250 0.406250 0.062500
v 0.593750 0.406250 0.062500
v 0.593750 0.406250 0.000000
v 0.406250 0.406250 0.000000
v 0.250000 0.750000 0.875000
v 0.750000 0.750000 0.875000
v 0.750000 0.250000 0.875000
v 0.250000 0.250000 0.875000
v 0.250000 0.750000 0.812500
v 0.250000 0.750000 0.875000
v 0.250000 0.250000 0.875000
v 0.250000 0.250000 0.812500
v 0.750000 0.750000 0.875000
v 0.750000 0.750000 0.812500
v 0.750000 0.250000 0.812500
v 0.750000 0.250000 0.875000
v 0.250000 0.750000 0.812500
v 0.750000 0.750000 0.812500
v 0.750000 0.750000 0.875000
v 0.250000 0.750000 0.875000
v 0.250000 0.250000 0.875000
v 0.750000 0.250000 0.875000
v 0.750000 0.250000 0.812500
v 0.250000 0.250000 0.812500
v 0.437500 0.562500 1.000000
v 0.562500 0.562500 1.000000
v 0.562500 0.437500 1.000000
v 0.437500 0.437500 1.000000
v 0.437500 0.562500 0.875000
v 0.437500 0.562500 1.000000
v 0.437500 0.437500 1.000000
v 0.437500 0.437500 0.875000
v 0.562500 0.562500 1.000000
v 0.562500 0.562500 0.875000
v 0.562500 0.437500 0.875000
v 0.562500 0.437500 1.000000
v 0.437500 0.562500 0.875000
v 0.562500 0.562500 0.875000
v 0.562500 0.562500 1.000000
v 0.437500 0.562500 1.000000
v 0.437500 0.437500 1.000000
v 0.562500 0.437500 1.000000
v 0.562500 0.437500 0.875000
v 0.437500 0.437500 0.875000
v 0.625000 0.906250 0.250000
v 0.375000 0.906250 0.250000
v 0.375000 0.875000 0.250000
v 0.625000 0.875000 0.250000
v 0.375000 0.906250 0.625000
v 0.625000 0.906250 0.625000
v 0.625000 0.875000 0.625000
v 0.375000 0.875000 0.625000
v 0.375000 0.906250 0.250000
v 0.375000 0.906250 0.625000
v 0.375000 0.875000 0.625000
v 0.375000 0.875000 0.250000
v 0.625000 0.906250 0.625000
v 0.625000 0.906250 0.250000
v 0.625000 0.875000 0.250000
v 0.625000 0.875000 0.625000
v 0.375000 0.906250 0.250000
v 0.625000 0.906250 0.250000
v 0.625000 0.906250 0.625000
v 0.375000 0.906250 0.625000
v 0.062500 0.121000 0.375000
v 0.062500 0.121000 0.250000
v 0.937500 0.121000 0.250000
v 0.937500 0.121000 0.375000
v 0.062500 0.121000 0.687500
v 0.062500 0.121000 0.562500
v 0.937500 0.121000 0.562500
v 0.937500 0.121000 0.687500
vt 0.218750 0.281250
vt 0.468750 0.281250
vt 0.468750 0.218750
vt 0.218750 0.218750
vt 0.218750 0.281250
vt 0.468750 0.281250
vt 0.468750 0.218750
vt 0.218750 0.218750
vt 0.687500 0.281250
vt 0.859375 0.281250
vt 0.859375 0.218750
vt 0.687500 0.218750
vt 0.687500 0.281250
vt 0.859375 0.281250
vt 0.859375 0.218750
vt 0.687500 0.218750
vt 0.718750 1.000000
vt 0.968750 1.000000
vt 0.968750 0.656250
vt 0.718750 0.656250
vt 0.000000 0.625000
vt 0.250000 0.625000
vt 0.250000 0.281250
vt 0.000000 0.281250
vt 0.000000 0.281250
vt 0.218750 0.281250
vt 0.218750 0.156250
vt 0.000000 0.156250
vt 0.000000 0.281250
vt 0.218750 0.281250
vt 0.218750 0.156250
vt 0.000000 0.156250
vt 0.890625 0.625000
vt 0.921875 0.625000
vt 0.921875 0.500000
vt 0.890625 0.500000
vt 0.890625 0.625000
vt 0.921875 0.625000
vt 0.921875 0.500000
vt 0.890625 0.500000
vt 0.468750 0.281250
vt 0.687500 0.281250
vt 0.687500 0.218750
vt 0.468750 0.218750
vt 0.468750 0.281250
vt 0.687500 0.281250
vt 0.687500 0.218750
vt 0.468750 0.218750
vt 0.000000 0.281250
vt 0.218750 0.281250
vt 0.218750 0.156250
vt 0.000000 0.156250
vt 0.000000 0.281250
vt 0.218750 0.281250
vt 0.218750 0.156250
vt 0.000000 0.156250
vt 0.890625 0.625000
vt 0.921875 0.625000
vt 0.921875 0.500000
vt 0.890625 0.500000
vt 0.890625 0.625000
vt 0.921875 0.625000
vt 0.921875 0.500000
vt 0.890625 0.500000
vt 0.468750 0.281250
vt 0.687500 0.281250
vt 0.687500 0.218750
vt 0.468750 0.218750
vt 0.468750 0.281250
vt 0.687500 0.281250
vt 0.687500 0.218750
vt 0.468750 0.218750
vt 0.187500 1.000000
vt 0.312500 1.000000
vt 0.312500 0.625000
vt 0.187500 0.625000
vt 0.312500 1.000000
vt 0.437500 1.000000
vt 0.437500 0.625000
vt 0.312500 0.625000
vt 0.000000 1.000000
vt 0.187500 1.000000
vt 0.187500 0.625000
vt 0.000000 0.625000
vt 0.000000 1.000000
vt 0.187500 1.000000
vt 0.187500 0.625000
vt 0.000000 0.625000
vt 0.437500 1.000000
vt 0.562500 1.000000
vt 0.562500 0.625000
vt 0.437500 0.625000
vt 0.562500 1.000000
vt 0.687500 1.000000
vt 0.687500 0.625000
vt 0.562500 0.625000
vt 0.968750 1.000000
vt 0.984375 1.000000
vt 0.984375 0.687500
vt 0.968750 0.687500
vt 0.984375 1.000000
vt 1.000000 1.000000
vt 1.000000 0.687500
vt 0.984375 0.687500
vt 0.250000 0.625000
vt 0.437500 0.625000
vt 0.437500 0.312500
vt 0.250000 0.312500
vt 0.250000 0.625000
vt 0.437500 0.625000
vt 0.437500 0.312500
vt 0.250000 0.312500
vt 0.687500 1.000000
vt 0.703125 1.000000
vt 0.703125 0.625000
vt 0.687500 0.625000
vt 0.687500 1.000000
vt 0.703125 1.000000
vt 0.703125 0.625000
vt 0.687500 0.625000
vt 0.968750 1.000000
vt 0.984375 1.000000
vt 0.984375 0.687500
vt 0.968750 0.687500
vt 0.984375 1.000000
vt 1.000000 1.000000
vt 1.000000 0.687500
vt 0.984375 0.687500
vt 0.250000 0.625000
vt 0.437500 0.625000
vt 0.437500 0.312500
vt 0.250000 0.312500
vt 0.250000 0.625000
vt 0.437500 0.625000
vt 0.437500 0.312500
vt 0.250000 0.312500
vt 0.687500 1.000000
vt 0.703125 1.000000
vt 0.703125 0.625000
vt 0.687500 0.625000
vt 0.687500 1.000000
vt 0.703125 1.000000
vt 0.703125 0.625000
vt 0.687500 0.625000
vt 0.781250 0.625000
vt 0.796875 0.625000
vt 0.796875 0.375000
vt 0.781250 0.375000
vt 0.781250 0.625000
vt 0.796875 0.625000
vt 0.796875 0.375000
vt 0.781250 0.375000
vt 0.437500 0.625000
vt 0.625000 0.625000
vt 0.625000 0.375000
vt 0.437500 0.375000
vt 0.437500 0.625000
vt 0.625000 0.625000
vt 0.625000 0.375000
vt 0.437500 0.375000
vt 0.703125 1.000000
vt 0.718750 1.000000
vt 0.718750 0.625000
vt 0.703125 0.625000
vt 0.703125 1.000000
vt 0.718750 1.000000
vt 0.718750 0.625000
vt 0.703125 0.625000
vt 0.781250 0.625000
vt 0.796875 0.625000
vt 0.796875 0.375000
vt 0.781250 0.375000
vt 0.781250 0.625000
vt 0.796875 0.625000
vt 0.796875 0.375000
vt 0.781250 0.375000
vt 0.437500 0.625000
vt 0.625000 0.625000
vt 0.625000 0.375000
vt 0.437500 0.375000
vt 0.437500 0.625000
vt 0.625000 0.625000
vt 0.625000 0.375000
vt 0.437500 0.375000
vt 0.703125 1.000000
vt 0.718750 1.000000
vt 0.718750 0.625000
vt 0.703125 0.625000
vt 0.703125 1.000000
vt 0.718750 1.000000
vt 0.718750 0.625000
vt 0.703125 0.625000
vt 0.750000 0.625000
vt 0.781250 0.625000
vt 0.781250 0.375000
vt 0.750000 0.375000
vt 0.796875 0.625000
vt 0.812500 0.625000
vt 0.812500 0.375000
vt 0.796875 0.375000
vt 0.796875 0.625000
vt 0.812500 0.625000
vt 0.812500 0.375000
vt 0.796875 0.375000
vt 0.484375 0.156250
vt 0.515625 0.156250
vt 0.515625 0.125000
vt 0.484375 0.125000
vt 0.484375 0.156250
vt 0.515625 0.156250
vt 0.515625 0.125000
vt 0.484375 0.125000
vt 0.750000 0.625000
vt 0.781250 0.625000
vt 0.781250 0.375000
vt 0.750000 0.375000
vt 0.796875 0.625000
vt 0.812500 0.625000
vt 0.812500 0.375000
vt 0.796875 0.375000
vt 0.796875 0.625000
vt 0.812500 0.625000
vt 0.812500 0.375000
vt 0.796875 0.375000
vt 0.484375 0.156250
vt 0.515625 0.156250
vt 0.515625 0.125000
vt 0.484375 0.125000
vt 0.484375 0.156250
vt 0.515625 0.156250
vt 0.515625 0.125000
vt 0.484375 0.125000
vt 0.984375 0.281250
vt 1.000000 0.281250
vt 1.000000 0.250000
vt 0.984375 0.250000
vt 0.984375 0.281250
vt 1.000000 0.281250
vt 1.000000 0.250000
vt 0.984375 0.250000
vt 0.984375 0.281250
vt 1.000000 0.281250
vt 1.000000 0.250000
vt 0.984375 0.250000
vt 0.984375 0.281250
vt 1.000000 0.281250
vt 1.000000 0.250000
vt 0.984375 0.250000
vt 0.984375 0.281250
vt 1.000000 0.281250
vt 1.000000 0.250000
vt 0.984375 0.250000
vt 0.984375 0.281250
vt 1.000000 0.281250
vt 1.000000 0.250000
vt 0.984375 0.250000
vt 0.984375 0.281250
vt 1.000000 0.281250
vt 1.000000 0.250000
vt 0.984375 0.250000
vt 0.984375 0.281250
vt 1.000000 0.281250
vt 1.000000 0.250000
vt 0.984375 0.250000
vt 0.984375 0.281250
vt 1.000000 0.281250
vt 1.000000 0.250000
vt 0.984375 0.250000
vt 0.984375 0.281250
vt 1.000000 0.281250
vt 1.000000 0.250000
vt 0.984375 0.250000
vt 0.984375 0.281250
vt 1.000000 0.281250
vt 1.000000 0.250000
vt 0.984375 0.250000
vt 0.984375 0.281250
vt 1.000000 0.281250
vt 1.000000 0.250000
vt 0.984375 0.250000
vt 0.984375 0.281250
vt 1.000000 0.281250
vt 1.000000 0.250000
vt 0.984375 0.250000
vt 0.984375 0.281250
vt 1.000000 0.281250
vt 1.000000 0.250000
vt 0.984375 0.250000
vt 0.984375 0.281250
vt 1.000000 0.281250
vt 1.000000 0.250000
vt 0.984375 0.250000
vt 0.984375 0.281250
vt 1.000000 0.281250
vt 1.000000 0.250000
vt 0.984375 0.250000
vt 0.984375 0.281250
vt 1.000000 0.281250
vt 1.000000 0.250000
vt 0.984375 0.250000
vt 0.984375 0.281250
vt 1.000000 0.281250
vt 1.000000 0.250000
vt 0.984375 0.250000
vt 0.984375 0.281250
vt 1.000000 0.281250
vt 1.000000 0.250000
vt 0.984375 0.250000
vt 0.984375 0.281250
vt 1.000000 0.281250
vt 1.000000 0.250000
vt 0.984375 0.250000
vt 0.859375 0.281250
vt 0.984375 0.281250
vt 0.984375 0.218750
vt 0.859375 0.218750
vt 0.984375 0.625000
vt 1.000000 0.625000
vt 1.000000 0.562500
vt 0.984375 0.562500
vt 0.984375 0.625000
vt 1.000000 0.625000
vt 1.000000 0.562500
vt 0.984375 0.562500
vt 0.031250 0.156250
vt 0.156250 0.156250
vt 0.156250 0.125000
vt 0.031250 0.125000
vt 0.031250 0.156250
vt 0.156250 0.156250
vt 0.156250 0.125000
vt 0.031250 0.125000
vt 0.859375 0.281250
vt 0.984375 0.281250
vt 0.984375 0.218750
vt 0.859375 0.218750
vt 0.984375 0.625000
vt 1.000000 0.625000
vt 1.000000 0.562500
vt 0.984375 0.562500
vt 0.984375 0.625000
vt 1.000000 0.625000
vt 1.000000 0.562500
vt 0.984375 0.562500
vt 0.031250 0.156250
vt 0.156250 0.156250
vt 0.156250 0.125000
vt 0.031250 0.125000
vt 0.031250 0.156250
vt 0.156250 0.156250
vt 0.156250 0.125000
vt 0.031250 0.125000
vt 0.921875 0.625000
vt 0.968750 0.625000
vt 0.968750 0.531250
vt 0.921875 0.531250
vt 0.968750 0.625000
vt 0.984375 0.625000
vt 0.984375 0.531250
vt 0.968750 0.531250
vt 0.968750 0.625000
vt 0.984375 0.625000
vt 0.984375 0.531250
vt 0.968750 0.531250
vt 0.437500 0.156250
vt 0.484375 0.156250
vt 0.484375 0.125000
vt 0.437500 0.125000
vt 0.437500 0.156250
vt 0.484375 0.156250
vt 0.484375 0.125000
vt 0.437500 0.125000
vt 0.625000 0.625000
vt 0.750000 0.625000
vt 0.750000 0.375000
vt 0.625000 0.375000
vt 0.812500 0.625000
vt 0.828125 0.625000
vt 0.828125 0.375000
vt 0.812500 0.375000
vt 0.812500 0.625000
vt 0.828125 0.625000
vt 0.828125 0.375000
vt 0.812500 0.375000
vt 0.156250 0.156250
vt 0.281250 0.156250
vt 0.281250 0.125000
vt 0.156250 0.125000
vt 0.156250 0.156250
vt 0.281250 0.156250
vt 0.281250 0.125000
vt 0.156250 0.125000
vt 0.000000 0.156250
vt 0.031250 0.156250
vt 0.031250 0.093750
vt 0.000000 0.093750
vt 0.000000 0.156250
vt 0.031250 0.156250
vt 0.031250 0.093750
vt 0.000000 0.093750
vt 0.000000 0.156250
vt 0.031250 0.156250
vt 0.031250 0.093750
vt 0.000000 0.093750
vt 0.000000 0.156250
vt 0.031250 0.156250
vt 0.031250 0.093750
vt 0.000000 0.093750
vt 0.000000 0.156250
vt 0.031250 0.156250
vt 0.031250 0.093750
vt 0.000000 0.093750
vt 0.375000 0.156250
vt 0.437500 0.156250
vt 0.437500 0.125000
vt 0.375000 0.125000
vt 0.375000 0.156250
vt 0.437500 0.156250
vt 0.437500 0.125000
vt 0.375000 0.125000
vt 0.281250 0.156250
vt 0.375000 0.156250
vt 0.375000 0.125000
vt 0.281250 0.125000
vt 0.281250 0.156250
vt 0.375000 0.156250
vt 0.375000 0.125000
vt 0.281250 0.125000
vt 0.828125 0.625000
vt 0.890625 0.625000
vt 0.890625 0.437500
vt 0.828125 0.437500
vn 0 0 -1
vn 0 0 1
vn -1 0 0
vn 1 0 0
vn 0 1 0
vn 0 -1 0
usemtl elitemotor
o Motor
f 1/1/1 4/4/1 3/3/1 2/2/1
f 5/5/2 8/8/2 7/7/2 6/6/2
f 9/9/3 12/12/3 11/11/3 10/10/3
f 13/13/4 16/16/4 15/15/4 14/14/4
f 17/17/5 20/20/5 19/19/5 18/18/5
f 21/21/6 24/24/6 23/23/6 22/22/6
f 25/25/1 28/28/1 27/27/1 26/26/1
f 29/29/2 32/32/2 31/31/2 30/30/2
f 33/33/3 36/36/3 35/35/3 34/34/3
f 37/37/4 40/40/4 39/39/4 38/38/4
f 41/41/5 44/44/5 43/43/5 42/42/5
f 433/45/6 434/48/6 435/47/6 436/46/6
f 49/49/1 52/52/1 51/51/1 50/50/1
f 53/53/2 56/56/2 55/55/2 54/54/2
f 57/57/3 60/60/3 59/59/3 58/58/3
f 61/61/4 64/64/4 63/63/4 62/62/4
f 65/65/5 68/68/5 67/67/5 66/66/5
f 437/69/6 438/72/6 439/71/6 440/70/6
f 73/73/1 76/76/1 75/75/1 74/74/1
f 77/77/2 80/80/2 79/79/2 78/78/2
f 81/81/3 84/84/3 83/83/3 82/82/3
f 85/85/4 88/88/4 87/87/4 86/86/4
f 89/89/5 92/92/5 91/91/5 90/90/5
f 93/93/6 96/96/6 95/95/6 94/94/6
f 97/97/1 100/100/1 99/99/1 98/98/1
f 101/101/2 104/104/2 103/103/2 102/102/2
f 105/105/3 108/108/3 107/107/3 106/106/3
f 109/109/4 112/112/4 111/111/4 110/110/4
f 113/113/5 116/116/5 115/115/5 114/114/5
f 117/117/6 120/120/6 119/119/6 118/118/6
f 121/121/1 124/124/1 123/123/1 122/122/1
f 125/125/2 128/128/2 127/127/2 126/126/2
f 129/129/3 132/132/3 131/131/3 130/130/3
f 133/133/4 136/136/4 135/135/4 134/134/4
f 137/137/5 140/140/5 139/139/5 138/138/5
f 141/141/6 144/144/6 143/143/6 142/142/6
f 145/145/1 148/148/1 147/147/1 146/146/1
f 149/149/2 152/152/2 151/151/2 150/150/2
f 153/153/3 156/156/3 155/155/3 154/154/3
f 157/157/4 160/160/4 159/159/4 158/158/4
f 161/161/5 164/164/5 163/163/5 162/162/5
f 165/165/6 168/168/6 167/167/6 166/166/6
f 169/169/1 172/172/1 171/171/1 170/170/1
f 173/173/2 176/176/2 175/175/2 174/174/2
f 177/177/3 180/180/3 179/179/3 178/178/3
f 181/181/4 184/184/4 183/183/4 182/182/4
f 185/185/5 188/188/5 187/187/5 186/186/5
f 189/189/6 192/192/6 191/191/6 190/190/6
f 193/193/1 196/196/1 195/195/1 194/194/1
f 197/197/3 200/200/3 199/199/3 198/198/3
f 201/201/4 204/204/4 203/203/4 202/202/4
f 205/205/5 208/208/5 207/207/5 206/206/5
f 209/209/6 212/212/6 211/211/6 210/210/6
f 213/213/1 216/216/1 215/215/1 214/214/1
f 217/217/3 220/220/3 219/219/3 218/218/3
f 221/221/4 224/224/4 223/223/4 222/222/4
f 225/225/5 228/228/5 227/227/5 226/226/5
f 229/229/6 232/232/6 231/231/6 230/230/6
f 233/233/1 236/236/1 235/235/1 234/234/1
f 237/237/3 240/240/3 239/239/3 238/238/3
f 241/241/4 244/244/4 243/243/4 242/242/4
f 245/245/5 248/248/5 247/247/5 246/246/5
f 249/249/6 252/252/6 251/251/6 250/250/6
f 253/253/1 256/256/1 255/255/1 254/254/1
f 257/257/3 260/260/3 259/259/3 258/258/3
f 261/261/4 264/264/4 263/263/4 262/262/4
f 265/265/5 268/268/5 267/267/5 266/266/5
f 269/269/6 272/272/6 271/271/6 270/270/6
f 273/273/1 276/276/1 275/275/1 274/274/1
f 277/277/3 280/280/3 279/279/3 278/278/3
f 281/281/4 284/284/4 283/283/4 282/282/4
f 285/285/5 288/288/5 287/287/5 286/286/5
f 289/289/6 292/292/6 291/291/6 290/290/6
f 293/293/1 296/296/1 295/295/1 294/294/1
f 297/297/3 300/300/3 299/299/3 298/298/3
f 301/301/4 304/304/4 303/303/4 302/302/4
f 305/305/5 308/308/5 307/307/5 306/306/5
f 309/309/6 312/312/6 311/311/6 310/310/6
f 313/313/1 316/316/1 315/315/1 314/314/1
f 317/317/3 320/320/3 319/319/3 318/318/3
f 321/321/4 324/324/4 323/323/4 322/322/4
f 325/325/5 328/328/5 327/327/5 326/326/5
f 329/329/6 332/332/6 331/331/6 330/330/6
f 333/333/1 336/336/1 335/335/1 334/334/1
f 337/337/3 340/340/3 339/339/3 338/338/3
f 341/341/4 344/344/4 343/343/4 342/342/4
f 345/345/5 348/348/5 347/347/5 346/346/5
f 349/349/6 352/352/6 351/351/6 350/350/6
f 353/353/1 356/356/1 355/355/1 354/354/1
f 357/357/3 360/360/3 359/359/3 358/358/3
f 361/361/4 364/364/4 363/363/4 362/362/4
f 365/365/5 368/368/5 367/367/5 366/366/5
f 369/369/6 372/372/6 371/371/6 370/370/6
f 373/373/2 376/376/2 375/375/2 374/374/2
f 377/377/3 380/380/3 379/379/3 378/378/3
f 381/381/4 384/384/4 383/383/4 382/382/4
f 385/385/5 388/388/5 387/387/5 386/386/5
f 389/389/6 392/392/6 391/391/6 390/390/6
f 393/393/2 396/396/2 395/395/2 394/394/2
f 397/397/3 400/400/3 399/399/3 398/398/3
f 401/401/4 404/404/4 403/403/4 402/402/4
f 405/405/5 408/408/5 407/407/5 406/406/5
f 409/409/6 412/412/6 411/411/6 410/410/6
f 413/413/1 416/416/1 415/415/1 414/414/1
f 417/417/2 420/420/2 419/419/2 418/418/2
f 421/421/3 424/424/3 423/423/3 422/422/3
f 425/425/4 428/428/4 427/427/4 426/426/4
f 429/429/5 432/432/5 431/431/5 430/430/5
