# basic_laser_gun generated by machinegen.py
mtllib basic_laser_gun.mtl
v 0.250000 1.250000 -0.406250
v -0.250000 1.250000 -0.406250
v -0.250000 0.750000 -0.406250
v 0.250000 0.750000 -0.406250
v -0.250000 1.250000 -0.187500
v 0.250000 1.250000 -0.187500
v 0.250000 0.750000 -0.187500
v -0.250000 0.750000 -0.187500
v -0.250000 1.250000 -0.406250
v -0.250000 1.250000 -0.187500
v -0.250000 0.750000 -0.187500
v -0.250000 0.750000 -0.406250
v 0.250000 1.250000 -0.187500
v 0.250000 1.250000 -0.406250
v 0.250000 0.750000 -0.406250
v 0.250000 0.750000 -0.187500
v -0.250000 1.250000 -0.406250
v 0.250000 1.250000 -0.406250
v 0.250000 1.250000 -0.187500
v -0.250000 1.250000 -0.187500
v -0.250000 0.750000 -0.187500
v 0.250000 0.750000 -0.187500
v 0.250000 0.750000 -0.406250
v -0.250000 0.750000 -0.406250
v 0.375000 1.375000 -0.187500
v -0.375000 1.375000 -0.187500
v -0.375000 0.625000 -0.187500
v 0.375000 0.625000 -0.187500
v -0.375000 1.375000 0.375000
v 0.375000 1.375000 0.375000
v 0.375000 0.625000 0.375000
v -0.375000 0.625000 0.375000
v -0.375000 1.375000 -0.187500
v -0.375000 1.375000 0.375000
v -0.375000 0.625000 0.375000
v -0.375000 0.625000 -0.187500
v 0.375000 1.375000 0.375000
v 0.375000 1.375000 -0.187500
v 0.375000 0.625000 -0.187500
v 0.375000 0.625000 0.375000
v -0.375000 1.375000 -0.187500
v 0.375000 1.375000 -0.187500
v 0.375000 1.375000 0.375000
v -0.375000 1.375000 0.375000
v -0.375000 0.625000 0.375000
v 0.375000 0.625000 0.375000
v 0.375000 0.625000 -0.187500
v -0.375000 0.625000 -0.187500
v 0.406250 1.406250 0.125000
v -0.406250 1.406250 0.125000
v -0.406250 0.593750 0.125000
v 0.406250 0.593750 0.125000
v -0.406250 1.406250 0.250000
v 0.406250 1.406250 0.250000
v 0.406250 0.593750 0.250000
v -0.406250 0.593750 0.250000
v -0.406250 1.406250 0.125000
v -0.406250 1.406250 0.250000
v -0.406250 0.593750 0.250000
v -0.406250 0.593750 0.125000
v 0.406250 1.406250 0.250000
v 0.406250 1.406250 0.125000
v 0.406250 0.593750 0.125000
v 0.406250 0.593750 0.250000
v -0.406250 1.406250 0.125000
v 0.406250 1.406250 0.125000
v 0.406250 1.406250 0.250000
v -0.406250 1.406250 0.250000
v -0.406250 0.593750 0.250000
v 0.406250 0.593750 0.250000
v 0.406250 0.593750 0.125000
v -0.406250 0.593750 0.125000
v 0.500000 1.500000 0.375000
v -0.500000 1.500000 0.375000
v -0.500000 0.500000 0.375000
v 0.500000 0.500000 0.375000
v -0.500000 1.500000 1.625000
v 0.500000 1.500000 1.625000
v 0.500000 0.500000 1.625000
v -0.500000 0.500000 1.625000
v -0.500000 1.500000 0.375000
v -0.500000 1.500000 1.625000
v -0.500000 0.500000 1.625000
v -0.500000 0.500000 0.375000
v 0.500000 1.500000 1.625000
v 0.500000 1.500000 0.375000
v 0.500000 0.500000 0.375000
v 0.500000 0.500000 1.625000
v -0.500000 1.500000 0.375000
v 0.500000 1.500000 0.375000
v 0.500000 1.500000 1.625000
v -0.500000 1.500000 1.625000
v -0.500000 0.500000 1.625000
v 0.500000 0.500000 1.625000
v 0.500000 0.500000 0.375000
v -0.500000 0.500000 0.375000
v -0.500000 1.312500 0.562500
v -0.593750 1.312500 0.562500
v -0.593750 0.687500 0.562500
v -0.500000 0.687500 0.562500
v -0.593750 1.312500 1.437500
v -0.500000 1.312500 1.437500
v -0.500000 0.687500 1.437500
v -0.593750 0.687500 1.437500
v -0.593750 1.312500 0.562500
v -0.593750 1.312500 1.437500
v -0.593750 0.687500 1.437500
v -0.593750 0.687500 0.562500
v -0.593750 1.312500 0.562500
v -0.500000 1.312500 0.562500
v -0.500000 1.312500 1.437500
v -0.593750 1.312500 1.437500
v -0.593750 0.687500 1.437500
v -0.500000 0.687500 1.437500
v -0.500000 0.687500 0.562500
v -0.593750 0.687500 0.562500
v 0.593750 1.312500 0.562500
v 0.500000 1.312500 0.562500
v 0.500000 0.687500 0.562500
v 0.593750 0.687500 0.562500
v 0.500000 1.312500 1.437500
v 0.593750 1.312500 1.437500
v 0.593750 0.687500 1.437500
v 0.500000 0.687500 1.437500
v 0.593750 1.312500 1.437500
v 0.593750 1.312500 0.562500
v 0.593750 0.687500 0.562500
v 0.593750 0.687500 1.437500
v 0.500000 1.312500 0.562500
v 0.593750 1.312500 0.562500
v 0.593750 1.312500 1.437500
v 0.500000 1.312500 1.437500
v 0.500000 0.687500 1.437500
v 0.593750 0.687500 1.437500
v 0.593750 0.687500 0.562500
v 0.500000 0.687500 0.562500
v -0.593750 1.125000 0.625000
v -0.625000 1.125000 0.625000
v -0.625000 0.875000 0.625000
v -0.593750 0.875000 0.625000
v -0.625000 1.125000 1.375000
v -0.593750 1.125000 1.375000
v -0.593750 0.875000 1.375000
v -0.625000 0.875000 1.375000
v -0.625000 1.125000 0.625000
v -0.625000 1.125000 1.375000
v -0.625000 0.875000 1.375000
v -0.625000 0.875000 0.625000
v -0.625000 1.125000 0.625000
v -0.593750 1.125000 0.625000
v -0.593750 1.125000 1.375000
v -0.625000 1.125000 1.375000
v -0.625000 0.875000 1.375000
v -0.593750 0.875000 1.375000
v -0.593750 0.875000 0.625000
v -0.625000 0.875000 0.625000
v 0.625000 1.125000 0.625000
v 0.593750 1.125000 0.625000
v 0.593750 0.875000 0.625000
v 0.625000 0.875000 0.625000
v 0.593750 1.125000 1.375000
v 0.625000 1.125000 1.375000
v 0.625000 0.875000 1.375000
v 0.593750 0.875000 1.375000
v 0.625000 1.125000 1.375000
v 0.625000 1.125000 0.625000
v 0.625000 0.875000 0.625000
v 0.625000 0.875000 1.375000
v 0.593750 1.125000 0.625000
v 0.625000 1.125000 0.625000
v 0.625000 1.125000 1.375000
v 0.593750 1.125000 1.375000
v 0.593750 0.875000 1.375000
v 0.625000 0.875000 1.375000
v 0.625000 0.875000 0.625000
v 0.593750 0.875000 0.625000
v 0.093750 1.593750 0.500000
v -0.093750 1.593750 0.500000
v -0.093750 1.500000 0.500000
v 0.093750 1.500000 0.500000
v -0.093750 1.593750 1.500000
v 0.093750 1.593750 1.500000
v 0.093750 1.500000 1.500000
v -0.093750 1.500000 1.500000
v -0.093750 1.593750 0.500000
v -0.093750 1.593750 1.500000
v -0.093750 1.500000 1.500000
v -0.093750 1.500000 0.500000
v 0.093750 1.593750 1.500000
v 0.093750 1.593750 0.500000
v 0.093750 1.500000 0.500000
v 0.093750 1.500000 1.500000
v -0.093750 1.593750 0.500000
v 0.093750 1.593750 0.500000
v 0.093750 1.593750 1.500000
v -0.093750 1.593750 1.500000
v 0.031250 1.625000 1.250000
v -0.031250 1.625000 1.250000
v -0.031250 1.593750 1.250000
v 0.031250 1.593750 1.250000
v -0.031250 1.625000 1.375000
v 0.031250 1.625000 1.375000
v 0.031250 1.593750 1.375000
v -0.031250 1.593750 1.375000
v -0.031250 1.625000 1.250000
v -0.031250 1.625000 1.375000
v -0.031250 1.593750 1.375000
v -0.031250 1.593750 1.250000
v 0.031250 1.625000 1.375000
v 0.031250 1.625000 1.250000
v 0.031250 1.593750 1.250000
v 0.031250 1.593750 1.375000
v -0.031250 1.625000 1.250000
v 0.031250 1.625000 1.250000
v 0.031250 1.625000 1.375000
v -0.031250 1.625000 1.375000
v 0.375000 1.375000 1.625000
v -0.375000 1.375000 1.625000
v -0.375000 0.625000 1.625000
v 0.375000 0.625000 1.625000
v -0.375000 1.375000 2.062500
v 0.375000 1.375000 2.062500
v 0.375000 0.625000 2.062500
v -0.375000 0.625000 2.062500
v -0.375000 1.375000 1.625000
v -0.375000 1.375000 2.062500
v -0.375000 0.625000 2.062500
v -0.375000 0.625000 1.625000
v 0.375000 1.375000 2.062500
v 0.375000 1.375000 1.625000
v 0.375000 0.625000 1.625000
v 0.375000 0.625000 2.062500
v -0.375000 1.375000 1.625000
v 0.375000 1.375000 1.625000
v 0.375000 1.375000 2.062500
v -0.375000 1.375000 2.062500
v -0.375000 0.625000 2.062500
v 0.375000 0.625000 2.062500
v 0.375000 0.625000 1.625000
v -0.375000 0.625000 1.625000
v 0.406250 1.406250 1.812500
v -0.406250 1.406250 1.812500
v -0.406250 0.593750 1.812500
v 0.406250 0.593750 1.812500
v -0.406250 1.406250 1.875000
v 0.406250 1.406250 1.875000
v 0.406250 0.593750 1.875000
v -0.406250 0.593750 1.875000
v -0.406250 1.406250 1.812500
v -0.406250 1.406250 1.875000
v -0.406250 0.593750 1.875000
v -0.406250 0.593750 1.812500
v 0.406250 1.406250 1.875000
v 0.406250 1.406250 1.812500
v 0.406250 0.593750 1.812500
v 0.406250 0.593750 1.875000
v -0.406250 1.406250 1.812500
v 0.406250 1.406250 1.812500
v 0.406250 1.406250 1.875000
v -0.406250 1.406250 1.875000
v -0.406250 0.593750 1.875000
v 0.406250 0.593750 1.875000
v 0.406250 0.593750 1.812500
v -0.406250 0.593750 1.812500
v 0.281250 1.281250 2.062500
v -0.281250 1.281250 2.062500
v -0.281250 0.718750 2.062500
v 0.281250 0.718750 2.062500
v -0.281250 1.281250 2.250000
v 0.281250 1.281250 2.250000
v 0.281250 0.718750 2.250000
v -0.281250 0.718750 2.250000
v -0.281250 1.281250 2.062500
v -0.281250 1.281250 2.250000
v -0.281250 0.718750 2.250000
v -0.281250 0.718750 2.062500
v 0.281250 1.281250 2.250000
v 0.281250 1.281250 2.062500
v 0.281250 0.718750 2.062500
v 0.281250 0.718750 2.250000
v -0.281250 1.281250 2.062500
v 0.281250 1.281250 2.062500
v 0.281250 1.281250 2.250000
v -0.281250 1.281250 2.250000
v -0.281250 0.718750 2.250000
v 0.281250 0.718750 2.250000
v 0.281250 0.718750 2.062500
v -0.281250 0.718750 2.062500
v -0.156250 1.156250 2.750000
v 0.156250 1.156250 2.750000
v 0.156250 0.843750 2.750000
v -0.156250 0.843750 2.750000
v -0.156250 1.156250 2.250000
v -0.156250 1.156250 2.750000
v -0.156250 0.843750 2.750000
v -0.156250 0.843750 2.250000
v 0.156250 1.156250 2.750000
v 0.156250 1.156250 2.250000
v 0.156250 0.843750 2.250000
v 0.156250 0.843750 2.750000
v -0.156250 1.156250 2.250000
v 0.156250 1.156250 2.250000
v 0.156250 1.156250 2.750000
v -0.156250 1.156250 2.750000
v -0.156250 0.843750 2.750000
v 0.156250 0.843750 2.750000
v 0.156250 0.843750 2.250000
v -0.156250 0.843750 2.250000
v 0.218750 1.218750 2.312500
v -0.218750 1.218750 2.312500
v -0.218750 0.781250 2.312500
v 0.218750 0.781250 2.312500
v -0.218750 1.218750 2.406250
v 0.218750 1.218750 2.406250
v 0.218750 0.781250 2.406250
v -0.218750 0.781250 2.406250
v -0.218750 1.218750 2.312500
v -0.218750 1.218750 2.406250
v -0.218750 0.781250 2.406250
v -0.218750 0.781250 2.312500
v 0.218750 1.218750 2.406250
v 0.218750 1.218750 2.312500
v 0.218750 0.781250 2.312500
v 0.218750 0.781250 2.406250
v -0.218750 1.218750 2.312500
v 0.218750 1.218750 2.312500
v 0.218750 1.218750 2.406250
v -0.218750 1.218750 2.406250
v -0.218750 0.781250 2.406250
v 0.218750 0.781250 2.406250
v 0.218750 0.781250 2.312500
v -0.218750 0.781250 2.312500
v 0.218750 1.218750 2.468750
v -0.218750 1.218750 2.468750
v -0.218750 0.781250 2.468750
v 0.218750 0.781250 2.468750
v -0.218750 1.218750 2.562500
v 0.218750 1.218750 2.562500
v 0.218750 0.781250 2.562500
v -0.218750 0.781250 2.562500
v -0.218750 1.218750 2.468750
v -0.218750 1.218750 2.562500
v -0.218750 0.781250 2.562500
v -0.218750 0.781250 2.468750
v 0.218750 1.218750 2.562500
v 0.218750 1.218750 2.468750
v 0.218750 0.781250 2.468750
v 0.218750 0.781250 2.562500
v -0.218750 1.218750 2.468750
v 0.218750 1.218750 2.468750
v 0.218750 1.218750 2.562500
v -0.218750 1.218750 2.562500
v -0.218750 0.781250 2.562500
v 0.218750 0.781250 2.562500
v 0.218750 0.781250 2.468750
v -0.218750 0.781250 2.468750
v 0.218750 1.218750 2.625000
v -0.218750 1.218750 2.625000
v -0.218750 0.781250 2.625000
v 0.218750 0.781250 2.625000
v -0.218750 1.218750 2.718750
v 0.218750 1.218750 2.718750
v 0.218750 0.781250 2.718750
v -0.218750 0.781250 2.718750
v -0.218750 1.218750 2.625000
v -0.218750 1.218750 2.718750
v -0.218750 0.781250 2.718750
v -0.218750 0.781250 2.625000
v 0.218750 1.218750 2.718750
v 0.218750 1.218750 2.625000
v 0.218750 0.781250 2.625000
v 0.218750 0.781250 2.718750
v -0.218750 1.218750 2.625000
v 0.218750 1.218750 2.625000
v 0.218750 1.218750 2.718750
v -0.218750 1.218750 2.718750
v -0.218750 0.781250 2.718750
v 0.218750 0.781250 2.718750
v 0.218750 0.781250 2.625000
v -0.218750 0.781250 2.625000
v -0.093750 1.093750 2.906250
v 0.093750 1.093750 2.906250
v 0.093750 0.906250 2.906250
v -0.093750 0.906250 2.906250
v -0.093750 1.093750 2.750000
v -0.093750 1.093750 2.906250
v -0.093750 0.906250 2.906250
v -0.093750 0.906250 2.750000
v 0.093750 1.093750 2.906250
v 0.093750 1.093750 2.750000
v 0.093750 0.906250 2.750000
v 0.093750 0.906250 2.906250
v -0.093750 1.093750 2.750000
v 0.093750 1.093750 2.750000
v 0.093750 1.093750 2.906250
v -0.093750 1.093750 2.906250
v -0.093750 0.906250 2.906250
v 0.093750 0.906250 2.906250
v 0.093750 0.906250 2.750000
v -0.093750 0.906250 2.750000
v 0.156250 0.625000 0.062500
v -0.156250 0.625000 0.062500
v -0.156250 0.062500 0.062500
v 0.156250 0.062500 0.062500
v -0.156250 0.625000 0.500000
v 0.156250 0.625000 0.500000
v 0.156250 0.062500 0.500000
v -0.156250 0.062500 0.500000
v -0.156250 0.625000 0.062500
v -0.156250 0.625000 0.500000
v -0.156250 0.062500 0.500000
v -0.156250 0.062500 0.062500
v 0.156250 0.625000 0.500000
v 0.156250 0.625000 0.062500
v 0.156250 0.062500 0.062500
v 0.156250 0.062500 0.500000
v -0.156250 0.062500 0.500000
v 0.156250 0.062500 0.500000
v 0.156250 0.062500 0.062500
v -0.156250 0.062500 0.062500
v 0.156250 0.062500 -0.062500
v -0.156250 0.062500 -0.062500
v -0.156250 -0.406250 -0.062500
v 0.156250 -0.406250 -0.062500
v -0.156250 0.062500 0.375000
v 0.156250 0.062500 0.375000
v 0.156250 -0.406250 0.375000
v -0.156250 -0.406250 0.375000
v -0.156250 0.062500 -0.062500
v -0.156250 0.062500 0.375000
v -0.156250 -0.406250 0.375000
v -0.156250 -0.406250 -0.062500
v 0.156250 0.062500 0.375000
v 0.156250 0.062500 -0.062500
v 0.156250 -0.406250 -0.062500
v 0.156250 -0.406250 0.375000
v -0.156250 0.062500 -0.062500
v 0.156250 0.062500 -0.062500
v 0.156250 0.062500 0.375000
v -0.156250 0.062500 0.375000
v -0.156250 -0.406250 0.375000
v 0.156250 -0.406250 0.375000
v 0.156250 -0.406250 -0.062500
v -0.156250 -0.406250 -0.062500
v 0.187500 -0.312500 -0.093750
v -0.187500 -0.312500 -0.093750
v -0.187500 -0.406250 -0.093750
v 0.187500 -0.406250 -0.093750
v -0.187500 -0.312500 0.406250
v 0.187500 -0.312500 0.406250
v 0.187500 -0.406250 0.406250
v -0.187500 -0.406250 0.406250
v -0.187500 -0.312500 -0.093750
v -0.187500 -0.312500 0.406250
v -0.187500 -0.406250 0.406250
v -0.187500 -0.406250 -0.093750
v 0.187500 -0.312500 0.406250
v 0.187500 -0.312500 -0.093750
v 0.187500 -0.406250 -0.093750
v 0.187500 -0.406250 0.406250
v -0.187500 -0.312500 -0.093750
v 0.187500 -0.312500 -0.093750
v 0.187500 -0.312500 0.406250
v -0.187500 -0.312500 0.406250
v -0.187500 -0.406250 0.406250
v 0.187500 -0.406250 0.406250
v 0.187500 -0.406250 -0.093750
v -0.187500 -0.406250 -0.093750
v 0.062500 0.500000 0.562500
v -0.062500 0.500000 0.562500
v -0.062500 0.250000 0.562500
v 0.062500 0.250000 0.562500
v -0.062500 0.500000 0.656250
v 0.062500 0.500000 0.656250
v 0.062500 0.250000 0.656250
v -0.062500 0.250000 0.656250
v -0.062500 0.500000 0.562500
v -0.062500 0.500000 0.656250
v -0.062500 0.250000 0.656250
v -0.062500 0.250000 0.562500
v 0.062500 0.500000 0.656250
v 0.062500 0.500000 0.562500
v 0.062500 0.250000 0.562500
v 0.062500 0.250000 0.656250
v -0.062500 0.250000 0.656250
v 0.062500 0.250000 0.656250
v 0.062500 0.250000 0.562500
v -0.062500 0.250000 0.562500
v 0.093750 0.187500 0.500000
v -0.093750 0.187500 0.500000
v -0.093750 0.125000 0.500000
v 0.093750 0.125000 0.500000
v -0.093750 0.187500 0.875000
v 0.093750 0.187500 0.875000
v 0.093750 0.125000 0.875000
v -0.093750 0.125000 0.875000
v -0.093750 0.187500 0.500000
v -0.093750 0.187500 0.875000
v -0.093750 0.125000 0.875000
v -0.093750 0.125000 0.500000
v 0.093750 0.187500 0.875000
v 0.093750 0.187500 0.500000
v 0.093750 0.125000 0.500000
v 0.093750 0.125000 0.875000
v -0.093750 0.187500 0.500000
v 0.093750 0.187500 0.500000
v 0.093750 0.187500 0.875000
v -0.093750 0.187500 0.875000
v -0.093750 0.125000 0.875000
v 0.093750 0.125000 0.875000
v 0.093750 0.125000 0.500000
v -0.093750 0.125000 0.500000
v 0.093750 0.500000 0.812500
v -0.093750 0.500000 0.812500
v -0.093750 0.187500 0.812500
v 0.093750 0.187500 0.812500
v -0.093750 0.500000 0.875000
v 0.093750 0.500000 0.875000
v 0.093750 0.187500 0.875000
v -0.093750 0.187500 0.875000
v -0.093750 0.500000 0.812500
v -0.093750 0.500000 0.875000
v -0.093750 0.187500 0.875000
v -0.093750 0.187500 0.812500
v 0.093750 0.500000 0.875000
v 0.093750 0.500000 0.812500
v 0.093750 0.187500 0.812500
v 0.093750 0.187500 0.875000
v -0.093750 0.187500 0.875000
v 0.093750 0.187500 0.875000
v 0.093750 0.187500 0.812500
v -0.093750 0.187500 0.812500
v -0.156250 -0.410250 0.375000
v -0.156250 -0.410250 -0.062500
v 0.156250 -0.410250 -0.062500
v 0.156250 -0.410250 0.375000
vt 0.671875 0.437500
vt 0.796875 0.437500
vt 0.796875 0.312500
vt 0.671875 0.312500
vt 0.796875 0.437500
vt 0.921875 0.437500
vt 0.921875 0.312500
vt 0.796875 0.312500
vt 0.281250 0.281250
vt 0.343750 0.281250
vt 0.343750 0.156250
vt 0.281250 0.156250
vt 0.281250 0.281250
vt 0.343750 0.281250
vt 0.343750 0.156250
vt 0.281250 0.156250
vt 0.234375 0.156250
vt 0.359375 0.156250
vt 0.359375 0.093750
vt 0.234375 0.093750
vt 0.234375 0.156250
vt 0.359375 0.156250
vt 0.359375 0.093750
vt 0.234375 0.093750
vt 0.453125 0.687500
vt 0.640625 0.687500
vt 0.640625 0.500000
vt 0.453125 0.500000
vt 0.453125 0.687500
vt 0.640625 0.687500
vt 0.640625 0.500000
vt 0.453125 0.500000
vt 0.640625 0.687500
vt 0.781250 0.687500
vt 0.781250 0.500000
vt 0.640625 0.500000
vt 0.640625 0.687500
vt 0.781250 0.687500
vt 0.781250 0.500000
vt 0.640625 0.500000
vt 0.218750 0.437500
vt 0.406250 0.437500
vt 0.406250 0.296875
vt 0.218750 0.296875
vt 0.218750 0.437500
vt 0.406250 0.437500
vt 0.406250 0.296875
vt 0.218750 0.296875
vt 0.250000 0.687500
vt 0.453125 0.687500
vt 0.453125 0.484375
vt 0.250000 0.484375
vt 0.250000 0.687500
vt 0.453125 0.687500
vt 0.453125 0.484375
vt 0.250000 0.484375
vt 0.890625 1.000000
vt 0.921875 1.000000
vt 0.921875 0.796875
vt 0.890625 0.796875
vt 0.890625 1.000000
vt 0.921875 1.000000
vt 0.921875 0.796875
vt 0.890625 0.796875
vt 0.000000 0.078125
vt 0.203125 0.078125
vt 0.203125 0.046875
vt 0.000000 0.046875
vt 0.000000 0.078125
vt 0.203125 0.078125
vt 0.203125 0.046875
vt 0.000000 0.046875
vt 0.000000 0.687500
vt 0.250000 0.687500
vt 0.250000 0.437500
vt 0.000000 0.437500
vt 0.000000 0.687500
vt 0.250000 0.687500
vt 0.250000 0.437500
vt 0.000000 0.437500
vt 0.500000 1.000000
vt 0.812500 1.000000
vt 0.812500 0.750000
vt 0.500000 0.750000
vt 0.500000 1.000000
vt 0.812500 1.000000
vt 0.812500 0.750000
vt 0.500000 0.750000
vt 0.000000 1.000000
vt 0.250000 1.000000
vt 0.250000 0.687500
vt 0.000000 0.687500
vt 0.250000 1.000000
vt 0.500000 1.000000
vt 0.500000 0.687500
vt 0.250000 0.687500
vt 0.953125 1.000000
vt 0.984375 1.000000
vt 0.984375 0.843750
vt 0.953125 0.843750
vt 0.953125 1.000000
vt 0.984375 1.000000
vt 0.984375 0.843750
vt 0.953125 0.843750
vt 0.000000 0.437500
vt 0.218750 0.437500
vt 0.218750 0.281250
vt 0.000000 0.281250
vt 0.859375 1.000000
vt 0.890625 1.000000
vt 0.890625 0.781250
vt 0.859375 0.781250
vt 0.859375 1.000000
vt 0.890625 1.000000
vt 0.890625 0.781250
vt 0.859375 0.781250
vt 0.953125 1.000000
vt 0.984375 1.000000
vt 0.984375 0.843750
vt 0.953125 0.843750
vt 0.953125 1.000000
vt 0.984375 1.000000
vt 0.984375 0.843750
vt 0.953125 0.843750
vt 0.000000 0.437500
vt 0.218750 0.437500
vt 0.218750 0.281250
vt 0.000000 0.281250
vt 0.859375 1.000000
vt 0.890625 1.000000
vt 0.890625 0.781250
vt 0.859375 0.781250
vt 0.859375 1.000000
vt 0.890625 1.000000
vt 0.890625 0.781250
vt 0.859375 0.781250
vt 0.390625 0.156250
vt 0.406250 0.156250
vt 0.406250 0.093750
vt 0.390625 0.093750
vt 0.390625 0.156250
vt 0.406250 0.156250
vt 0.406250 0.093750
vt 0.390625 0.093750
vt 0.046875 0.156250
vt 0.234375 0.156250
vt 0.234375 0.093750
vt 0.046875 0.093750
vt 0.937500 1.000000
vt 0.953125 1.000000
vt 0.953125 0.812500
vt 0.937500 0.812500
vt 0.937500 1.000000
vt 0.953125 1.000000
vt 0.953125 0.812500
vt 0.937500 0.812500
vt 0.390625 0.156250
vt 0.406250 0.156250
vt 0.406250 0.093750
vt 0.390625 0.093750
vt 0.390625 0.156250
vt 0.406250 0.156250
vt 0.406250 0.093750
vt 0.390625 0.093750
vt 0.046875 0.156250
vt 0.234375 0.156250
vt 0.234375 0.093750
vt 0.046875 0.093750
vt 0.937500 1.000000
vt 0.953125 1.000000
vt 0.953125 0.812500
vt 0.937500 0.812500
vt 0.937500 1.000000
vt 0.953125 1.000000
vt 0.953125 0.812500
vt 0.937500 0.812500
vt 0.406250 0.078125
vt 0.453125 0.078125
vt 0.453125 0.046875
vt 0.406250 0.046875
vt 0.406250 0.078125
vt 0.453125 0.078125
vt 0.453125 0.046875
vt 0.406250 0.046875
vt 0.593750 0.156250
vt 0.843750 0.156250
vt 0.843750 0.125000
vt 0.593750 0.125000
vt 0.593750 0.156250
vt 0.843750 0.156250
vt 0.843750 0.125000
vt 0.593750 0.125000
vt 0.812500 1.000000
vt 0.859375 1.000000
vt 0.859375 0.750000
vt 0.812500 0.750000
vt 0.843750 0.078125
vt 0.859375 0.078125
vt 0.859375 0.062500
vt 0.843750 0.062500
vt 0.843750 0.078125
vt 0.859375 0.078125
vt 0.859375 0.062500
vt 0.843750 0.062500
vt 0.812500 0.078125
vt 0.843750 0.078125
vt 0.843750 0.062500
vt 0.812500 0.062500
vt 0.812500 0.078125
vt 0.843750 0.078125
vt 0.843750 0.062500
vt 0.812500 0.062500
vt 0.453125 0.078125
vt 0.468750 0.078125
vt 0.468750 0.046875
vt 0.453125 0.046875
vt 0.453125 0.687500
vt 0.640625 0.687500
vt 0.640625 0.500000
vt 0.453125 0.500000
vt 0.453125 0.687500
vt 0.640625 0.687500
vt 0.640625 0.500000
vt 0.453125 0.500000
vt 0.781250 0.687500
vt 0.890625 0.687500
vt 0.890625 0.500000
vt 0.781250 0.500000
vt 0.781250 0.687500
vt 0.890625 0.687500
vt 0.890625 0.500000
vt 0.781250 0.500000
vt 0.343750 0.281250
vt 0.531250 0.281250
vt 0.531250 0.171875
vt 0.343750 0.171875
vt 0.343750 0.281250
vt 0.531250 0.281250
vt 0.531250 0.171875
vt 0.343750 0.171875
vt 0.250000 0.687500
vt 0.453125 0.687500
vt 0.453125 0.484375
vt 0.250000 0.484375
vt 0.250000 0.687500
vt 0.453125 0.687500
vt 0.453125 0.484375
vt 0.250000 0.484375
vt 0.921875 1.000000
vt 0.937500 1.000000
vt 0.937500 0.796875
vt 0.921875 0.796875
vt 0.921875 1.000000
vt 0.937500 1.000000
vt 0.937500 0.796875
vt 0.921875 0.796875
vt 0.468750 0.078125
vt 0.671875 0.078125
vt 0.671875 0.062500
vt 0.468750 0.062500
vt 0.468750 0.078125
vt 0.671875 0.078125
vt 0.671875 0.062500
vt 0.468750 0.062500
vt 0.406250 0.437500
vt 0.546875 0.437500
vt 0.546875 0.296875
vt 0.406250 0.296875
vt 0.406250 0.437500
vt 0.546875 0.437500
vt 0.546875 0.296875
vt 0.406250 0.296875
vt 0.625000 0.437500
vt 0.671875 0.437500
vt 0.671875 0.296875
vt 0.625000 0.296875
vt 0.625000 0.437500
vt 0.671875 0.437500
vt 0.671875 0.296875
vt 0.625000 0.296875
vt 0.406250 0.156250
vt 0.546875 0.156250
vt 0.546875 0.109375
vt 0.406250 0.109375
vt 0.406250 0.156250
vt 0.546875 0.156250
vt 0.546875 0.109375
vt 0.406250 0.109375
vt 0.921875 0.281250
vt 1.000000 0.281250
vt 1.000000 0.203125
vt 0.921875 0.203125
vt 0.796875 0.281250
vt 0.921875 0.281250
vt 0.921875 0.203125
vt 0.796875 0.203125
vt 0.796875 0.281250
vt 0.921875 0.281250
vt 0.921875 0.203125
vt 0.796875 0.203125
vt 0.921875 0.437500
vt 1.000000 0.437500
vt 1.000000 0.312500
vt 0.921875 0.312500
vt 0.921875 0.437500
vt 1.000000 0.437500
vt 1.000000 0.312500
vt 0.921875 0.312500
vt 0.531250 0.281250
vt 0.640625 0.281250
vt 0.640625 0.171875
vt 0.531250 0.171875
vt 0.531250 0.281250
vt 0.640625 0.281250
vt 0.640625 0.171875
vt 0.531250 0.171875
vt 0.718750 0.281250
vt 0.750000 0.281250
vt 0.750000 0.171875
vt 0.718750 0.171875
vt 0.718750 0.281250
vt 0.750000 0.281250
vt 0.750000 0.171875
vt 0.718750 0.171875
vt 0.203125 0.078125
vt 0.312500 0.078125
vt 0.312500 0.046875
vt 0.203125 0.046875
vt 0.203125 0.078125
vt 0.312500 0.078125
vt 0.312500 0.046875
vt 0.203125 0.046875
vt 0.531250 0.281250
vt 0.640625 0.281250
vt 0.640625 0.171875
vt 0.531250 0.171875
vt 0.531250 0.281250
vt 0.640625 0.281250
vt 0.640625 0.171875
vt 0.531250 0.171875
vt 0.718750 0.281250
vt 0.750000 0.281250
vt 0.750000 0.171875
vt 0.718750 0.171875
vt 0.718750 0.281250
vt 0.750000 0.281250
vt 0.750000 0.171875
vt 0.718750 0.171875
vt 0.203125 0.078125
vt 0.312500 0.078125
vt 0.312500 0.046875
vt 0.203125 0.046875
vt 0.203125 0.078125
vt 0.312500 0.078125
vt 0.312500 0.046875
vt 0.203125 0.046875
vt 0.531250 0.281250
vt 0.640625 0.281250
vt 0.640625 0.171875
vt 0.531250 0.171875
vt 0.531250 0.281250
vt 0.640625 0.281250
vt 0.640625 0.171875
vt 0.531250 0.171875
vt 0.718750 0.281250
vt 0.750000 0.281250
vt 0.750000 0.171875
vt 0.718750 0.171875
vt 0.718750 0.281250
vt 0.750000 0.281250
vt 0.750000 0.171875
vt 0.718750 0.171875
vt 0.203125 0.078125
vt 0.312500 0.078125
vt 0.312500 0.046875
vt 0.203125 0.046875
vt 0.203125 0.078125
vt 0.312500 0.078125
vt 0.312500 0.046875
vt 0.203125 0.046875
vt 0.546875 0.156250
vt 0.593750 0.156250
vt 0.593750 0.109375
vt 0.546875 0.109375
vt 0.546875 0.156250
vt 0.593750 0.156250
vt 0.593750 0.109375
vt 0.546875 0.109375
vt 0.546875 0.156250
vt 0.593750 0.156250
vt 0.593750 0.109375
vt 0.546875 0.109375
vt 0.546875 0.156250
vt 0.593750 0.156250
vt 0.593750 0.109375
vt 0.546875 0.109375
vt 0.546875 0.156250
vt 0.593750 0.156250
vt 0.593750 0.109375
vt 0.546875 0.109375
vt 0.546875 0.437500
vt 0.625000 0.437500
vt 0.625000 0.296875
vt 0.546875 0.296875
vt 0.546875 0.437500
vt 0.625000 0.437500
vt 0.625000 0.296875
vt 0.546875 0.296875
vt 0.890625 0.687500
vt 1.000000 0.687500
vt 1.000000 0.546875
vt 0.890625 0.546875
vt 0.890625 0.687500
vt 1.000000 0.687500
vt 1.000000 0.546875
vt 0.890625 0.546875
vt 0.640625 0.281250
vt 0.718750 0.281250
vt 0.718750 0.171875
vt 0.640625 0.171875
vt 0.203125 0.281250
vt 0.281250 0.281250
vt 0.281250 0.156250
vt 0.203125 0.156250
vt 0.203125 0.281250
vt 0.281250 0.281250
vt 0.281250 0.156250
vt 0.203125 0.156250
vt 0.000000 0.281250
vt 0.109375 0.281250
vt 0.109375 0.156250
vt 0.000000 0.156250
vt 0.000000 0.281250
vt 0.109375 0.281250
vt 0.109375 0.156250
vt 0.000000 0.156250
vt 0.640625 0.281250
vt 0.718750 0.281250
vt 0.718750 0.171875
vt 0.640625 0.171875
vt 0.640625 0.281250
vt 0.718750 0.281250
vt 0.718750 0.171875
vt 0.640625 0.171875
vt 0.312500 0.078125
vt 0.406250 0.078125
vt 0.406250 0.046875
vt 0.312500 0.046875
vt 0.312500 0.078125
vt 0.406250 0.078125
vt 0.406250 0.046875
vt 0.312500 0.046875
vt 0.843750 0.156250
vt 0.968750 0.156250
vt 0.968750 0.125000
vt 0.843750 0.125000
vt 0.843750 0.156250
vt 0.968750 0.156250
vt 0.968750 0.125000
vt 0.843750 0.125000
vt 0.109375 0.281250
vt 0.203125 0.281250
vt 0.203125 0.156250
vt 0.109375 0.156250
vt 0.109375 0.281250
vt 0.203125 0.281250
vt 0.203125 0.156250
vt 0.109375 0.156250
vt 0.359375 0.156250
vt 0.390625 0.156250
vt 0.390625 0.093750
vt 0.359375 0.093750
vt 0.359375 0.156250
vt 0.390625 0.156250
vt 0.390625 0.093750
vt 0.359375 0.093750
vt 0.359375 0.156250
vt 0.390625 0.156250
vt 0.390625 0.093750
vt 0.359375 0.093750
vt 0.359375 0.156250
vt 0.390625 0.156250
vt 0.390625 0.093750
vt 0.359375 0.093750
vt 0.968750 0.156250
vt 1.000000 0.156250
vt 1.000000 0.125000
vt 0.968750 0.125000
vt 0.765625 0.078125
vt 0.812500 0.078125
vt 0.812500 0.062500
vt 0.765625 0.062500
vt 0.765625 0.078125
vt 0.812500 0.078125
vt 0.812500 0.062500
vt 0.765625 0.062500
vt 0.671875 0.078125
vt 0.765625 0.078125
vt 0.765625 0.062500
vt 0.671875 0.062500
vt 0.671875 0.078125
vt 0.765625 0.078125
vt 0.765625 0.062500
vt 0.671875 0.062500
vt 0.750000 0.281250
vt 0.796875 0.281250
vt 0.796875 0.187500
vt 0.750000 0.187500
vt 0.750000 0.281250
vt 0.796875 0.281250
vt 0.796875 0.187500
vt 0.750000 0.187500
vt 0.000000 0.156250
vt 0.046875 0.156250
vt 0.046875 0.078125
vt 0.000000 0.078125
vt 0.000000 0.156250
vt 0.046875 0.156250
vt 0.046875 0.078125
vt 0.000000 0.078125
vt 0.984375 1.000000
vt 1.000000 1.000000
vt 1.000000 0.921875
vt 0.984375 0.921875
vt 0.984375 1.000000
vt 1.000000 1.000000
vt 1.000000 0.921875
vt 0.984375 0.921875
vt 0.765625 0.078125
vt 0.812500 0.078125
vt 0.812500 0.062500
vt 0.765625 0.062500
vn 0 0 -1
vn 0 0 1
vn -1 0 0
vn 1 0 0
vn 0 1 0
vn 0 -1 0
usemtl basic_laser_gun
o Cube_Cube
f 1/1/1 4/4/1 3/3/1 2/2/1
f 5/5/2 8/8/2 7/7/2 6/6/2
f 9/9/3 12/12/3 11/11/3 10/10/3
f 13/13/4 16/16/4 15/15/4 14/14/4
f 17/17/5 20/20/5 19/19/5 18/18/5
f 21/21/6 24/24/6 23/23/6 22/22/6
f 25/25/1 28/28/1 27/27/1 26/26/1
f 29/29/2 32/32/2 31/31/2 30/30/2
f 33/33/3 36/36/3 35/35/3 34/34/3
f 37/37/4 40/40/4 39/39/4 38/38/4
f 41/41/5 44/44/5 43/43/5 42/42/5
f 45/45/6 48/48/6 47/47/6 46/46/6
f 49/49/1 52/52/1 51/51/1 50/50/1
f 53/53/2 56/56/2 55/55/2 54/54/2
f 57/57/3 60/60/3 59/59/3 58/58/3
f 61/61/4 64/64/4 63/63/4 62/62/4
f 65/65/5 68/68/5 67/67/5 66/66/5
f 69/69/6 72/72/6 71/71/6 70/70/6
f 73/73/1 76/76/1 75/75/1 74/74/1
f 77/77/2 80/80/2 79/79/2 78/78/2
f 81/81/3 84/84/3 83/83/3 82/82/3
f 85/85/4 88/88/4 87/87/4 86/86/4
f 89/89/5 92/92/5 91/91/5 90/90/5
f 93/93/6 96/96/6 95/95/6 94/94/6
f 97/97/1 100/100/1 99/99/1 98/98/1
f 101/101/2 104/104/2 103/103/2 102/102/2
f 105/105/3 108/108/3 107/107/3 106/106/3
f 109/109/5 112/112/5 111/111/5 110/110/5
f 113/113/6 116/116/6 115/115/6 114/114/6
f 117/117/1 120/120/1 119/119/1 118/118/1
f 121/121/2 124/124/2 123/123/2 122/122/2
f 125/125/4 128/128/4 127/127/4 126/126/4
f 129/129/5 132/132/5 131/131/5 130/130/5
f 133/133/6 136/136/6 135/135/6 134/134/6
f 137/137/1 140/140/1 139/139/1 138/138/1
f 141/141/2 144/144/2 143/143/2 142/142/2
f 145/145/3 148/148/3 147/147/3 146/146/3
f 149/149/5 152/152/5 151/151/5 150/150/5
f 153/153/6 156/156/6 155/155/6 154/154/6
f 157/157/1 160/160/1 159/159/1 158/158/1
f 161/161/2 164/164/2 163/163/2 162/162/2
f 165/165/4 168/168/4 167/167/4 166/166/4
f 169/169/5 172/172/5 171/171/5 170/170/5
f 173/173/6 176/176/6 175/175/6 174/174/6
f 177/177/1 180/180/1 179/179/1 178/178/1
f 181/181/2 184/184/2 183/183/2 182/182/2
f 185/185/3 188/188/3 187/187/3 186/186/3
f 189/189/4 192/192/4 191/191/4 190/190/4
f 193/193/5 196/196/5 195/195/5 194/194/5
f 197/197/1 200/200/1 199/199/1 198/198/1
f 201/201/2 204/204/2 203/203/2 202/202/2
f 205/205/3 208/208/3 207/207/3 206/206/3
f 209/209/4 212/212/4 211/211/4 210/210/4
f 213/213/5 216/216/5 215/215/5 214/214/5
f 217/217/1 220/220/1 219/219/1 218/218/1
f 221/221/2 224/224/2 223/223/2 222/222/2
f 225/225/3 228/228/3 227/227/3 226/226/3
f 229/229/4 232/232/4 231/231/4 230/230/4
f 233/233/5 236/236/5 235/235/5 234/234/5
f 237/237/6 240/240/6 239/239/6 238/238/6
f 241/241/1 244/244/1 243/243/1 242/242/1
f 245/245/2 248/248/2 247/247/2 246/246/2
f 249/249/3 252/252/3 251/251/3 250/250/3
f 253/253/4 256/256/4 255/255/4 254/254/4
f 257/257/5 260/260/5 259/259/5 258/258/5
f 261/261/6 264/264/6 263/263/6 262/262/6
f 265/265/1 268/268/1 267/267/1 266/266/1
f 269/269/2 272/272/2 271/271/2 270/270/2
f 273/273/3 276/276/3 275/275/3 274/274/3
f 277/277/4 280/280/4 279/279/4 278/278/4
f 281/281/5 284/284/5 283/283/5 282/282/5
f 285/285/6 288/288/6 287/287/6 286/286/6
f 289/289/2 292/292/2 291/291/2 290/290/2
f 293/293/3 296/296/3 295/295/3 294/294/3
f 297/297/4 300/300/4 299/299/4 298/298/4
f 301/301/5 304/304/5 303/303/5 302/302/5
f 305/305/6 308/308/6 307/307/6 306/306/6
f 309/309/1 312/312/1 311/311/1 310/310/1
f 313/313/2 316/316/2 315/315/2 314/314/2
f 317/317/3 320/320/3 319/319/3 318/318/3
f 321/321/4 324/324/4 323/323/4 322/322/4
f 325/325/5 328/328/5 327/327/5 326/326/5
f 329/329/6 332/332/6 331/331/6 330/330/6
f 333/333/1 336/336/1 335/335/1 334/334/1
f 337/337/2 340/340/2 339/339/2 338/338/2
f 341/341/3 344/344/3 343/343/3 342/342/3
f 345/345/4 348/348/4 347/347/4 346/346/4
f 349/349/5 352/352/5 351/351/5 350/350/5
f 353/353/6 356/356/6 355/355/6 354/354/6
f 357/357/1 360/360/1 359/359/1 358/358/1
f 361/361/2 364/364/2 363/363/2 362/362/2
f 365/365/3 368/368/3 367/367/3 366/366/3
f 369/369/4 372/372/4 371/371/4 370/370/4
f 373/373/5 376/376/5 375/375/5 374/374/5
f 377/377/6 380/380/6 379/379/6 378/378/6
f 381/381/2 384/384/2 383/383/2 382/382/2
f 385/385/3 388/388/3 387/387/3 386/386/3
f 389/389/4 392/392/4 391/391/4 390/390/4
f 393/393/5 396/396/5 395/395/5 394/394/5
f 397/397/6 400/400/6 399/399/6 398/398/6
f 401/401/1 404/404/1 403/403/1 402/402/1
f 405/405/2 408/408/2 407/407/2 406/406/2
f 409/409/3 412/412/3 411/411/3 410/410/3
f 413/413/4 416/416/4 415/415/4 414/414/4
f 417/417/6 420/420/6 419/419/6 418/418/6
f 421/421/1 424/424/1 423/423/1 422/422/1
f 425/425/2 428/428/2 427/427/2 426/426/2
f 429/429/3 432/432/3 431/431/3 430/430/3
f 433/433/4 436/436/4 435/435/4 434/434/4
f 437/437/5 440/440/5 439/439/5 438/438/5
f 533/441/6 534/444/6 535/443/6 536/442/6
f 445/445/1 448/448/1 447/447/1 446/446/1
f 449/449/2 452/452/2 451/451/2 450/450/2
f 453/453/3 456/456/3 455/455/3 454/454/3
f 457/457/4 460/460/4 459/459/4 458/458/4
f 461/461/5 464/464/5 463/463/5 462/462/5
f 465/465/6 468/468/6 467/467/6 466/466/6
f 469/469/1 472/472/1 471/471/1 470/470/1
f 473/473/2 476/476/2 475/475/2 474/474/2
f 477/477/3 480/480/3 479/479/3 478/478/3
f 481/481/4 484/484/4 483/483/4 482/482/4
f 485/485/6 488/488/6 487/487/6 486/486/6
f 489/489/1 492/492/1 491/491/1 490/490/1
f 493/493/2 496/496/2 495/495/2 494/494/2
f 497/497/3 500/500/3 499/499/3 498/498/3
f 501/501/4 504/504/4 503/503/4 502/502/4
f 505/505/5 508/508/5 507/507/5 506/506/5
f 509/509/6 512/512/6 511/511/6 510/510/6
f 513/513/1 516/516/1 515/515/1 514/514/1
f 517/517/2 520/520/2 519/519/2 518/518/2
f 521/521/3 524/524/3 523/523/3 522/522/3
f 525/525/4 528/528/4 527/527/4 526/526/4
f 529/529/6 532/532/6 531/531/6 530/530/6
