# advbipropellantrocketmotor generated by machinegen.py
mtllib advbipropellantrocketmotor.mtl
usemtl advbipropellantrocketmotor
vn 0 0 -1
vn 0 0 1
vn -1 0 0
vn 1 0 0
vn 0 1 0
vn 0 -1 0
o Material
v 1.000000 1.000000 0.000000
v 0.000000 1.000000 0.000000
v 0.000000 0.750000 0.000000
v 1.000000 0.750000 0.000000
vt 0.625000 1.000000
vt 0.875000 1.000000
vt 0.875000 0.875000
vt 0.625000 0.875000
f 1/1/1 4/4/1 3/3/1 2/2/1
v 0.000000 1.000000 1.000000
v 1.000000 1.000000 1.000000
v 1.000000 0.750000 1.000000
v 0.000000 0.750000 1.000000
vt 0.625000 1.000000
vt 0.875000 1.000000
vt 0.875000 0.875000
vt 0.625000 0.875000
f 5/5/2 8/8/2 7/7/2 6/6/2
v 0.000000 1.000000 0.000000
v 0.000000 1.000000 1.000000
v 0.000000 0.750000 1.000000
v 0.000000 0.750000 0.000000
vt 0.625000 1.000000
vt 0.875000 1.000000
vt 0.875000 0.875000
vt 0.625000 0.875000
f 9/9/3 12/12/3 11/11/3 10/10/3
v 1.000000 1.000000 1.000000
v 1.000000 1.000000 0.000000
v 1.000000 0.750000 0.000000
v 1.000000 0.750000 1.000000
vt 0.625000 1.000000
vt 0.875000 1.000000
vt 0.875000 0.875000
vt 0.625000 0.875000
f 13/13/4 16/16/4 15/15/4 14/14/4
v 0.000000 1.000000 0.000000
v 1.000000 1.000000 0.000000
v 1.000000 1.000000 1.000000
v 0.000000 1.000000 1.000000
vt 0.000000 1.000000
vt 0.250000 1.000000
vt 0.250000 0.500000
vt 0.000000 0.500000
f 17/17/5 20/20/5 19/19/5 18/18/5
v 0.000000 0.750000 1.000000
v 1.000000 0.750000 1.000000
v 1.000000 0.750000 0.000000
v 0.000000 0.750000 0.000000
vt 0.000000 1.000000
vt 0.250000 1.000000
vt 0.250000 0.500000
vt 0.000000 0.500000
f 21/21/6 24/24/6 23/23/6 22/22/6
v 0.875000 0.750000 0.125000
v 0.125000 0.750000 0.125000
v 0.125000 0.500000 0.125000
v 0.875000 0.500000 0.125000
vt 0.000000 0.500000
vt 0.187500 0.500000
vt 0.187500 0.375000
vt 0.000000 0.375000
f 25/25/1 28/28/1 27/27/1 26/26/1
v 0.125000 0.750000 0.875000
v 0.875000 0.750000 0.875000
v 0.875000 0.500000 0.875000
v 0.125000 0.500000 0.875000
vt 0.000000 0.500000
vt 0.187500 0.500000
vt 0.187500 0.375000
vt 0.000000 0.375000
f 29/29/2 32/32/2 31/31/2 30/30/2
v 0.125000 0.750000 0.125000
v 0.125000 0.750000 0.875000
v 0.125000 0.500000 0.875000
v 0.125000 0.500000 0.125000
vt 0.000000 0.500000
vt 0.187500 0.500000
vt 0.187500 0.375000
vt 0.000000 0.375000
f 33/33/3 36/36/3 35/35/3 34/34/3
v 0.875000 0.750000 0.875000
v 0.875000 0.750000 0.125000
v 0.875000 0.500000 0.125000
v 0.875000 0.500000 0.875000
vt 0.000000 0.500000
vt 0.187500 0.500000
vt 0.187500 0.375000
vt 0.000000 0.375000
f 37/37/4 40/40/4 39/39/4 38/38/4
v 0.125000 0.500000 0.875000
v 0.875000 0.500000 0.875000
v 0.875000 0.500000 0.125000
v 0.125000 0.500000 0.125000
vt 0.250000 1.000000
vt 0.437500 1.000000
vt 0.437500 0.625000
vt 0.250000 0.625000
f 41/41/6 44/44/6 43/43/6 42/42/6
v 0.562500 0.687500 0.093750
v 0.437500 0.687500 0.093750
v 0.437500 0.562500 0.093750
v 0.562500 0.562500 0.093750
vt 0.281250 0.500000
vt 0.312500 0.500000
vt 0.312500 0.437500
vt 0.281250 0.437500
f 45/45/1 48/48/1 47/47/1 46/46/1
v 0.437500 0.687500 0.093750
v 0.437500 0.687500 0.125000
v 0.437500 0.562500 0.125000
v 0.437500 0.562500 0.093750
vt 0.343750 0.500000
vt 0.359375 0.500000
vt 0.359375 0.437500
vt 0.343750 0.437500
f 49/49/3 52/52/3 51/51/3 50/50/3
v 0.562500 0.687500 0.125000
v 0.562500 0.687500 0.093750
v 0.562500 0.562500 0.093750
v 0.562500 0.562500 0.125000
vt 0.343750 0.500000
vt 0.359375 0.500000
vt 0.359375 0.437500
vt 0.343750 0.437500
f 53/53/4 56/56/4 55/55/4 54/54/4
v 0.437500 0.687500 0.093750
v 0.562500 0.687500 0.093750
v 0.562500 0.687500 0.125000
v 0.437500 0.687500 0.125000
vt 0.359375 0.500000
vt 0.390625 0.500000
vt 0.390625 0.468750
vt 0.359375 0.468750
f 57/57/5 60/60/5 59/59/5 58/58/5
v 0.437500 0.562500 0.125000
v 0.562500 0.562500 0.125000
v 0.562500 0.562500 0.093750
v 0.437500 0.562500 0.093750
vt 0.359375 0.500000
vt 0.390625 0.500000
vt 0.390625 0.468750
vt 0.359375 0.468750
f 61/61/6 64/64/6 63/63/6 62/62/6
v 0.437500 0.687500 0.906250
v 0.562500 0.687500 0.906250
v 0.562500 0.562500 0.906250
v 0.437500 0.562500 0.906250
vt 0.281250 0.500000
vt 0.312500 0.500000
vt 0.312500 0.437500
vt 0.281250 0.437500
f 65/65/2 68/68/2 67/67/2 66/66/2
v 0.437500 0.687500 0.875000
v 0.437500 0.687500 0.906250
v 0.437500 0.562500 0.906250
v 0.437500 0.562500 0.875000
vt 0.343750 0.500000
vt 0.359375 0.500000
vt 0.359375 0.437500
vt 0.343750 0.437500
f 69/69/3 72/72/3 71/71/3 70/70/3
v 0.562500 0.687500 0.906250
v 0.562500 0.687500 0.875000
v 0.562500 0.562500 0.875000
v 0.562500 0.562500 0.906250
vt 0.343750 0.500000
vt 0.359375 0.500000
vt 0.359375 0.437500
vt 0.343750 0.437500
f 73/73/4 76/76/4 75/75/4 74/74/4
v 0.437500 0.687500 0.875000
v 0.562500 0.687500 0.875000
v 0.562500 0.687500 0.906250
v 0.437500 0.687500 0.906250
vt 0.359375 0.500000
vt 0.390625 0.500000
vt 0.390625 0.468750
vt 0.359375 0.468750
f 77/77/5 80/80/5 79/79/5 78/78/5
v 0.437500 0.562500 0.906250
v 0.562500 0.562500 0.906250
v 0.562500 0.562500 0.875000
v 0.437500 0.562500 0.875000
vt 0.359375 0.500000
vt 0.390625 0.500000
vt 0.390625 0.468750
vt 0.359375 0.468750
f 81/81/6 84/84/6 83/83/6 82/82/6
v 0.125000 0.687500 0.437500
v 0.093750 0.687500 0.437500
v 0.093750 0.562500 0.437500
v 0.125000 0.562500 0.437500
vt 0.343750 0.500000
vt 0.359375 0.500000
vt 0.359375 0.437500
vt 0.343750 0.437500
f 85/85/1 88/88/1 87/87/1 86/86/1
v 0.093750 0.687500 0.562500
v 0.125000 0.687500 0.562500
v 0.125000 0.562500 0.562500
v 0.093750 0.562500 0.562500
vt 0.343750 0.500000
vt 0.359375 0.500000
vt 0.359375 0.437500
vt 0.343750 0.437500
f 89/89/2 92/92/2 91/91/2 90/90/2
v 0.093750 0.687500 0.437500
v 0.093750 0.687500 0.562500
v 0.093750 0.562500 0.562500
v 0.093750 0.562500 0.437500
vt 0.281250 0.500000
vt 0.312500 0.500000
vt 0.312500 0.437500
vt 0.281250 0.437500
f 93/93/3 96/96/3 95/95/3 94/94/3
v 0.093750 0.687500 0.437500
v 0.125000 0.687500 0.437500
v 0.125000 0.687500 0.562500
v 0.093750 0.687500 0.562500
vt 0.343750 0.500000
vt 0.359375 0.500000
vt 0.359375 0.437500
vt 0.343750 0.437500
f 97/97/5 100/100/5 99/99/5 98/98/5
v 0.093750 0.562500 0.562500
v 0.125000 0.562500 0.562500
v 0.125000 0.562500 0.437500
v 0.093750 0.562500 0.437500
vt 0.343750 0.500000
vt 0.359375 0.500000
vt 0.359375 0.437500
vt 0.343750 0.437500
f 101/101/6 104/104/6 103/103/6 102/102/6
v 0.906250 0.687500 0.437500
v 0.875000 0.687500 0.437500
v 0.875000 0.562500 0.437500
v 0.906250 0.562500 0.437500
vt 0.343750 0.500000
vt 0.359375 0.500000
vt 0.359375 0.437500
vt 0.343750 0.437500
f 105/105/1 108/108/1 107/107/1 106/106/1
v 0.875000 0.687500 0.562500
v 0.906250 0.687500 0.562500
v 0.906250 0.562500 0.562500
v 0.875000 0.562500 0.562500
vt 0.343750 0.500000
vt 0.359375 0.500000
vt 0.359375 0.437500
vt 0.343750 0.437500
f 109/109/2 112/112/2 111/111/2 110/110/2
v 0.906250 0.687500 0.562500
v 0.906250 0.687500 0.437500
v 0.906250 0.562500 0.437500
v 0.906250 0.562500 0.562500
vt 0.281250 0.500000
vt 0.312500 0.500000
vt 0.312500 0.437500
vt 0.281250 0.437500
f 113/113/4 116/116/4 115/115/4 114/114/4
v 0.875000 0.687500 0.437500
v 0.906250 0.687500 0.437500
v 0.906250 0.687500 0.562500
v 0.875000 0.687500 0.562500
vt 0.343750 0.500000
vt 0.359375 0.500000
vt 0.359375 0.437500
vt 0.343750 0.437500
f 117/117/5 120/120/5 119/119/5 118/118/5
v 0.875000 0.562500 0.562500
v 0.906250 0.562500 0.562500
v 0.906250 0.562500 0.437500
v 0.875000 0.562500 0.437500
vt 0.343750 0.500000
vt 0.359375 0.500000
vt 0.359375 0.437500
vt 0.343750 0.437500
f 121/121/6 124/124/6 123/123/6 122/122/6
v 0.312500 0.500000 0.187500
v 0.187500 0.500000 0.187500
v 0.187500 0.375000 0.187500
v 0.312500 0.375000 0.187500
vt 0.312500 0.500000
vt 0.343750 0.500000
vt 0.343750 0.437500
vt 0.312500 0.437500
f 125/125/1 128/128/1 127/127/1 126/126/1
v 0.187500 0.500000 0.312500
v 0.312500 0.500000 0.312500
v 0.312500 0.375000 0.312500
v 0.187500 0.375000 0.312500
vt 0.312500 0.500000
vt 0.343750 0.500000
vt 0.343750 0.437500
vt 0.312500 0.437500
f 129/129/2 132/132/2 131/131/2 130/130/2
v 0.187500 0.500000 0.187500
v 0.187500 0.500000 0.312500
v 0.187500 0.375000 0.312500
v 0.187500 0.375000 0.187500
vt 0.312500 0.500000
vt 0.343750 0.500000
vt 0.343750 0.437500
vt 0.312500 0.437500
f 133/133/3 136/136/3 135/135/3 134/134/3
v 0.312500 0.500000 0.312500
v 0.312500 0.500000 0.187500
v 0.312500 0.375000 0.187500
v 0.312500 0.375000 0.312500
vt 0.312500 0.500000
vt 0.343750 0.500000
vt 0.343750 0.437500
vt 0.312500 0.437500
f 137/137/4 140/140/4 139/139/4 138/138/4
v 0.187500 0.375000 0.312500
v 0.312500 0.375000 0.312500
v 0.312500 0.375000 0.187500
v 0.187500 0.375000 0.187500
vt 0.312500 0.500000
vt 0.343750 0.500000
vt 0.343750 0.437500
vt 0.312500 0.437500
f 141/141/6 144/144/6 143/143/6 142/142/6
v 0.375000 0.375000 0.125000
v 0.125000 0.375000 0.125000
v 0.125000 0.187500 0.125000
v 0.375000 0.187500 0.125000
vt 0.937500 1.000000
vt 1.000000 1.000000
vt 1.000000 0.906250
vt 0.937500 0.906250
f 145/145/1 148/148/1 147/147/1 146/146/1
v 0.125000 0.375000 0.375000
v 0.375000 0.375000 0.375000
v 0.375000 0.187500 0.375000
v 0.125000 0.187500 0.375000
vt 0.937500 1.000000
vt 1.000000 1.000000
vt 1.000000 0.906250
vt 0.937500 0.906250
f 149/149/2 152/152/2 151/151/2 150/150/2
v 0.125000 0.375000 0.125000
v 0.125000 0.375000 0.375000
v 0.125000 0.187500 0.375000
v 0.125000 0.187500 0.125000
vt 0.937500 1.000000
vt 1.000000 1.000000
vt 1.000000 0.906250
vt 0.937500 0.906250
f 153/153/3 156/156/3 155/155/3 154/154/3
v 0.375000 0.375000 0.375000
v 0.375000 0.375000 0.125000
v 0.375000 0.187500 0.125000
v 0.375000 0.187500 0.375000
vt 0.937500 1.000000
vt 1.000000 1.000000
vt 1.000000 0.906250
vt 0.937500 0.906250
f 157/157/4 160/160/4 159/159/4 158/158/4
v 0.125000 0.375000 0.125000
v 0.375000 0.375000 0.125000
v 0.375000 0.375000 0.375000
v 0.125000 0.375000 0.375000
vt 0.875000 1.000000
vt 0.937500 1.000000
vt 0.937500 0.875000
vt 0.875000 0.875000
f 161/161/5 164/164/5 163/163/5 162/162/5
v 0.125000 0.187500 0.375000
v 0.375000 0.187500 0.375000
v 0.375000 0.187500 0.125000
v 0.125000 0.187500 0.125000
vt 0.875000 1.000000
vt 0.937500 1.000000
vt 0.937500 0.875000
vt 0.875000 0.875000
f 165/165/6 168/168/6 167/167/6 166/166/6
v 0.437500 0.187500 0.062500
v 0.062500 0.187500 0.062500
v 0.062500 0.000000 0.062500
v 0.437500 0.000000 0.062500
vt 0.187500 0.500000
vt 0.281250 0.500000
vt 0.281250 0.406250
vt 0.187500 0.406250
f 169/169/1 172/172/1 171/171/1 170/170/1
v 0.062500 0.187500 0.437500
v 0.437500 0.187500 0.437500
v 0.437500 0.000000 0.437500
v 0.062500 0.000000 0.437500
vt 0.187500 0.500000
vt 0.281250 0.500000
vt 0.281250 0.406250
vt 0.187500 0.406250
f 173/173/2 176/176/2 175/175/2 174/174/2
v 0.062500 0.187500 0.062500
v 0.062500 0.187500 0.437500
v 0.062500 0.000000 0.437500
v 0.062500 0.000000 0.062500
vt 0.187500 0.500000
vt 0.281250 0.500000
vt 0.281250 0.406250
vt 0.187500 0.406250
f 177/177/3 180/180/3 179/179/3 178/178/3
v 0.437500 0.187500 0.437500
v 0.437500 0.187500 0.062500
v 0.437500 0.000000 0.062500
v 0.437500 0.000000 0.437500
vt 0.187500 0.500000
vt 0.281250 0.500000
vt 0.281250 0.406250
vt 0.187500 0.406250
f 181/181/4 184/184/4 183/183/4 182/182/4
v 0.062500 0.187500 0.062500
v 0.437500 0.187500 0.062500
v 0.437500 0.187500 0.437500
v 0.062500 0.187500 0.437500
vt 0.437500 1.000000
vt 0.531250 1.000000
vt 0.531250 0.812500
vt 0.437500 0.812500
f 185/185/5 188/188/5 187/187/5 186/186/5
v 0.062500 0.000000 0.437500
v 0.437500 0.000000 0.437500
v 0.437500 0.000000 0.062500
v 0.062500 0.000000 0.062500
vt 0.531250 1.000000
vt 0.625000 1.000000
vt 0.625000 0.812500
vt 0.531250 0.812500
f 189/189/6 192/192/6 191/191/6 190/190/6
v 0.812500 0.500000 0.187500
v 0.687500 0.500000 0.187500
v 0.687500 0.375000 0.187500
v 0.812500 0.375000 0.187500
vt 0.312500 0.500000
vt 0.343750 0.500000
vt 0.343750 0.437500
vt 0.312500 0.437500
f 193/193/1 196/196/1 195/195/1 194/194/1
v 0.687500 0.500000 0.312500
v 0.812500 0.500000 0.312500
v 0.812500 0.375000 0.312500
v 0.687500 0.375000 0.312500
vt 0.312500 0.500000
vt 0.343750 0.500000
vt 0.343750 0.437500
vt 0.312500 0.437500
f 197/197/2 200/200/2 199/199/2 198/198/2
v 0.687500 0.500000 0.187500
v 0.687500 0.500000 0.312500
v 0.687500 0.375000 0.312500
v 0.687500 0.375000 0.187500
vt 0.312500 0.500000
vt 0.343750 0.500000
vt 0.343750 0.437500
vt 0.312500 0.437500
f 201/201/3 204/204/3 203/203/3 202/202/3
v 0.812500 0.500000 0.312500
v 0.812500 0.500000 0.187500
v 0.812500 0.375000 0.187500
v 0.812500 0.375000 0.312500
vt 0.312500 0.500000
vt 0.343750 0.500000
vt 0.343750 0.437500
vt 0.312500 0.437500
f 205/205/4 208/208/4 207/207/4 206/206/4
v 0.687500 0.375000 0.312500
v 0.812500 0.375000 0.312500
v 0.812500 0.375000 0.187500
v 0.687500 0.375000 0.187500
vt 0.312500 0.500000
vt 0.343750 0.500000
vt 0.343750 0.437500
vt 0.312500 0.437500
f 209/209/6 212/212/6 211/211/6 210/210/6
v 0.875000 0.375000 0.125000
v 0.625000 0.375000 0.125000
v 0.625000 0.187500 0.125000
v 0.875000 0.187500 0.125000
vt 0.937500 1.000000
vt 1.000000 1.000000
vt 1.000000 0.906250
vt 0.937500 0.906250
f 213/213/1 216/216/1 215/215/1 214/214/1
v 0.625000 0.375000 0.375000
v 0.875000 0.375000 0.375000
v 0.875000 0.187500 0.375000
v 0.625000 0.187500 0.375000
vt 0.937500 1.000000
vt 1.000000 1.000000
vt 1.000000 0.906250
vt 0.937500 0.906250
f 217/217/2 220/220/2 219/219/2 218/218/2
v 0.625000 0.375000 0.125000
v 0.625000 0.375000 0.375000
v 0.625000 0.187500 0.375000
v 0.625000 0.187500 0.125000
vt 0.937500 1.000000
vt 1.000000 1.000000
vt 1.000000 0.906250
vt 0.937500 0.906250
f 221/221/3 224/224/3 223/223/3 222/222/3
v 0.875000 0.375000 0.375000
v 0.875000 0.375000 0.125000
v 0.875000 0.187500 0.125000
v 0.875000 0.187500 0.375000
vt 0.937500 1.000000
vt 1.000000 1.000000
vt 1.000000 0.906250
vt 0.937500 0.906250
f 225/225/4 228/228/4 227/227/4 226/226/4
v 0.625000 0.375000 0.125000
v 0.875000 0.375000 0.125000
v 0.875000 0.375000 0.375000
v 0.625000 0.375000 0.375000
vt 0.875000 1.000000
vt 0.937500 1.000000
vt 0.937500 0.875000
vt 0.875000 0.875000
f 229/229/5 232/232/5 231/231/5 230/230/5
v 0.625000 0.187500 0.375000
v 0.875000 0.187500 0.375000
v 0.875000 0.187500 0.125000
v 0.625000 0.187500 0.125000
vt 0.875000 1.000000
vt 0.937500 1.000000
vt 0.937500 0.875000
vt 0.875000 0.875000
f 233/233/6 236/236/6 235/235/6 234/234/6
v 0.937500 0.187500 0.062500
v 0.562500 0.187500 0.062500
v 0.562500 0.000000 0.062500
v 0.937500 0.000000 0.062500
vt 0.187500 0.500000
vt 0.281250 0.500000
vt 0.281250 0.406250
vt 0.187500 0.406250
f 237/237/1 240/240/1 239/239/1 238/238/1
v 0.562500 0.187500 0.437500
v 0.937500 0.187500 0.437500
v 0.937500 0.000000 0.437500
v 0.562500 0.000000 0.437500
vt 0.187500 0.500000
vt 0.281250 0.500000
vt 0.281250 0.406250
vt 0.187500 0.406250
f 241/241/2 244/244/2 243/243/2 242/242/2
v 0.562500 0.187500 0.062500
v 0.562500 0.187500 0.437500
v 0.562500 0.000000 0.437500
v 0.562500 0.000000 0.062500
vt 0.187500 0.500000
vt 0.281250 0.500000
vt 0.281250 0.406250
vt 0.187500 0.406250
f 245/245/3 248/248/3 247/247/3 246/246/3
v 0.937500 0.187500 0.437500
v 0.937500 0.187500 0.062500
v 0.937500 0.000000 0.062500
v 0.937500 0.000000 0.437500
vt 0.187500 0.500000
vt 0.281250 0.500000
vt 0.281250 0.406250
vt 0.187500 0.406250
f 249/249/4 252/252/4 251/251/4 250/250/4
v 0.562500 0.187500 0.062500
v 0.937500 0.187500 0.062500
v 0.937500 0.187500 0.437500
v 0.562500 0.187500 0.437500
vt 0.437500 1.000000
vt 0.531250 1.000000
vt 0.531250 0.812500
vt 0.437500 0.812500
f 253/253/5 256/256/5 255/255/5 254/254/5
v 0.562500 0.000000 0.437500
v 0.937500 0.000000 0.437500
v 0.937500 0.000000 0.062500
v 0.562500 0.000000 0.062500
vt 0.531250 1.000000
vt 0.625000 1.000000
vt 0.625000 0.812500
vt 0.531250 0.812500
f 257/257/6 260/260/6 259/259/6 258/258/6
v 0.312500 0.500000 0.687500
v 0.187500 0.500000 0.687500
v 0.187500 0.375000 0.687500
v 0.312500 0.375000 0.687500
vt 0.312500 0.500000
vt 0.343750 0.500000
vt 0.343750 0.437500
vt 0.312500 0.437500
f 261/261/1 264/264/1 263/263/1 262/262/1
v 0.187500 0.500000 0.812500
v 0.312500 0.500000 0.812500
v 0.312500 0.375000 0.812500
v 0.187500 0.375000 0.812500
vt 0.312500 0.500000
vt 0.343750 0.500000
vt 0.343750 0.437500
vt 0.312500 0.437500
f 265/265/2 268/268/2 267/267/2 266/266/2
v 0.187500 0.500000 0.687500
v 0.187500 0.500000 0.812500
v 0.187500 0.375000 0.812500
v 0.187500 0.375000 0.687500
vt 0.312500 0.500000
vt 0.343750 0.500000
vt 0.343750 0.437500
vt 0.312500 0.437500
f 269/269/3 272/272/3 271/271/3 270/270/3
v 0.312500 0.500000 0.812500
v 0.312500 0.500000 0.687500
v 0.312500 0.375000 0.687500
v 0.312500 0.375000 0.812500
vt 0.312500 0.500000
vt 0.343750 0.500000
vt 0.343750 0.437500
vt 0.312500 0.437500
f 273/273/4 276/276/4 275/275/4 274/274/4
v 0.187500 0.375000 0.812500
v 0.312500 0.375000 0.812500
v 0.312500 0.375000 0.687500
v 0.187500 0.375000 0.687500
vt 0.312500 0.500000
vt 0.343750 0.500000
vt 0.343750 0.437500
vt 0.312500 0.437500
f 277/277/6 280/280/6 279/279/6 278/278/6
v 0.375000 0.375000 0.625000
v 0.125000 0.375000 0.625000
v 0.125000 0.187500 0.625000
v 0.375000 0.187500 0.625000
vt 0.937500 1.000000
vt 1.000000 1.000000
vt 1.000000 0.906250
vt 0.937500 0.906250
f 281/281/1 284/284/1 283/283/1 282/282/1
v 0.125000 0.375000 0.875000
v 0.375000 0.375000 0.875000
v 0.375000 0.187500 0.875000
v 0.125000 0.187500 0.875000
vt 0.937500 1.000000
vt 1.000000 1.000000
vt 1.000000 0.906250
vt 0.937500 0.906250
f 285/285/2 288/288/2 287/287/2 286/286/2
v 0.125000 0.375000 0.625000
v 0.125000 0.375000 0.875000
v 0.125000 0.187500 0.875000
v 0.125000 0.187500 0.625000
vt 0.937500 1.000000
vt 1.000000 1.000000
vt 1.000000 0.906250
vt 0.937500 0.906250
f 289/289/3 292/292/3 291/291/3 290/290/3
v 0.375000 0.375000 0.875000
v 0.375000 0.375000 0.625000
v 0.375000 0.187500 0.625000
v 0.375000 0.187500 0.875000
vt 0.937500 1.000000
vt 1.000000 1.000000
vt 1.000000 0.906250
vt 0.937500 0.906250
f 293/293/4 296/296/4 295/295/4 294/294/4
v 0.125000 0.375000 0.625000
v 0.375000 0.375000 0.625000
v 0.375000 0.375000 0.875000
v 0.125000 0.375000 0.875000
vt 0.875000 1.000000
vt 0.937500 1.000000
vt 0.937500 0.875000
vt 0.875000 0.875000
f 297/297/5 300/300/5 299/299/5 298/298/5
v 0.125000 0.187500 0.875000
v 0.375000 0.187500 0.875000
v 0.375000 0.187500 0.625000
v 0.125000 0.187500 0.625000
vt 0.875000 1.000000
vt 0.937500 1.000000
vt 0.937500 0.875000
vt 0.875000 0.875000
f 301/301/6 304/304/6 303/303/6 302/302/6
v 0.437500 0.187500 0.562500
v 0.062500 0.187500 0.562500
v 0.062500 0.000000 0.562500
v 0.437500 0.000000 0.562500
vt 0.187500 0.500000
vt 0.281250 0.500000
vt 0.281250 0.406250
vt 0.187500 0.406250
f 305/305/1 308/308/1 307/307/1 306/306/1
v 0.062500 0.187500 0.937500
v 0.437500 0.187500 0.937500
v 0.437500 0.000000 0.937500
v 0.062500 0.000000 0.937500
vt 0.187500 0.500000
vt 0.281250 0.500000
vt 0.281250 0.406250
vt 0.187500 0.406250
f 309/309/2 312/312/2 311/311/2 310/310/2
v 0.062500 0.187500 0.562500
v 0.062500 0.187500 0.937500
v 0.062500 0.000000 0.937500
v 0.062500 0.000000 0.562500
vt 0.187500 0.500000
vt 0.281250 0.500000
vt 0.281250 0.406250
vt 0.187500 0.406250
f 313/313/3 316/316/3 315/315/3 314/314/3
v 0.437500 0.187500 0.937500
v 0.437500 0.187500 0.562500
v 0.437500 0.000000 0.562500
v 0.437500 0.000000 0.937500
vt 0.187500 0.500000
vt 0.281250 0.500000
vt 0.281250 0.406250
vt 0.187500 0.406250
f 317/317/4 320/320/4 319/319/4 318/318/4
v 0.062500 0.187500 0.562500
v 0.437500 0.187500 0.562500
v 0.437500 0.187500 0.937500
v 0.062500 0.187500 0.937500
vt 0.437500 1.000000
vt 0.531250 1.000000
vt 0.531250 0.812500
vt 0.437500 0.812500
f 321/321/5 324/324/5 323/323/5 322/322/5
v 0.062500 0.000000 0.937500
v 0.437500 0.000000 0.937500
v 0.437500 0.000000 0.562500
v 0.062500 0.000000 0.562500
vt 0.531250 1.000000
vt 0.625000 1.000000
vt 0.625000 0.812500
vt 0.531250 0.812500
f 325/325/6 328/328/6 327/327/6 326/326/6
v 0.812500 0.500000 0.687500
v 0.687500 0.500000 0.687500
v 0.687500 0.375000 0.687500
v 0.812500 0.375000 0.687500
vt 0.312500 0.500000
vt 0.343750 0.500000
vt 0.343750 0.437500
vt 0.312500 0.437500
f 329/329/1 332/332/1 331/331/1 330/330/1
v 0.687500 0.500000 0.812500
v 0.812500 0.500000 0.812500
v 0.812500 0.375000 0.812500
v 0.687500 0.375000 0.812500
vt 0.312500 0.500000
vt 0.343750 0.500000
vt 0.343750 0.437500
vt 0.312500 0.437500
f 333/333/2 336/336/2 335/335/2 334/334/2
v 0.687500 0.500000 0.687500
v 0.687500 0.500000 0.812500
v 0.687500 0.375000 0.812500
v 0.687500 0.375000 0.687500
vt 0.312500 0.500000
vt 0.343750 0.500000
vt 0.343750 0.437500
vt 0.312500 0.437500
f 337/337/3 340/340/3 339/339/3 338/338/3
v 0.812500 0.500000 0.812500
v 0.812500 0.500000 0.687500
v 0.812500 0.375000 0.687500
v 0.812500 0.375000 0.812500
vt 0.312500 0.500000
vt 0.343750 0.500000
vt 0.343750 0.437500
vt 0.312500 0.437500
f 341/341/4 344/344/4 343/343/4 342/342/4
v 0.687500 0.375000 0.812500
v 0.812500 0.375000 0.812500
v 0.812500 0.375000 0.687500
v 0.687500 0.375000 0.687500
vt 0.312500 0.500000
vt 0.343750 0.500000
vt 0.343750 0.437500
vt 0.312500 0.437500
f 345/345/6 348/348/6 347/347/6 346/346/6
v 0.875000 0.375000 0.625000
v 0.625000 0.375000 0.625000
v 0.625000 0.187500 0.625000
v 0.875000 0.187500 0.625000
vt 0.937500 1.000000
vt 1.000000 1.000000
vt 1.000000 0.906250
vt 0.937500 0.906250
f 349/349/1 352/352/1 351/351/1 350/350/1
v 0.625000 0.375000 0.875000
v 0.875000 0.375000 0.875000
v 0.875000 0.187500 0.875000
v 0.625000 0.187500 0.875000
vt 0.937500 1.000000
vt 1.000000 1.000000
vt 1.000000 0.906250
vt 0.937500 0.906250
f 353/353/2 356/356/2 355/355/2 354/354/2
v 0.625000 0.375000 0.625000
v 0.625000 0.375000 0.875000
v 0.625000 0.187500 0.875000
v 0.625000 0.187500 0.625000
vt 0.937500 1.000000
vt 1.000000 1.000000
vt 1.000000 0.906250
vt 0.937500 0.906250
f 357/357/3 360/360/3 359/359/3 358/358/3
v 0.875000 0.375000 0.875000
v 0.875000 0.375000 0.625000
v 0.875000 0.187500 0.625000
v 0.875000 0.187500 0.875000
vt 0.937500 1.000000
vt 1.000000 1.000000
vt 1.000000 0.906250
vt 0.937500 0.906250
f 361/361/4 364/364/4 363/363/4 362/362/4
v 0.625000 0.375000 0.625000
v 0.875000 0.375000 0.625000
v 0.875000 0.375000 0.875000
v 0.625000 0.375000 0.875000
vt 0.875000 1.000000
vt 0.937500 1.000000
vt 0.937500 0.875000
vt 0.875000 0.875000
f 365/365/5 368/368/5 367/367/5 366/366/5
v 0.625000 0.187500 0.875000
v 0.875000 0.187500 0.875000
v 0.875000 0.187500 0.625000
v 0.625000 0.187500 0.625000
vt 0.875000 1.000000
vt 0.937500 1.000000
vt 0.937500 0.875000
vt 0.875000 0.875000
f 369/369/6 372/372/6 371/371/6 370/370/6
v 0.937500 0.187500 0.562500
v 0.562500 0.187500 0.562500
v 0.562500 0.000000 0.562500
v 0.937500 0.000000 0.562500
vt 0.187500 0.500000
vt 0.281250 0.500000
vt 0.281250 0.406250
vt 0.187500 0.406250
f 373/373/1 376/376/1 375/375/1 374/374/1
v 0.562500 0.187500 0.937500
v 0.937500 0.187500 0.937500
v 0.937500 0.000000 0.937500
v 0.562500 0.000000 0.937500
vt 0.187500 0.500000
vt 0.281250 0.500000
vt 0.281250 0.406250
vt 0.187500 0.406250
f 377/377/2 380/380/2 379/379/2 378/378/2
v 0.562500 0.187500 0.562500
v 0.562500 0.187500 0.937500
v 0.562500 0.000000 0.937500
v 0.562500 0.000000 0.562500
vt 0.187500 0.500000
vt 0.281250 0.500000
vt 0.281250 0.406250
vt 0.187500 0.406250
f 381/381/3 384/384/3 383/383/3 382/382/3
v 0.937500 0.187500 0.937500
v 0.937500 0.187500 0.562500
v 0.937500 0.000000 0.562500
v 0.937500 0.000000 0.937500
vt 0.187500 0.500000
vt 0.281250 0.500000
vt 0.281250 0.406250
vt 0.187500 0.406250
f 385/385/4 388/388/4 387/387/4 386/386/4
v 0.562500 0.187500 0.562500
v 0.937500 0.187500 0.562500
v 0.937500 0.187500 0.937500
v 0.562500 0.187500 0.937500
vt 0.437500 1.000000
vt 0.531250 1.000000
vt 0.531250 0.812500
vt 0.437500 0.812500
f 389/389/5 392/392/5 391/391/5 390/390/5
v 0.562500 0.000000 0.937500
v 0.937500 0.000000 0.937500
v 0.937500 0.000000 0.562500
v 0.562500 0.000000 0.562500
vt 0.531250 1.000000
vt 0.625000 1.000000
vt 0.625000 0.812500
vt 0.531250 0.812500
f 393/393/6 396/396/6 395/395/6 394/394/6
