# advrocketmotor generated by machinegen.py
mtllib advrocketmotor.mtl
usemtl advrocketmotor
vn 0 0 -1
vn 0 0 1
vn -1 0 0
vn 1 0 0
vn 0 1 0
vn 0 -1 0
o Material
v 1.000000 1.000000 0.000000
v 0.000000 1.000000 0.000000
v 0.000000 0.750000 0.000000
v 1.000000 0.750000 0.000000
vt 0.546875 0.500000
vt 0.796875 0.500000
vt 0.796875 0.375000
vt 0.546875 0.375000
f 1/1/1 4/4/1 3/3/1 2/2/1
v 0.000000 1.000000 1.000000
v 1.000000 1.000000 1.000000
v 1.000000 0.750000 1.000000
v 0.000000 0.750000 1.000000
vt 0.546875 0.500000
vt 0.796875 0.500000
vt 0.796875 0.375000
vt 0.546875 0.375000
f 5/5/2 8/8/2 7/7/2 6/6/2
v 0.000000 1.000000 0.000000
v 0.000000 1.000000 1.000000
v 0.000000 0.750000 1.000000
v 0.000000 0.750000 0.000000
vt 0.546875 0.500000
vt 0.796875 0.500000
vt 0.796875 0.375000
vt 0.546875 0.375000
f 9/9/3 12/12/3 11/11/3 10/10/3
v 1.000000 1.000000 1.000000
v 1.000000 1.000000 0.000000
v 1.000000 0.750000 0.000000
v 1.000000 0.750000 1.000000
vt 0.546875 0.500000
vt 0.796875 0.500000
vt 0.796875 0.375000
vt 0.546875 0.375000
f 13/13/4 16/16/4 15/15/4 14/14/4
v 0.000000 1.000000 0.000000
v 1.000000 1.000000 0.000000
v 1.000000 1.000000 1.000000
v 0.000000 1.000000 1.000000
vt 0.000000 1.000000
vt 0.250000 1.000000
vt 0.250000 0.500000
vt 0.000000 0.500000
f 17/17/5 20/20/5 19/19/5 18/18/5
v 0.000000 0.750000 1.000000
v 1.000000 0.750000 1.000000
v 1.000000 0.750000 0.000000
v 0.000000 0.750000 0.000000
vt 0.000000 1.000000
vt 0.250000 1.000000
vt 0.250000 0.500000
vt 0.000000 0.500000
f 21/21/6 24/24/6 23/23/6 22/22/6
v 0.875000 0.750000 0.125000
v 0.125000 0.750000 0.125000
v 0.125000 0.625000 0.125000
v 0.875000 0.625000 0.125000
vt 0.218750 0.125000
vt 0.406250 0.125000
vt 0.406250 0.062500
vt 0.218750 0.062500
f 25/25/1 28/28/1 27/27/1 26/26/1
v 0.125000 0.750000 0.875000
v 0.875000 0.750000 0.875000
v 0.875000 0.625000 0.875000
v 0.125000 0.625000 0.875000
vt 0.218750 0.125000
vt 0.406250 0.125000
vt 0.406250 0.062500
vt 0.218750 0.062500
f 29/29/2 32/32/2 31/31/2 30/30/2
v 0.125000 0.750000 0.125000
v 0.125000 0.750000 0.875000
v 0.125000 0.625000 0.875000
v 0.125000 0.625000 0.125000
vt 0.218750 0.125000
vt 0.406250 0.125000
vt 0.406250 0.062500
vt 0.218750 0.062500
f 33/33/3 36/36/3 35/35/3 34/34/3
v 0.875000 0.750000 0.875000
v 0.875000 0.750000 0.125000
v 0.875000 0.625000 0.125000
v 0.875000 0.625000 0.875000
vt 0.218750 0.125000
vt 0.406250 0.125000
vt 0.406250 0.062500
vt 0.218750 0.062500
f 37/37/4 40/40/4 39/39/4 38/38/4
v 0.125000 0.625000 0.875000
v 0.875000 0.625000 0.875000
v 0.875000 0.625000 0.125000
v 0.125000 0.625000 0.125000
vt 0.687500 1.000000
vt 0.875000 1.000000
vt 0.875000 0.625000
vt 0.687500 0.625000
f 41/41/6 44/44/6 43/43/6 42/42/6
v 0.687500 0.625000 0.312500
v 0.312500 0.625000 0.312500
v 0.312500 0.500000 0.312500
v 0.687500 0.500000 0.312500
vt 0.890625 0.500000
vt 0.984375 0.500000
vt 0.984375 0.437500
vt 0.890625 0.437500
f 45/45/1 48/48/1 47/47/1 46/46/1
v 0.312500 0.625000 0.687500
v 0.687500 0.625000 0.687500
v 0.687500 0.500000 0.687500
v 0.312500 0.500000 0.687500
vt 0.890625 0.500000
vt 0.984375 0.500000
vt 0.984375 0.437500
vt 0.890625 0.437500
f 49/49/2 52/52/2 51/51/2 50/50/2
v 0.312500 0.625000 0.312500
v 0.312500 0.625000 0.687500
v 0.312500 0.500000 0.687500
v 0.312500 0.500000 0.312500
vt 0.890625 0.500000
vt 0.984375 0.500000
vt 0.984375 0.437500
vt 0.890625 0.437500
f 53/53/3 56/56/3 55/55/3 54/54/3
v 0.687500 0.625000 0.687500
v 0.687500 0.625000 0.312500
v 0.687500 0.500000 0.312500
v 0.687500 0.500000 0.687500
vt 0.890625 0.500000
vt 0.984375 0.500000
vt 0.984375 0.437500
vt 0.890625 0.437500
f 57/57/4 60/60/4 59/59/4 58/58/4
v 0.312500 0.625000 0.312500
v 0.687500 0.625000 0.312500
v 0.687500 0.625000 0.687500
v 0.312500 0.625000 0.687500
vt 0.343750 0.500000
vt 0.437500 0.500000
vt 0.437500 0.312500
vt 0.343750 0.312500
f 61/61/5 64/64/5 63/63/5 62/62/5
v 0.312500 0.500000 0.687500
v 0.687500 0.500000 0.687500
v 0.687500 0.500000 0.312500
v 0.312500 0.500000 0.312500
vt 0.343750 0.500000
vt 0.437500 0.500000
vt 0.437500 0.312500
vt 0.343750 0.312500
f 65/65/6 68/68/6 67/67/6 66/66/6
v 0.750000 0.500000 0.250000
v 0.250000 0.500000 0.250000
v 0.250000 0.375000 0.250000
v 0.750000 0.375000 0.250000
vt 0.750000 0.125000
vt 0.875000 0.125000
vt 0.875000 0.062500
vt 0.750000 0.062500
f 69/69/1 72/72/1 71/71/1 70/70/1
v 0.250000 0.500000 0.750000
v 0.750000 0.500000 0.750000
v 0.750000 0.375000 0.750000
v 0.250000 0.375000 0.750000
vt 0.750000 0.125000
vt 0.875000 0.125000
vt 0.875000 0.062500
vt 0.750000 0.062500
f 73/73/2 76/76/2 75/75/2 74/74/2
v 0.250000 0.500000 0.250000
v 0.250000 0.500000 0.750000
v 0.250000 0.375000 0.750000
v 0.250000 0.375000 0.250000
vt 0.750000 0.125000
vt 0.875000 0.125000
vt 0.875000 0.062500
vt 0.750000 0.062500
f 77/77/3 80/80/3 79/79/3 78/78/3
v 0.750000 0.500000 0.750000
v 0.750000 0.500000 0.250000
v 0.750000 0.375000 0.250000
v 0.750000 0.375000 0.750000
vt 0.750000 0.125000
vt 0.875000 0.125000
vt 0.875000 0.062500
vt 0.750000 0.062500
f 81/81/4 84/84/4 83/83/4 82/82/4
v 0.250000 0.500000 0.250000
v 0.750000 0.500000 0.250000
v 0.750000 0.500000 0.750000
v 0.250000 0.500000 0.750000
vt 0.875000 1.000000
vt 1.000000 1.000000
vt 1.000000 0.750000
vt 0.875000 0.750000
f 85/85/5 88/88/5 87/87/5 86/86/5
v 0.250000 0.375000 0.750000
v 0.750000 0.375000 0.750000
v 0.750000 0.375000 0.250000
v 0.250000 0.375000 0.250000
vt 0.875000 1.000000
vt 1.000000 1.000000
vt 1.000000 0.750000
vt 0.875000 0.750000
f 89/89/6 92/92/6 91/91/6 90/90/6
v 0.812500 0.375000 0.187500
v 0.187500 0.375000 0.187500
v 0.187500 0.250000 0.187500
v 0.812500 0.250000 0.187500
vt 0.593750 0.125000
vt 0.750000 0.125000
vt 0.750000 0.062500
vt 0.593750 0.062500
f 93/93/1 96/96/1 95/95/1 94/94/1
v 0.187500 0.375000 0.812500
v 0.812500 0.375000 0.812500
v 0.812500 0.250000 0.812500
v 0.187500 0.250000 0.812500
vt 0.593750 0.125000
vt 0.750000 0.125000
vt 0.750000 0.062500
vt 0.593750 0.062500
f 97/97/2 100/100/2 99/99/2 98/98/2
v 0.187500 0.375000 0.187500
v 0.187500 0.375000 0.812500
v 0.187500 0.250000 0.812500
v 0.187500 0.250000 0.187500
vt 0.593750 0.125000
vt 0.750000 0.125000
vt 0.750000 0.062500
vt 0.593750 0.062500
f 101/101/3 104/104/3 103/103/3 102/102/3
v 0.812500 0.375000 0.812500
v 0.812500 0.375000 0.187500
v 0.812500 0.250000 0.187500
v 0.812500 0.250000 0.812500
vt 0.593750 0.125000
vt 0.750000 0.125000
vt 0.750000 0.062500
vt 0.593750 0.062500
f 105/105/4 108/108/4 107/107/4 106/106/4
v 0.187500 0.375000 0.187500
v 0.812500 0.375000 0.187500
v 0.812500 0.375000 0.812500
v 0.187500 0.375000 0.812500
vt 0.187500 0.500000
vt 0.343750 0.500000
vt 0.343750 0.187500
vt 0.187500 0.187500
f 109/109/5 112/112/5 111/111/5 110/110/5
v 0.187500 0.250000 0.812500
v 0.812500 0.250000 0.812500
v 0.812500 0.250000 0.187500
v 0.187500 0.250000 0.187500
vt 0.187500 0.500000
vt 0.343750 0.500000
vt 0.343750 0.187500
vt 0.187500 0.187500
f 113/113/6 116/116/6 115/115/6 114/114/6
v 0.875000 0.250000 0.125000
v 0.125000 0.250000 0.125000
v 0.125000 0.125000 0.125000
v 0.875000 0.125000 0.125000
vt 0.406250 0.125000
vt 0.593750 0.125000
vt 0.593750 0.062500
vt 0.406250 0.062500
f 117/117/1 120/120/1 119/119/1 118/118/1
v 0.125000 0.250000 0.875000
v 0.875000 0.250000 0.875000
v 0.875000 0.125000 0.875000
v 0.125000 0.125000 0.875000
vt 0.406250 0.125000
vt 0.593750 0.125000
vt 0.593750 0.062500
vt 0.406250 0.062500
f 121/121/2 124/124/2 123/123/2 122/122/2
v 0.125000 0.250000 0.125000
v 0.125000 0.250000 0.875000
v 0.125000 0.125000 0.875000
v 0.125000 0.125000 0.125000
vt 0.406250 0.125000
vt 0.593750 0.125000
vt 0.593750 0.062500
vt 0.406250 0.062500
f 125/125/3 128/128/3 127/127/3 126/126/3
v 0.875000 0.250000 0.875000
v 0.875000 0.250000 0.125000
v 0.875000 0.125000 0.125000
v 0.875000 0.125000 0.875000
vt 0.406250 0.125000
vt 0.593750 0.125000
vt 0.593750 0.062500
vt 0.406250 0.062500
f 129/129/4 132/132/4 131/131/4 130/130/4
v 0.125000 0.250000 0.125000
v 0.875000 0.250000 0.125000
v 0.875000 0.250000 0.875000
v 0.125000 0.250000 0.875000
vt 0.000000 0.500000
vt 0.187500 0.500000
vt 0.187500 0.125000
vt 0.000000 0.125000
f 133/133/5 136/136/5 135/135/5 134/134/5
v 0.125000 0.125000 0.875000
v 0.875000 0.125000 0.875000
v 0.875000 0.125000 0.125000
v 0.125000 0.125000 0.125000
vt 0.000000 0.500000
vt 0.187500 0.500000
vt 0.187500 0.125000
vt 0.000000 0.125000
f 137/137/6 140/140/6 139/139/6 138/138/6
v 0.937500 0.125000 0.062500
v 0.062500 0.125000 0.062500
v 0.062500 0.000000 0.062500
v 0.937500 0.000000 0.062500
vt 0.000000 0.125000
vt 0.218750 0.125000
vt 0.218750 0.062500
vt 0.000000 0.062500
f 141/141/1 144/144/1 143/143/1 142/142/1
v 0.062500 0.125000 0.937500
v 0.937500 0.125000 0.937500
v 0.937500 0.000000 0.937500
v 0.062500 0.000000 0.937500
vt 0.000000 0.125000
vt 0.218750 0.125000
vt 0.218750 0.062500
vt 0.000000 0.062500
f 145/145/2 148/148/2 147/147/2 146/146/2
v 0.062500 0.125000 0.062500
v 0.062500 0.125000 0.937500
v 0.062500 0.000000 0.937500
v 0.062500 0.000000 0.062500
vt 0.000000 0.125000
vt 0.218750 0.125000
vt 0.218750 0.062500
vt 0.000000 0.062500
f 149/149/3 152/152/3 151/151/3 150/150/3
v 0.937500 0.125000 0.937500
v 0.937500 0.125000 0.062500
v 0.937500 0.000000 0.062500
v 0.937500 0.000000 0.937500
vt 0.000000 0.125000
vt 0.218750 0.125000
vt 0.218750 0.062500
vt 0.000000 0.062500
f 153/153/4 156/156/4 155/155/4 154/154/4
v 0.062500 0.125000 0.062500
v 0.937500 0.125000 0.062500
v 0.937500 0.125000 0.937500
v 0.062500 0.125000 0.937500
vt 0.250000 1.000000
vt 0.468750 1.000000
vt 0.468750 0.562500
vt 0.250000 0.562500
f 157/157/5 160/160/5 159/159/5 158/158/5
v 0.062500 0.000000 0.937500
v 0.937500 0.000000 0.937500
v 0.937500 0.000000 0.062500
v 0.062500 0.000000 0.062500
vt 0.468750 1.000000
vt 0.687500 1.000000
vt 0.687500 0.562500
vt 0.468750 0.562500
f 161/161/6 164/164/6 163/163/6 162/162/6
v 0.187500 0.687500 0.375000
v 0.000000 0.687500 0.375000
v 0.000000 0.375000 0.375000
v 0.187500 0.375000 0.375000
vt 0.500000 0.500000
vt 0.546875 0.500000
vt 0.546875 0.343750
vt 0.500000 0.343750
f 165/165/1 168/168/1 167/167/1 166/166/1
v 0.000000 0.687500 0.625000
v 0.187500 0.687500 0.625000
v 0.187500 0.375000 0.625000
v 0.000000 0.375000 0.625000
vt 0.500000 0.500000
vt 0.546875 0.500000
vt 0.546875 0.343750
vt 0.500000 0.343750
f 169/169/2 172/172/2 171/171/2 170/170/2
v 0.000000 0.687500 0.375000
v 0.000000 0.687500 0.625000
v 0.000000 0.375000 0.625000
v 0.000000 0.375000 0.375000
vt 0.437500 0.500000
vt 0.500000 0.500000
vt 0.500000 0.343750
vt 0.437500 0.343750
f 173/173/3 176/176/3 175/175/3 174/174/3
v 0.187500 0.687500 0.625000
v 0.187500 0.687500 0.375000
v 0.187500 0.375000 0.375000
v 0.187500 0.375000 0.625000
vt 0.437500 0.500000
vt 0.500000 0.500000
vt 0.500000 0.343750
vt 0.437500 0.343750
f 177/177/4 180/180/4 179/179/4 178/178/4
v 0.000000 0.687500 0.375000
v 0.187500 0.687500 0.375000
v 0.187500 0.687500 0.625000
v 0.000000 0.687500 0.625000
vt 0.796875 0.500000
vt 0.843750 0.500000
vt 0.843750 0.375000
vt 0.796875 0.375000
f 181/181/5 184/184/5 183/183/5 182/182/5
v 0.000000 0.375000 0.625000
v 0.187500 0.375000 0.625000
v 0.187500 0.375000 0.375000
v 0.000000 0.375000 0.375000
vt 0.843750 0.500000
vt 0.890625 0.500000
vt 0.890625 0.375000
vt 0.843750 0.375000
f 185/185/6 188/188/6 187/187/6 186/186/6
v 1.000000 0.687500 0.375000
v 0.812500 0.687500 0.375000
v 0.812500 0.375000 0.375000
v 1.000000 0.375000 0.375000
vt 0.500000 0.500000
vt 0.546875 0.500000
vt 0.546875 0.343750
vt 0.500000 0.343750
f 189/189/1 192/192/1 191/191/1 190/190/1
v 0.812500 0.687500 0.625000
v 1.000000 0.687500 0.625000
v 1.000000 0.375000 0.625000
v 0.812500 0.375000 0.625000
vt 0.500000 0.500000
vt 0.546875 0.500000
vt 0.546875 0.343750
vt 0.500000 0.343750
f 193/193/2 196/196/2 195/195/2 194/194/2
v 0.812500 0.687500 0.375000
v 0.812500 0.687500 0.625000
v 0.812500 0.375000 0.625000
v 0.812500 0.375000 0.375000
vt 0.437500 0.500000
vt 0.500000 0.500000
vt 0.500000 0.343750
vt 0.437500 0.343750
f 197/197/3 200/200/3 199/199/3 198/198/3
v 1.000000 0.687500 0.625000
v 1.000000 0.687500 0.375000
v 1.000000 0.375000 0.375000
v 1.000000 0.375000 0.625000
vt 0.437500 0.500000
vt 0.500000 0.500000
vt 0.500000 0.343750
vt 0.437500 0.343750
f 201/201/4 204/204/4 203/203/4 202/202/4
v 0.812500 0.687500 0.375000
v 1.000000 0.687500 0.375000
v 1.000000 0.687500 0.625000
v 0.812500 0.687500 0.625000
vt 0.796875 0.500000
vt 0.843750 0.500000
vt 0.843750 0.375000
vt 0.796875 0.375000
f 205/205/5 208/208/5 207/207/5 206/206/5
v 0.812500 0.375000 0.625000
v 1.000000 0.375000 0.625000
v 1.000000 0.375000 0.375000
v 0.812500 0.375000 0.375000
vt 0.843750 0.500000
vt 0.890625 0.500000
vt 0.890625 0.375000
vt 0.843750 0.375000
f 209/209/6 212/212/6 211/211/6 210/210/6
v 0.312500 0.625000 0.437500
v 0.187500 0.625000 0.437500
v 0.187500 0.500000 0.437500
v 0.312500 0.500000 0.437500
vt 0.875000 0.125000
vt 0.906250 0.125000
vt 0.906250 0.062500
vt 0.875000 0.062500
f 213/213/1 216/216/1 215/215/1 214/214/1
v 0.187500 0.625000 0.562500
v 0.312500 0.625000 0.562500
v 0.312500 0.500000 0.562500
v 0.187500 0.500000 0.562500
vt 0.875000 0.125000
vt 0.906250 0.125000
vt 0.906250 0.062500
vt 0.875000 0.062500
f 217/217/2 220/220/2 219/219/2 218/218/2
v 0.187500 0.625000 0.437500
v 0.312500 0.625000 0.437500
v 0.312500 0.625000 0.562500
v 0.187500 0.625000 0.562500
vt 0.875000 0.125000
vt 0.906250 0.125000
vt 0.906250 0.062500
vt 0.875000 0.062500
f 221/221/5 224/224/5 223/223/5 222/222/5
v 0.187500 0.500000 0.562500
v 0.312500 0.500000 0.562500
v 0.312500 0.500000 0.437500
v 0.187500 0.500000 0.437500
vt 0.875000 0.125000
vt 0.906250 0.125000
vt 0.906250 0.062500
vt 0.875000 0.062500
f 225/225/6 228/228/6 227/227/6 226/226/6
v 0.812500 0.625000 0.437500
v 0.687500 0.625000 0.437500
v 0.687500 0.500000 0.437500
v 0.812500 0.500000 0.437500
vt 0.875000 0.125000
vt 0.906250 0.125000
vt 0.906250 0.062500
vt 0.875000 0.062500
f 229/229/1 232/232/1 231/231/1 230/230/1
v 0.687500 0.625000 0.562500
v 0.812500 0.625000 0.562500
v 0.812500 0.500000 0.562500
v 0.687500 0.500000 0.562500
vt 0.875000 0.125000
vt 0.906250 0.125000
vt 0.906250 0.062500
vt 0.875000 0.062500
f 233/233/2 236/236/2 235/235/2 234/234/2
v 0.687500 0.625000 0.437500
v 0.812500 0.625000 0.437500
v 0.812500 0.625000 0.562500
v 0.687500 0.625000 0.562500
vt 0.875000 0.125000
vt 0.906250 0.125000
vt 0.906250 0.062500
vt 0.875000 0.062500
f 237/237/5 240/240/5 239/239/5 238/238/5
v 0.687500 0.500000 0.562500
v 0.812500 0.500000 0.562500
v 0.812500 0.500000 0.437500
v 0.687500 0.500000 0.437500
vt 0.875000 0.125000
vt 0.906250 0.125000
vt 0.906250 0.062500
vt 0.875000 0.062500
f 241/241/6 244/244/6 243/243/6 242/242/6
