# bipropellantrocketmotor generated by machinegen.py
mtllib bipropellantrocketmotor.mtl
usemtl bipropellantrocketmotor
vn 0 0 -1
vn 0 0 1
vn -1 0 0
vn 1 0 0
vn 0 1 0
vn 0 -1 0
o rocketmotor
v 1.000000 1.000000 0.000000
v 0.000000 1.000000 0.000000
v 0.000000 0.750000 0.000000
v 1.000000 0.750000 0.000000
vt 0.218750 0.500000
vt 0.468750 0.500000
vt 0.468750 0.375000
vt 0.218750 0.375000
f 1/1/1 4/4/1 3/3/1 2/2/1
v 0.000000 1.000000 1.000000
v 1.000000 1.000000 1.000000
v 1.000000 0.750000 1.000000
v 0.000000 0.750000 1.000000
vt 0.218750 0.500000
vt 0.468750 0.500000
vt 0.468750 0.375000
vt 0.218750 0.375000
f 5/5/2 8/8/2 7/7/2 6/6/2
v 0.000000 1.000000 0.000000
v 0.000000 1.000000 1.000000
v 0.000000 0.750000 1.000000
v 0.000000 0.750000 0.000000
vt 0.218750 0.500000
vt 0.468750 0.500000
vt 0.468750 0.375000
vt 0.218750 0.375000
f 9/9/3 12/12/3 11/11/3 10/10/3
v 1.000000 1.000000 1.000000
v 1.000000 1.000000 0.000000
v 1.000000 0.750000 0.000000
v 1.000000 0.750000 1.000000
vt 0.218750 0.500000
vt 0.468750 0.500000
vt 0.468750 0.375000
vt 0.218750 0.375000
f 13/13/4 16/16/4 15/15/4 14/14/4
v 0.000000 1.000000 0.000000
v 1.000000 1.000000 0.000000
v 1.000000 1.000000 1.000000
v 0.000000 1.000000 1.000000
vt 0.000000 1.000000
vt 0.250000 1.000000
vt 0.250000 0.500000
vt 0.000000 0.500000
f 17/17/5 20/20/5 19/19/5 18/18/5
v 0.000000 0.750000 1.000000
v 1.000000 0.750000 1.000000
v 1.000000 0.750000 0.000000
v 0.000000 0.750000 0.000000
vt 0.000000 1.000000
vt 0.250000 1.000000
vt 0.250000 0.500000
vt 0.000000 0.500000
f 21/21/6 24/24/6 23/23/6 22/22/6
v 0.812500 0.750000 0.187500
v 0.187500 0.750000 0.187500
v 0.187500 0.625000 0.187500
v 0.812500 0.625000 0.187500
vt 0.000000 0.250000
vt 0.156250 0.250000
vt 0.156250 0.187500
vt 0.000000 0.187500
f 25/25/1 28/28/1 27/27/1 26/26/1
v 0.187500 0.750000 0.812500
v 0.812500 0.750000 0.812500
v 0.812500 0.625000 0.812500
v 0.187500 0.625000 0.812500
vt 0.000000 0.250000
vt 0.156250 0.250000
vt 0.156250 0.187500
vt 0.000000 0.187500
f 29/29/2 32/32/2 31/31/2 30/30/2
v 0.187500 0.750000 0.187500
v 0.187500 0.750000 0.812500
v 0.187500 0.625000 0.812500
v 0.187500 0.625000 0.187500
vt 0.000000 0.250000
vt 0.156250 0.250000
vt 0.156250 0.187500
vt 0.000000 0.187500
f 33/33/3 36/36/3 35/35/3 34/34/3
v 0.812500 0.750000 0.812500
v 0.812500 0.750000 0.187500
v 0.812500 0.625000 0.187500
v 0.812500 0.625000 0.812500
vt 0.000000 0.250000
vt 0.156250 0.250000
vt 0.156250 0.187500
vt 0.000000 0.187500
f 37/37/4 40/40/4 39/39/4 38/38/4
v 0.187500 0.625000 0.812500
v 0.812500 0.625000 0.812500
v 0.812500 0.625000 0.187500
v 0.187500 0.625000 0.187500
vt 0.625000 1.000000
vt 0.781250 1.000000
vt 0.781250 0.687500
vt 0.625000 0.687500
f 41/41/6 44/44/6 43/43/6 42/42/6
v 0.687500 0.625000 0.312500
v 0.312500 0.625000 0.312500
v 0.312500 0.500000 0.312500
v 0.687500 0.500000 0.312500
vt 0.156250 0.250000
vt 0.250000 0.250000
vt 0.250000 0.187500
vt 0.156250 0.187500
f 45/45/1 48/48/1 47/47/1 46/46/1
v 0.312500 0.625000 0.687500
v 0.687500 0.625000 0.687500
v 0.687500 0.500000 0.687500
v 0.312500 0.500000 0.687500
vt 0.156250 0.250000
vt 0.250000 0.250000
vt 0.250000 0.187500
vt 0.156250 0.187500
f 49/49/2 52/52/2 51/51/2 50/50/2
v 0.312500 0.625000 0.312500
v 0.312500 0.625000 0.687500
v 0.312500 0.500000 0.687500
v 0.312500 0.500000 0.312500
vt 0.156250 0.250000
vt 0.250000 0.250000
vt 0.250000 0.187500
vt 0.156250 0.187500
f 53/53/3 56/56/3 55/55/3 54/54/3
v 0.687500 0.625000 0.687500
v 0.687500 0.625000 0.312500
v 0.687500 0.500000 0.312500
v 0.687500 0.500000 0.687500
vt 0.156250 0.250000
vt 0.250000 0.250000
vt 0.250000 0.187500
vt 0.156250 0.187500
f 57/57/4 60/60/4 59/59/4 58/58/4
v 0.312500 0.625000 0.312500
v 0.687500 0.625000 0.312500
v 0.687500 0.625000 0.687500
v 0.312500 0.625000 0.687500
vt 0.125000 0.500000
vt 0.218750 0.500000
vt 0.218750 0.312500
vt 0.125000 0.312500
f 61/61/5 64/64/5 63/63/5 62/62/5
v 0.312500 0.500000 0.687500
v 0.687500 0.500000 0.687500
v 0.687500 0.500000 0.312500
v 0.312500 0.500000 0.312500
vt 0.125000 0.500000
vt 0.218750 0.500000
vt 0.218750 0.312500
vt 0.125000 0.312500
f 65/65/6 68/68/6 67/67/6 66/66/6
v 0.750000 0.500000 0.250000
v 0.250000 0.500000 0.250000
v 0.250000 0.312500 0.250000
v 0.750000 0.312500 0.250000
vt 0.625000 0.500000
vt 0.750000 0.500000
vt 0.750000 0.406250
vt 0.625000 0.406250
f 69/69/1 72/72/1 71/71/1 70/70/1
v 0.250000 0.500000 0.750000
v 0.750000 0.500000 0.750000
v 0.750000 0.312500 0.750000
v 0.250000 0.312500 0.750000
vt 0.625000 0.500000
vt 0.750000 0.500000
vt 0.750000 0.406250
vt 0.625000 0.406250
f 73/73/2 76/76/2 75/75/2 74/74/2
v 0.250000 0.500000 0.250000
v 0.250000 0.500000 0.750000
v 0.250000 0.312500 0.750000
v 0.250000 0.312500 0.250000
vt 0.625000 0.500000
vt 0.750000 0.500000
vt 0.750000 0.406250
vt 0.625000 0.406250
f 77/77/3 80/80/3 79/79/3 78/78/3
v 0.750000 0.500000 0.750000
v 0.750000 0.500000 0.250000
v 0.750000 0.312500 0.250000
v 0.750000 0.312500 0.750000
vt 0.625000 0.500000
vt 0.750000 0.500000
vt 0.750000 0.406250
vt 0.625000 0.406250
f 81/81/4 84/84/4 83/83/4 82/82/4
v 0.250000 0.500000 0.250000
v 0.750000 0.500000 0.250000
v 0.750000 0.500000 0.750000
v 0.250000 0.500000 0.750000
vt 0.000000 0.500000
vt 0.125000 0.500000
vt 0.125000 0.250000
vt 0.000000 0.250000
f 85/85/5 88/88/5 87/87/5 86/86/5
v 0.250000 0.312500 0.750000
v 0.750000 0.312500 0.750000
v 0.750000 0.312500 0.250000
v 0.250000 0.312500 0.250000
vt 0.000000 0.500000
vt 0.125000 0.500000
vt 0.125000 0.250000
vt 0.000000 0.250000
f 89/89/6 92/92/6 91/91/6 90/90/6
v 0.812500 0.312500 0.187500
v 0.187500 0.312500 0.187500
v 0.187500 0.125000 0.187500
v 0.812500 0.125000 0.187500
vt 0.468750 0.500000
vt 0.625000 0.500000
vt 0.625000 0.406250
vt 0.468750 0.406250
f 93/93/1 96/96/1 95/95/1 94/94/1
v 0.187500 0.312500 0.812500
v 0.812500 0.312500 0.812500
v 0.812500 0.125000 0.812500
v 0.187500 0.125000 0.812500
vt 0.468750 0.500000
vt 0.625000 0.500000
vt 0.625000 0.406250
vt 0.468750 0.406250
f 97/97/2 100/100/2 99/99/2 98/98/2
v 0.187500 0.312500 0.187500
v 0.187500 0.312500 0.812500
v 0.187500 0.125000 0.812500
v 0.187500 0.125000 0.187500
vt 0.468750 0.500000
vt 0.625000 0.500000
vt 0.625000 0.406250
vt 0.468750 0.406250
f 101/101/3 104/104/3 103/103/3 102/102/3
v 0.812500 0.312500 0.812500
v 0.812500 0.312500 0.187500
v 0.812500 0.125000 0.187500
v 0.812500 0.125000 0.812500
vt 0.468750 0.500000
vt 0.625000 0.500000
vt 0.625000 0.406250
vt 0.468750 0.406250
f 105/105/4 108/108/4 107/107/4 106/106/4
v 0.187500 0.312500 0.187500
v 0.812500 0.312500 0.187500
v 0.812500 0.312500 0.812500
v 0.187500 0.312500 0.812500
vt 0.781250 1.000000
vt 0.937500 1.000000
vt 0.937500 0.687500
vt 0.781250 0.687500
f 109/109/5 112/112/5 111/111/5 110/110/5
v 0.187500 0.125000 0.812500
v 0.812500 0.125000 0.812500
v 0.812500 0.125000 0.187500
v 0.187500 0.125000 0.187500
vt 0.781250 1.000000
vt 0.937500 1.000000
vt 0.937500 0.687500
vt 0.781250 0.687500
f 113/113/6 116/116/6 115/115/6 114/114/6
v 0.875000 0.125000 0.125000
v 0.125000 0.125000 0.125000
v 0.125000 0.000000 0.125000
v 0.875000 0.000000 0.125000
vt 0.750000 0.500000
vt 0.937500 0.500000
vt 0.937500 0.437500
vt 0.750000 0.437500
f 117/117/1 120/120/1 119/119/1 118/118/1
v 0.125000 0.125000 0.875000
v 0.875000 0.125000 0.875000
v 0.875000 0.000000 0.875000
v 0.125000 0.000000 0.875000
vt 0.750000 0.500000
vt 0.937500 0.500000
vt 0.937500 0.437500
vt 0.750000 0.437500
f 121/121/2 124/124/2 123/123/2 122/122/2
v 0.125000 0.125000 0.125000
v 0.125000 0.125000 0.875000
v 0.125000 0.000000 0.875000
v 0.125000 0.000000 0.125000
vt 0.750000 0.500000
vt 0.937500 0.500000
vt 0.937500 0.437500
vt 0.750000 0.437500
f 125/125/3 128/128/3 127/127/3 126/126/3
v 0.875000 0.125000 0.875000
v 0.875000 0.125000 0.125000
v 0.875000 0.000000 0.125000
v 0.875000 0.000000 0.875000
vt 0.750000 0.500000
vt 0.937500 0.500000
vt 0.937500 0.437500
vt 0.750000 0.437500
f 129/129/4 132/132/4 131/131/4 130/130/4
v 0.125000 0.125000 0.125000
v 0.875000 0.125000 0.125000
v 0.875000 0.125000 0.875000
v 0.125000 0.125000 0.875000
vt 0.250000 1.000000
vt 0.437500 1.000000
vt 0.437500 0.625000
vt 0.250000 0.625000
f 133/133/5 136/136/5 135/135/5 134/134/5
v 0.125000 0.000000 0.875000
v 0.875000 0.000000 0.875000
v 0.875000 0.000000 0.125000
v 0.125000 0.000000 0.125000
vt 0.437500 1.000000
vt 0.625000 1.000000
vt 0.625000 0.625000
vt 0.437500 0.625000
f 137/137/6 140/140/6 139/139/6 138/138/6
v 0.562500 0.750000 0.000000
v 0.437500 0.750000 0.000000
v 0.437500 0.437500 0.000000
v 0.562500 0.437500 0.000000
vt 0.937500 1.000000
vt 0.968750 1.000000
vt 0.968750 0.843750
vt 0.937500 0.843750
f 141/141/1 144/144/1 143/143/1 142/142/1
v 0.437500 0.750000 0.125000
v 0.562500 0.750000 0.125000
v 0.562500 0.437500 0.125000
v 0.437500 0.437500 0.125000
vt 0.937500 1.000000
vt 0.968750 1.000000
vt 0.968750 0.843750
vt 0.937500 0.843750
f 145/145/2 148/148/2 147/147/2 146/146/2
v 0.437500 0.750000 0.000000
v 0.437500 0.750000 0.125000
v 0.437500 0.437500 0.125000
v 0.437500 0.437500 0.000000
vt 0.937500 1.000000
vt 0.968750 1.000000
vt 0.968750 0.843750
vt 0.937500 0.843750
f 149/149/3 152/152/3 151/151/3 150/150/3
v 0.562500 0.750000 0.125000
v 0.562500 0.750000 0.000000
v 0.562500 0.437500 0.000000
v 0.562500 0.437500 0.125000
vt 0.937500 1.000000
vt 0.968750 1.000000
vt 0.968750 0.843750
vt 0.937500 0.843750
f 153/153/4 156/156/4 155/155/4 154/154/4
v 0.437500 0.437500 0.125000
v 0.562500 0.437500 0.125000
v 0.562500 0.437500 0.000000
v 0.437500 0.437500 0.000000
vt 0.250000 0.250000
vt 0.281250 0.250000
vt 0.281250 0.187500
vt 0.250000 0.187500
f 157/157/6 160/160/6 159/159/6 158/158/6
v 0.562500 0.750000 0.875000
v 0.437500 0.750000 0.875000
v 0.437500 0.437500 0.875000
v 0.562500 0.437500 0.875000
vt 0.937500 1.000000
vt 0.968750 1.000000
vt 0.968750 0.843750
vt 0.937500 0.843750
f 161/161/1 164/164/1 163/163/1 162/162/1
v 0.437500 0.750000 1.000000
v 0.562500 0.750000 1.000000
v 0.562500 0.437500 1.000000
v 0.437500 0.437500 1.000000
vt 0.937500 1.000000
vt 0.968750 1.000000
vt 0.968750 0.843750
vt 0.937500 0.843750
f 165/165/2 168/168/2 167/167/2 166/166/2
v 0.437500 0.750000 0.875000
v 0.437500 0.750000 1.000000
v 0.437500 0.437500 1.000000
v 0.437500 0.437500 0.875000
vt 0.937500 1.000000
vt 0.968750 1.000000
vt 0.968750 0.843750
vt 0.937500 0.843750
f 169/169/3 172/172/3 171/171/3 170/170/3
v 0.562500 0.750000 1.000000
v 0.562500 0.750000 0.875000
v 0.562500 0.437500 0.875000
v 0.562500 0.437500 1.000000
vt 0.937500 1.000000
vt 0.968750 1.000000
vt 0.968750 0.843750
vt 0.937500 0.843750
f 173/173/4 176/176/4 175/175/4 174/174/4
v 0.437500 0.437500 1.000000
v 0.562500 0.437500 1.000000
v 0.562500 0.437500 0.875000
v 0.437500 0.437500 0.875000
vt 0.250000 0.250000
vt 0.281250 0.250000
vt 0.281250 0.187500
vt 0.250000 0.187500
f 177/177/6 180/180/6 179/179/6 178/178/6
v 0.562500 0.437500 0.000000
v 0.437500 0.437500 0.000000
v 0.437500 0.312500 0.000000
v 0.562500 0.312500 0.000000
vt 0.281250 0.250000
vt 0.312500 0.250000
vt 0.312500 0.187500
vt 0.281250 0.187500
f 181/181/1 184/184/1 183/183/1 182/182/1
v 0.437500 0.437500 0.000000
v 0.437500 0.437500 0.250000
v 0.437500 0.312500 0.250000
v 0.437500 0.312500 0.000000
vt 0.937500 0.500000
vt 1.000000 0.500000
vt 1.000000 0.437500
vt 0.937500 0.437500
f 185/185/3 188/188/3 187/187/3 186/186/3
v 0.562500 0.437500 0.250000
v 0.562500 0.437500 0.000000
v 0.562500 0.312500 0.000000
v 0.562500 0.312500 0.250000
vt 0.937500 0.500000
vt 1.000000 0.500000
vt 1.000000 0.437500
vt 0.937500 0.437500
f 189/189/4 192/192/4 191/191/4 190/190/4
v 0.437500 0.437500 0.000000
v 0.562500 0.437500 0.000000
v 0.562500 0.437500 0.250000
v 0.437500 0.437500 0.250000
vt 0.968750 1.000000
vt 1.000000 1.000000
vt 1.000000 0.875000
vt 0.968750 0.875000
f 193/193/5 196/196/5 195/195/5 194/194/5
v 0.437500 0.312500 0.250000
v 0.562500 0.312500 0.250000
v 0.562500 0.312500 0.000000
v 0.437500 0.312500 0.000000
vt 0.968750 1.000000
vt 1.000000 1.000000
vt 1.000000 0.875000
vt 0.968750 0.875000
f 197/197/6 200/200/6 199/199/6 198/198/6
v 0.437500 0.437500 1.000000
v 0.562500 0.437500 1.000000
v 0.562500 0.312500 1.000000
v 0.437500 0.312500 1.000000
vt 0.281250 0.250000
vt 0.312500 0.250000
vt 0.312500 0.187500
vt 0.281250 0.187500
f 201/201/2 204/204/2 203/203/2 202/202/2
v 0.437500 0.437500 0.750000
v 0.437500 0.437500 1.000000
v 0.437500 0.312500 1.000000
v 0.437500 0.312500 0.750000
vt 0.937500 0.500000
vt 1.000000 0.500000
vt 1.000000 0.437500
vt 0.937500 0.437500
f 205/205/3 208/208/3 207/207/3 206/206/3
v 0.562500 0.437500 1.000000
v 0.562500 0.437500 0.750000
v 0.562500 0.312500 0.750000
v 0.562500 0.312500 1.000000
vt 0.937500 0.500000
vt 1.000000 0.500000
vt 1.000000 0.437500
vt 0.937500 0.437500
f 209/209/4 212/212/4 211/211/4 210/210/4
v 0.437500 0.437500 0.750000
v 0.562500 0.437500 0.750000
v 0.562500 0.437500 1.000000
v 0.437500 0.437500 1.000000
vt 0.968750 1.000000
vt 1.000000 1.000000
vt 1.000000 0.875000
vt 0.968750 0.875000
f 213/213/5 216/216/5 215/215/5 214/214/5
v 0.437500 0.312500 1.000000
v 0.562500 0.312500 1.000000
v 0.562500 0.312500 0.750000
v 0.437500 0.312500 0.750000
vt 0.968750 1.000000
vt 1.000000 1.000000
vt 1.000000 0.875000
vt 0.968750 0.875000
f 217/217/6 220/220/6 219/219/6 218/218/6
