# bottomtank generated by machinegen.py
mtllib bottomtank.mtl
usemtl bottomtank
vn 0 0 -1
vn 0 0 1
vn -1 0 0
vn 1 0 0
vn 0 1 0
vn 0 -1 0
o Cylinder
v 0.125000 1.000000 0.000000
v 0.000000 1.000000 0.000000
v 0.000000 0.000000 0.000000
v 0.125000 0.000000 0.000000
vt 0.000000 1.000000
vt 0.031250 1.000000
vt 0.031250 0.500000
vt 0.000000 0.500000
f 1/1/1 4/4/1 3/3/1 2/2/1
v 0.000000 1.000000 0.125000
v 0.125000 1.000000 0.125000
v 0.125000 0.000000 0.125000
v 0.000000 0.000000 0.125000
vt 0.000000 1.000000
vt 0.031250 1.000000
vt 0.031250 0.500000
vt 0.000000 0.500000
f 5/5/2 8/8/2 7/7/2 6/6/2
v 0.000000 1.000000 0.000000
v 0.000000 1.000000 0.125000
v 0.000000 0.000000 0.125000
v 0.000000 0.000000 0.000000
vt 0.000000 1.000000
vt 0.031250 1.000000
vt 0.031250 0.500000
vt 0.000000 0.500000
f 9/9/3 12/12/3 11/11/3 10/10/3
v 0.125000 1.000000 0.125000
v 0.125000 1.000000 0.000000
v 0.125000 0.000000 0.000000
v 0.125000 0.000000 0.125000
vt 0.000000 1.000000
vt 0.031250 1.000000
vt 0.031250 0.500000
vt 0.000000 0.500000
f 13/13/4 16/16/4 15/15/4 14/14/4
v 0.000000 1.000000 0.000000
v 0.125000 1.000000 0.000000
v 0.125000 1.000000 0.125000
v 0.000000 1.000000 0.125000
vt 0.937500 0.500000
vt 0.968750 0.500000
vt 0.968750 0.437500
vt 0.937500 0.437500
f 17/17/5 20/20/5 19/19/5 18/18/5
v 0.000000 0.000000 0.125000
v 0.125000 0.000000 0.125000
v 0.125000 0.000000 0.000000
v 0.000000 0.000000 0.000000
vt 0.937500 0.500000
vt 0.968750 0.500000
vt 0.968750 0.437500
vt 0.937500 0.437500
f 21/21/6 24/24/6 23/23/6 22/22/6
v 1.000000 1.000000 0.000000
v 0.875000 1.000000 0.000000
v 0.875000 0.000000 0.000000
v 1.000000 0.000000 0.000000
vt 0.000000 1.000000
vt 0.031250 1.000000
vt 0.031250 0.500000
vt 0.000000 0.500000
f 25/25/1 28/28/1 27/27/1 26/26/1
v 0.875000 1.000000 0.125000
v 1.000000 1.000000 0.125000
v 1.000000 0.000000 0.125000
v 0.875000 0.000000 0.125000
vt 0.000000 1.000000
vt 0.031250 1.000000
vt 0.031250 0.500000
vt 0.000000 0.500000
f 29/29/2 32/32/2 31/31/2 30/30/2
v 0.875000 1.000000 0.000000
v 0.875000 1.000000 0.125000
v 0.875000 0.000000 0.125000
v 0.875000 0.000000 0.000000
vt 0.000000 1.000000
vt 0.031250 1.000000
vt 0.031250 0.500000
vt 0.000000 0.500000
f 33/33/3 36/36/3 35/35/3 34/34/3
v 1.000000 1.000000 0.125000
v 1.000000 1.000000 0.000000
v 1.000000 0.000000 0.000000
v 1.000000 0.000000 0.125000
vt 0.000000 1.000000
vt 0.031250 1.000000
vt 0.031250 0.500000
vt 0.000000 0.500000
f 37/37/4 40/40/4 39/39/4 38/38/4
v 0.875000 1.000000 0.000000
v 1.000000 1.000000 0.000000
v 1.000000 1.000000 0.125000
v 0.875000 1.000000 0.125000
vt 0.937500 0.500000
vt 0.968750 0.500000
vt 0.968750 0.437500
vt 0.937500 0.437500
f 41/41/5 44/44/5 43/43/5 42/42/5
v 0.875000 0.000000 0.125000
v 1.000000 0.000000 0.125000
v 1.000000 0.000000 0.000000
v 0.875000 0.000000 0.000000
vt 0.937500 0.500000
vt 0.968750 0.500000
vt 0.968750 0.437500
vt 0.937500 0.437500
f 45/45/6 48/48/6 47/47/6 46/46/6
v 0.125000 1.000000 0.875000
v 0.000000 1.000000 0.875000
v 0.000000 0.000000 0.875000
v 0.125000 0.000000 0.875000
vt 0.000000 1.000000
vt 0.031250 1.000000
vt 0.031250 0.500000
vt 0.000000 0.500000
f 49/49/1 52/52/1 51/51/1 50/50/1
v 0.000000 1.000000 1.000000
v 0.125000 1.000000 1.000000
v 0.125000 0.000000 1.000000
v 0.000000 0.000000 1.000000
vt 0.000000 1.000000
vt 0.031250 1.000000
vt 0.031250 0.500000
vt 0.000000 0.500000
f 53/53/2 56/56/2 55/55/2 54/54/2
v 0.000000 1.000000 0.875000
v 0.000000 1.000000 1.000000
v 0.000000 0.000000 1.000000
v 0.000000 0.000000 0.875000
vt 0.000000 1.000000
vt 0.031250 1.000000
vt 0.031250 0.500000
vt 0.000000 0.500000
f 57/57/3 60/60/3 59/59/3 58/58/3
v 0.125000 1.000000 1.000000
v 0.125000 1.000000 0.875000
v 0.125000 0.000000 0.875000
v 0.125000 0.000000 1.000000
vt 0.000000 1.000000
vt 0.031250 1.000000
vt 0.031250 0.500000
vt 0.000000 0.500000
f 61/61/4 64/64/4 63/63/4 62/62/4
v 0.000000 1.000000 0.875000
v 0.125000 1.000000 0.875000
v 0.125000 1.000000 1.000000
v 0.000000 1.000000 1.000000
vt 0.937500 0.500000
vt 0.968750 0.500000
vt 0.968750 0.437500
vt 0.937500 0.437500
f 65/65/5 68/68/5 67/67/5 66/66/5
v 0.000000 0.000000 1.000000
v 0.125000 0.000000 1.000000
v 0.125000 0.000000 0.875000
v 0.000000 0.000000 0.875000
vt 0.937500 0.500000
vt 0.968750 0.500000
vt 0.968750 0.437500
vt 0.937500 0.437500
f 69/69/6 72/72/6 71/71/6 70/70/6
v 1.000000 1.000000 0.875000
v 0.875000 1.000000 0.875000
v 0.875000 0.000000 0.875000
v 1.000000 0.000000 0.875000
vt 0.000000 1.000000
vt 0.031250 1.000000
vt 0.031250 0.500000
vt 0.000000 0.500000
f 73/73/1 76/76/1 75/75/1 74/74/1
v 0.875000 1.000000 1.000000
v 1.000000 1.000000 1.000000
v 1.000000 0.000000 1.000000
v 0.875000 0.000000 1.000000
vt 0.000000 1.000000
vt 0.031250 1.000000
vt 0.031250 0.500000
vt 0.000000 0.500000
f 77/77/2 80/80/2 79/79/2 78/78/2
v 0.875000 1.000000 0.875000
v 0.875000 1.000000 1.000000
v 0.875000 0.000000 1.000000
v 0.875000 0.000000 0.875000
vt 0.000000 1.000000
vt 0.031250 1.000000
vt 0.031250 0.500000
vt 0.000000 0.500000
f 81/81/3 84/84/3 83/83/3 82/82/3
v 1.000000 1.000000 1.000000
v 1.000000 1.000000 0.875000
v 1.000000 0.000000 0.875000
v 1.000000 0.000000 1.000000
vt 0.000000 1.000000
vt 0.031250 1.000000
vt 0.031250 0.500000
vt 0.000000 0.500000
f 85/85/4 88/88/4 87/87/4 86/86/4
v 0.875000 1.000000 0.875000
v 1.000000 1.000000 0.875000
v 1.000000 1.000000 1.000000
v 0.875000 1.000000 1.000000
vt 0.937500 0.500000
vt 0.968750 0.500000
vt 0.968750 0.437500
vt 0.937500 0.437500
f 89/89/5 92/92/5 91/91/5 90/90/5
v 0.875000 0.000000 1.000000
v 1.000000 0.000000 1.000000
v 1.000000 0.000000 0.875000
v 0.875000 0.000000 0.875000
vt 0.937500 0.500000
vt 0.968750 0.500000
vt 0.968750 0.437500
vt 0.937500 0.437500
f 93/93/6 96/96/6 95/95/6 94/94/6
v 0.875000 0.125000 0.000000
v 0.125000 0.125000 0.000000
v 0.125000 0.000000 0.000000
v 0.875000 0.000000 0.000000
vt 0.312500 0.500000
vt 0.500000 0.500000
vt 0.500000 0.437500
vt 0.312500 0.437500
f 97/97/1 100/100/1 99/99/1 98/98/1
v 0.125000 0.125000 0.125000
v 0.875000 0.125000 0.125000
v 0.875000 0.000000 0.125000
v 0.125000 0.000000 0.125000
vt 0.312500 0.500000
vt 0.500000 0.500000
vt 0.500000 0.437500
vt 0.312500 0.437500
f 101/101/2 104/104/2 103/103/2 102/102/2
v 0.125000 0.125000 0.000000
v 0.125000 0.125000 0.125000
v 0.125000 0.000000 0.125000
v 0.125000 0.000000 0.000000
vt 0.968750 0.500000
vt 1.000000 0.500000
vt 1.000000 0.437500
vt 0.968750 0.437500
f 105/105/3 108/108/3 107/107/3 106/106/3
v 0.875000 0.125000 0.125000
v 0.875000 0.125000 0.000000
v 0.875000 0.000000 0.000000
v 0.875000 0.000000 0.125000
vt 0.968750 0.500000
vt 1.000000 0.500000
vt 1.000000 0.437500
vt 0.968750 0.437500
f 109/109/4 112/112/4 111/111/4 110/110/4
v 0.125000 0.125000 0.000000
v 0.875000 0.125000 0.000000
v 0.875000 0.125000 0.125000
v 0.125000 0.125000 0.125000
vt 0.312500 0.500000
vt 0.500000 0.500000
vt 0.500000 0.437500
vt 0.312500 0.437500
f 113/113/5 116/116/5 115/115/5 114/114/5
v 0.125000 0.000000 0.125000
v 0.875000 0.000000 0.125000
v 0.875000 0.000000 0.000000
v 0.125000 0.000000 0.000000
vt 0.312500 0.500000
vt 0.500000 0.500000
vt 0.500000 0.437500
vt 0.312500 0.437500
f 117/117/6 120/120/6 119/119/6 118/118/6
v 0.875000 0.125000 0.875000
v 0.125000 0.125000 0.875000
v 0.125000 0.000000 0.875000
v 0.875000 0.000000 0.875000
vt 0.312500 0.500000
vt 0.500000 0.500000
vt 0.500000 0.437500
vt 0.312500 0.437500
f 121/121/1 124/124/1 123/123/1 122/122/1
v 0.125000 0.125000 1.000000
v 0.875000 0.125000 1.000000
v 0.875000 0.000000 1.000000
v 0.125000 0.000000 1.000000
vt 0.312500 0.500000
vt 0.500000 0.500000
vt 0.500000 0.437500
vt 0.312500 0.437500
f 125/125/2 128/128/2 127/127/2 126/126/2
v 0.125000 0.125000 0.875000
v 0.125000 0.125000 1.000000
v 0.125000 0.000000 1.000000
v 0.125000 0.000000 0.875000
vt 0.968750 0.500000
vt 1.000000 0.500000
vt 1.000000 0.437500
vt 0.968750 0.437500
f 129/129/3 132/132/3 131/131/3 130/130/3
v 0.875000 0.125000 1.000000
v 0.875000 0.125000 0.875000
v 0.875000 0.000000 0.875000
v 0.875000 0.000000 1.000000
vt 0.968750 0.500000
vt 1.000000 0.500000
vt 1.000000 0.437500
vt 0.968750 0.437500
f 133/133/4 136/136/4 135/135/4 134/134/4
v 0.125000 0.125000 0.875000
v 0.875000 0.125000 0.875000
v 0.875000 0.125000 1.000000
v 0.125000 0.125000 1.000000
vt 0.312500 0.500000
vt 0.500000 0.500000
vt 0.500000 0.437500
vt 0.312500 0.437500
f 137/137/5 140/140/5 139/139/5 138/138/5
v 0.125000 0.000000 1.000000
v 0.875000 0.000000 1.000000
v 0.875000 0.000000 0.875000
v 0.125000 0.000000 0.875000
vt 0.312500 0.500000
vt 0.500000 0.500000
vt 0.500000 0.437500
vt 0.312500 0.437500
f 141/141/6 144/144/6 143/143/6 142/142/6
v 0.125000 0.125000 0.125000
v 0.000000 0.125000 0.125000
v 0.000000 0.000000 0.125000
v 0.125000 0.000000 0.125000
vt 0.000000 0.312500
vt 0.031250 0.312500
vt 0.031250 0.250000
vt 0.000000 0.250000
f 145/145/1 148/148/1 147/147/1 146/146/1
v 0.000000 0.125000 0.875000
v 0.125000 0.125000 0.875000
v 0.125000 0.000000 0.875000
v 0.000000 0.000000 0.875000
vt 0.000000 0.312500
vt 0.031250 0.312500
vt 0.031250 0.250000
vt 0.000000 0.250000
f 149/149/2 152/152/2 151/151/2 150/150/2
v 0.000000 0.125000 0.125000
v 0.000000 0.125000 0.875000
v 0.000000 0.000000 0.875000
v 0.000000 0.000000 0.125000
vt 0.500000 0.500000
vt 0.687500 0.500000
vt 0.687500 0.437500
vt 0.500000 0.437500
f 153/153/3 156/156/3 155/155/3 154/154/3
v 0.125000 0.125000 0.875000
v 0.125000 0.125000 0.125000
v 0.125000 0.000000 0.125000
v 0.125000 0.000000 0.875000
vt 0.500000 0.500000
vt 0.687500 0.500000
vt 0.687500 0.437500
vt 0.500000 0.437500
f 157/157/4 160/160/4 159/159/4 158/158/4
v 0.000000 0.125000 0.125000
v 0.125000 0.125000 0.125000
v 0.125000 0.125000 0.875000
v 0.000000 0.125000 0.875000
vt 0.625000 1.000000
vt 0.656250 1.000000
vt 0.656250 0.625000
vt 0.625000 0.625000
f 161/161/5 164/164/5 163/163/5 162/162/5
v 0.000000 0.000000 0.875000
v 0.125000 0.000000 0.875000
v 0.125000 0.000000 0.125000
v 0.000000 0.000000 0.125000
vt 0.625000 1.000000
vt 0.656250 1.000000
vt 0.656250 0.625000
vt 0.625000 0.625000
f 165/165/6 168/168/6 167/167/6 166/166/6
v 1.000000 0.125000 0.125000
v 0.875000 0.125000 0.125000
v 0.875000 0.000000 0.125000
v 1.000000 0.000000 0.125000
vt 0.000000 0.312500
vt 0.031250 0.312500
vt 0.031250 0.250000
vt 0.000000 0.250000
f 169/169/1 172/172/1 171/171/1 170/170/1
v 0.875000 0.125000 0.875000
v 1.000000 0.125000 0.875000
v 1.000000 0.000000 0.875000
v 0.875000 0.000000 0.875000
vt 0.000000 0.312500
vt 0.031250 0.312500
vt 0.031250 0.250000
vt 0.000000 0.250000
f 173/173/2 176/176/2 175/175/2 174/174/2
v 0.875000 0.125000 0.125000
v 0.875000 0.125000 0.875000
v 0.875000 0.000000 0.875000
v 0.875000 0.000000 0.125000
vt 0.500000 0.500000
vt 0.687500 0.500000
vt 0.687500 0.437500
vt 0.500000 0.437500
f 177/177/3 180/180/3 179/179/3 178/178/3
v 1.000000 0.125000 0.875000
v 1.000000 0.125000 0.125000
v 1.000000 0.000000 0.125000
v 1.000000 0.000000 0.875000
vt 0.500000 0.500000
vt 0.687500 0.500000
vt 0.687500 0.437500
vt 0.500000 0.437500
f 181/181/4 184/184/4 183/183/4 182/182/4
v 0.875000 0.125000 0.125000
v 1.000000 0.125000 0.125000
v 1.000000 0.125000 0.875000
v 0.875000 0.125000 0.875000
vt 0.625000 1.000000
vt 0.656250 1.000000
vt 0.656250 0.625000
vt 0.625000 0.625000
f 185/185/5 188/188/5 187/187/5 186/186/5
v 0.875000 0.000000 0.875000
v 1.000000 0.000000 0.875000
v 1.000000 0.000000 0.125000
v 0.875000 0.000000 0.125000
vt 0.625000 1.000000
vt 0.656250 1.000000
vt 0.656250 0.625000
vt 0.625000 0.625000
f 189/189/6 192/192/6 191/191/6 190/190/6
v 0.875000 1.000000 0.125000
v 0.125000 1.000000 0.125000
v 0.125000 0.312500 0.125000
v 0.875000 0.312500 0.125000
vt 0.656250 1.000000
vt 0.843750 1.000000
vt 0.843750 0.656250
vt 0.656250 0.656250
f 193/193/1 196/196/1 195/195/1 194/194/1
v 0.125000 1.000000 0.875000
v 0.875000 1.000000 0.875000
v 0.875000 0.312500 0.875000
v 0.125000 0.312500 0.875000
vt 0.656250 1.000000
vt 0.843750 1.000000
vt 0.843750 0.656250
vt 0.656250 0.656250
f 197/197/2 200/200/2 199/199/2 198/198/2
v 0.125000 1.000000 0.125000
v 0.125000 1.000000 0.875000
v 0.125000 0.312500 0.875000
v 0.125000 0.312500 0.125000
vt 0.656250 1.000000
vt 0.843750 1.000000
vt 0.843750 0.656250
vt 0.656250 0.656250
f 201/201/3 204/204/3 203/203/3 202/202/3
v 0.875000 1.000000 0.875000
v 0.875000 1.000000 0.125000
v 0.875000 0.312500 0.125000
v 0.875000 0.312500 0.875000
vt 0.656250 1.000000
vt 0.843750 1.000000
vt 0.843750 0.656250
vt 0.656250 0.656250
f 205/205/4 208/208/4 207/207/4 206/206/4
v 0.125000 1.000000 0.125000
v 0.875000 1.000000 0.125000
v 0.875000 1.000000 0.875000
v 0.125000 1.000000 0.875000
vt 0.250000 1.000000
vt 0.437500 1.000000
vt 0.437500 0.625000
vt 0.250000 0.625000
f 209/209/5 212/212/5 211/211/5 210/210/5
v 0.125000 0.312500 0.875000
v 0.875000 0.312500 0.875000
v 0.875000 0.312500 0.125000
v 0.125000 0.312500 0.125000
vt 0.437500 1.000000
vt 0.625000 1.000000
vt 0.625000 0.625000
vt 0.437500 0.625000
f 213/213/6 216/216/6 215/215/6 214/214/6
v 0.937500 0.562500 0.062500
v 0.062500 0.562500 0.062500
v 0.062500 0.437500 0.062500
v 0.937500 0.437500 0.062500
vt 0.093750 0.500000
vt 0.312500 0.500000
vt 0.312500 0.437500
vt 0.093750 0.437500
f 217/217/1 220/220/1 219/219/1 218/218/1
v 0.062500 0.562500 0.937500
v 0.937500 0.562500 0.937500
v 0.937500 0.437500 0.937500
v 0.062500 0.437500 0.937500
vt 0.093750 0.500000
vt 0.312500 0.500000
vt 0.312500 0.437500
vt 0.093750 0.437500
f 221/221/2 224/224/2 223/223/2 222/222/2
v 0.062500 0.562500 0.062500
v 0.062500 0.562500 0.937500
v 0.062500 0.437500 0.937500
v 0.062500 0.437500 0.062500
vt 0.093750 0.500000
vt 0.312500 0.500000
vt 0.312500 0.437500
vt 0.093750 0.437500
f 225/225/3 228/228/3 227/227/3 226/226/3
v 0.937500 0.562500 0.937500
v 0.937500 0.562500 0.062500
v 0.937500 0.437500 0.062500
v 0.937500 0.437500 0.937500
vt 0.093750 0.500000
vt 0.312500 0.500000
vt 0.312500 0.437500
vt 0.093750 0.437500
f 229/229/4 232/232/4 231/231/4 230/230/4
v 0.062500 0.562500 0.062500
v 0.937500 0.562500 0.062500
v 0.937500 0.562500 0.937500
v 0.062500 0.562500 0.937500
vt 0.031250 1.000000
vt 0.250000 1.000000
vt 0.250000 0.562500
vt 0.031250 0.562500
f 233/233/5 236/236/5 235/235/5 234/234/5
v 0.062500 0.437500 0.937500
v 0.937500 0.437500 0.937500
v 0.937500 0.437500 0.062500
v 0.062500 0.437500 0.062500
vt 0.031250 1.000000
vt 0.250000 1.000000
vt 0.250000 0.562500
vt 0.031250 0.562500
f 237/237/6 240/240/6 239/239/6 238/238/6
v 0.812500 0.312500 0.187500
v 0.187500 0.312500 0.187500
v 0.187500 0.187500 0.187500
v 0.812500 0.187500 0.187500
vt 0.687500 0.500000
vt 0.843750 0.500000
vt 0.843750 0.437500
vt 0.687500 0.437500
f 241/241/1 244/244/1 243/243/1 242/242/1
v 0.187500 0.312500 0.812500
v 0.812500 0.312500 0.812500
v 0.812500 0.187500 0.812500
v 0.187500 0.187500 0.812500
vt 0.687500 0.500000
vt 0.843750 0.500000
vt 0.843750 0.437500
vt 0.687500 0.437500
f 245/245/2 248/248/2 247/247/2 246/246/2
v 0.187500 0.312500 0.187500
v 0.187500 0.312500 0.812500
v 0.187500 0.187500 0.812500
v 0.187500 0.187500 0.187500
vt 0.687500 0.500000
vt 0.843750 0.500000
vt 0.843750 0.437500
vt 0.687500 0.437500
f 249/249/3 252/252/3 251/251/3 250/250/3
v 0.812500 0.312500 0.812500
v 0.812500 0.312500 0.187500
v 0.812500 0.187500 0.187500
v 0.812500 0.187500 0.812500
vt 0.687500 0.500000
vt 0.843750 0.500000
vt 0.843750 0.437500
vt 0.687500 0.437500
f 253/253/4 256/256/4 255/255/4 254/254/4
v 0.187500 0.312500 0.187500
v 0.812500 0.312500 0.187500
v 0.812500 0.312500 0.812500
v 0.187500 0.312500 0.812500
vt 0.843750 1.000000
vt 1.000000 1.000000
vt 1.000000 0.687500
vt 0.843750 0.687500
f 257/257/5 260/260/5 259/259/5 258/258/5
v 0.187500 0.187500 0.812500
v 0.812500 0.187500 0.812500
v 0.812500 0.187500 0.187500
v 0.187500 0.187500 0.187500
vt 0.843750 1.000000
vt 1.000000 1.000000
vt 1.000000 0.687500
vt 0.843750 0.687500
f 261/261/6 264/264/6 263/263/6 262/262/6
v 0.687500 0.187500 0.312500
v 0.312500 0.187500 0.312500
v 0.312500 0.062500 0.312500
v 0.687500 0.062500 0.312500
vt 0.843750 0.500000
vt 0.937500 0.500000
vt 0.937500 0.437500
vt 0.843750 0.437500
f 265/265/1 268/268/1 267/267/1 266/266/1
v 0.312500 0.187500 0.687500
v 0.687500 0.187500 0.687500
v 0.687500 0.062500 0.687500
v 0.312500 0.062500 0.687500
vt 0.843750 0.500000
vt 0.937500 0.500000
vt 0.937500 0.437500
vt 0.843750 0.437500
f 269/269/2 272/272/2 271/271/2 270/270/2
v 0.312500 0.187500 0.312500
v 0.312500 0.187500 0.687500
v 0.312500 0.062500 0.687500
v 0.312500 0.062500 0.312500
vt 0.843750 0.500000
vt 0.937500 0.500000
vt 0.937500 0.437500
vt 0.843750 0.437500
f 273/273/3 276/276/3 275/275/3 274/274/3
v 0.687500 0.187500 0.687500
v 0.687500 0.187500 0.312500
v 0.687500 0.062500 0.312500
v 0.687500 0.062500 0.687500
vt 0.843750 0.500000
vt 0.937500 0.500000
vt 0.937500 0.437500
vt 0.843750 0.437500
f 277/277/4 280/280/4 279/279/4 278/278/4
v 0.312500 0.062500 0.687500
v 0.687500 0.062500 0.687500
v 0.687500 0.062500 0.312500
v 0.312500 0.062500 0.312500
vt 0.000000 0.500000
vt 0.093750 0.500000
vt 0.093750 0.312500
vt 0.000000 0.312500
f 281/281/6 284/284/6 283/283/6 282/282/6
v 0.562500 0.062500 0.437500
v 0.437500 0.062500 0.437500
v 0.437500 0.000000 0.437500
v 0.562500 0.000000 0.437500
vt 0.062500 0.312500
vt 0.093750 0.312500
vt 0.093750 0.281250
vt 0.062500 0.281250
f 285/285/1 288/288/1 287/287/1 286/286/1
v 0.437500 0.062500 0.562500
v 0.562500 0.062500 0.562500
v 0.562500 0.000000 0.562500
v 0.437500 0.000000 0.562500
vt 0.062500 0.312500
vt 0.093750 0.312500
vt 0.093750 0.281250
vt 0.062500 0.281250
f 289/289/2 292/292/2 291/291/2 290/290/2
v 0.437500 0.062500 0.437500
v 0.437500 0.062500 0.562500
v 0.437500 0.000000 0.562500
v 0.437500 0.000000 0.437500
vt 0.062500 0.312500
vt 0.093750 0.312500
vt 0.093750 0.281250
vt 0.062500 0.281250
f 293/293/3 296/296/3 295/295/3 294/294/3
v 0.562500 0.062500 0.562500
v 0.562500 0.062500 0.437500
v 0.562500 0.000000 0.437500
v 0.562500 0.000000 0.562500
vt 0.062500 0.312500
vt 0.093750 0.312500
vt 0.093750 0.281250
vt 0.062500 0.281250
f 297/297/4 300/300/4 299/299/4 298/298/4
v 0.437500 0.000000 0.562500
v 0.562500 0.000000 0.562500
v 0.562500 0.000000 0.437500
v 0.437500 0.000000 0.437500
vt 0.031250 0.312500
vt 0.062500 0.312500
vt 0.062500 0.250000
vt 0.031250 0.250000
f 301/301/6 304/304/6 303/303/6 302/302/6
