# nuclearrocketmotor generated by machinegen.py
mtllib nuclearrocketmotor.mtl
usemtl nuclearrocketmotor
vn 0 0 -1
vn 0 0 1
vn -1 0 0
vn 1 0 0
vn 0 1 0
vn 0 -1 0
o rocketmotor
v 1.000000 1.000000 0.000000
v 0.000000 1.000000 0.000000
v 0.000000 0.750000 0.000000
v 1.000000 0.750000 0.000000
vt 0.218750 0.500000
vt 0.468750 0.500000
vt 0.468750 0.375000
vt 0.218750 0.375000
f 1/1/1 4/4/1 3/3/1 2/2/1
v 0.000000 1.000000 1.000000
v 1.000000 1.000000 1.000000
v 1.000000 0.750000 1.000000
v 0.000000 0.750000 1.000000
vt 0.218750 0.500000
vt 0.468750 0.500000
vt 0.468750 0.375000
vt 0.218750 0.375000
f 5/5/2 8/8/2 7/7/2 6/6/2
v 0.000000 1.000000 0.000000
v 0.000000 1.000000 1.000000
v 0.000000 0.750000 1.000000
v 0.000000 0.750000 0.000000
vt 0.218750 0.500000
vt 0.468750 0.500000
vt 0.468750 0.375000
vt 0.218750 0.375000
f 9/9/3 12/12/3 11/11/3 10/10/3
v 1.000000 1.000000 1.000000
v 1.000000 1.000000 0.000000
v 1.000000 0.750000 0.000000
v 1.000000 0.750000 1.000000
vt 0.218750 0.500000
vt 0.468750 0.500000
vt 0.468750 0.375000
vt 0.218750 0.375000
f 13/13/4 16/16/4 15/15/4 14/14/4
v 0.000000 1.000000 0.000000
v 1.000000 1.000000 0.000000
v 1.000000 1.000000 1.000000
v 0.000000 1.000000 1.000000
vt 0.000000 1.000000
vt 0.250000 1.000000
vt 0.250000 0.500000
vt 0.000000 0.500000
f 17/17/5 20/20/5 19/19/5 18/18/5
v 0.000000 0.750000 1.000000
v 1.000000 0.750000 1.000000
v 1.000000 0.750000 0.000000
v 0.000000 0.750000 0.000000
vt 0.000000 1.000000
vt 0.250000 1.000000
vt 0.250000 0.500000
vt 0.000000 0.500000
f 21/21/6 24/24/6 23/23/6 22/22/6
v 0.812500 0.750000 0.187500
v 0.187500 0.750000 0.187500
v 0.187500 0.625000 0.187500
v 0.812500 0.625000 0.187500
vt 0.843750 0.500000
vt 1.000000 0.500000
vt 1.000000 0.437500
vt 0.843750 0.437500
f 25/25/1 28/28/1 27/27/1 26/26/1
v 0.187500 0.750000 0.812500
v 0.812500 0.750000 0.812500
v 0.812500 0.625000 0.812500
v 0.187500 0.625000 0.812500
vt 0.843750 0.500000
vt 1.000000 0.500000
vt 1.000000 0.437500
vt 0.843750 0.437500
f 29/29/2 32/32/2 31/31/2 30/30/2
v 0.187500 0.750000 0.187500
v 0.187500 0.750000 0.812500
v 0.187500 0.625000 0.812500
v 0.187500 0.625000 0.187500
vt 0.843750 0.500000
vt 1.000000 0.500000
vt 1.000000 0.437500
vt 0.843750 0.437500
f 33/33/3 36/36/3 35/35/3 34/34/3
v 0.812500 0.750000 0.812500
v 0.812500 0.750000 0.187500
v 0.812500 0.625000 0.187500
v 0.812500 0.625000 0.812500
vt 0.843750 0.500000
vt 1.000000 0.500000
vt 1.000000 0.437500
vt 0.843750 0.437500
f 37/37/4 40/40/4 39/39/4 38/38/4
v 0.187500 0.625000 0.812500
v 0.812500 0.625000 0.812500
v 0.812500 0.625000 0.187500
v 0.187500 0.625000 0.187500
vt 0.687500 1.000000
vt 0.843750 1.000000
vt 0.843750 0.687500
vt 0.687500 0.687500
f 41/41/6 44/44/6 43/43/6 42/42/6
v 0.750000 0.625000 0.250000
v 0.250000 0.625000 0.250000
v 0.250000 0.437500 0.250000
v 0.750000 0.437500 0.250000
vt 0.468750 0.500000
vt 0.593750 0.500000
vt 0.593750 0.406250
vt 0.468750 0.406250
f 45/45/1 48/48/1 47/47/1 46/46/1
v 0.250000 0.625000 0.750000
v 0.750000 0.625000 0.750000
v 0.750000 0.437500 0.750000
v 0.250000 0.437500 0.750000
vt 0.468750 0.500000
vt 0.593750 0.500000
vt 0.593750 0.406250
vt 0.468750 0.406250
f 49/49/2 52/52/2 51/51/2 50/50/2
v 0.250000 0.625000 0.250000
v 0.250000 0.625000 0.750000
v 0.250000 0.437500 0.750000
v 0.250000 0.437500 0.250000
vt 0.468750 0.500000
vt 0.593750 0.500000
vt 0.593750 0.406250
vt 0.468750 0.406250
f 53/53/3 56/56/3 55/55/3 54/54/3
v 0.750000 0.625000 0.750000
v 0.750000 0.625000 0.250000
v 0.750000 0.437500 0.250000
v 0.750000 0.437500 0.750000
vt 0.468750 0.500000
vt 0.593750 0.500000
vt 0.593750 0.406250
vt 0.468750 0.406250
f 57/57/4 60/60/4 59/59/4 58/58/4
v 0.250000 0.625000 0.250000
v 0.750000 0.625000 0.250000
v 0.750000 0.625000 0.750000
v 0.250000 0.625000 0.750000
vt 0.000000 0.500000
vt 0.125000 0.500000
vt 0.125000 0.250000
vt 0.000000 0.250000
f 61/61/5 64/64/5 63/63/5 62/62/5
v 0.250000 0.437500 0.750000
v 0.750000 0.437500 0.750000
v 0.750000 0.437500 0.250000
v 0.250000 0.437500 0.250000
vt 0.000000 0.500000
vt 0.125000 0.500000
vt 0.125000 0.250000
vt 0.000000 0.250000
f 65/65/6 68/68/6 67/67/6 66/66/6
v 0.812500 0.437500 0.187500
v 0.187500 0.437500 0.187500
v 0.187500 0.312500 0.187500
v 0.812500 0.312500 0.187500
vt 0.843750 0.500000
vt 1.000000 0.500000
vt 1.000000 0.437500
vt 0.843750 0.437500
f 69/69/1 72/72/1 71/71/1 70/70/1
v 0.187500 0.437500 0.812500
v 0.812500 0.437500 0.812500
v 0.812500 0.312500 0.812500
v 0.187500 0.312500 0.812500
vt 0.843750 0.500000
vt 1.000000 0.500000
vt 1.000000 0.437500
vt 0.843750 0.437500
f 73/73/2 76/76/2 75/75/2 74/74/2
v 0.187500 0.437500 0.187500
v 0.187500 0.437500 0.812500
v 0.187500 0.312500 0.812500
v 0.187500 0.312500 0.187500
vt 0.843750 0.500000
vt 1.000000 0.500000
vt 1.000000 0.437500
vt 0.843750 0.437500
f 77/77/3 80/80/3 79/79/3 78/78/3
v 0.812500 0.437500 0.812500
v 0.812500 0.437500 0.187500
v 0.812500 0.312500 0.187500
v 0.812500 0.312500 0.812500
vt 0.843750 0.500000
vt 1.000000 0.500000
vt 1.000000 0.437500
vt 0.843750 0.437500
f 81/81/4 84/84/4 83/83/4 82/82/4
v 0.187500 0.437500 0.187500
v 0.812500 0.437500 0.187500
v 0.812500 0.437500 0.812500
v 0.187500 0.437500 0.812500
vt 0.687500 1.000000
vt 0.843750 1.000000
vt 0.843750 0.687500
vt 0.687500 0.687500
f 85/85/5 88/88/5 87/87/5 86/86/5
v 0.187500 0.312500 0.812500
v 0.812500 0.312500 0.812500
v 0.812500 0.312500 0.187500
v 0.187500 0.312500 0.187500
vt 0.687500 1.000000
vt 0.843750 1.000000
vt 0.843750 0.687500
vt 0.687500 0.687500
f 89/89/6 92/92/6 91/91/6 90/90/6
v 0.312500 0.625000 0.187500
v 0.187500 0.625000 0.187500
v 0.187500 0.437500 0.187500
v 0.312500 0.437500 0.187500
vt 0.593750 0.500000
vt 0.625000 0.500000
vt 0.625000 0.406250
vt 0.593750 0.406250
f 93/93/1 96/96/1 95/95/1 94/94/1
v 0.187500 0.625000 0.312500
v 0.312500 0.625000 0.312500
v 0.312500 0.437500 0.312500
v 0.187500 0.437500 0.312500
vt 0.593750 0.500000
vt 0.625000 0.500000
vt 0.625000 0.406250
vt 0.593750 0.406250
f 97/97/2 100/100/2 99/99/2 98/98/2
v 0.187500 0.625000 0.187500
v 0.187500 0.625000 0.312500
v 0.187500 0.437500 0.312500
v 0.187500 0.437500 0.187500
vt 0.593750 0.500000
vt 0.625000 0.500000
vt 0.625000 0.406250
vt 0.593750 0.406250
f 101/101/3 104/104/3 103/103/3 102/102/3
v 0.312500 0.625000 0.312500
v 0.312500 0.625000 0.187500
v 0.312500 0.437500 0.187500
v 0.312500 0.437500 0.312500
vt 0.593750 0.500000
vt 0.625000 0.500000
vt 0.625000 0.406250
vt 0.593750 0.406250
f 105/105/4 108/108/4 107/107/4 106/106/4
v 0.812500 0.625000 0.187500
v 0.687500 0.625000 0.187500
v 0.687500 0.437500 0.187500
v 0.812500 0.437500 0.187500
vt 0.593750 0.500000
vt 0.625000 0.500000
vt 0.625000 0.406250
vt 0.593750 0.406250
f 109/109/1 112/112/1 111/111/1 110/110/1
v 0.687500 0.625000 0.312500
v 0.812500 0.625000 0.312500
v 0.812500 0.437500 0.312500
v 0.687500 0.437500 0.312500
vt 0.593750 0.500000
vt 0.625000 0.500000
vt 0.625000 0.406250
vt 0.593750 0.406250
f 113/113/2 116/116/2 115/115/2 114/114/2
v 0.687500 0.625000 0.187500
v 0.687500 0.625000 0.312500
v 0.687500 0.437500 0.312500
v 0.687500 0.437500 0.187500
vt 0.593750 0.500000
vt 0.625000 0.500000
vt 0.625000 0.406250
vt 0.593750 0.406250
f 117/117/3 120/120/3 119/119/3 118/118/3
v 0.812500 0.625000 0.312500
v 0.812500 0.625000 0.187500
v 0.812500 0.437500 0.187500
v 0.812500 0.437500 0.312500
vt 0.593750 0.500000
vt 0.625000 0.500000
vt 0.625000 0.406250
vt 0.593750 0.406250
f 121/121/4 124/124/4 123/123/4 122/122/4
v 0.312500 0.625000 0.687500
v 0.187500 0.625000 0.687500
v 0.187500 0.437500 0.687500
v 0.312500 0.437500 0.687500
vt 0.593750 0.500000
vt 0.625000 0.500000
vt 0.625000 0.406250
vt 0.593750 0.406250
f 125/125/1 128/128/1 127/127/1 126/126/1
v 0.187500 0.625000 0.812500
v 0.312500 0.625000 0.812500
v 0.312500 0.437500 0.812500
v 0.187500 0.437500 0.812500
vt 0.593750 0.500000
vt 0.625000 0.500000
vt 0.625000 0.406250
vt 0.593750 0.406250
f 129/129/2 132/132/2 131/131/2 130/130/2
v 0.187500 0.625000 0.687500
v 0.187500 0.625000 0.812500
v 0.187500 0.437500 0.812500
v 0.187500 0.437500 0.687500
vt 0.593750 0.500000
vt 0.625000 0.500000
vt 0.625000 0.406250
vt 0.593750 0.406250
f 133/133/3 136/136/3 135/135/3 134/134/3
v 0.312500 0.625000 0.812500
v 0.312500 0.625000 0.687500
v 0.312500 0.437500 0.687500
v 0.312500 0.437500 0.812500
vt 0.593750 0.500000
vt 0.625000 0.500000
vt 0.625000 0.406250
vt 0.593750 0.406250
f 137/137/4 140/140/4 139/139/4 138/138/4
v 0.812500 0.625000 0.687500
v 0.687500 0.625000 0.687500
v 0.687500 0.437500 0.687500
v 0.812500 0.437500 0.687500
vt 0.593750 0.500000
vt 0.625000 0.500000
vt 0.625000 0.406250
vt 0.593750 0.406250
f 141/141/1 144/144/1 143/143/1 142/142/1
v 0.687500 0.625000 0.812500
v 0.812500 0.625000 0.812500
v 0.812500 0.437500 0.812500
v 0.687500 0.437500 0.812500
vt 0.593750 0.500000
vt 0.625000 0.500000
vt 0.625000 0.406250
vt 0.593750 0.406250
f 145/145/2 148/148/2 147/147/2 146/146/2
v 0.687500 0.625000 0.687500
v 0.687500 0.625000 0.812500
v 0.687500 0.437500 0.812500
v 0.687500 0.437500 0.687500
vt 0.593750 0.500000
vt 0.625000 0.500000
vt 0.625000 0.406250
vt 0.593750 0.406250
f 149/149/3 152/152/3 151/151/3 150/150/3
v 0.812500 0.625000 0.812500
v 0.812500 0.625000 0.687500
v 0.812500 0.437500 0.687500
v 0.812500 0.437500 0.812500
vt 0.593750 0.500000
vt 0.625000 0.500000
vt 0.625000 0.406250
vt 0.593750 0.406250
f 153/153/4 156/156/4 155/155/4 154/154/4
v 0.687500 0.312500 0.312500
v 0.312500 0.312500 0.312500
v 0.312500 0.250000 0.312500
v 0.687500 0.250000 0.312500
vt 0.156250 0.250000
vt 0.250000 0.250000
vt 0.250000 0.218750
vt 0.156250 0.218750
f 157/157/1 160/160/1 159/159/1 158/158/1
v 0.312500 0.312500 0.687500
v 0.687500 0.312500 0.687500
v 0.687500 0.250000 0.687500
v 0.312500 0.250000 0.687500
vt 0.156250 0.250000
vt 0.250000 0.250000
vt 0.250000 0.218750
vt 0.156250 0.218750
f 161/161/2 164/164/2 163/163/2 162/162/2
v 0.312500 0.312500 0.312500
v 0.312500 0.312500 0.687500
v 0.312500 0.250000 0.687500
v 0.312500 0.250000 0.312500
vt 0.156250 0.250000
vt 0.250000 0.250000
vt 0.250000 0.218750
vt 0.156250 0.218750
f 165/165/3 168/168/3 167/167/3 166/166/3
v 0.687500 0.312500 0.687500
v 0.687500 0.312500 0.312500
v 0.687500 0.250000 0.312500
v 0.687500 0.250000 0.687500
vt 0.156250 0.250000
vt 0.250000 0.250000
vt 0.250000 0.218750
vt 0.156250 0.218750
f 169/169/4 172/172/4 171/171/4 170/170/4
v 0.312500 0.312500 0.312500
v 0.687500 0.312500 0.312500
v 0.687500 0.312500 0.687500
v 0.312500 0.312500 0.687500
vt 0.125000 0.500000
vt 0.218750 0.500000
vt 0.218750 0.312500
vt 0.125000 0.312500
f 173/173/5 176/176/5 175/175/5 174/174/5
v 0.312500 0.250000 0.687500
v 0.687500 0.250000 0.687500
v 0.687500 0.250000 0.312500
v 0.312500 0.250000 0.312500
vt 0.125000 0.500000
vt 0.218750 0.500000
vt 0.218750 0.312500
vt 0.125000 0.312500
f 177/177/6 180/180/6 179/179/6 178/178/6
v 0.812500 0.250000 0.187500
v 0.187500 0.250000 0.187500
v 0.187500 0.125000 0.187500
v 0.812500 0.125000 0.187500
vt 0.000000 0.250000
vt 0.156250 0.250000
vt 0.156250 0.187500
vt 0.000000 0.187500
f 181/181/1 184/184/1 183/183/1 182/182/1
v 0.187500 0.250000 0.812500
v 0.812500 0.250000 0.812500
v 0.812500 0.125000 0.812500
v 0.187500 0.125000 0.812500
vt 0.000000 0.250000
vt 0.156250 0.250000
vt 0.156250 0.187500
vt 0.000000 0.187500
f 185/185/2 188/188/2 187/187/2 186/186/2
v 0.187500 0.250000 0.187500
v 0.187500 0.250000 0.812500
v 0.187500 0.125000 0.812500
v 0.187500 0.125000 0.187500
vt 0.000000 0.250000
vt 0.156250 0.250000
vt 0.156250 0.187500
vt 0.000000 0.187500
f 189/189/3 192/192/3 191/191/3 190/190/3
v 0.812500 0.250000 0.812500
v 0.812500 0.250000 0.187500
v 0.812500 0.125000 0.187500
v 0.812500 0.125000 0.812500
vt 0.000000 0.250000
vt 0.156250 0.250000
vt 0.156250 0.187500
vt 0.000000 0.187500
f 193/193/4 196/196/4 195/195/4 194/194/4
v 0.187500 0.250000 0.187500
v 0.812500 0.250000 0.187500
v 0.812500 0.250000 0.812500
v 0.187500 0.250000 0.812500
vt 0.843750 1.000000
vt 1.000000 1.000000
vt 1.000000 0.687500
vt 0.843750 0.687500
f 197/197/5 200/200/5 199/199/5 198/198/5
v 0.187500 0.125000 0.812500
v 0.812500 0.125000 0.812500
v 0.812500 0.125000 0.187500
v 0.187500 0.125000 0.187500
vt 0.843750 1.000000
vt 1.000000 1.000000
vt 1.000000 0.687500
vt 0.843750 0.687500
f 201/201/6 204/204/6 203/203/6 202/202/6
v 0.937500 0.125000 0.062500
v 0.062500 0.125000 0.062500
v 0.062500 0.000000 0.062500
v 0.937500 0.000000 0.062500
vt 0.625000 0.500000
vt 0.843750 0.500000
vt 0.843750 0.437500
vt 0.625000 0.437500
f 205/205/1 208/208/1 207/207/1 206/206/1
v 0.062500 0.125000 0.937500
v 0.937500 0.125000 0.937500
v 0.937500 0.000000 0.937500
v 0.062500 0.000000 0.937500
vt 0.625000 0.500000
vt 0.843750 0.500000
vt 0.843750 0.437500
vt 0.625000 0.437500
f 209/209/2 212/212/2 211/211/2 210/210/2
v 0.062500 0.125000 0.062500
v 0.062500 0.125000 0.937500
v 0.062500 0.000000 0.937500
v 0.062500 0.000000 0.062500
vt 0.625000 0.500000
vt 0.843750 0.500000
vt 0.843750 0.437500
vt 0.625000 0.437500
f 213/213/3 216/216/3 215/215/3 214/214/3
v 0.937500 0.125000 0.937500
v 0.937500 0.125000 0.062500
v 0.937500 0.000000 0.062500
v 0.937500 0.000000 0.937500
vt 0.625000 0.500000
vt 0.843750 0.500000
vt 0.843750 0.437500
vt 0.625000 0.437500
f 217/217/4 220/220/4 219/219/4 218/218/4
v 0.062500 0.125000 0.062500
v 0.937500 0.125000 0.062500
v 0.937500 0.125000 0.937500
v 0.062500 0.125000 0.937500
vt 0.250000 1.000000
vt 0.468750 1.000000
vt 0.468750 0.562500
vt 0.250000 0.562500
f 221/221/5 224/224/5 223/223/5 222/222/5
v 0.062500 0.000000 0.937500
v 0.937500 0.000000 0.937500
v 0.937500 0.000000 0.062500
v 0.062500 0.000000 0.062500
vt 0.468750 1.000000
vt 0.687500 1.000000
vt 0.687500 0.562500
vt 0.468750 0.562500
f 225/225/6 228/228/6 227/227/6 226/226/6
