# rocketmotor generated by machinegen.py
mtllib rocketmotor.mtl
usemtl rocketmotor
vn 0 0 -1
vn 0 0 1
vn -1 0 0
vn 1 0 0
vn 0 1 0
vn 0 -1 0
o rocketmotor
v 1.000000 1.000000 0.000000
v 0.000000 1.000000 0.000000
v 0.000000 0.750000 0.000000
v 1.000000 0.750000 0.000000
vt 0.000000 0.500000
vt 0.250000 0.500000
vt 0.250000 0.375000
vt 0.000000 0.375000
f 1/1/1 4/4/1 3/3/1 2/2/1
v 0.000000 1.000000 1.000000
v 1.000000 1.000000 1.000000
v 1.000000 0.750000 1.000000
v 0.000000 0.750000 1.000000
vt 0.000000 0.500000
vt 0.250000 0.500000
vt 0.250000 0.375000
vt 0.000000 0.375000
f 5/5/2 8/8/2 7/7/2 6/6/2
v 0.000000 1.000000 0.000000
v 0.000000 1.000000 1.000000
v 0.000000 0.750000 1.000000
v 0.000000 0.750000 0.000000
vt 0.000000 0.500000
vt 0.250000 0.500000
vt 0.250000 0.375000
vt 0.000000 0.375000
f 9/9/3 12/12/3 11/11/3 10/10/3
v 1.000000 1.000000 1.000000
v 1.000000 1.000000 0.000000
v 1.000000 0.750000 0.000000
v 1.000000 0.750000 1.000000
vt 0.000000 0.500000
vt 0.250000 0.500000
vt 0.250000 0.375000
vt 0.000000 0.375000
f 13/13/4 16/16/4 15/15/4 14/14/4
v 0.000000 1.000000 0.000000
v 1.000000 1.000000 0.000000
v 1.000000 1.000000 1.000000
v 0.000000 1.000000 1.000000
vt 0.000000 1.000000
vt 0.250000 1.000000
vt 0.250000 0.500000
vt 0.000000 0.500000
f 17/17/5 20/20/5 19/19/5 18/18/5
v 0.000000 0.750000 1.000000
v 1.000000 0.750000 1.000000
v 1.000000 0.750000 0.000000
v 0.000000 0.750000 0.000000
vt 0.000000 1.000000
vt 0.250000 1.000000
vt 0.250000 0.500000
vt 0.000000 0.500000
f 21/21/6 24/24/6 23/23/6 22/22/6
v 0.687500 0.750000 0.312500
v 0.312500 0.750000 0.312500
v 0.312500 0.562500 0.312500
v 0.687500 0.562500 0.312500
vt 0.718750 0.500000
vt 0.812500 0.500000
vt 0.812500 0.406250
vt 0.718750 0.406250
f 25/25/1 28/28/1 27/27/1 26/26/1
v 0.312500 0.750000 0.687500
v 0.687500 0.750000 0.687500
v 0.687500 0.562500 0.687500
v 0.312500 0.562500 0.687500
vt 0.718750 0.500000
vt 0.812500 0.500000
vt 0.812500 0.406250
vt 0.718750 0.406250
f 29/29/2 32/32/2 31/31/2 30/30/2
v 0.312500 0.750000 0.312500
v 0.312500 0.750000 0.687500
v 0.312500 0.562500 0.687500
v 0.312500 0.562500 0.312500
vt 0.718750 0.500000
vt 0.812500 0.500000
vt 0.812500 0.406250
vt 0.718750 0.406250
f 33/33/3 36/36/3 35/35/3 34/34/3
v 0.687500 0.750000 0.687500
v 0.687500 0.750000 0.312500
v 0.687500 0.562500 0.312500
v 0.687500 0.562500 0.687500
vt 0.718750 0.500000
vt 0.812500 0.500000
vt 0.812500 0.406250
vt 0.718750 0.406250
f 37/37/4 40/40/4 39/39/4 38/38/4
v 0.312500 0.562500 0.687500
v 0.687500 0.562500 0.687500
v 0.687500 0.562500 0.312500
v 0.312500 0.562500 0.312500
vt 0.906250 1.000000
vt 1.000000 1.000000
vt 1.000000 0.812500
vt 0.906250 0.812500
f 41/41/6 44/44/6 43/43/6 42/42/6
v 0.750000 0.562500 0.250000
v 0.250000 0.562500 0.250000
v 0.250000 0.375000 0.250000
v 0.750000 0.375000 0.250000
vt 0.593750 0.500000
vt 0.718750 0.500000
vt 0.718750 0.406250
vt 0.593750 0.406250
f 45/45/1 48/48/1 47/47/1 46/46/1
v 0.250000 0.562500 0.750000
v 0.750000 0.562500 0.750000
v 0.750000 0.375000 0.750000
v 0.250000 0.375000 0.750000
vt 0.593750 0.500000
vt 0.718750 0.500000
vt 0.718750 0.406250
vt 0.593750 0.406250
f 49/49/2 52/52/2 51/51/2 50/50/2
v 0.250000 0.562500 0.250000
v 0.250000 0.562500 0.750000
v 0.250000 0.375000 0.750000
v 0.250000 0.375000 0.250000
vt 0.593750 0.500000
vt 0.718750 0.500000
vt 0.718750 0.406250
vt 0.593750 0.406250
f 53/53/3 56/56/3 55/55/3 54/54/3
v 0.750000 0.562500 0.750000
v 0.750000 0.562500 0.250000
v 0.750000 0.375000 0.250000
v 0.750000 0.375000 0.750000
vt 0.593750 0.500000
vt 0.718750 0.500000
vt 0.718750 0.406250
vt 0.593750 0.406250
f 57/57/4 60/60/4 59/59/4 58/58/4
v 0.250000 0.562500 0.250000
v 0.750000 0.562500 0.250000
v 0.750000 0.562500 0.750000
v 0.250000 0.562500 0.750000
vt 0.781250 1.000000
vt 0.906250 1.000000
vt 0.906250 0.750000
vt 0.781250 0.750000
f 61/61/5 64/64/5 63/63/5 62/62/5
v 0.250000 0.375000 0.750000
v 0.750000 0.375000 0.750000
v 0.750000 0.375000 0.250000
v 0.250000 0.375000 0.250000
vt 0.781250 1.000000
vt 0.906250 1.000000
vt 0.906250 0.750000
vt 0.781250 0.750000
f 65/65/6 68/68/6 67/67/6 66/66/6
v 0.812500 0.375000 0.187500
v 0.187500 0.375000 0.187500
v 0.187500 0.187500 0.187500
v 0.812500 0.187500 0.187500
vt 0.437500 0.500000
vt 0.593750 0.500000
vt 0.593750 0.406250
vt 0.437500 0.406250
f 69/69/1 72/72/1 71/71/1 70/70/1
v 0.187500 0.375000 0.812500
v 0.812500 0.375000 0.812500
v 0.812500 0.187500 0.812500
v 0.187500 0.187500 0.812500
vt 0.437500 0.500000
vt 0.593750 0.500000
vt 0.593750 0.406250
vt 0.437500 0.406250
f 73/73/2 76/76/2 75/75/2 74/74/2
v 0.187500 0.375000 0.187500
v 0.187500 0.375000 0.812500
v 0.187500 0.187500 0.812500
v 0.187500 0.187500 0.187500
vt 0.437500 0.500000
vt 0.593750 0.500000
vt 0.593750 0.406250
vt 0.437500 0.406250
f 77/77/3 80/80/3 79/79/3 78/78/3
v 0.812500 0.375000 0.812500
v 0.812500 0.375000 0.187500
v 0.812500 0.187500 0.187500
v 0.812500 0.187500 0.812500
vt 0.437500 0.500000
vt 0.593750 0.500000
vt 0.593750 0.406250
vt 0.437500 0.406250
f 81/81/4 84/84/4 83/83/4 82/82/4
v 0.187500 0.375000 0.187500
v 0.812500 0.375000 0.187500
v 0.812500 0.375000 0.812500
v 0.187500 0.375000 0.812500
vt 0.625000 1.000000
vt 0.781250 1.000000
vt 0.781250 0.687500
vt 0.625000 0.687500
f 85/85/5 88/88/5 87/87/5 86/86/5
v 0.187500 0.187500 0.812500
v 0.812500 0.187500 0.812500
v 0.812500 0.187500 0.187500
v 0.187500 0.187500 0.187500
vt 0.625000 1.000000
vt 0.781250 1.000000
vt 0.781250 0.687500
vt 0.625000 0.687500
f 89/89/6 92/92/6 91/91/6 90/90/6
v 0.875000 0.187500 0.125000
v 0.125000 0.187500 0.125000
v 0.125000 0.000000 0.125000
v 0.875000 0.000000 0.125000
vt 0.250000 0.500000
vt 0.437500 0.500000
vt 0.437500 0.406250
vt 0.250000 0.406250
f 93/93/1 96/96/1 95/95/1 94/94/1
v 0.125000 0.187500 0.875000
v 0.875000 0.187500 0.875000
v 0.875000 0.000000 0.875000
v 0.125000 0.000000 0.875000
vt 0.250000 0.500000
vt 0.437500 0.500000
vt 0.437500 0.406250
vt 0.250000 0.406250
f 97/97/2 100/100/2 99/99/2 98/98/2
v 0.125000 0.187500 0.125000
v 0.125000 0.187500 0.875000
v 0.125000 0.000000 0.875000
v 0.125000 0.000000 0.125000
vt 0.250000 0.500000
vt 0.437500 0.500000
vt 0.437500 0.406250
vt 0.250000 0.406250
f 101/101/3 104/104/3 103/103/3 102/102/3
v 0.875000 0.187500 0.875000
v 0.875000 0.187500 0.125000
v 0.875000 0.000000 0.125000
v 0.875000 0.000000 0.875000
vt 0.250000 0.500000
vt 0.437500 0.500000
vt 0.437500 0.406250
vt 0.250000 0.406250
f 105/105/4 108/108/4 107/107/4 106/106/4
v 0.125000 0.187500 0.125000
v 0.875000 0.187500 0.125000
v 0.875000 0.187500 0.875000
v 0.125000 0.187500 0.875000
vt 0.250000 1.000000
vt 0.437500 1.000000
vt 0.437500 0.625000
vt 0.250000 0.625000
f 109/109/5 112/112/5 111/111/5 110/110/5
v 0.125000 0.000000 0.875000
v 0.875000 0.000000 0.875000
v 0.875000 0.000000 0.125000
v 0.125000 0.000000 0.125000
vt 0.437500 1.000000
vt 0.625000 1.000000
vt 0.625000 0.625000
vt 0.437500 0.625000
f 113/113/6 116/116/6 115/115/6 114/114/6
